<svg xmlns="http://www.w3.org/2000/svg" width="175" height="203.843" viewBox="0 0 175 203.843">
  <g id="M_1_6_F" transform="translate(-89 -233.365)">
    <g id="Grupo_109" data-name="Grupo 109" transform="translate(88.648 233.365)">
      <g id="Trazado_620" data-name="Trazado 620" transform="translate(0.352)" fill="#fff">
        <path d="M 156 174.5 L 19 174.5 C 16.50230407714844 174.5 14.07956504821777 174.0109405517578 11.79910850524902 173.04638671875 C 9.596217155456543 172.1146240234375 7.617695808410645 170.7806549072266 5.918521881103516 169.0814819335938 C 4.219347953796387 167.3823089599609 2.885369539260864 165.4037780761719 1.953608751296997 163.2008972167969 C 0.9890652298927307 160.9204406738281 0.5 158.4976959228516 0.5 156 L 0.5 19 C 0.5 16.50230407714844 0.9890652298927307 14.07956504821777 1.953608751296997 11.79910850524902 C 2.885369539260864 9.596217155456543 4.219347953796387 7.617695808410645 5.918521881103516 5.918521881103516 C 7.617695808410645 4.219347953796387 9.596217155456543 2.885369539260864 11.79910850524902 1.953608751296997 C 14.07956504821777 0.9890652298927307 16.50230407714844 0.5 19 0.5 L 156 0.5 C 158.4976959228516 0.5 160.9204406738281 0.9890652298927307 163.2008972167969 1.953608751296997 C 165.4037780761719 2.885369539260864 167.3823089599609 4.219347953796387 169.0814819335938 5.918521881103516 C 170.7806549072266 7.617695808410645 172.1146240234375 9.596217155456543 173.04638671875 11.79910850524902 C 174.0109405517578 14.07956504821777 174.5 16.50230407714844 174.5 19 L 174.5 156 C 174.5 158.4976959228516 174.0109405517578 160.9204406738281 173.04638671875 163.2008972167969 C 172.1146240234375 165.4037780761719 170.7806549072266 167.3823089599609 169.0814819335938 169.0814819335938 C 167.3823089599609 170.7806549072266 165.4037780761719 172.1146240234375 163.2008972167969 173.04638671875 C 160.9204406738281 174.0109405517578 158.4976959228516 174.5 156 174.5 Z" stroke="none"/>
        <path d="M 19 1 C 14.1920166015625 1 9.671844482421875 2.872314453125 6.272064208984375 6.272064208984375 C 2.872314453125 9.671844482421875 1 14.1920166015625 1 19 L 1 156 C 1 160.8079833984375 2.872314453125 165.3281555175781 6.272064208984375 168.7279357910156 C 9.671844482421875 172.127685546875 14.1920166015625 174 19 174 L 156 174 C 160.8079833984375 174 165.3281555175781 172.127685546875 168.7279357910156 168.7279357910156 C 172.127685546875 165.3281555175781 174 160.8079833984375 174 156 L 174 19 C 174 14.1920166015625 172.127685546875 9.671844482421875 168.7279357910156 6.272064208984375 C 165.3281555175781 2.872314453125 160.8079833984375 1 156 1 L 19 1 M 19 0 L 156 0 C 166.493408203125 0 175 8.506591796875 175 19 L 175 156 C 175 166.493408203125 166.493408203125 175 156 175 L 19 175 C 8.506591796875 175 0 166.493408203125 0 156 L 0 19 C 0 8.506591796875 8.506591796875 0 19 0 Z" stroke="none" fill="#f6b85f"/>
      </g>
      <g id="iconfinder_golf_310330" transform="translate(50.374 61.21)">
        <ellipse id="Elipse_122" data-name="Elipse 122" cx="3.571" cy="3.571" rx="3.571" ry="3.571" transform="translate(10.714 0)"/>
        <path id="Trazado_631" data-name="Trazado 631" d="M7.135,13.607a.859.859,0,0,1,.357-1.071l9.821-3.928L16.6,7,5.885,11.107a2.774,2.774,0,0,0-1.607,3.571l.357,1.071a2.774,2.774,0,0,0,3.571,1.607h0c.357-.179.536-.536.357-.714Z" transform="translate(-3.921 1.928)"/>
        <path id="Trazado_632" data-name="Trazado 632" d="M4,13.471l4.643-1.964C8.286,4.364,12.928,2.4,12.928,2.4S5.429,4.186,4,13.471Z" transform="translate(-4 -1.686)"/>
        <path id="Trazado_633" data-name="Trazado 633" d="M15.964,23.428l.357,3.214a6.448,6.448,0,0,1-.536,3.214L11.5,37.713h4.107l4.643-8.928.893-7.857-2.5-8.035,3.036-1.25a1.341,1.341,0,0,0,.714-1.607C20.964,5.571,18.643,3.071,16.143,2c.536.179,1.429,1.786,1.429,3.571V5.75a6.527,6.527,0,0,1,1.964,3.571l-4.643,1.786h-.179l-1.071.357A2.542,2.542,0,0,0,12.214,14.5Z" transform="translate(1.892 -2)"/>
        <path id="Trazado_634" data-name="Trazado 634" d="M23.528,28.521,17.993,13.7,17.1,20.307l3.036,8.214Z" transform="translate(6.292 7.192)"/>
      </g>
      <g id="Page-1" transform="translate(93.282 46.925)">
        <g id="icon-28-golf" transform="translate(0 0)">
          <path id="golf" d="M17.5,12.607V43.856h1.786V21.662L42.5,11.714,17.5,1V12.607Zm3.571,22.511c1.437-.125,2.931-.19,4.464-.19,11.341,0,20.535,3.6,20.535,8.035S36.876,51,25.535,51,5,47.4,5,42.963c0-3.046,4.331-5.7,10.714-7.059V40.82a2.579,2.579,0,0,0-1.786,2.143c0,1.479,2,2.678,4.464,2.678s4.464-1.2,4.464-2.678a2.579,2.579,0,0,0-1.786-2.143v-5.7Zm11.607,8.738c1.479,0,2.678-.8,2.678-1.786s-1.2-1.786-2.678-1.786S30,41.084,30,42.07s1.2,1.786,2.678,1.786Z" transform="translate(-5 -1)" fill-rule="evenodd"/>
        </g>
      </g>
      <path id="Trazado_695" data-name="Trazado 695" d="M-33.309-21.7a5.391,5.391,0,0,1,3.022.93,6.953,6.953,0,0,1,2.279,2.511,7.22,7.22,0,0,1,.868,3.534,7.157,7.157,0,0,1-.868,3.5A7.087,7.087,0,0,1-30.287-8.7a5.329,5.329,0,0,1-3.022.945h-5.7l.31-.558v6.417a1.923,1.923,0,0,1-.5,1.349A1.681,1.681,0,0,1-40.5,0a1.645,1.645,0,0,1-1.271-.543,1.923,1.923,0,0,1-.5-1.349V-19.809a1.831,1.831,0,0,1,.542-1.348,1.831,1.831,0,0,1,1.348-.542Zm0,10.416a1.721,1.721,0,0,0,1.147-.5,3.932,3.932,0,0,0,.93-1.286,3.849,3.849,0,0,0,.372-1.658,3.818,3.818,0,0,0-.372-1.674,3.793,3.793,0,0,0-.93-1.256,1.749,1.749,0,0,0-1.147-.48h-5.766l.372-.558v7.9l-.341-.5Zm16.461-5.549-6.7,15.748a1.907,1.907,0,0,1-.667.915,1.631,1.631,0,0,1-.977.325,1.554,1.554,0,0,1-1.24-.465,1.69,1.69,0,0,1-.4-1.147,2.051,2.051,0,0,1,.093-.589l7.719-18.538a2.022,2.022,0,0,1,.76-.961,1.624,1.624,0,0,1,1.1-.279,1.816,1.816,0,0,1,1.038.326,1.836,1.836,0,0,1,.7.914L-7.8-2.418a2.086,2.086,0,0,1,.155.744A1.718,1.718,0,0,1-8.184-.341a1.732,1.732,0,0,1-1.194.5,1.626,1.626,0,0,1-1.008-.341,2.216,2.216,0,0,1-.7-.93l-6.665-15.531ZM-22.583-4.867l1.705-3.565h8.37l.589,3.565ZM-2.774,0a2.423,2.423,0,0,1-1.55-.543,1.66,1.66,0,0,1-.682-1.349V-19.809a1.831,1.831,0,0,1,.543-1.348A1.831,1.831,0,0,1-3.115-21.7H5.813a5.744,5.744,0,0,1,3.023.852,6.479,6.479,0,0,1,2.279,2.356,6.788,6.788,0,0,1,.868,3.456,5.747,5.747,0,0,1-.481,2.294,7.17,7.17,0,0,1-1.3,2.015A6.09,6.09,0,0,1,8.355-9.331l.031-.713a5.266,5.266,0,0,1,1.441,1.1,5.2,5.2,0,0,1,.9,1.364,4.649,4.649,0,0,1,.388,1.565q.124.775.17,1.364a4.041,4.041,0,0,0,.186.992,1.1,1.1,0,0,0,.542.62,1.745,1.745,0,0,1,.852,1.162,1.445,1.445,0,0,1-.356,1.348,1.5,1.5,0,0,1-.868.512,2.587,2.587,0,0,1-1.054,0A3.15,3.15,0,0,1,9.719-.31a4.384,4.384,0,0,1-1.054-.915,4.55,4.55,0,0,1-.852-1.627,8.874,8.874,0,0,1-.326-2.635A2.529,2.529,0,0,0,7.3-6.464a2.244,2.244,0,0,0-.527-.775,2.227,2.227,0,0,0-.868-.5,4.04,4.04,0,0,0-1.24-.17H-1.6l.465-.713v6.727A2.09,2.09,0,0,1-1.565-.543,1.462,1.462,0,0,1-2.774,0Zm1.209-11.1H5.658a1.562,1.562,0,0,0,1.085-.511A3.836,3.836,0,0,0,7.611-13a5.338,5.338,0,0,0,.341-1.937,3.542,3.542,0,0,0-.728-2.278,2.034,2.034,0,0,0-1.566-.915H-1.5l.372-.992v8.773ZM37.185,0a1.743,1.743,0,0,1-1.3-.543,1.859,1.859,0,0,1-.527-1.349v-14.57l.651.155L30.024-8.9l-.155-.4H40.378a1.682,1.682,0,0,1,1.24.5,1.682,1.682,0,0,1,.5,1.24,1.6,1.6,0,0,1-.5,1.194,1.711,1.711,0,0,1-1.24.481H27.3a1.9,1.9,0,0,1-1.255-.527,1.66,1.66,0,0,1-.6-1.3,1.89,1.89,0,0,1,.465-1.24l9.8-12a1.765,1.765,0,0,1,.651-.542,1.982,1.982,0,0,1,.9-.2,1.73,1.73,0,0,1,1.318.542,1.89,1.89,0,0,1,.512,1.348V-1.891a1.831,1.831,0,0,1-.542,1.349A1.831,1.831,0,0,1,37.185,0Z" transform="translate(87.352 124.925)"/>
    </g>
    <g id="Grupo_539" data-name="Grupo 539" transform="translate(-4.081)">
      <g id="Trazado_636" data-name="Trazado 636" transform="translate(114.081 377.29)" fill="#fff">
        <path d="M 51.29225921630859 59.41797256469727 L 8.860430717468262 59.41797256469727 L 0.5752328634262085 0.5000043511390686 L 59.42623138427734 0.5000043511390686 L 51.29225921630859 59.41797256469727 Z" stroke="none"/>
        <path d="M 1.150463104248047 0.9999961853027344 L 9.295040130615234 58.91796493530273 L 50.85654449462891 58.91796493530273 L 58.85246276855469 0.9999961853027344 L 1.150463104248047 0.9999961853027344 M 0 -3.814697265625e-06 L 60 -3.814697265625e-06 L 51.72797012329102 59.91796493530273 L 8.425819396972656 59.91796493530273 L 0 -3.814697265625e-06 Z" stroke="none" fill="#f0f0f0"/>
      </g>
      <g id="Grupo_537" data-name="Grupo 537" transform="translate(0 0.269)">
        <path id="Trazado_650" data-name="Trazado 650" d="M4.928-15.62,4.84-16.632a10.055,10.055,0,0,1,2.9,1.936,8.786,8.786,0,0,1,1.892,2.6,6.77,6.77,0,0,1,.66,2.9A8.146,8.146,0,0,1,8.91-4.6,10.124,10.124,0,0,1,5.192-1.254,10.786,10.786,0,0,1,0,0,10.786,10.786,0,0,1-5.192-1.254,10.124,10.124,0,0,1-8.91-4.6,8.146,8.146,0,0,1-10.3-9.2a6.833,6.833,0,0,1,.858-3.5A8.6,8.6,0,0,1-7.282-15.18a16.649,16.649,0,0,1,2.574-1.672L-5.06-15.62a8.646,8.646,0,0,1-2.134-1.254,6.293,6.293,0,0,1-1.694-2.09,6.428,6.428,0,0,1-.66-2.992,8.136,8.136,0,0,1,1.276-4.466,9.285,9.285,0,0,1,3.454-3.19A9.9,9.9,0,0,1,0-30.8a9.735,9.735,0,0,1,4.818,1.188,9.381,9.381,0,0,1,3.41,3.19A8.136,8.136,0,0,1,9.5-21.956a6.176,6.176,0,0,1-.748,3.168,6.389,6.389,0,0,1-1.8,2.024A10.274,10.274,0,0,1,4.928-15.62Zm-9.2-6.248a4.049,4.049,0,0,0,.55,2.112A4.07,4.07,0,0,0-2.2-18.282a4.374,4.374,0,0,0,2.2.55,4.254,4.254,0,0,0,2.178-.55,4.119,4.119,0,0,0,1.5-1.474,4.049,4.049,0,0,0,.55-2.112,3.894,3.894,0,0,0-1.21-2.926A4.172,4.172,0,0,0,0-25.96a4.229,4.229,0,0,0-3.058,1.166A3.894,3.894,0,0,0-4.268-21.868ZM0-4.84a5.155,5.155,0,0,0,3.564-1.3A4.068,4.068,0,0,0,5.016-9.284a4.1,4.1,0,0,0-.66-2.288,4.678,4.678,0,0,0-1.8-1.606A5.454,5.454,0,0,0,0-13.772a5.454,5.454,0,0,0-2.552.594,4.678,4.678,0,0,0-1.8,1.606,4.1,4.1,0,0,0-.66,2.288A4.068,4.068,0,0,0-3.564-6.138,5.155,5.155,0,0,0,0-4.84Z" transform="translate(144.377 422.821)" fill="#f0f0f0"/>
      </g>
      <g id="Grupo_538" data-name="Grupo 538">
        <path id="Trazado_637" data-name="Trazado 637" d="M0,0H60L51.728,59.918H8.426Z" transform="translate(186.081 377.29)" fill="#fbe1a2"/>
        <path id="Trazado_651" data-name="Trazado 651" d="M5.06,0A2.474,2.474,0,0,1,3.212-.77a2.639,2.639,0,0,1-.748-1.914v-20.68l.924.22L-5.1-12.628l-.22-.572H9.592a2.388,2.388,0,0,1,1.76.7,2.388,2.388,0,0,1,.7,1.76,2.263,2.263,0,0,1-.7,1.694,2.429,2.429,0,0,1-1.76.682H-8.976a2.692,2.692,0,0,1-1.782-.748,2.356,2.356,0,0,1-.858-1.848,2.683,2.683,0,0,1,.66-1.76l13.9-17.028a2.505,2.505,0,0,1,.924-.77A2.813,2.813,0,0,1,5.148-30.8a2.455,2.455,0,0,1,1.87.77,2.682,2.682,0,0,1,.726,1.914V-2.684A2.6,2.6,0,0,1,6.974-.77,2.6,2.6,0,0,1,5.06,0Z" transform="translate(215.697 423.089)" fill="#e5914b"/>
      </g>
    </g>
    <g id="Grupo_584" data-name="Grupo 584" transform="translate(142.079 255.593)">
      <path id="iconfinder_icon-arrow-left-c_211618" d="M84.962,119.451l-4.553,4.767a1.47,1.47,0,0,0,0,2.034l4.553,4.785a1.342,1.342,0,0,0,1.961,0,1.5,1.5,0,0,0,0-2.052L84.74,126.7l51-.009a1.454,1.454,0,0,0,0-2.905l-51,.009,2.188-2.288a1.5,1.5,0,0,0,0-2.052A1.348,1.348,0,0,0,84.962,119.451Z" transform="translate(-80 -119.026)"/>
      <path id="iconfinder_icon-arrow-left-c_211618-2" data-name="iconfinder_icon-arrow-left-c_211618" d="M4.962.426.409,5.192A1.383,1.383,0,0,0,0,6.209,1.39,1.39,0,0,0,.409,7.226l4.553,4.785a1.342,1.342,0,0,0,1.961,0,1.5,1.5,0,0,0,0-2.052L4.74,7.671h9.851A1.421,1.421,0,0,0,15.98,6.218a1.421,1.421,0,0,0-1.389-1.453H4.74L6.928,2.478a1.5,1.5,0,0,0,0-2.052A1.348,1.348,0,0,0,4.962.426Z" transform="translate(68.841 12.437) rotate(180)"/>
    </g>
  </g>
</svg>
