<svg xmlns="http://www.w3.org/2000/svg" width="175" height="204.843" viewBox="0 0 175 204.843">
  <g id="M_1_2_F" transform="translate(-89 -233.365)">
    <g id="Grupo_109" data-name="Grupo 109" transform="translate(88.648 233.365)">
      <g id="Rectángulo_4" data-name="Rectángulo 4" transform="translate(0.352)" fill="#fff" stroke="#f6b85f" stroke-width="1">
        <rect width="175" height="175" rx="19" stroke="none"/>
        <rect x="0.5" y="0.5" width="174" height="174" rx="18.5" fill="none"/>
      </g>
    </g>
    <g id="Grupo_572" data-name="Grupo 572" transform="translate(151 274.555)">
      <g id="Grupo_570" data-name="Grupo 570" transform="translate(0 0)">
        <g id="Grupo_570-2" data-name="Grupo 570" transform="translate(0 40.444)">
          <g id="Grupo_531" data-name="Grupo 531" transform="translate(0 0)">
            <path id="iconfinder_Untitled-1-18_2419684" d="M42.668,36.09V11.059l-1.4-1.4V6.3H22.506V9.656l-1.4,1.4V36.09H19.7v1.4H44.071v-1.4Z" transform="translate(-19.7 13.395)" fill="#356dd0"/>
            <path id="Sustracción_3" data-name="Sustracción 3" d="M0,0H18.752V20.767H0Z" transform="translate(2.791 0)" fill="#356dd0"/>
          </g>
        </g>
        <rect id="Rectángulo_172" data-name="Rectángulo 172" width="16.826" height="16.826" transform="translate(3.658 42.801)" fill="#fff"/>
        <g id="Grupo_571" data-name="Grupo 571" transform="translate(3.993 1.366)">
          <rect id="Rectángulo_86" data-name="Rectángulo 86" width="5.141" height="59.12" transform="translate(36.841 30.845)" fill="#fbd734"/>
          <rect id="Rectángulo_87" data-name="Rectángulo 87" width="5.141" height="59.12" transform="translate(22.703 30.845)" fill="#fbd734"/>
          <rect id="Rectángulo_88" data-name="Rectángulo 88" width="11.567" height="3.856" transform="translate(26.559 83.54)" fill="#fbd734"/>
          <rect id="Rectángulo_89" data-name="Rectángulo 89" width="11.567" height="3.856" transform="translate(26.559 83.54)" fill="#fbd734"/>
          <rect id="Rectángulo_90" data-name="Rectángulo 90" width="11.567" height="3.856" transform="translate(26.559 69.402)" fill="#fbd734"/>
          <rect id="Rectángulo_91" data-name="Rectángulo 91" width="11.567" height="2.57" transform="translate(26.559 56.55)" fill="#fbd734"/>
          <rect id="Rectángulo_92" data-name="Rectángulo 92" width="11.567" height="3.856" transform="translate(26.559 42.412)" fill="#fbd734"/>
          <path id="Trazado_471" data-name="Trazado 471" d="M1256.274,4275.636l-11.769-9.691v4.208l11.769,9.65Z" transform="translate(-1218.578 -4222.248)" fill="#fbd734"/>
          <path id="Trazado_472" data-name="Trazado 472" d="M1256.274,4275.636l-11.769-9.691v4.208l11.769,9.65Z" transform="translate(-1218.578 -4208.389)" fill="#fbd734"/>
          <path id="Trazado_473" data-name="Trazado 473" d="M1256.274,4275.636l-11.769-9.691v4.208l11.769,9.65Z" transform="translate(-1218.578 -4194.718)" fill="#fbd734"/>
          <path id="Trazado_474" data-name="Trazado 474" d="M1256.274,4275.636l-11.769-9.691v4.208l11.769,9.65Z" transform="translate(-1218.578 -4236.105)" fill="#fbd734"/>
          <path id="Trazado_612" data-name="Trazado 612" d="M137.263,0H90.731V5.924h46.531Z" transform="translate(-90.731 25.709)" fill="#fbd734"/>
          <path id="Trazado_475" data-name="Trazado 475" d="M1247.076,4108.133l-7.069-24.51H1236.1l-7.337,24.895h4.476l4.777-17.245,4.965,17.877Z" transform="translate(-1205.793 -4081.469)" fill="#fbd734"/>
          <ellipse id="Elipse_54" data-name="Elipse 54" cx="1.928" cy="1.928" rx="1.928" ry="1.928" transform="translate(30.415)" fill="#fbd734"/>
          <path id="Trazado_476" data-name="Trazado 476" d="M1219.49,4107.437l-12.357-23.469.922,3.075,11.435,22.656Z" transform="translate(-1173.278 -4081.735)" fill="#fbd734"/>
          <path id="Trazado_477" data-name="Trazado 477" d="M1305.871,4084l-30.008,23.79h4.554l25.454-22.144Z" transform="translate(-1275.319 -4081.76)" fill="#fbd734"/>
        </g>
        <path id="iconfinder_00-ELASTOFONT-STORE-READY_close_2703079" d="M8.2,7.614l5.908-5.908a.413.413,0,1,0-.585-.585L7.614,7.029,1.706,1.121a.413.413,0,1,0-.585.585L7.029,7.614,1.121,13.522a.413.413,0,1,0,.585.585L7.614,8.2l5.908,5.908a.413.413,0,1,0,.585-.585Z" transform="translate(4.457 43.6)" fill="#1d1d1b"/>
        <g id="iconfinder_21_5027815" transform="translate(26.306 61.754)">
          <path id="Trazado_584" data-name="Trazado 584" d="M1.13,5.776a6.658,6.658,0,0,0,6.506,6.7h.081a7.923,7.923,0,0,0,7.924-7.924c0-.224-.014-.444-.033-.659H1.13Z" transform="translate(-1.13 -3.89)" fill="#f2c6dd"/>
          <g id="Grupo_535" data-name="Grupo 535" transform="translate(0.119 2.005)">
            <path id="Trazado_585" data-name="Trazado 585" d="M4.059,19.385H2.13V8.84H20v1.933" transform="translate(-1.772 -8.482)" fill="#ff9d9c"/>
            <ellipse id="Elipse_105" data-name="Elipse 105" cx="4.344" cy="4.344" rx="4.344" ry="4.344" transform="translate(13.628 9.103)" fill="#e9f4bc"/>
            <path id="Trazado_586" data-name="Trazado 586" d="M21.856,19.7a4.314,4.314,0,0,1,2.4.726V12.88H6.17V24.007H17.512A4.344,4.344,0,0,1,21.856,19.7Z" transform="translate(-3.883 -10.593)" fill="#f2c6dd"/>
            <path id="Trazado_587" data-name="Trazado 587" d="M23.743,21.583a4.53,4.53,0,0,1,.678.057V17.784a1.292,1.292,0,0,1-1.294-1.294H11.069A1.291,1.291,0,0,1,9.78,17.784v5.093a1.291,1.291,0,0,1,1.289,1.294h8.7A4.34,4.34,0,0,1,23.743,21.583Z" transform="translate(-5.77 -12.48)" fill="#fff"/>
            <g id="Grupo_534" data-name="Grupo 534" transform="translate(0)">
              <path id="Trazado_588" data-name="Trazado 588" d="M37.593,31.688a.6.6,0,0,1,.6.6.358.358,0,1,0,.716,0,1.312,1.312,0,0,0-.955-1.255v-.191a.358.358,0,1,0-.716,0v.191a1.308,1.308,0,0,0,.358,2.568.6.6,0,1,1-.6.6.358.358,0,0,0-.716,0,1.312,1.312,0,0,0,.955,1.255v.191a.358.358,0,0,0,.716,0v-.191a1.308,1.308,0,0,0-.358-2.568.6.6,0,0,1,0-1.193Z" transform="translate(-19.62 -19.792)" fill="#505050"/>
              <path id="Trazado_589" data-name="Trazado 589" d="M23.641,20.187a.627.627,0,0,1,.625.625.358.358,0,0,0,.716,0A1.343,1.343,0,0,0,24,19.523v-.205a.358.358,0,0,0-.716,0v.205a1.339,1.339,0,0,0,.358,2.63.625.625,0,1,1-.625.625.358.358,0,1,0-.716,0,1.343,1.343,0,0,0,.983,1.289v.205a.358.358,0,1,0,.716,0v-.205a1.339,1.339,0,0,0-.358-2.63.625.625,0,1,1,0-1.251Z" transform="translate(-12.314 -13.771)" fill="#505050"/>
              <path id="Trazado_590" data-name="Trazado 590" d="M22.112,17.737V10.377a.358.358,0,0,0-.105-.253.366.366,0,0,0-.253-.105h-1.79V8.448a.361.361,0,0,0-.358-.358H1.738a.361.361,0,0,0-.358.358V18.993a.361.361,0,0,0,.358.358h1.57V21.5a.358.358,0,0,0,.105.253.366.366,0,0,0,.253.105h11a4.7,4.7,0,1,0,7.447-4.124Zm-18.087-7H7.81a.358.358,0,1,0,0-.716H3.667a.359.359,0,0,0-.358.358v8.258H2.1V8.806H19.247v1.212H9.719a.358.358,0,1,0,0,.716H21.4v6.573a4.584,4.584,0,0,0-1.007-.353V13.393a.361.361,0,0,0-.358-.358.937.937,0,0,1-.936-.936.361.361,0,0,0-.358-.358H6.679a.361.361,0,0,0-.358.358.936.936,0,0,1-.931.936.361.361,0,0,0-.358.358v5.093a.361.361,0,0,0,.358.358.933.933,0,0,1,.931.936.361.361,0,0,0,.358.358H14.86a4.7,4.7,0,0,0-.191,1.007H4.025Zm11.132,8.688H7a1.656,1.656,0,0,0-1.251-1.255V13.708A1.656,1.656,0,0,0,7,12.453H18.417a1.655,1.655,0,0,0,1.255,1.255v3.141c-.105-.01-.21-.014-.32-.014A4.7,4.7,0,0,0,15.156,19.422Zm4.2,6.1a3.986,3.986,0,1,1,3.986-3.986A3.993,3.993,0,0,1,19.352,25.523Z" transform="translate(-1.38 -8.09)" fill="#505050"/>
              <ellipse id="Elipse_106" data-name="Elipse 106" cx="0.358" cy="0.358" rx="0.358" ry="0.358" transform="translate(7.027 1.929)" fill="#505050"/>
            </g>
          </g>
        </g>
        <path id="Trazado_612-2" data-name="Trazado 612" d="M67.605,9997.021,82.2,9970.675l-10.483,26.347,17.257-27.609-12.323,27.609L97.387,9965.9l-16.579,32.516,21.787-26.422-13.623,25.03,17.8-18.144-14.783,22.9,17.558-15.257-19,21.08,22.38-15.076-19.919,19.162,19.919-13.272-19.919,19.173,16.536-9.986-17.558,16.206,17.558-10.091-17.558,15.4,16.246-9.08-16.246,15.56,14.783-8.56-17.8,16.354,20.577-12.45-19,15.854,17.685-10.15-17.685,14.531,19-11.106-17.558,15.241,17.558-9.5-12.162,9.5,12.162-4.135-6.954,5.9,6.954-1.764" transform="translate(-63.613 -9965.897)" fill="none" stroke="#030303" stroke-width="0.5"/>
        <path id="Trazado_613" data-name="Trazado 613" d="M81.869,10022.23l5.411-12.29-2.03,13.741,5.317-13.741-1.77,14.812,5.986-14.812-2.1,16.468,5.041-16.468-.956,14.812,4.832-12.94-2.189,14.6,5.023-11.905-1.331,11.905" transform="translate(-57.498 -9947.017)" fill="none" stroke="#000" stroke-width="0.5"/>
      </g>
    </g>
    <g id="Grupo_573" data-name="Grupo 573" transform="translate(142 254.593)">
      <path id="iconfinder_icon-arrow-left-c_211618" d="M84.962,119.451l-4.553,4.767a1.47,1.47,0,0,0,0,2.034l4.553,4.785a1.342,1.342,0,0,0,1.961,0,1.5,1.5,0,0,0,0-2.052L84.74,126.7l51-.009a1.454,1.454,0,0,0,0-2.905l-51,.009,2.188-2.288a1.5,1.5,0,0,0,0-2.052A1.348,1.348,0,0,0,84.962,119.451Z" transform="translate(-80 -119.026)"/>
      <path id="iconfinder_icon-arrow-left-c_211618-2" data-name="iconfinder_icon-arrow-left-c_211618" d="M4.962.426.409,5.192A1.383,1.383,0,0,0,0,6.209,1.39,1.39,0,0,0,.409,7.226l4.553,4.785a1.342,1.342,0,0,0,1.961,0,1.5,1.5,0,0,0,0-2.052L4.74,7.671h9.851A1.421,1.421,0,0,0,15.98,6.218a1.421,1.421,0,0,0-1.389-1.453H4.74L6.928,2.478a1.5,1.5,0,0,0,0-2.052A1.348,1.348,0,0,0,4.962.426Z" transform="translate(68.841 12.437) rotate(180)"/>
    </g>
    <g id="Grupo_588" data-name="Grupo 588" transform="translate(-4.081 1)">
      <g id="Trazado_636" data-name="Trazado 636" transform="translate(114.081 377.29)" fill="#fff">
        <path d="M 51.29225921630859 59.41797256469727 L 8.860430717468262 59.41797256469727 L 0.5752328634262085 0.5000043511390686 L 59.42623138427734 0.5000043511390686 L 51.29225921630859 59.41797256469727 Z" stroke="none"/>
        <path d="M 1.150463104248047 0.9999961853027344 L 9.295040130615234 58.91796493530273 L 50.85654449462891 58.91796493530273 L 58.85246276855469 0.9999961853027344 L 1.150463104248047 0.9999961853027344 M 0 -3.814697265625e-06 L 60 -3.814697265625e-06 L 51.72797012329102 59.91796493530273 L 8.425819396972656 59.91796493530273 L 0 -3.814697265625e-06 Z" stroke="none" fill="#f0f0f0"/>
      </g>
      <g id="Grupo_537" data-name="Grupo 537" transform="translate(0 0.269)">
        <path id="Trazado_642" data-name="Trazado 642" d="M-9.68,0A2.783,2.783,0,0,1-11.7-.77,2.561,2.561,0,0,1-12.5-2.684V-24.86l.616.968-3.344,2.024a2.691,2.691,0,0,1-1.408.4,2.4,2.4,0,0,1-1.892-.858,2.739,2.739,0,0,1-.748-1.826,2.506,2.506,0,0,1,1.364-2.288l6.644-3.96a4.02,4.02,0,0,1,1.892-.4,2.455,2.455,0,0,1,1.87.77,2.682,2.682,0,0,1,.726,1.914V-2.684A2.527,2.527,0,0,1-7.59-.77,2.918,2.918,0,0,1-9.68,0ZM1.012-6.2a3.136,3.136,0,0,1,.858.132A3.633,3.633,0,0,1,2.9-5.544,8.218,8.218,0,0,0,4.686-4.532a6.083,6.083,0,0,0,2.4.44,5.161,5.161,0,0,0,2.574-.682,5.612,5.612,0,0,0,2-1.936,5.529,5.529,0,0,0,.792-3.014A5.177,5.177,0,0,0,11.77-12.5a4.493,4.493,0,0,0-1.8-1.672,5.206,5.206,0,0,0-2.4-.572,6.159,6.159,0,0,0-1.606.176q-.638.176-1.232.374a4.388,4.388,0,0,1-1.386.2,1.866,1.866,0,0,1-1.562-.7,2.635,2.635,0,0,1-.55-1.672,2.427,2.427,0,0,1,.242-1.1A5.472,5.472,0,0,1,2.2-18.524l7.744-8.448,1.188,1.012H.308a2.388,2.388,0,0,1-1.76-.7,2.388,2.388,0,0,1-.7-1.76,2.263,2.263,0,0,1,.7-1.694A2.429,2.429,0,0,1,.308-30.8H13.772a2.632,2.632,0,0,1,2.046.748A2.7,2.7,0,0,1,16.5-28.16a2.279,2.279,0,0,1-.286,1.1,4.407,4.407,0,0,1-.77,1.012l-7.788,8.58-1.188-1.5a6.53,6.53,0,0,1,1.342-.4,7.362,7.362,0,0,1,1.43-.176,7.655,7.655,0,0,1,4.51,1.342A8.925,8.925,0,0,1,16.7-14.718a10.405,10.405,0,0,1,1.034,4.6A10.589,10.589,0,0,1,16.28-4.488,9.532,9.532,0,0,1,12.188-.836,14,14,0,0,1,6.028.44a13.194,13.194,0,0,1-3.212-.4A10.584,10.584,0,0,1,.088-1.012a3.021,3.021,0,0,1-1.3-1.166,2.641,2.641,0,0,1-.33-1.21A3,3,0,0,1-.814-5.3,2.25,2.25,0,0,1,1.012-6.2Z" transform="translate(144.353 421.821)" fill="#f0f0f0"/>
      </g>
      <g id="Grupo_538" data-name="Grupo 538">
        <path id="Trazado_637" data-name="Trazado 637" d="M0,0H60L51.728,59.918H8.426Z" transform="translate(186.081 377.29)" fill="#fbe1a2"/>
        <path id="Trazado_643" data-name="Trazado 643" d="M-3.5.22A2.783,2.783,0,0,1-5.412-.506a2.343,2.343,0,0,1-.814-1.826A2.8,2.8,0,0,1-5.962-3.52L4.818-27.148,5.3-25.96H-7.414a2.388,2.388,0,0,1-1.76-.7,2.388,2.388,0,0,1-.7-1.76,2.263,2.263,0,0,1,.7-1.694,2.429,2.429,0,0,1,1.76-.682H7.9a3,3,0,0,1,2,.726,2.337,2.337,0,0,1,.858,1.87,3.01,3.01,0,0,1-.264,1.188L-1.078-1.452A2.5,2.5,0,0,1-2.068-.22,2.6,2.6,0,0,1-3.5.22Z" transform="translate(214.959 422.09)" fill="#e5914b"/>
      </g>
    </g>
  </g>
</svg>
