<svg xmlns="http://www.w3.org/2000/svg" width="175" height="204.843" viewBox="0 0 175 204.843">
  <g id="M_1_5_T" transform="translate(-89 -233.365)">
    <g id="Grupo_109" data-name="Grupo 109" transform="translate(88.648 233.365)">
      <g id="Trazado_620" data-name="Trazado 620" transform="translate(0.352)" fill="#fff">
        <path d="M 156 174.5 L 19 174.5 C 16.50230407714844 174.5 14.07956504821777 174.0109405517578 11.79910850524902 173.04638671875 C 9.596217155456543 172.1146240234375 7.617695808410645 170.7806549072266 5.918521881103516 169.0814819335938 C 4.219347953796387 167.3823089599609 2.885369539260864 165.4037780761719 1.953608751296997 163.2008972167969 C 0.9890652298927307 160.9204406738281 0.5 158.4976959228516 0.5 156 L 0.5 19 C 0.5 16.50230407714844 0.9890652298927307 14.07956504821777 1.953608751296997 11.79910850524902 C 2.885369539260864 9.596217155456543 4.219347953796387 7.617695808410645 5.918521881103516 5.918521881103516 C 7.617695808410645 4.219347953796387 9.596217155456543 2.885369539260864 11.79910850524902 1.953608751296997 C 14.07956504821777 0.9890652298927307 16.50230407714844 0.5 19 0.5 L 156 0.5 C 158.4976959228516 0.5 160.9204406738281 0.9890652298927307 163.2008972167969 1.953608751296997 C 165.4037780761719 2.885369539260864 167.3823089599609 4.219347953796387 169.0814819335938 5.918521881103516 C 170.7806549072266 7.617695808410645 172.1146240234375 9.596217155456543 173.04638671875 11.79910850524902 C 174.0109405517578 14.07956504821777 174.5 16.50230407714844 174.5 19 L 174.5 156 C 174.5 158.4976959228516 174.0109405517578 160.9204406738281 173.04638671875 163.2008972167969 C 172.1146240234375 165.4037780761719 170.7806549072266 167.3823089599609 169.0814819335938 169.0814819335938 C 167.3823089599609 170.7806549072266 165.4037780761719 172.1146240234375 163.2008972167969 173.04638671875 C 160.9204406738281 174.0109405517578 158.4976959228516 174.5 156 174.5 Z" stroke="none"/>
        <path d="M 19 1 C 14.1920166015625 1 9.671844482421875 2.872314453125 6.272064208984375 6.272064208984375 C 2.872314453125 9.671844482421875 1 14.1920166015625 1 19 L 1 156 C 1 160.8079833984375 2.872314453125 165.3281555175781 6.272064208984375 168.7279357910156 C 9.671844482421875 172.127685546875 14.1920166015625 174 19 174 L 156 174 C 160.8079833984375 174 165.3281555175781 172.127685546875 168.7279357910156 168.7279357910156 C 172.127685546875 165.3281555175781 174 160.8079833984375 174 156 L 174 19 C 174 14.1920166015625 172.127685546875 9.671844482421875 168.7279357910156 6.272064208984375 C 165.3281555175781 2.872314453125 160.8079833984375 1 156 1 L 19 1 M 19 0 L 156 0 C 166.493408203125 0 175 8.506591796875 175 19 L 175 156 C 175 166.493408203125 166.493408203125 175 156 175 L 19 175 C 8.506591796875 175 0 166.493408203125 0 156 L 0 19 C 0 8.506591796875 8.506591796875 0 19 0 Z" stroke="none" fill="#f6b85f"/>
      </g>
      <g id="Grupo_578" data-name="Grupo 578" transform="translate(117.396 91.802)">
        <g id="Grupo_571" data-name="Grupo 571" transform="translate(0 0)">
          <g id="Grupo_570" data-name="Grupo 570" transform="translate(0 0)">
            <g id="Grupo_531" data-name="Grupo 531" transform="translate(0 0)">
              <path id="iconfinder_Untitled-1-18_2419684" d="M38.667,30.9V10.23L37.508,9.071V6.3H22.017V9.071L20.858,10.23V30.9H19.7v1.158H39.825V30.9Z" transform="translate(-19.7 9.964)" fill="#356dd0"/>
              <path id="Sustracción_3" data-name="Sustracción 3" d="M0,0H15.486V17.15H0Z" transform="translate(2.305 0)" fill="#356dd0"/>
            </g>
          </g>
          <rect id="Rectángulo_172" data-name="Rectángulo 172" width="13.895" height="13.895" transform="translate(3.021 1.946)" fill="#fff"/>
          <path id="iconfinder_00-ELASTOFONT-STORE-READY_close_2703079" d="M6.944,6.462l4.879-4.879a.341.341,0,0,0-.483-.483L6.462,5.979,1.583,1.1a.341.341,0,1,0-.483.483L5.979,6.462,1.1,11.341a.341.341,0,1,0,.483.483L6.462,6.944l4.879,4.879a.341.341,0,0,0,.483-.483Z" transform="translate(3.506 2.432)" fill="#1d1d1b"/>
        </g>
      </g>
      <g id="Grupo_579" data-name="Grupo 579" transform="translate(119.023 74.889)">
        <g id="iconfinder_General_Office_53_3592844" transform="translate(0 0.4)">
          <path id="Trazado_480" data-name="Trazado 480" d="M20.552,9.323a.544.544,0,0,0-.518-.378H13.589L11.366,2.175a.544.544,0,0,0-1.035,0L8.109,8.944H1.664a.544.544,0,0,0-.316.988l5.215,3.712-2.1,6.39a.544.544,0,0,0,.833.613l5.552-3.952L16.4,20.647a.544.544,0,0,0,.833-.613l-2.1-6.39,5.215-3.712A.544.544,0,0,0,20.552,9.323Z" transform="translate(-1.12 -1.8)" fill="#ff77d2"/>
        </g>
        <rect id="Rectángulo_97" data-name="Rectángulo 97" width="4.317" height="16.405" transform="translate(1.814 1.727)" fill="#fee000"/>
        <rect id="Rectángulo_98" data-name="Rectángulo 98" width="8.202" height="3.022" transform="translate(1.814 15.109)" fill="#fee000"/>
        <path id="Polígono_19" data-name="Polígono 19" d="M2.806,0,5.612,4.749H0Z" transform="translate(14.333 13.382) rotate(90)" fill="#fee000"/>
        <g id="Grupo_482" data-name="Grupo 482" transform="translate(3.972)">
          <rect id="Rectángulo_99" data-name="Rectángulo 99" width="3.885" height="4.317" transform="translate(0 0)" fill="#ff7a00"/>
          <path id="Trazado_481" data-name="Trazado 481" d="M-33.569-92.313c-.051.483-.769.34-1.048.15a.2.2,0,0,0-.3.024.252.252,0,0,0,.048.334c.47.388,1.722.368,1.746-.5.024-.905-1.457-.585-1.365-1.144.071-.354.643-.279.9-.119a.2.2,0,1,0,.218-.334c-.47-.361-1.467-.242-1.545.419C-35.029-92.514-33.613-92.817-33.569-92.313Z" transform="translate(36.103 95.12)" fill="#fff"/>
        </g>
        <g id="Grupo_483" data-name="Grupo 483" transform="translate(3.972 4.317)">
          <rect id="Rectángulo_99-2" data-name="Rectángulo 99" width="3.885" height="4.317" transform="translate(0 0)" fill="#ff7a00"/>
          <path id="Trazado_482" data-name="Trazado 482" d="M-37.848-87.6a.205.205,0,0,0,.208-.211v-.745h1.11v.745a.224.224,0,0,0,.231.211.208.208,0,0,0,.211-.211v-1.933a.206.206,0,0,0-.211-.211.221.221,0,0,0-.231.211v.742h-1.11v-.742a.2.2,0,0,0-.208-.211.213.213,0,0,0-.242.211v1.933A.215.215,0,0,0-37.848-87.6Z" transform="translate(39.149 91.119)" fill="#fff"/>
        </g>
        <g id="Grupo_484" data-name="Grupo 484" transform="translate(3.972 8.634)">
          <rect id="Rectángulo_99-3" data-name="Rectángulo 99" width="3.885" height="4.317" transform="translate(0 0)" fill="#ff7a00"/>
          <path id="Trazado_483" data-name="Trazado 483" d="M-45.728-91.961a1.227,1.227,0,0,0-1.219-1.249,1.221,1.221,0,0,0-1.283,1.249,1.188,1.188,0,0,0,1.283,1.225A1.187,1.187,0,0,0-45.728-91.961Zm-.446,0a.786.786,0,0,1-.81.807.781.781,0,0,1-.8-.807.779.779,0,0,1,.8-.807A.784.784,0,0,1-46.174-91.961Z" transform="translate(49.024 94.313)" fill="#fff"/>
        </g>
        <g id="Grupo_485" data-name="Grupo 485" transform="translate(3.972 13.382)">
          <rect id="Rectángulo_99-4" data-name="Rectángulo 99" width="3.885" height="3.885" transform="translate(0 0)" fill="#ff7a00"/>
          <path id="Trazado_484" data-name="Trazado 484" d="M-63.8-90.625c-.089-.208-.3-.2-.385.01l-.6,1.4-.5-1.4a.222.222,0,1,0-.419.15l.66,1.855c.054.15.116.231.235.231s.18-.082.242-.225L-64-89.928l.592,1.345c.068.123.106.2.228.2s.174-.058.235-.252l.674-1.828a.219.219,0,1,0-.412-.15l-.507,1.4Z" transform="translate(66.058 91.698)" fill="#fff"/>
        </g>
      </g>
      <g id="Elipse_121" data-name="Elipse 121" transform="translate(115.352 69.925)" fill="none" stroke="#000" stroke-width="0.5">
        <ellipse cx="14" cy="14.5" rx="14" ry="14.5" stroke="none"/>
        <ellipse cx="14" cy="14.5" rx="13.75" ry="14.25" fill="none"/>
      </g>
      <g id="iconfinder_golf_310330" transform="translate(98.323 23.925)">
        <circle id="Elipse_122" data-name="Elipse 122" cx="2" cy="2" r="2" transform="translate(10 2)"/>
        <path id="Trazado_631" data-name="Trazado 631" d="M5.8,10.7a.481.481,0,0,1,.2-.6l5.5-2.2L11.1,7l-6,2.3a1.553,1.553,0,0,0-.9,2l.2.6a1.553,1.553,0,0,0,2,.9h0c.2-.1.3-.3.2-.4Z"/>
        <path id="Trazado_632" data-name="Trazado 632" d="M4,8.6,6.6,7.5C6.4,3.5,9,2.4,9,2.4A7.235,7.235,0,0,0,4,8.6Z"/>
        <path id="Trazado_633" data-name="Trazado 633" d="M14,14l.2,1.8a3.611,3.611,0,0,1-.3,1.8L11.5,22h2.3l2.6-5,.5-4.4L15.5,8.1l1.7-.7a.751.751,0,0,0,.4-.9C16.8,4,15.5,2.6,14.1,2a2.493,2.493,0,0,1,.8,2v.1a3.655,3.655,0,0,1,1.1,2l-2.6,1h-.1l-.6.2A1.424,1.424,0,0,0,11.9,9Z"/>
        <path id="Trazado_634" data-name="Trazado 634" d="M20.7,22l-3.1-8.3-.5,3.7L18.8,22Z"/>
      </g>
      <g id="Page-1" transform="translate(121.352 16.925)">
        <g id="icon-28-golf">
          <path id="golf" d="M12,7.5V25h1V12.571L26,7,12,1V7.5Zm2,12.607c.8-.07,1.641-.107,2.5-.107C22.851,20,28,22.015,28,24.5S22.851,29,16.5,29,5,26.985,5,24.5c0-1.706,2.425-3.19,6-3.953V23.3a1.444,1.444,0,0,0-1,1.2c0,.828,1.119,1.5,2.5,1.5s2.5-.672,2.5-1.5a1.444,1.444,0,0,0-1-1.2V20.107ZM20.5,25c.828,0,1.5-.448,1.5-1s-.672-1-1.5-1-1.5.448-1.5,1,.672,1,1.5,1Z" fill-rule="evenodd"/>
        </g>
      </g>
      <g id="Grupo_580" data-name="Grupo 580" transform="translate(8 -4.036)">
        <line id="Línea_39" data-name="Línea 39" x2="28" transform="translate(22.852 32.425)" fill="none" stroke="#000" stroke-width="1"/>
        <line id="Línea_40" data-name="Línea 40" x2="28" transform="translate(22.852 44.425)" fill="none" stroke="#000" stroke-width="1"/>
        <line id="Línea_41" data-name="Línea 41" x2="28" transform="translate(22.852 38.425)" fill="none" stroke="#000" stroke-width="1" stroke-dasharray="3"/>
      </g>
      <g id="Grupo_581" data-name="Grupo 581" transform="translate(8 22.964)" opacity="0.3">
        <line id="Línea_39-2" data-name="Línea 39" x2="28" transform="translate(22.852 32.425)" fill="none" stroke="#000" stroke-width="1"/>
        <line id="Línea_40-2" data-name="Línea 40" x2="28" transform="translate(22.852 44.425)" fill="none" stroke="#000" stroke-width="1"/>
        <line id="Línea_41-2" data-name="Línea 41" x2="28" transform="translate(22.852 38.425)" fill="none" stroke="#000" stroke-width="1" stroke-dasharray="3"/>
      </g>
      <g id="Grupo_582" data-name="Grupo 582" transform="translate(8 49.964)" opacity="0.3">
        <line id="Línea_39-3" data-name="Línea 39" x2="28" transform="translate(22.852 32.425)" fill="none" stroke="#000" stroke-width="1"/>
        <line id="Línea_40-3" data-name="Línea 40" x2="28" transform="translate(22.852 44.425)" fill="none" stroke="#000" stroke-width="1"/>
        <line id="Línea_41-3" data-name="Línea 41" x2="28" transform="translate(22.852 38.425)" fill="none" stroke="#000" stroke-width="1" stroke-dasharray="3"/>
      </g>
      <g id="Grupo_583" data-name="Grupo 583" transform="translate(8 76.964)" opacity="0.3">
        <line id="Línea_39-4" data-name="Línea 39" x2="28" transform="translate(22.852 32.425)" fill="none" stroke="#000" stroke-width="1"/>
        <line id="Línea_40-4" data-name="Línea 40" x2="28" transform="translate(22.852 44.425)" fill="none" stroke="#000" stroke-width="1"/>
        <line id="Línea_41-4" data-name="Línea 41" x2="28" transform="translate(22.852 38.425)" fill="none" stroke="#000" stroke-width="1" stroke-dasharray="3"/>
      </g>
    </g>
    <path id="Polígono_20" data-name="Polígono 20" d="M6,0l6,10H0Z" transform="translate(113.5 261.79) rotate(90)"/>
    <g id="Grupo_585" data-name="Grupo 585" transform="translate(-4.081 1)">
      <path id="Trazado_636" data-name="Trazado 636" d="M0,0H60L51.728,59.918H8.426Z" transform="translate(114.081 377.29)" fill="#e5914b"/>
      <g id="Grupo_537" data-name="Grupo 537" transform="translate(2.445 -1.911)">
        <path id="Trazado_648" data-name="Trazado 648" d="M-13.772,0A2.783,2.783,0,0,1-15.8-.77a2.561,2.561,0,0,1-.792-1.914V-24.86l.616.968-3.344,2.024a2.691,2.691,0,0,1-1.408.4,2.4,2.4,0,0,1-1.892-.858,2.739,2.739,0,0,1-.748-1.826A2.506,2.506,0,0,1-22-26.444l6.644-3.96a4.02,4.02,0,0,1,1.892-.4,2.455,2.455,0,0,1,1.87.77,2.682,2.682,0,0,1,.726,1.914V-2.684A2.527,2.527,0,0,1-11.682-.77,2.918,2.918,0,0,1-13.772,0Zm26.84,0A2.474,2.474,0,0,1,11.22-.77a2.639,2.639,0,0,1-.748-1.914v-20.68l.924.22L2.9-12.628l-.22-.572H17.6a2.388,2.388,0,0,1,1.76.7,2.388,2.388,0,0,1,.7,1.76,2.263,2.263,0,0,1-.7,1.694,2.429,2.429,0,0,1-1.76.682H-.968A2.692,2.692,0,0,1-2.75-9.108a2.356,2.356,0,0,1-.858-1.848,2.683,2.683,0,0,1,.66-1.76l13.9-17.028a2.505,2.505,0,0,1,.924-.77,2.813,2.813,0,0,1,1.276-.286,2.455,2.455,0,0,1,1.87.77,2.682,2.682,0,0,1,.726,1.914V-2.684a2.6,2.6,0,0,1-.77,1.914A2.6,2.6,0,0,1,13.068,0Z" transform="translate(143 425)" fill="#fef7cb"/>
      </g>
      <g id="Grupo_538" data-name="Grupo 538">
        <path id="Trazado_637" data-name="Trazado 637" d="M0,0H60L51.728,59.918H8.426Z" transform="translate(186.081 377.29)" fill="#fbe1a2"/>
        <path id="Trazado_649" data-name="Trazado 649" d="M4.928-15.62,4.84-16.632a10.055,10.055,0,0,1,2.9,1.936,8.786,8.786,0,0,1,1.892,2.6,6.77,6.77,0,0,1,.66,2.9A8.146,8.146,0,0,1,8.91-4.6,10.124,10.124,0,0,1,5.192-1.254,10.786,10.786,0,0,1,0,0,10.786,10.786,0,0,1-5.192-1.254,10.124,10.124,0,0,1-8.91-4.6,8.146,8.146,0,0,1-10.3-9.2a6.833,6.833,0,0,1,.858-3.5A8.6,8.6,0,0,1-7.282-15.18a16.649,16.649,0,0,1,2.574-1.672L-5.06-15.62a8.646,8.646,0,0,1-2.134-1.254,6.293,6.293,0,0,1-1.694-2.09,6.428,6.428,0,0,1-.66-2.992,8.136,8.136,0,0,1,1.276-4.466,9.285,9.285,0,0,1,3.454-3.19A9.9,9.9,0,0,1,0-30.8a9.735,9.735,0,0,1,4.818,1.188,9.381,9.381,0,0,1,3.41,3.19A8.136,8.136,0,0,1,9.5-21.956a6.176,6.176,0,0,1-.748,3.168,6.389,6.389,0,0,1-1.8,2.024A10.274,10.274,0,0,1,4.928-15.62Zm-9.2-6.248a4.049,4.049,0,0,0,.55,2.112A4.07,4.07,0,0,0-2.2-18.282a4.374,4.374,0,0,0,2.2.55,4.254,4.254,0,0,0,2.178-.55,4.119,4.119,0,0,0,1.5-1.474,4.049,4.049,0,0,0,.55-2.112,3.894,3.894,0,0,0-1.21-2.926A4.172,4.172,0,0,0,0-25.96a4.229,4.229,0,0,0-3.058,1.166A3.894,3.894,0,0,0-4.268-21.868ZM0-4.84a5.155,5.155,0,0,0,3.564-1.3A4.068,4.068,0,0,0,5.016-9.284a4.1,4.1,0,0,0-.66-2.288,4.678,4.678,0,0,0-1.8-1.606A5.454,5.454,0,0,0,0-13.772a5.454,5.454,0,0,0-2.552.594,4.678,4.678,0,0,0-1.8,1.606,4.1,4.1,0,0,0-.66,2.288A4.068,4.068,0,0,0-3.564-6.138,5.155,5.155,0,0,0,0-4.84Z" transform="translate(215.377 423.089)" fill="#e5914b"/>
      </g>
    </g>
  </g>
</svg>
