<svg xmlns="http://www.w3.org/2000/svg" width="175" height="204.843" viewBox="0 0 175 204.843">
  <g id="M_1_1_F" transform="translate(-89 -233.365)">
    <g id="Grupo_109" data-name="Grupo 109" transform="translate(88.648 233.365)">
      <g id="Rectángulo_4" data-name="Rectángulo 4" transform="translate(0.352)" fill="#fff" stroke="#f6b85f" stroke-width="1">
        <rect width="175" height="175" rx="19" stroke="none"/>
        <rect x="0.5" y="0.5" width="174" height="174" rx="18.5" fill="none"/>
      </g>
      <g id="Rectángulo_174" data-name="Rectángulo 174" transform="translate(21.264 134.699) rotate(-90)" fill="#fff" stroke="#000" stroke-width="1">
        <rect width="12" height="51.385" stroke="none"/>
        <rect x="0.5" y="0.5" width="11" height="50.385" fill="none"/>
      </g>
      <line id="Línea_36" data-name="Línea 36" y1="43.967" transform="translate(23.991 129.199) rotate(-90)" fill="none" stroke="#000" stroke-width="1" stroke-dasharray="3"/>
      <g id="Rectángulo_177" data-name="Rectángulo 177" transform="translate(105.264 134.699) rotate(-90)" fill="#fff" stroke="#000" stroke-width="1">
        <rect width="12" height="51.385" stroke="none"/>
        <rect x="0.5" y="0.5" width="11" height="50.385" fill="none"/>
      </g>
      <line id="Línea_38" data-name="Línea 38" y1="43.967" transform="translate(107.991 129.199) rotate(-90)" fill="none" stroke="#000" stroke-width="1" stroke-dasharray="3"/>
    </g>
    <g id="Grupo_572" data-name="Grupo 572" transform="translate(-5.811 9)">
      <path id="Trazado_615" data-name="Trazado 615" d="M-12.382,0a.949.949,0,0,1-.69-.262.873.873,0,0,1-.27-.653v-7.56l.21.33-1.14.69a.918.918,0,0,1-.48.135.819.819,0,0,1-.645-.292.934.934,0,0,1-.255-.623.854.854,0,0,1,.465-.78l2.265-1.35a1.37,1.37,0,0,1,.645-.135.837.837,0,0,1,.638.262.914.914,0,0,1,.247.653v8.67a.862.862,0,0,1-.278.653A1,1,0,0,1-12.382,0ZM3.112-8.145-.128-.525A.923.923,0,0,1-.45-.082.789.789,0,0,1-.923.075a.752.752,0,0,1-.6-.225.818.818,0,0,1-.2-.555A.992.992,0,0,1-1.673-.99L2.062-9.96a.978.978,0,0,1,.368-.465.786.786,0,0,1,.532-.135.879.879,0,0,1,.5.157A.889.889,0,0,1,3.8-9.96l3.69,8.79a1.009,1.009,0,0,1,.075.36.831.831,0,0,1-.262.645.838.838,0,0,1-.578.24A.787.787,0,0,1,6.24-.09,1.072,1.072,0,0,1,5.9-.54L2.677-8.055ZM.337-2.355,1.162-4.08h4.05L5.5-2.355Zm8.3-5.67a1.01,1.01,0,0,1,.525.143.873.873,0,0,1,.36.428l2.2,5.04-.33.15,2.25-5.175a.788.788,0,0,1,.8-.57.822.822,0,0,1,.608.232.784.784,0,0,1,.233.577.756.756,0,0,1-.038.225,2.353,2.353,0,0,1-.083.225l-2.8,6.18a.857.857,0,0,1-.765.57.818.818,0,0,1-.547-.105.941.941,0,0,1-.4-.465L7.852-6.75q-.03-.075-.067-.2a.961.961,0,0,1-.038-.285.792.792,0,0,1,.24-.532A.831.831,0,0,1,8.632-8.025Z" transform="translate(142 343.064)"/>
      <path id="Trazado_617" data-name="Trazado 617" d="M-15.113,0a.949.949,0,0,1-.69-.262.873.873,0,0,1-.27-.653v-7.56l.21.33-1.14.69a.918.918,0,0,1-.48.135.819.819,0,0,1-.645-.292.934.934,0,0,1-.255-.623.854.854,0,0,1,.465-.78l2.265-1.35a1.37,1.37,0,0,1,.645-.135.837.837,0,0,1,.637.262.914.914,0,0,1,.248.653v8.67a.862.862,0,0,1-.278.653A1,1,0,0,1-15.113,0Zm5.46,0a.949.949,0,0,1-.69-.262.873.873,0,0,1-.27-.653v-7.56l.21.33-1.14.69a.918.918,0,0,1-.48.135.819.819,0,0,1-.645-.292.934.934,0,0,1-.255-.623.854.854,0,0,1,.465-.78l2.265-1.35a1.37,1.37,0,0,1,.645-.135.837.837,0,0,1,.638.262.914.914,0,0,1,.247.653v8.67a.862.862,0,0,1-.278.653A1,1,0,0,1-9.653,0ZM5.842-8.145,2.6-.525a.923.923,0,0,1-.322.442.789.789,0,0,1-.473.157.752.752,0,0,1-.6-.225.818.818,0,0,1-.2-.555A.992.992,0,0,1,1.057-.99L4.792-9.96a.978.978,0,0,1,.368-.465.786.786,0,0,1,.532-.135.879.879,0,0,1,.5.157.889.889,0,0,1,.338.443l3.69,8.79a1.009,1.009,0,0,1,.075.36.831.831,0,0,1-.262.645.838.838,0,0,1-.578.24A.787.787,0,0,1,8.97-.09a1.072,1.072,0,0,1-.337-.45L5.407-8.055ZM3.067-2.355,3.892-4.08h4.05l.285,1.725Zm8.3-5.67a1.01,1.01,0,0,1,.525.143.873.873,0,0,1,.36.428l2.2,5.04-.33.15,2.25-5.175a.788.788,0,0,1,.795-.57.822.822,0,0,1,.608.232.784.784,0,0,1,.233.577.756.756,0,0,1-.037.225,2.353,2.353,0,0,1-.083.225L15.083-.57a.857.857,0,0,1-.765.57.818.818,0,0,1-.547-.105.941.941,0,0,1-.4-.465l-2.79-6.18q-.03-.075-.068-.2a.961.961,0,0,1-.038-.285.792.792,0,0,1,.24-.532A.831.831,0,0,1,11.363-8.025Z" transform="translate(223 343.064)"/>
      <path id="Trazado_618" data-name="Trazado 618" d="M-3.7-.747a.5.5,0,0,1-.081-.324.434.434,0,0,1,.234-.342.488.488,0,0,1,.306-.076.511.511,0,0,1,.315.167,2.123,2.123,0,0,0,.549.4,1.6,1.6,0,0,0,.72.144,2.406,2.406,0,0,0,.3-.04A.57.57,0,0,0-1.08-.959.451.451,0,0,0-.959-1.3a.4.4,0,0,0-.135-.315,1.137,1.137,0,0,0-.355-.2Q-1.67-1.9-1.94-1.971t-.572-.18a2.386,2.386,0,0,1-.535-.257,1.233,1.233,0,0,1-.4-.419A1.283,1.283,0,0,1-3.6-3.483a1.186,1.186,0,0,1,.252-.765,1.646,1.646,0,0,1,.653-.486,2.121,2.121,0,0,1,.841-.171,2.717,2.717,0,0,1,.585.068,2.289,2.289,0,0,1,.585.216,1.446,1.446,0,0,1,.468.391.639.639,0,0,1,.117.324.386.386,0,0,1-.171.342A.434.434,0,0,1-.58-3.47a.476.476,0,0,1-.3-.121,1.063,1.063,0,0,0-.409-.315,1.407,1.407,0,0,0-.589-.117,1.5,1.5,0,0,0-.293.031.578.578,0,0,0-.274.135.417.417,0,0,0-.117.329.42.42,0,0,0,.135.328,1.021,1.021,0,0,0,.365.2q.229.076.49.148t.549.171a2.173,2.173,0,0,1,.513.261A1.238,1.238,0,0,1-.131-2a1.321,1.321,0,0,1,.144.653,1.183,1.183,0,0,1-.27.783,1.709,1.709,0,0,1-.675.491A2.159,2.159,0,0,1-1.76.09,3.218,3.218,0,0,1-2.822-.094,1.838,1.838,0,0,1-3.7-.747ZM.967-4.725H3.1a.488.488,0,0,1,.36.144.488.488,0,0,1,.144.36.463.463,0,0,1-.144.347.5.5,0,0,1-.36.14H.967a.488.488,0,0,1-.36-.144.488.488,0,0,1-.144-.36.463.463,0,0,1,.144-.347A.5.5,0,0,1,.967-4.725ZM1.93-5.85a.5.5,0,0,1,.382.157.549.549,0,0,1,.149.392v4a.392.392,0,0,0,.049.207.284.284,0,0,0,.135.117.471.471,0,0,0,.184.036.477.477,0,0,0,.2-.04.5.5,0,0,1,.207-.04.3.3,0,0,1,.23.117.472.472,0,0,1,.1.324.476.476,0,0,1-.275.414A1.14,1.14,0,0,1,2.7,0a3.1,3.1,0,0,1-.418-.032,1.131,1.131,0,0,1-.432-.153.936.936,0,0,1-.337-.373,1.481,1.481,0,0,1-.135-.693V-5.3a.531.531,0,0,1,.158-.392A.531.531,0,0,1,1.93-5.85Z" transform="translate(137 337.064)"/>
      <path id="Trazado_619" data-name="Trazado 619" d="M-3.839-4.725h2.133a.488.488,0,0,1,.36.144.488.488,0,0,1,.144.36.463.463,0,0,1-.144.347.5.5,0,0,1-.36.14H-3.839a.488.488,0,0,1-.36-.144.488.488,0,0,1-.144-.36A.463.463,0,0,1-4.2-4.586.5.5,0,0,1-3.839-4.725Zm.963-1.125a.5.5,0,0,1,.382.157.549.549,0,0,1,.149.392v4a.392.392,0,0,0,.049.207.284.284,0,0,0,.135.117.471.471,0,0,0,.184.036.477.477,0,0,0,.2-.04.5.5,0,0,1,.207-.04.3.3,0,0,1,.23.117.472.472,0,0,1,.1.324.476.476,0,0,1-.275.414A1.14,1.14,0,0,1-2.1,0,3.1,3.1,0,0,1-2.52-.032a1.131,1.131,0,0,1-.432-.153.936.936,0,0,1-.337-.373,1.481,1.481,0,0,1-.135-.693V-5.3a.531.531,0,0,1,.158-.392A.531.531,0,0,1-2.875-5.85Zm5.193.945a1.513,1.513,0,0,1,.986.279,1.416,1.416,0,0,1,.464.743,3.926,3.926,0,0,1,.126,1.03v2.3a.54.54,0,0,1-.153.392A.517.517,0,0,1,3.353,0a.517.517,0,0,1-.387-.157.54.54,0,0,1-.153-.392v-2.3a1.85,1.85,0,0,0-.072-.536.734.734,0,0,0-.261-.382.877.877,0,0,0-.54-.144,1.128,1.128,0,0,0-.585.144.93.93,0,0,0-.364.382,1.163,1.163,0,0,0-.122.536v2.3a.54.54,0,0,1-.153.392A.517.517,0,0,1,.329,0,.517.517,0,0,1-.058-.157.54.54,0,0,1-.211-.549V-6.111A.54.54,0,0,1-.058-6.5.517.517,0,0,1,.329-6.66.517.517,0,0,1,.715-6.5a.54.54,0,0,1,.153.391v2.232L.734-3.906a2.015,2.015,0,0,1,.225-.329,1.948,1.948,0,0,1,.351-.329,1.875,1.875,0,0,1,.459-.247A1.552,1.552,0,0,1,2.317-4.905Z" transform="translate(220 337.064)"/>
      <g id="Grupo_570" data-name="Grupo 570" transform="translate(59 -9705.635)">
        <g id="Grupo_570-2" data-name="Grupo 570" transform="translate(64.811 9994.206)">
          <g id="Grupo_531" data-name="Grupo 531" transform="translate(0 0)">
            <path id="iconfinder_Untitled-1-18_2419684" d="M35.776,27.151V9.631l-.982-.982V6.3H21.664V8.649l-.982.982v17.52H19.7v.982H36.758v-.982Z" transform="translate(-19.7 7.485)" fill="#356dd0"/>
            <path id="Sustracción_3" data-name="Sustracción 3" d="M0,0H13.126V14.536H0Z" transform="translate(1.954 0)" fill="#356dd0"/>
          </g>
        </g>
        <rect id="Rectángulo_172" data-name="Rectángulo 172" width="11.777" height="11.777" transform="translate(67.371 9995.855)" fill="#fff"/>
        <g id="Grupo_571" data-name="Grupo 571" transform="translate(50.212 9966.854)">
          <rect id="Rectángulo_86" data-name="Rectángulo 86" width="3.598" height="41.381" transform="translate(43.18 21.59)" fill="#fbd734"/>
          <rect id="Rectángulo_87" data-name="Rectángulo 87" width="3.598" height="41.381" transform="translate(33.285 21.59)" fill="#fbd734"/>
          <rect id="Rectángulo_88" data-name="Rectángulo 88" width="8.096" height="2.699" transform="translate(35.983 58.473)" fill="#fbd734"/>
          <rect id="Rectángulo_89" data-name="Rectángulo 89" width="8.096" height="2.699" transform="translate(35.983 58.473)" fill="#fbd734"/>
          <rect id="Rectángulo_90" data-name="Rectángulo 90" width="8.096" height="2.699" transform="translate(35.983 48.578)" fill="#fbd734"/>
          <rect id="Rectángulo_91" data-name="Rectángulo 91" width="8.096" height="1.799" transform="translate(35.983 39.582)" fill="#fbd734"/>
          <rect id="Rectángulo_92" data-name="Rectángulo 92" width="8.096" height="2.699" transform="translate(35.983 29.686)" fill="#fbd734"/>
          <path id="Trazado_471" data-name="Trazado 471" d="M1252.743,4272.729l-8.238-6.783v2.945l8.238,6.755Z" transform="translate(-1208.964 -4235.359)" fill="#fbd734"/>
          <path id="Trazado_472" data-name="Trazado 472" d="M1252.743,4272.729l-8.238-6.783v2.945l8.238,6.755Z" transform="translate(-1208.964 -4225.659)" fill="#fbd734"/>
          <path id="Trazado_473" data-name="Trazado 473" d="M1252.743,4272.729l-8.238-6.783v2.945l8.238,6.755Z" transform="translate(-1208.964 -4216.09)" fill="#fbd734"/>
          <path id="Trazado_474" data-name="Trazado 474" d="M1252.743,4272.729l-8.238-6.783v2.945l8.238,6.755Z" transform="translate(-1208.964 -4245.059)" fill="#fbd734"/>
          <path id="Trazado_612" data-name="Trazado 612" d="M123.3,0H90.731V4.147H123.3Z" transform="translate(-73.338 17.995)" fill="#fbd734"/>
          <path id="Trazado_475" data-name="Trazado 475" d="M1241.581,4100.778l-4.948-17.156H1233.9l-5.136,17.425h3.133l3.344-12.071,3.475,12.513Z" transform="translate(-1195.292 -4082.115)" fill="#fbd734"/>
          <circle id="Elipse_54" data-name="Elipse 54" cx="1.349" cy="1.349" r="1.349" transform="translate(38.682)" fill="#fbd734"/>
          <path id="Trazado_476" data-name="Trazado 476" d="M1215.782,4100.395l-8.649-16.427.645,2.152,8,15.858Z" transform="translate(-1166.043 -4082.405)" fill="#fbd734"/>
          <path id="Trazado_477" data-name="Trazado 477" d="M1296.867,4084l-21,16.652h3.188l17.817-15.5Z" transform="translate(-1258.089 -4082.432)" fill="#fbd734"/>
        </g>
        <path id="iconfinder_00-ELASTOFONT-STORE-READY_close_2703079" d="M6.039,5.629l4.135-4.135a.289.289,0,0,0-.409-.409L5.629,5.22,1.494,1.085a.289.289,0,0,0-.409.409L5.22,5.629,1.085,9.765a.289.289,0,1,0,.409.409L5.629,6.039l4.135,4.135a.289.289,0,0,0,.409-.409Z" transform="translate(67.63 9996.115)" fill="#1d1d1b"/>
        <g id="iconfinder_21_5027815" transform="translate(82.094 10005.231)">
          <path id="Trazado_584" data-name="Trazado 584" d="M1.13,5.21A4.66,4.66,0,0,0,5.684,9.9h.057a5.546,5.546,0,0,0,5.546-5.546c0-.157-.01-.311-.023-.461H1.13Z" fill="#f2c6dd"/>
          <g id="Grupo_535" data-name="Grupo 535" transform="translate(1.214 5.293)">
            <path id="Trazado_585" data-name="Trazado 585" d="M3.48,16.221H2.13V8.84H14.636v1.353" transform="translate(-1.879 -8.589)" fill="#ff9d9c"/>
            <circle id="Elipse_105" data-name="Elipse 105" cx="3.041" cy="3.041" r="3.041" transform="translate(9.539 6.372)" fill="#e9f4bc"/>
            <path id="Trazado_586" data-name="Trazado 586" d="M17.149,17.651a3.02,3.02,0,0,1,1.681.508V12.88H6.17v7.788h7.939A3.04,3.04,0,0,1,17.149,17.651Z" transform="translate(-4.57 -11.28)" fill="#f2c6dd"/>
            <path id="Trazado_587" data-name="Trazado 587" d="M19.553,20.055a3.171,3.171,0,0,1,.474.04V17.4a.9.9,0,0,1-.905-.905h-8.44a.9.9,0,0,1-.9.905v3.565a.9.9,0,0,1,.9.905h6.091A3.037,3.037,0,0,1,19.553,20.055Z" transform="translate(-6.973 -13.683)" fill="#fff"/>
            <g id="Grupo_534" data-name="Grupo 534" transform="translate(0)">
              <path id="Trazado_588" data-name="Trazado 588" d="M37.2,31.325a.418.418,0,0,1,.418.418.251.251,0,1,0,.5,0,.918.918,0,0,0-.668-.879v-.134a.251.251,0,1,0-.5,0v.134a.916.916,0,0,0,.251,1.8.418.418,0,1,1-.418.418.251.251,0,0,0-.5,0,.918.918,0,0,0,.668.879v.134a.251.251,0,0,0,.5,0v-.134a.916.916,0,0,0-.251-1.8.418.418,0,0,1,0-.835Z" transform="translate(-24.619 -22.999)" fill="#505050"/>
              <path id="Trazado_589" data-name="Trazado 589" d="M23.239,19.819a.439.439,0,0,1,.438.438.251.251,0,1,0,.5,0,.94.94,0,0,0-.688-.9v-.144a.251.251,0,1,0-.5,0v.144a.937.937,0,0,0,.251,1.841.438.438,0,1,1-.438.438.251.251,0,1,0-.5,0,.94.94,0,0,0,.688.9v.144a.251.251,0,1,0,.5,0v-.144a.937.937,0,0,0-.251-1.841.438.438,0,1,1,0-.875Z" transform="translate(-15.31 -15.328)" fill="#505050"/>
              <path id="Trazado_590" data-name="Trazado 590" d="M15.891,14.843V9.69a.25.25,0,0,0-.074-.177.256.256,0,0,0-.177-.074H14.387v-1.1a.252.252,0,0,0-.251-.251H1.631a.252.252,0,0,0-.251.251v7.381a.252.252,0,0,0,.251.251h1.1v1.507a.25.25,0,0,0,.074.177.256.256,0,0,0,.177.074h7.7a3.288,3.288,0,1,0,5.212-2.887Zm-12.66-4.9h2.65a.251.251,0,1,0,0-.5H2.98a.251.251,0,0,0-.251.251v5.78H1.881V8.591h12V9.44H7.217a.251.251,0,1,0,0,.5H15.39v4.6a3.208,3.208,0,0,0-.7-.247V11.8a.252.252,0,0,0-.251-.251.656.656,0,0,1-.655-.655.252.252,0,0,0-.251-.251H5.089a.252.252,0,0,0-.251.251.655.655,0,0,1-.652.655.252.252,0,0,0-.251.251v3.565a.252.252,0,0,0,.251.251.653.653,0,0,1,.652.655.252.252,0,0,0,.251.251h5.727a3.288,3.288,0,0,0-.134.7H3.231Zm7.792,6.081H5.313a1.159,1.159,0,0,0-.875-.879V12.023a1.159,1.159,0,0,0,.875-.879H13.3a1.158,1.158,0,0,0,.879.879v2.2c-.074-.007-.147-.01-.224-.01A3.291,3.291,0,0,0,11.023,16.022Zm2.937,4.27a2.79,2.79,0,1,1,2.79-2.79A2.795,2.795,0,0,1,13.96,20.292Z" transform="translate(-1.38 -8.09)" fill="#505050"/>
              <circle id="Elipse_106" data-name="Elipse 106" cx="0.251" cy="0.251" r="0.251" transform="translate(4.918 1.35)" fill="#505050"/>
            </g>
          </g>
        </g>
        <path id="Trazado_612-2" data-name="Trazado 612" d="M67.605,9987.683l10.214-18.441-7.337,18.441,12.079-19.325-8.625,19.325L88.451,9965.9l-11.6,22.759,15.25-18.493-9.535,17.52,12.46-12.7-10.347,16.027,12.29-10.679-13.3,14.755,15.665-10.553-13.942,13.412,13.942-9.29-13.942,13.42,11.574-6.989-12.29,11.343,12.29-7.062-12.29,10.779,11.371-6.355-11.371,10.891,10.347-5.991-12.46,11.447,14.4-8.715-13.3,11.1,12.378-7.1-12.378,10.171,13.3-7.773-12.29,10.668,12.29-6.648-8.513,6.648,8.513-2.895-4.867,4.129,4.867-1.234" fill="none" stroke="#030303" stroke-width="0.5"/>
        <path id="Trazado_613" data-name="Trazado 613" d="M81.869,10018.543l3.787-8.6-1.421,9.618,3.722-9.618-1.239,10.367,4.19-10.367-1.47,11.526,3.528-11.526-.669,10.367,3.382-9.058-1.532,10.217,3.516-8.333-.931,8.333" fill="none" stroke="#000" stroke-width="0.5"/>
      </g>
      <g id="Grupo_571-2" data-name="Grupo 571" transform="translate(141 -9705.635)">
        <g id="Grupo_570-3" data-name="Grupo 570" transform="translate(64.811 9994.206)">
          <g id="Grupo_531-2" data-name="Grupo 531" transform="translate(0 0)">
            <path id="iconfinder_Untitled-1-18_2419684-2" data-name="iconfinder_Untitled-1-18_2419684" d="M35.776,27.151V9.631l-.982-.982V6.3H21.664V8.649l-.982.982v17.52H19.7v.982H36.758v-.982Z" transform="translate(-19.7 7.485)" fill="#356dd0"/>
            <path id="Sustracción_3-2" data-name="Sustracción 3" d="M0,0H13.126V14.536H0Z" transform="translate(1.954 0)" fill="#356dd0"/>
          </g>
        </g>
        <rect id="Rectángulo_172-2" data-name="Rectángulo 172" width="11.777" height="11.777" transform="translate(67.371 9995.855)" fill="#fff"/>
        <g id="Grupo_571-3" data-name="Grupo 571" transform="translate(50.212 9966.854)">
          <rect id="Rectángulo_86-2" data-name="Rectángulo 86" width="3.598" height="41.381" transform="translate(43.18 21.59)" fill="#fbd734"/>
          <rect id="Rectángulo_87-2" data-name="Rectángulo 87" width="3.598" height="41.381" transform="translate(33.285 21.59)" fill="#fbd734"/>
          <rect id="Rectángulo_88-2" data-name="Rectángulo 88" width="8.096" height="2.699" transform="translate(35.983 58.473)" fill="#fbd734"/>
          <rect id="Rectángulo_89-2" data-name="Rectángulo 89" width="8.096" height="2.699" transform="translate(35.983 58.473)" fill="#fbd734"/>
          <rect id="Rectángulo_90-2" data-name="Rectángulo 90" width="8.096" height="2.699" transform="translate(35.983 48.578)" fill="#fbd734"/>
          <rect id="Rectángulo_91-2" data-name="Rectángulo 91" width="8.096" height="1.799" transform="translate(35.983 39.582)" fill="#fbd734"/>
          <rect id="Rectángulo_92-2" data-name="Rectángulo 92" width="8.096" height="2.699" transform="translate(35.983 29.686)" fill="#fbd734"/>
          <path id="Trazado_471-2" data-name="Trazado 471" d="M1252.743,4272.729l-8.238-6.783v2.945l8.238,6.755Z" transform="translate(-1208.964 -4235.359)" fill="#fbd734"/>
          <path id="Trazado_472-2" data-name="Trazado 472" d="M1252.743,4272.729l-8.238-6.783v2.945l8.238,6.755Z" transform="translate(-1208.964 -4225.659)" fill="#fbd734"/>
          <path id="Trazado_473-2" data-name="Trazado 473" d="M1252.743,4272.729l-8.238-6.783v2.945l8.238,6.755Z" transform="translate(-1208.964 -4216.09)" fill="#fbd734"/>
          <path id="Trazado_474-2" data-name="Trazado 474" d="M1252.743,4272.729l-8.238-6.783v2.945l8.238,6.755Z" transform="translate(-1208.964 -4245.059)" fill="#fbd734"/>
          <path id="Trazado_612-3" data-name="Trazado 612" d="M123.3,0H90.731V4.147H123.3Z" transform="translate(-73.338 17.995)" fill="#fbd734"/>
          <path id="Trazado_475-2" data-name="Trazado 475" d="M1241.581,4100.778l-4.948-17.156H1233.9l-5.136,17.425h3.133l3.344-12.071,3.475,12.513Z" transform="translate(-1195.292 -4082.115)" fill="#fbd734"/>
          <circle id="Elipse_54-2" data-name="Elipse 54" cx="1.349" cy="1.349" r="1.349" transform="translate(38.682)" fill="#fbd734"/>
          <path id="Trazado_476-2" data-name="Trazado 476" d="M1215.782,4100.395l-8.649-16.427.645,2.152,8,15.858Z" transform="translate(-1166.043 -4082.405)" fill="#fbd734"/>
          <path id="Trazado_477-2" data-name="Trazado 477" d="M1296.867,4084l-21,16.652h3.188l17.817-15.5Z" transform="translate(-1258.089 -4082.432)" fill="#fbd734"/>
        </g>
        <path id="iconfinder_00-ELASTOFONT-STORE-READY_close_2703079-2" data-name="iconfinder_00-ELASTOFONT-STORE-READY_close_2703079" d="M6.039,5.629l4.135-4.135a.289.289,0,0,0-.409-.409L5.629,5.22,1.494,1.085a.289.289,0,0,0-.409.409L5.22,5.629,1.085,9.765a.289.289,0,1,0,.409.409L5.629,6.039l4.135,4.135a.289.289,0,0,0,.409-.409Z" transform="translate(67.63 9996.115)" fill="#1d1d1b"/>
        <g id="iconfinder_21_5027815-2" data-name="iconfinder_21_5027815" transform="translate(82.094 10005.231)">
          <path id="Trazado_584-2" data-name="Trazado 584" d="M1.13,5.21A4.66,4.66,0,0,0,5.684,9.9h.057a5.546,5.546,0,0,0,5.546-5.546c0-.157-.01-.311-.023-.461H1.13Z" fill="#f2c6dd"/>
          <g id="Grupo_535-2" data-name="Grupo 535" transform="translate(1.214 5.293)">
            <path id="Trazado_585-2" data-name="Trazado 585" d="M3.48,16.221H2.13V8.84H14.636v1.353" transform="translate(-1.879 -8.589)" fill="#ff9d9c"/>
            <circle id="Elipse_105-2" data-name="Elipse 105" cx="3.041" cy="3.041" r="3.041" transform="translate(9.539 6.372)" fill="#e9f4bc"/>
            <path id="Trazado_586-2" data-name="Trazado 586" d="M17.149,17.651a3.02,3.02,0,0,1,1.681.508V12.88H6.17v7.788h7.939A3.04,3.04,0,0,1,17.149,17.651Z" transform="translate(-4.57 -11.28)" fill="#f2c6dd"/>
            <path id="Trazado_587-2" data-name="Trazado 587" d="M19.553,20.055a3.171,3.171,0,0,1,.474.04V17.4a.9.9,0,0,1-.905-.905h-8.44a.9.9,0,0,1-.9.905v3.565a.9.9,0,0,1,.9.905h6.091A3.037,3.037,0,0,1,19.553,20.055Z" transform="translate(-6.973 -13.683)" fill="#fff"/>
            <g id="Grupo_534-2" data-name="Grupo 534" transform="translate(0)">
              <path id="Trazado_588-2" data-name="Trazado 588" d="M37.2,31.325a.418.418,0,0,1,.418.418.251.251,0,1,0,.5,0,.918.918,0,0,0-.668-.879v-.134a.251.251,0,1,0-.5,0v.134a.916.916,0,0,0,.251,1.8.418.418,0,1,1-.418.418.251.251,0,0,0-.5,0,.918.918,0,0,0,.668.879v.134a.251.251,0,0,0,.5,0v-.134a.916.916,0,0,0-.251-1.8.418.418,0,0,1,0-.835Z" transform="translate(-24.619 -22.999)" fill="#505050"/>
              <path id="Trazado_589-2" data-name="Trazado 589" d="M23.239,19.819a.439.439,0,0,1,.438.438.251.251,0,1,0,.5,0,.94.94,0,0,0-.688-.9v-.144a.251.251,0,1,0-.5,0v.144a.937.937,0,0,0,.251,1.841.438.438,0,1,1-.438.438.251.251,0,1,0-.5,0,.94.94,0,0,0,.688.9v.144a.251.251,0,1,0,.5,0v-.144a.937.937,0,0,0-.251-1.841.438.438,0,1,1,0-.875Z" transform="translate(-15.31 -15.328)" fill="#505050"/>
              <path id="Trazado_590-2" data-name="Trazado 590" d="M15.891,14.843V9.69a.25.25,0,0,0-.074-.177.256.256,0,0,0-.177-.074H14.387v-1.1a.252.252,0,0,0-.251-.251H1.631a.252.252,0,0,0-.251.251v7.381a.252.252,0,0,0,.251.251h1.1v1.507a.25.25,0,0,0,.074.177.256.256,0,0,0,.177.074h7.7a3.288,3.288,0,1,0,5.212-2.887Zm-12.66-4.9h2.65a.251.251,0,1,0,0-.5H2.98a.251.251,0,0,0-.251.251v5.78H1.881V8.591h12V9.44H7.217a.251.251,0,1,0,0,.5H15.39v4.6a3.208,3.208,0,0,0-.7-.247V11.8a.252.252,0,0,0-.251-.251.656.656,0,0,1-.655-.655.252.252,0,0,0-.251-.251H5.089a.252.252,0,0,0-.251.251.655.655,0,0,1-.652.655.252.252,0,0,0-.251.251v3.565a.252.252,0,0,0,.251.251.653.653,0,0,1,.652.655.252.252,0,0,0,.251.251h5.727a3.288,3.288,0,0,0-.134.7H3.231Zm7.792,6.081H5.313a1.159,1.159,0,0,0-.875-.879V12.023a1.159,1.159,0,0,0,.875-.879H13.3a1.158,1.158,0,0,0,.879.879v2.2c-.074-.007-.147-.01-.224-.01A3.291,3.291,0,0,0,11.023,16.022Zm2.937,4.27a2.79,2.79,0,1,1,2.79-2.79A2.795,2.795,0,0,1,13.96,20.292Z" transform="translate(-1.38 -8.09)" fill="#505050"/>
              <circle id="Elipse_106-2" data-name="Elipse 106" cx="0.251" cy="0.251" r="0.251" transform="translate(4.918 1.35)" fill="#505050"/>
            </g>
          </g>
        </g>
        <path id="Trazado_612-4" data-name="Trazado 612" d="M67.605,9987.683l10.214-18.441-7.337,18.441,12.079-19.325-8.625,19.325L88.451,9965.9l-11.6,22.759,15.25-18.493-9.535,17.52,12.46-12.7-10.347,16.027,12.29-10.679-13.3,14.755,15.665-10.553-13.942,13.412,13.942-9.29-13.942,13.42,11.574-6.989-12.29,11.343,12.29-7.062-12.29,10.779,11.371-6.355-11.371,10.891,10.347-5.991-12.46,11.447,14.4-8.715-13.3,11.1,12.378-7.1-12.378,10.171,13.3-7.773-12.29,10.668,12.29-6.648-8.513,6.648,8.513-2.895-4.867,4.129,4.867-1.234" fill="none" stroke="#030303" stroke-width="0.5"/>
        <path id="Trazado_613-2" data-name="Trazado 613" d="M81.869,10018.543l3.787-8.6-1.421,9.618,3.722-9.618-1.239,10.367,4.19-10.367-1.47,11.526,3.528-11.526-.669,10.367,3.382-9.058-1.532,10.217,3.516-8.333-.931,8.333" fill="none" stroke="#000" stroke-width="0.5"/>
      </g>
    </g>
    <g id="Grupo_573" data-name="Grupo 573" transform="translate(60 -9911.71)">
      <path id="iconfinder_icon-arrow-left-c_211618" d="M83.473,119.323l-3.187,3.336a1.029,1.029,0,0,0,0,1.424l3.187,3.349a.94.94,0,0,0,1.373,0,1.051,1.051,0,0,0,0-1.436l-1.528-1.6,35.694-.006a1.018,1.018,0,0,0,0-2.034l-35.694.006,1.532-1.6a1.051,1.051,0,0,0,0-1.436A.943.943,0,0,0,83.473,119.323Z" transform="translate(-25.185 10047.975)"/>
      <path id="iconfinder_icon-arrow-left-c_211618-2" data-name="iconfinder_icon-arrow-left-c_211618" d="M83.473,119.323l-3.187,3.336a1.029,1.029,0,0,0,0,1.424l3.187,3.349a.94.94,0,0,0,1.373,0,1.051,1.051,0,0,0,0-1.436l-1.528-1.6h6.9a1.018,1.018,0,0,0,0-2.034h-6.9l1.532-1.6a1.051,1.051,0,0,0,0-1.436A.943.943,0,0,0,83.473,119.323Z" transform="translate(183 10294.73) rotate(180)"/>
    </g>
    <g id="Grupo_574" data-name="Grupo 574" transform="translate(141 -9911.71)">
      <path id="iconfinder_icon-arrow-left-c_211618-3" data-name="iconfinder_icon-arrow-left-c_211618" d="M83.473,119.323l-3.187,3.336a1.029,1.029,0,0,0,0,1.424l3.187,3.349a.94.94,0,0,0,1.373,0,1.051,1.051,0,0,0,0-1.436l-1.528-1.6,35.694-.006a1.018,1.018,0,0,0,0-2.034l-35.694.006,1.532-1.6a1.051,1.051,0,0,0,0-1.436A.943.943,0,0,0,83.473,119.323Z" transform="translate(-25.185 10047.975)"/>
      <path id="iconfinder_icon-arrow-left-c_211618-4" data-name="iconfinder_icon-arrow-left-c_211618" d="M83.473,119.323l-3.187,3.336a1.029,1.029,0,0,0,0,1.424l3.187,3.349a.94.94,0,0,0,1.373,0,1.051,1.051,0,0,0,0-1.436l-1.528-1.6h6.9a1.018,1.018,0,0,0,0-2.034h-6.9l1.532-1.6a1.051,1.051,0,0,0,0-1.436A.943.943,0,0,0,83.473,119.323Z" transform="translate(183 10294.73) rotate(180)"/>
    </g>
    <g id="Grupo_589" data-name="Grupo 589" transform="translate(-3.081 1.116)">
      <g id="Trazado_636" data-name="Trazado 636" transform="translate(114.081 377.174)" fill="#fff">
        <path d="M 51.29225921630859 59.41797256469727 L 8.860430717468262 59.41797256469727 L 0.5752328634262085 0.5000043511390686 L 59.42623138427734 0.5000043511390686 L 51.29225921630859 59.41797256469727 Z" stroke="none"/>
        <path d="M 1.150463104248047 0.9999961853027344 L 9.295040130615234 58.91796493530273 L 50.85654449462891 58.91796493530273 L 58.85246276855469 0.9999961853027344 L 1.150463104248047 0.9999961853027344 M 0 -3.814697265625e-06 L 60 -3.814697265625e-06 L 51.72797012329102 59.91796493530273 L 8.425819396972656 59.91796493530273 L 0 -3.814697265625e-06 Z" stroke="none" fill="#f0f0f0"/>
      </g>
      <g id="Grupo_537" data-name="Grupo 537" transform="translate(1.377 -2.027)">
        <path id="Trazado_640" data-name="Trazado 640" d="M4.928-15.62,4.84-16.632a10.055,10.055,0,0,1,2.9,1.936,8.786,8.786,0,0,1,1.892,2.6,6.77,6.77,0,0,1,.66,2.9A8.146,8.146,0,0,1,8.91-4.6,10.124,10.124,0,0,1,5.192-1.254,10.786,10.786,0,0,1,0,0,10.786,10.786,0,0,1-5.192-1.254,10.124,10.124,0,0,1-8.91-4.6,8.146,8.146,0,0,1-10.3-9.2a6.833,6.833,0,0,1,.858-3.5A8.6,8.6,0,0,1-7.282-15.18a16.649,16.649,0,0,1,2.574-1.672L-5.06-15.62a8.646,8.646,0,0,1-2.134-1.254,6.293,6.293,0,0,1-1.694-2.09,6.428,6.428,0,0,1-.66-2.992,8.136,8.136,0,0,1,1.276-4.466,9.285,9.285,0,0,1,3.454-3.19A9.9,9.9,0,0,1,0-30.8a9.735,9.735,0,0,1,4.818,1.188,9.381,9.381,0,0,1,3.41,3.19A8.136,8.136,0,0,1,9.5-21.956a6.176,6.176,0,0,1-.748,3.168,6.389,6.389,0,0,1-1.8,2.024A10.274,10.274,0,0,1,4.928-15.62Zm-9.2-6.248a4.049,4.049,0,0,0,.55,2.112A4.07,4.07,0,0,0-2.2-18.282a4.374,4.374,0,0,0,2.2.55,4.254,4.254,0,0,0,2.178-.55,4.119,4.119,0,0,0,1.5-1.474,4.049,4.049,0,0,0,.55-2.112,3.894,3.894,0,0,0-1.21-2.926A4.172,4.172,0,0,0,0-25.96a4.229,4.229,0,0,0-3.058,1.166A3.894,3.894,0,0,0-4.268-21.868ZM0-4.84a5.155,5.155,0,0,0,3.564-1.3A4.068,4.068,0,0,0,5.016-9.284a4.1,4.1,0,0,0-.66-2.288,4.678,4.678,0,0,0-1.8-1.606A5.454,5.454,0,0,0,0-13.772a5.454,5.454,0,0,0-2.552.594,4.678,4.678,0,0,0-1.8,1.606,4.1,4.1,0,0,0-.66,2.288A4.068,4.068,0,0,0-3.564-6.138,5.155,5.155,0,0,0,0-4.84Z" transform="translate(143 425)" fill="#f0f0f0"/>
      </g>
      <g id="Grupo_538" data-name="Grupo 538">
        <path id="Trazado_637" data-name="Trazado 637" d="M0,0H60L51.728,59.918H8.426Z" transform="translate(186.081 377.174)" fill="#fbe1a2"/>
        <path id="Trazado_641" data-name="Trazado 641" d="M5.06,0A2.474,2.474,0,0,1,3.212-.77a2.639,2.639,0,0,1-.748-1.914v-20.68l.924.22L-5.1-12.628l-.22-.572H9.592a2.388,2.388,0,0,1,1.76.7,2.388,2.388,0,0,1,.7,1.76,2.263,2.263,0,0,1-.7,1.694,2.429,2.429,0,0,1-1.76.682H-8.976a2.692,2.692,0,0,1-1.782-.748,2.356,2.356,0,0,1-.858-1.848,2.683,2.683,0,0,1,.66-1.76l13.9-17.028a2.505,2.505,0,0,1,.924-.77A2.813,2.813,0,0,1,5.148-30.8a2.455,2.455,0,0,1,1.87.77,2.682,2.682,0,0,1,.726,1.914V-2.684A2.6,2.6,0,0,1,6.974-.77,2.6,2.6,0,0,1,5.06,0Z" transform="translate(215.697 422.974)" fill="#e5914b"/>
      </g>
    </g>
  </g>
</svg>
