<svg xmlns="http://www.w3.org/2000/svg" width="175" height="204.843" viewBox="0 0 175 204.843">
  <g id="M_1_3_T" transform="translate(-89 -233.365)">
    <g id="Grupo_109" data-name="Grupo 109" transform="translate(88.648 233.365)">
      <g id="Trazado_620" data-name="Trazado 620" transform="translate(0.352)" fill="#fff">
        <path d="M 156 174.5 L 19 174.5 C 16.50230407714844 174.5 14.07956504821777 174.0109405517578 11.79910850524902 173.04638671875 C 9.596217155456543 172.1146240234375 7.617695808410645 170.7806549072266 5.918521881103516 169.0814819335938 C 4.219347953796387 167.3823089599609 2.885369539260864 165.4037780761719 1.953608751296997 163.2008972167969 C 0.9890652298927307 160.9204406738281 0.5 158.4976959228516 0.5 156 L 0.5 19 C 0.5 16.50230407714844 0.9890652298927307 14.07956504821777 1.953608751296997 11.79910850524902 C 2.885369539260864 9.596217155456543 4.219347953796387 7.617695808410645 5.918521881103516 5.918521881103516 C 7.617695808410645 4.219347953796387 9.596217155456543 2.885369539260864 11.79910850524902 1.953608751296997 C 14.07956504821777 0.9890652298927307 16.50230407714844 0.5 19 0.5 L 156 0.5 C 158.4976959228516 0.5 160.9204406738281 0.9890652298927307 163.2008972167969 1.953608751296997 C 165.4037780761719 2.885369539260864 167.3823089599609 4.219347953796387 169.0814819335938 5.918521881103516 C 170.7806549072266 7.617695808410645 172.1146240234375 9.596217155456543 173.04638671875 11.79910850524902 C 174.0109405517578 14.07956504821777 174.5 16.50230407714844 174.5 19 L 174.5 156 C 174.5 158.4976959228516 174.0109405517578 160.9204406738281 173.04638671875 163.2008972167969 C 172.1146240234375 165.4037780761719 170.7806549072266 167.3823089599609 169.0814819335938 169.0814819335938 C 167.3823089599609 170.7806549072266 165.4037780761719 172.1146240234375 163.2008972167969 173.04638671875 C 160.9204406738281 174.0109405517578 158.4976959228516 174.5 156 174.5 Z" stroke="none"/>
        <path d="M 19 1 C 14.1920166015625 1 9.671844482421875 2.872314453125 6.272064208984375 6.272064208984375 C 2.872314453125 9.671844482421875 1 14.1920166015625 1 19 L 1 156 C 1 160.8079833984375 2.872314453125 165.3281555175781 6.272064208984375 168.7279357910156 C 9.671844482421875 172.127685546875 14.1920166015625 174 19 174 L 156 174 C 160.8079833984375 174 165.3281555175781 172.127685546875 168.7279357910156 168.7279357910156 C 172.127685546875 165.3281555175781 174 160.8079833984375 174 156 L 174 19 C 174 14.1920166015625 172.127685546875 9.671844482421875 168.7279357910156 6.272064208984375 C 165.3281555175781 2.872314453125 160.8079833984375 1 156 1 L 19 1 M 19 0 L 156 0 C 166.493408203125 0 175 8.506591796875 175 19 L 175 156 C 175 166.493408203125 166.493408203125 175 156 175 L 19 175 C 8.506591796875 175 0 166.493408203125 0 156 L 0 19 C 0 8.506591796875 8.506591796875 0 19 0 Z" stroke="none" fill="#f6b85f"/>
      </g>
      <g id="Rectángulo_174" data-name="Rectángulo 174" transform="translate(21.264 134.699) rotate(-90)" fill="#fff" stroke="#000" stroke-width="1">
        <rect width="12" height="135.908" stroke="none"/>
        <rect x="0.5" y="0.5" width="11" height="134.908" fill="none"/>
      </g>
      <line id="Línea_36" data-name="Línea 36" y1="116.288" transform="translate(28.478 129.199) rotate(-90)" fill="none" stroke="#000" stroke-width="1" stroke-dasharray="3"/>
      <path id="iconfinder_add_134224" d="M28,14H18V4a2,2,0,0,0-4,0V14H4a2,2,0,0,0,0,4H14V28a2,2,0,0,0,4,0V18H28a2,2,0,0,0,0-4Z" transform="translate(71.352 66.925)"/>
    </g>
    <g id="Grupo_572" data-name="Grupo 572" transform="translate(-5.811 21)">
      <g id="Grupo_570" data-name="Grupo 570" transform="translate(59 -9705.635)">
        <g id="Grupo_570-2" data-name="Grupo 570" transform="translate(64.811 9994.206)">
          <g id="Grupo_531" data-name="Grupo 531" transform="translate(0 0)">
            <path id="iconfinder_Untitled-1-18_2419684" d="M35.776,27.151V9.631l-.982-.982V6.3H21.664V8.649l-.982.982v17.52H19.7v.982H36.758v-.982Z" transform="translate(-19.7 7.485)" fill="#356dd0"/>
            <path id="Sustracción_3" data-name="Sustracción 3" d="M0,0H13.126V14.536H0Z" transform="translate(1.954 0)" fill="#356dd0"/>
          </g>
        </g>
        <rect id="Rectángulo_172" data-name="Rectángulo 172" width="11.777" height="11.777" transform="translate(67.371 9995.855)" fill="#fff"/>
        <g id="Grupo_571" data-name="Grupo 571" transform="translate(50.212 9966.854)">
          <rect id="Rectángulo_86" data-name="Rectángulo 86" width="3.598" height="41.381" transform="translate(43.18 21.59)" fill="#fbd734"/>
          <rect id="Rectángulo_87" data-name="Rectángulo 87" width="3.598" height="41.381" transform="translate(33.285 21.59)" fill="#fbd734"/>
          <rect id="Rectángulo_88" data-name="Rectángulo 88" width="8.096" height="2.699" transform="translate(35.983 58.473)" fill="#fbd734"/>
          <rect id="Rectángulo_89" data-name="Rectángulo 89" width="8.096" height="2.699" transform="translate(35.983 58.473)" fill="#fbd734"/>
          <rect id="Rectángulo_90" data-name="Rectángulo 90" width="8.096" height="2.699" transform="translate(35.983 48.578)" fill="#fbd734"/>
          <rect id="Rectángulo_91" data-name="Rectángulo 91" width="8.096" height="1.799" transform="translate(35.983 39.582)" fill="#fbd734"/>
          <rect id="Rectángulo_92" data-name="Rectángulo 92" width="8.096" height="2.699" transform="translate(35.983 29.686)" fill="#fbd734"/>
          <path id="Trazado_471" data-name="Trazado 471" d="M1252.743,4272.729l-8.238-6.783v2.945l8.238,6.755Z" transform="translate(-1208.964 -4235.359)" fill="#fbd734"/>
          <path id="Trazado_472" data-name="Trazado 472" d="M1252.743,4272.729l-8.238-6.783v2.945l8.238,6.755Z" transform="translate(-1208.964 -4225.659)" fill="#fbd734"/>
          <path id="Trazado_473" data-name="Trazado 473" d="M1252.743,4272.729l-8.238-6.783v2.945l8.238,6.755Z" transform="translate(-1208.964 -4216.09)" fill="#fbd734"/>
          <path id="Trazado_474" data-name="Trazado 474" d="M1252.743,4272.729l-8.238-6.783v2.945l8.238,6.755Z" transform="translate(-1208.964 -4245.059)" fill="#fbd734"/>
          <path id="Trazado_612" data-name="Trazado 612" d="M123.3,0H90.731V4.147H123.3Z" transform="translate(-73.338 17.995)" fill="#fbd734"/>
          <path id="Trazado_475" data-name="Trazado 475" d="M1241.581,4100.778l-4.948-17.156H1233.9l-5.136,17.425h3.133l3.344-12.071,3.475,12.513Z" transform="translate(-1195.292 -4082.115)" fill="#fbd734"/>
          <circle id="Elipse_54" data-name="Elipse 54" cx="1.349" cy="1.349" r="1.349" transform="translate(38.682)" fill="#fbd734"/>
          <path id="Trazado_476" data-name="Trazado 476" d="M1215.782,4100.395l-8.649-16.427.645,2.152,8,15.858Z" transform="translate(-1166.043 -4082.405)" fill="#fbd734"/>
          <path id="Trazado_477" data-name="Trazado 477" d="M1296.867,4084l-21,16.652h3.188l17.817-15.5Z" transform="translate(-1258.089 -4082.432)" fill="#fbd734"/>
        </g>
        <path id="iconfinder_00-ELASTOFONT-STORE-READY_close_2703079" d="M6.039,5.629l4.135-4.135a.289.289,0,0,0-.409-.409L5.629,5.22,1.494,1.085a.289.289,0,0,0-.409.409L5.22,5.629,1.085,9.765a.289.289,0,1,0,.409.409L5.629,6.039l4.135,4.135a.289.289,0,0,0,.409-.409Z" transform="translate(67.63 9996.115)" fill="#1d1d1b"/>
        <g id="iconfinder_21_5027815" transform="translate(82.094 10005.231)">
          <path id="Trazado_584" data-name="Trazado 584" d="M1.13,5.21A4.66,4.66,0,0,0,5.684,9.9h.057a5.546,5.546,0,0,0,5.546-5.546c0-.157-.01-.311-.023-.461H1.13Z" fill="#f2c6dd"/>
          <g id="Grupo_535" data-name="Grupo 535" transform="translate(1.214 5.293)">
            <path id="Trazado_585" data-name="Trazado 585" d="M3.48,16.221H2.13V8.84H14.636v1.353" transform="translate(-1.879 -8.589)" fill="#ff9d9c"/>
            <circle id="Elipse_105" data-name="Elipse 105" cx="3.041" cy="3.041" r="3.041" transform="translate(9.539 6.372)" fill="#e9f4bc"/>
            <path id="Trazado_586" data-name="Trazado 586" d="M17.149,17.651a3.02,3.02,0,0,1,1.681.508V12.88H6.17v7.788h7.939A3.04,3.04,0,0,1,17.149,17.651Z" transform="translate(-4.57 -11.28)" fill="#f2c6dd"/>
            <path id="Trazado_587" data-name="Trazado 587" d="M19.553,20.055a3.171,3.171,0,0,1,.474.04V17.4a.9.9,0,0,1-.905-.905h-8.44a.9.9,0,0,1-.9.905v3.565a.9.9,0,0,1,.9.905h6.091A3.037,3.037,0,0,1,19.553,20.055Z" transform="translate(-6.973 -13.683)" fill="#fff"/>
            <g id="Grupo_534" data-name="Grupo 534" transform="translate(0)">
              <path id="Trazado_588" data-name="Trazado 588" d="M37.2,31.325a.418.418,0,0,1,.418.418.251.251,0,1,0,.5,0,.918.918,0,0,0-.668-.879v-.134a.251.251,0,1,0-.5,0v.134a.916.916,0,0,0,.251,1.8.418.418,0,1,1-.418.418.251.251,0,0,0-.5,0,.918.918,0,0,0,.668.879v.134a.251.251,0,0,0,.5,0v-.134a.916.916,0,0,0-.251-1.8.418.418,0,0,1,0-.835Z" transform="translate(-24.619 -22.999)" fill="#505050"/>
              <path id="Trazado_589" data-name="Trazado 589" d="M23.239,19.819a.439.439,0,0,1,.438.438.251.251,0,1,0,.5,0,.94.94,0,0,0-.688-.9v-.144a.251.251,0,1,0-.5,0v.144a.937.937,0,0,0,.251,1.841.438.438,0,1,1-.438.438.251.251,0,1,0-.5,0,.94.94,0,0,0,.688.9v.144a.251.251,0,1,0,.5,0v-.144a.937.937,0,0,0-.251-1.841.438.438,0,1,1,0-.875Z" transform="translate(-15.31 -15.328)" fill="#505050"/>
              <path id="Trazado_590" data-name="Trazado 590" d="M15.891,14.843V9.69a.25.25,0,0,0-.074-.177.256.256,0,0,0-.177-.074H14.387v-1.1a.252.252,0,0,0-.251-.251H1.631a.252.252,0,0,0-.251.251v7.381a.252.252,0,0,0,.251.251h1.1v1.507a.25.25,0,0,0,.074.177.256.256,0,0,0,.177.074h7.7a3.288,3.288,0,1,0,5.212-2.887Zm-12.66-4.9h2.65a.251.251,0,1,0,0-.5H2.98a.251.251,0,0,0-.251.251v5.78H1.881V8.591h12V9.44H7.217a.251.251,0,1,0,0,.5H15.39v4.6a3.208,3.208,0,0,0-.7-.247V11.8a.252.252,0,0,0-.251-.251.656.656,0,0,1-.655-.655.252.252,0,0,0-.251-.251H5.089a.252.252,0,0,0-.251.251.655.655,0,0,1-.652.655.252.252,0,0,0-.251.251v3.565a.252.252,0,0,0,.251.251.653.653,0,0,1,.652.655.252.252,0,0,0,.251.251h5.727a3.288,3.288,0,0,0-.134.7H3.231Zm7.792,6.081H5.313a1.159,1.159,0,0,0-.875-.879V12.023a1.159,1.159,0,0,0,.875-.879H13.3a1.158,1.158,0,0,0,.879.879v2.2c-.074-.007-.147-.01-.224-.01A3.291,3.291,0,0,0,11.023,16.022Zm2.937,4.27a2.79,2.79,0,1,1,2.79-2.79A2.795,2.795,0,0,1,13.96,20.292Z" transform="translate(-1.38 -8.09)" fill="#505050"/>
              <circle id="Elipse_106" data-name="Elipse 106" cx="0.251" cy="0.251" r="0.251" transform="translate(4.918 1.35)" fill="#505050"/>
            </g>
          </g>
        </g>
        <path id="Trazado_612-2" data-name="Trazado 612" d="M67.605,9987.683l10.214-18.441-7.337,18.441,12.079-19.325-8.625,19.325L88.451,9965.9l-11.6,22.759,15.25-18.493-9.535,17.52,12.46-12.7-10.347,16.027,12.29-10.679-13.3,14.755,15.665-10.553-13.942,13.412,13.942-9.29-13.942,13.42,11.574-6.989-12.29,11.343,12.29-7.062-12.29,10.779,11.371-6.355-11.371,10.891,10.347-5.991-12.46,11.447,14.4-8.715-13.3,11.1,12.378-7.1-12.378,10.171,13.3-7.773-12.29,10.668,12.29-6.648-8.513,6.648,8.513-2.895-4.867,4.129,4.867-1.234" fill="none" stroke="#030303" stroke-width="0.5"/>
        <path id="Trazado_613" data-name="Trazado 613" d="M81.869,10018.543l3.787-8.6-1.421,9.618,3.722-9.618-1.239,10.367,4.19-10.367-1.47,11.526,3.528-11.526-.669,10.367,3.382-9.058-1.532,10.217,3.516-8.333-.931,8.333" fill="none" stroke="#000" stroke-width="0.5"/>
      </g>
      <g id="Grupo_571-2" data-name="Grupo 571" transform="translate(141 -9705.635)">
        <g id="Grupo_570-3" data-name="Grupo 570" transform="translate(77.811 9994.206)">
          <g id="Grupo_531-2" data-name="Grupo 531" transform="translate(0 0)">
            <path id="iconfinder_Untitled-1-18_2419684-2" data-name="iconfinder_Untitled-1-18_2419684" d="M35.776,27.151V9.631l-.982-.982V6.3H21.664V8.649l-.982.982v17.52H19.7v.982H36.758v-.982Z" transform="translate(-19.7 7.485)" fill="#356dd0"/>
            <path id="Sustracción_3-2" data-name="Sustracción 3" d="M0,0H13.126V14.536H0Z" transform="translate(1.954 0)" fill="#356dd0"/>
          </g>
        </g>
        <rect id="Rectángulo_172-2" data-name="Rectángulo 172" width="11.777" height="11.777" transform="translate(80.371 9995.855)" fill="#fff"/>
        <path id="iconfinder_00-ELASTOFONT-STORE-READY_close_2703079-2" data-name="iconfinder_00-ELASTOFONT-STORE-READY_close_2703079" d="M6.039,5.629l4.135-4.135a.289.289,0,0,0-.409-.409L5.629,5.22,1.494,1.085a.289.289,0,0,0-.409.409L5.22,5.629,1.085,9.765a.289.289,0,1,0,.409.409L5.629,6.039l4.135,4.135a.289.289,0,0,0,.409-.409Z" transform="translate(80.63 9996.115)" fill="#1d1d1b"/>
      </g>
    </g>
    <g id="Grupo_573" data-name="Grupo 573" transform="translate(60 -9900.71)">
      <path id="iconfinder_icon-arrow-left-c_211618" d="M83.473,119.323l-3.187,3.336a1.029,1.029,0,0,0,0,1.424l3.187,3.349a.94.94,0,0,0,1.373,0,1.051,1.051,0,0,0,0-1.436l-1.528-1.6,35.694-.006a1.018,1.018,0,0,0,0-2.034l-35.694.006,1.532-1.6a1.051,1.051,0,0,0,0-1.436A.943.943,0,0,0,83.473,119.323Z" transform="translate(-25.185 10047.975)"/>
      <path id="iconfinder_icon-arrow-left-c_211618-2" data-name="iconfinder_icon-arrow-left-c_211618" d="M83.473,119.323l-3.187,3.336a1.029,1.029,0,0,0,0,1.424l3.187,3.349a.94.94,0,0,0,1.373,0,1.051,1.051,0,0,0,0-1.436l-1.528-1.6h6.9a1.018,1.018,0,0,0,0-2.034h-6.9l1.532-1.6a1.051,1.051,0,0,0,0-1.436A.943.943,0,0,0,83.473,119.323Z" transform="translate(183 10294.73) rotate(180)"/>
    </g>
    <g id="Grupo_574" data-name="Grupo 574" transform="translate(141 -9900.71)">
      <path id="iconfinder_icon-arrow-left-c_211618-3" data-name="iconfinder_icon-arrow-left-c_211618" d="M83.473,119.323l-3.187,3.336a1.029,1.029,0,0,0,0,1.424l3.187,3.349a.94.94,0,0,0,1.373,0,1.051,1.051,0,0,0,0-1.436l-1.528-1.6,35.694-.006a1.018,1.018,0,0,0,0-2.034l-35.694.006,1.532-1.6a1.051,1.051,0,0,0,0-1.436A.943.943,0,0,0,83.473,119.323Z" transform="translate(-25.185 10047.975)"/>
      <path id="iconfinder_icon-arrow-left-c_211618-4" data-name="iconfinder_icon-arrow-left-c_211618" d="M83.473,119.323l-3.187,3.336a1.029,1.029,0,0,0,0,1.424l3.187,3.349a.94.94,0,0,0,1.373,0,1.051,1.051,0,0,0,0-1.436l-1.528-1.6h6.9a1.018,1.018,0,0,0,0-2.034h-6.9l1.532-1.6a1.051,1.051,0,0,0,0-1.436A.943.943,0,0,0,83.473,119.323Z" transform="translate(183 10294.73) rotate(180)"/>
    </g>
    <g id="Grupo_575" data-name="Grupo 575" transform="translate(-1632.371 -5387.456)">
      <g id="iconfinder_General_Office_53_3592844" transform="translate(1846.75 5683.031)">
        <path id="Trazado_480" data-name="Trazado 480" d="M17.591,8.176a.461.461,0,0,0-.439-.321H11.689L9.8,2.118a.461.461,0,0,0-.877,0L7.043,7.855H1.581a.461.461,0,0,0-.268.837l4.42,3.146L3.955,17.255a.461.461,0,0,0,.706.52l4.706-3.35,4.705,3.35a.461.461,0,0,0,.706-.52L13,11.839l4.42-3.146A.461.461,0,0,0,17.591,8.176Z" transform="translate(-1.12 -1.8)" fill="#ff77d2"/>
      </g>
      <rect id="Rectángulo_97" data-name="Rectángulo 97" width="3.659" height="13.905" transform="translate(1848.287 5684.155)" fill="#fee000"/>
      <rect id="Rectángulo_98" data-name="Rectángulo 98" width="6.952" height="2.561" transform="translate(1848.287 5695.499)" fill="#fee000"/>
      <path id="Polígono_19" data-name="Polígono 19" d="M2.378,0,4.757,4.025H0Z" transform="translate(1858.899 5694.035) rotate(90)" fill="#fee000"/>
      <g id="Grupo_482" data-name="Grupo 482" transform="translate(1850.117 5682.692)">
        <rect id="Rectángulo_99" data-name="Rectángulo 99" width="3.293" height="3.659" transform="translate(0 0)" fill="#ff7a00"/>
        <path id="Trazado_481" data-name="Trazado 481" d="M-33.781-92.585c-.043.41-.652.289-.889.127a.17.17,0,0,0-.257.02.214.214,0,0,0,.04.283c.4.329,1.46.312,1.48-.421.02-.767-1.235-.5-1.157-.969.061-.3.545-.237.759-.1a.169.169,0,1,0,.185-.283c-.4-.306-1.244-.2-1.31.355C-35.019-92.756-33.818-93.012-33.781-92.585Z" transform="translate(35.929 94.965)" fill="#fff"/>
      </g>
      <g id="Grupo_483" data-name="Grupo 483" transform="translate(1850.117 5686.351)">
        <rect id="Rectángulo_99-2" data-name="Rectángulo 99" width="3.293" height="3.659" transform="translate(0 0)" fill="#ff7a00"/>
        <path id="Trazado_482" data-name="Trazado 482" d="M-37.885-87.963a.174.174,0,0,0,.176-.179v-.632h.941v.632a.19.19,0,0,0,.2.179.176.176,0,0,0,.179-.179v-1.639a.174.174,0,0,0-.179-.179.188.188,0,0,0-.2.179v.629h-.941v-.629a.172.172,0,0,0-.176-.179.181.181,0,0,0-.2.179v1.639A.182.182,0,0,0-37.885-87.963Z" transform="translate(38.988 90.942)" fill="#fff"/>
      </g>
      <g id="Grupo_484" data-name="Grupo 484" transform="translate(1850.117 5690.01)">
        <rect id="Rectángulo_99-3" data-name="Rectángulo 99" width="3.293" height="3.659" transform="translate(0 0)" fill="#ff7a00"/>
        <path id="Trazado_483" data-name="Trazado 483" d="M-46.109-92.151a1.04,1.04,0,0,0-1.033-1.059,1.035,1.035,0,0,0-1.088,1.059,1.007,1.007,0,0,0,1.088,1.039A1.006,1.006,0,0,0-46.109-92.151Zm-.378,0a.666.666,0,0,1-.687.684.662.662,0,0,1-.675-.684.66.66,0,0,1,.675-.684A.665.665,0,0,1-46.487-92.151Z" transform="translate(48.903 94.145)" fill="#fff"/>
      </g>
      <g id="Grupo_485" data-name="Grupo 485" transform="translate(1850.117 5694.035)">
        <rect id="Rectángulo_99-4" data-name="Rectángulo 99" width="3.293" height="3.293" transform="translate(0 0)" fill="#ff7a00"/>
        <path id="Trazado_484" data-name="Trazado 484" d="M-64.091-90.648c-.075-.176-.257-.167-.326.009l-.511,1.189-.427-1.189a.188.188,0,1,0-.355.127l.56,1.572c.046.127.1.2.2.2s.153-.069.2-.19l.479-1.122.5,1.14c.058.1.089.167.193.167s.147-.049.2-.214l.571-1.549a.186.186,0,1,0-.349-.127l-.43,1.189Z" transform="translate(66.007 91.558)" fill="#fff"/>
      </g>
    </g>
    <g id="Elipse_120" data-name="Elipse 120" transform="translate(211 291.29)" fill="none" stroke="#000" stroke-width="0.5">
      <circle cx="12" cy="12" r="12" stroke="none"/>
      <circle cx="12" cy="12" r="11.75" fill="none"/>
    </g>
    <g id="Grupo_587" data-name="Grupo 587" transform="translate(-3.081 1)">
      <path id="Trazado_636" data-name="Trazado 636" d="M0,0H60L51.728,59.918H8.426Z" transform="translate(114.081 377.29)" fill="#e5914b"/>
      <g id="Grupo_537" data-name="Grupo 537" transform="translate(1.377 -2.47)">
        <path id="Trazado_644" data-name="Trazado 644" d="M-11.7,0a2.783,2.783,0,0,1-2.024-.77,2.561,2.561,0,0,1-.792-1.914V-24.86l.616.968-3.344,2.024a2.691,2.691,0,0,1-1.408.4,2.4,2.4,0,0,1-1.892-.858,2.739,2.739,0,0,1-.748-1.826,2.506,2.506,0,0,1,1.364-2.288l6.644-3.96a4.02,4.02,0,0,1,1.892-.4,2.455,2.455,0,0,1,1.87.77A2.682,2.682,0,0,1-8.8-28.116V-2.684A2.527,2.527,0,0,1-9.614-.77,2.918,2.918,0,0,1-11.7,0ZM8.008.44a10.228,10.228,0,0,1-6.4-2A12.355,12.355,0,0,1-2.376-7.15,23.11,23.11,0,0,1-3.74-15.4a23.066,23.066,0,0,1,1.364-8.272,12.365,12.365,0,0,1,3.982-5.566,10.228,10.228,0,0,1,6.4-2,10.228,10.228,0,0,1,6.4,2,12.365,12.365,0,0,1,3.982,5.566A23.066,23.066,0,0,1,19.756-15.4a23.11,23.11,0,0,1-1.364,8.25A12.355,12.355,0,0,1,14.41-1.562,10.228,10.228,0,0,1,8.008.44Zm0-5.28A4.7,4.7,0,0,0,11.2-6.006a7.584,7.584,0,0,0,2.09-3.52,19.668,19.668,0,0,0,.748-5.874,19.624,19.624,0,0,0-.748-5.9,7.579,7.579,0,0,0-2.09-3.5,4.7,4.7,0,0,0-3.19-1.166A4.728,4.728,0,0,0,4.84-24.794a7.48,7.48,0,0,0-2.112,3.5,19.624,19.624,0,0,0-.748,5.9,19.668,19.668,0,0,0,.748,5.874A7.485,7.485,0,0,0,4.84-6.006,4.728,4.728,0,0,0,8.008-4.84Z" transform="translate(143 425)" fill="#fef7cb"/>
      </g>
      <g id="Grupo_538" data-name="Grupo 538">
        <path id="Trazado_637" data-name="Trazado 637" d="M0,0H60L51.728,59.918H8.426Z" transform="translate(186.081 377.29)" fill="#fbe1a2"/>
        <path id="Trazado_645" data-name="Trazado 645" d="M.044.44a9.2,9.2,0,0,1-4.29-.99A9.815,9.815,0,0,1-7.5-3.256,12.927,12.927,0,0,1-9.57-7.128a13.833,13.833,0,0,1-.726-4.444,23.928,23.928,0,0,1,.33-3.608A24.362,24.362,0,0,1-8.8-19.624a20.141,20.141,0,0,1,2.332-4.532,17.017,17.017,0,0,1,3.806-3.96A16.456,16.456,0,0,1,2.992-30.8,4.172,4.172,0,0,1,4-30.932,3.283,3.283,0,0,1,5.83-30.4a2.132,2.132,0,0,1,.814,1.936,2.486,2.486,0,0,1-.638,1.694A3.5,3.5,0,0,1,4.312-25.74a13.448,13.448,0,0,0-2.97,1.3,13.764,13.764,0,0,0-2.728,2.09,13.026,13.026,0,0,0-2.156,2.794,11.707,11.707,0,0,0-1.3,3.366l-1.188-.044A18.4,18.4,0,0,1-4.51-17.842a8.785,8.785,0,0,1,2.2-1.5,6.859,6.859,0,0,1,3.058-.638,7.985,7.985,0,0,1,3.41.792,10.816,10.816,0,0,1,3.08,2.178A10.775,10.775,0,0,1,9.46-13.75,9.646,9.646,0,0,1,10.3-9.768,9.888,9.888,0,0,1,8.91-4.62a10.378,10.378,0,0,1-3.7,3.7A9.976,9.976,0,0,1,.044.44Zm0-4.84a4.661,4.661,0,0,0,2.53-.7A5.049,5.049,0,0,0,4.356-7.04a5.684,5.684,0,0,0,.66-2.728,5.649,5.649,0,0,0-.66-2.75,5.092,5.092,0,0,0-1.782-1.914,4.661,4.661,0,0,0-2.53-.7,4.661,4.661,0,0,0-2.53.7,5.092,5.092,0,0,0-1.782,1.914,5.649,5.649,0,0,0-.66,2.75,5.684,5.684,0,0,0,.66,2.728A5.049,5.049,0,0,0-2.486-5.1,4.661,4.661,0,0,0,.044-4.4Z" transform="translate(215.377 422.221)" fill="#e5914b"/>
      </g>
    </g>
  </g>
</svg>
