<svg xmlns="http://www.w3.org/2000/svg" width="175" height="204.843" viewBox="0 0 175 204.843">
  <g id="M_1_4_F" transform="translate(-29 -10856.075)">
    <g id="M_1_0_T" transform="translate(-60 10622.71)">
      <g id="Grupo_109" data-name="Grupo 109" transform="translate(88.648 233.365)">
        <g id="Trazado_620" data-name="Trazado 620" transform="translate(0.352)" fill="#fff">
          <path d="M 156 174.5 L 19 174.5 C 16.50230407714844 174.5 14.07956504821777 174.0109405517578 11.79910850524902 173.04638671875 C 9.596217155456543 172.1146240234375 7.617695808410645 170.7806549072266 5.918521881103516 169.0814819335938 C 4.219347953796387 167.3823089599609 2.885369539260864 165.4037780761719 1.953608751296997 163.2008972167969 C 0.9890652298927307 160.9204406738281 0.5 158.4976959228516 0.5 156 L 0.5 19 C 0.5 16.50230407714844 0.9890652298927307 14.07956504821777 1.953608751296997 11.79910850524902 C 2.885369539260864 9.596217155456543 4.219347953796387 7.617695808410645 5.918521881103516 5.918521881103516 C 7.617695808410645 4.219347953796387 9.596217155456543 2.885369539260864 11.79910850524902 1.953608751296997 C 14.07956504821777 0.9890652298927307 16.50230407714844 0.5 19 0.5 L 156 0.5 C 158.4976959228516 0.5 160.9204406738281 0.9890652298927307 163.2008972167969 1.953608751296997 C 165.4037780761719 2.885369539260864 167.3823089599609 4.219347953796387 169.0814819335938 5.918521881103516 C 170.7806549072266 7.617695808410645 172.1146240234375 9.596217155456543 173.04638671875 11.79910850524902 C 174.0109405517578 14.07956504821777 174.5 16.50230407714844 174.5 19 L 174.5 156 C 174.5 158.4976959228516 174.0109405517578 160.9204406738281 173.04638671875 163.2008972167969 C 172.1146240234375 165.4037780761719 170.7806549072266 167.3823089599609 169.0814819335938 169.0814819335938 C 167.3823089599609 170.7806549072266 165.4037780761719 172.1146240234375 163.2008972167969 173.04638671875 C 160.9204406738281 174.0109405517578 158.4976959228516 174.5 156 174.5 Z" stroke="none"/>
          <path d="M 19 1 C 14.1920166015625 1 9.671844482421875 2.872314453125 6.272064208984375 6.272064208984375 C 2.872314453125 9.671844482421875 1 14.1920166015625 1 19 L 1 156 C 1 160.8079833984375 2.872314453125 165.3281555175781 6.272064208984375 168.7279357910156 C 9.671844482421875 172.127685546875 14.1920166015625 174 19 174 L 156 174 C 160.8079833984375 174 165.3281555175781 172.127685546875 168.7279357910156 168.7279357910156 C 172.127685546875 165.3281555175781 174 160.8079833984375 174 156 L 174 19 C 174 14.1920166015625 172.127685546875 9.671844482421875 168.7279357910156 6.272064208984375 C 165.3281555175781 2.872314453125 160.8079833984375 1 156 1 L 19 1 M 19 0 L 156 0 C 166.493408203125 0 175 8.506591796875 175 19 L 175 156 C 175 166.493408203125 166.493408203125 175 156 175 L 19 175 C 8.506591796875 175 0 166.493408203125 0 156 L 0 19 C 0 8.506591796875 8.506591796875 0 19 0 Z" stroke="none" fill="#f6b85f"/>
        </g>
      </g>
      <g id="Grupo_576" data-name="Grupo 576" transform="translate(-1686.431 -5436.749)">
        <g id="iconfinder_General_Office_53_3592844" transform="translate(1846.75 5683.357)">
          <path id="Trazado_480" data-name="Trazado 480" d="M33.44,14.312a.9.9,0,0,0-.862-.629H21.859l-3.7-11.259a.905.905,0,0,0-1.721,0l-3.7,11.259H2.025A.905.905,0,0,0,1.5,15.325L10.174,21.5,6.683,32.127a.905.905,0,0,0,1.385,1.02L17.3,26.573l9.233,6.573a.905.905,0,0,0,1.385-1.02L24.429,21.5,33.1,15.325A.905.905,0,0,0,33.44,14.312Z" transform="translate(-1.12 -1.8)" fill="#ff77d2"/>
        </g>
        <rect id="Rectángulo_97" data-name="Rectángulo 97" width="7.18" height="27.284" transform="translate(1849.767 5685.563)" fill="#fee000"/>
        <rect id="Rectángulo_98" data-name="Rectángulo 98" width="13.642" height="5.026" transform="translate(1849.767 5707.822)" fill="#fee000"/>
        <path id="Polígono_19" data-name="Polígono 19" d="M4.667,0,9.334,7.9H0Z" transform="translate(1870.589 5704.949) rotate(90)" fill="#fee000"/>
        <g id="Grupo_482" data-name="Grupo 482" transform="translate(1853.357 5682.692)">
          <rect id="Rectángulo_99" data-name="Rectángulo 99" width="6.462" height="7.18" transform="translate(0 0)" fill="#ff7a00"/>
          <path id="Trazado_481" data-name="Trazado 481" d="M-32.644-91.128c-.085.8-1.279.566-1.744.249a.334.334,0,0,0-.5.04.419.419,0,0,0,.079.555c.781.645,2.865.611,2.9-.827.04-1.506-2.423-.974-2.27-1.9.119-.589,1.07-.464,1.489-.2a.332.332,0,1,0,.362-.555c-.781-.6-2.44-.4-2.57.7C-35.073-91.462-32.718-91.966-32.644-91.128Z" transform="translate(36.86 95.797)" fill="#fff"/>
        </g>
        <g id="Grupo_483" data-name="Grupo 483" transform="translate(1853.357 5689.871)">
          <rect id="Rectángulo_99-2" data-name="Rectángulo 99" width="6.462" height="7.18" transform="translate(0 0)" fill="#ff7a00"/>
          <path id="Trazado_482" data-name="Trazado 482" d="M-37.688-86.042a.341.341,0,0,0,.345-.351v-1.24H-35.5v1.24a.372.372,0,0,0,.385.351.346.346,0,0,0,.351-.351v-3.216a.342.342,0,0,0-.351-.351.368.368,0,0,0-.385.351v1.234h-1.846v-1.234a.338.338,0,0,0-.345-.351.355.355,0,0,0-.4.351v3.216A.358.358,0,0,0-37.688-86.042Z" transform="translate(39.851 91.888)" fill="#fff"/>
        </g>
        <g id="Grupo_484" data-name="Grupo 484" transform="translate(1853.357 5697.051)">
          <rect id="Rectángulo_99-3" data-name="Rectángulo 99" width="6.462" height="7.18" transform="translate(0 0)" fill="#ff7a00"/>
          <path id="Trazado_483" data-name="Trazado 483" d="M-44.069-91.132A2.041,2.041,0,0,0-46.1-93.21a2.032,2.032,0,0,0-2.134,2.078A1.976,1.976,0,0,0-46.1-89.094,1.975,1.975,0,0,0-44.069-91.132Zm-.742,0a1.308,1.308,0,0,1-1.347,1.342,1.3,1.3,0,0,1-1.325-1.342,1.3,1.3,0,0,1,1.325-1.342A1.3,1.3,0,0,1-44.81-91.132Z" transform="translate(49.55 95.045)" fill="#fff"/>
        </g>
        <g id="Grupo_485" data-name="Grupo 485" transform="translate(1853.357 5704.949)">
          <rect id="Rectángulo_99-4" data-name="Rectángulo 99" width="6.462" height="6.462" transform="translate(0 0)" fill="#ff7a00"/>
          <path id="Trazado_484" data-name="Trazado 484" d="M-62.52-90.525c-.147-.345-.5-.328-.64.017l-1,2.333L-65-90.508a.37.37,0,1,0-.7.249l1.1,3.086c.091.249.192.385.391.385s.3-.136.4-.374l.94-2.2.985,2.236c.113.2.175.328.379.328s.289-.1.391-.419l1.121-3.04a.365.365,0,1,0-.685-.249l-.844,2.333Z" transform="translate(66.28 92.31)" fill="#fff"/>
        </g>
      </g>
      <g id="Rectángulo_178" data-name="Rectángulo 178" transform="translate(155 286.29)" fill="#fff" stroke="#000" stroke-width="0.5">
        <rect width="10" height="10" stroke="none"/>
        <rect x="0.25" y="0.25" width="9.5" height="9.5" fill="none"/>
      </g>
      <g id="Rectángulo_179" data-name="Rectángulo 179" transform="translate(155 298.29)" fill="#fff" stroke="#000" stroke-width="0.5">
        <rect width="10" height="10" stroke="none"/>
        <rect x="0.25" y="0.25" width="9.5" height="9.5" fill="none"/>
      </g>
      <g id="Rectángulo_180" data-name="Rectángulo 180" transform="translate(155 310.29)" fill="#fff" stroke="#000" stroke-width="0.5">
        <rect width="10" height="10" stroke="none"/>
        <rect x="0.25" y="0.25" width="9.5" height="9.5" fill="none"/>
      </g>
      <g id="Rectángulo_181" data-name="Rectángulo 181" transform="translate(155 322.29)" fill="#fff" stroke="#000" stroke-width="0.5">
        <rect width="10" height="10" stroke="none"/>
        <rect x="0.25" y="0.25" width="9.5" height="9.5" fill="none"/>
      </g>
      <g id="Rectángulo_182" data-name="Rectángulo 182" transform="translate(155 334.29)" fill="#fff" stroke="#000" stroke-width="0.5">
        <rect width="10" height="10" stroke="none"/>
        <rect x="0.25" y="0.25" width="9.5" height="9.5" fill="none"/>
      </g>
      <g id="Rectángulo_183" data-name="Rectángulo 183" transform="translate(155 346.29)" fill="#fff" stroke="#000" stroke-width="0.5">
        <rect width="10" height="10" stroke="none"/>
        <rect x="0.25" y="0.25" width="9.5" height="9.5" fill="none"/>
      </g>
      <g id="Rectángulo_184" data-name="Rectángulo 184" transform="translate(155 358.29)" fill="#fff" stroke="#000" stroke-width="0.5">
        <rect width="10" height="10" stroke="none"/>
        <rect x="0.25" y="0.25" width="9.5" height="9.5" fill="none"/>
      </g>
      <g id="Rectángulo_185" data-name="Rectángulo 185" transform="translate(183 286.29)" fill="#fff" stroke="#000" stroke-width="0.5">
        <rect width="10" height="10" stroke="none"/>
        <rect x="0.25" y="0.25" width="9.5" height="9.5" fill="none"/>
      </g>
      <g id="Rectángulo_186" data-name="Rectángulo 186" transform="translate(183 298.29)" fill="#fff" stroke="#000" stroke-width="0.5">
        <rect width="10" height="10" stroke="none"/>
        <rect x="0.25" y="0.25" width="9.5" height="9.5" fill="none"/>
      </g>
      <g id="Rectángulo_187" data-name="Rectángulo 187" transform="translate(183 310.29)" fill="#fff" stroke="#000" stroke-width="0.5">
        <rect width="10" height="10" stroke="none"/>
        <rect x="0.25" y="0.25" width="9.5" height="9.5" fill="none"/>
      </g>
      <g id="Rectángulo_188" data-name="Rectángulo 188" transform="translate(183 322.29)" fill="#fff" stroke="#000" stroke-width="0.5">
        <rect width="10" height="10" stroke="none"/>
        <rect x="0.25" y="0.25" width="9.5" height="9.5" fill="none"/>
      </g>
      <g id="Rectángulo_189" data-name="Rectángulo 189" transform="translate(183 334.29)" fill="#fff" stroke="#000" stroke-width="0.5">
        <rect width="10" height="10" stroke="none"/>
        <rect x="0.25" y="0.25" width="9.5" height="9.5" fill="none"/>
      </g>
      <g id="Rectángulo_190" data-name="Rectángulo 190" transform="translate(183 346.29)" fill="#fff" stroke="#000" stroke-width="0.5">
        <rect width="10" height="10" stroke="none"/>
        <rect x="0.25" y="0.25" width="9.5" height="9.5" fill="none"/>
      </g>
      <g id="Rectángulo_191" data-name="Rectángulo 191" transform="translate(183 358.29)" fill="#fff" stroke="#000" stroke-width="0.5">
        <rect width="10" height="10" stroke="none"/>
        <rect x="0.25" y="0.25" width="9.5" height="9.5" fill="none"/>
      </g>
      <path id="Trazado_630" data-name="Trazado 630" d="M-4.929-4.371a2.21,2.21,0,0,1,.6.093,2.559,2.559,0,0,1,.728.372,5.79,5.79,0,0,0,1.255.713,4.286,4.286,0,0,0,1.69.31,3.636,3.636,0,0,0,1.813-.48A3.954,3.954,0,0,0,2.573-4.727a3.9,3.9,0,0,0,.558-2.123A3.647,3.647,0,0,0,2.651-8.8,3.165,3.165,0,0,0,1.38-9.982a3.668,3.668,0,0,0-1.69-.4,4.339,4.339,0,0,0-1.131.124q-.449.124-.868.264a3.091,3.091,0,0,1-.977.139,1.315,1.315,0,0,1-1.1-.5,1.856,1.856,0,0,1-.388-1.178,1.71,1.71,0,0,1,.171-.775,3.855,3.855,0,0,1,.511-.744L1.364-19l.837.713H-5.425a1.682,1.682,0,0,1-1.24-.5,1.682,1.682,0,0,1-.5-1.24,1.6,1.6,0,0,1,.5-1.193,1.711,1.711,0,0,1,1.24-.48H4.061a1.855,1.855,0,0,1,1.441.527,1.9,1.9,0,0,1,.481,1.333,1.606,1.606,0,0,1-.2.775,3.1,3.1,0,0,1-.542.713L-.248-12.307l-.837-1.054a4.6,4.6,0,0,1,.945-.279,5.187,5.187,0,0,1,1.008-.124,5.394,5.394,0,0,1,3.177.945A6.288,6.288,0,0,1,6.123-10.37a7.331,7.331,0,0,1,.728,3.24A7.461,7.461,0,0,1,5.828-3.162,6.716,6.716,0,0,1,2.945-.589a9.867,9.867,0,0,1-4.34.9A9.3,9.3,0,0,1-3.658.031,7.457,7.457,0,0,1-5.58-.713a2.128,2.128,0,0,1-.914-.822,1.861,1.861,0,0,1-.233-.853,2.117,2.117,0,0,1,.511-1.348A1.585,1.585,0,0,1-4.929-4.371Z" transform="translate(120 314.29)" fill="#f6b85f"/>
      <path id="Trazado_629" data-name="Trazado 629" d="M-4.929-4.371a2.21,2.21,0,0,1,.6.093,2.559,2.559,0,0,1,.728.372,5.79,5.79,0,0,0,1.255.713,4.286,4.286,0,0,0,1.69.31,3.636,3.636,0,0,0,1.813-.48A3.954,3.954,0,0,0,2.573-4.727a3.9,3.9,0,0,0,.558-2.123A3.647,3.647,0,0,0,2.651-8.8,3.165,3.165,0,0,0,1.38-9.982a3.668,3.668,0,0,0-1.69-.4,4.339,4.339,0,0,0-1.131.124q-.449.124-.868.264a3.091,3.091,0,0,1-.977.139,1.315,1.315,0,0,1-1.1-.5,1.856,1.856,0,0,1-.388-1.178,1.71,1.71,0,0,1,.171-.775,3.855,3.855,0,0,1,.511-.744L1.364-19l.837.713H-5.425a1.682,1.682,0,0,1-1.24-.5,1.682,1.682,0,0,1-.5-1.24,1.6,1.6,0,0,1,.5-1.193,1.711,1.711,0,0,1,1.24-.48H4.061a1.855,1.855,0,0,1,1.441.527,1.9,1.9,0,0,1,.481,1.333,1.606,1.606,0,0,1-.2.775,3.1,3.1,0,0,1-.542.713L-.248-12.307l-.837-1.054a4.6,4.6,0,0,1,.945-.279,5.187,5.187,0,0,1,1.008-.124,5.394,5.394,0,0,1,3.177.945A6.288,6.288,0,0,1,6.123-10.37a7.331,7.331,0,0,1,.728,3.24A7.461,7.461,0,0,1,5.828-3.162,6.716,6.716,0,0,1,2.945-.589a9.867,9.867,0,0,1-4.34.9A9.3,9.3,0,0,1-3.658.031,7.457,7.457,0,0,1-5.58-.713a2.128,2.128,0,0,1-.914-.822,1.861,1.861,0,0,1-.233-.853,2.117,2.117,0,0,1,.511-1.348A1.585,1.585,0,0,1-4.929-4.371Z" transform="translate(228 314.29)" fill="#f6b85f"/>
      <g id="Grupo_586" data-name="Grupo 586" transform="translate(-4.081 1.116)">
        <g id="Trazado_636" data-name="Trazado 636" transform="translate(114.081 377.174)" fill="#fff">
          <path d="M 51.29225921630859 59.41797256469727 L 8.860430717468262 59.41797256469727 L 0.5752328634262085 0.5000043511390686 L 59.42623138427734 0.5000043511390686 L 51.29225921630859 59.41797256469727 Z" stroke="none"/>
          <path d="M 1.150463104248047 0.9999961853027344 L 9.295040130615234 58.91796493530273 L 50.85654449462891 58.91796493530273 L 58.85246276855469 0.9999961853027344 L 1.150463104248047 0.9999961853027344 M 0 -3.814697265625e-06 L 60 -3.814697265625e-06 L 51.72797012329102 59.91796493530273 L 8.425819396972656 59.91796493530273 L 0 -3.814697265625e-06 Z" stroke="none" fill="#f0f0f0"/>
        </g>
        <g id="Grupo_537" data-name="Grupo 537" transform="translate(0 0.269)">
          <path id="Trazado_646" data-name="Trazado 646" d="M-9.988,0a2.783,2.783,0,0,1-2.024-.77A2.561,2.561,0,0,1-12.8-2.684V-24.86l.616.968-3.344,2.024a2.691,2.691,0,0,1-1.408.4,2.4,2.4,0,0,1-1.892-.858,2.739,2.739,0,0,1-.748-1.826,2.506,2.506,0,0,1,1.364-2.288l6.644-3.96a4.02,4.02,0,0,1,1.892-.4,2.455,2.455,0,0,1,1.87.77,2.682,2.682,0,0,1,.726,1.914V-2.684A2.527,2.527,0,0,1-7.9-.77,2.918,2.918,0,0,1-9.988,0Zm26-4.84a2.388,2.388,0,0,1,1.76.7,2.388,2.388,0,0,1,.7,1.76,2.263,2.263,0,0,1-.7,1.694A2.429,2.429,0,0,1,16.016,0H1.056a2.353,2.353,0,0,1-1.8-.7,2.532,2.532,0,0,1-.66-1.8A2.73,2.73,0,0,1-.616-4.444L8.976-14.7a17.517,17.517,0,0,0,2.552-3.5,7.02,7.02,0,0,0,.968-3.322,4.7,4.7,0,0,0-.66-2.464,5.188,5.188,0,0,0-1.716-1.76,4.237,4.237,0,0,0-2.288-.66,4.753,4.753,0,0,0-2.6.858A8.75,8.75,0,0,0,2.9-23.276a2.346,2.346,0,0,1-1.056.88,3.083,3.083,0,0,1-.968.176A2.623,2.623,0,0,1-.9-22.946a2.209,2.209,0,0,1-.814-1.694,2.459,2.459,0,0,1,.506-1.452A11.91,11.91,0,0,1,.044-27.544a13.266,13.266,0,0,1,3.872-2.684A10.1,10.1,0,0,1,8.14-31.24a10.209,10.209,0,0,1,5.148,1.232,8.635,8.635,0,0,1,3.344,3.388,9.95,9.95,0,0,1,1.188,4.884,11.162,11.162,0,0,1-.682,3.762,17.328,17.328,0,0,1-1.87,3.718A27.279,27.279,0,0,1,12.54-10.78L6.6-4.444l-.484-.4Z" transform="translate(144.661 422.146)" fill="#f0f0f0"/>
        </g>
        <g id="Grupo_538" data-name="Grupo 538">
          <path id="Trazado_637" data-name="Trazado 637" d="M0,0H60L51.728,59.918H8.426Z" transform="translate(186.081 377.174)" fill="#fbe1a2"/>
          <path id="Trazado_647" data-name="Trazado 647" d="M.044.44a9.2,9.2,0,0,1-4.29-.99A9.815,9.815,0,0,1-7.5-3.256,12.927,12.927,0,0,1-9.57-7.128a13.833,13.833,0,0,1-.726-4.444,23.928,23.928,0,0,1,.33-3.608A24.362,24.362,0,0,1-8.8-19.624a20.141,20.141,0,0,1,2.332-4.532,17.017,17.017,0,0,1,3.806-3.96A16.456,16.456,0,0,1,2.992-30.8,4.172,4.172,0,0,1,4-30.932,3.283,3.283,0,0,1,5.83-30.4a2.132,2.132,0,0,1,.814,1.936,2.486,2.486,0,0,1-.638,1.694A3.5,3.5,0,0,1,4.312-25.74a13.448,13.448,0,0,0-2.97,1.3,13.764,13.764,0,0,0-2.728,2.09,13.026,13.026,0,0,0-2.156,2.794,11.707,11.707,0,0,0-1.3,3.366l-1.188-.044A18.4,18.4,0,0,1-4.51-17.842a8.785,8.785,0,0,1,2.2-1.5,6.859,6.859,0,0,1,3.058-.638,7.985,7.985,0,0,1,3.41.792,10.816,10.816,0,0,1,3.08,2.178A10.775,10.775,0,0,1,9.46-13.75,9.646,9.646,0,0,1,10.3-9.768,9.888,9.888,0,0,1,8.91-4.62a10.378,10.378,0,0,1-3.7,3.7A9.976,9.976,0,0,1,.044.44Zm0-4.84a4.661,4.661,0,0,0,2.53-.7A5.049,5.049,0,0,0,4.356-7.04a5.684,5.684,0,0,0,.66-2.728,5.649,5.649,0,0,0-.66-2.75,5.092,5.092,0,0,0-1.782-1.914,4.661,4.661,0,0,0-2.53-.7,4.661,4.661,0,0,0-2.53.7,5.092,5.092,0,0,0-1.782,1.914,5.649,5.649,0,0,0-.66,2.75,5.684,5.684,0,0,0,.66,2.728A5.049,5.049,0,0,0-2.486-5.1,4.661,4.661,0,0,0,.044-4.4Z" transform="translate(215.377 422.106)" fill="#e5914b"/>
        </g>
      </g>
    </g>
    <g id="iconfinder_21_5027815" transform="translate(135.496 10931.568)">
      <path id="Trazado_584" data-name="Trazado 584" d="M1.13,4.593a2.481,2.481,0,0,0,2.425,2.5h.03A2.952,2.952,0,0,0,6.538,4.135c0-.084-.005-.165-.012-.245H1.13Z" fill="#f2c6dd"/>
      <g id="Grupo_535" data-name="Grupo 535" transform="translate(1.174 4.637)">
        <path id="Trazado_585" data-name="Trazado 585" d="M2.849,12.77H2.13V8.84H8.788v.72" transform="translate(-1.997 -8.707)" fill="#ff9d9c"/>
        <circle id="Elipse_105" data-name="Elipse 105" cx="1.619" cy="1.619" r="1.619" transform="translate(5.079 3.392)" fill="#e9f4bc"/>
        <path id="Trazado_586" data-name="Trazado 586" d="M12.015,15.42a1.608,1.608,0,0,1,.895.27V12.88H6.17v4.147H10.4A1.619,1.619,0,0,1,12.015,15.42Z" transform="translate(-5.318 -12.028)" fill="#f2c6dd"/>
        <path id="Trazado_587" data-name="Trazado 587" d="M14.983,18.388a1.688,1.688,0,0,1,.253.021V16.972a.481.481,0,0,1-.482-.482H10.26a.481.481,0,0,1-.48.482v1.9a.481.481,0,0,1,.48.482H13.5A1.617,1.617,0,0,1,14.983,18.388Z" transform="translate(-8.286 -14.996)" fill="#fff"/>
        <g id="Grupo_534" data-name="Grupo 534" transform="translate(0)">
          <path id="Trazado_588" data-name="Trazado 588" d="M36.769,30.93a.222.222,0,0,1,.222.222.133.133,0,1,0,.267,0,.489.489,0,0,0-.356-.468v-.071a.133.133,0,1,0-.267,0v.071a.488.488,0,0,0,.133.957.222.222,0,1,1-.222.222.133.133,0,1,0-.267,0,.489.489,0,0,0,.356.468V32.4a.133.133,0,0,0,.267,0v-.071a.488.488,0,0,0-.133-.957.222.222,0,0,1,0-.445Z" transform="translate(-30.072 -26.497)" fill="#505050"/>
          <path id="Trazado_589" data-name="Trazado 589" d="M22.8,19.417a.234.234,0,0,1,.233.233.133.133,0,0,0,.267,0,.5.5,0,0,0-.366-.48v-.076a.133.133,0,1,0-.267,0v.076a.5.5,0,0,0,.133.98.233.233,0,1,1-.233.233.133.133,0,0,0-.267,0,.5.5,0,0,0,.366.48v.076a.133.133,0,1,0,.267,0v-.076a.5.5,0,0,0-.133-.98.233.233,0,1,1,0-.466Z" transform="translate(-18.579 -17.026)" fill="#505050"/>
          <path id="Trazado_590" data-name="Trazado 590" d="M9.106,11.685V8.942a.133.133,0,0,0-.039-.094.136.136,0,0,0-.094-.039H8.305V8.223a.134.134,0,0,0-.133-.133H1.513a.134.134,0,0,0-.133.133v3.93a.134.134,0,0,0,.133.133H2.1v.8a.133.133,0,0,0,.039.094.136.136,0,0,0,.094.039h4.1a1.751,1.751,0,1,0,2.775-1.537Zm-6.74-2.61H3.776a.133.133,0,1,0,0-.267H2.232a.134.134,0,0,0-.133.133V12.02H1.647V8.357H8.038v.452H4.488a.133.133,0,1,0,0,.267H8.839v2.45a1.708,1.708,0,0,0-.375-.132V10.066a.134.134,0,0,0-.133-.133.349.349,0,0,1-.349-.349.134.134,0,0,0-.133-.133H3.355a.134.134,0,0,0-.133.133.349.349,0,0,1-.347.349.134.134,0,0,0-.133.133v1.9a.134.134,0,0,0,.133.133.348.348,0,0,1,.347.349.134.134,0,0,0,.133.133H6.4a1.75,1.75,0,0,0-.071.375H2.365Zm4.148,3.238H3.474a.617.617,0,0,0-.466-.468V10.184a.617.617,0,0,0,.466-.468H7.729a.617.617,0,0,0,.468.468v1.17c-.039,0-.078-.005-.119-.005A1.752,1.752,0,0,0,6.514,12.313Zm1.564,2.273A1.485,1.485,0,1,1,9.563,13.1,1.488,1.488,0,0,1,8.077,14.586Z" transform="translate(-1.38 -8.09)" fill="#505050"/>
          <circle id="Elipse_106" data-name="Elipse 106" cx="0.133" cy="0.133" r="0.133" transform="translate(2.618 0.719)" fill="#505050"/>
        </g>
      </g>
    </g>
    <g id="iconfinder_21_5027815-2" data-name="iconfinder_21_5027815" transform="translate(135.496 10942.568)">
      <path id="Trazado_584-2" data-name="Trazado 584" d="M1.13,4.593a2.481,2.481,0,0,0,2.425,2.5h.03A2.952,2.952,0,0,0,6.538,4.135c0-.084-.005-.165-.012-.245H1.13Z" fill="#f2c6dd"/>
      <g id="Grupo_535-2" data-name="Grupo 535" transform="translate(1.174 4.637)">
        <path id="Trazado_585-2" data-name="Trazado 585" d="M2.849,12.77H2.13V8.84H8.788v.72" transform="translate(-1.997 -8.707)" fill="#ff9d9c"/>
        <circle id="Elipse_105-2" data-name="Elipse 105" cx="1.619" cy="1.619" r="1.619" transform="translate(5.079 3.392)" fill="#e9f4bc"/>
        <path id="Trazado_586-2" data-name="Trazado 586" d="M12.015,15.42a1.608,1.608,0,0,1,.895.27V12.88H6.17v4.147H10.4A1.619,1.619,0,0,1,12.015,15.42Z" transform="translate(-5.318 -12.028)" fill="#f2c6dd"/>
        <path id="Trazado_587-2" data-name="Trazado 587" d="M14.983,18.388a1.688,1.688,0,0,1,.253.021V16.972a.481.481,0,0,1-.482-.482H10.26a.481.481,0,0,1-.48.482v1.9a.481.481,0,0,1,.48.482H13.5A1.617,1.617,0,0,1,14.983,18.388Z" transform="translate(-8.286 -14.996)" fill="#fff"/>
        <g id="Grupo_534-2" data-name="Grupo 534" transform="translate(0)">
          <path id="Trazado_588-2" data-name="Trazado 588" d="M36.769,30.93a.222.222,0,0,1,.222.222.133.133,0,1,0,.267,0,.489.489,0,0,0-.356-.468v-.071a.133.133,0,1,0-.267,0v.071a.488.488,0,0,0,.133.957.222.222,0,1,1-.222.222.133.133,0,1,0-.267,0,.489.489,0,0,0,.356.468V32.4a.133.133,0,0,0,.267,0v-.071a.488.488,0,0,0-.133-.957.222.222,0,0,1,0-.445Z" transform="translate(-30.072 -26.497)" fill="#505050"/>
          <path id="Trazado_589-2" data-name="Trazado 589" d="M22.8,19.417a.234.234,0,0,1,.233.233.133.133,0,0,0,.267,0,.5.5,0,0,0-.366-.48v-.076a.133.133,0,1,0-.267,0v.076a.5.5,0,0,0,.133.98.233.233,0,1,1-.233.233.133.133,0,0,0-.267,0,.5.5,0,0,0,.366.48v.076a.133.133,0,1,0,.267,0v-.076a.5.5,0,0,0-.133-.98.233.233,0,1,1,0-.466Z" transform="translate(-18.579 -17.026)" fill="#505050"/>
          <path id="Trazado_590-2" data-name="Trazado 590" d="M9.106,11.685V8.942a.133.133,0,0,0-.039-.094.136.136,0,0,0-.094-.039H8.305V8.223a.134.134,0,0,0-.133-.133H1.513a.134.134,0,0,0-.133.133v3.93a.134.134,0,0,0,.133.133H2.1v.8a.133.133,0,0,0,.039.094.136.136,0,0,0,.094.039h4.1a1.751,1.751,0,1,0,2.775-1.537Zm-6.74-2.61H3.776a.133.133,0,1,0,0-.267H2.232a.134.134,0,0,0-.133.133V12.02H1.647V8.357H8.038v.452H4.488a.133.133,0,1,0,0,.267H8.839v2.45a1.708,1.708,0,0,0-.375-.132V10.066a.134.134,0,0,0-.133-.133.349.349,0,0,1-.349-.349.134.134,0,0,0-.133-.133H3.355a.134.134,0,0,0-.133.133.349.349,0,0,1-.347.349.134.134,0,0,0-.133.133v1.9a.134.134,0,0,0,.133.133.348.348,0,0,1,.347.349.134.134,0,0,0,.133.133H6.4a1.75,1.75,0,0,0-.071.375H2.365Zm4.148,3.238H3.474a.617.617,0,0,0-.466-.468V10.184a.617.617,0,0,0,.466-.468H7.729a.617.617,0,0,0,.468.468v1.17c-.039,0-.078-.005-.119-.005A1.752,1.752,0,0,0,6.514,12.313Zm1.564,2.273A1.485,1.485,0,1,1,9.563,13.1,1.488,1.488,0,0,1,8.077,14.586Z" transform="translate(-1.38 -8.09)" fill="#505050"/>
          <circle id="Elipse_106-2" data-name="Elipse 106" cx="0.133" cy="0.133" r="0.133" transform="translate(2.618 0.719)" fill="#505050"/>
        </g>
      </g>
    </g>
    <g id="iconfinder_21_5027815-3" data-name="iconfinder_21_5027815" transform="translate(83.496 10955.568)">
      <path id="Trazado_584-3" data-name="Trazado 584" d="M1.13,4.593a2.481,2.481,0,0,0,2.425,2.5h.03A2.952,2.952,0,0,0,6.538,4.135c0-.084-.005-.165-.012-.245H1.13Z" fill="#f2c6dd"/>
      <g id="Grupo_535-3" data-name="Grupo 535" transform="translate(1.174 4.637)">
        <path id="Trazado_585-3" data-name="Trazado 585" d="M2.849,12.77H2.13V8.84H8.788v.72" transform="translate(-1.997 -8.707)" fill="#ff9d9c"/>
        <circle id="Elipse_105-3" data-name="Elipse 105" cx="1.619" cy="1.619" r="1.619" transform="translate(5.079 3.392)" fill="#e9f4bc"/>
        <path id="Trazado_586-3" data-name="Trazado 586" d="M12.015,15.42a1.608,1.608,0,0,1,.895.27V12.88H6.17v4.147H10.4A1.619,1.619,0,0,1,12.015,15.42Z" transform="translate(-5.318 -12.028)" fill="#f2c6dd"/>
        <path id="Trazado_587-3" data-name="Trazado 587" d="M14.983,18.388a1.688,1.688,0,0,1,.253.021V16.972a.481.481,0,0,1-.482-.482H10.26a.481.481,0,0,1-.48.482v1.9a.481.481,0,0,1,.48.482H13.5A1.617,1.617,0,0,1,14.983,18.388Z" transform="translate(-8.286 -14.996)" fill="#fff"/>
        <g id="Grupo_534-3" data-name="Grupo 534" transform="translate(0)">
          <path id="Trazado_588-3" data-name="Trazado 588" d="M36.769,30.93a.222.222,0,0,1,.222.222.133.133,0,1,0,.267,0,.489.489,0,0,0-.356-.468v-.071a.133.133,0,1,0-.267,0v.071a.488.488,0,0,0,.133.957.222.222,0,1,1-.222.222.133.133,0,1,0-.267,0,.489.489,0,0,0,.356.468V32.4a.133.133,0,0,0,.267,0v-.071a.488.488,0,0,0-.133-.957.222.222,0,0,1,0-.445Z" transform="translate(-30.072 -26.497)" fill="#505050"/>
          <path id="Trazado_589-3" data-name="Trazado 589" d="M22.8,19.417a.234.234,0,0,1,.233.233.133.133,0,0,0,.267,0,.5.5,0,0,0-.366-.48v-.076a.133.133,0,1,0-.267,0v.076a.5.5,0,0,0,.133.98.233.233,0,1,1-.233.233.133.133,0,0,0-.267,0,.5.5,0,0,0,.366.48v.076a.133.133,0,1,0,.267,0v-.076a.5.5,0,0,0-.133-.98.233.233,0,1,1,0-.466Z" transform="translate(-18.579 -17.026)" fill="#505050"/>
          <path id="Trazado_590-3" data-name="Trazado 590" d="M9.106,11.685V8.942a.133.133,0,0,0-.039-.094.136.136,0,0,0-.094-.039H8.305V8.223a.134.134,0,0,0-.133-.133H1.513a.134.134,0,0,0-.133.133v3.93a.134.134,0,0,0,.133.133H2.1v.8a.133.133,0,0,0,.039.094.136.136,0,0,0,.094.039h4.1a1.751,1.751,0,1,0,2.775-1.537Zm-6.74-2.61H3.776a.133.133,0,1,0,0-.267H2.232a.134.134,0,0,0-.133.133V12.02H1.647V8.357H8.038v.452H4.488a.133.133,0,1,0,0,.267H8.839v2.45a1.708,1.708,0,0,0-.375-.132V10.066a.134.134,0,0,0-.133-.133.349.349,0,0,1-.349-.349.134.134,0,0,0-.133-.133H3.355a.134.134,0,0,0-.133.133.349.349,0,0,1-.347.349.134.134,0,0,0-.133.133v1.9a.134.134,0,0,0,.133.133.348.348,0,0,1,.347.349.134.134,0,0,0,.133.133H6.4a1.75,1.75,0,0,0-.071.375H2.365Zm4.148,3.238H3.474a.617.617,0,0,0-.466-.468V10.184a.617.617,0,0,0,.466-.468H7.729a.617.617,0,0,0,.468.468v1.17c-.039,0-.078-.005-.119-.005A1.752,1.752,0,0,0,6.514,12.313Zm1.564,2.273A1.485,1.485,0,1,1,9.563,13.1,1.488,1.488,0,0,1,8.077,14.586Z" transform="translate(-1.38 -8.09)" fill="#505050"/>
          <circle id="Elipse_106-3" data-name="Elipse 106" cx="0.133" cy="0.133" r="0.133" transform="translate(2.618 0.719)" fill="#505050"/>
        </g>
      </g>
    </g>
    <g id="iconfinder_21_5027815-4" data-name="iconfinder_21_5027815" transform="translate(83.496 10967.568)">
      <path id="Trazado_584-4" data-name="Trazado 584" d="M1.13,4.593a2.481,2.481,0,0,0,2.425,2.5h.03A2.952,2.952,0,0,0,6.538,4.135c0-.084-.005-.165-.012-.245H1.13Z" fill="#f2c6dd"/>
      <g id="Grupo_535-4" data-name="Grupo 535" transform="translate(1.174 4.637)">
        <path id="Trazado_585-4" data-name="Trazado 585" d="M2.849,12.77H2.13V8.84H8.788v.72" transform="translate(-1.997 -8.707)" fill="#ff9d9c"/>
        <circle id="Elipse_105-4" data-name="Elipse 105" cx="1.619" cy="1.619" r="1.619" transform="translate(5.079 3.392)" fill="#e9f4bc"/>
        <path id="Trazado_586-4" data-name="Trazado 586" d="M12.015,15.42a1.608,1.608,0,0,1,.895.27V12.88H6.17v4.147H10.4A1.619,1.619,0,0,1,12.015,15.42Z" transform="translate(-5.318 -12.028)" fill="#f2c6dd"/>
        <path id="Trazado_587-4" data-name="Trazado 587" d="M14.983,18.388a1.688,1.688,0,0,1,.253.021V16.972a.481.481,0,0,1-.482-.482H10.26a.481.481,0,0,1-.48.482v1.9a.481.481,0,0,1,.48.482H13.5A1.617,1.617,0,0,1,14.983,18.388Z" transform="translate(-8.286 -14.996)" fill="#fff"/>
        <g id="Grupo_534-4" data-name="Grupo 534" transform="translate(0)">
          <path id="Trazado_588-4" data-name="Trazado 588" d="M36.769,30.93a.222.222,0,0,1,.222.222.133.133,0,1,0,.267,0,.489.489,0,0,0-.356-.468v-.071a.133.133,0,1,0-.267,0v.071a.488.488,0,0,0,.133.957.222.222,0,1,1-.222.222.133.133,0,1,0-.267,0,.489.489,0,0,0,.356.468V32.4a.133.133,0,0,0,.267,0v-.071a.488.488,0,0,0-.133-.957.222.222,0,0,1,0-.445Z" transform="translate(-30.072 -26.497)" fill="#505050"/>
          <path id="Trazado_589-4" data-name="Trazado 589" d="M22.8,19.417a.234.234,0,0,1,.233.233.133.133,0,0,0,.267,0,.5.5,0,0,0-.366-.48v-.076a.133.133,0,1,0-.267,0v.076a.5.5,0,0,0,.133.98.233.233,0,1,1-.233.233.133.133,0,0,0-.267,0,.5.5,0,0,0,.366.48v.076a.133.133,0,1,0,.267,0v-.076a.5.5,0,0,0-.133-.98.233.233,0,1,1,0-.466Z" transform="translate(-18.579 -17.026)" fill="#505050"/>
          <path id="Trazado_590-4" data-name="Trazado 590" d="M9.106,11.685V8.942a.133.133,0,0,0-.039-.094.136.136,0,0,0-.094-.039H8.305V8.223a.134.134,0,0,0-.133-.133H1.513a.134.134,0,0,0-.133.133v3.93a.134.134,0,0,0,.133.133H2.1v.8a.133.133,0,0,0,.039.094.136.136,0,0,0,.094.039h4.1a1.751,1.751,0,1,0,2.775-1.537Zm-6.74-2.61H3.776a.133.133,0,1,0,0-.267H2.232a.134.134,0,0,0-.133.133V12.02H1.647V8.357H8.038v.452H4.488a.133.133,0,1,0,0,.267H8.839v2.45a1.708,1.708,0,0,0-.375-.132V10.066a.134.134,0,0,0-.133-.133.349.349,0,0,1-.349-.349.134.134,0,0,0-.133-.133H3.355a.134.134,0,0,0-.133.133.349.349,0,0,1-.347.349.134.134,0,0,0-.133.133v1.9a.134.134,0,0,0,.133.133.348.348,0,0,1,.347.349.134.134,0,0,0,.133.133H6.4a1.75,1.75,0,0,0-.071.375H2.365Zm4.148,3.238H3.474a.617.617,0,0,0-.466-.468V10.184a.617.617,0,0,0,.466-.468H7.729a.617.617,0,0,0,.468.468v1.17c-.039,0-.078-.005-.119-.005A1.752,1.752,0,0,0,6.514,12.313Zm1.564,2.273A1.485,1.485,0,1,1,9.563,13.1,1.488,1.488,0,0,1,8.077,14.586Z" transform="translate(-1.38 -8.09)" fill="#505050"/>
          <circle id="Elipse_106-4" data-name="Elipse 106" cx="0.133" cy="0.133" r="0.133" transform="translate(2.618 0.719)" fill="#505050"/>
        </g>
      </g>
    </g>
    <path id="Trazado_621" data-name="Trazado 621" d="M94.274,10915.784l3.447,3.486-3.447-6.579,5.932,6.579-5.932-10.2,9.251,10.941-7.643-12.186,10.309,11.445-7.938-12.049,7.938,8.563-4.334-7.959,3.63,3.059" fill="none" stroke="#000" stroke-width="0.5"/>
    <path id="Trazado_622" data-name="Trazado 622" d="M94.274,10915.784l3.447,3.486-3.447-6.579,5.932,6.579-5.932-10.2,9.251,10.941-7.643-12.186,10.309,11.445-7.938-12.049,7.938,8.563-4.334-7.959,3.63,3.059" transform="translate(28)" fill="none" stroke="#000" stroke-width="0.5"/>
    <path id="Trazado_623" data-name="Trazado 623" d="M94.274,10915.784l3.447,3.486-3.447-6.579,5.932,6.579-5.932-10.2,9.251,10.941-7.643-12.186,10.309,11.445-7.938-12.049,7.938,8.563-4.334-7.959,3.63,3.059" transform="translate(28 12.789)" fill="none" stroke="#000" stroke-width="0.5"/>
    <path id="Trazado_624" data-name="Trazado 624" d="M94.274,10915.784l3.447,3.486-3.447-6.579,5.932,6.579-5.932-10.2,9.251,10.941-7.643-12.186,10.309,11.445-7.938-12.049,7.938,8.563-4.334-7.959,3.63,3.059" transform="translate(28 24.789)" fill="none" stroke="#000" stroke-width="0.5"/>
    <path id="Trazado_625" data-name="Trazado 625" d="M94.274,10915.784l3.447,3.486-3.447-6.579,5.932,6.579-5.932-10.2,9.251,10.941-7.643-12.186,10.309,11.445-7.938-12.049,7.938,8.563-4.334-7.959,3.63,3.059" transform="translate(40.64 24.789)" fill="none" stroke="#000" stroke-width="0.5"/>
    <path id="Trazado_626" data-name="Trazado 626" d="M94.274,10915.784l3.447,3.486-3.447-6.579,5.932,6.579-5.932-10.2,9.251,10.941-7.643-12.186,10.309,11.445-7.938-12.049,7.938,8.563-4.334-7.959,3.63,3.059" transform="translate(40.64 24.789)" fill="none" stroke="#000" stroke-width="0.5"/>
    <path id="Trazado_627" data-name="Trazado 627" d="M94.274,10915.784l3.447,3.486-3.447-6.579,5.932,6.579-5.932-10.2,9.251,10.941-7.643-12.186,10.309,11.445-7.938-12.049,7.938,8.563-4.334-7.959,3.63,3.059" transform="translate(0.64 24.789)" fill="none" stroke="#000" stroke-width="0.5"/>
    <path id="Trazado_628" data-name="Trazado 628" d="M94.274,10915.784l3.447,3.486-3.447-6.579,5.932,6.579-5.932-10.2,9.251,10.941-7.643-12.186,10.309,11.445-7.938-12.049,7.938,8.563-4.334-7.959,3.63,3.059" transform="translate(0.64 12)" fill="none" stroke="#000" stroke-width="0.5"/>
  </g>
</svg>
