<svg xmlns="http://www.w3.org/2000/svg" width="175" height="209.419" viewBox="0 0 175 209.419">
  <g id="M_2_3_T" transform="translate(-89 -233)">
    <g id="Grupo_109" data-name="Grupo 109" transform="translate(88.648 233)">
      <g id="Rectángulo_4" data-name="Rectángulo 4" transform="translate(0.352)" fill="#fff" stroke="#c08cb8" stroke-width="1">
        <rect width="175" height="175" rx="19" stroke="none"/>
        <rect x="0.5" y="0.5" width="174" height="174" rx="18.5" fill="none"/>
      </g>
    </g>
    <g id="Grupo_542" data-name="Grupo 542" transform="translate(-3.081)">
      <g id="Grupo_540" data-name="Grupo 540">
        <rect id="Rectángulo_137" data-name="Rectángulo 137" width="49.087" height="49.087" transform="translate(143.79 373) rotate(45)" fill="#8b5b98"/>
        <path id="Trazado_685" data-name="Trazado 685" d="M-.044-31.372a9.2,9.2,0,0,1,4.29.99A9.815,9.815,0,0,1,7.5-27.676a12.988,12.988,0,0,1,2.068,3.85A13.77,13.77,0,0,1,10.3-19.36a23.928,23.928,0,0,1-.33,3.608A24.362,24.362,0,0,1,8.8-11.308,20.141,20.141,0,0,1,6.468-6.776a17.017,17.017,0,0,1-3.806,3.96A16.456,16.456,0,0,1-2.992-.132,4.172,4.172,0,0,1-4,0,3.188,3.188,0,0,1-5.83-.55a2.14,2.14,0,0,1-.814-1.914A2.463,2.463,0,0,1-6.006-4.18,3.576,3.576,0,0,1-4.312-5.192,14.229,14.229,0,0,0-.374-7.128a13.722,13.722,0,0,0,3.322-3.256A10.969,10.969,0,0,0,4.84-14.74l1.188.044a19.124,19.124,0,0,1-1.474,1.584,8.466,8.466,0,0,1-2.2,1.518,6.967,6.967,0,0,1-3.1.638,7.985,7.985,0,0,1-3.41-.792,10.816,10.816,0,0,1-3.08-2.178A10.775,10.775,0,0,1-9.46-17.182a9.646,9.646,0,0,1-.836-3.982,9.854,9.854,0,0,1,1.386-5.17,10.379,10.379,0,0,1,3.718-3.674A10.01,10.01,0,0,1-.044-31.372Zm0,4.84a4.694,4.694,0,0,0-2.508.7,5.034,5.034,0,0,0-1.8,1.914,5.649,5.649,0,0,0-.66,2.75,5.684,5.684,0,0,0,.66,2.728,4.992,4.992,0,0,0,1.8,1.936,4.694,4.694,0,0,0,2.508.7,4.661,4.661,0,0,0,2.53-.7,5.049,5.049,0,0,0,1.782-1.936,5.684,5.684,0,0,0,.66-2.728,5.649,5.649,0,0,0-.66-2.75,5.092,5.092,0,0,0-1.782-1.914A4.661,4.661,0,0,0-.044-26.532Z" transform="translate(143.377 423.372)" fill="#f7ebf3"/>
      </g>
      <g id="Grupo_541" data-name="Grupo 541">
        <rect id="Rectángulo_138" data-name="Rectángulo 138" width="49.087" height="49.087" transform="translate(215.79 373) rotate(45)" fill="#d4c7e2"/>
        <path id="Trazado_686" data-name="Trazado 686" d="M-2.4.44A13.19,13.19,0,0,1-5.874-.066,8.152,8.152,0,0,1-8.91-1.54a3.325,3.325,0,0,1-.9-1.254,3.74,3.74,0,0,1-.33-1.474A2.006,2.006,0,0,1-9.5-5.676a2.423,2.423,0,0,1,1.826-.66A3.733,3.733,0,0,1-5.7-5.5a10.828,10.828,0,0,0,1.54.792,4.382,4.382,0,0,0,1.716.352,7.113,7.113,0,0,0,3.41-.836A6.869,6.869,0,0,0,3.476-7.436a5.34,5.34,0,0,0,.946-3.036,5.144,5.144,0,0,0-.77-2.86A5.333,5.333,0,0,0,1.628-15.18a5.723,5.723,0,0,0-2.706-.66,5.922,5.922,0,0,0-2.376.44q-1.012.44-1.848.9a3.43,3.43,0,0,1-1.672.462,3.13,3.13,0,0,1-2.156-.638,2.734,2.734,0,0,1-.88-1.518,4.972,4.972,0,0,1-.088-1.584l1.364-10.912a2.511,2.511,0,0,1,.9-1.518A2.658,2.658,0,0,1-6.094-30.8H6.622a2.388,2.388,0,0,1,1.76.7,2.388,2.388,0,0,1,.7,1.76,2.263,2.263,0,0,1-.7,1.694,2.429,2.429,0,0,1-1.76.682H-4.73l.484-.4L-5.434-17.2l-.572-1.672a2.5,2.5,0,0,1,1.144-.836,12.09,12.09,0,0,1,2.024-.682A9.231,9.231,0,0,1-.594-20.68a10.393,10.393,0,0,1,5.28,1.342A9.865,9.865,0,0,1,8.36-15.686,10.187,10.187,0,0,1,9.7-10.472,9.587,9.587,0,0,1,8.734-6.2,11.116,11.116,0,0,1,6.072-2.728,12.634,12.634,0,0,1,2.2-.4,12.72,12.72,0,0,1-2.4.44Z" transform="translate(216.223 422.8)" fill="#884b7b"/>
      </g>
    </g>
    <g id="Grupo_603" data-name="Grupo 603" transform="translate(16 13)">
      <g id="Unión_26" data-name="Unión 26" transform="translate(-1127.5 10212)" fill="#fff">
        <path d="M 1336.999389648438 -9872.5 L 1326.99951171875 -9872.5 L 1326.99951171875 -9879.5009765625 L 1326.99951171875 -9880.0009765625 L 1326.49951171875 -9880.0009765625 L 1307.500732421875 -9880.0009765625 L 1307.000732421875 -9880.0009765625 L 1307.000732421875 -9879.5009765625 L 1307.000732421875 -9872.5 L 1297.000854492188 -9872.5 L 1297.000854492188 -9879.5009765625 L 1297.000854492188 -9880.0009765625 L 1296.500854492188 -9880.0009765625 L 1277.49951171875 -9880.0009765625 L 1276.99951171875 -9880.0009765625 L 1276.99951171875 -9879.5009765625 L 1276.99951171875 -9872.5 L 1266.999633789062 -9872.5 L 1266.999633789062 -9879.5009765625 L 1266.999633789062 -9880.0009765625 L 1266.499633789062 -9880.0009765625 L 1266.0712890625 -9880.0009765625 L 1248.4091796875 -9880.0009765625 L 1248.4091796875 -9891 L 1266.499633789062 -9891 L 1266.999633789062 -9891 L 1266.999633789062 -9891.5 L 1266.999633789062 -9922.5 L 1276.99951171875 -9922.5 L 1276.99951171875 -9891.5 L 1276.99951171875 -9891 L 1277.49951171875 -9891 L 1296.500854492188 -9891 L 1297.000854492188 -9891 L 1297.000854492188 -9891.5 L 1297.000854492188 -9922.5 L 1307.000732421875 -9922.5 L 1307.000732421875 -9891.5 L 1307.000732421875 -9891 L 1307.500732421875 -9891 L 1326.49951171875 -9891 L 1326.99951171875 -9891 L 1326.99951171875 -9891.5 L 1326.99951171875 -9922.5 L 1336.999389648438 -9922.5 L 1336.999389648438 -9891.5 L 1336.999389648438 -9891 L 1337.499389648438 -9891 L 1355.637084960938 -9891 L 1355.637084960938 -9880.0009765625 L 1337.499389648438 -9880.0009765625 L 1336.999389648438 -9880.0009765625 L 1336.999389648438 -9879.5009765625 L 1336.999389648438 -9872.5 Z" stroke="none"/>
        <path d="M 1336.499389648438 -9873 L 1336.499389648438 -9879.5009765625 L 1336.499389648438 -9880.5009765625 L 1337.499389648438 -9880.5009765625 L 1355.137084960938 -9880.5009765625 L 1355.137084960938 -9890.5 L 1337.499389648438 -9890.5 L 1336.499389648438 -9890.5 L 1336.499389648438 -9891.5 L 1336.499389648438 -9922 L 1327.49951171875 -9922 L 1327.49951171875 -9891.5 L 1327.49951171875 -9890.5 L 1326.49951171875 -9890.5 L 1307.500732421875 -9890.5 L 1306.500732421875 -9890.5 L 1306.500732421875 -9891.5 L 1306.500732421875 -9922 L 1297.500854492188 -9922 L 1297.500854492188 -9891.5 L 1297.500854492188 -9890.5 L 1296.500854492188 -9890.5 L 1277.49951171875 -9890.5 L 1276.49951171875 -9890.5 L 1276.49951171875 -9891.5 L 1276.49951171875 -9922 L 1267.499633789062 -9922 L 1267.499633789062 -9891.5 L 1267.499633789062 -9890.5 L 1266.499633789062 -9890.5 L 1248.9091796875 -9890.5 L 1248.9091796875 -9880.5009765625 L 1266.0712890625 -9880.5009765625 L 1266.499633789062 -9880.5009765625 L 1267.499633789062 -9880.5009765625 L 1267.499633789062 -9879.5009765625 L 1267.499633789062 -9873 L 1276.49951171875 -9873 L 1276.49951171875 -9879.5009765625 L 1276.49951171875 -9880.5009765625 L 1277.49951171875 -9880.5009765625 L 1296.500854492188 -9880.5009765625 L 1297.500854492188 -9880.5009765625 L 1297.500854492188 -9879.5009765625 L 1297.500854492188 -9873 L 1306.500732421875 -9873 L 1306.500732421875 -9879.5009765625 L 1306.500732421875 -9880.5009765625 L 1307.500732421875 -9880.5009765625 L 1326.49951171875 -9880.5009765625 L 1327.49951171875 -9880.5009765625 L 1327.49951171875 -9879.5009765625 L 1327.49951171875 -9873 L 1336.499389648438 -9873 M 1337.499389648438 -9872 L 1326.49951171875 -9872 L 1326.49951171875 -9879.5009765625 C 1320.505737304688 -9879.5009765625 1314.029296875 -9879.5009765625 1307.500732421875 -9879.5009765625 L 1307.500732421875 -9872 L 1296.500854492188 -9872 L 1296.500854492188 -9879.5009765625 C 1289.808227539062 -9879.5009765625 1283.311889648438 -9879.5009765625 1277.49951171875 -9879.5009765625 L 1277.49951171875 -9872 L 1266.499633789062 -9872 L 1266.499633789062 -9879.5009765625 C 1266.355712890625 -9879.5009765625 1266.21337890625 -9879.5009765625 1266.0712890625 -9879.5009765625 C 1255.113159179688 -9879.5009765625 1250.05224609375 -9879.5009765625 1247.9091796875 -9879.5009765625 L 1247.9091796875 -9891.5 L 1266.499633789062 -9891.5 L 1266.499633789062 -9923 L 1277.49951171875 -9923 L 1277.49951171875 -9891.5 L 1296.500854492188 -9891.5 L 1296.500854492188 -9923 L 1307.500732421875 -9923 L 1307.500732421875 -9891.5 L 1326.49951171875 -9891.5 L 1326.49951171875 -9923 L 1337.499389648438 -9923 L 1337.499389648438 -9891.5 L 1356.137084960938 -9891.5 L 1356.137084960938 -9879.5009765625 C 1356.137084960938 -9879.5009765625 1348.543701171875 -9879.5009765625 1337.499389648438 -9879.5009765625 L 1337.499389648438 -9872 Z M 1247.9091796875 -9879.5009765625 C 1246.859741210938 -9879.5009765625 1246.510009765625 -9879.5009765625 1246.510009765625 -9879.5009765625 L 1247.9091796875 -9879.5009765625 Z" stroke="none" fill="#000"/>
      </g>
      <line id="Línea_43" data-name="Línea 43" y1="44" transform="translate(144.5 292.5)" fill="none" stroke="#000" stroke-width="1" stroke-dasharray="3"/>
      <line id="Línea_44" data-name="Línea 44" y1="44" transform="translate(174.5 292.5)" fill="none" stroke="#000" stroke-width="1" stroke-dasharray="3"/>
      <path id="Trazado_670" data-name="Trazado 670" d="M0,44V0" transform="translate(204.5 292.5)" fill="none" stroke="#000" stroke-width="1" stroke-dasharray="3"/>
      <path id="Trazado_671" data-name="Trazado 671" d="M0,0H109.627V9H0Z" transform="translate(119.01 322)" fill="#fff"/>
      <rect id="Rectángulo_200" data-name="Rectángulo 200" width="7" height="17" transform="translate(115 318)" fill="#fff"/>
      <rect id="Rectángulo_201" data-name="Rectángulo 201" width="7" height="17" transform="translate(227 320)" fill="#fff"/>
      <line id="Línea_47" data-name="Línea 47" x2="105" transform="translate(122.5 326.5)" fill="none" stroke="#000" stroke-width="1" stroke-dasharray="3"/>
      <g id="Polígono_21" data-name="Polígono 21" transform="translate(122 299)" fill="#fff">
        <path d="M 14.13429927825928 12.5 L 0.8657020330429077 12.5 L 7.500000476837158 1.00054931640625 L 14.13429927825928 12.5 Z" stroke="none"/>
        <path d="M 7.500000476837158 2.001115798950195 L 1.731413841247559 12 L 13.26858711242676 12 L 7.500000476837158 2.001115798950195 M 7.500000476837158 0 L 15 13 L 9.5367431640625e-07 13 L 7.500000476837158 0 Z" stroke="none" fill="#000"/>
      </g>
      <g id="Polígono_23" data-name="Polígono 23" transform="translate(152 299)" fill="#fff">
        <path d="M 14.13429927825928 12.5 L 0.8657020330429077 12.5 L 7.500000476837158 1.00054931640625 L 14.13429927825928 12.5 Z" stroke="none"/>
        <path d="M 7.500000476837158 2.001115798950195 L 1.731413841247559 12 L 13.26858711242676 12 L 7.500000476837158 2.001115798950195 M 7.500000476837158 0 L 15 13 L 9.5367431640625e-07 13 L 7.500000476837158 0 Z" stroke="none" fill="#000"/>
      </g>
      <g id="Polígono_24" data-name="Polígono 24" transform="translate(182 299)" fill="#fff">
        <path d="M 14.13429927825928 12.5 L 0.8657020330429077 12.5 L 7.500000476837158 1.00054931640625 L 14.13429927825928 12.5 Z" stroke="none"/>
        <path d="M 7.500000476837158 2.001115798950195 L 1.731413841247559 12 L 13.26858711242676 12 L 7.500000476837158 2.001115798950195 M 7.500000476837158 0 L 15 13 L 9.5367431640625e-07 13 L 7.500000476837158 0 Z" stroke="none" fill="#000"/>
      </g>
      <g id="Polígono_25" data-name="Polígono 25" transform="translate(212 299)" fill="#fff">
        <path d="M 14.13429927825928 12.5 L 0.8657020330429077 12.5 L 7.500000476837158 1.00054931640625 L 14.13429927825928 12.5 Z" stroke="none"/>
        <path d="M 7.500000476837158 2.001115798950195 L 1.731413841247559 12 L 13.26858711242676 12 L 7.500000476837158 2.001115798950195 M 7.500000476837158 0 L 15 13 L 9.5367431640625e-07 13 L 7.500000476837158 0 Z" stroke="none" fill="#000"/>
      </g>
    </g>
    <g id="Grupo_609" data-name="Grupo 609" transform="translate(-6)">
      <path id="Trazado_667" data-name="Trazado 667" d="M-40.689-6.555a1.1,1.1,0,0,1-.8-.313,1.009,1.009,0,0,1-.323-.751.95.95,0,0,1,.323-.732,1.14,1.14,0,0,1,.8-.295h7.619a1.132,1.132,0,0,1,.808.295.963.963,0,0,1,.313.732,1.024,1.024,0,0,1-.313.751,1.093,1.093,0,0,1-.808.313Zm0,3.686a1.1,1.1,0,0,1-.8-.314,1.009,1.009,0,0,1-.323-.75.95.95,0,0,1,.323-.731,1.14,1.14,0,0,1,.8-.295h7.619a1.132,1.132,0,0,1,.808.295.963.963,0,0,1,.313.731,1.024,1.024,0,0,1-.313.75,1.093,1.093,0,0,1-.808.314ZM-21.442,0a1.2,1.2,0,0,1-.874-.333,1.106,1.106,0,0,1-.342-.827v-9.576l.266.418-1.444.874a1.162,1.162,0,0,1-.608.171,1.037,1.037,0,0,1-.817-.37,1.183,1.183,0,0,1-.323-.789,1.082,1.082,0,0,1,.589-.988l2.869-1.71a1.736,1.736,0,0,1,.817-.171,1.06,1.06,0,0,1,.807.333,1.158,1.158,0,0,1,.313.826V-1.159a1.091,1.091,0,0,1-.351.827A1.26,1.26,0,0,1-21.442,0Zm6.8-.152a2.232,2.232,0,0,1-.18.769,4.5,4.5,0,0,1-.494.922,3.281,3.281,0,0,1-.712.76,1.36,1.36,0,0,1-.836.3,1.17,1.17,0,0,1-.646-.171.646.646,0,0,1-.266-.589q0-.437.275-.532t.465-.171a1.229,1.229,0,0,0,.389-.313A.7.7,0,0,0-16.5.38a.47.47,0,0,0-.2-.37.8.8,0,0,0-.523-.162,1.468,1.468,0,0,0-.266.029.709.709,0,0,0-.266.1,1.268,1.268,0,0,1-.333-.238.64.64,0,0,1-.142-.465,1.088,1.088,0,0,1,.285-.741,2.039,2.039,0,0,1,.713-.513,1.993,1.993,0,0,1,.807-.19,1.705,1.705,0,0,1,1.3.513A2.108,2.108,0,0,1-14.64-.152Zm8.36-2.527a1.354,1.354,0,0,1,.371.057,1.569,1.569,0,0,1,.446.228,3.549,3.549,0,0,0,.769.437,2.627,2.627,0,0,0,1.036.19,2.229,2.229,0,0,0,1.112-.294A2.423,2.423,0,0,0-1.682-2.9,2.387,2.387,0,0,0-1.34-4.2a2.235,2.235,0,0,0-.294-1.2,1.94,1.94,0,0,0-.779-.722,2.248,2.248,0,0,0-1.036-.247,2.659,2.659,0,0,0-.693.076q-.276.076-.532.162a1.9,1.9,0,0,1-.6.085.806.806,0,0,1-.674-.3,1.138,1.138,0,0,1-.238-.722,1.048,1.048,0,0,1,.1-.475A2.363,2.363,0,0,1-5.767-8l3.344-3.648.513.437H-6.584a1.031,1.031,0,0,1-.76-.3,1.031,1.031,0,0,1-.3-.76.977.977,0,0,1,.3-.731,1.049,1.049,0,0,1,.76-.295H-.77a1.137,1.137,0,0,1,.884.323,1.166,1.166,0,0,1,.294.817.984.984,0,0,1-.123.475,1.9,1.9,0,0,1-.332.437l-3.363,3.7-.513-.646a2.82,2.82,0,0,1,.579-.171,3.179,3.179,0,0,1,.618-.076,3.306,3.306,0,0,1,1.947.579,3.854,3.854,0,0,1,1.273,1.5A4.493,4.493,0,0,1,.94-4.37,4.573,4.573,0,0,1,.313-1.938,4.116,4.116,0,0,1-1.454-.361,6.047,6.047,0,0,1-4.114.19,5.7,5.7,0,0,1-5.5.019,4.57,4.57,0,0,1-6.679-.437a1.3,1.3,0,0,1-.561-.5,1.141,1.141,0,0,1-.142-.522,1.3,1.3,0,0,1,.313-.827A.972.972,0,0,1-6.28-2.679ZM5.823-.152a2.232,2.232,0,0,1-.18.769,4.5,4.5,0,0,1-.494.922,3.281,3.281,0,0,1-.713.76,1.36,1.36,0,0,1-.836.3,1.17,1.17,0,0,1-.646-.171.646.646,0,0,1-.266-.589q0-.437.276-.532t.466-.171A1.229,1.229,0,0,0,3.819.826.7.7,0,0,0,3.961.38a.47.47,0,0,0-.2-.37.8.8,0,0,0-.522-.162,1.468,1.468,0,0,0-.266.029.709.709,0,0,0-.266.1,1.268,1.268,0,0,1-.332-.238.64.64,0,0,1-.142-.465,1.088,1.088,0,0,1,.285-.741,2.039,2.039,0,0,1,.713-.513,1.993,1.993,0,0,1,.807-.19,1.705,1.705,0,0,1,1.3.513A2.108,2.108,0,0,1,5.823-.152ZM16.71.19a5.7,5.7,0,0,1-1.5-.218A3.52,3.52,0,0,1,13.9-.665a1.436,1.436,0,0,1-.389-.542,1.615,1.615,0,0,1-.142-.637.866.866,0,0,1,.275-.608,1.046,1.046,0,0,1,.788-.285,1.612,1.612,0,0,1,.855.361,4.676,4.676,0,0,0,.665.342,1.892,1.892,0,0,0,.741.152,3.071,3.071,0,0,0,1.473-.361,2.966,2.966,0,0,0,1.083-.969,2.306,2.306,0,0,0,.409-1.311,2.221,2.221,0,0,0-.333-1.235,2.3,2.3,0,0,0-.874-.8A2.471,2.471,0,0,0,17.28-6.84a2.557,2.557,0,0,0-1.026.19q-.437.19-.8.39a1.481,1.481,0,0,1-.722.2,1.351,1.351,0,0,1-.931-.276,1.181,1.181,0,0,1-.38-.655,2.147,2.147,0,0,1-.038-.684l.589-4.712a1.084,1.084,0,0,1,.389-.655,1.148,1.148,0,0,1,.75-.257h5.491a1.031,1.031,0,0,1,.76.3,1.031,1.031,0,0,1,.3.76.977.977,0,0,1-.3.732,1.049,1.049,0,0,1-.76.295H15.7l.209-.171L15.4-7.429l-.247-.722a1.079,1.079,0,0,1,.494-.361,5.221,5.221,0,0,1,.874-.294,3.986,3.986,0,0,1,.969-.124,4.488,4.488,0,0,1,2.28.58,4.26,4.26,0,0,1,1.587,1.577,4.4,4.4,0,0,1,.579,2.251,4.14,4.14,0,0,1-.418,1.843,4.8,4.8,0,0,1-1.149,1.5A5.456,5.456,0,0,1,18.7-.171,5.493,5.493,0,0,1,16.71.19Zm14.1-.209a1.144,1.144,0,0,1-.846-.294,1.144,1.144,0,0,1-.295-.846v-.323a1.144,1.144,0,0,1,.295-.846,1.144,1.144,0,0,1,.846-.294h.247a1.144,1.144,0,0,1,.845.294,1.144,1.144,0,0,1,.295.846v.323a1.144,1.144,0,0,1-.295.846,1.144,1.144,0,0,1-.845.294Zm4.731,0a1.144,1.144,0,0,1-.846-.294,1.144,1.144,0,0,1-.294-.846v-.323a1.144,1.144,0,0,1,.294-.846,1.144,1.144,0,0,1,.846-.294h.247a1.144,1.144,0,0,1,.846.294,1.144,1.144,0,0,1,.295.846v.323a1.144,1.144,0,0,1-.295.846,1.144,1.144,0,0,1-.846.294Zm4.731,0a1.144,1.144,0,0,1-.846-.294,1.144,1.144,0,0,1-.294-.846v-.323a1.144,1.144,0,0,1,.294-.846,1.144,1.144,0,0,1,.846-.294h.247a1.144,1.144,0,0,1,.846.294,1.144,1.144,0,0,1,.295.846v.323a1.144,1.144,0,0,1-.295.846,1.144,1.144,0,0,1-.846.294Z" transform="translate(191 373)"/>
      <g id="Polígono_29" data-name="Polígono 29" transform="translate(130 361)" fill="#fff">
        <path d="M 14.13429927825928 12.5 L 0.8657020330429077 12.5 L 7.500000476837158 1.00054931640625 L 14.13429927825928 12.5 Z" stroke="none"/>
        <path d="M 7.500000476837158 2.001115798950195 L 1.731413841247559 12 L 13.26858711242676 12 L 7.500000476837158 2.001115798950195 M 7.500000476837158 0 L 15 13 L 9.5367431640625e-07 13 L 7.500000476837158 0 Z" stroke="none" fill="#000"/>
      </g>
    </g>
    <g id="Grupo_611" data-name="Grupo 611" transform="translate(16 -45)">
      <g id="Unión_26-2" data-name="Unión 26" transform="translate(-1127.5 10212)" fill="#fff">
        <path d="M 1336.999389648438 -9872.5 L 1326.99951171875 -9872.5 L 1326.99951171875 -9879.5009765625 L 1326.99951171875 -9880.0009765625 L 1326.49951171875 -9880.0009765625 L 1307.500732421875 -9880.0009765625 L 1307.000732421875 -9880.0009765625 L 1307.000732421875 -9879.5009765625 L 1307.000732421875 -9872.5 L 1297.000854492188 -9872.5 L 1297.000854492188 -9879.5009765625 L 1297.000854492188 -9880.0009765625 L 1296.500854492188 -9880.0009765625 L 1277.49951171875 -9880.0009765625 L 1276.99951171875 -9880.0009765625 L 1276.99951171875 -9879.5009765625 L 1276.99951171875 -9872.5 L 1266.999633789062 -9872.5 L 1266.999633789062 -9879.5009765625 L 1266.999633789062 -9880.0009765625 L 1266.499633789062 -9880.0009765625 L 1266.0712890625 -9880.0009765625 L 1248.4091796875 -9880.0009765625 L 1248.4091796875 -9891 L 1266.499633789062 -9891 L 1266.999633789062 -9891 L 1266.999633789062 -9891.5 L 1266.999633789062 -9922.5 L 1276.99951171875 -9922.5 L 1276.99951171875 -9891.5 L 1276.99951171875 -9891 L 1277.49951171875 -9891 L 1296.500854492188 -9891 L 1297.000854492188 -9891 L 1297.000854492188 -9891.5 L 1297.000854492188 -9922.5 L 1307.000732421875 -9922.5 L 1307.000732421875 -9891.5 L 1307.000732421875 -9891 L 1307.500732421875 -9891 L 1326.49951171875 -9891 L 1326.99951171875 -9891 L 1326.99951171875 -9891.5 L 1326.99951171875 -9922.5 L 1336.999389648438 -9922.5 L 1336.999389648438 -9891.5 L 1336.999389648438 -9891 L 1337.499389648438 -9891 L 1355.637084960938 -9891 L 1355.637084960938 -9880.0009765625 L 1337.499389648438 -9880.0009765625 L 1336.999389648438 -9880.0009765625 L 1336.999389648438 -9879.5009765625 L 1336.999389648438 -9872.5 Z" stroke="none"/>
        <path d="M 1336.499389648438 -9873 L 1336.499389648438 -9879.5009765625 L 1336.499389648438 -9880.5009765625 L 1337.499389648438 -9880.5009765625 L 1355.137084960938 -9880.5009765625 L 1355.137084960938 -9890.5 L 1337.499389648438 -9890.5 L 1336.499389648438 -9890.5 L 1336.499389648438 -9891.5 L 1336.499389648438 -9922 L 1327.49951171875 -9922 L 1327.49951171875 -9891.5 L 1327.49951171875 -9890.5 L 1326.49951171875 -9890.5 L 1307.500732421875 -9890.5 L 1306.500732421875 -9890.5 L 1306.500732421875 -9891.5 L 1306.500732421875 -9922 L 1297.500854492188 -9922 L 1297.500854492188 -9891.5 L 1297.500854492188 -9890.5 L 1296.500854492188 -9890.5 L 1277.49951171875 -9890.5 L 1276.49951171875 -9890.5 L 1276.49951171875 -9891.5 L 1276.49951171875 -9922 L 1267.499633789062 -9922 L 1267.499633789062 -9891.5 L 1267.499633789062 -9890.5 L 1266.499633789062 -9890.5 L 1248.9091796875 -9890.5 L 1248.9091796875 -9880.5009765625 L 1266.0712890625 -9880.5009765625 L 1266.499633789062 -9880.5009765625 L 1267.499633789062 -9880.5009765625 L 1267.499633789062 -9879.5009765625 L 1267.499633789062 -9873 L 1276.49951171875 -9873 L 1276.49951171875 -9879.5009765625 L 1276.49951171875 -9880.5009765625 L 1277.49951171875 -9880.5009765625 L 1296.500854492188 -9880.5009765625 L 1297.500854492188 -9880.5009765625 L 1297.500854492188 -9879.5009765625 L 1297.500854492188 -9873 L 1306.500732421875 -9873 L 1306.500732421875 -9879.5009765625 L 1306.500732421875 -9880.5009765625 L 1307.500732421875 -9880.5009765625 L 1326.49951171875 -9880.5009765625 L 1327.49951171875 -9880.5009765625 L 1327.49951171875 -9879.5009765625 L 1327.49951171875 -9873 L 1336.499389648438 -9873 M 1337.499389648438 -9872 L 1326.49951171875 -9872 L 1326.49951171875 -9879.5009765625 C 1320.505737304688 -9879.5009765625 1314.029296875 -9879.5009765625 1307.500732421875 -9879.5009765625 L 1307.500732421875 -9872 L 1296.500854492188 -9872 L 1296.500854492188 -9879.5009765625 C 1289.808227539062 -9879.5009765625 1283.311889648438 -9879.5009765625 1277.49951171875 -9879.5009765625 L 1277.49951171875 -9872 L 1266.499633789062 -9872 L 1266.499633789062 -9879.5009765625 C 1266.355712890625 -9879.5009765625 1266.21337890625 -9879.5009765625 1266.0712890625 -9879.5009765625 C 1255.113159179688 -9879.5009765625 1250.05224609375 -9879.5009765625 1247.9091796875 -9879.5009765625 L 1247.9091796875 -9891.5 L 1266.499633789062 -9891.5 L 1266.499633789062 -9923 L 1277.49951171875 -9923 L 1277.49951171875 -9891.5 L 1296.500854492188 -9891.5 L 1296.500854492188 -9923 L 1307.500732421875 -9923 L 1307.500732421875 -9891.5 L 1326.49951171875 -9891.5 L 1326.49951171875 -9923 L 1337.499389648438 -9923 L 1337.499389648438 -9891.5 L 1356.137084960938 -9891.5 L 1356.137084960938 -9879.5009765625 C 1356.137084960938 -9879.5009765625 1348.543701171875 -9879.5009765625 1337.499389648438 -9879.5009765625 L 1337.499389648438 -9872 Z M 1247.9091796875 -9879.5009765625 C 1246.859741210938 -9879.5009765625 1246.510009765625 -9879.5009765625 1246.510009765625 -9879.5009765625 L 1247.9091796875 -9879.5009765625 Z" stroke="none" fill="#000"/>
      </g>
      <line id="Línea_43-2" data-name="Línea 43" y1="44" transform="translate(144.5 292.5)" fill="none" stroke="#000" stroke-width="1" stroke-dasharray="3"/>
      <line id="Línea_44-2" data-name="Línea 44" y1="44" transform="translate(174.5 292.5)" fill="none" stroke="#000" stroke-width="1" stroke-dasharray="3"/>
      <path id="Trazado_670-2" data-name="Trazado 670" d="M0,44V0" transform="translate(204.5 292.5)" fill="none" stroke="#000" stroke-width="1" stroke-dasharray="3"/>
      <path id="Trazado_671-2" data-name="Trazado 671" d="M0,0H109.627V9H0Z" transform="translate(119.01 322)" fill="#fff"/>
      <rect id="Rectángulo_200-2" data-name="Rectángulo 200" width="7" height="17" transform="translate(115 318)" fill="#fff"/>
      <rect id="Rectángulo_201-2" data-name="Rectángulo 201" width="7" height="17" transform="translate(227 320)" fill="#fff"/>
      <line id="Línea_47-2" data-name="Línea 47" x2="105" transform="translate(122.5 326.5)" fill="none" stroke="#000" stroke-width="1" stroke-dasharray="3"/>
      <g id="Polígono_21-2" data-name="Polígono 21" transform="translate(122 299)" fill="#fff">
        <path d="M 14.13429927825928 12.5 L 0.8657020330429077 12.5 L 7.500000476837158 1.00054931640625 L 14.13429927825928 12.5 Z" stroke="none"/>
        <path d="M 7.500000476837158 2.001115798950195 L 1.731413841247559 12 L 13.26858711242676 12 L 7.500000476837158 2.001115798950195 M 7.500000476837158 0 L 15 13 L 9.5367431640625e-07 13 L 7.500000476837158 0 Z" stroke="none" fill="#000"/>
      </g>
      <g id="Polígono_23-2" data-name="Polígono 23" transform="translate(152 299)" fill="#fff">
        <path d="M 14.13429927825928 12.5 L 0.8657020330429077 12.5 L 7.500000476837158 1.00054931640625 L 14.13429927825928 12.5 Z" stroke="none"/>
        <path d="M 7.500000476837158 2.001115798950195 L 1.731413841247559 12 L 13.26858711242676 12 L 7.500000476837158 2.001115798950195 M 7.500000476837158 0 L 15 13 L 9.5367431640625e-07 13 L 7.500000476837158 0 Z" stroke="none" fill="#000"/>
      </g>
      <g id="Polígono_24-2" data-name="Polígono 24" transform="translate(182 299)" fill="#fff">
        <path d="M 14.13429927825928 12.5 L 0.8657020330429077 12.5 L 7.500000476837158 1.00054931640625 L 14.13429927825928 12.5 Z" stroke="none"/>
        <path d="M 7.500000476837158 2.001115798950195 L 1.731413841247559 12 L 13.26858711242676 12 L 7.500000476837158 2.001115798950195 M 7.500000476837158 0 L 15 13 L 9.5367431640625e-07 13 L 7.500000476837158 0 Z" stroke="none" fill="#000"/>
      </g>
      <g id="Polígono_25-2" data-name="Polígono 25" transform="translate(212 299)" fill="#fff">
        <path d="M 14.13429927825928 12.5 L 0.8657020330429077 12.5 L 7.500000476837158 1.00054931640625 L 14.13429927825928 12.5 Z" stroke="none"/>
        <path d="M 7.500000476837158 2.001115798950195 L 1.731413841247559 12 L 13.26858711242676 12 L 7.500000476837158 2.001115798950195 M 7.500000476837158 0 L 15 13 L 9.5367431640625e-07 13 L 7.500000476837158 0 Z" stroke="none" fill="#000"/>
      </g>
    </g>
    <g id="Grupo_612" data-name="Grupo 612" transform="translate(-42.704 16.698)">
      <g id="Grupo_606" data-name="Grupo 606" transform="translate(144 268.994)">
        <path id="iconfinder_icon-arrow-left-c_211618" d="M81.794,119.179,80.148,120.9a.531.531,0,0,0,0,.735l1.646,1.73a.485.485,0,0,0,.709,0,.543.543,0,0,0,0-.742l-.789-.827,18.437,0a.526.526,0,0,0,0-1.05l-18.437,0,.791-.827a.543.543,0,0,0,0-.742A.487.487,0,0,0,81.794,119.179Z" transform="translate(-80 -119.025)"/>
        <path id="iconfinder_icon-arrow-left-c_211618-2" data-name="iconfinder_icon-arrow-left-c_211618" d="M1.794.154.148,1.877A.5.5,0,0,0,0,2.245a.5.5,0,0,0,.148.368l1.646,1.73a.485.485,0,0,0,.709,0,.543.543,0,0,0,0-.742l-.789-.827H5.275a.514.514,0,0,0,.5-.525.514.514,0,0,0-.5-.525H1.714L2.5.9a.543.543,0,0,0,0-.742A.487.487,0,0,0,1.794.154Z" transform="translate(24.889 4.497) rotate(180)"/>
      </g>
      <g id="Grupo_607" data-name="Grupo 607" transform="translate(145.55 242.709)">
        <g id="Grupo_605" data-name="Grupo 605" transform="translate(9.25)">
          <g id="Grupo_604" data-name="Grupo 604" transform="translate(0 0)">
            <g id="Grupo_531" data-name="Grupo 531" transform="translate(0 0)">
              <path id="iconfinder_Untitled-1-18_2419684" d="M31.564,21.687V8.758l-.725-.725V6.3h-9.69V8.033l-.725.725V21.687H19.7v.725H32.288v-.725Z" transform="translate(-19.7 3.873)" fill="#356dd0"/>
              <path id="Sustracción_3" data-name="Sustracción 3" d="M0,0H9.686V10.727H0Z" transform="translate(1.442 0)" fill="#356dd0"/>
            </g>
          </g>
          <rect id="Rectángulo_202" data-name="Rectángulo 202" width="8.691" height="8.691" transform="translate(1.889 1.218)" fill="#fff"/>
        </g>
      </g>
      <g id="Polígono_27" data-name="Polígono 27" transform="translate(157.43 244.925)" fill="#fff">
        <path d="M 6.8822021484375 6.214855670928955 L 0.8657035231590271 6.214855670928955 L 3.873952865600586 1.000546216964722 L 6.8822021484375 6.214855670928955 Z" stroke="none"/>
        <path d="M 3.873952865600586 2.001114368438721 L 1.731414318084717 5.714855194091797 L 6.016491413116455 5.714855194091797 L 3.873952865600586 2.001114368438721 M 3.873952865600586 -4.76837158203125e-06 L 7.747902870178223 6.714855670928955 L 2.86102294921875e-06 6.714855670928955 L 3.873952865600586 -4.76837158203125e-06 Z" stroke="none" fill="#000"/>
      </g>
    </g>
    <g id="Grupo_613" data-name="Grupo 613" transform="translate(-42.704 73.698)">
      <g id="Grupo_606-2" data-name="Grupo 606" transform="translate(144 268.994)">
        <path id="iconfinder_icon-arrow-left-c_211618-3" data-name="iconfinder_icon-arrow-left-c_211618" d="M81.794,119.179,80.148,120.9a.531.531,0,0,0,0,.735l1.646,1.73a.485.485,0,0,0,.709,0,.543.543,0,0,0,0-.742l-.789-.827,18.437,0a.526.526,0,0,0,0-1.05l-18.437,0,.791-.827a.543.543,0,0,0,0-.742A.487.487,0,0,0,81.794,119.179Z" transform="translate(-80 -119.025)"/>
        <path id="iconfinder_icon-arrow-left-c_211618-4" data-name="iconfinder_icon-arrow-left-c_211618" d="M1.794.154.148,1.877A.5.5,0,0,0,0,2.245a.5.5,0,0,0,.148.368l1.646,1.73a.485.485,0,0,0,.709,0,.543.543,0,0,0,0-.742l-.789-.827H5.275a.514.514,0,0,0,.5-.525.514.514,0,0,0-.5-.525H1.714L2.5.9a.543.543,0,0,0,0-.742A.487.487,0,0,0,1.794.154Z" transform="translate(24.889 4.497) rotate(180)"/>
      </g>
      <g id="Grupo_607-2" data-name="Grupo 607" transform="translate(145.55 242.709)">
        <g id="Grupo_605-2" data-name="Grupo 605" transform="translate(9.25)">
          <g id="Grupo_604-2" data-name="Grupo 604" transform="translate(0 0)">
            <g id="Grupo_531-2" data-name="Grupo 531" transform="translate(0 0)">
              <path id="iconfinder_Untitled-1-18_2419684-2" data-name="iconfinder_Untitled-1-18_2419684" d="M31.564,21.687V8.758l-.725-.725V6.3h-9.69V8.033l-.725.725V21.687H19.7v.725H32.288v-.725Z" transform="translate(-19.7 3.873)" fill="#356dd0"/>
              <path id="Sustracción_3-2" data-name="Sustracción 3" d="M0,0H9.686V10.727H0Z" transform="translate(1.442 0)" fill="#356dd0"/>
            </g>
          </g>
          <rect id="Rectángulo_202-2" data-name="Rectángulo 202" width="8.691" height="8.691" transform="translate(1.889 1.218)" fill="#fff"/>
        </g>
        <path id="Trazado_673" data-name="Trazado 673" d="M1.725,0a.843.843,0,0,1-.63-.262A.9.9,0,0,1,.84-.915v-7.05l.315.075L-1.74-4.3l-.075-.2H3.27a.814.814,0,0,1,.6.24.814.814,0,0,1,.24.6.772.772,0,0,1-.24.578.828.828,0,0,1-.6.233H-3.06a.918.918,0,0,1-.608-.255.8.8,0,0,1-.293-.63.915.915,0,0,1,.225-.6l4.74-5.805A.854.854,0,0,1,1.32-10.4a.959.959,0,0,1,.435-.1.837.837,0,0,1,.637.262.914.914,0,0,1,.248.653v8.67a.886.886,0,0,1-.262.653A.886.886,0,0,1,1.725,0Z" transform="translate(1.154 20.593)" fill="#c08cb8"/>
      </g>
      <g id="Polígono_27-2" data-name="Polígono 27" transform="translate(157.43 244.925)" fill="#fff">
        <path d="M 6.8822021484375 6.214855670928955 L 0.8657035231590271 6.214855670928955 L 3.873952865600586 1.000546455383301 L 6.8822021484375 6.214855670928955 Z" stroke="none"/>
        <path d="M 3.873952865600586 2.001114845275879 L 1.731414318084717 5.714855670928955 L 6.016491413116455 5.714855670928955 L 3.873952865600586 2.001114845275879 M 3.873952865600586 -4.291534423828125e-06 L 7.747902870178223 6.714855670928955 L 2.86102294921875e-06 6.714855670928955 L 3.873952865600586 -4.291534423828125e-06 Z" stroke="none" fill="#000"/>
      </g>
    </g>
  </g>
</svg>
