<svg xmlns="http://www.w3.org/2000/svg" width="175" height="209.856" viewBox="0 0 175 209.856">
  <g id="M_2_4_T" transform="translate(-89 -233)">
    <g id="Grupo_109" data-name="Grupo 109" transform="translate(88.648 233)">
      <g id="Rectángulo_4" data-name="Rectángulo 4" transform="translate(0.352)" fill="#fff" stroke="#c08cb8" stroke-width="1">
        <rect width="175" height="175" rx="19" stroke="none"/>
        <rect x="0.5" y="0.5" width="174" height="174" rx="18.5" fill="none"/>
      </g>
    </g>
    <g id="Grupo_542" data-name="Grupo 542" transform="translate(-3.081)">
      <g id="Grupo_540" data-name="Grupo 540">
        <rect id="Rectángulo_137" data-name="Rectángulo 137" width="49.087" height="49.087" transform="translate(143.79 373.438) rotate(45)" fill="#8b5b98"/>
        <path id="Trazado_688" data-name="Trazado 688" d="M-6.2,0A2.783,2.783,0,0,1-8.228-.77,2.561,2.561,0,0,1-9.02-2.684V-24.86l.616.968-3.344,2.024a2.691,2.691,0,0,1-1.408.4,2.4,2.4,0,0,1-1.892-.858,2.739,2.739,0,0,1-.748-1.826,2.507,2.507,0,0,1,1.364-2.288l6.644-3.96A4.02,4.02,0,0,1-5.9-30.8a2.455,2.455,0,0,1,1.87.77A2.682,2.682,0,0,1-3.3-28.116V-2.684A2.527,2.527,0,0,1-4.114-.77,2.918,2.918,0,0,1-6.2,0ZM9.812,0A2.783,2.783,0,0,1,7.788-.77,2.561,2.561,0,0,1,7-2.684V-24.86l.616.968L4.268-21.868a2.691,2.691,0,0,1-1.408.4A2.4,2.4,0,0,1,.968-22.33,2.739,2.739,0,0,1,.22-24.156a2.507,2.507,0,0,1,1.364-2.288L8.228-30.4a4.02,4.02,0,0,1,1.892-.4,2.455,2.455,0,0,1,1.87.77,2.682,2.682,0,0,1,.726,1.914V-2.684A2.527,2.527,0,0,1,11.9-.77,2.918,2.918,0,0,1,9.812,0Z" transform="translate(144.877 423.237)" fill="#f7ebf3"/>
      </g>
      <g id="Grupo_541" data-name="Grupo 541">
        <rect id="Rectángulo_138" data-name="Rectángulo 138" width="49.087" height="49.087" transform="translate(215.79 373.438) rotate(45)" fill="#d4c7e2"/>
        <path id="Trazado_687" data-name="Trazado 687" d="M.044.44a9.2,9.2,0,0,1-4.29-.99A9.815,9.815,0,0,1-7.5-3.256,12.927,12.927,0,0,1-9.57-7.128a13.833,13.833,0,0,1-.726-4.444,23.928,23.928,0,0,1,.33-3.608A24.362,24.362,0,0,1-8.8-19.624a20.141,20.141,0,0,1,2.332-4.532,17.017,17.017,0,0,1,3.806-3.96A16.456,16.456,0,0,1,2.992-30.8,4.172,4.172,0,0,1,4-30.932,3.283,3.283,0,0,1,5.83-30.4a2.132,2.132,0,0,1,.814,1.936,2.486,2.486,0,0,1-.638,1.694A3.5,3.5,0,0,1,4.312-25.74a13.448,13.448,0,0,0-2.97,1.3,13.764,13.764,0,0,0-2.728,2.09,13.026,13.026,0,0,0-2.156,2.794,11.707,11.707,0,0,0-1.3,3.366l-1.188-.044A18.4,18.4,0,0,1-4.51-17.842a8.785,8.785,0,0,1,2.2-1.5,6.859,6.859,0,0,1,3.058-.638,7.985,7.985,0,0,1,3.41.792,10.816,10.816,0,0,1,3.08,2.178A10.775,10.775,0,0,1,9.46-13.75,9.646,9.646,0,0,1,10.3-9.768,9.888,9.888,0,0,1,8.91-4.62a10.378,10.378,0,0,1-3.7,3.7A9.976,9.976,0,0,1,.044.44Zm0-4.84a4.661,4.661,0,0,0,2.53-.7A5.049,5.049,0,0,0,4.356-7.04a5.684,5.684,0,0,0,.66-2.728,5.649,5.649,0,0,0-.66-2.75,5.092,5.092,0,0,0-1.782-1.914,4.661,4.661,0,0,0-2.53-.7,4.661,4.661,0,0,0-2.53.7,5.092,5.092,0,0,0-1.782,1.914,5.649,5.649,0,0,0-.66,2.75,5.684,5.684,0,0,0,.66,2.728A5.049,5.049,0,0,0-2.486-5.1,4.661,4.661,0,0,0,.044-4.4Z" transform="translate(215.377 423.369)" fill="#884b7b"/>
      </g>
    </g>
    <g id="Grupo_617" data-name="Grupo 617" transform="translate(33 21)">
      <g id="Grupo_603" data-name="Grupo 603" transform="translate(108 290.305)">
        <g id="Unión_26" data-name="Unión 26" transform="translate(2.642)" fill="#fff">
          <path d="M 108.551513671875 37.98876953125 L 101.2500534057617 37.98876953125 L 101.2500534057617 32.82812881469727 L 101.2500534057617 32.32812881469727 L 100.7500534057617 32.32812881469727 L 86.41010284423828 32.32812881469727 L 85.91010284423828 32.32812881469727 L 85.91010284423828 32.82812881469727 L 85.91010284423828 37.98876953125 L 78.60869598388672 37.98876953125 L 78.60869598388672 32.82812881469727 L 78.60869598388672 32.32812881469727 L 78.10869598388672 32.32812881469727 L 63.7706298828125 32.32812881469727 L 63.2706298828125 32.32812881469727 L 63.2706298828125 32.82812881469727 L 63.2706298828125 37.98876953125 L 55.96916961669922 37.98876953125 L 55.96916961669922 32.82812881469727 L 55.96916961669922 32.32812881469727 L 55.46916961669922 32.32812881469727 L 41.12921524047852 32.32812881469727 L 40.62921524047852 32.32812881469727 L 40.62921524047852 32.82812881469727 L 40.62921524047852 37.98876953125 L 33.32781219482422 37.98876953125 L 33.32781219482422 32.82812881469727 L 33.32781219482422 32.32812881469727 L 32.82781219482422 32.32812881469727 L 18.48974227905273 32.32812881469727 L 17.98974227905273 32.32812881469727 L 17.98974227905273 32.82812881469727 L 17.98974227905273 37.98876953125 L 10.68835639953613 37.98876953125 L 10.68835639953613 32.82812881469727 L 10.68835639953613 32.32812881469727 L 10.18835639953613 32.32812881469727 L 0.4999997019767761 32.32812881469727 L 0.4999997019767761 24.27245712280273 L 10.18835639953613 24.27245712280273 L 10.68835639953613 24.27245712280273 L 10.68835639953613 23.77245712280273 L 10.68835639953613 0.4999990463256836 L 17.98974227905273 0.4999990463256836 L 17.98974227905273 23.77245712280273 L 17.98974227905273 24.27245712280273 L 18.48974227905273 24.27245712280273 L 32.82781219482422 24.27245712280273 L 33.32781219482422 24.27245712280273 L 33.32781219482422 23.77245712280273 L 33.32781219482422 0.4999990463256836 L 40.62921524047852 0.4999990463256836 L 40.62921524047852 23.77245712280273 L 40.62921524047852 24.27245712280273 L 41.12921524047852 24.27245712280273 L 55.46916961669922 24.27245712280273 L 55.96916961669922 24.27245712280273 L 55.96916961669922 23.77245712280273 L 55.96916961669922 0.4999990463256836 L 63.2706298828125 0.4999990463256836 L 63.2706298828125 23.77245712280273 L 63.2706298828125 24.27245712280273 L 63.7706298828125 24.27245712280273 L 78.10869598388672 24.27245712280273 L 78.60869598388672 24.27245712280273 L 78.60869598388672 23.77245712280273 L 78.60869598388672 0.4999990463256836 L 85.91010284423828 0.4999990463256836 L 85.91010284423828 23.77245712280273 L 85.91010284423828 24.27245712280273 L 86.41010284423828 24.27245712280273 L 100.7500534057617 24.27245712280273 L 101.2500534057617 24.27245712280273 L 101.2500534057617 23.77245712280273 L 101.2500534057617 0.4999990463256836 L 108.551513671875 0.4999990463256836 L 108.551513671875 37.98876953125 Z" stroke="none"/>
          <path d="M 108.051513671875 37.48876953125 L 108.051513671875 0.9999990463256836 L 101.7500534057617 0.9999990463256836 L 101.7500534057617 23.77245712280273 L 101.7500534057617 24.77245712280273 L 100.7500534057617 24.77245712280273 L 86.41010284423828 24.77245712280273 L 85.41010284423828 24.77245712280273 L 85.41010284423828 23.77245712280273 L 85.41010284423828 0.9999990463256836 L 79.10869598388672 0.9999990463256836 L 79.10869598388672 23.77245712280273 L 79.10869598388672 24.77245712280273 L 78.10869598388672 24.77245712280273 L 63.7706298828125 24.77245712280273 L 62.7706298828125 24.77245712280273 L 62.7706298828125 23.77245712280273 L 62.7706298828125 0.9999990463256836 L 56.46916961669922 0.9999990463256836 L 56.46916961669922 23.77245712280273 L 56.46916961669922 24.77245712280273 L 55.46916961669922 24.77245712280273 L 41.12921524047852 24.77245712280273 L 40.12921524047852 24.77245712280273 L 40.12921524047852 23.77245712280273 L 40.12921524047852 0.9999990463256836 L 33.82781219482422 0.9999990463256836 L 33.82781219482422 23.77245712280273 L 33.82781219482422 24.77245712280273 L 32.82781219482422 24.77245712280273 L 18.48974227905273 24.77245712280273 L 17.48974227905273 24.77245712280273 L 17.48974227905273 23.77245712280273 L 17.48974227905273 0.9999990463256836 L 11.18835639953613 0.9999990463256836 L 11.18835639953613 23.77245712280273 L 11.18835639953613 24.77245712280273 L 10.18835639953613 24.77245712280273 L 0.9999997019767761 24.77245712280273 L 0.9999997019767761 31.82812690734863 L 10.18835639953613 31.82812690734863 L 11.18835639953613 31.82812690734863 L 11.18835639953613 32.82812881469727 L 11.18835639953613 37.48876953125 L 17.48974227905273 37.48876953125 L 17.48974227905273 32.82812881469727 L 17.48974227905273 31.82812690734863 L 18.48974227905273 31.82812690734863 L 32.82781219482422 31.82812690734863 L 33.82781219482422 31.82812690734863 L 33.82781219482422 32.82812881469727 L 33.82781219482422 37.48876953125 L 40.12921524047852 37.48876953125 L 40.12921524047852 32.82812881469727 L 40.12921524047852 31.82812690734863 L 41.12921524047852 31.82812690734863 L 55.46916961669922 31.82812690734863 L 56.46916961669922 31.82812690734863 L 56.46916961669922 32.82812881469727 L 56.46916961669922 37.48876953125 L 62.7706298828125 37.48876953125 L 62.7706298828125 32.82812881469727 L 62.7706298828125 31.82812690734863 L 63.7706298828125 31.82812690734863 L 78.10869598388672 31.82812690734863 L 79.10869598388672 31.82812690734863 L 79.10869598388672 32.82812881469727 L 79.10869598388672 37.48876953125 L 85.41010284423828 37.48876953125 L 85.41010284423828 32.82812881469727 L 85.41010284423828 31.82812690734863 L 86.41010284423828 31.82812690734863 L 100.7500534057617 31.82812690734863 L 101.7500534057617 31.82812690734863 L 101.7500534057617 32.82812881469727 L 101.7500534057617 37.48876953125 L 108.051513671875 37.48876953125 M 109.051513671875 38.48876953125 L 100.7500534057617 38.48876953125 L 100.7500534057617 32.82812881469727 L 86.41010284423828 32.82812881469727 L 86.41010284423828 38.48876953125 L 78.10869598388672 38.48876953125 L 78.10869598388672 32.82812881469727 L 63.7706298828125 32.82812881469727 L 63.7706298828125 38.48876953125 L 55.46916961669922 38.48876953125 L 55.46916961669922 32.82812881469727 L 41.12921524047852 32.82812881469727 L 41.12921524047852 38.48876953125 L 32.82781219482422 38.48876953125 L 32.82781219482422 32.82812881469727 L 18.48974227905273 32.82812881469727 L 18.48974227905273 38.48876953125 L 10.18835639953613 38.48876953125 L 10.18835639953613 32.82812881469727 L -3.06919645254311e-07 32.82812881469727 L -3.06919645254311e-07 23.77245712280273 L 10.18835639953613 23.77245712280273 L 10.18835639953613 -9.486607268627267e-07 L 18.48974227905273 -9.486607268627267e-07 L 18.48974227905273 23.77245712280273 L 32.82781219482422 23.77245712280273 L 32.82781219482422 -9.486607268627267e-07 L 41.12921524047852 -9.486607268627267e-07 L 41.12921524047852 23.77245712280273 L 55.46916961669922 23.77245712280273 L 55.46916961669922 -9.486607268627267e-07 L 63.7706298828125 -9.486607268627267e-07 L 63.7706298828125 23.77245712280273 L 78.10869598388672 23.77245712280273 L 78.10869598388672 -9.486607268627267e-07 L 86.41010284423828 -9.486607268627267e-07 L 86.41010284423828 23.77245712280273 L 100.7500534057617 23.77245712280273 L 100.7500534057617 -9.486607268627267e-07 L 109.051513671875 -9.486607268627267e-07 L 109.051513671875 38.48876953125 Z" stroke="none" fill="#000"/>
        </g>
        <line id="Línea_42" data-name="Línea 42" y1="33.206" transform="translate(16.98 2.641)" fill="none" stroke="#000" stroke-width="1" stroke-dasharray="3"/>
        <line id="Línea_43" data-name="Línea 43" y1="33.206" transform="translate(39.621 2.641)" fill="none" stroke="#000" stroke-width="1" stroke-dasharray="3"/>
        <line id="Línea_44" data-name="Línea 44" y1="33.206" transform="translate(62.261 2.641)" fill="none" stroke="#000" stroke-width="1" stroke-dasharray="3"/>
        <line id="Línea_45" data-name="Línea 45" y1="33.206" transform="translate(84.902 2.641)" fill="none" stroke="#000" stroke-width="1" stroke-dasharray="3"/>
        <line id="Línea_46" data-name="Línea 46" y1="33.206" transform="translate(107.542 2.641)" fill="none" stroke="#000" stroke-width="1" stroke-dasharray="3"/>
        <rect id="Rectángulo_199" data-name="Rectángulo 199" width="109.052" height="6.792" transform="translate(0.755 24.905)" fill="#fff"/>
        <rect id="Rectángulo_200" data-name="Rectángulo 200" width="5.283" height="12.83" transform="translate(0 22.64)" fill="#fff"/>
        <line id="Línea_47" data-name="Línea 47" y1="0.425" x2="104.146" transform="translate(5.66 27.876)" fill="none" stroke="#000" stroke-width="1" stroke-dasharray="3"/>
        <g id="Elipse_139" data-name="Elipse 139" transform="translate(91 8.133)" fill="#fff" stroke="#000" stroke-width="1">
          <circle cx="5" cy="5" r="5" stroke="none"/>
          <circle cx="5" cy="5" r="4.5" fill="none"/>
        </g>
        <g id="Elipse_140" data-name="Elipse 140" transform="translate(69 8.133)" fill="#fff" stroke="#000" stroke-width="1">
          <circle cx="5" cy="5" r="5" stroke="none"/>
          <circle cx="5" cy="5" r="4.5" fill="none"/>
        </g>
        <g id="Elipse_141" data-name="Elipse 141" transform="translate(46 8.133)" fill="#fff" stroke="#000" stroke-width="1">
          <circle cx="5" cy="5" r="5" stroke="none"/>
          <circle cx="5" cy="5" r="4.5" fill="none"/>
        </g>
        <g id="Elipse_142" data-name="Elipse 142" transform="translate(23 8.133)" fill="#fff" stroke="#000" stroke-width="1">
          <circle cx="5" cy="5" r="5" stroke="none"/>
          <circle cx="5" cy="5" r="4.5" fill="none"/>
        </g>
        <g id="Elipse_143" data-name="Elipse 143" transform="translate(1 8.133)" fill="#fff" stroke="#000" stroke-width="1">
          <circle cx="5" cy="5" r="5" stroke="none"/>
          <circle cx="5" cy="5" r="4.5" fill="none"/>
        </g>
      </g>
      <line id="Línea_48" data-name="Línea 48" y1="38.489" transform="translate(220.07 290.258)" fill="none" stroke="#000" stroke-width="3"/>
    </g>
    <g id="Grupo_616" data-name="Grupo 616" transform="translate(143.19 246.175)">
      <line id="Línea_49" data-name="Línea 49" y1="38.489" transform="translate(0)" fill="none" stroke="#000" stroke-width="3"/>
      <g id="Grupo_615" data-name="Grupo 615" transform="translate(0.377 0.047)">
        <g id="Unión_26-2" data-name="Unión 26" transform="translate(109.051 38.489) rotate(180)" fill="#fff">
          <path d="M 108.5514831542969 37.98882675170898 L 101.2500686645508 37.98882675170898 L 101.2500686645508 14.71631145477295 L 101.2500686645508 14.21631145477295 L 100.7500686645508 14.21631145477295 L 86.41007995605469 14.21631145477295 L 85.91007995605469 14.21631145477295 L 85.91007995605469 14.71631145477295 L 85.91007995605469 37.98882675170898 L 78.60865020751953 37.98882675170898 L 78.60865020751953 14.71631145477295 L 78.60865020751953 14.21631145477295 L 78.10865020751953 14.21631145477295 L 63.77061080932617 14.21631145477295 L 63.27061080932617 14.21631145477295 L 63.27061080932617 14.71631145477295 L 63.27061080932617 37.98882675170898 L 55.96918106079102 37.98882675170898 L 55.96918106079102 14.71631145477295 L 55.96918106079102 14.21631145477295 L 55.46918106079102 14.21631145477295 L 41.12919616699219 14.21631145477295 L 40.62919616699219 14.21631145477295 L 40.62919616699219 14.71631145477295 L 40.62919616699219 37.98882675170898 L 33.32778167724609 37.98882675170898 L 33.32778167724609 14.71631145477295 L 33.32778167724609 14.21631145477295 L 32.82778167724609 14.21631145477295 L 18.48972320556641 14.21631145477295 L 17.98972320556641 14.21631145477295 L 17.98972320556641 14.71631145477295 L 17.98972320556641 37.98882675170898 L 10.68830871582031 37.98882675170898 L 10.68830871582031 14.71631145477295 L 10.68830871582031 14.21631145477295 L 10.18830871582031 14.21631145477295 L 0.4999949038028717 14.21631145477295 L 0.4999949038028717 6.160854339599609 L 10.18830871582031 6.160854339599609 L 10.68830871582031 6.160854339599609 L 10.68830871582031 5.660854339599609 L 10.68830871582031 0.4999971687793732 L 17.98972320556641 0.4999971687793732 L 17.98972320556641 5.660854339599609 L 17.98972320556641 6.160854339599609 L 18.48972320556641 6.160854339599609 L 32.82778167724609 6.160854339599609 L 33.32778167724609 6.160854339599609 L 33.32778167724609 5.660854339599609 L 33.32778167724609 0.4999971687793732 L 40.62919616699219 0.4999971687793732 L 40.62919616699219 5.660854339599609 L 40.62919616699219 6.160854339599609 L 41.12919616699219 6.160854339599609 L 55.46918106079102 6.160854339599609 L 55.96918106079102 6.160854339599609 L 55.96918106079102 5.660854339599609 L 55.96918106079102 0.4999971687793732 L 63.27061080932617 0.4999971687793732 L 63.27061080932617 5.660854339599609 L 63.27061080932617 6.160854339599609 L 63.77061080932617 6.160854339599609 L 78.10865020751953 6.160854339599609 L 78.60865020751953 6.160854339599609 L 78.60865020751953 5.660854339599609 L 78.60865020751953 0.4999971687793732 L 85.91007995605469 0.4999971687793732 L 85.91007995605469 5.660854339599609 L 85.91007995605469 6.160854339599609 L 86.41007995605469 6.160854339599609 L 100.7500686645508 6.160854339599609 L 101.2500686645508 6.160854339599609 L 101.2500686645508 5.660854339599609 L 101.2500686645508 0.4999971687793732 L 108.5514831542969 0.4999971687793732 L 108.5514831542969 37.98882675170898 Z" stroke="none"/>
          <path d="M 11.18830871582031 0.9999961853027344 L 11.18830871582031 5.660854339599609 L 11.18830871582031 6.660854339599609 L 10.18830871582031 6.660854339599609 L 0.9999923706054688 6.660854339599609 L 0.9999923706054688 13.71631240844727 L 10.18830871582031 13.71631240844727 L 11.18830871582031 13.71631240844727 L 11.18830871582031 14.71631240844727 L 11.18830871582031 37.48882675170898 L 17.48972320556641 37.48882675170898 L 17.48972320556641 14.71631240844727 L 17.48972320556641 13.71631240844727 L 18.48972320556641 13.71631240844727 L 32.82778167724609 13.71631240844727 L 33.82778167724609 13.71631240844727 L 33.82778167724609 14.71631240844727 L 33.82778167724609 37.48882675170898 L 40.12921142578125 37.48882675170898 L 40.12921142578125 14.71631240844727 L 40.12921142578125 13.71631240844727 L 41.12921142578125 13.71631240844727 L 55.46918106079102 13.71631240844727 L 56.46918106079102 13.71631240844727 L 56.46918106079102 14.71631240844727 L 56.46918106079102 37.48882675170898 L 62.77061080932617 37.48882675170898 L 62.77061080932617 14.71631240844727 L 62.77061080932617 13.71631240844727 L 63.77061080932617 13.71631240844727 L 78.10865020751953 13.71631240844727 L 79.10865020751953 13.71631240844727 L 79.10865020751953 14.71631240844727 L 79.10865020751953 37.48882675170898 L 85.41006469726562 37.48882675170898 L 85.41006469726562 14.71631240844727 L 85.41006469726562 13.71631240844727 L 86.41006469726562 13.71631240844727 L 100.7500686645508 13.71631240844727 L 101.7500686645508 13.71631240844727 L 101.7500686645508 14.71631240844727 L 101.7500686645508 37.48882675170898 L 108.0514831542969 37.48882675170898 L 108.0514831542969 0.9999961853027344 L 101.7500686645508 0.9999961853027344 L 101.7500686645508 5.660854339599609 L 101.7500686645508 6.660854339599609 L 100.7500686645508 6.660854339599609 L 86.41006469726562 6.660854339599609 L 85.41006469726562 6.660854339599609 L 85.41006469726562 5.660854339599609 L 85.41006469726562 0.9999961853027344 L 79.10865020751953 0.9999961853027344 L 79.10865020751953 5.660854339599609 L 79.10865020751953 6.660854339599609 L 78.10865020751953 6.660854339599609 L 63.77061080932617 6.660854339599609 L 62.77061080932617 6.660854339599609 L 62.77061080932617 5.660854339599609 L 62.77061080932617 0.9999961853027344 L 56.46918106079102 0.9999961853027344 L 56.46918106079102 5.660854339599609 L 56.46918106079102 6.660854339599609 L 55.46918106079102 6.660854339599609 L 41.12921142578125 6.660854339599609 L 40.12921142578125 6.660854339599609 L 40.12921142578125 5.660854339599609 L 40.12921142578125 0.9999961853027344 L 33.82778167724609 0.9999961853027344 L 33.82778167724609 5.660854339599609 L 33.82778167724609 6.660854339599609 L 32.82778167724609 6.660854339599609 L 18.48972320556641 6.660854339599609 L 17.48972320556641 6.660854339599609 L 17.48972320556641 5.660854339599609 L 17.48972320556641 0.9999961853027344 L 11.18830871582031 0.9999961853027344 M 10.18830871582031 -3.814697265625e-06 L 18.48972320556641 -3.814697265625e-06 L 18.48972320556641 5.660854339599609 L 32.82778167724609 5.660854339599609 L 32.82778167724609 -3.814697265625e-06 L 41.12921142578125 -3.814697265625e-06 L 41.12921142578125 5.660854339599609 L 55.46918106079102 5.660854339599609 L 55.46918106079102 -3.814697265625e-06 L 63.77061080932617 -3.814697265625e-06 L 63.77061080932617 5.660854339599609 L 78.10865020751953 5.660854339599609 L 78.10865020751953 -3.814697265625e-06 L 86.41006469726562 -3.814697265625e-06 L 86.41006469726562 5.660854339599609 L 100.7500686645508 5.660854339599609 L 100.7500686645508 -3.814697265625e-06 L 109.0514831542969 -3.814697265625e-06 L 109.0514831542969 38.48882675170898 L 100.7500686645508 38.48882675170898 L 100.7500686645508 14.71631240844727 L 86.41006469726562 14.71631240844727 L 86.41006469726562 38.48882675170898 L 78.10865020751953 38.48882675170898 L 78.10865020751953 14.71631240844727 L 63.77061080932617 14.71631240844727 L 63.77061080932617 38.48882675170898 L 55.46918106079102 38.48882675170898 L 55.46918106079102 14.71631240844727 L 41.12921142578125 14.71631240844727 L 41.12921142578125 38.48882675170898 L 32.82778167724609 38.48882675170898 L 32.82778167724609 14.71631240844727 L 18.48972320556641 14.71631240844727 L 18.48972320556641 38.48882675170898 L 10.18830871582031 38.48882675170898 L 10.18830871582031 14.71631240844727 L -7.62939453125e-06 14.71631240844727 L -7.62939453125e-06 5.660854339599609 L 10.18830871582031 5.660854339599609 L 10.18830871582031 -3.814697265625e-06 Z" stroke="none" fill="#000"/>
        </g>
        <line id="Línea_42-2" data-name="Línea 42" y1="33.206" transform="translate(94.713 2.641)" fill="none" stroke="#000" stroke-width="1" stroke-dasharray="3"/>
        <line id="Línea_43-2" data-name="Línea 43" y1="33.206" transform="translate(72.073 2.641)" fill="none" stroke="#000" stroke-width="1" stroke-dasharray="3"/>
        <line id="Línea_44-2" data-name="Línea 44" y1="33.206" transform="translate(49.432 2.641)" fill="none" stroke="#000" stroke-width="1" stroke-dasharray="3"/>
        <line id="Línea_45-2" data-name="Línea 45" y1="33.206" transform="translate(26.792 2.641)" fill="none" stroke="#000" stroke-width="1" stroke-dasharray="3"/>
        <line id="Línea_46-2" data-name="Línea 46" y1="33.206" transform="translate(4.151 2.641)" fill="none" stroke="#000" stroke-width="1" stroke-dasharray="3"/>
        <rect id="Rectángulo_199-2" data-name="Rectángulo 199" width="109.052" height="6.792" transform="translate(1.887 24.905)" fill="#fff"/>
        <rect id="Rectángulo_200-2" data-name="Rectángulo 200" width="5.283" height="12.83" transform="translate(106.411 22.64)" fill="#fff"/>
        <line id="Línea_47-2" data-name="Línea 47" x1="104.146" y1="0.425" transform="translate(1.887 27.876)" fill="none" stroke="#000" stroke-width="1" stroke-dasharray="3"/>
        <g id="Elipse_134" data-name="Elipse 134" transform="translate(10.433 7.216)" fill="#fff" stroke="#000" stroke-width="1">
          <circle cx="5" cy="5" r="5" stroke="none"/>
          <circle cx="5" cy="5" r="4.5" fill="none"/>
        </g>
        <g id="Elipse_135" data-name="Elipse 135" transform="translate(33.433 7.216)" fill="#fff" stroke="#000" stroke-width="1">
          <circle cx="5" cy="5" r="5" stroke="none"/>
          <circle cx="5" cy="5" r="4.5" fill="none"/>
        </g>
        <g id="Elipse_136" data-name="Elipse 136" transform="translate(55.433 7.216)" fill="#fff" stroke="#000" stroke-width="1">
          <circle cx="5" cy="5" r="5" stroke="none"/>
          <circle cx="5" cy="5" r="4.5" fill="none"/>
        </g>
        <g id="Elipse_137" data-name="Elipse 137" transform="translate(78.433 7.216)" fill="#fff" stroke="#000" stroke-width="1">
          <circle cx="5" cy="5" r="5" stroke="none"/>
          <circle cx="5" cy="5" r="4.5" fill="none"/>
        </g>
        <g id="Elipse_138" data-name="Elipse 138" transform="translate(100.433 7.216)" fill="#fff" stroke="#000" stroke-width="1">
          <circle cx="5" cy="5" r="5" stroke="none"/>
          <circle cx="5" cy="5" r="4.5" fill="none"/>
        </g>
      </g>
    </g>
    <line id="Línea_50" data-name="Línea 50" x1="108" y2="17" transform="translate(145.5 287.938)" fill="none" stroke="#000" stroke-width="1"/>
    <g id="Grupo_618" data-name="Grupo 618" transform="translate(-44.704 49.208)">
      <g id="Grupo_606" data-name="Grupo 606" transform="translate(144.322 275.739)">
        <path id="iconfinder_icon-arrow-left-c_211618" d="M82.254,119.218l-2.069,2.166a.668.668,0,0,0,0,.924l2.069,2.174a.61.61,0,0,0,.891,0,.682.682,0,0,0,0-.932l-.992-1.04,23.168,0a.661.661,0,0,0,0-1.32l-23.168,0,.994-1.04a.682.682,0,0,0,0-.932A.612.612,0,0,0,82.254,119.218Z" transform="translate(-80 -119.025)"/>
        <path id="iconfinder_icon-arrow-left-c_211618-2" data-name="iconfinder_icon-arrow-left-c_211618" d="M2.254.193.186,2.359A.628.628,0,0,0,0,2.821a.632.632,0,0,0,.186.462L2.254,5.457a.61.61,0,0,0,.891,0,.682.682,0,0,0,0-.932l-.992-1.04H6.629a.646.646,0,0,0,.631-.66.646.646,0,0,0-.631-.66H2.153l.994-1.04a.682.682,0,0,0,0-.932A.612.612,0,0,0,2.254.193Z" transform="translate(31.276 5.651) rotate(180)"/>
      </g>
      <g id="Grupo_607" data-name="Grupo 607" transform="translate(142.744 242.709)">
        <g id="Grupo_605" data-name="Grupo 605" transform="translate(15.149 0)">
          <g id="Grupo_604" data-name="Grupo 604" transform="translate(0 0)">
            <g id="Grupo_531" data-name="Grupo 531">
              <path id="iconfinder_Untitled-1-18_2419684" d="M34.608,25.636V9.389L33.7,8.478V6.3H21.521V8.478l-.911.911V25.636H19.7v.911H35.519v-.911Z" transform="translate(-19.7 6.483)" fill="#356dd0"/>
              <path id="Sustracción_3" data-name="Sustracción 3" d="M0,0H12.172V13.48H0Z" transform="translate(1.812 0)" fill="#356dd0"/>
            </g>
          </g>
          <rect id="Rectángulo_202" data-name="Rectángulo 202" width="10.921" height="10.921" transform="translate(2.374 1.53)" fill="#fff"/>
        </g>
      </g>
      <g id="Polígono_27" data-name="Polígono 27" transform="translate(161.198 245.494)" fill="#fff">
        <path d="M 8.870477676391602 7.938020706176758 L 0.8657013773918152 7.938020706176758 L 4.86808967590332 1.000549912452698 L 8.870477676391602 7.938020706176758 Z" stroke="none"/>
        <path d="M 4.86808967590332 2.001116275787354 L 1.731412887573242 7.438020706176758 L 8.004766464233398 7.438020706176758 L 4.86808967590332 2.001116275787354 M 4.86808967590332 9.5367431640625e-07 L 9.736179351806641 8.438020706176758 L 0 8.438020706176758 L 4.86808967590332 9.5367431640625e-07 Z" stroke="none" fill="#000"/>
      </g>
      <path id="Trazado_674" data-name="Trazado 674" d="M-1.09.2A6,6,0,0,1-2.67-.03,3.706,3.706,0,0,1-4.05-.7a1.511,1.511,0,0,1-.41-.57,1.7,1.7,0,0,1-.15-.67.912.912,0,0,1,.29-.64,1.1,1.1,0,0,1,.83-.3,1.7,1.7,0,0,1,.9.38,4.922,4.922,0,0,0,.7.36,1.992,1.992,0,0,0,.78.16A3.233,3.233,0,0,0,.44-2.36,3.122,3.122,0,0,0,1.58-3.38a2.427,2.427,0,0,0,.43-1.38,2.338,2.338,0,0,0-.35-1.3A2.424,2.424,0,0,0,.74-6.9,2.6,2.6,0,0,0-.49-7.2,2.692,2.692,0,0,0-1.57-7q-.46.2-.84.41a1.559,1.559,0,0,1-.76.21,1.423,1.423,0,0,1-.98-.29,1.243,1.243,0,0,1-.4-.69,2.26,2.26,0,0,1-.04-.72l.62-4.96a1.141,1.141,0,0,1,.41-.69A1.208,1.208,0,0,1-2.77-14H3.01a1.085,1.085,0,0,1,.8.32,1.085,1.085,0,0,1,.32.8,1.029,1.029,0,0,1-.32.77,1.1,1.1,0,0,1-.8.31H-2.15l.22-.18-.54,4.16-.26-.76a1.136,1.136,0,0,1,.52-.38,5.5,5.5,0,0,1,.92-.31A4.2,4.2,0,0,1-.27-9.4a4.724,4.724,0,0,1,2.4.61A4.484,4.484,0,0,1,3.8-7.13a4.631,4.631,0,0,1,.61,2.37,4.358,4.358,0,0,1-.44,1.94A5.053,5.053,0,0,1,2.76-1.24,5.743,5.743,0,0,1,1-.18,5.782,5.782,0,0,1-1.09.2Z" transform="translate(150.704 269.229)" fill="#c08cb8"/>
    </g>
    <g id="Grupo_619" data-name="Grupo 619" transform="translate(-4)">
      <g id="Elipse_133" data-name="Elipse 133" transform="translate(133 361)" fill="#fff" stroke="#000" stroke-width="1">
        <circle cx="6" cy="6" r="6" stroke="none"/>
        <circle cx="6" cy="6" r="5.5" fill="none"/>
      </g>
      <path id="Trazado_668" data-name="Trazado 668" d="M-43.8-6.555a1.1,1.1,0,0,1-.8-.313,1.009,1.009,0,0,1-.323-.751.95.95,0,0,1,.323-.732,1.14,1.14,0,0,1,.8-.295h7.619a1.132,1.132,0,0,1,.808.295.963.963,0,0,1,.313.732,1.024,1.024,0,0,1-.313.751,1.093,1.093,0,0,1-.808.313Zm0,3.686a1.1,1.1,0,0,1-.8-.314,1.009,1.009,0,0,1-.323-.75.95.95,0,0,1,.323-.731,1.14,1.14,0,0,1,.8-.295h7.619a1.132,1.132,0,0,1,.808.295.963.963,0,0,1,.313.731,1.024,1.024,0,0,1-.313.75,1.093,1.093,0,0,1-.808.314Zm23.56.779a1.031,1.031,0,0,1,.76.3,1.031,1.031,0,0,1,.3.76.977.977,0,0,1-.3.732,1.049,1.049,0,0,1-.76.294H-26.7a1.016,1.016,0,0,1-.779-.3,1.093,1.093,0,0,1-.285-.779,1.179,1.179,0,0,1,.342-.836l4.142-4.427a7.564,7.564,0,0,0,1.1-1.511,3.031,3.031,0,0,0,.418-1.434,2.028,2.028,0,0,0-.285-1.064,2.24,2.24,0,0,0-.741-.76,1.83,1.83,0,0,0-.988-.285,2.052,2.052,0,0,0-1.121.371,3.778,3.778,0,0,0-1.007.979,1.013,1.013,0,0,1-.456.38,1.331,1.331,0,0,1-.418.076,1.133,1.133,0,0,1-.77-.313.954.954,0,0,1-.351-.732,1.062,1.062,0,0,1,.219-.627,5.143,5.143,0,0,1,.542-.627,5.729,5.729,0,0,1,1.672-1.159,4.361,4.361,0,0,1,1.824-.437,4.409,4.409,0,0,1,2.223.532A3.729,3.729,0,0,1-19.969-11.5a4.3,4.3,0,0,1,.513,2.109,4.82,4.82,0,0,1-.295,1.624,7.483,7.483,0,0,1-.808,1.605,11.78,11.78,0,0,1-1.178,1.5L-24.3-1.919l-.209-.171Zm5.757,1.938a2.232,2.232,0,0,1-.18.769,4.5,4.5,0,0,1-.494.922,3.281,3.281,0,0,1-.712.76,1.36,1.36,0,0,1-.836.3,1.17,1.17,0,0,1-.646-.171.646.646,0,0,1-.266-.589q0-.437.275-.532t.465-.171a1.229,1.229,0,0,0,.389-.313A.7.7,0,0,0-16.34.38a.47.47,0,0,0-.2-.37.8.8,0,0,0-.523-.162,1.468,1.468,0,0,0-.266.029.709.709,0,0,0-.266.1,1.268,1.268,0,0,1-.333-.238.64.64,0,0,1-.142-.465,1.088,1.088,0,0,1,.285-.741,2.039,2.039,0,0,1,.712-.513,1.993,1.993,0,0,1,.808-.19,1.705,1.705,0,0,1,1.3.513A2.108,2.108,0,0,1-14.478-.152ZM.855,0a1.068,1.068,0,0,1-.8-.333,1.139,1.139,0,0,1-.323-.827v-8.93l.4.1L-3.534-5.453l-.1-.247H2.812a1.031,1.031,0,0,1,.76.3,1.031,1.031,0,0,1,.3.76.977.977,0,0,1-.3.732,1.049,1.049,0,0,1-.76.295H-5.206a1.162,1.162,0,0,1-.77-.323,1.017,1.017,0,0,1-.37-.8,1.159,1.159,0,0,1,.285-.76l6-7.353a1.082,1.082,0,0,1,.4-.332A1.215,1.215,0,0,1,.893-13.3a1.06,1.06,0,0,1,.807.333,1.158,1.158,0,0,1,.314.826V-1.159a1.122,1.122,0,0,1-.332.827A1.122,1.122,0,0,1,.855,0ZM9.519-.152a2.232,2.232,0,0,1-.18.769,4.5,4.5,0,0,1-.494.922,3.281,3.281,0,0,1-.712.76,1.36,1.36,0,0,1-.836.3,1.17,1.17,0,0,1-.646-.171.646.646,0,0,1-.266-.589q0-.437.276-.532t.465-.171A1.229,1.229,0,0,0,7.514.826.7.7,0,0,0,7.657.38a.47.47,0,0,0-.2-.37.8.8,0,0,0-.522-.162,1.468,1.468,0,0,0-.266.029.709.709,0,0,0-.266.1A1.268,1.268,0,0,1,6.07-.257a.64.64,0,0,1-.142-.465,1.088,1.088,0,0,1,.285-.741,2.039,2.039,0,0,1,.713-.513,1.993,1.993,0,0,1,.807-.19,1.705,1.705,0,0,1,1.3.513A2.108,2.108,0,0,1,9.519-.152ZM21.166.19a3.972,3.972,0,0,1-1.853-.427,4.238,4.238,0,0,1-1.406-1.169,5.582,5.582,0,0,1-.893-1.672A5.974,5.974,0,0,1,16.7-5a10.333,10.333,0,0,1,.142-1.558,10.52,10.52,0,0,1,.5-1.919,8.7,8.7,0,0,1,1.007-1.957A7.348,7.348,0,0,1,20-12.141,7.106,7.106,0,0,1,22.439-13.3a1.8,1.8,0,0,1,.437-.057,1.418,1.418,0,0,1,.788.228.921.921,0,0,1,.352.836,1.074,1.074,0,0,1-.276.731,1.509,1.509,0,0,1-.731.447,5.807,5.807,0,0,0-1.283.561,5.944,5.944,0,0,0-1.178.9,5.625,5.625,0,0,0-.931,1.207,5.055,5.055,0,0,0-.56,1.454l-.513-.019A7.946,7.946,0,0,1,19.2-7.7a3.794,3.794,0,0,1,.95-.646,2.962,2.962,0,0,1,1.32-.275,3.448,3.448,0,0,1,1.472.342,4.67,4.67,0,0,1,1.33.94,4.653,4.653,0,0,1,.959,1.406,4.165,4.165,0,0,1,.361,1.72,4.27,4.27,0,0,1-.6,2.223A4.481,4.481,0,0,1,23.4-.4,4.308,4.308,0,0,1,21.166.19Zm0-2.09a2.013,2.013,0,0,0,1.093-.3,2.18,2.18,0,0,0,.769-.836,2.455,2.455,0,0,0,.285-1.178,2.439,2.439,0,0,0-.285-1.187,2.2,2.2,0,0,0-.769-.827,2.013,2.013,0,0,0-1.093-.3,2.013,2.013,0,0,0-1.093.3,2.2,2.2,0,0,0-.77.827,2.439,2.439,0,0,0-.285,1.188A2.455,2.455,0,0,0,19.3-3.04a2.18,2.18,0,0,0,.77.836A2.013,2.013,0,0,0,21.166-1.9ZM33.915-.019a1.144,1.144,0,0,1-.846-.294,1.144,1.144,0,0,1-.294-.846v-.323a1.144,1.144,0,0,1,.294-.846,1.144,1.144,0,0,1,.846-.294h.247a1.144,1.144,0,0,1,.846.294,1.144,1.144,0,0,1,.295.846v.323a1.144,1.144,0,0,1-.295.846,1.144,1.144,0,0,1-.846.294Zm4.731,0A1.144,1.144,0,0,1,37.8-.313a1.144,1.144,0,0,1-.294-.846v-.323a1.144,1.144,0,0,1,.294-.846,1.144,1.144,0,0,1,.846-.294h.247a1.144,1.144,0,0,1,.846.294,1.144,1.144,0,0,1,.295.846v.323a1.144,1.144,0,0,1-.295.846,1.144,1.144,0,0,1-.846.294Zm4.731,0a1.144,1.144,0,0,1-.846-.294,1.144,1.144,0,0,1-.294-.846v-.323a1.144,1.144,0,0,1,.294-.846,1.144,1.144,0,0,1,.846-.294h.247a1.144,1.144,0,0,1,.846.294,1.144,1.144,0,0,1,.295.846v.323a1.144,1.144,0,0,1-.295.846,1.144,1.144,0,0,1-.846.294Z" transform="translate(192 373)"/>
    </g>
  </g>
</svg>
