<svg xmlns="http://www.w3.org/2000/svg" width="175" height="199.294" viewBox="0 0 175 199.294">
  <g id="M_2_5_T" transform="translate(-89.169 -243)">
    <g id="Grupo_109" data-name="Grupo 109" transform="translate(88.817 243)">
      <g id="Rectángulo_4" data-name="Rectángulo 4" transform="translate(0.352)" fill="#fff" stroke="#c08cb8" stroke-width="1">
        <rect width="175" height="175" rx="19" stroke="none"/>
        <rect x="0.5" y="0.5" width="174" height="174" rx="18.5" fill="none"/>
      </g>
    </g>
    <g id="Grupo_542" data-name="Grupo 542" transform="translate(-3.081)">
      <g id="Grupo_540" data-name="Grupo 540">
        <rect id="Rectángulo_137" data-name="Rectángulo 137" width="49.087" height="49.087" transform="translate(143.96 372.875) rotate(45)" fill="#8b5b98"/>
        <path id="Trazado_689" data-name="Trazado 689" d="M-6.2,0A2.783,2.783,0,0,1-8.228-.77,2.561,2.561,0,0,1-9.02-2.684V-24.86l.616.968-3.344,2.024a2.691,2.691,0,0,1-1.408.4,2.4,2.4,0,0,1-1.892-.858,2.739,2.739,0,0,1-.748-1.826,2.507,2.507,0,0,1,1.364-2.288l6.644-3.96A4.02,4.02,0,0,1-5.9-30.8a2.455,2.455,0,0,1,1.87.77A2.682,2.682,0,0,1-3.3-28.116V-2.684A2.527,2.527,0,0,1-4.114-.77,2.918,2.918,0,0,1-6.2,0ZM9.812,0A2.783,2.783,0,0,1,7.788-.77,2.561,2.561,0,0,1,7-2.684V-24.86l.616.968L4.268-21.868a2.691,2.691,0,0,1-1.408.4A2.4,2.4,0,0,1,.968-22.33,2.739,2.739,0,0,1,.22-24.156a2.507,2.507,0,0,1,1.364-2.288L8.228-30.4a4.02,4.02,0,0,1,1.892-.4,2.455,2.455,0,0,1,1.87.77,2.682,2.682,0,0,1,.726,1.914V-2.684A2.527,2.527,0,0,1,11.9-.77,2.918,2.918,0,0,1,9.812,0Z" transform="translate(145.046 422.675)" fill="#f7ebf3"/>
      </g>
      <g id="Grupo_541" data-name="Grupo 541">
        <rect id="Rectángulo_138" data-name="Rectángulo 138" width="49.087" height="49.087" transform="translate(215.96 372.875) rotate(45)" fill="#d4c7e2"/>
        <path id="Trazado_690" data-name="Trazado 690" d="M.044.44a9.2,9.2,0,0,1-4.29-.99A9.815,9.815,0,0,1-7.5-3.256,12.927,12.927,0,0,1-9.57-7.128a13.833,13.833,0,0,1-.726-4.444,23.928,23.928,0,0,1,.33-3.608A24.362,24.362,0,0,1-8.8-19.624a20.141,20.141,0,0,1,2.332-4.532,17.017,17.017,0,0,1,3.806-3.96A16.456,16.456,0,0,1,2.992-30.8,4.172,4.172,0,0,1,4-30.932,3.283,3.283,0,0,1,5.83-30.4a2.132,2.132,0,0,1,.814,1.936,2.486,2.486,0,0,1-.638,1.694A3.5,3.5,0,0,1,4.312-25.74a13.448,13.448,0,0,0-2.97,1.3,13.764,13.764,0,0,0-2.728,2.09,13.026,13.026,0,0,0-2.156,2.794,11.707,11.707,0,0,0-1.3,3.366l-1.188-.044A18.4,18.4,0,0,1-4.51-17.842a8.785,8.785,0,0,1,2.2-1.5,6.859,6.859,0,0,1,3.058-.638,7.985,7.985,0,0,1,3.41.792,10.816,10.816,0,0,1,3.08,2.178A10.775,10.775,0,0,1,9.46-13.75,9.646,9.646,0,0,1,10.3-9.768,9.888,9.888,0,0,1,8.91-4.62a10.378,10.378,0,0,1-3.7,3.7A9.976,9.976,0,0,1,.044.44Zm0-4.84a4.661,4.661,0,0,0,2.53-.7A5.049,5.049,0,0,0,4.356-7.04a5.684,5.684,0,0,0,.66-2.728,5.649,5.649,0,0,0-.66-2.75,5.092,5.092,0,0,0-1.782-1.914,4.661,4.661,0,0,0-2.53-.7,4.661,4.661,0,0,0-2.53.7,5.092,5.092,0,0,0-1.782,1.914,5.649,5.649,0,0,0-.66,2.75,5.684,5.684,0,0,0,.66,2.728A5.049,5.049,0,0,0-2.486-5.1,4.661,4.661,0,0,0,.044-4.4Z" transform="translate(215.546 422.807)" fill="#884b7b"/>
      </g>
    </g>
    <g id="Grupo_620" data-name="Grupo 620" transform="translate(127 235.293)">
      <g id="Grupo_570" data-name="Grupo 570" transform="translate(0 40.444)">
        <g id="Grupo_570-2" data-name="Grupo 570" transform="translate(0 0)">
          <g id="Grupo_531" data-name="Grupo 531" transform="translate(0 0)">
            <path id="iconfinder_Untitled-1-18_2419684" d="M52.98,49.465V13.2l-2.033-2.033V6.3H23.765v4.863L21.733,13.2v36.27H19.7V51.5H55.013V49.465Z" transform="translate(-19.7 22.237)" fill="#356dd0"/>
            <path id="Sustracción_3" data-name="Sustracción 3" d="M0,0H27.172V30.092H0Z" transform="translate(4.044 0)" fill="#356dd0"/>
          </g>
        </g>
        <rect id="Rectángulo_172" data-name="Rectángulo 172" width="24.38" height="24.38" transform="translate(5.3 3.415)" fill="#fff"/>
        <path id="iconfinder_00-ELASTOFONT-STORE-READY_close_2703079" d="M11.43,10.583l8.561-8.561a.6.6,0,0,0-.847-.847L10.583,9.737,2.022,1.175a.6.6,0,0,0-.847.847l8.561,8.561L1.175,19.145a.6.6,0,1,0,.847.847l8.561-8.561,8.561,8.561a.6.6,0,0,0,.847-.847Z" transform="translate(6.907 5.022)" fill="#1d1d1b"/>
      </g>
    </g>
    <g id="Grupo_621" data-name="Grupo 621" transform="translate(127 262.178)">
      <path id="iconfinder_icon-arrow-left-c_211618" d="M82.545,119.243l-2.336,2.445a.754.754,0,0,0,0,1.043l2.336,2.454a.689.689,0,0,0,1.006,0,.77.77,0,0,0,0-1.053l-1.12-1.174,26.159,0a.746.746,0,0,0,0-1.49l-26.159,0,1.122-1.174a.77.77,0,0,0,0-1.053A.691.691,0,0,0,82.545,119.243Z" transform="translate(-80 -119.026)"/>
      <path id="iconfinder_icon-arrow-left-c_211618-2" data-name="iconfinder_icon-arrow-left-c_211618" d="M2.545.218.21,2.663A.709.709,0,0,0,0,3.185a.713.713,0,0,0,.21.522L2.545,6.161a.689.689,0,0,0,1.006,0,.77.77,0,0,0,0-1.053L2.431,3.935H7.484A.729.729,0,0,0,8.2,3.19a.729.729,0,0,0-.713-.745H2.431L3.554,1.271a.77.77,0,0,0,0-1.053A.691.691,0,0,0,2.545.218Z" transform="translate(35.313 6.38) rotate(180)"/>
    </g>
    <g id="Rectángulo_203" data-name="Rectángulo 203" transform="translate(118.964 367.649) rotate(-90)" fill="#fff" stroke="#000" stroke-width="1">
      <rect width="12" height="51.385" stroke="none"/>
      <rect x="0.5" y="0.5" width="11" height="50.385" fill="none"/>
    </g>
    <line id="Línea_51" data-name="Línea 51" y1="43.967" transform="translate(121.691 362.149) rotate(-90)" fill="none" stroke="#000" stroke-width="1" stroke-dasharray="3"/>
    <g id="Grupo_622" data-name="Grupo 622" transform="translate(198 235.293)">
      <g id="Grupo_570-3" data-name="Grupo 570" transform="translate(0 40.444)">
        <g id="Grupo_570-4" data-name="Grupo 570" transform="translate(0 0)">
          <g id="Grupo_531-2" data-name="Grupo 531" transform="translate(0 0)">
            <path id="iconfinder_Untitled-1-18_2419684-2" data-name="iconfinder_Untitled-1-18_2419684" d="M52.98,49.465V13.2l-2.033-2.033V6.3H23.765v4.863L21.733,13.2v36.27H19.7V51.5H55.013V49.465Z" transform="translate(-19.7 22.237)" fill="#356dd0"/>
            <path id="Sustracción_3-2" data-name="Sustracción 3" d="M0,0H27.172V30.092H0Z" transform="translate(4.044 0)" fill="#356dd0"/>
          </g>
        </g>
        <rect id="Rectángulo_172-2" data-name="Rectángulo 172" width="24.38" height="24.38" transform="translate(5.3 3.415)" fill="#fff"/>
        <path id="iconfinder_00-ELASTOFONT-STORE-READY_close_2703079-2" data-name="iconfinder_00-ELASTOFONT-STORE-READY_close_2703079" d="M11.43,10.583l8.561-8.561a.6.6,0,0,0-.847-.847L10.583,9.737,2.022,1.175a.6.6,0,0,0-.847.847l8.561,8.561L1.175,19.145a.6.6,0,1,0,.847.847l8.561-8.561,8.561,8.561a.6.6,0,0,0,.847-.847Z" transform="translate(6.907 5.022)" fill="#1d1d1b"/>
      </g>
    </g>
    <g id="Grupo_623" data-name="Grupo 623" transform="translate(198 262.178)">
      <path id="iconfinder_icon-arrow-left-c_211618-3" data-name="iconfinder_icon-arrow-left-c_211618" d="M82.545,119.243l-2.336,2.445a.754.754,0,0,0,0,1.043l2.336,2.454a.689.689,0,0,0,1.006,0,.77.77,0,0,0,0-1.053l-1.12-1.174,26.159,0a.746.746,0,0,0,0-1.49l-26.159,0,1.122-1.174a.77.77,0,0,0,0-1.053A.691.691,0,0,0,82.545,119.243Z" transform="translate(-80 -119.026)"/>
      <path id="iconfinder_icon-arrow-left-c_211618-4" data-name="iconfinder_icon-arrow-left-c_211618" d="M2.545.218.21,2.663A.709.709,0,0,0,0,3.185a.713.713,0,0,0,.21.522L2.545,6.161a.689.689,0,0,0,1.006,0,.77.77,0,0,0,0-1.053L2.431,3.935H7.484A.729.729,0,0,0,8.2,3.19a.729.729,0,0,0-.713-.745H2.431L3.554,1.271a.77.77,0,0,0,0-1.053A.691.691,0,0,0,2.545.218Z" transform="translate(35.313 6.38) rotate(180)"/>
    </g>
    <g id="Rectángulo_204" data-name="Rectángulo 204" transform="translate(189.964 367.649) rotate(-90)" fill="#fff" stroke="#000" stroke-width="1">
      <rect width="12" height="51.385" stroke="none"/>
      <rect x="0.5" y="0.5" width="11" height="50.385" fill="none"/>
    </g>
    <line id="Línea_52" data-name="Línea 52" y1="43.967" transform="translate(192.691 362.149) rotate(-90)" fill="none" stroke="#000" stroke-width="1" stroke-dasharray="3"/>
  </g>
</svg>
