<svg xmlns="http://www.w3.org/2000/svg" width="175" height="209.419" viewBox="0 0 175 209.419">
  <g id="M_2_1_T" transform="translate(-89 -233)">
    <g id="Grupo_109" data-name="Grupo 109" transform="translate(88.648 233)">
      <g id="Rectángulo_4" data-name="Rectángulo 4" transform="translate(0.352)" fill="#fff" stroke="#c08cb8" stroke-width="1">
        <rect width="175" height="175" rx="19" stroke="none"/>
        <rect x="0.5" y="0.5" width="174" height="174" rx="18.5" fill="none"/>
      </g>
    </g>
    <g id="Grupo_542" data-name="Grupo 542" transform="translate(-3.081)">
      <g id="Grupo_540" data-name="Grupo 540">
        <rect id="Rectángulo_137" data-name="Rectángulo 137" width="49.087" height="49.087" transform="translate(143.79 373) rotate(45)" fill="#8b5b98"/>
        <path id="Trazado_681" data-name="Trazado 681" d="M4.928-15.62,4.84-16.632a10.055,10.055,0,0,1,2.9,1.936,8.786,8.786,0,0,1,1.892,2.6,6.77,6.77,0,0,1,.66,2.9A8.146,8.146,0,0,1,8.91-4.6,10.124,10.124,0,0,1,5.192-1.254,10.786,10.786,0,0,1,0,0,10.786,10.786,0,0,1-5.192-1.254,10.124,10.124,0,0,1-8.91-4.6,8.146,8.146,0,0,1-10.3-9.2a6.833,6.833,0,0,1,.858-3.5A8.6,8.6,0,0,1-7.282-15.18a16.649,16.649,0,0,1,2.574-1.672L-5.06-15.62a8.646,8.646,0,0,1-2.134-1.254,6.293,6.293,0,0,1-1.694-2.09,6.428,6.428,0,0,1-.66-2.992,8.136,8.136,0,0,1,1.276-4.466,9.285,9.285,0,0,1,3.454-3.19A9.9,9.9,0,0,1,0-30.8a9.735,9.735,0,0,1,4.818,1.188,9.381,9.381,0,0,1,3.41,3.19A8.136,8.136,0,0,1,9.5-21.956a6.176,6.176,0,0,1-.748,3.168,6.389,6.389,0,0,1-1.8,2.024A10.274,10.274,0,0,1,4.928-15.62Zm-9.2-6.248a4.049,4.049,0,0,0,.55,2.112A4.07,4.07,0,0,0-2.2-18.282a4.374,4.374,0,0,0,2.2.55,4.254,4.254,0,0,0,2.178-.55,4.119,4.119,0,0,0,1.5-1.474,4.049,4.049,0,0,0,.55-2.112,3.894,3.894,0,0,0-1.21-2.926A4.172,4.172,0,0,0,0-25.96a4.229,4.229,0,0,0-3.058,1.166A3.894,3.894,0,0,0-4.268-21.868ZM0-4.84a5.155,5.155,0,0,0,3.564-1.3A4.068,4.068,0,0,0,5.016-9.284a4.1,4.1,0,0,0-.66-2.288,4.678,4.678,0,0,0-1.8-1.606A5.454,5.454,0,0,0,0-13.772a5.454,5.454,0,0,0-2.552.594,4.678,4.678,0,0,0-1.8,1.606,4.1,4.1,0,0,0-.66,2.288A4.068,4.068,0,0,0-3.564-6.138,5.155,5.155,0,0,0,0-4.84Z" transform="translate(143.377 422.8)" fill="#f7ebf3"/>
      </g>
      <g id="Grupo_541" data-name="Grupo 541">
        <rect id="Rectángulo_138" data-name="Rectángulo 138" width="49.087" height="49.087" transform="translate(215.79 373) rotate(45)" fill="#d4c7e2"/>
        <path id="Trazado_682" data-name="Trazado 682" d="M5.06,0A2.474,2.474,0,0,1,3.212-.77a2.639,2.639,0,0,1-.748-1.914v-20.68l.924.22L-5.1-12.628l-.22-.572H9.592a2.388,2.388,0,0,1,1.76.7,2.388,2.388,0,0,1,.7,1.76,2.263,2.263,0,0,1-.7,1.694,2.429,2.429,0,0,1-1.76.682H-8.976a2.692,2.692,0,0,1-1.782-.748,2.356,2.356,0,0,1-.858-1.848,2.683,2.683,0,0,1,.66-1.76l13.9-17.028a2.505,2.505,0,0,1,.924-.77A2.813,2.813,0,0,1,5.148-30.8a2.455,2.455,0,0,1,1.87.77,2.682,2.682,0,0,1,.726,1.914V-2.684A2.6,2.6,0,0,1,6.974-.77,2.6,2.6,0,0,1,5.06,0Z" transform="translate(215.697 422.8)" fill="#884b7b"/>
      </g>
    </g>
    <g id="Grupo_603" data-name="Grupo 603" transform="translate(0 14)">
      <g id="Unión_26" data-name="Unión 26" transform="translate(-1127.5 10212)" fill="#fff">
        <path d="M 1367.000610351562 -9872.5 L 1357.000732421875 -9872.5 L 1357.000732421875 -9879.5009765625 L 1357.000732421875 -9880.0009765625 L 1356.500732421875 -9880.0009765625 L 1337.499389648438 -9880.0009765625 L 1336.999389648438 -9880.0009765625 L 1336.999389648438 -9879.5009765625 L 1336.999389648438 -9872.5 L 1326.99951171875 -9872.5 L 1326.99951171875 -9879.5009765625 L 1326.99951171875 -9880.0009765625 L 1326.49951171875 -9880.0009765625 L 1307.500732421875 -9880.0009765625 L 1307.000732421875 -9880.0009765625 L 1307.000732421875 -9879.5009765625 L 1307.000732421875 -9872.5 L 1297.000854492188 -9872.5 L 1297.000854492188 -9879.5009765625 L 1297.000854492188 -9880.0009765625 L 1296.500854492188 -9880.0009765625 L 1277.49951171875 -9880.0009765625 L 1276.99951171875 -9880.0009765625 L 1276.99951171875 -9879.5009765625 L 1276.99951171875 -9872.5 L 1266.999633789062 -9872.5 L 1266.999633789062 -9879.5009765625 L 1266.999633789062 -9880.0009765625 L 1266.499633789062 -9880.0009765625 L 1247.500854492188 -9880.0009765625 L 1247.000854492188 -9880.0009765625 L 1247.000854492188 -9879.5009765625 L 1247.000854492188 -9872.5 L 1237.0009765625 -9872.5 L 1237.0009765625 -9879.5009765625 L 1237.0009765625 -9880.0009765625 L 1236.5009765625 -9880.0009765625 L 1223.500854492188 -9880.0009765625 L 1223.500854492188 -9891 L 1236.5009765625 -9891 L 1237.0009765625 -9891 L 1237.0009765625 -9891.5 L 1237.0009765625 -9922.5 L 1247.000854492188 -9922.5 L 1247.000854492188 -9891.5 L 1247.000854492188 -9891 L 1247.500854492188 -9891 L 1266.499633789062 -9891 L 1266.999633789062 -9891 L 1266.999633789062 -9891.5 L 1266.999633789062 -9922.5 L 1276.99951171875 -9922.5 L 1276.99951171875 -9891.5 L 1276.99951171875 -9891 L 1277.49951171875 -9891 L 1296.500854492188 -9891 L 1297.000854492188 -9891 L 1297.000854492188 -9891.5 L 1297.000854492188 -9922.5 L 1307.000732421875 -9922.5 L 1307.000732421875 -9891.5 L 1307.000732421875 -9891 L 1307.500732421875 -9891 L 1326.49951171875 -9891 L 1326.99951171875 -9891 L 1326.99951171875 -9891.5 L 1326.99951171875 -9922.5 L 1336.999389648438 -9922.5 L 1336.999389648438 -9891.5 L 1336.999389648438 -9891 L 1337.499389648438 -9891 L 1356.500732421875 -9891 L 1357.000732421875 -9891 L 1357.000732421875 -9891.5 L 1357.000732421875 -9922.5 L 1367.000610351562 -9922.5 L 1367.000610351562 -9891.5 L 1367.000610351562 -9891 L 1367.500610351562 -9891 L 1384.500244140625 -9891 L 1384.500244140625 -9880.0009765625 L 1367.500610351562 -9880.0009765625 L 1367.000610351562 -9880.0009765625 L 1367.000610351562 -9879.5009765625 L 1367.000610351562 -9872.5 Z" stroke="none"/>
        <path d="M 1366.500610351562 -9873 L 1366.500610351562 -9879.5009765625 L 1366.500610351562 -9880.5009765625 L 1367.500610351562 -9880.5009765625 L 1384.000244140625 -9880.5009765625 L 1384.000244140625 -9890.5 L 1367.500610351562 -9890.5 L 1366.500610351562 -9890.5 L 1366.500610351562 -9891.5 L 1366.500610351562 -9922 L 1357.500732421875 -9922 L 1357.500732421875 -9891.5 L 1357.500732421875 -9890.5 L 1356.500732421875 -9890.5 L 1337.499389648438 -9890.5 L 1336.499389648438 -9890.5 L 1336.499389648438 -9891.5 L 1336.499389648438 -9922 L 1327.49951171875 -9922 L 1327.49951171875 -9891.5 L 1327.49951171875 -9890.5 L 1326.49951171875 -9890.5 L 1307.500732421875 -9890.5 L 1306.500732421875 -9890.5 L 1306.500732421875 -9891.5 L 1306.500732421875 -9922 L 1297.500854492188 -9922 L 1297.500854492188 -9891.5 L 1297.500854492188 -9890.5 L 1296.500854492188 -9890.5 L 1277.49951171875 -9890.5 L 1276.49951171875 -9890.5 L 1276.49951171875 -9891.5 L 1276.49951171875 -9922 L 1267.499633789062 -9922 L 1267.499633789062 -9891.5 L 1267.499633789062 -9890.5 L 1266.499633789062 -9890.5 L 1247.500854492188 -9890.5 L 1246.500854492188 -9890.5 L 1246.500854492188 -9891.5 L 1246.500854492188 -9922 L 1237.5009765625 -9922 L 1237.5009765625 -9891.5 L 1237.5009765625 -9890.5 L 1236.5009765625 -9890.5 L 1224.000854492188 -9890.5 L 1224.000854492188 -9880.5009765625 L 1236.5009765625 -9880.5009765625 L 1237.5009765625 -9880.5009765625 L 1237.5009765625 -9879.5009765625 L 1237.5009765625 -9873 L 1246.500854492188 -9873 L 1246.500854492188 -9879.5009765625 L 1246.500854492188 -9880.5009765625 L 1247.500854492188 -9880.5009765625 L 1266.499633789062 -9880.5009765625 L 1267.499633789062 -9880.5009765625 L 1267.499633789062 -9879.5009765625 L 1267.499633789062 -9873 L 1276.49951171875 -9873 L 1276.49951171875 -9879.5009765625 L 1276.49951171875 -9880.5009765625 L 1277.49951171875 -9880.5009765625 L 1296.500854492188 -9880.5009765625 L 1297.500854492188 -9880.5009765625 L 1297.500854492188 -9879.5009765625 L 1297.500854492188 -9873 L 1306.500732421875 -9873 L 1306.500732421875 -9879.5009765625 L 1306.500732421875 -9880.5009765625 L 1307.500732421875 -9880.5009765625 L 1326.49951171875 -9880.5009765625 L 1327.49951171875 -9880.5009765625 L 1327.49951171875 -9879.5009765625 L 1327.49951171875 -9873 L 1336.499389648438 -9873 L 1336.499389648438 -9879.5009765625 L 1336.499389648438 -9880.5009765625 L 1337.499389648438 -9880.5009765625 L 1356.500732421875 -9880.5009765625 L 1357.500732421875 -9880.5009765625 L 1357.500732421875 -9879.5009765625 L 1357.500732421875 -9873 L 1366.500610351562 -9873 M 1367.500610351562 -9872 L 1356.500732421875 -9872 L 1356.500732421875 -9879.5009765625 L 1337.499389648438 -9879.5009765625 L 1337.499389648438 -9872 L 1326.49951171875 -9872 L 1326.49951171875 -9879.5009765625 L 1307.500732421875 -9879.5009765625 L 1307.500732421875 -9872 L 1296.500854492188 -9872 L 1296.500854492188 -9879.5009765625 L 1277.49951171875 -9879.5009765625 L 1277.49951171875 -9872 L 1266.499633789062 -9872 L 1266.499633789062 -9879.5009765625 L 1247.500854492188 -9879.5009765625 L 1247.500854492188 -9872 L 1236.5009765625 -9872 L 1236.5009765625 -9879.5009765625 L 1223.000854492188 -9879.5009765625 L 1223.000854492188 -9891.5 L 1236.5009765625 -9891.5 L 1236.5009765625 -9923 L 1247.500854492188 -9923 L 1247.500854492188 -9891.5 L 1266.499633789062 -9891.5 L 1266.499633789062 -9923 L 1277.49951171875 -9923 L 1277.49951171875 -9891.5 L 1296.500854492188 -9891.5 L 1296.500854492188 -9923 L 1307.500732421875 -9923 L 1307.500732421875 -9891.5 L 1326.49951171875 -9891.5 L 1326.49951171875 -9923 L 1337.499389648438 -9923 L 1337.499389648438 -9891.5 L 1356.500732421875 -9891.5 L 1356.500732421875 -9923 L 1367.500610351562 -9923 L 1367.500610351562 -9891.5 L 1385.000244140625 -9891.5 L 1385.000244140625 -9879.5009765625 L 1367.500610351562 -9879.5009765625 L 1367.500610351562 -9872 Z" stroke="none" fill="#000"/>
      </g>
      <line id="Línea_42" data-name="Línea 42" y1="44" transform="translate(114.5 292.5)" fill="none" stroke="#000" stroke-width="1" stroke-dasharray="3"/>
      <line id="Línea_43" data-name="Línea 43" y1="44" transform="translate(144.5 292.5)" fill="none" stroke="#000" stroke-width="1" stroke-dasharray="3"/>
      <line id="Línea_44" data-name="Línea 44" y1="44" transform="translate(174.5 292.5)" fill="none" stroke="#000" stroke-width="1" stroke-dasharray="3"/>
      <line id="Línea_45" data-name="Línea 45" y1="44" transform="translate(204.5 292.5)" fill="none" stroke="#000" stroke-width="1" stroke-dasharray="3"/>
      <line id="Línea_46" data-name="Línea 46" y1="44" transform="translate(234.5 292.5)" fill="none" stroke="#000" stroke-width="1" stroke-dasharray="3"/>
      <rect id="Rectángulo_199" data-name="Rectángulo 199" width="166" height="9" transform="translate(93 322)" fill="#fff"/>
      <rect id="Rectángulo_200" data-name="Rectángulo 200" width="7" height="17" transform="translate(92 319)" fill="#fff"/>
      <rect id="Rectángulo_201" data-name="Rectángulo 201" width="7" height="17" transform="translate(255 317)" fill="#fff"/>
      <line id="Línea_47" data-name="Línea 47" x2="156" transform="translate(99.5 326.5)" fill="none" stroke="#000" stroke-width="1" stroke-dasharray="3"/>
      <g id="Elipse_126" data-name="Elipse 126" transform="translate(94 301)" fill="#fff" stroke="#000" stroke-width="1">
        <circle cx="6" cy="6" r="6" stroke="none"/>
        <circle cx="6" cy="6" r="5.5" fill="none"/>
      </g>
      <g id="Elipse_127" data-name="Elipse 127" transform="translate(124 301)" fill="#fff" stroke="#000" stroke-width="1">
        <circle cx="6" cy="6" r="6" stroke="none"/>
        <circle cx="6" cy="6" r="5.5" fill="none"/>
      </g>
      <g id="Elipse_128" data-name="Elipse 128" transform="translate(154 301)" fill="#fff" stroke="#000" stroke-width="1">
        <circle cx="6" cy="6" r="6" stroke="none"/>
        <circle cx="6" cy="6" r="5.5" fill="none"/>
      </g>
      <g id="Elipse_129" data-name="Elipse 129" transform="translate(184 301)" fill="#fff" stroke="#000" stroke-width="1">
        <circle cx="6" cy="6" r="6" stroke="none"/>
        <circle cx="6" cy="6" r="5.5" fill="none"/>
      </g>
      <g id="Elipse_130" data-name="Elipse 130" transform="translate(214 301)" fill="#fff" stroke="#000" stroke-width="1">
        <circle cx="6" cy="6" r="6" stroke="none"/>
        <circle cx="6" cy="6" r="5.5" fill="none"/>
      </g>
      <g id="Elipse_131" data-name="Elipse 131" transform="translate(244 301)" fill="#fff" stroke="#000" stroke-width="1">
        <circle cx="6" cy="6" r="6" stroke="none"/>
        <circle cx="6" cy="6" r="5.5" fill="none"/>
      </g>
    </g>
    <g id="Grupo_608" data-name="Grupo 608" transform="translate(8)">
      <g id="Grupo_606" data-name="Grupo 606" transform="translate(89.185 -9876)">
        <path id="iconfinder_icon-arrow-left-c_211618" d="M83.473,119.323l-3.187,3.336a1.029,1.029,0,0,0,0,1.424l3.187,3.349a.94.94,0,0,0,1.373,0,1.051,1.051,0,0,0,0-1.436l-1.528-1.6,35.694-.006a1.018,1.018,0,0,0,0-2.034l-35.694.006,1.532-1.6a1.051,1.051,0,0,0,0-1.436A.943.943,0,0,0,83.473,119.323Z" transform="translate(-25.185 10047.975)"/>
        <path id="iconfinder_icon-arrow-left-c_211618-2" data-name="iconfinder_icon-arrow-left-c_211618" d="M83.473,119.323l-3.187,3.336a1.029,1.029,0,0,0,0,1.424l3.187,3.349a.94.94,0,0,0,1.373,0,1.051,1.051,0,0,0,0-1.436l-1.528-1.6h6.9a1.018,1.018,0,0,0,0-2.034h-6.9l1.532-1.6a1.051,1.051,0,0,0,0-1.436A.943.943,0,0,0,83.473,119.323Z" transform="translate(183 10294.73) rotate(180)"/>
      </g>
      <g id="Grupo_607" data-name="Grupo 607" transform="translate(2.907 -4)">
        <g id="Grupo_605" data-name="Grupo 605" transform="translate(-14 -8)">
          <g id="Grupo_604" data-name="Grupo 604" transform="translate(176 250.709)">
            <g id="Grupo_531" data-name="Grupo 531" transform="translate(0 0)">
              <path id="iconfinder_Untitled-1-18_2419684" d="M42.668,36.09V11.059l-1.4-1.4V6.3H22.506V9.656l-1.4,1.4V36.09H19.7v1.4H44.071v-1.4Z" transform="translate(-19.7 13.395)" fill="#356dd0"/>
              <path id="Sustracción_3" data-name="Sustracción 3" d="M0,0H18.752V20.767H0Z" transform="translate(2.791 0)" fill="#356dd0"/>
            </g>
          </g>
          <rect id="Rectángulo_202" data-name="Rectángulo 202" width="16.826" height="16.826" transform="translate(179.658 253.066)" fill="#fff"/>
          <g id="Elipse_132" data-name="Elipse 132" transform="translate(182.093 255)" fill="#fff" stroke="#000" stroke-width="1">
            <circle cx="6" cy="6" r="6" stroke="none"/>
            <circle cx="6" cy="6" r="5.5" fill="none"/>
          </g>
        </g>
        <path id="Trazado_666" data-name="Trazado 666" d="M.026.26A5.435,5.435,0,0,1-2.509-.325a5.8,5.8,0,0,1-1.924-1.6A7.639,7.639,0,0,1-5.655-4.212a8.174,8.174,0,0,1-.429-2.626,14.139,14.139,0,0,1,.2-2.132A14.4,14.4,0,0,1-5.2-11.6a11.9,11.9,0,0,1,1.378-2.678,10.056,10.056,0,0,1,2.249-2.34A9.724,9.724,0,0,1,1.768-18.2a2.465,2.465,0,0,1,.6-.078,1.94,1.94,0,0,1,1.079.312,1.26,1.26,0,0,1,.481,1.144,1.469,1.469,0,0,1-.377,1,2.065,2.065,0,0,1-1,.611,7.947,7.947,0,0,0-1.755.767A8.133,8.133,0,0,0-.819-13.208a7.7,7.7,0,0,0-1.274,1.651A6.918,6.918,0,0,0-2.86-9.568l-.7-.026a10.874,10.874,0,0,1,.9-.949,5.191,5.191,0,0,1,1.3-.884A4.053,4.053,0,0,1,.442-11.8a4.718,4.718,0,0,1,2.015.468,6.391,6.391,0,0,1,1.82,1.287A6.367,6.367,0,0,1,5.59-8.125a5.7,5.7,0,0,1,.494,2.353A5.843,5.843,0,0,1,5.265-2.73,6.132,6.132,0,0,1,3.081-.546,5.9,5.9,0,0,1,.026.26Zm0-2.86a2.754,2.754,0,0,0,1.5-.416A2.984,2.984,0,0,0,2.574-4.16a3.359,3.359,0,0,0,.39-1.612A3.338,3.338,0,0,0,2.574-7.4,3.009,3.009,0,0,0,1.521-8.528a2.754,2.754,0,0,0-1.5-.416,2.754,2.754,0,0,0-1.495.416A3.009,3.009,0,0,0-2.522-7.4a3.338,3.338,0,0,0-.39,1.625,3.359,3.359,0,0,0,.39,1.612A2.984,2.984,0,0,0-1.469-3.016,2.754,2.754,0,0,0,.026-2.6Z" transform="translate(150.177 277.162)" fill="#c08cb8"/>
      </g>
    </g>
    <g id="Grupo_610" data-name="Grupo 610" transform="translate(-8)">
      <g id="Elipse_133" data-name="Elipse 133" transform="translate(133 361)" fill="#fff" stroke="#000" stroke-width="1">
        <circle cx="6" cy="6" r="6" stroke="none"/>
        <circle cx="6" cy="6" r="5.5" fill="none"/>
      </g>
      <path id="Trazado_668" data-name="Trazado 668" d="M-43.8-6.555a1.1,1.1,0,0,1-.8-.313,1.009,1.009,0,0,1-.323-.751.95.95,0,0,1,.323-.732,1.14,1.14,0,0,1,.8-.295h7.619a1.132,1.132,0,0,1,.808.295.963.963,0,0,1,.313.732,1.024,1.024,0,0,1-.313.751,1.093,1.093,0,0,1-.808.313Zm0,3.686a1.1,1.1,0,0,1-.8-.314,1.009,1.009,0,0,1-.323-.75.95.95,0,0,1,.323-.731,1.14,1.14,0,0,1,.8-.295h7.619a1.132,1.132,0,0,1,.808.295.963.963,0,0,1,.313.731,1.024,1.024,0,0,1-.313.75,1.093,1.093,0,0,1-.808.314Zm23.56.779a1.031,1.031,0,0,1,.76.3,1.031,1.031,0,0,1,.3.76.977.977,0,0,1-.3.732,1.049,1.049,0,0,1-.76.294H-26.7a1.016,1.016,0,0,1-.779-.3,1.093,1.093,0,0,1-.285-.779,1.179,1.179,0,0,1,.342-.836l4.142-4.427a7.564,7.564,0,0,0,1.1-1.511,3.031,3.031,0,0,0,.418-1.434,2.028,2.028,0,0,0-.285-1.064,2.24,2.24,0,0,0-.741-.76,1.83,1.83,0,0,0-.988-.285,2.052,2.052,0,0,0-1.121.371,3.778,3.778,0,0,0-1.007.979,1.013,1.013,0,0,1-.456.38,1.331,1.331,0,0,1-.418.076,1.133,1.133,0,0,1-.77-.313.954.954,0,0,1-.351-.732,1.062,1.062,0,0,1,.219-.627,5.143,5.143,0,0,1,.542-.627,5.729,5.729,0,0,1,1.672-1.159,4.361,4.361,0,0,1,1.824-.437,4.409,4.409,0,0,1,2.223.532A3.729,3.729,0,0,1-19.969-11.5a4.3,4.3,0,0,1,.513,2.109,4.82,4.82,0,0,1-.295,1.624,7.483,7.483,0,0,1-.808,1.605,11.78,11.78,0,0,1-1.178,1.5L-24.3-1.919l-.209-.171Zm5.757,1.938a2.232,2.232,0,0,1-.18.769,4.5,4.5,0,0,1-.494.922,3.281,3.281,0,0,1-.712.76,1.36,1.36,0,0,1-.836.3,1.17,1.17,0,0,1-.646-.171.646.646,0,0,1-.266-.589q0-.437.275-.532t.465-.171a1.229,1.229,0,0,0,.389-.313A.7.7,0,0,0-16.34.38a.47.47,0,0,0-.2-.37.8.8,0,0,0-.523-.162,1.468,1.468,0,0,0-.266.029.709.709,0,0,0-.266.1,1.268,1.268,0,0,1-.333-.238.64.64,0,0,1-.142-.465,1.088,1.088,0,0,1,.285-.741,2.039,2.039,0,0,1,.712-.513,1.993,1.993,0,0,1,.808-.19,1.705,1.705,0,0,1,1.3.513A2.108,2.108,0,0,1-14.478-.152ZM.855,0a1.068,1.068,0,0,1-.8-.333,1.139,1.139,0,0,1-.323-.827v-8.93l.4.1L-3.534-5.453l-.1-.247H2.812a1.031,1.031,0,0,1,.76.3,1.031,1.031,0,0,1,.3.76.977.977,0,0,1-.3.732,1.049,1.049,0,0,1-.76.295H-5.206a1.162,1.162,0,0,1-.77-.323,1.017,1.017,0,0,1-.37-.8,1.159,1.159,0,0,1,.285-.76l6-7.353a1.082,1.082,0,0,1,.4-.332A1.215,1.215,0,0,1,.893-13.3a1.06,1.06,0,0,1,.807.333,1.158,1.158,0,0,1,.314.826V-1.159a1.122,1.122,0,0,1-.332.827A1.122,1.122,0,0,1,.855,0ZM9.519-.152a2.232,2.232,0,0,1-.18.769,4.5,4.5,0,0,1-.494.922,3.281,3.281,0,0,1-.712.76,1.36,1.36,0,0,1-.836.3,1.17,1.17,0,0,1-.646-.171.646.646,0,0,1-.266-.589q0-.437.276-.532t.465-.171A1.229,1.229,0,0,0,7.514.826.7.7,0,0,0,7.657.38a.47.47,0,0,0-.2-.37.8.8,0,0,0-.522-.162,1.468,1.468,0,0,0-.266.029.709.709,0,0,0-.266.1A1.268,1.268,0,0,1,6.07-.257a.64.64,0,0,1-.142-.465,1.088,1.088,0,0,1,.285-.741,2.039,2.039,0,0,1,.713-.513,1.993,1.993,0,0,1,.807-.19,1.705,1.705,0,0,1,1.3.513A2.108,2.108,0,0,1,9.519-.152ZM21.166.19a3.972,3.972,0,0,1-1.853-.427,4.238,4.238,0,0,1-1.406-1.169,5.582,5.582,0,0,1-.893-1.672A5.974,5.974,0,0,1,16.7-5a10.333,10.333,0,0,1,.142-1.558,10.52,10.52,0,0,1,.5-1.919,8.7,8.7,0,0,1,1.007-1.957A7.348,7.348,0,0,1,20-12.141,7.106,7.106,0,0,1,22.439-13.3a1.8,1.8,0,0,1,.437-.057,1.418,1.418,0,0,1,.788.228.921.921,0,0,1,.352.836,1.074,1.074,0,0,1-.276.731,1.509,1.509,0,0,1-.731.447,5.807,5.807,0,0,0-1.283.561,5.944,5.944,0,0,0-1.178.9,5.625,5.625,0,0,0-.931,1.207,5.055,5.055,0,0,0-.56,1.454l-.513-.019A7.946,7.946,0,0,1,19.2-7.7a3.794,3.794,0,0,1,.95-.646,2.962,2.962,0,0,1,1.32-.275,3.448,3.448,0,0,1,1.472.342,4.67,4.67,0,0,1,1.33.94,4.653,4.653,0,0,1,.959,1.406,4.165,4.165,0,0,1,.361,1.72,4.27,4.27,0,0,1-.6,2.223A4.481,4.481,0,0,1,23.4-.4,4.308,4.308,0,0,1,21.166.19Zm0-2.09a2.013,2.013,0,0,0,1.093-.3,2.18,2.18,0,0,0,.769-.836,2.455,2.455,0,0,0,.285-1.178,2.439,2.439,0,0,0-.285-1.187,2.2,2.2,0,0,0-.769-.827,2.013,2.013,0,0,0-1.093-.3,2.013,2.013,0,0,0-1.093.3,2.2,2.2,0,0,0-.77.827,2.439,2.439,0,0,0-.285,1.188A2.455,2.455,0,0,0,19.3-3.04a2.18,2.18,0,0,0,.77.836A2.013,2.013,0,0,0,21.166-1.9ZM33.915-.019a1.144,1.144,0,0,1-.846-.294,1.144,1.144,0,0,1-.294-.846v-.323a1.144,1.144,0,0,1,.294-.846,1.144,1.144,0,0,1,.846-.294h.247a1.144,1.144,0,0,1,.846.294,1.144,1.144,0,0,1,.295.846v.323a1.144,1.144,0,0,1-.295.846,1.144,1.144,0,0,1-.846.294Zm4.731,0A1.144,1.144,0,0,1,37.8-.313a1.144,1.144,0,0,1-.294-.846v-.323a1.144,1.144,0,0,1,.294-.846,1.144,1.144,0,0,1,.846-.294h.247a1.144,1.144,0,0,1,.846.294,1.144,1.144,0,0,1,.295.846v.323a1.144,1.144,0,0,1-.295.846,1.144,1.144,0,0,1-.846.294Zm4.731,0a1.144,1.144,0,0,1-.846-.294,1.144,1.144,0,0,1-.294-.846v-.323a1.144,1.144,0,0,1,.294-.846,1.144,1.144,0,0,1,.846-.294h.247a1.144,1.144,0,0,1,.846.294,1.144,1.144,0,0,1,.295.846v.323a1.144,1.144,0,0,1-.295.846,1.144,1.144,0,0,1-.846.294Z" transform="translate(192 373)"/>
    </g>
  </g>
</svg>
