<svg xmlns="http://www.w3.org/2000/svg" width="175" height="209.419" viewBox="0 0 175 209.419">
  <g id="M_2_6_F" transform="translate(-89 -233)">
    <g id="Grupo_109" data-name="Grupo 109" transform="translate(88.648 233)">
      <g id="Rectángulo_4" data-name="Rectángulo 4" transform="translate(0.352)" fill="#fff" stroke="#c08cb8" stroke-width="1">
        <rect width="175" height="175" rx="19" stroke="none"/>
        <rect x="0.5" y="0.5" width="174" height="174" rx="18.5" fill="none"/>
      </g>
    </g>
    <g id="Grupo_542" data-name="Grupo 542" transform="translate(-3.081)">
      <g id="Grupo_540" data-name="Grupo 540">
        <g id="Rectángulo_137" data-name="Rectángulo 137" transform="translate(143.79 373) rotate(45)" fill="#fff" stroke="#f0f0f0" stroke-width="1">
          <rect width="49.087" height="49.087" stroke="none"/>
          <rect x="0.5" y="0.5" width="48.087" height="48.087" fill="none"/>
        </g>
        <path id="Trazado_692" data-name="Trazado 692" d="M-11.7,0a2.783,2.783,0,0,1-2.024-.77,2.561,2.561,0,0,1-.792-1.914V-24.86l.616.968-3.344,2.024a2.691,2.691,0,0,1-1.408.4,2.4,2.4,0,0,1-1.892-.858,2.739,2.739,0,0,1-.748-1.826,2.506,2.506,0,0,1,1.364-2.288l6.644-3.96a4.02,4.02,0,0,1,1.892-.4,2.455,2.455,0,0,1,1.87.77A2.682,2.682,0,0,1-8.8-28.116V-2.684A2.527,2.527,0,0,1-9.614-.77,2.918,2.918,0,0,1-11.7,0ZM8.008.44a10.228,10.228,0,0,1-6.4-2A12.355,12.355,0,0,1-2.376-7.15,23.11,23.11,0,0,1-3.74-15.4a23.066,23.066,0,0,1,1.364-8.272,12.365,12.365,0,0,1,3.982-5.566,10.228,10.228,0,0,1,6.4-2,10.228,10.228,0,0,1,6.4,2,12.365,12.365,0,0,1,3.982,5.566A23.066,23.066,0,0,1,19.756-15.4a23.11,23.11,0,0,1-1.364,8.25A12.355,12.355,0,0,1,14.41-1.562,10.228,10.228,0,0,1,8.008.44Zm0-5.28A4.7,4.7,0,0,0,11.2-6.006a7.584,7.584,0,0,0,2.09-3.52,19.668,19.668,0,0,0,.748-5.874,19.624,19.624,0,0,0-.748-5.9,7.579,7.579,0,0,0-2.09-3.5,4.7,4.7,0,0,0-3.19-1.166A4.728,4.728,0,0,0,4.84-24.794a7.48,7.48,0,0,0-2.112,3.5,19.624,19.624,0,0,0-.748,5.9,19.668,19.668,0,0,0,.748,5.874A7.485,7.485,0,0,0,4.84-6.006,4.728,4.728,0,0,0,8.008-4.84Z" transform="translate(144.377 423.24)" fill="#f0f0f0"/>
      </g>
      <g id="Grupo_541" data-name="Grupo 541">
        <rect id="Rectángulo_138" data-name="Rectángulo 138" width="49.087" height="49.087" transform="translate(215.79 373) rotate(45)" fill="#d4c7e2"/>
        <path id="Trazado_691" data-name="Trazado 691" d="M.044.44a9.2,9.2,0,0,1-4.29-.99A9.815,9.815,0,0,1-7.5-3.256,12.927,12.927,0,0,1-9.57-7.128a13.833,13.833,0,0,1-.726-4.444,23.928,23.928,0,0,1,.33-3.608A24.362,24.362,0,0,1-8.8-19.624a20.141,20.141,0,0,1,2.332-4.532,17.017,17.017,0,0,1,3.806-3.96A16.456,16.456,0,0,1,2.992-30.8,4.172,4.172,0,0,1,4-30.932,3.283,3.283,0,0,1,5.83-30.4a2.132,2.132,0,0,1,.814,1.936,2.486,2.486,0,0,1-.638,1.694A3.5,3.5,0,0,1,4.312-25.74a13.448,13.448,0,0,0-2.97,1.3,13.764,13.764,0,0,0-2.728,2.09,13.026,13.026,0,0,0-2.156,2.794,11.707,11.707,0,0,0-1.3,3.366l-1.188-.044A18.4,18.4,0,0,1-4.51-17.842a8.785,8.785,0,0,1,2.2-1.5,6.859,6.859,0,0,1,3.058-.638,7.985,7.985,0,0,1,3.41.792,10.816,10.816,0,0,1,3.08,2.178A10.775,10.775,0,0,1,9.46-13.75,9.646,9.646,0,0,1,10.3-9.768,9.888,9.888,0,0,1,8.91-4.62a10.378,10.378,0,0,1-3.7,3.7A9.976,9.976,0,0,1,.044.44Zm0-4.84a4.661,4.661,0,0,0,2.53-.7A5.049,5.049,0,0,0,4.356-7.04a5.684,5.684,0,0,0,.66-2.728,5.649,5.649,0,0,0-.66-2.75,5.092,5.092,0,0,0-1.782-1.914,4.661,4.661,0,0,0-2.53-.7,4.661,4.661,0,0,0-2.53.7,5.092,5.092,0,0,0-1.782,1.914,5.649,5.649,0,0,0-.66,2.75,5.684,5.684,0,0,0,.66,2.728A5.049,5.049,0,0,0-2.486-5.1,4.661,4.661,0,0,0,.044-4.4Z" transform="translate(215.377 422.932)" fill="#884b7b"/>
      </g>
    </g>
    <g id="Grupo_624" data-name="Grupo 624">
      <path id="Trazado_675" data-name="Trazado 675" d="M.574,0A.886.886,0,0,1-.07-.245.815.815,0,0,1-.322-.854V-7.91l.2.308-1.064.644a.856.856,0,0,1-.448.126.764.764,0,0,1-.6-.273.872.872,0,0,1-.238-.581.8.8,0,0,1,.434-.728L.07-9.674a1.279,1.279,0,0,1,.6-.126.781.781,0,0,1,.6.245.853.853,0,0,1,.231.609V-.854a.8.8,0,0,1-.259.609A.929.929,0,0,1,.574,0Z" transform="translate(101 268)"/>
      <g id="Shape_1" transform="translate(106 279.01)">
        <g id="Grupo_533" data-name="Grupo 533" transform="translate(0 0)">
          <path id="Sustracción_4" data-name="Sustracción 4" d="M10.414,15.722a3.846,3.846,0,0,1-2.161-.66,3.876,3.876,0,0,1-1.4-1.7A3.859,3.859,0,0,1,7.209,9.7a3.876,3.876,0,0,1,1.7-1.4,3.86,3.86,0,0,1,3.665.356,3.876,3.876,0,0,1,1.4,1.7,3.86,3.86,0,0,1-.356,3.665,3.876,3.876,0,0,1-1.7,1.4A3.841,3.841,0,0,1,10.414,15.722Zm0-6.625a2.752,2.752,0,1,0,1.075.217A2.743,2.743,0,0,0,10.414,9.1Zm46.3,6.611a3.847,3.847,0,0,1-2.161-.66,3.876,3.876,0,0,1-1.4-1.7,3.86,3.86,0,0,1,.356-3.665,3.876,3.876,0,0,1,1.7-1.4,3.86,3.86,0,0,1,3.665.356,3.876,3.876,0,0,1,1.4,1.7A3.86,3.86,0,0,1,59.922,14a3.876,3.876,0,0,1-1.7,1.4A3.84,3.84,0,0,1,56.718,15.707Zm0-6.625a2.752,2.752,0,1,0,1.075.217A2.743,2.743,0,0,0,56.718,9.082Zm-45.906,5.1h0V12.968a1.152,1.152,0,0,0,.107-.045l.859.859a2.347,2.347,0,0,1-.966.4Zm-.8,0h0a2.347,2.347,0,0,1-.966-.4l.859-.859a1.147,1.147,0,0,0,.107.044v1.215Zm47.1-.015h0V12.953a1.131,1.131,0,0,0,.107-.045l.86.86a2.349,2.349,0,0,1-.966.4Zm-.8,0h0a2.348,2.348,0,0,1-.966-.4l.859-.859a1.151,1.151,0,0,0,.107.044v1.216Zm-43.98-.948h0l-.859-.859c.016-.034.031-.07.044-.107h1.216a2.348,2.348,0,0,1-.4.966Zm-3.853,0h0a2.348,2.348,0,0,1-.4-.966H9.3c.013.036.028.071.044.107l-.859.86Zm50.156-.015h0l-.859-.859c.016-.035.031-.071.044-.107h1.216a2.347,2.347,0,0,1-.4.966Zm-3.853,0h0a2.348,2.348,0,0,1-.4-.966h1.215a1.141,1.141,0,0,0,.044.107l-.859.86Zm-40.5-.028h0a6.047,6.047,0,0,0,.146-1.321,4,4,0,0,0-.686-2.247,4.031,4.031,0,0,0-1.769-1.456,4.014,4.014,0,0,0-3.812.371A4.031,4.031,0,0,0,6.71,10.292a3.994,3.994,0,0,0-.316,1.565,4.055,4.055,0,0,0,.052.647l-.223-.012c-.011,0-1.069-.032-2.223-.139-.676-.063-1.249-.138-1.7-.225a3.168,3.168,0,0,1-1.146-.373c-.108-.031-.161-.138-.212-.241a.914.914,0,0,0-.071-.127,3.06,3.06,0,0,0-.708-.68,3.611,3.611,0,0,0-.08-.534C.054,10.053.031,9.94.017,9.827l.057-.255A5.071,5.071,0,0,1,0,8.8a3.916,3.916,0,0,1,.057-.76A2.085,2.085,0,0,1,.271,7.4a.971.971,0,0,1,.4-.408c0-.131,0-.261-.006-.386h0A2.547,2.547,0,0,1,.9,5.123a.571.571,0,0,0-.043-.285A.285.285,0,0,0,.669,4.7a1.232,1.232,0,0,1,.242-.464h0c.046-.064.09-.125.126-.187.462-.007,1-.017,1.51-.053a9.425,9.425,0,0,0,1.437-.2,4.272,4.272,0,0,1,.688-.083h0a3.182,3.182,0,0,0,.785-.116A4.9,4.9,0,0,0,6.2,3.26h0c.143-.074.278-.144.418-.205.383-.169.772-.33,1.149-.487l.009,0c.216-.09.439-.183.656-.275.72-.305,1.459-.579,2.173-.844S12.033.916,12.742.617c.008-.039.071-.082.186-.129a2.98,2.98,0,0,1,.41-.124,4.54,4.54,0,0,1,.914-.13.651.651,0,0,1,.162.015C16.442.086,19.528,0,23.341,0c2.054,0,4.214.025,6.421.073,2.122.047,4.222.115,6.071.2,1.918.086,3.518.184,4.756.291a13.21,13.21,0,0,1,2.477.352c.513.187,1.77.845,2.474,1.22,1.048.559,2.015,1.1,2.344,1.3.2.122.406.24.607.355l0,0c.228.131.464.266.694.409.061.038.123.084.188.132a1.463,1.463,0,0,0,.463.264,6.159,6.159,0,0,0,.829.037h.626a27.465,27.465,0,0,1,3.322.192c.807.093,1.676.224,2.582.389,1.044.19,2.172.431,3.354.716.167.054.339.106.521.162h0a10.654,10.654,0,0,1,1.363.48,3.208,3.208,0,0,1,.578.335,1.757,1.757,0,0,1,.426.44,1.936,1.936,0,0,1,.238.88,6.9,6.9,0,0,1-.015,1.114,12.8,12.8,0,0,1-.195,1.378l.113,1.19a1.633,1.633,0,0,1-.137.308,1.36,1.36,0,0,1-.185.254.892.892,0,0,1-.273.2,2.23,2.23,0,0,1-.521.128c-.2.032-.444.061-.73.088-.483.045-.926.067-.931.067l-.228,0a4.019,4.019,0,1,0-7.672.16l-38.619.054ZM20.868.847l.6,4.116L38.44,4.922,37.231.9,20.868.847ZM10.861,2.528h0a.14.14,0,0,1-.017.044,1.4,1.4,0,0,0-.133.722,1.267,1.267,0,0,0,.2.558,2.077,2.077,0,0,0,.611.59,10.513,10.513,0,0,0,2.6.293c1.253.055,2.791.078,4.147.1.922.014,1.793.027,2.493.048-.109-.609-.219-1.325-.325-2.016v0c-.107-.693-.217-1.41-.326-2.019-7.016.011-8.936,1.405-9.249,1.685h0ZM39.1,4.88l6.688,0a1.275,1.275,0,0,1-.086-.467.726.726,0,0,1,.112-.391.615.615,0,0,1,.24-.211.96.96,0,0,1,.385-.093,11.98,11.98,0,0,0-1.347-.909,13.034,13.034,0,0,0-2.2-1.131,12.64,12.64,0,0,0-1.237-.328c-.384-.084-.809-.165-1.265-.24-.767-.127-1.356-.195-1.381-.2S37.806.861,37.765.857h0c.1.409.32,1.184.8,2.55.273.781.508,1.4.534,1.472h0ZM10.861,2.528a.241.241,0,0,0-.046.044C10.827,2.559,10.843,2.544,10.861,2.528Zm-.447,10.28a.15.15,0,1,1,.15-.15A.15.15,0,0,1,10.414,12.808Zm46.3-.015a.15.15,0,1,1,.15-.15A.15.15,0,0,1,56.718,12.793Zm-46.3-.582a.354.354,0,1,1,.354-.354A.354.354,0,0,1,10.414,12.211Zm46.3-.015a.354.354,0,1,1,.354-.354A.354.354,0,0,1,56.718,12.2Zm-45.5-.189a.15.15,0,1,1,.15-.15A.15.15,0,0,1,11.215,12.007Zm-1.6,0a.15.15,0,1,1,.15-.15A.15.15,0,0,1,9.613,12.007Zm47.905-.015a.15.15,0,1,1,.15-.15A.15.15,0,0,1,57.518,11.992Zm-1.6,0a.15.15,0,1,1,.15-.15A.15.15,0,0,1,55.917,11.992Zm-43.176-.533H11.525c-.013-.036-.028-.072-.044-.107l.86-.86a2.348,2.348,0,0,1,.4.966Zm-3.438,0H8.087a2.346,2.346,0,0,1,.4-.966l.859.859c-.016.034-.031.07-.044.107Zm49.742-.015H57.829c-.013-.035-.028-.071-.044-.107l.86-.859a2.347,2.347,0,0,1,.4.966Zm-3.438,0H54.391a2.347,2.347,0,0,1,.4-.966l.859.859c-.016.034-.031.07-.044.107Zm-45.192-.238a.15.15,0,1,1,.15-.15A.15.15,0,0,1,10.414,11.206Zm46.3-.015a.15.15,0,1,1,.15-.15A.15.15,0,0,1,56.718,11.191ZM9.91,10.79h0L9.05,9.931a2.347,2.347,0,0,1,.966-.4v1.215c-.035.013-.071.028-.107.045Zm1.009,0h0c-.035-.017-.071-.032-.107-.044V9.53a2.347,2.347,0,0,1,.966.4l-.859.86Zm45.295-.015h0l-.859-.859a2.347,2.347,0,0,1,.966-.4v1.215c-.035.013-.071.028-.107.044Zm1.009,0h0c-.036-.017-.072-.032-.107-.044V9.515a2.347,2.347,0,0,1,.966.4l-.859.859Z" transform="translate(0 0)"/>
        </g>
      </g>
      <g id="Layer_21" data-name="Layer 21" transform="translate(130.823 256.215)">
        <path id="Trazado_591" data-name="Trazado 591" d="M21.326,1a1.929,1.929,0,0,0-1.7,1.022A1.927,1.927,0,0,0,16,2.929V6.213h.453V2.927a1.473,1.473,0,0,1,2.946,0V3.72h.453V2.927a1.473,1.473,0,1,1,2.946,0V6.213h.453V2.927A1.929,1.929,0,0,0,21.326,1Z" transform="translate(-12.796 -1)" fill="#a1cdfb"/>
        <rect id="Rectángulo_127" data-name="Rectángulo 127" width="0.823" height="0.823" transform="translate(9.874 5.179)" fill="#a1cdfb"/>
        <rect id="Rectángulo_128" data-name="Rectángulo 128" width="0.823" height="1.646" transform="translate(3.291 5.179)" fill="#a1cdfb"/>
        <path id="Trazado_592" data-name="Trazado 592" d="M23,22l.907.907h2.266L27.08,22Z" transform="translate(-18.209 -17.241)" fill="#a8b0bc"/>
        <rect id="Rectángulo_129" data-name="Rectángulo 129" width="0.823" height="1.646" transform="translate(6.583 5.179)" fill="#c1c8d1"/>
        <path id="Trazado_593" data-name="Trazado 593" d="M20,36l.907.907h3.626L25.44,36Z" transform="translate(-15.889 -28.068)" fill="#c1c8d1"/>
        <rect id="Rectángulo_130" data-name="Rectángulo 130" width="1.646" height="1.646" transform="translate(5.76 8.47)" fill="#a8b0bc"/>
        <rect id="Rectángulo_131" data-name="Rectángulo 131" width="12.343" height="3.291" transform="translate(0.823 10.939)" fill="#c1c8d1"/>
        <rect id="Rectángulo_132" data-name="Rectángulo 132" width="13.989" height="0.823" transform="translate(0 13.407)" fill="#a1cdfb"/>
        <rect id="Rectángulo_133" data-name="Rectángulo 133" width="12.343" height="0.823" transform="translate(0.823 10.116)" fill="#a8b0bc"/>
        <rect id="Rectángulo_134" data-name="Rectángulo 134" width="5.76" height="0.823" transform="translate(4.114 6.824)" fill="#a8b0bc"/>
        <rect id="Rectángulo_135" data-name="Rectángulo 135" width="4.937" height="0.823" transform="translate(4.114 3.533)" fill="#c1c8d1"/>
        <path id="Trazado_594" data-name="Trazado 594" d="M28.122,13.354a.907.907,0,1,1,1.568,0Z" transform="translate(-22.076 -9.502)" fill="#64adf9"/>
        <path id="Trazado_595" data-name="Trazado 595" d="M6,50v1.89a8.354,8.354,0,0,0,2.493.376A7.633,7.633,0,0,0,14.071,50Z" transform="translate(-5.062 -38.894)" fill="#cdd3da"/>
        <path id="Trazado_596" data-name="Trazado 596" d="M13.218,46H4v.907h8.524A5.863,5.863,0,0,0,13.218,46Z" transform="translate(-3.515 -35.801)" fill="#b9c0c9"/>
      </g>
      <g id="iconfinder_21_5027815" transform="translate(110.997 258.271)">
        <path id="Trazado_584" data-name="Trazado 584" d="M1.13,4.8A3.212,3.212,0,0,0,4.269,8.031h.039A3.822,3.822,0,0,0,8.131,4.208c0-.108-.007-.214-.016-.318H1.13Z" transform="translate(-1.13 -3.89)" fill="#f2c6dd"/>
        <g id="Grupo_535" data-name="Grupo 535" transform="translate(0.058 0.967)">
          <path id="Trazado_585" data-name="Trazado 585" d="M3.06,13.927H2.13V8.84h8.62v.933" transform="translate(-1.957 -8.667)" fill="#ff9d9c"/>
          <ellipse id="Elipse_105" data-name="Elipse 105" cx="2.096" cy="2.096" rx="2.096" ry="2.096" transform="translate(6.575 4.392)" fill="#e9f4bc"/>
          <path id="Trazado_586" data-name="Trazado 586" d="M13.738,16.169a2.082,2.082,0,0,1,1.158.35V12.88H6.17v5.368h5.472A2.1,2.1,0,0,1,13.738,16.169Z" transform="translate(-5.067 -11.777)" fill="#f2c6dd"/>
          <path id="Trazado_587" data-name="Trazado 587" d="M16.516,18.947a2.185,2.185,0,0,1,.327.028V17.114a.623.623,0,0,1-.624-.624H10.4a.623.623,0,0,1-.622.624v2.457a.623.623,0,0,1,.622.624h4.2A2.094,2.094,0,0,1,16.516,18.947Z" transform="translate(-7.845 -14.555)" fill="#fff"/>
          <g id="Grupo_534" data-name="Grupo 534" transform="translate(0)">
            <path id="Trazado_588" data-name="Trazado 588" d="M36.913,31.063a.288.288,0,0,1,.288.288.173.173,0,1,0,.345,0,.633.633,0,0,0-.461-.606v-.092a.173.173,0,1,0-.345,0v.092a.631.631,0,0,0,.173,1.239.288.288,0,1,1-.288.288.173.173,0,1,0-.345,0,.633.633,0,0,0,.461.606v.092a.173.173,0,0,0,.345,0v-.092a.631.631,0,0,0-.173-1.239.288.288,0,0,1,0-.576Z" transform="translate(-28.243 -25.324)" fill="#505050"/>
            <path id="Trazado_589" data-name="Trazado 589" d="M22.947,19.552a.3.3,0,0,1,.3.3.173.173,0,1,0,.345,0,.648.648,0,0,0-.474-.622v-.1a.173.173,0,0,0-.345,0v.1a.646.646,0,0,0,.173,1.269.3.3,0,1,1-.3.3.173.173,0,0,0-.345,0,.648.648,0,0,0,.474.622v.1a.173.173,0,0,0,.345,0v-.1a.646.646,0,0,0-.173-1.269.3.3,0,1,1,0-.6Z" transform="translate(-17.482 -16.457)" fill="#505050"/>
            <path id="Trazado_590" data-name="Trazado 590" d="M11.382,12.744V9.193a.173.173,0,0,0-.051-.122.177.177,0,0,0-.122-.051h-.864V8.263a.174.174,0,0,0-.173-.173H1.553a.174.174,0,0,0-.173.173V13.35a.174.174,0,0,0,.173.173H2.31v1.039a.173.173,0,0,0,.051.122.177.177,0,0,0,.122.051H7.789a2.267,2.267,0,1,0,3.593-1.99ZM2.656,9.366H4.482a.173.173,0,1,0,0-.345h-2a.173.173,0,0,0-.173.173v3.984H1.725V8.435H10V9.02H5.4a.173.173,0,1,0,0,.345h5.633v3.171a2.212,2.212,0,0,0-.486-.17V10.649a.174.174,0,0,0-.173-.173.452.452,0,0,1-.451-.451.174.174,0,0,0-.173-.173H3.936a.174.174,0,0,0-.173.173.452.452,0,0,1-.449.451.174.174,0,0,0-.173.173v2.457a.174.174,0,0,0,.173.173.45.45,0,0,1,.449.451.174.174,0,0,0,.173.173H7.884a2.266,2.266,0,0,0-.092.486H2.656Zm5.371,4.191H4.091a.8.8,0,0,0-.6-.606V10.8a.8.8,0,0,0,.6-.606H9.6a.8.8,0,0,0,.606.606v1.515c-.051,0-.1-.007-.154-.007A2.268,2.268,0,0,0,8.026,13.557ZM10.051,16.5a1.923,1.923,0,1,1,1.923-1.923A1.926,1.926,0,0,1,10.051,16.5Z" transform="translate(-1.38 -8.09)" fill="#505050"/>
            <ellipse id="Elipse_106" data-name="Elipse 106" cx="0.173" cy="0.173" rx="0.173" ry="0.173" transform="translate(3.39 0.93)" fill="#505050"/>
          </g>
        </g>
      </g>
      <g id="iconfinder_Untitled-1-10_2419683" transform="translate(153.533 256.215)">
        <path id="Sustracción_5" data-name="Sustracción 5" d="M11.571,12.128H8.93V3.356H8.4v8.772H3.174V3.356H2.641v8.772H0V3.356H.521V1.708h.533V.885H2.108L5.816,0l3.7.885H10.5v.824h.533V3.356h.533v8.772ZM9.717,10.553v1.1h.461v-1.1Zm-2.447,0v1.1h.267v-1.1ZM4,10.553v1.1h.424v-1.1Zm-2.484,0v1.1h.267v-1.1Zm8.2-2.193v1.1h.461V8.36ZM4,8.36v1.1h.424V8.36Zm3.271-.012v1.1h.267v-1.1Zm-5.755,0v1.1h.267v-1.1Zm8.2-2.181V7.258h.461V6.167Zm-2.447,0V7.258h.267V6.167ZM4,6.167V7.258h.424V6.167Zm-2.484,0V7.258h.267V6.167Zm8.2-2.193v1.1h.461v-1.1Zm-2.447,0v1.1h.267v-1.1ZM4,3.974v1.1h.424v-1.1Zm-2.484,0v1.1h.267v-1.1ZM6.709,1.151a.181.181,0,0,0-.185.185V3.086a.187.187,0,0,0,.048.132.16.16,0,0,0,.124.053.164.164,0,0,0,.127-.053.187.187,0,0,0,.049-.132V2.514H7.4a.524.524,0,0,0,.3-.093A.706.706,0,0,0,8,1.833a.708.708,0,0,0-.085-.345A.685.685,0,0,0,7.7,1.242a.529.529,0,0,0-.3-.091Zm-.824,0a.191.191,0,0,0-.139.053.176.176,0,0,0-.055.132V3.086a.178.178,0,0,0,.188.185.191.191,0,0,0,.133-.053.171.171,0,0,0,.058-.132V1.336A.175.175,0,0,0,6.014,1.2.181.181,0,0,0,5.885,1.151Zm-2.2-.009a.208.208,0,0,0-.121.047.158.158,0,0,0-.064.135.247.247,0,0,0,0,.038.121.121,0,0,0,.012.038l.748,1.757a.186.186,0,0,0,.07.083.2.2,0,0,0,.094.032.2.2,0,0,0,.1-.029.19.19,0,0,0,.077-.089L5.355,1.4a.209.209,0,0,0,.018-.082A.161.161,0,0,0,5.317,1.2a.193.193,0,0,0-.132-.05.173.173,0,0,0-.166.115L4.461,2.691,3.853,1.26A.174.174,0,0,0,3.686,1.142ZM7.4,2.169H6.873V1.5H7.4a.17.17,0,0,1,.112.047.371.371,0,0,1,.091.123.375.375,0,0,1,.036.163.379.379,0,0,1-.036.162.386.386,0,0,1-.091.126A.167.167,0,0,1,7.4,2.169Z" transform="translate(0.533 0)" fill="#60646b"/>
        <rect id="Rectángulo_136" data-name="Rectángulo 136" width="12.685" height="0.533" transform="translate(0 12.528)" fill="#60646b"/>
      </g>
      <g id="Elipse_123" data-name="Elipse 123" transform="translate(106.96 253.166)" fill="none" stroke="#c08cb8" stroke-width="0.5">
        <ellipse cx="9.051" cy="9.463" rx="9.051" ry="9.463" stroke="none"/>
        <ellipse cx="9.051" cy="9.463" rx="8.801" ry="9.213" fill="none"/>
      </g>
      <g id="Elipse_124" data-name="Elipse 124" transform="translate(128.355 253.166)" fill="none" stroke="#c08cb8" stroke-width="0.5">
        <ellipse cx="9.463" cy="9.463" rx="9.463" ry="9.463" stroke="none"/>
        <ellipse cx="9.463" cy="9.463" rx="9.213" ry="9.213" fill="none"/>
      </g>
      <g id="Elipse_125" data-name="Elipse 125" transform="translate(150.572 253.166)" fill="none" stroke="#c08cb8" stroke-width="0.5">
        <ellipse cx="9.463" cy="9.463" rx="9.463" ry="9.463" stroke="none"/>
        <ellipse cx="9.463" cy="9.463" rx="9.213" ry="9.213" fill="none"/>
      </g>
      <g id="Rectángulo_205" data-name="Rectángulo 205" transform="translate(97.424 304.439) rotate(-90)" fill="#fff" stroke="#000" stroke-width="1">
        <rect width="7.665" height="72.074" stroke="none"/>
        <rect x="0.5" y="0.5" width="6.665" height="71.074" fill="none"/>
      </g>
      <line id="Línea_53" data-name="Línea 53" y1="64.656" transform="translate(100.151 300.927) rotate(-90)" fill="none" stroke="#000" stroke-width="1" stroke-dasharray="3"/>
    </g>
    <g id="Grupo_625" data-name="Grupo 625">
      <path id="Trazado_675-2" data-name="Trazado 675" d="M.574,0A.886.886,0,0,1-.07-.245.815.815,0,0,1-.322-.854V-7.91l.2.308-1.064.644a.856.856,0,0,1-.448.126.764.764,0,0,1-.6-.273.872.872,0,0,1-.238-.581.8.8,0,0,1,.434-.728L.07-9.674a1.279,1.279,0,0,1,.6-.126.781.781,0,0,1,.6.245.853.853,0,0,1,.231.609V-.854a.8.8,0,0,1-.259.609A.929.929,0,0,1,.574,0Z" transform="translate(101 268)"/>
      <g id="Shape_1-2" data-name="Shape_1" transform="translate(106 279.01)">
        <g id="Grupo_533-2" data-name="Grupo 533" transform="translate(0 0)">
          <path id="Sustracción_4-2" data-name="Sustracción 4" d="M10.414,15.722a3.846,3.846,0,0,1-2.161-.66,3.876,3.876,0,0,1-1.4-1.7A3.859,3.859,0,0,1,7.209,9.7a3.876,3.876,0,0,1,1.7-1.4,3.86,3.86,0,0,1,3.665.356,3.876,3.876,0,0,1,1.4,1.7,3.86,3.86,0,0,1-.356,3.665,3.876,3.876,0,0,1-1.7,1.4A3.841,3.841,0,0,1,10.414,15.722Zm0-6.625a2.752,2.752,0,1,0,1.075.217A2.743,2.743,0,0,0,10.414,9.1Zm46.3,6.611a3.847,3.847,0,0,1-2.161-.66,3.876,3.876,0,0,1-1.4-1.7,3.86,3.86,0,0,1,.356-3.665,3.876,3.876,0,0,1,1.7-1.4,3.86,3.86,0,0,1,3.665.356,3.876,3.876,0,0,1,1.4,1.7A3.86,3.86,0,0,1,59.922,14a3.876,3.876,0,0,1-1.7,1.4A3.84,3.84,0,0,1,56.718,15.707Zm0-6.625a2.752,2.752,0,1,0,1.075.217A2.743,2.743,0,0,0,56.718,9.082Zm-45.906,5.1h0V12.968a1.152,1.152,0,0,0,.107-.045l.859.859a2.347,2.347,0,0,1-.966.4Zm-.8,0h0a2.347,2.347,0,0,1-.966-.4l.859-.859a1.147,1.147,0,0,0,.107.044v1.215Zm47.1-.015h0V12.953a1.131,1.131,0,0,0,.107-.045l.86.86a2.349,2.349,0,0,1-.966.4Zm-.8,0h0a2.348,2.348,0,0,1-.966-.4l.859-.859a1.151,1.151,0,0,0,.107.044v1.216Zm-43.98-.948h0l-.859-.859c.016-.034.031-.07.044-.107h1.216a2.348,2.348,0,0,1-.4.966Zm-3.853,0h0a2.348,2.348,0,0,1-.4-.966H9.3c.013.036.028.071.044.107l-.859.86Zm50.156-.015h0l-.859-.859c.016-.035.031-.071.044-.107h1.216a2.347,2.347,0,0,1-.4.966Zm-3.853,0h0a2.348,2.348,0,0,1-.4-.966h1.215a1.141,1.141,0,0,0,.044.107l-.859.86Zm-40.5-.028h0a6.047,6.047,0,0,0,.146-1.321,4,4,0,0,0-.686-2.247,4.031,4.031,0,0,0-1.769-1.456,4.014,4.014,0,0,0-3.812.371A4.031,4.031,0,0,0,6.71,10.292a3.994,3.994,0,0,0-.316,1.565,4.055,4.055,0,0,0,.052.647l-.223-.012c-.011,0-1.069-.032-2.223-.139-.676-.063-1.249-.138-1.7-.225a3.168,3.168,0,0,1-1.146-.373c-.108-.031-.161-.138-.212-.241a.914.914,0,0,0-.071-.127,3.06,3.06,0,0,0-.708-.68,3.611,3.611,0,0,0-.08-.534C.054,10.053.031,9.94.017,9.827l.057-.255A5.071,5.071,0,0,1,0,8.8a3.916,3.916,0,0,1,.057-.76A2.085,2.085,0,0,1,.271,7.4a.971.971,0,0,1,.4-.408c0-.131,0-.261-.006-.386h0A2.547,2.547,0,0,1,.9,5.123a.571.571,0,0,0-.043-.285A.285.285,0,0,0,.669,4.7a1.232,1.232,0,0,1,.242-.464h0c.046-.064.09-.125.126-.187.462-.007,1-.017,1.51-.053a9.425,9.425,0,0,0,1.437-.2,4.272,4.272,0,0,1,.688-.083h0a3.182,3.182,0,0,0,.785-.116A4.9,4.9,0,0,0,6.2,3.26h0c.143-.074.278-.144.418-.205.383-.169.772-.33,1.149-.487l.009,0c.216-.09.439-.183.656-.275.72-.305,1.459-.579,2.173-.844S12.033.916,12.742.617c.008-.039.071-.082.186-.129a2.98,2.98,0,0,1,.41-.124,4.54,4.54,0,0,1,.914-.13.651.651,0,0,1,.162.015C16.442.086,19.528,0,23.341,0c2.054,0,4.214.025,6.421.073,2.122.047,4.222.115,6.071.2,1.918.086,3.518.184,4.756.291a13.21,13.21,0,0,1,2.477.352c.513.187,1.77.845,2.474,1.22,1.048.559,2.015,1.1,2.344,1.3.2.122.406.24.607.355l0,0c.228.131.464.266.694.409.061.038.123.084.188.132a1.463,1.463,0,0,0,.463.264,6.159,6.159,0,0,0,.829.037h.626a27.465,27.465,0,0,1,3.322.192c.807.093,1.676.224,2.582.389,1.044.19,2.172.431,3.354.716.167.054.339.106.521.162h0a10.654,10.654,0,0,1,1.363.48,3.208,3.208,0,0,1,.578.335,1.757,1.757,0,0,1,.426.44,1.936,1.936,0,0,1,.238.88,6.9,6.9,0,0,1-.015,1.114,12.8,12.8,0,0,1-.195,1.378l.113,1.19a1.633,1.633,0,0,1-.137.308,1.36,1.36,0,0,1-.185.254.892.892,0,0,1-.273.2,2.23,2.23,0,0,1-.521.128c-.2.032-.444.061-.73.088-.483.045-.926.067-.931.067l-.228,0a4.019,4.019,0,1,0-7.672.16l-38.619.054ZM20.868.847l.6,4.116L38.44,4.922,37.231.9,20.868.847ZM10.861,2.528h0a.14.14,0,0,1-.017.044,1.4,1.4,0,0,0-.133.722,1.267,1.267,0,0,0,.2.558,2.077,2.077,0,0,0,.611.59,10.513,10.513,0,0,0,2.6.293c1.253.055,2.791.078,4.147.1.922.014,1.793.027,2.493.048-.109-.609-.219-1.325-.325-2.016v0c-.107-.693-.217-1.41-.326-2.019-7.016.011-8.936,1.405-9.249,1.685h0ZM39.1,4.88l6.688,0a1.275,1.275,0,0,1-.086-.467.726.726,0,0,1,.112-.391.615.615,0,0,1,.24-.211.96.96,0,0,1,.385-.093,11.98,11.98,0,0,0-1.347-.909,13.034,13.034,0,0,0-2.2-1.131,12.64,12.64,0,0,0-1.237-.328c-.384-.084-.809-.165-1.265-.24-.767-.127-1.356-.195-1.381-.2S37.806.861,37.765.857h0c.1.409.32,1.184.8,2.55.273.781.508,1.4.534,1.472h0ZM10.861,2.528a.241.241,0,0,0-.046.044C10.827,2.559,10.843,2.544,10.861,2.528Zm-.447,10.28a.15.15,0,1,1,.15-.15A.15.15,0,0,1,10.414,12.808Zm46.3-.015a.15.15,0,1,1,.15-.15A.15.15,0,0,1,56.718,12.793Zm-46.3-.582a.354.354,0,1,1,.354-.354A.354.354,0,0,1,10.414,12.211Zm46.3-.015a.354.354,0,1,1,.354-.354A.354.354,0,0,1,56.718,12.2Zm-45.5-.189a.15.15,0,1,1,.15-.15A.15.15,0,0,1,11.215,12.007Zm-1.6,0a.15.15,0,1,1,.15-.15A.15.15,0,0,1,9.613,12.007Zm47.905-.015a.15.15,0,1,1,.15-.15A.15.15,0,0,1,57.518,11.992Zm-1.6,0a.15.15,0,1,1,.15-.15A.15.15,0,0,1,55.917,11.992Zm-43.176-.533H11.525c-.013-.036-.028-.072-.044-.107l.86-.86a2.348,2.348,0,0,1,.4.966Zm-3.438,0H8.087a2.346,2.346,0,0,1,.4-.966l.859.859c-.016.034-.031.07-.044.107Zm49.742-.015H57.829c-.013-.035-.028-.071-.044-.107l.86-.859a2.347,2.347,0,0,1,.4.966Zm-3.438,0H54.391a2.347,2.347,0,0,1,.4-.966l.859.859c-.016.034-.031.07-.044.107Zm-45.192-.238a.15.15,0,1,1,.15-.15A.15.15,0,0,1,10.414,11.206Zm46.3-.015a.15.15,0,1,1,.15-.15A.15.15,0,0,1,56.718,11.191ZM9.91,10.79h0L9.05,9.931a2.347,2.347,0,0,1,.966-.4v1.215c-.035.013-.071.028-.107.045Zm1.009,0h0c-.035-.017-.071-.032-.107-.044V9.53a2.347,2.347,0,0,1,.966.4l-.859.86Zm45.295-.015h0l-.859-.859a2.347,2.347,0,0,1,.966-.4v1.215c-.035.013-.071.028-.107.044Zm1.009,0h0c-.036-.017-.072-.032-.107-.044V9.515a2.347,2.347,0,0,1,.966.4l-.859.859Z" transform="translate(0 0)"/>
        </g>
      </g>
      <g id="Layer_21-2" data-name="Layer 21" transform="translate(130.823 256.215)">
        <path id="Trazado_591-2" data-name="Trazado 591" d="M21.326,1a1.929,1.929,0,0,0-1.7,1.022A1.927,1.927,0,0,0,16,2.929V6.213h.453V2.927a1.473,1.473,0,0,1,2.946,0V3.72h.453V2.927a1.473,1.473,0,1,1,2.946,0V6.213h.453V2.927A1.929,1.929,0,0,0,21.326,1Z" transform="translate(-12.796 -1)" fill="#a1cdfb"/>
        <rect id="Rectángulo_127-2" data-name="Rectángulo 127" width="0.823" height="0.823" transform="translate(9.874 5.179)" fill="#a1cdfb"/>
        <rect id="Rectángulo_128-2" data-name="Rectángulo 128" width="0.823" height="1.646" transform="translate(3.291 5.179)" fill="#a1cdfb"/>
        <path id="Trazado_592-2" data-name="Trazado 592" d="M23,22l.907.907h2.266L27.08,22Z" transform="translate(-18.209 -17.241)" fill="#a8b0bc"/>
        <rect id="Rectángulo_129-2" data-name="Rectángulo 129" width="0.823" height="1.646" transform="translate(6.583 5.179)" fill="#c1c8d1"/>
        <path id="Trazado_593-2" data-name="Trazado 593" d="M20,36l.907.907h3.626L25.44,36Z" transform="translate(-15.889 -28.068)" fill="#c1c8d1"/>
        <rect id="Rectángulo_130-2" data-name="Rectángulo 130" width="1.646" height="1.646" transform="translate(5.76 8.47)" fill="#a8b0bc"/>
        <rect id="Rectángulo_131-2" data-name="Rectángulo 131" width="12.343" height="3.291" transform="translate(0.823 10.939)" fill="#c1c8d1"/>
        <rect id="Rectángulo_132-2" data-name="Rectángulo 132" width="13.989" height="0.823" transform="translate(0 13.407)" fill="#a1cdfb"/>
        <rect id="Rectángulo_133-2" data-name="Rectángulo 133" width="12.343" height="0.823" transform="translate(0.823 10.116)" fill="#a8b0bc"/>
        <rect id="Rectángulo_134-2" data-name="Rectángulo 134" width="5.76" height="0.823" transform="translate(4.114 6.824)" fill="#a8b0bc"/>
        <rect id="Rectángulo_135-2" data-name="Rectángulo 135" width="4.937" height="0.823" transform="translate(4.114 3.533)" fill="#c1c8d1"/>
        <path id="Trazado_594-2" data-name="Trazado 594" d="M28.122,13.354a.907.907,0,1,1,1.568,0Z" transform="translate(-22.076 -9.502)" fill="#64adf9"/>
        <path id="Trazado_595-2" data-name="Trazado 595" d="M6,50v1.89a8.354,8.354,0,0,0,2.493.376A7.633,7.633,0,0,0,14.071,50Z" transform="translate(-5.062 -38.894)" fill="#cdd3da"/>
        <path id="Trazado_596-2" data-name="Trazado 596" d="M13.218,46H4v.907h8.524A5.863,5.863,0,0,0,13.218,46Z" transform="translate(-3.515 -35.801)" fill="#b9c0c9"/>
      </g>
      <g id="iconfinder_21_5027815-2" data-name="iconfinder_21_5027815" transform="translate(110.997 258.271)">
        <path id="Trazado_584-2" data-name="Trazado 584" d="M1.13,4.8A3.212,3.212,0,0,0,4.269,8.031h.039A3.822,3.822,0,0,0,8.131,4.208c0-.108-.007-.214-.016-.318H1.13Z" transform="translate(-1.13 -3.89)" fill="#f2c6dd"/>
        <g id="Grupo_535-2" data-name="Grupo 535" transform="translate(0.058 0.967)">
          <path id="Trazado_585-2" data-name="Trazado 585" d="M3.06,13.927H2.13V8.84h8.62v.933" transform="translate(-1.957 -8.667)" fill="#ff9d9c"/>
          <ellipse id="Elipse_105-2" data-name="Elipse 105" cx="2.096" cy="2.096" rx="2.096" ry="2.096" transform="translate(6.575 4.392)" fill="#e9f4bc"/>
          <path id="Trazado_586-2" data-name="Trazado 586" d="M13.738,16.169a2.082,2.082,0,0,1,1.158.35V12.88H6.17v5.368h5.472A2.1,2.1,0,0,1,13.738,16.169Z" transform="translate(-5.067 -11.777)" fill="#f2c6dd"/>
          <path id="Trazado_587-2" data-name="Trazado 587" d="M16.516,18.947a2.185,2.185,0,0,1,.327.028V17.114a.623.623,0,0,1-.624-.624H10.4a.623.623,0,0,1-.622.624v2.457a.623.623,0,0,1,.622.624h4.2A2.094,2.094,0,0,1,16.516,18.947Z" transform="translate(-7.845 -14.555)" fill="#fff"/>
          <g id="Grupo_534-2" data-name="Grupo 534" transform="translate(0)">
            <path id="Trazado_588-2" data-name="Trazado 588" d="M36.913,31.063a.288.288,0,0,1,.288.288.173.173,0,1,0,.345,0,.633.633,0,0,0-.461-.606v-.092a.173.173,0,1,0-.345,0v.092a.631.631,0,0,0,.173,1.239.288.288,0,1,1-.288.288.173.173,0,1,0-.345,0,.633.633,0,0,0,.461.606v.092a.173.173,0,0,0,.345,0v-.092a.631.631,0,0,0-.173-1.239.288.288,0,0,1,0-.576Z" transform="translate(-28.243 -25.324)" fill="#505050"/>
            <path id="Trazado_589-2" data-name="Trazado 589" d="M22.947,19.552a.3.3,0,0,1,.3.3.173.173,0,1,0,.345,0,.648.648,0,0,0-.474-.622v-.1a.173.173,0,0,0-.345,0v.1a.646.646,0,0,0,.173,1.269.3.3,0,1,1-.3.3.173.173,0,0,0-.345,0,.648.648,0,0,0,.474.622v.1a.173.173,0,0,0,.345,0v-.1a.646.646,0,0,0-.173-1.269.3.3,0,1,1,0-.6Z" transform="translate(-17.482 -16.457)" fill="#505050"/>
            <path id="Trazado_590-2" data-name="Trazado 590" d="M11.382,12.744V9.193a.173.173,0,0,0-.051-.122.177.177,0,0,0-.122-.051h-.864V8.263a.174.174,0,0,0-.173-.173H1.553a.174.174,0,0,0-.173.173V13.35a.174.174,0,0,0,.173.173H2.31v1.039a.173.173,0,0,0,.051.122.177.177,0,0,0,.122.051H7.789a2.267,2.267,0,1,0,3.593-1.99ZM2.656,9.366H4.482a.173.173,0,1,0,0-.345h-2a.173.173,0,0,0-.173.173v3.984H1.725V8.435H10V9.02H5.4a.173.173,0,1,0,0,.345h5.633v3.171a2.212,2.212,0,0,0-.486-.17V10.649a.174.174,0,0,0-.173-.173.452.452,0,0,1-.451-.451.174.174,0,0,0-.173-.173H3.936a.174.174,0,0,0-.173.173.452.452,0,0,1-.449.451.174.174,0,0,0-.173.173v2.457a.174.174,0,0,0,.173.173.45.45,0,0,1,.449.451.174.174,0,0,0,.173.173H7.884a2.266,2.266,0,0,0-.092.486H2.656Zm5.371,4.191H4.091a.8.8,0,0,0-.6-.606V10.8a.8.8,0,0,0,.6-.606H9.6a.8.8,0,0,0,.606.606v1.515c-.051,0-.1-.007-.154-.007A2.268,2.268,0,0,0,8.026,13.557ZM10.051,16.5a1.923,1.923,0,1,1,1.923-1.923A1.926,1.926,0,0,1,10.051,16.5Z" transform="translate(-1.38 -8.09)" fill="#505050"/>
            <ellipse id="Elipse_106-2" data-name="Elipse 106" cx="0.173" cy="0.173" rx="0.173" ry="0.173" transform="translate(3.39 0.93)" fill="#505050"/>
          </g>
        </g>
      </g>
      <g id="iconfinder_Untitled-1-10_2419683-2" data-name="iconfinder_Untitled-1-10_2419683" transform="translate(153.533 256.215)">
        <path id="Sustracción_5-2" data-name="Sustracción 5" d="M11.571,12.128H8.93V3.356H8.4v8.772H3.174V3.356H2.641v8.772H0V3.356H.521V1.708h.533V.885H2.108L5.816,0l3.7.885H10.5v.824h.533V3.356h.533v8.772ZM9.717,10.553v1.1h.461v-1.1Zm-2.447,0v1.1h.267v-1.1ZM4,10.553v1.1h.424v-1.1Zm-2.484,0v1.1h.267v-1.1Zm8.2-2.193v1.1h.461V8.36ZM4,8.36v1.1h.424V8.36Zm3.271-.012v1.1h.267v-1.1Zm-5.755,0v1.1h.267v-1.1Zm8.2-2.181V7.258h.461V6.167Zm-2.447,0V7.258h.267V6.167ZM4,6.167V7.258h.424V6.167Zm-2.484,0V7.258h.267V6.167Zm8.2-2.193v1.1h.461v-1.1Zm-2.447,0v1.1h.267v-1.1ZM4,3.974v1.1h.424v-1.1Zm-2.484,0v1.1h.267v-1.1ZM6.709,1.151a.181.181,0,0,0-.185.185V3.086a.187.187,0,0,0,.048.132.16.16,0,0,0,.124.053.164.164,0,0,0,.127-.053.187.187,0,0,0,.049-.132V2.514H7.4a.524.524,0,0,0,.3-.093A.706.706,0,0,0,8,1.833a.708.708,0,0,0-.085-.345A.685.685,0,0,0,7.7,1.242a.529.529,0,0,0-.3-.091Zm-.824,0a.191.191,0,0,0-.139.053.176.176,0,0,0-.055.132V3.086a.178.178,0,0,0,.188.185.191.191,0,0,0,.133-.053.171.171,0,0,0,.058-.132V1.336A.175.175,0,0,0,6.014,1.2.181.181,0,0,0,5.885,1.151Zm-2.2-.009a.208.208,0,0,0-.121.047.158.158,0,0,0-.064.135.247.247,0,0,0,0,.038.121.121,0,0,0,.012.038l.748,1.757a.186.186,0,0,0,.07.083.2.2,0,0,0,.094.032.2.2,0,0,0,.1-.029.19.19,0,0,0,.077-.089L5.355,1.4a.209.209,0,0,0,.018-.082A.161.161,0,0,0,5.317,1.2a.193.193,0,0,0-.132-.05.173.173,0,0,0-.166.115L4.461,2.691,3.853,1.26A.174.174,0,0,0,3.686,1.142ZM7.4,2.169H6.873V1.5H7.4a.17.17,0,0,1,.112.047.371.371,0,0,1,.091.123.375.375,0,0,1,.036.163.379.379,0,0,1-.036.162.386.386,0,0,1-.091.126A.167.167,0,0,1,7.4,2.169Z" transform="translate(0.533 0)" fill="#60646b"/>
        <rect id="Rectángulo_136-2" data-name="Rectángulo 136" width="12.685" height="0.533" transform="translate(0 12.528)" fill="#60646b"/>
      </g>
      <g id="Elipse_123-2" data-name="Elipse 123" transform="translate(106.96 253.166)" fill="none" stroke="#c08cb8" stroke-width="0.5">
        <ellipse cx="9.051" cy="9.463" rx="9.051" ry="9.463" stroke="none"/>
        <ellipse cx="9.051" cy="9.463" rx="8.801" ry="9.213" fill="none"/>
      </g>
      <g id="Elipse_124-2" data-name="Elipse 124" transform="translate(128.355 253.166)" fill="none" stroke="#c08cb8" stroke-width="0.5">
        <ellipse cx="9.463" cy="9.463" rx="9.463" ry="9.463" stroke="none"/>
        <ellipse cx="9.463" cy="9.463" rx="9.213" ry="9.213" fill="none"/>
      </g>
      <g id="Elipse_125-2" data-name="Elipse 125" transform="translate(150.572 253.166)" fill="none" stroke="#c08cb8" stroke-width="0.5">
        <ellipse cx="9.463" cy="9.463" rx="9.463" ry="9.463" stroke="none"/>
        <ellipse cx="9.463" cy="9.463" rx="9.213" ry="9.213" fill="none"/>
      </g>
      <g id="Rectángulo_205-2" data-name="Rectángulo 205" transform="translate(97.424 304.439) rotate(-90)" fill="#fff" stroke="#000" stroke-width="1">
        <rect width="7.665" height="72.074" stroke="none"/>
        <rect x="0.5" y="0.5" width="6.665" height="71.074" fill="none"/>
      </g>
      <line id="Línea_53-2" data-name="Línea 53" y1="64.656" transform="translate(100.151 300.927) rotate(-90)" fill="none" stroke="#000" stroke-width="1" stroke-dasharray="3"/>
      <line id="Línea_54" data-name="Línea 54" y1="14" x2="3" transform="translate(125.5 255.5)" fill="none" stroke="#707070" stroke-width="1"/>
      <line id="Línea_55" data-name="Línea 55" y1="15" x2="3" transform="translate(147.5 255.5)" fill="none" stroke="#707070" stroke-width="1"/>
    </g>
    <g id="Grupo_626" data-name="Grupo 626" transform="translate(85)">
      <path id="Trazado_675-3" data-name="Trazado 675" d="M.574,0A.886.886,0,0,1-.07-.245.815.815,0,0,1-.322-.854V-7.91l.2.308-1.064.644a.856.856,0,0,1-.448.126.764.764,0,0,1-.6-.273.872.872,0,0,1-.238-.581.8.8,0,0,1,.434-.728L.07-9.674a1.279,1.279,0,0,1,.6-.126.781.781,0,0,1,.6.245.853.853,0,0,1,.231.609V-.854a.8.8,0,0,1-.259.609A.929.929,0,0,1,.574,0Z" transform="translate(101 268)"/>
      <g id="Shape_1-3" data-name="Shape_1" transform="translate(106 279.01)">
        <g id="Grupo_533-3" data-name="Grupo 533" transform="translate(0 0)">
          <path id="Sustracción_4-3" data-name="Sustracción 4" d="M10.414,15.722a3.846,3.846,0,0,1-2.161-.66,3.876,3.876,0,0,1-1.4-1.7A3.859,3.859,0,0,1,7.209,9.7a3.876,3.876,0,0,1,1.7-1.4,3.86,3.86,0,0,1,3.665.356,3.876,3.876,0,0,1,1.4,1.7,3.86,3.86,0,0,1-.356,3.665,3.876,3.876,0,0,1-1.7,1.4A3.841,3.841,0,0,1,10.414,15.722Zm0-6.625a2.752,2.752,0,1,0,1.075.217A2.743,2.743,0,0,0,10.414,9.1Zm46.3,6.611a3.847,3.847,0,0,1-2.161-.66,3.876,3.876,0,0,1-1.4-1.7,3.86,3.86,0,0,1,.356-3.665,3.876,3.876,0,0,1,1.7-1.4,3.86,3.86,0,0,1,3.665.356,3.876,3.876,0,0,1,1.4,1.7A3.86,3.86,0,0,1,59.922,14a3.876,3.876,0,0,1-1.7,1.4A3.84,3.84,0,0,1,56.718,15.707Zm0-6.625a2.752,2.752,0,1,0,1.075.217A2.743,2.743,0,0,0,56.718,9.082Zm-45.906,5.1h0V12.968a1.152,1.152,0,0,0,.107-.045l.859.859a2.347,2.347,0,0,1-.966.4Zm-.8,0h0a2.347,2.347,0,0,1-.966-.4l.859-.859a1.147,1.147,0,0,0,.107.044v1.215Zm47.1-.015h0V12.953a1.131,1.131,0,0,0,.107-.045l.86.86a2.349,2.349,0,0,1-.966.4Zm-.8,0h0a2.348,2.348,0,0,1-.966-.4l.859-.859a1.151,1.151,0,0,0,.107.044v1.216Zm-43.98-.948h0l-.859-.859c.016-.034.031-.07.044-.107h1.216a2.348,2.348,0,0,1-.4.966Zm-3.853,0h0a2.348,2.348,0,0,1-.4-.966H9.3c.013.036.028.071.044.107l-.859.86Zm50.156-.015h0l-.859-.859c.016-.035.031-.071.044-.107h1.216a2.347,2.347,0,0,1-.4.966Zm-3.853,0h0a2.348,2.348,0,0,1-.4-.966h1.215a1.141,1.141,0,0,0,.044.107l-.859.86Zm-40.5-.028h0a6.047,6.047,0,0,0,.146-1.321,4,4,0,0,0-.686-2.247,4.031,4.031,0,0,0-1.769-1.456,4.014,4.014,0,0,0-3.812.371A4.031,4.031,0,0,0,6.71,10.292a3.994,3.994,0,0,0-.316,1.565,4.055,4.055,0,0,0,.052.647l-.223-.012c-.011,0-1.069-.032-2.223-.139-.676-.063-1.249-.138-1.7-.225a3.168,3.168,0,0,1-1.146-.373c-.108-.031-.161-.138-.212-.241a.914.914,0,0,0-.071-.127,3.06,3.06,0,0,0-.708-.68,3.611,3.611,0,0,0-.08-.534C.054,10.053.031,9.94.017,9.827l.057-.255A5.071,5.071,0,0,1,0,8.8a3.916,3.916,0,0,1,.057-.76A2.085,2.085,0,0,1,.271,7.4a.971.971,0,0,1,.4-.408c0-.131,0-.261-.006-.386h0A2.547,2.547,0,0,1,.9,5.123a.571.571,0,0,0-.043-.285A.285.285,0,0,0,.669,4.7a1.232,1.232,0,0,1,.242-.464h0c.046-.064.09-.125.126-.187.462-.007,1-.017,1.51-.053a9.425,9.425,0,0,0,1.437-.2,4.272,4.272,0,0,1,.688-.083h0a3.182,3.182,0,0,0,.785-.116A4.9,4.9,0,0,0,6.2,3.26h0c.143-.074.278-.144.418-.205.383-.169.772-.33,1.149-.487l.009,0c.216-.09.439-.183.656-.275.72-.305,1.459-.579,2.173-.844S12.033.916,12.742.617c.008-.039.071-.082.186-.129a2.98,2.98,0,0,1,.41-.124,4.54,4.54,0,0,1,.914-.13.651.651,0,0,1,.162.015C16.442.086,19.528,0,23.341,0c2.054,0,4.214.025,6.421.073,2.122.047,4.222.115,6.071.2,1.918.086,3.518.184,4.756.291a13.21,13.21,0,0,1,2.477.352c.513.187,1.77.845,2.474,1.22,1.048.559,2.015,1.1,2.344,1.3.2.122.406.24.607.355l0,0c.228.131.464.266.694.409.061.038.123.084.188.132a1.463,1.463,0,0,0,.463.264,6.159,6.159,0,0,0,.829.037h.626a27.465,27.465,0,0,1,3.322.192c.807.093,1.676.224,2.582.389,1.044.19,2.172.431,3.354.716.167.054.339.106.521.162h0a10.654,10.654,0,0,1,1.363.48,3.208,3.208,0,0,1,.578.335,1.757,1.757,0,0,1,.426.44,1.936,1.936,0,0,1,.238.88,6.9,6.9,0,0,1-.015,1.114,12.8,12.8,0,0,1-.195,1.378l.113,1.19a1.633,1.633,0,0,1-.137.308,1.36,1.36,0,0,1-.185.254.892.892,0,0,1-.273.2,2.23,2.23,0,0,1-.521.128c-.2.032-.444.061-.73.088-.483.045-.926.067-.931.067l-.228,0a4.019,4.019,0,1,0-7.672.16l-38.619.054ZM20.868.847l.6,4.116L38.44,4.922,37.231.9,20.868.847ZM10.861,2.528h0a.14.14,0,0,1-.017.044,1.4,1.4,0,0,0-.133.722,1.267,1.267,0,0,0,.2.558,2.077,2.077,0,0,0,.611.59,10.513,10.513,0,0,0,2.6.293c1.253.055,2.791.078,4.147.1.922.014,1.793.027,2.493.048-.109-.609-.219-1.325-.325-2.016v0c-.107-.693-.217-1.41-.326-2.019-7.016.011-8.936,1.405-9.249,1.685h0ZM39.1,4.88l6.688,0a1.275,1.275,0,0,1-.086-.467.726.726,0,0,1,.112-.391.615.615,0,0,1,.24-.211.96.96,0,0,1,.385-.093,11.98,11.98,0,0,0-1.347-.909,13.034,13.034,0,0,0-2.2-1.131,12.64,12.64,0,0,0-1.237-.328c-.384-.084-.809-.165-1.265-.24-.767-.127-1.356-.195-1.381-.2S37.806.861,37.765.857h0c.1.409.32,1.184.8,2.55.273.781.508,1.4.534,1.472h0ZM10.861,2.528a.241.241,0,0,0-.046.044C10.827,2.559,10.843,2.544,10.861,2.528Zm-.447,10.28a.15.15,0,1,1,.15-.15A.15.15,0,0,1,10.414,12.808Zm46.3-.015a.15.15,0,1,1,.15-.15A.15.15,0,0,1,56.718,12.793Zm-46.3-.582a.354.354,0,1,1,.354-.354A.354.354,0,0,1,10.414,12.211Zm46.3-.015a.354.354,0,1,1,.354-.354A.354.354,0,0,1,56.718,12.2Zm-45.5-.189a.15.15,0,1,1,.15-.15A.15.15,0,0,1,11.215,12.007Zm-1.6,0a.15.15,0,1,1,.15-.15A.15.15,0,0,1,9.613,12.007Zm47.905-.015a.15.15,0,1,1,.15-.15A.15.15,0,0,1,57.518,11.992Zm-1.6,0a.15.15,0,1,1,.15-.15A.15.15,0,0,1,55.917,11.992Zm-43.176-.533H11.525c-.013-.036-.028-.072-.044-.107l.86-.86a2.348,2.348,0,0,1,.4.966Zm-3.438,0H8.087a2.346,2.346,0,0,1,.4-.966l.859.859c-.016.034-.031.07-.044.107Zm49.742-.015H57.829c-.013-.035-.028-.071-.044-.107l.86-.859a2.347,2.347,0,0,1,.4.966Zm-3.438,0H54.391a2.347,2.347,0,0,1,.4-.966l.859.859c-.016.034-.031.07-.044.107Zm-45.192-.238a.15.15,0,1,1,.15-.15A.15.15,0,0,1,10.414,11.206Zm46.3-.015a.15.15,0,1,1,.15-.15A.15.15,0,0,1,56.718,11.191ZM9.91,10.79h0L9.05,9.931a2.347,2.347,0,0,1,.966-.4v1.215c-.035.013-.071.028-.107.045Zm1.009,0h0c-.035-.017-.071-.032-.107-.044V9.53a2.347,2.347,0,0,1,.966.4l-.859.86Zm45.295-.015h0l-.859-.859a2.347,2.347,0,0,1,.966-.4v1.215c-.035.013-.071.028-.107.044Zm1.009,0h0c-.036-.017-.072-.032-.107-.044V9.515a2.347,2.347,0,0,1,.966.4l-.859.859Z" transform="translate(0 0)"/>
        </g>
      </g>
      <g id="Layer_21-3" data-name="Layer 21" transform="translate(130.823 256.215)">
        <path id="Trazado_591-3" data-name="Trazado 591" d="M21.326,1a1.929,1.929,0,0,0-1.7,1.022A1.927,1.927,0,0,0,16,2.929V6.213h.453V2.927a1.473,1.473,0,0,1,2.946,0V3.72h.453V2.927a1.473,1.473,0,1,1,2.946,0V6.213h.453V2.927A1.929,1.929,0,0,0,21.326,1Z" transform="translate(-12.796 -1)" fill="#a1cdfb"/>
        <rect id="Rectángulo_127-3" data-name="Rectángulo 127" width="0.823" height="0.823" transform="translate(9.874 5.179)" fill="#a1cdfb"/>
        <rect id="Rectángulo_128-3" data-name="Rectángulo 128" width="0.823" height="1.646" transform="translate(3.291 5.179)" fill="#a1cdfb"/>
        <path id="Trazado_592-3" data-name="Trazado 592" d="M23,22l.907.907h2.266L27.08,22Z" transform="translate(-18.209 -17.241)" fill="#a8b0bc"/>
        <rect id="Rectángulo_129-3" data-name="Rectángulo 129" width="0.823" height="1.646" transform="translate(6.583 5.179)" fill="#c1c8d1"/>
        <path id="Trazado_593-3" data-name="Trazado 593" d="M20,36l.907.907h3.626L25.44,36Z" transform="translate(-15.889 -28.068)" fill="#c1c8d1"/>
        <rect id="Rectángulo_130-3" data-name="Rectángulo 130" width="1.646" height="1.646" transform="translate(5.76 8.47)" fill="#a8b0bc"/>
        <rect id="Rectángulo_131-3" data-name="Rectángulo 131" width="12.343" height="3.291" transform="translate(0.823 10.939)" fill="#c1c8d1"/>
        <rect id="Rectángulo_132-3" data-name="Rectángulo 132" width="13.989" height="0.823" transform="translate(0 13.407)" fill="#a1cdfb"/>
        <rect id="Rectángulo_133-3" data-name="Rectángulo 133" width="12.343" height="0.823" transform="translate(0.823 10.116)" fill="#a8b0bc"/>
        <rect id="Rectángulo_134-3" data-name="Rectángulo 134" width="5.76" height="0.823" transform="translate(4.114 6.824)" fill="#a8b0bc"/>
        <rect id="Rectángulo_135-3" data-name="Rectángulo 135" width="4.937" height="0.823" transform="translate(4.114 3.533)" fill="#c1c8d1"/>
        <path id="Trazado_594-3" data-name="Trazado 594" d="M28.122,13.354a.907.907,0,1,1,1.568,0Z" transform="translate(-22.076 -9.502)" fill="#64adf9"/>
        <path id="Trazado_595-3" data-name="Trazado 595" d="M6,50v1.89a8.354,8.354,0,0,0,2.493.376A7.633,7.633,0,0,0,14.071,50Z" transform="translate(-5.062 -38.894)" fill="#cdd3da"/>
        <path id="Trazado_596-3" data-name="Trazado 596" d="M13.218,46H4v.907h8.524A5.863,5.863,0,0,0,13.218,46Z" transform="translate(-3.515 -35.801)" fill="#b9c0c9"/>
      </g>
      <g id="iconfinder_21_5027815-3" data-name="iconfinder_21_5027815" transform="translate(110.997 258.271)">
        <path id="Trazado_584-3" data-name="Trazado 584" d="M1.13,4.8A3.212,3.212,0,0,0,4.269,8.031h.039A3.822,3.822,0,0,0,8.131,4.208c0-.108-.007-.214-.016-.318H1.13Z" transform="translate(-1.13 -3.89)" fill="#f2c6dd"/>
        <g id="Grupo_535-3" data-name="Grupo 535" transform="translate(0.058 0.967)">
          <path id="Trazado_585-3" data-name="Trazado 585" d="M3.06,13.927H2.13V8.84h8.62v.933" transform="translate(-1.957 -8.667)" fill="#ff9d9c"/>
          <ellipse id="Elipse_105-3" data-name="Elipse 105" cx="2.096" cy="2.096" rx="2.096" ry="2.096" transform="translate(6.575 4.392)" fill="#e9f4bc"/>
          <path id="Trazado_586-3" data-name="Trazado 586" d="M13.738,16.169a2.082,2.082,0,0,1,1.158.35V12.88H6.17v5.368h5.472A2.1,2.1,0,0,1,13.738,16.169Z" transform="translate(-5.067 -11.777)" fill="#f2c6dd"/>
          <path id="Trazado_587-3" data-name="Trazado 587" d="M16.516,18.947a2.185,2.185,0,0,1,.327.028V17.114a.623.623,0,0,1-.624-.624H10.4a.623.623,0,0,1-.622.624v2.457a.623.623,0,0,1,.622.624h4.2A2.094,2.094,0,0,1,16.516,18.947Z" transform="translate(-7.845 -14.555)" fill="#fff"/>
          <g id="Grupo_534-3" data-name="Grupo 534" transform="translate(0)">
            <path id="Trazado_588-3" data-name="Trazado 588" d="M36.913,31.063a.288.288,0,0,1,.288.288.173.173,0,1,0,.345,0,.633.633,0,0,0-.461-.606v-.092a.173.173,0,1,0-.345,0v.092a.631.631,0,0,0,.173,1.239.288.288,0,1,1-.288.288.173.173,0,1,0-.345,0,.633.633,0,0,0,.461.606v.092a.173.173,0,0,0,.345,0v-.092a.631.631,0,0,0-.173-1.239.288.288,0,0,1,0-.576Z" transform="translate(-28.243 -25.324)" fill="#505050"/>
            <path id="Trazado_589-3" data-name="Trazado 589" d="M22.947,19.552a.3.3,0,0,1,.3.3.173.173,0,1,0,.345,0,.648.648,0,0,0-.474-.622v-.1a.173.173,0,0,0-.345,0v.1a.646.646,0,0,0,.173,1.269.3.3,0,1,1-.3.3.173.173,0,0,0-.345,0,.648.648,0,0,0,.474.622v.1a.173.173,0,0,0,.345,0v-.1a.646.646,0,0,0-.173-1.269.3.3,0,1,1,0-.6Z" transform="translate(-17.482 -16.457)" fill="#505050"/>
            <path id="Trazado_590-3" data-name="Trazado 590" d="M11.382,12.744V9.193a.173.173,0,0,0-.051-.122.177.177,0,0,0-.122-.051h-.864V8.263a.174.174,0,0,0-.173-.173H1.553a.174.174,0,0,0-.173.173V13.35a.174.174,0,0,0,.173.173H2.31v1.039a.173.173,0,0,0,.051.122.177.177,0,0,0,.122.051H7.789a2.267,2.267,0,1,0,3.593-1.99ZM2.656,9.366H4.482a.173.173,0,1,0,0-.345h-2a.173.173,0,0,0-.173.173v3.984H1.725V8.435H10V9.02H5.4a.173.173,0,1,0,0,.345h5.633v3.171a2.212,2.212,0,0,0-.486-.17V10.649a.174.174,0,0,0-.173-.173.452.452,0,0,1-.451-.451.174.174,0,0,0-.173-.173H3.936a.174.174,0,0,0-.173.173.452.452,0,0,1-.449.451.174.174,0,0,0-.173.173v2.457a.174.174,0,0,0,.173.173.45.45,0,0,1,.449.451.174.174,0,0,0,.173.173H7.884a2.266,2.266,0,0,0-.092.486H2.656Zm5.371,4.191H4.091a.8.8,0,0,0-.6-.606V10.8a.8.8,0,0,0,.6-.606H9.6a.8.8,0,0,0,.606.606v1.515c-.051,0-.1-.007-.154-.007A2.268,2.268,0,0,0,8.026,13.557ZM10.051,16.5a1.923,1.923,0,1,1,1.923-1.923A1.926,1.926,0,0,1,10.051,16.5Z" transform="translate(-1.38 -8.09)" fill="#505050"/>
            <ellipse id="Elipse_106-3" data-name="Elipse 106" cx="0.173" cy="0.173" rx="0.173" ry="0.173" transform="translate(3.39 0.93)" fill="#505050"/>
          </g>
        </g>
      </g>
      <g id="iconfinder_Untitled-1-10_2419683-3" data-name="iconfinder_Untitled-1-10_2419683" transform="translate(153.533 256.215)">
        <path id="Sustracción_5-3" data-name="Sustracción 5" d="M11.571,12.128H8.93V3.356H8.4v8.772H3.174V3.356H2.641v8.772H0V3.356H.521V1.708h.533V.885H2.108L5.816,0l3.7.885H10.5v.824h.533V3.356h.533v8.772ZM9.717,10.553v1.1h.461v-1.1Zm-2.447,0v1.1h.267v-1.1ZM4,10.553v1.1h.424v-1.1Zm-2.484,0v1.1h.267v-1.1Zm8.2-2.193v1.1h.461V8.36ZM4,8.36v1.1h.424V8.36Zm3.271-.012v1.1h.267v-1.1Zm-5.755,0v1.1h.267v-1.1Zm8.2-2.181V7.258h.461V6.167Zm-2.447,0V7.258h.267V6.167ZM4,6.167V7.258h.424V6.167Zm-2.484,0V7.258h.267V6.167Zm8.2-2.193v1.1h.461v-1.1Zm-2.447,0v1.1h.267v-1.1ZM4,3.974v1.1h.424v-1.1Zm-2.484,0v1.1h.267v-1.1ZM6.709,1.151a.181.181,0,0,0-.185.185V3.086a.187.187,0,0,0,.048.132.16.16,0,0,0,.124.053.164.164,0,0,0,.127-.053.187.187,0,0,0,.049-.132V2.514H7.4a.524.524,0,0,0,.3-.093A.706.706,0,0,0,8,1.833a.708.708,0,0,0-.085-.345A.685.685,0,0,0,7.7,1.242a.529.529,0,0,0-.3-.091Zm-.824,0a.191.191,0,0,0-.139.053.176.176,0,0,0-.055.132V3.086a.178.178,0,0,0,.188.185.191.191,0,0,0,.133-.053.171.171,0,0,0,.058-.132V1.336A.175.175,0,0,0,6.014,1.2.181.181,0,0,0,5.885,1.151Zm-2.2-.009a.208.208,0,0,0-.121.047.158.158,0,0,0-.064.135.247.247,0,0,0,0,.038.121.121,0,0,0,.012.038l.748,1.757a.186.186,0,0,0,.07.083.2.2,0,0,0,.094.032.2.2,0,0,0,.1-.029.19.19,0,0,0,.077-.089L5.355,1.4a.209.209,0,0,0,.018-.082A.161.161,0,0,0,5.317,1.2a.193.193,0,0,0-.132-.05.173.173,0,0,0-.166.115L4.461,2.691,3.853,1.26A.174.174,0,0,0,3.686,1.142ZM7.4,2.169H6.873V1.5H7.4a.17.17,0,0,1,.112.047.371.371,0,0,1,.091.123.375.375,0,0,1,.036.163.379.379,0,0,1-.036.162.386.386,0,0,1-.091.126A.167.167,0,0,1,7.4,2.169Z" transform="translate(0.533 0)" fill="#60646b"/>
        <rect id="Rectángulo_136-3" data-name="Rectángulo 136" width="12.685" height="0.533" transform="translate(0 12.528)" fill="#60646b"/>
      </g>
      <g id="Elipse_123-3" data-name="Elipse 123" transform="translate(106.96 253.166)" fill="none" stroke="#c08cb8" stroke-width="0.5">
        <ellipse cx="9.051" cy="9.463" rx="9.051" ry="9.463" stroke="none"/>
        <ellipse cx="9.051" cy="9.463" rx="8.801" ry="9.213" fill="none"/>
      </g>
      <g id="Elipse_124-3" data-name="Elipse 124" transform="translate(128.355 253.166)" fill="none" stroke="#c08cb8" stroke-width="0.5">
        <ellipse cx="9.463" cy="9.463" rx="9.463" ry="9.463" stroke="none"/>
        <ellipse cx="9.463" cy="9.463" rx="9.213" ry="9.213" fill="none"/>
      </g>
      <g id="Elipse_125-3" data-name="Elipse 125" transform="translate(150.572 253.166)" fill="none" stroke="#c08cb8" stroke-width="0.5">
        <ellipse cx="9.463" cy="9.463" rx="9.463" ry="9.463" stroke="none"/>
        <ellipse cx="9.463" cy="9.463" rx="9.213" ry="9.213" fill="none"/>
      </g>
      <g id="Rectángulo_205-3" data-name="Rectángulo 205" transform="translate(97.424 304.439) rotate(-90)" fill="#fff" stroke="#000" stroke-width="1">
        <rect width="7.665" height="72.074" stroke="none"/>
        <rect x="0.5" y="0.5" width="6.665" height="71.074" fill="none"/>
      </g>
      <line id="Línea_53-3" data-name="Línea 53" y1="64.656" transform="translate(100.151 300.927) rotate(-90)" fill="none" stroke="#000" stroke-width="1" stroke-dasharray="3"/>
      <line id="Línea_54-2" data-name="Línea 54" y1="14" x2="3" transform="translate(125.5 255.5)" fill="none" stroke="#707070" stroke-width="1"/>
      <line id="Línea_55-2" data-name="Línea 55" y1="15" x2="3" transform="translate(147.5 255.5)" fill="none" stroke="#707070" stroke-width="1"/>
    </g>
    <g id="Grupo_627" data-name="Grupo 627" transform="translate(85 63)">
      <path id="Trazado_675-4" data-name="Trazado 675" d="M.574,0A.886.886,0,0,1-.07-.245.815.815,0,0,1-.322-.854V-7.91l.2.308-1.064.644a.856.856,0,0,1-.448.126.764.764,0,0,1-.6-.273.872.872,0,0,1-.238-.581.8.8,0,0,1,.434-.728L.07-9.674a1.279,1.279,0,0,1,.6-.126.781.781,0,0,1,.6.245.853.853,0,0,1,.231.609V-.854a.8.8,0,0,1-.259.609A.929.929,0,0,1,.574,0Z" transform="translate(101 268)"/>
      <g id="Shape_1-4" data-name="Shape_1" transform="translate(106 279.01)">
        <g id="Grupo_533-4" data-name="Grupo 533" transform="translate(0 0)">
          <path id="Sustracción_4-4" data-name="Sustracción 4" d="M10.414,15.722a3.846,3.846,0,0,1-2.161-.66,3.876,3.876,0,0,1-1.4-1.7A3.859,3.859,0,0,1,7.209,9.7a3.876,3.876,0,0,1,1.7-1.4,3.86,3.86,0,0,1,3.665.356,3.876,3.876,0,0,1,1.4,1.7,3.86,3.86,0,0,1-.356,3.665,3.876,3.876,0,0,1-1.7,1.4A3.841,3.841,0,0,1,10.414,15.722Zm0-6.625a2.752,2.752,0,1,0,1.075.217A2.743,2.743,0,0,0,10.414,9.1Zm46.3,6.611a3.847,3.847,0,0,1-2.161-.66,3.876,3.876,0,0,1-1.4-1.7,3.86,3.86,0,0,1,.356-3.665,3.876,3.876,0,0,1,1.7-1.4,3.86,3.86,0,0,1,3.665.356,3.876,3.876,0,0,1,1.4,1.7A3.86,3.86,0,0,1,59.922,14a3.876,3.876,0,0,1-1.7,1.4A3.84,3.84,0,0,1,56.718,15.707Zm0-6.625a2.752,2.752,0,1,0,1.075.217A2.743,2.743,0,0,0,56.718,9.082Zm-45.906,5.1h0V12.968a1.152,1.152,0,0,0,.107-.045l.859.859a2.347,2.347,0,0,1-.966.4Zm-.8,0h0a2.347,2.347,0,0,1-.966-.4l.859-.859a1.147,1.147,0,0,0,.107.044v1.215Zm47.1-.015h0V12.953a1.131,1.131,0,0,0,.107-.045l.86.86a2.349,2.349,0,0,1-.966.4Zm-.8,0h0a2.348,2.348,0,0,1-.966-.4l.859-.859a1.151,1.151,0,0,0,.107.044v1.216Zm-43.98-.948h0l-.859-.859c.016-.034.031-.07.044-.107h1.216a2.348,2.348,0,0,1-.4.966Zm-3.853,0h0a2.348,2.348,0,0,1-.4-.966H9.3c.013.036.028.071.044.107l-.859.86Zm50.156-.015h0l-.859-.859c.016-.035.031-.071.044-.107h1.216a2.347,2.347,0,0,1-.4.966Zm-3.853,0h0a2.348,2.348,0,0,1-.4-.966h1.215a1.141,1.141,0,0,0,.044.107l-.859.86Zm-40.5-.028h0a6.047,6.047,0,0,0,.146-1.321,4,4,0,0,0-.686-2.247,4.031,4.031,0,0,0-1.769-1.456,4.014,4.014,0,0,0-3.812.371A4.031,4.031,0,0,0,6.71,10.292a3.994,3.994,0,0,0-.316,1.565,4.055,4.055,0,0,0,.052.647l-.223-.012c-.011,0-1.069-.032-2.223-.139-.676-.063-1.249-.138-1.7-.225a3.168,3.168,0,0,1-1.146-.373c-.108-.031-.161-.138-.212-.241a.914.914,0,0,0-.071-.127,3.06,3.06,0,0,0-.708-.68,3.611,3.611,0,0,0-.08-.534C.054,10.053.031,9.94.017,9.827l.057-.255A5.071,5.071,0,0,1,0,8.8a3.916,3.916,0,0,1,.057-.76A2.085,2.085,0,0,1,.271,7.4a.971.971,0,0,1,.4-.408c0-.131,0-.261-.006-.386h0A2.547,2.547,0,0,1,.9,5.123a.571.571,0,0,0-.043-.285A.285.285,0,0,0,.669,4.7a1.232,1.232,0,0,1,.242-.464h0c.046-.064.09-.125.126-.187.462-.007,1-.017,1.51-.053a9.425,9.425,0,0,0,1.437-.2,4.272,4.272,0,0,1,.688-.083h0a3.182,3.182,0,0,0,.785-.116A4.9,4.9,0,0,0,6.2,3.26h0c.143-.074.278-.144.418-.205.383-.169.772-.33,1.149-.487l.009,0c.216-.09.439-.183.656-.275.72-.305,1.459-.579,2.173-.844S12.033.916,12.742.617c.008-.039.071-.082.186-.129a2.98,2.98,0,0,1,.41-.124,4.54,4.54,0,0,1,.914-.13.651.651,0,0,1,.162.015C16.442.086,19.528,0,23.341,0c2.054,0,4.214.025,6.421.073,2.122.047,4.222.115,6.071.2,1.918.086,3.518.184,4.756.291a13.21,13.21,0,0,1,2.477.352c.513.187,1.77.845,2.474,1.22,1.048.559,2.015,1.1,2.344,1.3.2.122.406.24.607.355l0,0c.228.131.464.266.694.409.061.038.123.084.188.132a1.463,1.463,0,0,0,.463.264,6.159,6.159,0,0,0,.829.037h.626a27.465,27.465,0,0,1,3.322.192c.807.093,1.676.224,2.582.389,1.044.19,2.172.431,3.354.716.167.054.339.106.521.162h0a10.654,10.654,0,0,1,1.363.48,3.208,3.208,0,0,1,.578.335,1.757,1.757,0,0,1,.426.44,1.936,1.936,0,0,1,.238.88,6.9,6.9,0,0,1-.015,1.114,12.8,12.8,0,0,1-.195,1.378l.113,1.19a1.633,1.633,0,0,1-.137.308,1.36,1.36,0,0,1-.185.254.892.892,0,0,1-.273.2,2.23,2.23,0,0,1-.521.128c-.2.032-.444.061-.73.088-.483.045-.926.067-.931.067l-.228,0a4.019,4.019,0,1,0-7.672.16l-38.619.054ZM20.868.847l.6,4.116L38.44,4.922,37.231.9,20.868.847ZM10.861,2.528h0a.14.14,0,0,1-.017.044,1.4,1.4,0,0,0-.133.722,1.267,1.267,0,0,0,.2.558,2.077,2.077,0,0,0,.611.59,10.513,10.513,0,0,0,2.6.293c1.253.055,2.791.078,4.147.1.922.014,1.793.027,2.493.048-.109-.609-.219-1.325-.325-2.016v0c-.107-.693-.217-1.41-.326-2.019-7.016.011-8.936,1.405-9.249,1.685h0ZM39.1,4.88l6.688,0a1.275,1.275,0,0,1-.086-.467.726.726,0,0,1,.112-.391.615.615,0,0,1,.24-.211.96.96,0,0,1,.385-.093,11.98,11.98,0,0,0-1.347-.909,13.034,13.034,0,0,0-2.2-1.131,12.64,12.64,0,0,0-1.237-.328c-.384-.084-.809-.165-1.265-.24-.767-.127-1.356-.195-1.381-.2S37.806.861,37.765.857h0c.1.409.32,1.184.8,2.55.273.781.508,1.4.534,1.472h0ZM10.861,2.528a.241.241,0,0,0-.046.044C10.827,2.559,10.843,2.544,10.861,2.528Zm-.447,10.28a.15.15,0,1,1,.15-.15A.15.15,0,0,1,10.414,12.808Zm46.3-.015a.15.15,0,1,1,.15-.15A.15.15,0,0,1,56.718,12.793Zm-46.3-.582a.354.354,0,1,1,.354-.354A.354.354,0,0,1,10.414,12.211Zm46.3-.015a.354.354,0,1,1,.354-.354A.354.354,0,0,1,56.718,12.2Zm-45.5-.189a.15.15,0,1,1,.15-.15A.15.15,0,0,1,11.215,12.007Zm-1.6,0a.15.15,0,1,1,.15-.15A.15.15,0,0,1,9.613,12.007Zm47.905-.015a.15.15,0,1,1,.15-.15A.15.15,0,0,1,57.518,11.992Zm-1.6,0a.15.15,0,1,1,.15-.15A.15.15,0,0,1,55.917,11.992Zm-43.176-.533H11.525c-.013-.036-.028-.072-.044-.107l.86-.86a2.348,2.348,0,0,1,.4.966Zm-3.438,0H8.087a2.346,2.346,0,0,1,.4-.966l.859.859c-.016.034-.031.07-.044.107Zm49.742-.015H57.829c-.013-.035-.028-.071-.044-.107l.86-.859a2.347,2.347,0,0,1,.4.966Zm-3.438,0H54.391a2.347,2.347,0,0,1,.4-.966l.859.859c-.016.034-.031.07-.044.107Zm-45.192-.238a.15.15,0,1,1,.15-.15A.15.15,0,0,1,10.414,11.206Zm46.3-.015a.15.15,0,1,1,.15-.15A.15.15,0,0,1,56.718,11.191ZM9.91,10.79h0L9.05,9.931a2.347,2.347,0,0,1,.966-.4v1.215c-.035.013-.071.028-.107.045Zm1.009,0h0c-.035-.017-.071-.032-.107-.044V9.53a2.347,2.347,0,0,1,.966.4l-.859.86Zm45.295-.015h0l-.859-.859a2.347,2.347,0,0,1,.966-.4v1.215c-.035.013-.071.028-.107.044Zm1.009,0h0c-.036-.017-.072-.032-.107-.044V9.515a2.347,2.347,0,0,1,.966.4l-.859.859Z" transform="translate(0 0)"/>
        </g>
      </g>
      <g id="Layer_21-4" data-name="Layer 21" transform="translate(130.823 256.215)">
        <path id="Trazado_591-4" data-name="Trazado 591" d="M21.326,1a1.929,1.929,0,0,0-1.7,1.022A1.927,1.927,0,0,0,16,2.929V6.213h.453V2.927a1.473,1.473,0,0,1,2.946,0V3.72h.453V2.927a1.473,1.473,0,1,1,2.946,0V6.213h.453V2.927A1.929,1.929,0,0,0,21.326,1Z" transform="translate(-12.796 -1)" fill="#a1cdfb"/>
        <rect id="Rectángulo_127-4" data-name="Rectángulo 127" width="0.823" height="0.823" transform="translate(9.874 5.179)" fill="#a1cdfb"/>
        <rect id="Rectángulo_128-4" data-name="Rectángulo 128" width="0.823" height="1.646" transform="translate(3.291 5.179)" fill="#a1cdfb"/>
        <path id="Trazado_592-4" data-name="Trazado 592" d="M23,22l.907.907h2.266L27.08,22Z" transform="translate(-18.209 -17.241)" fill="#a8b0bc"/>
        <rect id="Rectángulo_129-4" data-name="Rectángulo 129" width="0.823" height="1.646" transform="translate(6.583 5.179)" fill="#c1c8d1"/>
        <path id="Trazado_593-4" data-name="Trazado 593" d="M20,36l.907.907h3.626L25.44,36Z" transform="translate(-15.889 -28.068)" fill="#c1c8d1"/>
        <rect id="Rectángulo_130-4" data-name="Rectángulo 130" width="1.646" height="1.646" transform="translate(5.76 8.47)" fill="#a8b0bc"/>
        <rect id="Rectángulo_131-4" data-name="Rectángulo 131" width="12.343" height="3.291" transform="translate(0.823 10.939)" fill="#c1c8d1"/>
        <rect id="Rectángulo_132-4" data-name="Rectángulo 132" width="13.989" height="0.823" transform="translate(0 13.407)" fill="#a1cdfb"/>
        <rect id="Rectángulo_133-4" data-name="Rectángulo 133" width="12.343" height="0.823" transform="translate(0.823 10.116)" fill="#a8b0bc"/>
        <rect id="Rectángulo_134-4" data-name="Rectángulo 134" width="5.76" height="0.823" transform="translate(4.114 6.824)" fill="#a8b0bc"/>
        <rect id="Rectángulo_135-4" data-name="Rectángulo 135" width="4.937" height="0.823" transform="translate(4.114 3.533)" fill="#c1c8d1"/>
        <path id="Trazado_594-4" data-name="Trazado 594" d="M28.122,13.354a.907.907,0,1,1,1.568,0Z" transform="translate(-22.076 -9.502)" fill="#64adf9"/>
        <path id="Trazado_595-4" data-name="Trazado 595" d="M6,50v1.89a8.354,8.354,0,0,0,2.493.376A7.633,7.633,0,0,0,14.071,50Z" transform="translate(-5.062 -38.894)" fill="#cdd3da"/>
        <path id="Trazado_596-4" data-name="Trazado 596" d="M13.218,46H4v.907h8.524A5.863,5.863,0,0,0,13.218,46Z" transform="translate(-3.515 -35.801)" fill="#b9c0c9"/>
      </g>
      <g id="iconfinder_21_5027815-4" data-name="iconfinder_21_5027815" transform="translate(110.997 258.271)">
        <path id="Trazado_584-4" data-name="Trazado 584" d="M1.13,4.8A3.212,3.212,0,0,0,4.269,8.031h.039A3.822,3.822,0,0,0,8.131,4.208c0-.108-.007-.214-.016-.318H1.13Z" transform="translate(-1.13 -3.89)" fill="#f2c6dd"/>
        <g id="Grupo_535-4" data-name="Grupo 535" transform="translate(0.058 0.967)">
          <path id="Trazado_585-4" data-name="Trazado 585" d="M3.06,13.927H2.13V8.84h8.62v.933" transform="translate(-1.957 -8.667)" fill="#ff9d9c"/>
          <ellipse id="Elipse_105-4" data-name="Elipse 105" cx="2.096" cy="2.096" rx="2.096" ry="2.096" transform="translate(6.575 4.392)" fill="#e9f4bc"/>
          <path id="Trazado_586-4" data-name="Trazado 586" d="M13.738,16.169a2.082,2.082,0,0,1,1.158.35V12.88H6.17v5.368h5.472A2.1,2.1,0,0,1,13.738,16.169Z" transform="translate(-5.067 -11.777)" fill="#f2c6dd"/>
          <path id="Trazado_587-4" data-name="Trazado 587" d="M16.516,18.947a2.185,2.185,0,0,1,.327.028V17.114a.623.623,0,0,1-.624-.624H10.4a.623.623,0,0,1-.622.624v2.457a.623.623,0,0,1,.622.624h4.2A2.094,2.094,0,0,1,16.516,18.947Z" transform="translate(-7.845 -14.555)" fill="#fff"/>
          <g id="Grupo_534-4" data-name="Grupo 534" transform="translate(0)">
            <path id="Trazado_588-4" data-name="Trazado 588" d="M36.913,31.063a.288.288,0,0,1,.288.288.173.173,0,1,0,.345,0,.633.633,0,0,0-.461-.606v-.092a.173.173,0,1,0-.345,0v.092a.631.631,0,0,0,.173,1.239.288.288,0,1,1-.288.288.173.173,0,1,0-.345,0,.633.633,0,0,0,.461.606v.092a.173.173,0,0,0,.345,0v-.092a.631.631,0,0,0-.173-1.239.288.288,0,0,1,0-.576Z" transform="translate(-28.243 -25.324)" fill="#505050"/>
            <path id="Trazado_589-4" data-name="Trazado 589" d="M22.947,19.552a.3.3,0,0,1,.3.3.173.173,0,1,0,.345,0,.648.648,0,0,0-.474-.622v-.1a.173.173,0,0,0-.345,0v.1a.646.646,0,0,0,.173,1.269.3.3,0,1,1-.3.3.173.173,0,0,0-.345,0,.648.648,0,0,0,.474.622v.1a.173.173,0,0,0,.345,0v-.1a.646.646,0,0,0-.173-1.269.3.3,0,1,1,0-.6Z" transform="translate(-17.482 -16.457)" fill="#505050"/>
            <path id="Trazado_590-4" data-name="Trazado 590" d="M11.382,12.744V9.193a.173.173,0,0,0-.051-.122.177.177,0,0,0-.122-.051h-.864V8.263a.174.174,0,0,0-.173-.173H1.553a.174.174,0,0,0-.173.173V13.35a.174.174,0,0,0,.173.173H2.31v1.039a.173.173,0,0,0,.051.122.177.177,0,0,0,.122.051H7.789a2.267,2.267,0,1,0,3.593-1.99ZM2.656,9.366H4.482a.173.173,0,1,0,0-.345h-2a.173.173,0,0,0-.173.173v3.984H1.725V8.435H10V9.02H5.4a.173.173,0,1,0,0,.345h5.633v3.171a2.212,2.212,0,0,0-.486-.17V10.649a.174.174,0,0,0-.173-.173.452.452,0,0,1-.451-.451.174.174,0,0,0-.173-.173H3.936a.174.174,0,0,0-.173.173.452.452,0,0,1-.449.451.174.174,0,0,0-.173.173v2.457a.174.174,0,0,0,.173.173.45.45,0,0,1,.449.451.174.174,0,0,0,.173.173H7.884a2.266,2.266,0,0,0-.092.486H2.656Zm5.371,4.191H4.091a.8.8,0,0,0-.6-.606V10.8a.8.8,0,0,0,.6-.606H9.6a.8.8,0,0,0,.606.606v1.515c-.051,0-.1-.007-.154-.007A2.268,2.268,0,0,0,8.026,13.557ZM10.051,16.5a1.923,1.923,0,1,1,1.923-1.923A1.926,1.926,0,0,1,10.051,16.5Z" transform="translate(-1.38 -8.09)" fill="#505050"/>
            <ellipse id="Elipse_106-4" data-name="Elipse 106" cx="0.173" cy="0.173" rx="0.173" ry="0.173" transform="translate(3.39 0.93)" fill="#505050"/>
          </g>
        </g>
      </g>
      <g id="iconfinder_Untitled-1-10_2419683-4" data-name="iconfinder_Untitled-1-10_2419683" transform="translate(153.533 256.215)">
        <path id="Sustracción_5-4" data-name="Sustracción 5" d="M11.571,12.128H8.93V3.356H8.4v8.772H3.174V3.356H2.641v8.772H0V3.356H.521V1.708h.533V.885H2.108L5.816,0l3.7.885H10.5v.824h.533V3.356h.533v8.772ZM9.717,10.553v1.1h.461v-1.1Zm-2.447,0v1.1h.267v-1.1ZM4,10.553v1.1h.424v-1.1Zm-2.484,0v1.1h.267v-1.1Zm8.2-2.193v1.1h.461V8.36ZM4,8.36v1.1h.424V8.36Zm3.271-.012v1.1h.267v-1.1Zm-5.755,0v1.1h.267v-1.1Zm8.2-2.181V7.258h.461V6.167Zm-2.447,0V7.258h.267V6.167ZM4,6.167V7.258h.424V6.167Zm-2.484,0V7.258h.267V6.167Zm8.2-2.193v1.1h.461v-1.1Zm-2.447,0v1.1h.267v-1.1ZM4,3.974v1.1h.424v-1.1Zm-2.484,0v1.1h.267v-1.1ZM6.709,1.151a.181.181,0,0,0-.185.185V3.086a.187.187,0,0,0,.048.132.16.16,0,0,0,.124.053.164.164,0,0,0,.127-.053.187.187,0,0,0,.049-.132V2.514H7.4a.524.524,0,0,0,.3-.093A.706.706,0,0,0,8,1.833a.708.708,0,0,0-.085-.345A.685.685,0,0,0,7.7,1.242a.529.529,0,0,0-.3-.091Zm-.824,0a.191.191,0,0,0-.139.053.176.176,0,0,0-.055.132V3.086a.178.178,0,0,0,.188.185.191.191,0,0,0,.133-.053.171.171,0,0,0,.058-.132V1.336A.175.175,0,0,0,6.014,1.2.181.181,0,0,0,5.885,1.151Zm-2.2-.009a.208.208,0,0,0-.121.047.158.158,0,0,0-.064.135.247.247,0,0,0,0,.038.121.121,0,0,0,.012.038l.748,1.757a.186.186,0,0,0,.07.083.2.2,0,0,0,.094.032.2.2,0,0,0,.1-.029.19.19,0,0,0,.077-.089L5.355,1.4a.209.209,0,0,0,.018-.082A.161.161,0,0,0,5.317,1.2a.193.193,0,0,0-.132-.05.173.173,0,0,0-.166.115L4.461,2.691,3.853,1.26A.174.174,0,0,0,3.686,1.142ZM7.4,2.169H6.873V1.5H7.4a.17.17,0,0,1,.112.047.371.371,0,0,1,.091.123.375.375,0,0,1,.036.163.379.379,0,0,1-.036.162.386.386,0,0,1-.091.126A.167.167,0,0,1,7.4,2.169Z" transform="translate(0.533 0)" fill="#60646b"/>
        <rect id="Rectángulo_136-4" data-name="Rectángulo 136" width="12.685" height="0.533" transform="translate(0 12.528)" fill="#60646b"/>
      </g>
      <g id="Elipse_123-4" data-name="Elipse 123" transform="translate(106.96 253.166)" fill="none" stroke="#c08cb8" stroke-width="0.5">
        <ellipse cx="9.051" cy="9.463" rx="9.051" ry="9.463" stroke="none"/>
        <ellipse cx="9.051" cy="9.463" rx="8.801" ry="9.213" fill="none"/>
      </g>
      <g id="Elipse_124-4" data-name="Elipse 124" transform="translate(128.355 253.166)" fill="none" stroke="#c08cb8" stroke-width="0.5">
        <ellipse cx="9.463" cy="9.463" rx="9.463" ry="9.463" stroke="none"/>
        <ellipse cx="9.463" cy="9.463" rx="9.213" ry="9.213" fill="none"/>
      </g>
      <g id="Elipse_125-4" data-name="Elipse 125" transform="translate(150.572 253.166)" fill="none" stroke="#c08cb8" stroke-width="0.5">
        <ellipse cx="9.463" cy="9.463" rx="9.463" ry="9.463" stroke="none"/>
        <ellipse cx="9.463" cy="9.463" rx="9.213" ry="9.213" fill="none"/>
      </g>
      <g id="Rectángulo_205-4" data-name="Rectángulo 205" transform="translate(97.424 304.439) rotate(-90)" fill="#fff" stroke="#000" stroke-width="1">
        <rect width="7.665" height="72.074" stroke="none"/>
        <rect x="0.5" y="0.5" width="6.665" height="71.074" fill="none"/>
      </g>
      <line id="Línea_53-4" data-name="Línea 53" y1="64.656" transform="translate(100.151 300.927) rotate(-90)" fill="none" stroke="#000" stroke-width="1" stroke-dasharray="3"/>
      <line id="Línea_54-3" data-name="Línea 54" y1="14" x2="3" transform="translate(125.5 255.5)" fill="none" stroke="#707070" stroke-width="1"/>
      <line id="Línea_55-3" data-name="Línea 55" y1="15" x2="3" transform="translate(147.5 255.5)" fill="none" stroke="#707070" stroke-width="1"/>
    </g>
    <g id="Grupo_628" data-name="Grupo 628" transform="translate(0 63)">
      <path id="Trazado_675-5" data-name="Trazado 675" d="M.574,0A.886.886,0,0,1-.07-.245.815.815,0,0,1-.322-.854V-7.91l.2.308-1.064.644a.856.856,0,0,1-.448.126.764.764,0,0,1-.6-.273.872.872,0,0,1-.238-.581.8.8,0,0,1,.434-.728L.07-9.674a1.279,1.279,0,0,1,.6-.126.781.781,0,0,1,.6.245.853.853,0,0,1,.231.609V-.854a.8.8,0,0,1-.259.609A.929.929,0,0,1,.574,0Z" transform="translate(101 268)"/>
      <g id="Shape_1-5" data-name="Shape_1" transform="translate(106 279.01)">
        <g id="Grupo_533-5" data-name="Grupo 533" transform="translate(0 0)">
          <path id="Sustracción_4-5" data-name="Sustracción 4" d="M10.414,15.722a3.846,3.846,0,0,1-2.161-.66,3.876,3.876,0,0,1-1.4-1.7A3.859,3.859,0,0,1,7.209,9.7a3.876,3.876,0,0,1,1.7-1.4,3.86,3.86,0,0,1,3.665.356,3.876,3.876,0,0,1,1.4,1.7,3.86,3.86,0,0,1-.356,3.665,3.876,3.876,0,0,1-1.7,1.4A3.841,3.841,0,0,1,10.414,15.722Zm0-6.625a2.752,2.752,0,1,0,1.075.217A2.743,2.743,0,0,0,10.414,9.1Zm46.3,6.611a3.847,3.847,0,0,1-2.161-.66,3.876,3.876,0,0,1-1.4-1.7,3.86,3.86,0,0,1,.356-3.665,3.876,3.876,0,0,1,1.7-1.4,3.86,3.86,0,0,1,3.665.356,3.876,3.876,0,0,1,1.4,1.7A3.86,3.86,0,0,1,59.922,14a3.876,3.876,0,0,1-1.7,1.4A3.84,3.84,0,0,1,56.718,15.707Zm0-6.625a2.752,2.752,0,1,0,1.075.217A2.743,2.743,0,0,0,56.718,9.082Zm-45.906,5.1h0V12.968a1.152,1.152,0,0,0,.107-.045l.859.859a2.347,2.347,0,0,1-.966.4Zm-.8,0h0a2.347,2.347,0,0,1-.966-.4l.859-.859a1.147,1.147,0,0,0,.107.044v1.215Zm47.1-.015h0V12.953a1.131,1.131,0,0,0,.107-.045l.86.86a2.349,2.349,0,0,1-.966.4Zm-.8,0h0a2.348,2.348,0,0,1-.966-.4l.859-.859a1.151,1.151,0,0,0,.107.044v1.216Zm-43.98-.948h0l-.859-.859c.016-.034.031-.07.044-.107h1.216a2.348,2.348,0,0,1-.4.966Zm-3.853,0h0a2.348,2.348,0,0,1-.4-.966H9.3c.013.036.028.071.044.107l-.859.86Zm50.156-.015h0l-.859-.859c.016-.035.031-.071.044-.107h1.216a2.347,2.347,0,0,1-.4.966Zm-3.853,0h0a2.348,2.348,0,0,1-.4-.966h1.215a1.141,1.141,0,0,0,.044.107l-.859.86Zm-40.5-.028h0a6.047,6.047,0,0,0,.146-1.321,4,4,0,0,0-.686-2.247,4.031,4.031,0,0,0-1.769-1.456,4.014,4.014,0,0,0-3.812.371A4.031,4.031,0,0,0,6.71,10.292a3.994,3.994,0,0,0-.316,1.565,4.055,4.055,0,0,0,.052.647l-.223-.012c-.011,0-1.069-.032-2.223-.139-.676-.063-1.249-.138-1.7-.225a3.168,3.168,0,0,1-1.146-.373c-.108-.031-.161-.138-.212-.241a.914.914,0,0,0-.071-.127,3.06,3.06,0,0,0-.708-.68,3.611,3.611,0,0,0-.08-.534C.054,10.053.031,9.94.017,9.827l.057-.255A5.071,5.071,0,0,1,0,8.8a3.916,3.916,0,0,1,.057-.76A2.085,2.085,0,0,1,.271,7.4a.971.971,0,0,1,.4-.408c0-.131,0-.261-.006-.386h0A2.547,2.547,0,0,1,.9,5.123a.571.571,0,0,0-.043-.285A.285.285,0,0,0,.669,4.7a1.232,1.232,0,0,1,.242-.464h0c.046-.064.09-.125.126-.187.462-.007,1-.017,1.51-.053a9.425,9.425,0,0,0,1.437-.2,4.272,4.272,0,0,1,.688-.083h0a3.182,3.182,0,0,0,.785-.116A4.9,4.9,0,0,0,6.2,3.26h0c.143-.074.278-.144.418-.205.383-.169.772-.33,1.149-.487l.009,0c.216-.09.439-.183.656-.275.72-.305,1.459-.579,2.173-.844S12.033.916,12.742.617c.008-.039.071-.082.186-.129a2.98,2.98,0,0,1,.41-.124,4.54,4.54,0,0,1,.914-.13.651.651,0,0,1,.162.015C16.442.086,19.528,0,23.341,0c2.054,0,4.214.025,6.421.073,2.122.047,4.222.115,6.071.2,1.918.086,3.518.184,4.756.291a13.21,13.21,0,0,1,2.477.352c.513.187,1.77.845,2.474,1.22,1.048.559,2.015,1.1,2.344,1.3.2.122.406.24.607.355l0,0c.228.131.464.266.694.409.061.038.123.084.188.132a1.463,1.463,0,0,0,.463.264,6.159,6.159,0,0,0,.829.037h.626a27.465,27.465,0,0,1,3.322.192c.807.093,1.676.224,2.582.389,1.044.19,2.172.431,3.354.716.167.054.339.106.521.162h0a10.654,10.654,0,0,1,1.363.48,3.208,3.208,0,0,1,.578.335,1.757,1.757,0,0,1,.426.44,1.936,1.936,0,0,1,.238.88,6.9,6.9,0,0,1-.015,1.114,12.8,12.8,0,0,1-.195,1.378l.113,1.19a1.633,1.633,0,0,1-.137.308,1.36,1.36,0,0,1-.185.254.892.892,0,0,1-.273.2,2.23,2.23,0,0,1-.521.128c-.2.032-.444.061-.73.088-.483.045-.926.067-.931.067l-.228,0a4.019,4.019,0,1,0-7.672.16l-38.619.054ZM20.868.847l.6,4.116L38.44,4.922,37.231.9,20.868.847ZM10.861,2.528h0a.14.14,0,0,1-.017.044,1.4,1.4,0,0,0-.133.722,1.267,1.267,0,0,0,.2.558,2.077,2.077,0,0,0,.611.59,10.513,10.513,0,0,0,2.6.293c1.253.055,2.791.078,4.147.1.922.014,1.793.027,2.493.048-.109-.609-.219-1.325-.325-2.016v0c-.107-.693-.217-1.41-.326-2.019-7.016.011-8.936,1.405-9.249,1.685h0ZM39.1,4.88l6.688,0a1.275,1.275,0,0,1-.086-.467.726.726,0,0,1,.112-.391.615.615,0,0,1,.24-.211.96.96,0,0,1,.385-.093,11.98,11.98,0,0,0-1.347-.909,13.034,13.034,0,0,0-2.2-1.131,12.64,12.64,0,0,0-1.237-.328c-.384-.084-.809-.165-1.265-.24-.767-.127-1.356-.195-1.381-.2S37.806.861,37.765.857h0c.1.409.32,1.184.8,2.55.273.781.508,1.4.534,1.472h0ZM10.861,2.528a.241.241,0,0,0-.046.044C10.827,2.559,10.843,2.544,10.861,2.528Zm-.447,10.28a.15.15,0,1,1,.15-.15A.15.15,0,0,1,10.414,12.808Zm46.3-.015a.15.15,0,1,1,.15-.15A.15.15,0,0,1,56.718,12.793Zm-46.3-.582a.354.354,0,1,1,.354-.354A.354.354,0,0,1,10.414,12.211Zm46.3-.015a.354.354,0,1,1,.354-.354A.354.354,0,0,1,56.718,12.2Zm-45.5-.189a.15.15,0,1,1,.15-.15A.15.15,0,0,1,11.215,12.007Zm-1.6,0a.15.15,0,1,1,.15-.15A.15.15,0,0,1,9.613,12.007Zm47.905-.015a.15.15,0,1,1,.15-.15A.15.15,0,0,1,57.518,11.992Zm-1.6,0a.15.15,0,1,1,.15-.15A.15.15,0,0,1,55.917,11.992Zm-43.176-.533H11.525c-.013-.036-.028-.072-.044-.107l.86-.86a2.348,2.348,0,0,1,.4.966Zm-3.438,0H8.087a2.346,2.346,0,0,1,.4-.966l.859.859c-.016.034-.031.07-.044.107Zm49.742-.015H57.829c-.013-.035-.028-.071-.044-.107l.86-.859a2.347,2.347,0,0,1,.4.966Zm-3.438,0H54.391a2.347,2.347,0,0,1,.4-.966l.859.859c-.016.034-.031.07-.044.107Zm-45.192-.238a.15.15,0,1,1,.15-.15A.15.15,0,0,1,10.414,11.206Zm46.3-.015a.15.15,0,1,1,.15-.15A.15.15,0,0,1,56.718,11.191ZM9.91,10.79h0L9.05,9.931a2.347,2.347,0,0,1,.966-.4v1.215c-.035.013-.071.028-.107.045Zm1.009,0h0c-.035-.017-.071-.032-.107-.044V9.53a2.347,2.347,0,0,1,.966.4l-.859.86Zm45.295-.015h0l-.859-.859a2.347,2.347,0,0,1,.966-.4v1.215c-.035.013-.071.028-.107.044Zm1.009,0h0c-.036-.017-.072-.032-.107-.044V9.515a2.347,2.347,0,0,1,.966.4l-.859.859Z" transform="translate(0 0)"/>
        </g>
      </g>
      <g id="Layer_21-5" data-name="Layer 21" transform="translate(130.823 256.215)">
        <path id="Trazado_591-5" data-name="Trazado 591" d="M21.326,1a1.929,1.929,0,0,0-1.7,1.022A1.927,1.927,0,0,0,16,2.929V6.213h.453V2.927a1.473,1.473,0,0,1,2.946,0V3.72h.453V2.927a1.473,1.473,0,1,1,2.946,0V6.213h.453V2.927A1.929,1.929,0,0,0,21.326,1Z" transform="translate(-12.796 -1)" fill="#a1cdfb"/>
        <rect id="Rectángulo_127-5" data-name="Rectángulo 127" width="0.823" height="0.823" transform="translate(9.874 5.179)" fill="#a1cdfb"/>
        <rect id="Rectángulo_128-5" data-name="Rectángulo 128" width="0.823" height="1.646" transform="translate(3.291 5.179)" fill="#a1cdfb"/>
        <path id="Trazado_592-5" data-name="Trazado 592" d="M23,22l.907.907h2.266L27.08,22Z" transform="translate(-18.209 -17.241)" fill="#a8b0bc"/>
        <rect id="Rectángulo_129-5" data-name="Rectángulo 129" width="0.823" height="1.646" transform="translate(6.583 5.179)" fill="#c1c8d1"/>
        <path id="Trazado_593-5" data-name="Trazado 593" d="M20,36l.907.907h3.626L25.44,36Z" transform="translate(-15.889 -28.068)" fill="#c1c8d1"/>
        <rect id="Rectángulo_130-5" data-name="Rectángulo 130" width="1.646" height="1.646" transform="translate(5.76 8.47)" fill="#a8b0bc"/>
        <rect id="Rectángulo_131-5" data-name="Rectángulo 131" width="12.343" height="3.291" transform="translate(0.823 10.939)" fill="#c1c8d1"/>
        <rect id="Rectángulo_132-5" data-name="Rectángulo 132" width="13.989" height="0.823" transform="translate(0 13.407)" fill="#a1cdfb"/>
        <rect id="Rectángulo_133-5" data-name="Rectángulo 133" width="12.343" height="0.823" transform="translate(0.823 10.116)" fill="#a8b0bc"/>
        <rect id="Rectángulo_134-5" data-name="Rectángulo 134" width="5.76" height="0.823" transform="translate(4.114 6.824)" fill="#a8b0bc"/>
        <rect id="Rectángulo_135-5" data-name="Rectángulo 135" width="4.937" height="0.823" transform="translate(4.114 3.533)" fill="#c1c8d1"/>
        <path id="Trazado_594-5" data-name="Trazado 594" d="M28.122,13.354a.907.907,0,1,1,1.568,0Z" transform="translate(-22.076 -9.502)" fill="#64adf9"/>
        <path id="Trazado_595-5" data-name="Trazado 595" d="M6,50v1.89a8.354,8.354,0,0,0,2.493.376A7.633,7.633,0,0,0,14.071,50Z" transform="translate(-5.062 -38.894)" fill="#cdd3da"/>
        <path id="Trazado_596-5" data-name="Trazado 596" d="M13.218,46H4v.907h8.524A5.863,5.863,0,0,0,13.218,46Z" transform="translate(-3.515 -35.801)" fill="#b9c0c9"/>
      </g>
      <g id="iconfinder_21_5027815-5" data-name="iconfinder_21_5027815" transform="translate(110.997 258.271)">
        <path id="Trazado_584-5" data-name="Trazado 584" d="M1.13,4.8A3.212,3.212,0,0,0,4.269,8.031h.039A3.822,3.822,0,0,0,8.131,4.208c0-.108-.007-.214-.016-.318H1.13Z" transform="translate(-1.13 -3.89)" fill="#f2c6dd"/>
        <g id="Grupo_535-5" data-name="Grupo 535" transform="translate(0.058 0.967)">
          <path id="Trazado_585-5" data-name="Trazado 585" d="M3.06,13.927H2.13V8.84h8.62v.933" transform="translate(-1.957 -8.667)" fill="#ff9d9c"/>
          <ellipse id="Elipse_105-5" data-name="Elipse 105" cx="2.096" cy="2.096" rx="2.096" ry="2.096" transform="translate(6.575 4.392)" fill="#e9f4bc"/>
          <path id="Trazado_586-5" data-name="Trazado 586" d="M13.738,16.169a2.082,2.082,0,0,1,1.158.35V12.88H6.17v5.368h5.472A2.1,2.1,0,0,1,13.738,16.169Z" transform="translate(-5.067 -11.777)" fill="#f2c6dd"/>
          <path id="Trazado_587-5" data-name="Trazado 587" d="M16.516,18.947a2.185,2.185,0,0,1,.327.028V17.114a.623.623,0,0,1-.624-.624H10.4a.623.623,0,0,1-.622.624v2.457a.623.623,0,0,1,.622.624h4.2A2.094,2.094,0,0,1,16.516,18.947Z" transform="translate(-7.845 -14.555)" fill="#fff"/>
          <g id="Grupo_534-5" data-name="Grupo 534" transform="translate(0)">
            <path id="Trazado_588-5" data-name="Trazado 588" d="M36.913,31.063a.288.288,0,0,1,.288.288.173.173,0,1,0,.345,0,.633.633,0,0,0-.461-.606v-.092a.173.173,0,1,0-.345,0v.092a.631.631,0,0,0,.173,1.239.288.288,0,1,1-.288.288.173.173,0,1,0-.345,0,.633.633,0,0,0,.461.606v.092a.173.173,0,0,0,.345,0v-.092a.631.631,0,0,0-.173-1.239.288.288,0,0,1,0-.576Z" transform="translate(-28.243 -25.324)" fill="#505050"/>
            <path id="Trazado_589-5" data-name="Trazado 589" d="M22.947,19.552a.3.3,0,0,1,.3.3.173.173,0,1,0,.345,0,.648.648,0,0,0-.474-.622v-.1a.173.173,0,0,0-.345,0v.1a.646.646,0,0,0,.173,1.269.3.3,0,1,1-.3.3.173.173,0,0,0-.345,0,.648.648,0,0,0,.474.622v.1a.173.173,0,0,0,.345,0v-.1a.646.646,0,0,0-.173-1.269.3.3,0,1,1,0-.6Z" transform="translate(-17.482 -16.457)" fill="#505050"/>
            <path id="Trazado_590-5" data-name="Trazado 590" d="M11.382,12.744V9.193a.173.173,0,0,0-.051-.122.177.177,0,0,0-.122-.051h-.864V8.263a.174.174,0,0,0-.173-.173H1.553a.174.174,0,0,0-.173.173V13.35a.174.174,0,0,0,.173.173H2.31v1.039a.173.173,0,0,0,.051.122.177.177,0,0,0,.122.051H7.789a2.267,2.267,0,1,0,3.593-1.99ZM2.656,9.366H4.482a.173.173,0,1,0,0-.345h-2a.173.173,0,0,0-.173.173v3.984H1.725V8.435H10V9.02H5.4a.173.173,0,1,0,0,.345h5.633v3.171a2.212,2.212,0,0,0-.486-.17V10.649a.174.174,0,0,0-.173-.173.452.452,0,0,1-.451-.451.174.174,0,0,0-.173-.173H3.936a.174.174,0,0,0-.173.173.452.452,0,0,1-.449.451.174.174,0,0,0-.173.173v2.457a.174.174,0,0,0,.173.173.45.45,0,0,1,.449.451.174.174,0,0,0,.173.173H7.884a2.266,2.266,0,0,0-.092.486H2.656Zm5.371,4.191H4.091a.8.8,0,0,0-.6-.606V10.8a.8.8,0,0,0,.6-.606H9.6a.8.8,0,0,0,.606.606v1.515c-.051,0-.1-.007-.154-.007A2.268,2.268,0,0,0,8.026,13.557ZM10.051,16.5a1.923,1.923,0,1,1,1.923-1.923A1.926,1.926,0,0,1,10.051,16.5Z" transform="translate(-1.38 -8.09)" fill="#505050"/>
            <ellipse id="Elipse_106-5" data-name="Elipse 106" cx="0.173" cy="0.173" rx="0.173" ry="0.173" transform="translate(3.39 0.93)" fill="#505050"/>
          </g>
        </g>
      </g>
      <g id="iconfinder_Untitled-1-10_2419683-5" data-name="iconfinder_Untitled-1-10_2419683" transform="translate(153.533 256.215)">
        <path id="Sustracción_5-5" data-name="Sustracción 5" d="M11.571,12.128H8.93V3.356H8.4v8.772H3.174V3.356H2.641v8.772H0V3.356H.521V1.708h.533V.885H2.108L5.816,0l3.7.885H10.5v.824h.533V3.356h.533v8.772ZM9.717,10.553v1.1h.461v-1.1Zm-2.447,0v1.1h.267v-1.1ZM4,10.553v1.1h.424v-1.1Zm-2.484,0v1.1h.267v-1.1Zm8.2-2.193v1.1h.461V8.36ZM4,8.36v1.1h.424V8.36Zm3.271-.012v1.1h.267v-1.1Zm-5.755,0v1.1h.267v-1.1Zm8.2-2.181V7.258h.461V6.167Zm-2.447,0V7.258h.267V6.167ZM4,6.167V7.258h.424V6.167Zm-2.484,0V7.258h.267V6.167Zm8.2-2.193v1.1h.461v-1.1Zm-2.447,0v1.1h.267v-1.1ZM4,3.974v1.1h.424v-1.1Zm-2.484,0v1.1h.267v-1.1ZM6.709,1.151a.181.181,0,0,0-.185.185V3.086a.187.187,0,0,0,.048.132.16.16,0,0,0,.124.053.164.164,0,0,0,.127-.053.187.187,0,0,0,.049-.132V2.514H7.4a.524.524,0,0,0,.3-.093A.706.706,0,0,0,8,1.833a.708.708,0,0,0-.085-.345A.685.685,0,0,0,7.7,1.242a.529.529,0,0,0-.3-.091Zm-.824,0a.191.191,0,0,0-.139.053.176.176,0,0,0-.055.132V3.086a.178.178,0,0,0,.188.185.191.191,0,0,0,.133-.053.171.171,0,0,0,.058-.132V1.336A.175.175,0,0,0,6.014,1.2.181.181,0,0,0,5.885,1.151Zm-2.2-.009a.208.208,0,0,0-.121.047.158.158,0,0,0-.064.135.247.247,0,0,0,0,.038.121.121,0,0,0,.012.038l.748,1.757a.186.186,0,0,0,.07.083.2.2,0,0,0,.094.032.2.2,0,0,0,.1-.029.19.19,0,0,0,.077-.089L5.355,1.4a.209.209,0,0,0,.018-.082A.161.161,0,0,0,5.317,1.2a.193.193,0,0,0-.132-.05.173.173,0,0,0-.166.115L4.461,2.691,3.853,1.26A.174.174,0,0,0,3.686,1.142ZM7.4,2.169H6.873V1.5H7.4a.17.17,0,0,1,.112.047.371.371,0,0,1,.091.123.375.375,0,0,1,.036.163.379.379,0,0,1-.036.162.386.386,0,0,1-.091.126A.167.167,0,0,1,7.4,2.169Z" transform="translate(0.533 0)" fill="#60646b"/>
        <rect id="Rectángulo_136-5" data-name="Rectángulo 136" width="12.685" height="0.533" transform="translate(0 12.528)" fill="#60646b"/>
      </g>
      <g id="Elipse_123-5" data-name="Elipse 123" transform="translate(106.96 253.166)" fill="none" stroke="#c08cb8" stroke-width="0.5">
        <ellipse cx="9.051" cy="9.463" rx="9.051" ry="9.463" stroke="none"/>
        <ellipse cx="9.051" cy="9.463" rx="8.801" ry="9.213" fill="none"/>
      </g>
      <g id="Elipse_124-5" data-name="Elipse 124" transform="translate(128.355 253.166)" fill="none" stroke="#c08cb8" stroke-width="0.5">
        <ellipse cx="9.463" cy="9.463" rx="9.463" ry="9.463" stroke="none"/>
        <ellipse cx="9.463" cy="9.463" rx="9.213" ry="9.213" fill="none"/>
      </g>
      <g id="Elipse_125-5" data-name="Elipse 125" transform="translate(150.572 253.166)" fill="none" stroke="#c08cb8" stroke-width="0.5">
        <ellipse cx="9.463" cy="9.463" rx="9.463" ry="9.463" stroke="none"/>
        <ellipse cx="9.463" cy="9.463" rx="9.213" ry="9.213" fill="none"/>
      </g>
      <g id="Rectángulo_205-5" data-name="Rectángulo 205" transform="translate(97.424 304.439) rotate(-90)" fill="#fff" stroke="#000" stroke-width="1">
        <rect width="7.665" height="72.074" stroke="none"/>
        <rect x="0.5" y="0.5" width="6.665" height="71.074" fill="none"/>
      </g>
      <line id="Línea_53-5" data-name="Línea 53" y1="64.656" transform="translate(100.151 300.927) rotate(-90)" fill="none" stroke="#000" stroke-width="1" stroke-dasharray="3"/>
      <line id="Línea_54-4" data-name="Línea 54" y1="14" x2="3" transform="translate(125.5 255.5)" fill="none" stroke="#707070" stroke-width="1"/>
      <line id="Línea_55-4" data-name="Línea 55" y1="15" x2="3" transform="translate(147.5 255.5)" fill="none" stroke="#707070" stroke-width="1"/>
    </g>
  </g>
</svg>
