<svg xmlns="http://www.w3.org/2000/svg" width="175" height="209.419" viewBox="0 0 175 209.419">
  <g id="M_2_0_F" transform="translate(-89 -233)">
    <g id="Grupo_109" data-name="Grupo 109" transform="translate(88.648 233)">
      <g id="Rectángulo_4" data-name="Rectángulo 4" transform="translate(0.352)" fill="#fff" stroke="#c08cb8" stroke-width="1">
        <rect width="175" height="175" rx="19" stroke="none"/>
        <rect x="0.5" y="0.5" width="174" height="174" rx="18.5" fill="none"/>
      </g>
    </g>
    <g id="Grupo_542" data-name="Grupo 542" transform="translate(-3.081)">
      <g id="Grupo_540" data-name="Grupo 540">
        <g id="Rectángulo_137" data-name="Rectángulo 137" transform="translate(143.79 373) rotate(45)" fill="#fff" stroke="#f0f0f0" stroke-width="1">
          <rect width="49.087" height="49.087" stroke="none"/>
          <rect x="0.5" y="0.5" width="48.087" height="48.087" fill="none"/>
        </g>
        <path id="Trazado_679" data-name="Trazado 679" d="M.044.44a9.2,9.2,0,0,1-4.29-.99A9.815,9.815,0,0,1-7.5-3.256,12.927,12.927,0,0,1-9.57-7.128a13.833,13.833,0,0,1-.726-4.444,23.928,23.928,0,0,1,.33-3.608A24.362,24.362,0,0,1-8.8-19.624a20.141,20.141,0,0,1,2.332-4.532,17.017,17.017,0,0,1,3.806-3.96A16.456,16.456,0,0,1,2.992-30.8,4.172,4.172,0,0,1,4-30.932,3.283,3.283,0,0,1,5.83-30.4a2.132,2.132,0,0,1,.814,1.936,2.486,2.486,0,0,1-.638,1.694A3.5,3.5,0,0,1,4.312-25.74a13.448,13.448,0,0,0-2.97,1.3,13.764,13.764,0,0,0-2.728,2.09,13.026,13.026,0,0,0-2.156,2.794,11.707,11.707,0,0,0-1.3,3.366l-1.188-.044A18.4,18.4,0,0,1-4.51-17.842a8.785,8.785,0,0,1,2.2-1.5,6.859,6.859,0,0,1,3.058-.638,7.985,7.985,0,0,1,3.41.792,10.816,10.816,0,0,1,3.08,2.178A10.775,10.775,0,0,1,9.46-13.75,9.646,9.646,0,0,1,10.3-9.768,9.888,9.888,0,0,1,8.91-4.62a10.378,10.378,0,0,1-3.7,3.7A9.976,9.976,0,0,1,.044.44Zm0-4.84a4.661,4.661,0,0,0,2.53-.7A5.049,5.049,0,0,0,4.356-7.04a5.684,5.684,0,0,0,.66-2.728,5.649,5.649,0,0,0-.66-2.75,5.092,5.092,0,0,0-1.782-1.914,4.661,4.661,0,0,0-2.53-.7,4.661,4.661,0,0,0-2.53.7,5.092,5.092,0,0,0-1.782,1.914,5.649,5.649,0,0,0-.66,2.75,5.684,5.684,0,0,0,.66,2.728A5.049,5.049,0,0,0-2.486-5.1,4.661,4.661,0,0,0,.044-4.4Z" transform="translate(143.377 422.932)" fill="#f0f0f0"/>
      </g>
      <g id="Grupo_541" data-name="Grupo 541">
        <rect id="Rectángulo_138" data-name="Rectángulo 138" width="49.087" height="49.087" transform="translate(215.79 373) rotate(45)" fill="#d4c7e2"/>
        <path id="Trazado_680" data-name="Trazado 680" d="M-7-6.2a3.136,3.136,0,0,1,.858.132A3.633,3.633,0,0,1-5.1-5.544,8.218,8.218,0,0,0-3.322-4.532a6.083,6.083,0,0,0,2.4.44A5.161,5.161,0,0,0,1.65-4.774a5.612,5.612,0,0,0,2-1.936,5.529,5.529,0,0,0,.792-3.014A5.177,5.177,0,0,0,3.762-12.5a4.493,4.493,0,0,0-1.8-1.672,5.206,5.206,0,0,0-2.4-.572,6.159,6.159,0,0,0-1.606.176q-.638.176-1.232.374a4.388,4.388,0,0,1-1.386.2,1.866,1.866,0,0,1-1.562-.7,2.635,2.635,0,0,1-.55-1.672,2.427,2.427,0,0,1,.242-1.1,5.472,5.472,0,0,1,.726-1.056l7.744-8.448L3.124-25.96H-7.7a2.388,2.388,0,0,1-1.76-.7,2.388,2.388,0,0,1-.7-1.76,2.263,2.263,0,0,1,.7-1.694A2.429,2.429,0,0,1-7.7-30.8H5.764a2.632,2.632,0,0,1,2.046.748,2.7,2.7,0,0,1,.682,1.892,2.279,2.279,0,0,1-.286,1.1,4.407,4.407,0,0,1-.77,1.012l-7.788,8.58-1.188-1.5A6.53,6.53,0,0,1-.2-19.36a7.362,7.362,0,0,1,1.43-.176,7.655,7.655,0,0,1,4.51,1.342A8.925,8.925,0,0,1,8.69-14.718a10.405,10.405,0,0,1,1.034,4.6A10.589,10.589,0,0,1,8.272-4.488,9.532,9.532,0,0,1,4.18-.836,14,14,0,0,1-1.98.44a13.194,13.194,0,0,1-3.212-.4A10.584,10.584,0,0,1-7.92-1.012a3.021,3.021,0,0,1-1.3-1.166,2.641,2.641,0,0,1-.33-1.21A3,3,0,0,1-8.822-5.3,2.25,2.25,0,0,1-7-6.2Z" transform="translate(216.245 422.8)" fill="#884b7b"/>
      </g>
    </g>
    <path id="Trazado_677" data-name="Trazado 677" d="M1.025,0A1.581,1.581,0,0,1-.125-.437a1.455,1.455,0,0,1-.45-1.087v-12.6l.35.55-1.9,1.15a1.529,1.529,0,0,1-.8.225A1.365,1.365,0,0,1-4-12.687a1.556,1.556,0,0,1-.425-1.038,1.424,1.424,0,0,1,.775-1.3l3.775-2.25A2.284,2.284,0,0,1,1.2-17.5a1.4,1.4,0,0,1,1.063.438,1.524,1.524,0,0,1,.412,1.087v14.45A1.436,1.436,0,0,1,2.213-.437,1.658,1.658,0,0,1,1.025,0Z" transform="translate(176 278)"/>
    <path id="Trazado_676" data-name="Trazado 676" d="M1.025,0A1.581,1.581,0,0,1-.125-.437a1.455,1.455,0,0,1-.45-1.087v-12.6l.35.55-1.9,1.15a1.529,1.529,0,0,1-.8.225A1.365,1.365,0,0,1-4-12.687a1.556,1.556,0,0,1-.425-1.038,1.424,1.424,0,0,1,.775-1.3l3.775-2.25A2.284,2.284,0,0,1,1.2-17.5a1.4,1.4,0,0,1,1.063.438,1.524,1.524,0,0,1,.412,1.087v14.45A1.436,1.436,0,0,1,2.213-.437,1.658,1.658,0,0,1,1.025,0Z" transform="translate(129 278)"/>
    <path id="Trazado_678" data-name="Trazado 678" d="M1.025,0A1.581,1.581,0,0,1-.125-.437a1.455,1.455,0,0,1-.45-1.087v-12.6l.35.55-1.9,1.15a1.529,1.529,0,0,1-.8.225A1.365,1.365,0,0,1-4-12.687a1.556,1.556,0,0,1-.425-1.038,1.424,1.424,0,0,1,.775-1.3l3.775-2.25A2.284,2.284,0,0,1,1.2-17.5a1.4,1.4,0,0,1,1.063.438,1.524,1.524,0,0,1,.412,1.087v14.45A1.436,1.436,0,0,1,2.213-.437,1.658,1.658,0,0,1,1.025,0Z" transform="translate(223 278)"/>
    <g id="Shape_1" transform="translate(355.23 183.543)">
      <g id="Grupo_533" data-name="Grupo 533" transform="translate(-248.098 154.883)">
        <path id="Sustracción_4" data-name="Sustracción 4" d="M22.58,34.089a8.34,8.34,0,0,1-4.685-1.431,8.4,8.4,0,0,1-3.036-3.687,8.368,8.368,0,0,1,.773-7.947,8.4,8.4,0,0,1,3.687-3.036,8.369,8.369,0,0,1,7.947.773A8.4,8.4,0,0,1,30.3,22.447a8.369,8.369,0,0,1-.773,7.947,8.405,8.405,0,0,1-3.687,3.036A8.327,8.327,0,0,1,22.58,34.089Zm0-14.366a5.967,5.967,0,1,0,2.33.47A5.948,5.948,0,0,0,22.58,19.723Zm100.4,14.334a8.341,8.341,0,0,1-4.685-1.431,8.405,8.405,0,0,1-3.036-3.687,8.368,8.368,0,0,1,.773-7.947,8.405,8.405,0,0,1,3.687-3.036,8.369,8.369,0,0,1,7.947.773,8.405,8.405,0,0,1,3.036,3.687,8.369,8.369,0,0,1-.773,7.947A8.4,8.4,0,0,1,126.24,33.4,8.327,8.327,0,0,1,122.979,34.057Zm0-14.366a5.967,5.967,0,1,0,2.33.47A5.947,5.947,0,0,0,122.979,19.691ZM23.443,30.754h0V28.118a2.5,2.5,0,0,0,.231-.1l1.863,1.864a5.088,5.088,0,0,1-2.095.868Zm-1.725,0h0a5.089,5.089,0,0,1-2.095-.868l1.863-1.864a2.488,2.488,0,0,0,.232.1v2.635Zm102.123-.032h0V28.086a2.453,2.453,0,0,0,.231-.1l1.864,1.864a5.093,5.093,0,0,1-2.095.869Zm-1.724,0h0a5.091,5.091,0,0,1-2.1-.868l1.864-1.864a2.5,2.5,0,0,0,.232.1v2.636ZM26.757,28.666h0L24.894,26.8c.035-.073.067-.151.1-.232h2.636a5.092,5.092,0,0,1-.868,2.1Zm-8.354,0h0a5.092,5.092,0,0,1-.868-2.1h2.635c.028.077.06.155.1.231L18.4,28.666Zm108.752-.032h0l-1.863-1.863c.035-.075.068-.153.1-.232h2.636a5.09,5.09,0,0,1-.868,2.1Zm-8.354,0h0a5.09,5.09,0,0,1-.868-2.1h2.635a2.474,2.474,0,0,0,.1.231L118.8,28.634Zm-87.823-.061h0a13.111,13.111,0,0,0,.317-2.864,8.674,8.674,0,0,0-1.488-4.873,8.741,8.741,0,0,0-3.835-3.158,8.7,8.7,0,0,0-8.265.8,8.74,8.74,0,0,0-3.158,3.834,8.66,8.66,0,0,0-.685,3.392,8.792,8.792,0,0,0,.113,1.4l-.483-.027c-.023,0-2.317-.07-4.819-.3-1.465-.136-2.709-.3-3.7-.487a6.868,6.868,0,0,1-2.484-.808c-.235-.068-.349-.3-.46-.523a1.982,1.982,0,0,0-.154-.275A6.635,6.635,0,0,0,.344,23.213,7.83,7.83,0,0,0,.17,22.056c-.052-.259-.1-.5-.133-.747l.123-.553A11,11,0,0,1,0,19.081a8.49,8.49,0,0,1,.123-1.648,4.521,4.521,0,0,1,.463-1.385,2.106,2.106,0,0,1,.863-.884c0-.285-.007-.565-.013-.836h0a5.523,5.523,0,0,1,.5-3.218,1.237,1.237,0,0,0-.094-.619.617.617,0,0,0-.4-.3A2.671,2.671,0,0,1,1.975,9.18v0c.1-.14.194-.272.273-.405,1-.014,2.163-.036,3.274-.116A20.436,20.436,0,0,0,8.64,8.219a9.262,9.262,0,0,1,1.492-.179h0a6.9,6.9,0,0,0,1.7-.251,10.617,10.617,0,0,0,1.61-.721h0c.31-.16.6-.312.907-.445.831-.365,1.675-.716,2.491-1.055l.02-.008c.468-.195.953-.4,1.422-.6C19.849,4.3,21.451,3.706,23,3.132c1.52-.564,3.091-1.146,4.628-1.795.018-.084.153-.178.4-.28A6.461,6.461,0,0,1,28.92.788,9.845,9.845,0,0,1,30.9.5a1.412,1.412,0,0,1,.351.033C35.65.186,42.343,0,50.609,0c4.453,0,9.137.053,13.921.159,4.6.1,9.153.25,13.163.429,4.158.186,7.628.4,10.312.631a28.642,28.642,0,0,1,5.371.762c1.111.406,3.838,1.832,5.365,2.645,2.273,1.211,4.369,2.387,5.082,2.824.431.264.881.521,1.316.77l.006,0c.5.283,1.007.576,1.505.886.133.083.267.182.409.287a3.172,3.172,0,0,0,1,.573,13.354,13.354,0,0,0,1.8.081h.639l.718,0a59.552,59.552,0,0,1,7.2.416c1.75.2,3.634.485,5.6.843,2.263.411,4.71.933,7.272,1.552.362.118.735.231,1.129.35l.005,0a23.1,23.1,0,0,1,2.956,1.04,6.955,6.955,0,0,1,1.254.726,3.811,3.811,0,0,1,.924.955,4.2,4.2,0,0,1,.517,1.909,14.957,14.957,0,0,1-.032,2.415,27.756,27.756,0,0,1-.423,2.988l.246,2.581a3.541,3.541,0,0,1-.3.668,2.948,2.948,0,0,1-.4.55,1.934,1.934,0,0,1-.593.441,4.836,4.836,0,0,1-1.131.278c-.43.069-.963.133-1.583.191-1.047.1-2.009.145-2.018.146l-.494.01a8.715,8.715,0,1,0-16.634.348l-83.737.118ZM45.247,1.837l1.3,8.925,36.805-.09L80.726,1.944,45.247,1.837ZM23.55,5.481h0a.3.3,0,0,1-.036.095,3.042,3.042,0,0,0-.289,1.565,2.746,2.746,0,0,0,.433,1.211,4.5,4.5,0,0,0,1.325,1.28,22.8,22.8,0,0,0,5.635.634c2.716.119,6.051.169,8.993.212,2,.03,3.888.058,5.405.1-.235-1.321-.475-2.872-.706-4.372v0c-.232-1.5-.471-3.057-.707-4.379C28.391,1.853,24.23,4.875,23.55,5.481h0Zm61.224,5.1,14.5,0a2.765,2.765,0,0,1-.186-1.013,1.575,1.575,0,0,1,.244-.847,1.334,1.334,0,0,1,.521-.458,2.082,2.082,0,0,1,.835-.2,25.976,25.976,0,0,0-2.92-1.972A28.261,28.261,0,0,0,93.007,3.64a27.407,27.407,0,0,0-2.683-.711c-.832-.182-1.755-.357-2.742-.52-1.664-.275-2.94-.422-2.994-.428-.026,0-2.615-.114-2.7-.122h0c.217.888.693,2.567,1.729,5.528.593,1.694,1.1,3.043,1.158,3.192v0ZM23.55,5.481a.523.523,0,0,0-.1.1C23.476,5.549,23.511,5.515,23.55,5.481Zm-.97,22.289a.325.325,0,1,1,.325-.325A.326.326,0,0,1,22.58,27.771Zm100.4-.032a.325.325,0,1,1,.325-.325A.326.326,0,0,1,122.979,27.739ZM22.58,26.477a.768.768,0,1,1,.768-.768A.769.769,0,0,1,22.58,26.477Zm100.4-.032a.768.768,0,1,1,.768-.768A.769.769,0,0,1,122.979,26.445Zm-98.662-.41a.325.325,0,1,1,.325-.325A.326.326,0,0,1,24.316,26.034Zm-3.473,0a.325.325,0,1,1,.325-.325A.326.326,0,0,1,20.844,26.034ZM124.715,26a.325.325,0,1,1,.326-.325A.326.326,0,0,1,124.715,26Zm-3.473,0a.325.325,0,1,1,.325-.325A.326.326,0,0,1,121.242,26ZM27.625,24.847H24.99c-.028-.077-.06-.155-.1-.232l1.864-1.864a5.09,5.09,0,0,1,.868,2.1Zm-7.455,0H17.535a5.087,5.087,0,0,1,.868-2.1l1.863,1.864c-.035.073-.067.151-.1.232Zm107.853-.032h-2.635c-.027-.076-.06-.154-.1-.231l1.864-1.863a5.089,5.089,0,0,1,.868,2.095Zm-7.454,0h-2.636a5.089,5.089,0,0,1,.868-2.095l1.863,1.864c-.035.075-.068.152-.1.231ZM22.58,24.3a.325.325,0,1,1,.325-.326A.326.326,0,0,1,22.58,24.3Zm100.4-.032a.325.325,0,1,1,.325-.326A.326.326,0,0,1,122.979,24.266ZM21.487,23.4h0l-1.863-1.864a5.09,5.09,0,0,1,2.095-.868V23.3c-.076.027-.154.06-.231.1Zm2.187,0h0c-.076-.036-.153-.068-.231-.1V20.664a5.088,5.088,0,0,1,2.095.868L23.674,23.4Zm98.211-.032h0L120.021,21.5a5.089,5.089,0,0,1,2.1-.868v2.635c-.076.027-.154.06-.231.1Zm2.187,0h0c-.078-.037-.156-.069-.232-.1V20.632a5.089,5.089,0,0,1,2.1.868l-1.864,1.864Z" transform="translate(0 0)"/>
      </g>
    </g>
    <g id="Layer_21" data-name="Layer 21" transform="translate(159.531 288)">
      <path id="Trazado_591" data-name="Trazado 591" d="M27.549,1a4.182,4.182,0,0,0-3.686,2.216A4.177,4.177,0,0,0,16,5.182V12.3h.983V5.177a3.194,3.194,0,0,1,6.389,0V6.9h.983V5.177a3.194,3.194,0,0,1,6.389,0V12.3h.983V5.177A4.182,4.182,0,0,0,27.549,1Z" transform="translate(-7.629)" fill="#a1cdfb"/>
      <rect id="Rectángulo_127" data-name="Rectángulo 127" width="1" height="1" transform="translate(23.469 13)" fill="#a1cdfb"/>
      <rect id="Rectángulo_128" data-name="Rectángulo 128" width="1" height="2" transform="translate(8.469 13)" fill="#a1cdfb"/>
      <path id="Trazado_592" data-name="Trazado 592" d="M23,22l1.966,1.966H29.88L31.846,22Z" transform="translate(-11.189 -10.68)" fill="#a8b0bc"/>
      <rect id="Rectángulo_129" data-name="Rectángulo 129" width="2" height="3" transform="translate(15.469 13)" fill="#c1c8d1"/>
      <path id="Trazado_593" data-name="Trazado 593" d="M20,36l1.966,1.966h7.863L31.794,36Z" transform="translate(-9.663 -17.8)" fill="#c1c8d1"/>
      <rect id="Rectángulo_130" data-name="Rectángulo 130" width="3" height="3" transform="translate(14.469 20)" fill="#a8b0bc"/>
      <rect id="Rectángulo_131" data-name="Rectángulo 131" width="26" height="6" transform="translate(3.469 25)" fill="#c1c8d1"/>
      <rect id="Rectángulo_132" data-name="Rectángulo 132" width="30" height="1" transform="translate(1.469 30)" fill="#a1cdfb"/>
      <rect id="Rectángulo_133" data-name="Rectángulo 133" width="28" height="2" transform="translate(2.469 23)" fill="#a8b0bc"/>
      <rect id="Rectángulo_134" data-name="Rectángulo 134" width="14" height="2" transform="translate(9.469 16)" fill="#a8b0bc"/>
      <rect id="Rectángulo_135" data-name="Rectángulo 135" width="11" height="2" transform="translate(10.469 9)" fill="#c1c8d1"/>
      <path id="Trazado_594" data-name="Trazado 594" d="M28.265,14.945a1.966,1.966,0,1,1,3.4,0Z" transform="translate(-13.731 -5.591)" fill="#64adf9"/>
      <path id="Trazado_595" data-name="Trazado 595" d="M6,50v4.1a18.114,18.114,0,0,0,5.406.816A16.551,16.551,0,0,0,23.5,50Z" transform="translate(-2.543 -24.92)" fill="#cdd3da"/>
      <path id="Trazado_596" data-name="Trazado 596" d="M23.987,46H4v1.966H22.483A12.713,12.713,0,0,0,23.987,46Z" transform="translate(-1.526 -22.886)" fill="#b9c0c9"/>
    </g>
    <g id="iconfinder_21_5027815" transform="translate(116.836 289.568)">
      <path id="Trazado_584" data-name="Trazado 584" d="M1.13,5.862a6.964,6.964,0,0,0,6.806,7.006h.085A8.288,8.288,0,0,0,16.31,4.579c0-.235-.015-.464-.035-.689H1.13Z" fill="#f2c6dd"/>
      <g id="Grupo_535" data-name="Grupo 535" transform="translate(1.255 5.987)">
        <path id="Trazado_585" data-name="Trazado 585" d="M4.147,19.871H2.13V8.84H20.821v2.022" transform="translate(-1.755 -8.465)" fill="#ff9d9c"/>
        <circle id="Elipse_105" data-name="Elipse 105" cx="4.544" cy="4.544" r="4.544" transform="translate(14.256 9.523)" fill="#e9f4bc"/>
        <path id="Trazado_586" data-name="Trazado 586" d="M22.579,20.011a4.513,4.513,0,0,1,2.512.759V12.88H6.17V24.52H18.035A4.544,4.544,0,0,1,22.579,20.011Z" transform="translate(-3.778 -10.488)" fill="#f2c6dd"/>
        <path id="Trazado_587" data-name="Trazado 587" d="M24.386,21.818a4.738,4.738,0,0,1,.709.06V17.843a1.351,1.351,0,0,1-1.353-1.353H11.128A1.35,1.35,0,0,1,9.78,17.843v5.328a1.35,1.35,0,0,1,1.348,1.353h9.1A4.54,4.54,0,0,1,24.386,21.818Z" transform="translate(-5.585 -12.295)" fill="#fff"/>
        <g id="Grupo_534" data-name="Grupo 534" transform="translate(0)">
          <path id="Trazado_588" data-name="Trazado 588" d="M37.653,31.743a.624.624,0,0,1,.624.624.375.375,0,1,0,.749,0,1.372,1.372,0,0,0-1-1.313v-.2a.375.375,0,0,0-.749,0v.2a1.369,1.369,0,0,0,.375,2.686.624.624,0,1,1-.624.624.375.375,0,0,0-.749,0,1.372,1.372,0,0,0,1,1.313v.2a.375.375,0,0,0,.749,0v-.2a1.369,1.369,0,0,0-.375-2.686.624.624,0,0,1,0-1.248Z" transform="translate(-18.853 -19.3)" fill="#505050"/>
          <path id="Trazado_589" data-name="Trazado 589" d="M23.7,20.243a.656.656,0,0,1,.654.654.375.375,0,0,0,.749,0,1.4,1.4,0,0,0-1.029-1.348v-.215a.375.375,0,0,0-.749,0v.215A1.4,1.4,0,0,0,23.7,22.3a.654.654,0,1,1-.654.654.375.375,0,0,0-.749,0A1.4,1.4,0,0,0,23.329,24.3v.215a.375.375,0,0,0,.749,0V24.3a1.4,1.4,0,0,0-.375-2.751.654.654,0,1,1,0-1.308Z" transform="translate(-11.854 -13.532)" fill="#505050"/>
          <path id="Trazado_590" data-name="Trazado 590" d="M23.067,18.182v-7.7a.374.374,0,0,0-.11-.265.383.383,0,0,0-.265-.11H20.82V8.465a.377.377,0,0,0-.375-.375H1.755a.377.377,0,0,0-.375.375V19.5a.377.377,0,0,0,.375.375H3.4v2.252a.374.374,0,0,0,.11.265.383.383,0,0,0,.265.11h11.5a4.914,4.914,0,1,0,7.79-4.314ZM4.146,10.856h3.96a.375.375,0,1,0,0-.749H3.772a.375.375,0,0,0-.375.375v8.639H2.129V8.839H20.071v1.268H10.1a.375.375,0,1,0,0,.749H22.318v6.876a4.8,4.8,0,0,0-1.054-.37V13.638a.377.377,0,0,0-.375-.375.98.98,0,0,1-.979-.979.377.377,0,0,0-.375-.375H6.923a.377.377,0,0,0-.375.375.979.979,0,0,1-.974.979.377.377,0,0,0-.375.375v5.328a.377.377,0,0,0,.375.375.976.976,0,0,1,.974.979.377.377,0,0,0,.375.375h8.559a4.914,4.914,0,0,0-.2,1.054H4.146Zm11.645,9.088H7.257a1.732,1.732,0,0,0-1.308-1.313V13.967a1.732,1.732,0,0,0,1.308-1.313H19.2a1.731,1.731,0,0,0,1.313,1.313v3.286c-.11-.01-.22-.015-.335-.015A4.918,4.918,0,0,0,15.791,19.945Zm4.389,6.382a4.17,4.17,0,1,1,4.17-4.17A4.177,4.177,0,0,1,20.18,26.326Z" transform="translate(-1.38 -8.09)" fill="#505050"/>
          <circle id="Elipse_106" data-name="Elipse 106" cx="0.375" cy="0.375" r="0.375" transform="translate(7.35 2.017)" fill="#505050"/>
        </g>
      </g>
    </g>
    <g id="iconfinder_Untitled-1-10_2419683" transform="translate(198.595 277.401)">
      <path id="Sustracción_5" data-name="Sustracción 5" d="M25.089,26.3H19.362V7.277H18.205V26.3H6.883V7.277H5.727V26.3H0V7.277H1.13V3.7H2.285V1.918H4.571L12.61,0l8.012,1.918h2.154V3.7h1.156V7.277h1.156V26.3Zm-4.02-3.416v2.391h1V22.882Zm-5.307,0v2.391h.578V22.882Zm-7.093,0v2.391h.919V22.882Zm-5.385,0v2.391h.578V22.882Zm17.785-4.755v2.391h1V18.127Zm-12.4,0v2.391h.919V18.127Zm7.093-.026v2.391h.578V18.1Zm-12.478,0v2.391h.578V18.1Zm17.785-4.729v2.365h1V13.372Zm-5.307,0v2.365h.578V13.372Zm-7.093,0v2.365h.919V13.372Zm-5.385,0v2.365h.578V13.372ZM21.069,8.618v2.39h1V8.618Zm-5.307,0v2.39h.578V8.618Zm-7.093,0v2.39h.919V8.618Zm-5.385,0v2.39h.578V8.618ZM14.548,2.5a.392.392,0,0,0-.4.4v3.8a.405.405,0,0,0,.1.286.347.347,0,0,0,.27.115.356.356,0,0,0,.275-.115.406.406,0,0,0,.105-.286V5.452h1.142a1.135,1.135,0,0,0,.641-.2,1.53,1.53,0,0,0,.666-1.277,1.535,1.535,0,0,0-.184-.749,1.485,1.485,0,0,0-.482-.532,1.146,1.146,0,0,0-.641-.2Zm-1.786,0a.415.415,0,0,0-.3.115.382.382,0,0,0-.118.285v3.8a.387.387,0,0,0,.407.4.414.414,0,0,0,.289-.115.371.371,0,0,0,.125-.286V2.9a.379.379,0,0,0-.122-.285A.392.392,0,0,0,12.761,2.5Zm-4.769-.02a.451.451,0,0,0-.263.1.344.344,0,0,0-.138.292.535.535,0,0,0,.007.082.262.262,0,0,0,.026.082l1.622,3.81a.4.4,0,0,0,.151.18.427.427,0,0,0,.2.069.434.434,0,0,0,.22-.062.412.412,0,0,0,.168-.193l1.622-3.8a.453.453,0,0,0,.039-.177.35.35,0,0,0-.121-.272.418.418,0,0,0-.286-.109.376.376,0,0,0-.361.25l-1.209,3.1-1.319-3.1A.377.377,0,0,0,7.993,2.477ZM16.044,4.7H14.9V3.251h1.142a.369.369,0,0,1,.243.1.8.8,0,0,1,.2.267.813.813,0,0,1,.079.354.823.823,0,0,1-.079.351.837.837,0,0,1-.2.272A.363.363,0,0,1,16.044,4.7Z" transform="translate(12.756 11.599)" fill="#60646b"/>
      <rect id="Rectángulo_136" data-name="Rectángulo 136" width="27.505" height="1.156" transform="translate(11.6 38.763)" fill="#60646b"/>
    </g>
    <g id="Elipse_123" data-name="Elipse 123" transform="translate(109 283)" fill="none" stroke="#c08cb8" stroke-width="1">
      <circle cx="20" cy="20" r="20" stroke="none"/>
      <circle cx="20" cy="20" r="19.5" fill="none"/>
    </g>
    <g id="Elipse_124" data-name="Elipse 124" transform="translate(156 283)" fill="none" stroke="#c08cb8" stroke-width="1">
      <circle cx="20" cy="20" r="20" stroke="none"/>
      <circle cx="20" cy="20" r="19.5" fill="none"/>
    </g>
    <g id="Elipse_125" data-name="Elipse 125" transform="translate(204 283)" fill="none" stroke="#c08cb8" stroke-width="1">
      <circle cx="20" cy="20" r="20" stroke="none"/>
      <circle cx="20" cy="20" r="19.5" fill="none"/>
    </g>
  </g>
</svg>
