<svg xmlns="http://www.w3.org/2000/svg" width="175" height="206.521" viewBox="0 0 175 206.521">
  <g id="M_3_1_T" transform="translate(-89 -233.365)">
    <g id="Grupo_109" data-name="Grupo 109" transform="translate(88.648 233.365)">
      <g id="Rectángulo_4" data-name="Rectángulo 4" transform="translate(0.352)" fill="#fff" stroke="#e77ca4" stroke-width="1">
        <rect width="175" height="175" rx="19" stroke="none"/>
        <rect x="0.5" y="0.5" width="174" height="174" rx="18.5" fill="none"/>
      </g>
      <g id="Grupo_595" data-name="Grupo 595" transform="translate(-92.14 -232.731)">
        <g id="Grupo_537" data-name="Grupo 537">
          <path id="iconfinder_octagon_3325011" d="M20.341,2H46.255L64.6,20.341V46.255L46.255,64.6H20.341L2,46.255V20.341Z" transform="translate(110.492 374.656)" fill="#c45b7c"/>
          <path id="Trazado_654" data-name="Trazado 654" d="M-.044-31.372a9.2,9.2,0,0,1,4.29.99A9.815,9.815,0,0,1,7.5-27.676a12.988,12.988,0,0,1,2.068,3.85A13.77,13.77,0,0,1,10.3-19.36a23.928,23.928,0,0,1-.33,3.608A24.362,24.362,0,0,1,8.8-11.308,20.141,20.141,0,0,1,6.468-6.776a17.017,17.017,0,0,1-3.806,3.96A16.456,16.456,0,0,1-2.992-.132,4.172,4.172,0,0,1-4,0,3.188,3.188,0,0,1-5.83-.55a2.14,2.14,0,0,1-.814-1.914A2.463,2.463,0,0,1-6.006-4.18,3.576,3.576,0,0,1-4.312-5.192,14.229,14.229,0,0,0-.374-7.128a13.722,13.722,0,0,0,3.322-3.256A10.969,10.969,0,0,0,4.84-14.74l1.188.044a19.124,19.124,0,0,1-1.474,1.584,8.466,8.466,0,0,1-2.2,1.518,6.967,6.967,0,0,1-3.1.638,7.985,7.985,0,0,1-3.41-.792,10.816,10.816,0,0,1-3.08-2.178A10.775,10.775,0,0,1-9.46-17.182a9.646,9.646,0,0,1-.836-3.982,9.854,9.854,0,0,1,1.386-5.17,10.379,10.379,0,0,1,3.718-3.674A10.01,10.01,0,0,1-.044-31.372Zm0,4.84a4.694,4.694,0,0,0-2.508.7,5.034,5.034,0,0,0-1.8,1.914,5.649,5.649,0,0,0-.66,2.75,5.684,5.684,0,0,0,.66,2.728,4.992,4.992,0,0,0,1.8,1.936,4.694,4.694,0,0,0,2.508.7,4.661,4.661,0,0,0,2.53-.7,5.049,5.049,0,0,0,1.782-1.936,5.684,5.684,0,0,0,.66-2.728,5.649,5.649,0,0,0-.66-2.75,5.092,5.092,0,0,0-1.782-1.914A4.661,4.661,0,0,0-.044-26.532Z" transform="translate(143.788 423.028)" fill="#f3d8e7"/>
        </g>
        <g id="Grupo_538" data-name="Grupo 538">
          <path id="iconfinder_octagon_3325011-2" data-name="iconfinder_octagon_3325011" d="M20.341,2H46.255L64.6,20.341V46.255L46.255,64.6H20.341L2,46.255V20.341Z" transform="translate(182.492 374.656)" fill="#f3bed5"/>
          <path id="Trazado_655" data-name="Trazado 655" d="M5.06,0A2.474,2.474,0,0,1,3.212-.77a2.639,2.639,0,0,1-.748-1.914v-20.68l.924.22L-5.1-12.628l-.22-.572H9.592a2.388,2.388,0,0,1,1.76.7,2.388,2.388,0,0,1,.7,1.76,2.263,2.263,0,0,1-.7,1.694,2.429,2.429,0,0,1-1.76.682H-8.976a2.692,2.692,0,0,1-1.782-.748,2.356,2.356,0,0,1-.858-1.848,2.683,2.683,0,0,1,.66-1.76l13.9-17.028a2.505,2.505,0,0,1,.924-.77A2.813,2.813,0,0,1,5.148-30.8a2.455,2.455,0,0,1,1.87.77,2.682,2.682,0,0,1,.726,1.914V-2.684A2.6,2.6,0,0,1,6.974-.77,2.6,2.6,0,0,1,5.06,0Z" transform="translate(215.108 423.457)" fill="#c73d61"/>
        </g>
      </g>
    </g>
    <g id="Grupo_549" data-name="Grupo 549" transform="translate(822.128 -7667.108)">
      <g id="Grupo_531" data-name="Grupo 531" transform="translate(-659 7925.398)">
        <rect id="Rectángulo_125" data-name="Rectángulo 125" width="38.925" height="9.308" rx="1" transform="translate(4.231 33.51)" fill="#ffc4dd"/>
        <path id="iconfinder_Untitled-1-18_2419684" d="M64.266,64.1V15.533l-2.722-2.722V6.3h-36.4v6.511l-2.722,2.722V64.1H19.7v2.722H66.988V64.1ZM54.179,8.061a1.921,1.921,0,1,1-1.921,1.921A1.948,1.948,0,0,1,54.179,8.061Zm-5.391,0a1.921,1.921,0,1,1-1.921,1.921A1.913,1.913,0,0,1,48.788,8.061Zm-5.444,0a1.913,1.913,0,0,1,1.921,1.921,1.869,1.869,0,0,1-1.921,1.868,1.895,1.895,0,1,1,0-3.789Zm-5.444,0a1.921,1.921,0,1,1-1.921,1.921A1.948,1.948,0,0,1,37.9,8.061Zm-5.391,0a1.921,1.921,0,1,1-1.921,1.921A1.913,1.913,0,0,1,32.509,8.061Zm19,23.217v5.444H46.066V31.278Zm-5.444-4.27V21.565H51.51v5.444Zm.107,13.93h5.444v5.444H46.173ZM61.544,26.582v5.444H56.154V26.582Zm-5.391-2.936V18.256H61.6V23.7H56.154Zm5.391,11.048v5.444H56.154V34.694Zm0,7.9v5.444H56.154V42.594Zm0,8.166V56.2H56.154V50.76ZM35.231,36.669V31.278h5.444v5.444l-5.444-.053Zm5.177,4.27v5.444H35.018V40.939Zm-5.177-13.93V21.565h5.444v5.444ZM25.144,18.256h5.391V23.7H25.144Zm0,8.326h5.391v5.444H25.144Zm0,8.113h5.391v5.444H25.144Zm0,7.739h5.391v5.444H25.144Zm0,8.166h5.391v5.444H25.144Zm12.809,2.3H48.788V64.1H37.954Z" transform="translate(-19.7 36.484)" fill="#356dd0"/>
        <path id="Trazado_580" data-name="Trazado 580" d="M-69.4-25.613a.438.438,0,0,0,.444-.451v-1.594h2.372v1.594a.478.478,0,0,0,.495.451.444.444,0,0,0,.451-.451V-30.2a.44.44,0,0,0-.451-.451.473.473,0,0,0-.495.451v1.586h-2.372V-30.2a.434.434,0,0,0-.444-.451.456.456,0,0,0-.517.451v4.134A.46.46,0,0,0-69.4-25.613Zm9.941-2.547a2.624,2.624,0,0,0-2.605-2.671,2.611,2.611,0,0,0-2.744,2.671,2.54,2.54,0,0,0,2.744,2.62A2.538,2.538,0,0,0-59.46-28.16Zm-.953,0a1.681,1.681,0,0,1-1.732,1.725,1.67,1.67,0,0,1-1.7-1.725,1.666,1.666,0,0,1,1.7-1.725A1.676,1.676,0,0,1-60.414-28.16Zm3.209,2.1a.48.48,0,0,0,.961,0v-3.675h1.208a.466.466,0,1,0,0-.931h-3.442a.466.466,0,1,0,0,.931H-57.2Zm6.528.451a.478.478,0,1,0,0-.953H-52.9v-1.092h1.834a.477.477,0,1,0,0-.953H-52.9V-29.7h2.1a.474.474,0,1,0,0-.946h-2.613a.44.44,0,0,0-.451.451v4.134a.444.444,0,0,0,.451.451Zm1.3-.444a.44.44,0,0,0,.458.444h2.409a.48.48,0,1,0,0-.953h-1.979v-3.646a.443.443,0,0,0-.429-.444.454.454,0,0,0-.458.444Z" transform="translate(81.779 66.569)"/>
        <path id="Sustracción_3" data-name="Sustracción 3" d="M36.387,28.94H0V0H36.387V28.94Zm-8.462-8.124V26.74h5.923V20.817Zm-8.462,0V26.74h5.924V20.817Zm-8.462,0V26.74h5.924V20.817Zm-8.462,0V26.74H8.462V20.817Zm25.386-8.8v5.923h5.923V12.016Zm-8.462,0v5.923h5.924V12.016Zm-8.462,0v5.923h5.924V12.016Zm-8.462,0v5.923H8.462V12.016Zm25.386-8.8V9.139h5.923V3.216Zm-8.462,0V9.139h5.924V3.216ZM11,3.216V9.139h5.924V3.216Zm-8.462,0V9.139H8.462V3.216Z" transform="translate(5.416 4.569)" fill="#356dd0" opacity="0.266"/>
        <rect id="Rectángulo_126" data-name="Rectángulo 126" width="38.925" height="4.908" rx="1" transform="translate(4.231 0)" fill="#ffc4dd" opacity="0.266"/>
      </g>
      <path id="Trazado_578" data-name="Trazado 578" d="M-644.48,7921.264l9.562-8.979-9.562,15.385,15.6-15.385-15.6,21.822,21.7-21.822-21.7,25.533,26.166-25.533-24.549,29.187,27.936-29.187L-640,7943.493l28.67-31.208-21.767,31.208,24.307-30.044-20.088,30.044,22.611-30.044-19.358,30.044,20.982-27.485-16.765,27.485,16.765-22.229-14.3,22.229,14.3-19.263-11.574,19.263,10.937-15.213-8.44,15.213,9.077-12.083-6.685,12.083,6.685-8.517-4.7,8.517,4.7-5.674-2.189,5.674,2.189-2.021" transform="translate(-11.545 15.534)" fill="none" stroke="#000" stroke-width="1"/>
      <text id="_3" data-name="3" transform="translate(-685.128 7993.398)" fill="#e77ca4" font-size="44" font-family="Quicksand" font-weight="700"><tspan x="-11.484" y="0">3</tspan></text>
    </g>
  </g>
</svg>
