<svg xmlns="http://www.w3.org/2000/svg" width="175" height="207.445" viewBox="0 0 175 207.445">
  <g id="M_3_2_F" transform="translate(-89 -233.365)">
    <g id="Grupo_109" data-name="Grupo 109" transform="translate(88.648 233.365)">
      <g id="Rectángulo_4" data-name="Rectángulo 4" transform="translate(0.352)" fill="#fff" stroke="#e77ca4" stroke-width="1">
        <rect width="175" height="175" rx="19" stroke="none"/>
        <rect x="0.5" y="0.5" width="174" height="174" rx="18.5" fill="none"/>
      </g>
      <g id="Grupo_594" data-name="Grupo 594" transform="translate(-92.14 -232.731)">
        <g id="Grupo_537" data-name="Grupo 537">
          <path id="iconfinder_octagon_3325011" d="M20.341,2H46.255L64.6,20.341V46.255L46.255,64.6H20.341L2,46.255V20.341Z" transform="translate(110.492 374.581)" fill="#fff" stroke="#f0f0f0" stroke-linecap="round" stroke-linejoin="round" stroke-width="2"/>
          <path id="Trazado_656" data-name="Trazado 656" d="M-11.7,0a2.783,2.783,0,0,1-2.024-.77,2.561,2.561,0,0,1-.792-1.914V-24.86l.616.968-3.344,2.024a2.691,2.691,0,0,1-1.408.4,2.4,2.4,0,0,1-1.892-.858,2.739,2.739,0,0,1-.748-1.826,2.506,2.506,0,0,1,1.364-2.288l6.644-3.96a4.02,4.02,0,0,1,1.892-.4,2.455,2.455,0,0,1,1.87.77A2.682,2.682,0,0,1-8.8-28.116V-2.684A2.527,2.527,0,0,1-9.614-.77,2.918,2.918,0,0,1-11.7,0ZM8.008.44a10.228,10.228,0,0,1-6.4-2A12.355,12.355,0,0,1-2.376-7.15,23.11,23.11,0,0,1-3.74-15.4a23.066,23.066,0,0,1,1.364-8.272,12.365,12.365,0,0,1,3.982-5.566,10.228,10.228,0,0,1,6.4-2,10.228,10.228,0,0,1,6.4,2,12.365,12.365,0,0,1,3.982,5.566A23.066,23.066,0,0,1,19.756-15.4a23.11,23.11,0,0,1-1.364,8.25A12.355,12.355,0,0,1,14.41-1.562,10.228,10.228,0,0,1,8.008.44Zm0-5.28A4.7,4.7,0,0,0,11.2-6.006a7.584,7.584,0,0,0,2.09-3.52,19.668,19.668,0,0,0,.748-5.874,19.624,19.624,0,0,0-.748-5.9,7.579,7.579,0,0,0-2.09-3.5,4.7,4.7,0,0,0-3.19-1.166A4.728,4.728,0,0,0,4.84-24.794a7.48,7.48,0,0,0-2.112,3.5,19.624,19.624,0,0,0-.748,5.9,19.668,19.668,0,0,0,.748,5.874A7.485,7.485,0,0,0,4.84-6.006,4.728,4.728,0,0,0,8.008-4.84Z" transform="translate(144.788 422.821)" fill="#f0f0f0"/>
        </g>
        <g id="Grupo_538" data-name="Grupo 538">
          <path id="iconfinder_octagon_3325011-2" data-name="iconfinder_octagon_3325011" d="M20.341,2H46.255L64.6,20.341V46.255L46.255,64.6H20.341L2,46.255V20.341Z" transform="translate(182.492 374.581)" fill="#f3bed5"/>
          <path id="Trazado_657" data-name="Trazado 657" d="M.044.44a9.2,9.2,0,0,1-4.29-.99A9.815,9.815,0,0,1-7.5-3.256,12.927,12.927,0,0,1-9.57-7.128a13.833,13.833,0,0,1-.726-4.444,23.928,23.928,0,0,1,.33-3.608A24.362,24.362,0,0,1-8.8-19.624a20.141,20.141,0,0,1,2.332-4.532,17.017,17.017,0,0,1,3.806-3.96A16.456,16.456,0,0,1,2.992-30.8,4.172,4.172,0,0,1,4-30.932,3.283,3.283,0,0,1,5.83-30.4a2.132,2.132,0,0,1,.814,1.936,2.486,2.486,0,0,1-.638,1.694A3.5,3.5,0,0,1,4.312-25.74a13.448,13.448,0,0,0-2.97,1.3,13.764,13.764,0,0,0-2.728,2.09,13.026,13.026,0,0,0-2.156,2.794,11.707,11.707,0,0,0-1.3,3.366l-1.188-.044A18.4,18.4,0,0,1-4.51-17.842a8.785,8.785,0,0,1,2.2-1.5,6.859,6.859,0,0,1,3.058-.638,7.985,7.985,0,0,1,3.41.792,10.816,10.816,0,0,1,3.08,2.178A10.775,10.775,0,0,1,9.46-13.75,9.646,9.646,0,0,1,10.3-9.768,9.888,9.888,0,0,1,8.91-4.62a10.378,10.378,0,0,1-3.7,3.7A9.976,9.976,0,0,1,.044.44Zm0-4.84a4.661,4.661,0,0,0,2.53-.7A5.049,5.049,0,0,0,4.356-7.04a5.684,5.684,0,0,0,.66-2.728,5.649,5.649,0,0,0-.66-2.75,5.092,5.092,0,0,0-1.782-1.914,4.661,4.661,0,0,0-2.53-.7,4.661,4.661,0,0,0-2.53.7,5.092,5.092,0,0,0-1.782,1.914,5.649,5.649,0,0,0-.66,2.75,5.684,5.684,0,0,0,.66,2.728A5.049,5.049,0,0,0-2.486-5.1,4.661,4.661,0,0,0,.044-4.4Z" transform="translate(215.788 422.512)" fill="#c73d61"/>
        </g>
      </g>
    </g>
    <g id="Grupo_549" data-name="Grupo 549" transform="translate(822.128 -7667.108)">
      <g id="Grupo_550" data-name="Grupo 550" transform="translate(14)">
        <g id="Grupo_531" data-name="Grupo 531" transform="translate(-645.025 7955.928)">
          <rect id="Rectángulo_125" data-name="Rectángulo 125" width="27.422" height="6.557" rx="1" transform="translate(2.981 23.607)" fill="#ffc4dd"/>
          <path id="iconfinder_Untitled-1-18_2419684" d="M51.1,47.021V12.8l-1.918-1.918V6.3H23.535v4.587L21.618,12.8V47.021H19.7v1.918H53.014V47.021ZM43.99,7.541a1.354,1.354,0,1,1-1.354,1.354A1.372,1.372,0,0,1,43.99,7.541Zm-3.8,0a1.354,1.354,0,1,1-1.354,1.354A1.348,1.348,0,0,1,40.192,7.541Zm-3.835,0A1.348,1.348,0,0,1,37.71,8.894a1.317,1.317,0,0,1-1.354,1.316,1.335,1.335,0,1,1,0-2.67Zm-3.835,0a1.354,1.354,0,1,1-1.354,1.354A1.372,1.372,0,0,1,32.522,7.541Zm-3.8,0A1.354,1.354,0,1,1,27.37,8.894,1.348,1.348,0,0,1,28.724,7.541ZM42.11,23.9v3.835H38.274V23.9Zm-3.835-3.008V17.054H42.11v3.835ZM38.35,30.7h3.835v3.835H38.35ZM49.178,20.588v3.835h-3.8V20.588Zm-3.8-2.068v-3.8h3.835v3.835H45.381Zm3.8,7.783v3.835h-3.8V26.3Zm0,5.565V35.7h-3.8V31.868Zm0,5.753v3.835h-3.8V37.621ZM30.642,27.694V23.9h3.835v3.835l-3.835-.038ZM34.289,30.7v3.835h-3.8V30.7Zm-3.647-9.814V17.054h3.835v3.835Zm-7.106-6.166h3.8v3.835h-3.8Zm0,5.866h3.8v3.835h-3.8Zm0,5.715h3.8v3.835h-3.8Zm0,5.452h3.8V35.59h-3.8Zm0,5.753h3.8v3.835h-3.8Zm9.024,1.617h7.633v7.9H32.559Z" transform="translate(-19.7 23.84)" fill="#356dd0"/>
          <path id="Trazado_580" data-name="Trazado 580" d="M-69.554-27.155a.309.309,0,0,0,.313-.318V-28.6h1.671v1.123a.337.337,0,0,0,.349.318.313.313,0,0,0,.318-.318v-2.912a.31.31,0,0,0-.318-.318.333.333,0,0,0-.349.318v1.118h-1.671v-1.118a.306.306,0,0,0-.313-.318.321.321,0,0,0-.364.318v2.912A.324.324,0,0,0-69.554-27.155Zm7-1.794a1.848,1.848,0,0,0-1.835-1.882,1.84,1.84,0,0,0-1.933,1.882A1.79,1.79,0,0,0-64.386-27.1,1.788,1.788,0,0,0-62.551-28.949Zm-.672,0a1.184,1.184,0,0,1-1.22,1.215,1.177,1.177,0,0,1-1.2-1.215,1.173,1.173,0,0,1,1.2-1.215A1.181,1.181,0,0,1-63.222-28.949Zm2.261,1.476a.338.338,0,0,0,.677,0v-2.589h.851a.328.328,0,1,0,0-.656h-2.425a.328.328,0,1,0,0,.656h.9Zm4.6.318a.337.337,0,1,0,0-.672h-1.564V-28.6h1.292a.336.336,0,1,0,0-.672h-1.292v-.769h1.476a.334.334,0,1,0,0-.666h-1.84a.31.31,0,0,0-.318.318v2.912a.313.313,0,0,0,.318.318Zm.913-.313a.31.31,0,0,0,.323.313h1.7a.338.338,0,1,0,0-.672h-1.394V-30.4a.312.312,0,0,0-.3-.313.32.32,0,0,0-.323.313Z" transform="translate(78.274 56.008)"/>
          <path id="Sustracción_3" data-name="Sustracción 3" d="M25.634,20.388H0V0H25.634V20.388Zm-5.961-5.723v4.173h4.173V14.665Zm-5.961,0v4.173h4.173V14.665Zm-5.961,0v4.173h4.173V14.665Zm-5.961,0v4.173H5.961V14.665Zm17.884-6.2v4.173h4.173V8.465Zm-5.961,0v4.173h4.173V8.465Zm-5.961,0v4.173h4.173V8.465Zm-5.961,0v4.173H5.961V8.465Zm17.884-6.2V6.438h4.173V2.265Zm-5.961,0V6.438h4.173V2.265Zm-5.961,0V6.438h4.173V2.265Zm-5.961,0V6.438H5.961V2.265Z" transform="translate(3.815 3.219)" fill="#356dd0" opacity="0.266"/>
          <rect id="Rectángulo_126" data-name="Rectángulo 126" width="27.422" height="3.458" rx="1" transform="translate(2.981 0)" fill="#ffc4dd" opacity="0.266"/>
        </g>
        <path id="Trazado_578" data-name="Trazado 578" d="M-644.48,7918.61l6.736-6.325-6.736,10.839,10.987-10.839-10.987,15.373,15.29-15.373-15.29,17.987,18.433-17.987-17.295,20.562,19.68-20.562-17.666,21.985,20.2-21.985-15.335,21.985,17.124-21.166-14.152,21.166,15.929-21.166-13.637,21.166,14.781-19.363-11.81,19.363,11.81-15.66-10.071,15.66,10.071-13.571-8.154,13.571,7.7-10.718-5.945,10.718,6.395-8.513-4.71,8.513,4.71-6-3.312,6,3.312-4-1.542,4,1.542-1.424" transform="translate(1.55 45.348)" fill="none" stroke="#000" stroke-width="1"/>
      </g>
      <text id="_7" data-name="7" transform="translate(-645.025 7944.928)" fill="#e77ca4" font-size="44" font-family="Quicksand" font-weight="700"><tspan x="-12.518" y="0">7</tspan></text>
      <g id="Grupo_551" data-name="Grupo 551" transform="translate(-51)">
        <g id="Grupo_531-2" data-name="Grupo 531" transform="translate(-645.025 7955.928)">
          <rect id="Rectángulo_125-2" data-name="Rectángulo 125" width="27.422" height="6.557" rx="1" transform="translate(2.981 23.607)" fill="#ffc4dd"/>
          <path id="iconfinder_Untitled-1-18_2419684-2" data-name="iconfinder_Untitled-1-18_2419684" d="M51.1,47.021V12.8l-1.918-1.918V6.3H23.535v4.587L21.618,12.8V47.021H19.7v1.918H53.014V47.021ZM43.99,7.541a1.354,1.354,0,1,1-1.354,1.354A1.372,1.372,0,0,1,43.99,7.541Zm-3.8,0a1.354,1.354,0,1,1-1.354,1.354A1.348,1.348,0,0,1,40.192,7.541Zm-3.835,0A1.348,1.348,0,0,1,37.71,8.894a1.317,1.317,0,0,1-1.354,1.316,1.335,1.335,0,1,1,0-2.67Zm-3.835,0a1.354,1.354,0,1,1-1.354,1.354A1.372,1.372,0,0,1,32.522,7.541Zm-3.8,0A1.354,1.354,0,1,1,27.37,8.894,1.348,1.348,0,0,1,28.724,7.541ZM42.11,23.9v3.835H38.274V23.9Zm-3.835-3.008V17.054H42.11v3.835ZM38.35,30.7h3.835v3.835H38.35ZM49.178,20.588v3.835h-3.8V20.588Zm-3.8-2.068v-3.8h3.835v3.835H45.381Zm3.8,7.783v3.835h-3.8V26.3Zm0,5.565V35.7h-3.8V31.868Zm0,5.753v3.835h-3.8V37.621ZM30.642,27.694V23.9h3.835v3.835l-3.835-.038ZM34.289,30.7v3.835h-3.8V30.7Zm-3.647-9.814V17.054h3.835v3.835Zm-7.106-6.166h3.8v3.835h-3.8Zm0,5.866h3.8v3.835h-3.8Zm0,5.715h3.8v3.835h-3.8Zm0,5.452h3.8V35.59h-3.8Zm0,5.753h3.8v3.835h-3.8Zm9.024,1.617h7.633v7.9H32.559Z" transform="translate(-19.7 23.84)" fill="#356dd0"/>
          <path id="Trazado_580-2" data-name="Trazado 580" d="M-69.554-27.155a.309.309,0,0,0,.313-.318V-28.6h1.671v1.123a.337.337,0,0,0,.349.318.313.313,0,0,0,.318-.318v-2.912a.31.31,0,0,0-.318-.318.333.333,0,0,0-.349.318v1.118h-1.671v-1.118a.306.306,0,0,0-.313-.318.321.321,0,0,0-.364.318v2.912A.324.324,0,0,0-69.554-27.155Zm7-1.794a1.848,1.848,0,0,0-1.835-1.882,1.84,1.84,0,0,0-1.933,1.882A1.79,1.79,0,0,0-64.386-27.1,1.788,1.788,0,0,0-62.551-28.949Zm-.672,0a1.184,1.184,0,0,1-1.22,1.215,1.177,1.177,0,0,1-1.2-1.215,1.173,1.173,0,0,1,1.2-1.215A1.181,1.181,0,0,1-63.222-28.949Zm2.261,1.476a.338.338,0,0,0,.677,0v-2.589h.851a.328.328,0,1,0,0-.656h-2.425a.328.328,0,1,0,0,.656h.9Zm4.6.318a.337.337,0,1,0,0-.672h-1.564V-28.6h1.292a.336.336,0,1,0,0-.672h-1.292v-.769h1.476a.334.334,0,1,0,0-.666h-1.84a.31.31,0,0,0-.318.318v2.912a.313.313,0,0,0,.318.318Zm.913-.313a.31.31,0,0,0,.323.313h1.7a.338.338,0,1,0,0-.672h-1.394V-30.4a.312.312,0,0,0-.3-.313.32.32,0,0,0-.323.313Z" transform="translate(78.274 56.008)"/>
          <path id="Sustracción_3-2" data-name="Sustracción 3" d="M25.634,20.388H0V0H25.634V20.388Zm-5.961-5.723v4.173h4.173V14.665Zm-5.961,0v4.173h4.173V14.665Zm-5.961,0v4.173h4.173V14.665Zm-5.961,0v4.173H5.961V14.665Zm17.884-6.2v4.173h4.173V8.465Zm-5.961,0v4.173h4.173V8.465Zm-5.961,0v4.173h4.173V8.465Zm-5.961,0v4.173H5.961V8.465Zm17.884-6.2V6.438h4.173V2.265Zm-5.961,0V6.438h4.173V2.265Zm-5.961,0V6.438h4.173V2.265Zm-5.961,0V6.438H5.961V2.265Z" transform="translate(3.815 3.219)" fill="#356dd0"/>
          <rect id="Rectángulo_126-2" data-name="Rectángulo 126" width="27.422" height="3.458" rx="1" transform="translate(2.981 0)" fill="#ffc4dd"/>
        </g>
      </g>
    </g>
    <line id="Línea_23" data-name="Línea 23" y1="34" x2="13" transform="translate(170 306.715)" fill="none" stroke="#707070" stroke-width="1"/>
  </g>
</svg>
