<svg xmlns="http://www.w3.org/2000/svg" width="175" height="207.37" viewBox="0 0 175 207.37">
  <g id="M_3_3_F" transform="translate(-89 -233.365)">
    <g id="Grupo_109" data-name="Grupo 109" transform="translate(88.648 233.365)">
      <g id="Rectángulo_4" data-name="Rectángulo 4" transform="translate(0.352)" fill="#fff" stroke="#e77ca4" stroke-width="1">
        <rect width="175" height="175" rx="19" stroke="none"/>
        <rect x="0.5" y="0.5" width="174" height="174" rx="18.5" fill="none"/>
      </g>
    </g>
    <g id="Grupo_549" data-name="Grupo 549" transform="translate(822.128 -7667.108)">
      <text id="_2" data-name="2" transform="translate(-645.128 7934.248)" fill="#e77ca4" font-size="33" font-family="Quicksand" font-weight="700"><tspan x="-8.844" y="0">2</tspan></text>
      <g id="Grupo_551" data-name="Grupo 551" transform="translate(-51 -13)">
        <g id="Grupo_531" data-name="Grupo 531" transform="translate(-645.025 7955.928)">
          <rect id="Rectángulo_125" data-name="Rectángulo 125" width="27.422" height="6.557" rx="1" transform="translate(2.981 23.607)" fill="#ffc4dd"/>
          <path id="iconfinder_Untitled-1-18_2419684" d="M51.1,47.021V12.8l-1.918-1.918V6.3H23.535v4.587L21.618,12.8V47.021H19.7v1.918H53.014V47.021ZM43.99,7.541a1.354,1.354,0,1,1-1.354,1.354A1.372,1.372,0,0,1,43.99,7.541Zm-3.8,0a1.354,1.354,0,1,1-1.354,1.354A1.348,1.348,0,0,1,40.192,7.541Zm-3.835,0A1.348,1.348,0,0,1,37.71,8.894a1.317,1.317,0,0,1-1.354,1.316,1.335,1.335,0,1,1,0-2.67Zm-3.835,0a1.354,1.354,0,1,1-1.354,1.354A1.372,1.372,0,0,1,32.522,7.541Zm-3.8,0A1.354,1.354,0,1,1,27.37,8.894,1.348,1.348,0,0,1,28.724,7.541ZM42.11,23.9v3.835H38.274V23.9Zm-3.835-3.008V17.054H42.11v3.835ZM38.35,30.7h3.835v3.835H38.35ZM49.178,20.588v3.835h-3.8V20.588Zm-3.8-2.068v-3.8h3.835v3.835H45.381Zm3.8,7.783v3.835h-3.8V26.3Zm0,5.565V35.7h-3.8V31.868Zm0,5.753v3.835h-3.8V37.621ZM30.642,27.694V23.9h3.835v3.835l-3.835-.038ZM34.289,30.7v3.835h-3.8V30.7Zm-3.647-9.814V17.054h3.835v3.835Zm-7.106-6.166h3.8v3.835h-3.8Zm0,5.866h3.8v3.835h-3.8Zm0,5.715h3.8v3.835h-3.8Zm0,5.452h3.8V35.59h-3.8Zm0,5.753h3.8v3.835h-3.8Zm9.024,1.617h7.633v7.9H32.559Z" transform="translate(-19.7 23.84)" fill="#356dd0"/>
          <path id="Trazado_580" data-name="Trazado 580" d="M-69.554-27.155a.309.309,0,0,0,.313-.318V-28.6h1.671v1.123a.337.337,0,0,0,.349.318.313.313,0,0,0,.318-.318v-2.912a.31.31,0,0,0-.318-.318.333.333,0,0,0-.349.318v1.118h-1.671v-1.118a.306.306,0,0,0-.313-.318.321.321,0,0,0-.364.318v2.912A.324.324,0,0,0-69.554-27.155Zm7-1.794a1.848,1.848,0,0,0-1.835-1.882,1.84,1.84,0,0,0-1.933,1.882A1.79,1.79,0,0,0-64.386-27.1,1.788,1.788,0,0,0-62.551-28.949Zm-.672,0a1.184,1.184,0,0,1-1.22,1.215,1.177,1.177,0,0,1-1.2-1.215,1.173,1.173,0,0,1,1.2-1.215A1.181,1.181,0,0,1-63.222-28.949Zm2.261,1.476a.338.338,0,0,0,.677,0v-2.589h.851a.328.328,0,1,0,0-.656h-2.425a.328.328,0,1,0,0,.656h.9Zm4.6.318a.337.337,0,1,0,0-.672h-1.564V-28.6h1.292a.336.336,0,1,0,0-.672h-1.292v-.769h1.476a.334.334,0,1,0,0-.666h-1.84a.31.31,0,0,0-.318.318v2.912a.313.313,0,0,0,.318.318Zm.913-.313a.31.31,0,0,0,.323.313h1.7a.338.338,0,1,0,0-.672h-1.394V-30.4a.312.312,0,0,0-.3-.313.32.32,0,0,0-.323.313Z" transform="translate(78.274 56.008)"/>
          <path id="Sustracción_3" data-name="Sustracción 3" d="M25.634,20.388H0V0H25.634V20.388Zm-5.961-5.723v4.173h4.173V14.665Zm-5.961,0v4.173h4.173V14.665Zm-5.961,0v4.173h4.173V14.665Zm-5.961,0v4.173H5.961V14.665Zm17.884-6.2v4.173h4.173V8.465Zm-5.961,0v4.173h4.173V8.465Zm-5.961,0v4.173h4.173V8.465Zm-5.961,0v4.173H5.961V8.465Zm17.884-6.2V6.438h4.173V2.265Zm-5.961,0V6.438h4.173V2.265Zm-5.961,0V6.438h4.173V2.265Zm-5.961,0V6.438H5.961V2.265Z" transform="translate(3.815 3.219)" fill="#356dd0"/>
          <rect id="Rectángulo_126" data-name="Rectángulo 126" width="27.422" height="3.458" rx="1" transform="translate(2.981 0)" fill="#ffc4dd"/>
        </g>
      </g>
      <g id="Grupo_552" data-name="Grupo 552" transform="translate(17.686 -13)">
        <g id="Grupo_531-2" data-name="Grupo 531" transform="translate(-645.025 7955.928)">
          <rect id="Rectángulo_125-2" data-name="Rectángulo 125" width="27.422" height="6.557" rx="1" transform="translate(2.981 23.607)" fill="#ffc4dd"/>
          <path id="iconfinder_Untitled-1-18_2419684-2" data-name="iconfinder_Untitled-1-18_2419684" d="M51.1,47.021V12.8l-1.918-1.918V6.3H23.535v4.587L21.618,12.8V47.021H19.7v1.918H53.014V47.021ZM43.99,7.541a1.354,1.354,0,1,1-1.354,1.354A1.372,1.372,0,0,1,43.99,7.541Zm-3.8,0a1.354,1.354,0,1,1-1.354,1.354A1.348,1.348,0,0,1,40.192,7.541Zm-3.835,0A1.348,1.348,0,0,1,37.71,8.894a1.317,1.317,0,0,1-1.354,1.316,1.335,1.335,0,1,1,0-2.67Zm-3.835,0a1.354,1.354,0,1,1-1.354,1.354A1.372,1.372,0,0,1,32.522,7.541Zm-3.8,0A1.354,1.354,0,1,1,27.37,8.894,1.348,1.348,0,0,1,28.724,7.541ZM42.11,23.9v3.835H38.274V23.9Zm-3.835-3.008V17.054H42.11v3.835ZM38.35,30.7h3.835v3.835H38.35ZM49.178,20.588v3.835h-3.8V20.588Zm-3.8-2.068v-3.8h3.835v3.835H45.381Zm3.8,7.783v3.835h-3.8V26.3Zm0,5.565V35.7h-3.8V31.868Zm0,5.753v3.835h-3.8V37.621ZM30.642,27.694V23.9h3.835v3.835l-3.835-.038ZM34.289,30.7v3.835h-3.8V30.7Zm-3.647-9.814V17.054h3.835v3.835Zm-7.106-6.166h3.8v3.835h-3.8Zm0,5.866h3.8v3.835h-3.8Zm0,5.715h3.8v3.835h-3.8Zm0,5.452h3.8V35.59h-3.8Zm0,5.753h3.8v3.835h-3.8Zm9.024,1.617h7.633v7.9H32.559Z" transform="translate(-19.7 23.84)" fill="#356dd0"/>
          <path id="Trazado_580-2" data-name="Trazado 580" d="M-69.554-27.155a.309.309,0,0,0,.313-.318V-28.6h1.671v1.123a.337.337,0,0,0,.349.318.313.313,0,0,0,.318-.318v-2.912a.31.31,0,0,0-.318-.318.333.333,0,0,0-.349.318v1.118h-1.671v-1.118a.306.306,0,0,0-.313-.318.321.321,0,0,0-.364.318v2.912A.324.324,0,0,0-69.554-27.155Zm7-1.794a1.848,1.848,0,0,0-1.835-1.882,1.84,1.84,0,0,0-1.933,1.882A1.79,1.79,0,0,0-64.386-27.1,1.788,1.788,0,0,0-62.551-28.949Zm-.672,0a1.184,1.184,0,0,1-1.22,1.215,1.177,1.177,0,0,1-1.2-1.215,1.173,1.173,0,0,1,1.2-1.215A1.181,1.181,0,0,1-63.222-28.949Zm2.261,1.476a.338.338,0,0,0,.677,0v-2.589h.851a.328.328,0,1,0,0-.656h-2.425a.328.328,0,1,0,0,.656h.9Zm4.6.318a.337.337,0,1,0,0-.672h-1.564V-28.6h1.292a.336.336,0,1,0,0-.672h-1.292v-.769h1.476a.334.334,0,1,0,0-.666h-1.84a.31.31,0,0,0-.318.318v2.912a.313.313,0,0,0,.318.318Zm.913-.313a.31.31,0,0,0,.323.313h1.7a.338.338,0,1,0,0-.672h-1.394V-30.4a.312.312,0,0,0-.3-.313.32.32,0,0,0-.323.313Z" transform="translate(78.274 56.008)"/>
          <path id="Sustracción_3-2" data-name="Sustracción 3" d="M25.634,20.388H0V0H25.634V20.388Zm-5.961-5.723v4.173h4.173V14.665Zm-5.961,0v4.173h4.173V14.665Zm-5.961,0v4.173h4.173V14.665Zm-5.961,0v4.173H5.961V14.665Zm17.884-6.2v4.173h4.173V8.465Zm-5.961,0v4.173h4.173V8.465Zm-5.961,0v4.173h4.173V8.465Zm-5.961,0v4.173H5.961V8.465Zm17.884-6.2V6.438h4.173V2.265Zm-5.961,0V6.438h4.173V2.265Zm-5.961,0V6.438h4.173V2.265Zm-5.961,0V6.438H5.961V2.265Z" transform="translate(3.815 3.219)" fill="#356dd0"/>
          <rect id="Rectángulo_126-2" data-name="Rectángulo 126" width="27.422" height="3.458" rx="1" transform="translate(2.981 0)" fill="#ffc4dd"/>
        </g>
      </g>
    </g>
    <g id="Unión_24" data-name="Unión 24" transform="translate(97 310.14)" fill="#fff">
      <path d="M 159.5001983642578 60.50020217895508 L 0.4999991953372955 60.50020217895508 L 0.4999991953372955 46.49990081787109 L 8.000099182128906 46.49990081787109 L 8.500099182128906 46.49990081787109 L 8.500099182128906 45.99990081787109 L 8.500099182128906 0.500001072883606 L 22.50039863586426 0.500001072883606 L 22.50039863586426 45.99990081787109 L 22.50039863586426 46.49990081787109 L 23.00039863586426 46.49990081787109 L 72 46.49990081787109 L 72.5 46.49990081787109 L 72.5 45.99990081787109 L 72.5 0.500001072883606 L 86.50029754638672 0.500001072883606 L 86.50029754638672 45.99990081787109 L 86.50029754638672 46.49990081787109 L 87.00029754638672 46.49990081787109 L 135.9999237060547 46.49990081787109 L 136.4999237060547 46.49990081787109 L 136.4999237060547 45.99990081787109 L 136.4999237060547 0.500001072883606 L 150.5001983642578 0.500001072883606 L 150.5001983642578 45.99990081787109 L 150.5001983642578 46.49990081787109 L 151.0001983642578 46.49990081787109 L 159.5001983642578 46.49990081787109 L 159.5001983642578 60.50020217895508 Z" stroke="none"/>
      <path d="M 159.0001983642578 60.00020599365234 L 159.0001983642578 46.99989318847656 L 151.0001983642578 46.99989318847656 L 150.0001983642578 46.99989318847656 L 150.0001983642578 45.99989318847656 L 150.0001983642578 0.9999969005584717 L 136.9999084472656 0.9999969005584717 L 136.9999084472656 45.99989318847656 L 136.9999084472656 46.99989318847656 L 135.9999084472656 46.99989318847656 L 87.00030517578125 46.99989318847656 L 86.00030517578125 46.99989318847656 L 86.00030517578125 45.99989318847656 L 86.00030517578125 0.9999969005584717 L 72.99999237060547 0.9999969005584717 L 72.99999237060547 45.99989318847656 L 72.99999237060547 46.99989318847656 L 71.99999237060547 46.99989318847656 L 23.00041198730469 46.99989318847656 L 22.00041198730469 46.99989318847656 L 22.00041198730469 45.99989318847656 L 22.00041198730469 0.9999969005584717 L 9.000099182128906 0.9999969005584717 L 9.000099182128906 45.99989318847656 L 9.000099182128906 46.99989318847656 L 8.000099182128906 46.99989318847656 L 0.9999949932098389 46.99989318847656 L 0.9999949932098389 60.00020599365234 L 159.0001983642578 60.00020599365234 M 160.0001983642578 61.00020599365234 L -4.984537554264534e-06 61.00020599365234 L -4.984537554264534e-06 45.99989318847656 L 8.000099182128906 45.99989318847656 L 8.000099182128906 -3.07718914882571e-06 L 23.00041198730469 -3.07718914882571e-06 L 23.00041198730469 45.99989318847656 L 71.99999237060547 45.99989318847656 L 71.99999237060547 -3.07718914882571e-06 L 87.00030517578125 -3.07718914882571e-06 L 87.00030517578125 45.99989318847656 L 135.9999084472656 45.99989318847656 L 135.9999084472656 -3.07718914882571e-06 L 151.0001983642578 -3.07718914882571e-06 L 151.0001983642578 45.99989318847656 L 160.0001983642578 45.99989318847656 L 160.0001983642578 61.00020599365234 Z" stroke="none" fill="#000"/>
    </g>
    <path id="Trazado_599" data-name="Trazado 599" d="M-491.482,10726.5h153.013" transform="translate(592 -10362.86)" fill="none" stroke="#000" stroke-width="1" stroke-dasharray="3"/>
    <path id="Trazado_600" data-name="Trazado 600" d="M0,46.414V0" transform="translate(176.35 313.64)" fill="none" stroke="#000" stroke-width="1" stroke-dasharray="3"/>
    <path id="Trazado_601" data-name="Trazado 601" d="M0,46.414V0" transform="translate(112.35 313.64)" fill="none" stroke="#000" stroke-width="1" stroke-dasharray="3"/>
    <path id="Trazado_602" data-name="Trazado 602" d="M0,46.414V0" transform="translate(240.35 313.64)" fill="none" stroke="#000" stroke-width="1" stroke-dasharray="3"/>
    <g id="Grupo_593" data-name="Grupo 593" transform="translate(-3.492 0.634)">
      <g id="Grupo_537" data-name="Grupo 537">
        <path id="iconfinder_octagon_3325011" d="M20.341,2H46.255L64.6,20.341V46.255L46.255,64.6H20.341L2,46.255V20.341Z" transform="translate(110.492 374.506)" fill="#fff" stroke="#f0f0f0" stroke-linecap="round" stroke-linejoin="round" stroke-width="2"/>
        <path id="Trazado_658" data-name="Trazado 658" d="M4.928-15.62,4.84-16.632a10.055,10.055,0,0,1,2.9,1.936,8.786,8.786,0,0,1,1.892,2.6,6.77,6.77,0,0,1,.66,2.9A8.146,8.146,0,0,1,8.91-4.6,10.124,10.124,0,0,1,5.192-1.254,10.786,10.786,0,0,1,0,0,10.786,10.786,0,0,1-5.192-1.254,10.124,10.124,0,0,1-8.91-4.6,8.146,8.146,0,0,1-10.3-9.2a6.833,6.833,0,0,1,.858-3.5A8.6,8.6,0,0,1-7.282-15.18a16.649,16.649,0,0,1,2.574-1.672L-5.06-15.62a8.646,8.646,0,0,1-2.134-1.254,6.293,6.293,0,0,1-1.694-2.09,6.428,6.428,0,0,1-.66-2.992,8.136,8.136,0,0,1,1.276-4.466,9.285,9.285,0,0,1,3.454-3.19A9.9,9.9,0,0,1,0-30.8a9.735,9.735,0,0,1,4.818,1.188,9.381,9.381,0,0,1,3.41,3.19A8.136,8.136,0,0,1,9.5-21.956a6.176,6.176,0,0,1-.748,3.168,6.389,6.389,0,0,1-1.8,2.024A10.274,10.274,0,0,1,4.928-15.62Zm-9.2-6.248a4.049,4.049,0,0,0,.55,2.112A4.07,4.07,0,0,0-2.2-18.282a4.374,4.374,0,0,0,2.2.55,4.254,4.254,0,0,0,2.178-.55,4.119,4.119,0,0,0,1.5-1.474,4.049,4.049,0,0,0,.55-2.112,3.894,3.894,0,0,0-1.21-2.926A4.172,4.172,0,0,0,0-25.96a4.229,4.229,0,0,0-3.058,1.166A3.894,3.894,0,0,0-4.268-21.868ZM0-4.84a5.155,5.155,0,0,0,3.564-1.3A4.068,4.068,0,0,0,5.016-9.284a4.1,4.1,0,0,0-.66-2.288,4.678,4.678,0,0,0-1.8-1.606A5.454,5.454,0,0,0,0-13.772a5.454,5.454,0,0,0-2.552.594,4.678,4.678,0,0,0-1.8,1.606,4.1,4.1,0,0,0-.66,2.288A4.068,4.068,0,0,0-3.564-6.138,5.155,5.155,0,0,0,0-4.84Z" transform="translate(143.788 423.306)" fill="#f0f0f0"/>
      </g>
      <g id="Grupo_538" data-name="Grupo 538">
        <path id="iconfinder_octagon_3325011-2" data-name="iconfinder_octagon_3325011" d="M20.341,2H46.255L64.6,20.341V46.255L46.255,64.6H20.341L2,46.255V20.341Z" transform="translate(182.492 374.506)" fill="#f3bed5"/>
        <path id="Trazado_659" data-name="Trazado 659" d="M5.06,0A2.474,2.474,0,0,1,3.212-.77a2.639,2.639,0,0,1-.748-1.914v-20.68l.924.22L-5.1-12.628l-.22-.572H9.592a2.388,2.388,0,0,1,1.76.7,2.388,2.388,0,0,1,.7,1.76,2.263,2.263,0,0,1-.7,1.694,2.429,2.429,0,0,1-1.76.682H-8.976a2.692,2.692,0,0,1-1.782-.748,2.356,2.356,0,0,1-.858-1.848,2.683,2.683,0,0,1,.66-1.76l13.9-17.028a2.505,2.505,0,0,1,.924-.77A2.813,2.813,0,0,1,5.148-30.8a2.455,2.455,0,0,1,1.87.77,2.682,2.682,0,0,1,.726,1.914V-2.684A2.6,2.6,0,0,1,6.974-.77,2.6,2.6,0,0,1,5.06,0Z" transform="translate(215.108 423.306)" fill="#c73d61"/>
      </g>
    </g>
  </g>
</svg>
