<svg xmlns="http://www.w3.org/2000/svg" width="175" height="206.295" viewBox="0 0 175 206.295">
  <g id="M_3_5_F" transform="translate(-89 -233.365)">
    <g id="Grupo_109" data-name="Grupo 109" transform="translate(88.648 233.365)">
      <g id="Rectángulo_4" data-name="Rectángulo 4" transform="translate(0.352)" fill="#fff" stroke="#e77ca4" stroke-width="1">
        <rect width="175" height="175" rx="19" stroke="none"/>
        <rect x="0.5" y="0.5" width="174" height="174" rx="18.5" fill="none"/>
      </g>
    </g>
    <g id="Grupo_551" data-name="Grupo 551" transform="translate(132 248.555)">
      <g id="Grupo_531" data-name="Grupo 531">
        <rect id="Rectángulo_125" data-name="Rectángulo 125" width="15.465" height="3.698" rx="1" transform="translate(1.681 13.314)" fill="#ffc4dd"/>
        <path id="iconfinder_Untitled-1-18_2419684" d="M37.406,29.265V9.969L36.325,8.887V6.3H21.863V8.887L20.781,9.969v19.3H19.7v1.081H38.488V29.265ZM33.4,7a.763.763,0,1,1-.763.763A.774.774,0,0,1,33.4,7ZM31.257,7a.763.763,0,1,1-.763.763A.76.76,0,0,1,31.257,7ZM29.094,7a.76.76,0,0,1,.763.763.743.743,0,0,1-.763.742.753.753,0,1,1,0-1.506ZM26.931,7a.763.763,0,1,1-.763.763A.774.774,0,0,1,26.931,7ZM24.789,7a.763.763,0,1,1-.763.763A.76.76,0,0,1,24.789,7Zm7.549,9.224v2.163H30.175V16.224Zm-2.163-1.7V12.365h2.163v2.163Zm.042,5.535h2.163v2.163H30.218Zm6.107-5.7v2.163H34.183V14.358Zm-2.142-1.166V11.05h2.163v2.163H34.183Zm2.142,4.389v2.163H34.183V17.581Zm0,3.138v2.163H34.183V20.72Zm0,3.244v2.163H34.183V23.964Zm-10.454-5.6V16.224h2.163v2.163l-2.163-.021Zm2.057,1.7v2.163H25.786V20.062Zm-2.057-5.535V12.365h2.163v2.163ZM21.863,11.05H24v2.163H21.863Zm0,3.308H24v2.163H21.863Zm0,3.223H24v2.163H21.863Zm0,3.075H24v2.163H21.863Zm0,3.244H24v2.163H21.863Zm5.089.912h4.3v4.453h-4.3Z" transform="translate(-19.7 10.698)" fill="#356dd0"/>
        <path id="Trazado_580" data-name="Trazado 580" d="M-69.713-28.758a.174.174,0,0,0,.176-.179v-.633h.943v.633a.19.19,0,0,0,.2.179.177.177,0,0,0,.179-.179v-1.642a.175.175,0,0,0-.179-.179.188.188,0,0,0-.2.179v.63h-.943v-.63a.172.172,0,0,0-.176-.179.181.181,0,0,0-.205.179v1.642A.183.183,0,0,0-69.713-28.758Zm3.95-1.012A1.042,1.042,0,0,0-66.8-30.831a1.037,1.037,0,0,0-1.09,1.061,1.009,1.009,0,0,0,1.09,1.041A1.008,1.008,0,0,0-65.763-29.77Zm-.379,0a.668.668,0,0,1-.688.685.664.664,0,0,1-.677-.685.662.662,0,0,1,.677-.685A.666.666,0,0,1-66.142-29.77Zm1.275.833a.191.191,0,0,0,.382,0V-30.4h.48a.185.185,0,1,0,0-.37h-1.368a.185.185,0,1,0,0,.37h.506Zm2.594.179a.19.19,0,1,0,0-.379h-.882v-.434h.729a.189.189,0,1,0,0-.379h-.729v-.434h.833a.188.188,0,1,0,0-.376h-1.038a.175.175,0,0,0-.179.179v1.642a.177.177,0,0,0,.179.179Zm.515-.176a.175.175,0,0,0,.182.176h.957a.191.191,0,1,0,0-.379h-.786v-1.449a.176.176,0,0,0-.171-.176.18.18,0,0,0-.182.176Z" transform="translate(74.63 45.03)"/>
        <path id="Sustracción_3" data-name="Sustracción 3" d="M14.457,11.5H0V0H14.457V11.5ZM11.095,8.271v2.353h2.353V8.271Zm-3.362,0v2.353h2.353V8.271Zm-3.362,0v2.353H6.724V8.271Zm-3.362,0v2.353H3.362V8.271Zm10.086-3.5V7.127h2.353V4.774Zm-3.362,0V7.127h2.353V4.774Zm-3.362,0V7.127H6.724V4.774Zm-3.362,0V7.127H3.362V4.774Zm10.086-3.5V3.631h2.353V1.278Zm-3.362,0V3.631h2.353V1.278Zm-3.362,0V3.631H6.724V1.278Zm-3.362,0V3.631H3.362V1.278Z" transform="translate(2.152 1.815)" fill="#356dd0"/>
        <rect id="Rectángulo_126" data-name="Rectángulo 126" width="15.465" height="1.95" rx="0.975" transform="translate(1.681 0)" fill="#ffc4dd"/>
      </g>
    </g>
    <g id="Grupo_552" data-name="Grupo 552" transform="translate(213.606 248.555)">
      <g id="Grupo_531-2" data-name="Grupo 531" transform="translate(0)">
        <rect id="Rectángulo_125-2" data-name="Rectángulo 125" width="15.465" height="3.698" rx="1" transform="translate(1.681 13.314)" fill="#ffc4dd"/>
        <path id="iconfinder_Untitled-1-18_2419684-2" data-name="iconfinder_Untitled-1-18_2419684" d="M37.406,29.265V9.969L36.325,8.887V6.3H21.863V8.887L20.781,9.969v19.3H19.7v1.081H38.488V29.265ZM33.4,7a.763.763,0,1,1-.763.763A.774.774,0,0,1,33.4,7ZM31.257,7a.763.763,0,1,1-.763.763A.76.76,0,0,1,31.257,7ZM29.094,7a.76.76,0,0,1,.763.763.743.743,0,0,1-.763.742.753.753,0,1,1,0-1.506ZM26.931,7a.763.763,0,1,1-.763.763A.774.774,0,0,1,26.931,7ZM24.789,7a.763.763,0,1,1-.763.763A.76.76,0,0,1,24.789,7Zm7.549,9.224v2.163H30.175V16.224Zm-2.163-1.7V12.365h2.163v2.163Zm.042,5.535h2.163v2.163H30.218Zm6.107-5.7v2.163H34.183V14.358Zm-2.142-1.166V11.05h2.163v2.163H34.183Zm2.142,4.389v2.163H34.183V17.581Zm0,3.138v2.163H34.183V20.72Zm0,3.244v2.163H34.183V23.964Zm-10.454-5.6V16.224h2.163v2.163l-2.163-.021Zm2.057,1.7v2.163H25.786V20.062Zm-2.057-5.535V12.365h2.163v2.163ZM21.863,11.05H24v2.163H21.863Zm0,3.308H24v2.163H21.863Zm0,3.223H24v2.163H21.863Zm0,3.075H24v2.163H21.863Zm0,3.244H24v2.163H21.863Zm5.089.912h4.3v4.453h-4.3Z" transform="translate(-19.7 10.698)" fill="#356dd0"/>
        <path id="Trazado_580-2" data-name="Trazado 580" d="M-69.713-28.758a.174.174,0,0,0,.176-.179v-.633h.943v.633a.19.19,0,0,0,.2.179.177.177,0,0,0,.179-.179v-1.642a.175.175,0,0,0-.179-.179.188.188,0,0,0-.2.179v.63h-.943v-.63a.172.172,0,0,0-.176-.179.181.181,0,0,0-.205.179v1.642A.183.183,0,0,0-69.713-28.758Zm3.95-1.012A1.042,1.042,0,0,0-66.8-30.831a1.037,1.037,0,0,0-1.09,1.061,1.009,1.009,0,0,0,1.09,1.041A1.008,1.008,0,0,0-65.763-29.77Zm-.379,0a.668.668,0,0,1-.688.685.664.664,0,0,1-.677-.685.662.662,0,0,1,.677-.685A.666.666,0,0,1-66.142-29.77Zm1.275.833a.191.191,0,0,0,.382,0V-30.4h.48a.185.185,0,1,0,0-.37h-1.368a.185.185,0,1,0,0,.37h.506Zm2.594.179a.19.19,0,1,0,0-.379h-.882v-.434h.729a.189.189,0,1,0,0-.379h-.729v-.434h.833a.188.188,0,1,0,0-.376h-1.038a.175.175,0,0,0-.179.179v1.642a.177.177,0,0,0,.179.179Zm.515-.176a.175.175,0,0,0,.182.176h.957a.191.191,0,1,0,0-.379h-.786v-1.449a.176.176,0,0,0-.171-.176.18.18,0,0,0-.182.176Z" transform="translate(74.63 45.03)"/>
        <path id="Sustracción_3-2" data-name="Sustracción 3" d="M14.457,11.5H0V0H14.457V11.5ZM11.095,8.271v2.353h2.353V8.271Zm-3.362,0v2.353h2.353V8.271Zm-3.362,0v2.353H6.724V8.271Zm-3.362,0v2.353H3.362V8.271Zm10.086-3.5V7.127h2.353V4.774Zm-3.362,0V7.127h2.353V4.774Zm-3.362,0V7.127H6.724V4.774Zm-3.362,0V7.127H3.362V4.774Zm10.086-3.5V3.631h2.353V1.278Zm-3.362,0V3.631h2.353V1.278Zm-3.362,0V3.631H6.724V1.278Zm-3.362,0V3.631H3.362V1.278Z" transform="translate(2.152 1.815)" fill="#356dd0"/>
        <rect id="Rectángulo_126-2" data-name="Rectángulo 126" width="15.465" height="1.95" rx="0.975" transform="translate(1.681 0)" fill="#ffc4dd"/>
      </g>
    </g>
    <g id="Grupo_561" data-name="Grupo 561" transform="translate(100.606)">
      <g id="Grupo_557" data-name="Grupo 557" transform="translate(113 298.555)">
        <g id="Grupo_531-3" data-name="Grupo 531" transform="translate(0)">
          <rect id="Rectángulo_125-3" data-name="Rectángulo 125" width="15.465" height="3.698" rx="1" transform="translate(1.681 13.314)" fill="#ffc4dd"/>
          <path id="iconfinder_Untitled-1-18_2419684-3" data-name="iconfinder_Untitled-1-18_2419684" d="M37.406,29.265V9.969L36.325,8.887V6.3H21.863V8.887L20.781,9.969v19.3H19.7v1.081H38.488V29.265ZM33.4,7a.763.763,0,1,1-.763.763A.774.774,0,0,1,33.4,7ZM31.257,7a.763.763,0,1,1-.763.763A.76.76,0,0,1,31.257,7ZM29.094,7a.76.76,0,0,1,.763.763.743.743,0,0,1-.763.742.753.753,0,1,1,0-1.506ZM26.931,7a.763.763,0,1,1-.763.763A.774.774,0,0,1,26.931,7ZM24.789,7a.763.763,0,1,1-.763.763A.76.76,0,0,1,24.789,7Zm7.549,9.224v2.163H30.175V16.224Zm-2.163-1.7V12.365h2.163v2.163Zm.042,5.535h2.163v2.163H30.218Zm6.107-5.7v2.163H34.183V14.358Zm-2.142-1.166V11.05h2.163v2.163H34.183Zm2.142,4.389v2.163H34.183V17.581Zm0,3.138v2.163H34.183V20.72Zm0,3.244v2.163H34.183V23.964Zm-10.454-5.6V16.224h2.163v2.163l-2.163-.021Zm2.057,1.7v2.163H25.786V20.062Zm-2.057-5.535V12.365h2.163v2.163ZM21.863,11.05H24v2.163H21.863Zm0,3.308H24v2.163H21.863Zm0,3.223H24v2.163H21.863Zm0,3.075H24v2.163H21.863Zm0,3.244H24v2.163H21.863Zm5.089.912h4.3v4.453h-4.3Z" transform="translate(-19.7 10.698)" fill="#356dd0"/>
          <path id="Trazado_580-3" data-name="Trazado 580" d="M-69.713-28.758a.174.174,0,0,0,.176-.179v-.633h.943v.633a.19.19,0,0,0,.2.179.177.177,0,0,0,.179-.179v-1.642a.175.175,0,0,0-.179-.179.188.188,0,0,0-.2.179v.63h-.943v-.63a.172.172,0,0,0-.176-.179.181.181,0,0,0-.205.179v1.642A.183.183,0,0,0-69.713-28.758Zm3.95-1.012A1.042,1.042,0,0,0-66.8-30.831a1.037,1.037,0,0,0-1.09,1.061,1.009,1.009,0,0,0,1.09,1.041A1.008,1.008,0,0,0-65.763-29.77Zm-.379,0a.668.668,0,0,1-.688.685.664.664,0,0,1-.677-.685.662.662,0,0,1,.677-.685A.666.666,0,0,1-66.142-29.77Zm1.275.833a.191.191,0,0,0,.382,0V-30.4h.48a.185.185,0,1,0,0-.37h-1.368a.185.185,0,1,0,0,.37h.506Zm2.594.179a.19.19,0,1,0,0-.379h-.882v-.434h.729a.189.189,0,1,0,0-.379h-.729v-.434h.833a.188.188,0,1,0,0-.376h-1.038a.175.175,0,0,0-.179.179v1.642a.177.177,0,0,0,.179.179Zm.515-.176a.175.175,0,0,0,.182.176h.957a.191.191,0,1,0,0-.379h-.786v-1.449a.176.176,0,0,0-.171-.176.18.18,0,0,0-.182.176Z" transform="translate(74.63 45.03)"/>
          <path id="Sustracción_3-3" data-name="Sustracción 3" d="M14.457,11.5H0V0H14.457V11.5ZM11.095,8.271v2.353h2.353V8.271Zm-3.362,0v2.353h2.353V8.271Zm-3.362,0v2.353H6.724V8.271Zm-3.362,0v2.353H3.362V8.271Zm10.086-3.5V7.127h2.353V4.774Zm-3.362,0V7.127h2.353V4.774Zm-3.362,0V7.127H6.724V4.774Zm-3.362,0V7.127H3.362V4.774Zm10.086-3.5V3.631h2.353V1.278Zm-3.362,0V3.631h2.353V1.278Zm-3.362,0V3.631H6.724V1.278Zm-3.362,0V3.631H3.362V1.278Z" transform="translate(2.152 1.815)" fill="#356dd0" opacity="0.3"/>
          <rect id="Rectángulo_126-3" data-name="Rectángulo 126" width="15.465" height="1.95" rx="0.975" transform="translate(1.681 0)" fill="#ffc4dd" opacity="0.3"/>
        </g>
      </g>
      <path id="Trazado_603" data-name="Trazado 603" d="M-644.48,7915.72l3.658-3.435-3.658,5.885,5.966-5.885-5.966,8.348,8.3-8.348-8.3,9.768,10.009-9.768-9.391,11.164,10.686-11.164-9.592,11.938,10.967-11.937-8.327,11.938,9.3-11.493-7.684,11.493,8.649-11.493-7.4,11.493,8.026-10.514-6.413,10.514,6.413-8.5-5.468,8.5,5.468-7.369-4.427,7.369,4.184-5.819-3.228,5.819,3.472-4.622-2.557,4.622,2.557-3.258-1.8,3.258,1.8-2.17-.837,2.17.837-.773" transform="translate(759.287 -7613.001)" fill="none" stroke="#000" stroke-width="0.5"/>
    </g>
    <g id="Grupo_562" data-name="Grupo 562" transform="translate(19)">
      <g id="Grupo_557-2" data-name="Grupo 557" transform="translate(113 298.555)">
        <g id="Grupo_531-4" data-name="Grupo 531" transform="translate(0)">
          <rect id="Rectángulo_125-4" data-name="Rectángulo 125" width="15.465" height="3.698" rx="1" transform="translate(1.681 13.314)" fill="#ffc4dd"/>
          <path id="iconfinder_Untitled-1-18_2419684-4" data-name="iconfinder_Untitled-1-18_2419684" d="M37.406,29.265V9.969L36.325,8.887V6.3H21.863V8.887L20.781,9.969v19.3H19.7v1.081H38.488V29.265ZM33.4,7a.763.763,0,1,1-.763.763A.774.774,0,0,1,33.4,7ZM31.257,7a.763.763,0,1,1-.763.763A.76.76,0,0,1,31.257,7ZM29.094,7a.76.76,0,0,1,.763.763.743.743,0,0,1-.763.742.753.753,0,1,1,0-1.506ZM26.931,7a.763.763,0,1,1-.763.763A.774.774,0,0,1,26.931,7ZM24.789,7a.763.763,0,1,1-.763.763A.76.76,0,0,1,24.789,7Zm7.549,9.224v2.163H30.175V16.224Zm-2.163-1.7V12.365h2.163v2.163Zm.042,5.535h2.163v2.163H30.218Zm6.107-5.7v2.163H34.183V14.358Zm-2.142-1.166V11.05h2.163v2.163H34.183Zm2.142,4.389v2.163H34.183V17.581Zm0,3.138v2.163H34.183V20.72Zm0,3.244v2.163H34.183V23.964Zm-10.454-5.6V16.224h2.163v2.163l-2.163-.021Zm2.057,1.7v2.163H25.786V20.062Zm-2.057-5.535V12.365h2.163v2.163ZM21.863,11.05H24v2.163H21.863Zm0,3.308H24v2.163H21.863Zm0,3.223H24v2.163H21.863Zm0,3.075H24v2.163H21.863Zm0,3.244H24v2.163H21.863Zm5.089.912h4.3v4.453h-4.3Z" transform="translate(-19.7 10.698)" fill="#356dd0"/>
          <path id="Trazado_580-4" data-name="Trazado 580" d="M-69.713-28.758a.174.174,0,0,0,.176-.179v-.633h.943v.633a.19.19,0,0,0,.2.179.177.177,0,0,0,.179-.179v-1.642a.175.175,0,0,0-.179-.179.188.188,0,0,0-.2.179v.63h-.943v-.63a.172.172,0,0,0-.176-.179.181.181,0,0,0-.205.179v1.642A.183.183,0,0,0-69.713-28.758Zm3.95-1.012A1.042,1.042,0,0,0-66.8-30.831a1.037,1.037,0,0,0-1.09,1.061,1.009,1.009,0,0,0,1.09,1.041A1.008,1.008,0,0,0-65.763-29.77Zm-.379,0a.668.668,0,0,1-.688.685.664.664,0,0,1-.677-.685.662.662,0,0,1,.677-.685A.666.666,0,0,1-66.142-29.77Zm1.275.833a.191.191,0,0,0,.382,0V-30.4h.48a.185.185,0,1,0,0-.37h-1.368a.185.185,0,1,0,0,.37h.506Zm2.594.179a.19.19,0,1,0,0-.379h-.882v-.434h.729a.189.189,0,1,0,0-.379h-.729v-.434h.833a.188.188,0,1,0,0-.376h-1.038a.175.175,0,0,0-.179.179v1.642a.177.177,0,0,0,.179.179Zm.515-.176a.175.175,0,0,0,.182.176h.957a.191.191,0,1,0,0-.379h-.786v-1.449a.176.176,0,0,0-.171-.176.18.18,0,0,0-.182.176Z" transform="translate(74.63 45.03)"/>
          <path id="Sustracción_3-4" data-name="Sustracción 3" d="M14.457,11.5H0V0H14.457V11.5ZM11.095,8.271v2.353h2.353V8.271Zm-3.362,0v2.353h2.353V8.271Zm-3.362,0v2.353H6.724V8.271Zm-3.362,0v2.353H3.362V8.271Zm10.086-3.5V7.127h2.353V4.774Zm-3.362,0V7.127h2.353V4.774Zm-3.362,0V7.127H6.724V4.774Zm-3.362,0V7.127H3.362V4.774Zm10.086-3.5V3.631h2.353V1.278Zm-3.362,0V3.631h2.353V1.278Zm-3.362,0V3.631H6.724V1.278Zm-3.362,0V3.631H3.362V1.278Z" transform="translate(2.152 1.815)" fill="#356dd0" opacity="0.3"/>
          <rect id="Rectángulo_126-4" data-name="Rectángulo 126" width="15.465" height="1.95" rx="0.975" transform="translate(1.681 0)" fill="#ffc4dd" opacity="0.3"/>
        </g>
      </g>
      <path id="Trazado_603-2" data-name="Trazado 603" d="M-644.48,7915.72l3.658-3.435-3.658,5.885,5.966-5.885-5.966,8.348,8.3-8.348-8.3,9.768,10.009-9.768-9.391,11.164,10.686-11.164-9.592,11.938,10.967-11.937-8.327,11.938,9.3-11.493-7.684,11.493,8.649-11.493-7.4,11.493,8.026-10.514-6.413,10.514,6.413-8.5-5.468,8.5,5.468-7.369-4.427,7.369,4.184-5.819-3.228,5.819,3.472-4.622-2.557,4.622,2.557-3.258-1.8,3.258,1.8-2.17-.837,2.17.837-.773" transform="translate(759.287 -7613.001)" fill="none" stroke="#000" stroke-width="0.5"/>
    </g>
    <line id="Línea_32" data-name="Línea 32" y1="4" x2="17" transform="translate(133.5 292.564)" fill="none" stroke="#707070" stroke-width="1"/>
    <line id="Línea_33" data-name="Línea 33" y1="4" x2="17" transform="translate(214.5 292.564)" fill="none" stroke="#707070" stroke-width="1"/>
    <g id="Rectángulo_162" data-name="Rectángulo 162" transform="translate(109 290.064)" fill="#fff" stroke="#000" stroke-width="1">
      <rect width="12" height="73" stroke="none"/>
      <rect x="0.5" y="0.5" width="11" height="72" fill="none"/>
    </g>
    <path id="Trazado_604" data-name="Trazado 604" d="M0,67.465V0" transform="translate(115.5 292.1)" fill="none" stroke="#000" stroke-width="1" stroke-dasharray="3"/>
    <g id="Rectángulo_163" data-name="Rectángulo 163" transform="translate(162 290.064)" fill="#fff" stroke="#000" stroke-width="1">
      <rect width="12" height="73" stroke="none"/>
      <rect x="0.5" y="0.5" width="11" height="72" fill="none"/>
    </g>
    <line id="Línea_34" data-name="Línea 34" y1="67.465" transform="translate(168.5 292.1)" fill="none" stroke="#000" stroke-width="1" stroke-dasharray="3"/>
    <path id="Trazado_607" data-name="Trazado 607" d="M-12.382,0a.949.949,0,0,1-.69-.262.873.873,0,0,1-.27-.653v-7.56l.21.33-1.14.69a.918.918,0,0,1-.48.135.819.819,0,0,1-.645-.292.934.934,0,0,1-.255-.623.854.854,0,0,1,.465-.78l2.265-1.35a1.37,1.37,0,0,1,.645-.135.837.837,0,0,1,.638.262.914.914,0,0,1,.247.653v8.67a.862.862,0,0,1-.278.653A1,1,0,0,1-12.382,0ZM3.112-8.145-.128-.525A.923.923,0,0,1-.45-.082.789.789,0,0,1-.923.075a.752.752,0,0,1-.6-.225.818.818,0,0,1-.2-.555A.992.992,0,0,1-1.673-.99L2.062-9.96a.978.978,0,0,1,.368-.465.786.786,0,0,1,.532-.135.879.879,0,0,1,.5.157A.889.889,0,0,1,3.8-9.96l3.69,8.79a1.009,1.009,0,0,1,.075.36.831.831,0,0,1-.262.645.838.838,0,0,1-.578.24A.787.787,0,0,1,6.24-.09,1.072,1.072,0,0,1,5.9-.54L2.677-8.055ZM.337-2.355,1.162-4.08h4.05L5.5-2.355Zm8.3-5.67a1.01,1.01,0,0,1,.525.143.873.873,0,0,1,.36.428l2.2,5.04-.33.15,2.25-5.175a.788.788,0,0,1,.8-.57.822.822,0,0,1,.608.232.784.784,0,0,1,.233.577.756.756,0,0,1-.038.225,2.353,2.353,0,0,1-.083.225l-2.8,6.18a.857.857,0,0,1-.765.57.818.818,0,0,1-.547-.105.941.941,0,0,1-.4-.465L7.852-6.75q-.03-.075-.067-.2a.961.961,0,0,1-.038-.285.792.792,0,0,1,.24-.532A.831.831,0,0,1,8.632-8.025Z" transform="translate(142 362.064)"/>
    <g id="Rectángulo_164" data-name="Rectángulo 164" transform="translate(190 290.064)" fill="#fff" stroke="#000" stroke-width="1">
      <rect width="12" height="73" stroke="none"/>
      <rect x="0.5" y="0.5" width="11" height="72" fill="none"/>
    </g>
    <path id="Trazado_605" data-name="Trazado 605" d="M0,67.465V0" transform="translate(196.5 292.1)" fill="none" stroke="#000" stroke-width="1" stroke-dasharray="3"/>
    <g id="Rectángulo_165" data-name="Rectángulo 165" transform="translate(243 290.064)" fill="#fff" stroke="#000" stroke-width="1">
      <rect width="12" height="73" stroke="none"/>
      <rect x="0.5" y="0.5" width="11" height="72" fill="none"/>
    </g>
    <line id="Línea_35" data-name="Línea 35" y1="67.465" transform="translate(249.5 292.1)" fill="none" stroke="#000" stroke-width="1" stroke-dasharray="3"/>
    <path id="Trazado_608" data-name="Trazado 608" d="M-15.113,0a.949.949,0,0,1-.69-.262.873.873,0,0,1-.27-.653v-7.56l.21.33-1.14.69a.918.918,0,0,1-.48.135.819.819,0,0,1-.645-.292.934.934,0,0,1-.255-.623.854.854,0,0,1,.465-.78l2.265-1.35a1.37,1.37,0,0,1,.645-.135.837.837,0,0,1,.637.262.914.914,0,0,1,.248.653v8.67a.862.862,0,0,1-.278.653A1,1,0,0,1-15.113,0Zm5.46,0a.949.949,0,0,1-.69-.262.873.873,0,0,1-.27-.653v-7.56l.21.33-1.14.69a.918.918,0,0,1-.48.135.819.819,0,0,1-.645-.292.934.934,0,0,1-.255-.623.854.854,0,0,1,.465-.78l2.265-1.35a1.37,1.37,0,0,1,.645-.135.837.837,0,0,1,.638.262.914.914,0,0,1,.247.653v8.67a.862.862,0,0,1-.278.653A1,1,0,0,1-9.653,0ZM5.842-8.145,2.6-.525a.923.923,0,0,1-.322.442.789.789,0,0,1-.473.157.752.752,0,0,1-.6-.225.818.818,0,0,1-.2-.555A.992.992,0,0,1,1.057-.99L4.792-9.96a.978.978,0,0,1,.368-.465.786.786,0,0,1,.532-.135.879.879,0,0,1,.5.157.889.889,0,0,1,.338.443l3.69,8.79a1.009,1.009,0,0,1,.075.36.831.831,0,0,1-.262.645.838.838,0,0,1-.578.24A.787.787,0,0,1,8.97-.09a1.072,1.072,0,0,1-.337-.45L5.407-8.055ZM3.067-2.355,3.892-4.08h4.05l.285,1.725Zm8.3-5.67a1.01,1.01,0,0,1,.525.143.873.873,0,0,1,.36.428l2.2,5.04-.33.15,2.25-5.175a.788.788,0,0,1,.795-.57.822.822,0,0,1,.608.232.784.784,0,0,1,.233.577.756.756,0,0,1-.037.225,2.353,2.353,0,0,1-.083.225L15.083-.57a.857.857,0,0,1-.765.57.818.818,0,0,1-.547-.105.941.941,0,0,1-.4-.465l-2.79-6.18q-.03-.075-.068-.2a.961.961,0,0,1-.038-.285.792.792,0,0,1,.24-.532A.831.831,0,0,1,11.363-8.025Z" transform="translate(223 362.064)"/>
    <path id="Trazado_606" data-name="Trazado 606" d="M-3.7-.747a.5.5,0,0,1-.081-.324.434.434,0,0,1,.234-.342.488.488,0,0,1,.306-.076.511.511,0,0,1,.315.167,2.123,2.123,0,0,0,.549.4,1.6,1.6,0,0,0,.72.144,2.406,2.406,0,0,0,.3-.04A.57.57,0,0,0-1.08-.959.451.451,0,0,0-.959-1.3a.4.4,0,0,0-.135-.315,1.137,1.137,0,0,0-.355-.2Q-1.67-1.9-1.94-1.971t-.572-.18a2.386,2.386,0,0,1-.535-.257,1.233,1.233,0,0,1-.4-.419A1.283,1.283,0,0,1-3.6-3.483a1.186,1.186,0,0,1,.252-.765,1.646,1.646,0,0,1,.653-.486,2.121,2.121,0,0,1,.841-.171,2.717,2.717,0,0,1,.585.068,2.289,2.289,0,0,1,.585.216,1.446,1.446,0,0,1,.468.391.639.639,0,0,1,.117.324.386.386,0,0,1-.171.342A.434.434,0,0,1-.58-3.47a.476.476,0,0,1-.3-.121,1.063,1.063,0,0,0-.409-.315,1.407,1.407,0,0,0-.589-.117,1.5,1.5,0,0,0-.293.031.578.578,0,0,0-.274.135.417.417,0,0,0-.117.329.42.42,0,0,0,.135.328,1.021,1.021,0,0,0,.365.2q.229.076.49.148t.549.171a2.173,2.173,0,0,1,.513.261A1.238,1.238,0,0,1-.131-2a1.321,1.321,0,0,1,.144.653,1.183,1.183,0,0,1-.27.783,1.709,1.709,0,0,1-.675.491A2.159,2.159,0,0,1-1.76.09,3.218,3.218,0,0,1-2.822-.094,1.838,1.838,0,0,1-3.7-.747ZM.967-4.725H3.1a.488.488,0,0,1,.36.144.488.488,0,0,1,.144.36.463.463,0,0,1-.144.347.5.5,0,0,1-.36.14H.967a.488.488,0,0,1-.36-.144.488.488,0,0,1-.144-.36.463.463,0,0,1,.144-.347A.5.5,0,0,1,.967-4.725ZM1.93-5.85a.5.5,0,0,1,.382.157.549.549,0,0,1,.149.392v4a.392.392,0,0,0,.049.207.284.284,0,0,0,.135.117.471.471,0,0,0,.184.036.477.477,0,0,0,.2-.04.5.5,0,0,1,.207-.04.3.3,0,0,1,.23.117.472.472,0,0,1,.1.324.476.476,0,0,1-.275.414A1.14,1.14,0,0,1,2.7,0a3.1,3.1,0,0,1-.418-.032,1.131,1.131,0,0,1-.432-.153.936.936,0,0,1-.337-.373,1.481,1.481,0,0,1-.135-.693V-5.3a.531.531,0,0,1,.158-.392A.531.531,0,0,1,1.93-5.85Z" transform="translate(137 356.064)"/>
    <path id="Trazado_609" data-name="Trazado 609" d="M-3.839-4.725h2.133a.488.488,0,0,1,.36.144.488.488,0,0,1,.144.36.463.463,0,0,1-.144.347.5.5,0,0,1-.36.14H-3.839a.488.488,0,0,1-.36-.144.488.488,0,0,1-.144-.36A.463.463,0,0,1-4.2-4.586.5.5,0,0,1-3.839-4.725Zm.963-1.125a.5.5,0,0,1,.382.157.549.549,0,0,1,.149.392v4a.392.392,0,0,0,.049.207.284.284,0,0,0,.135.117.471.471,0,0,0,.184.036.477.477,0,0,0,.2-.04.5.5,0,0,1,.207-.04.3.3,0,0,1,.23.117.472.472,0,0,1,.1.324.476.476,0,0,1-.275.414A1.14,1.14,0,0,1-2.1,0,3.1,3.1,0,0,1-2.52-.032a1.131,1.131,0,0,1-.432-.153.936.936,0,0,1-.337-.373,1.481,1.481,0,0,1-.135-.693V-5.3a.531.531,0,0,1,.158-.392A.531.531,0,0,1-2.875-5.85Zm5.193.945a1.513,1.513,0,0,1,.986.279,1.416,1.416,0,0,1,.464.743,3.926,3.926,0,0,1,.126,1.03v2.3a.54.54,0,0,1-.153.392A.517.517,0,0,1,3.353,0a.517.517,0,0,1-.387-.157.54.54,0,0,1-.153-.392v-2.3a1.85,1.85,0,0,0-.072-.536.734.734,0,0,0-.261-.382.877.877,0,0,0-.54-.144,1.128,1.128,0,0,0-.585.144.93.93,0,0,0-.364.382,1.163,1.163,0,0,0-.122.536v2.3a.54.54,0,0,1-.153.392A.517.517,0,0,1,.329,0,.517.517,0,0,1-.058-.157.54.54,0,0,1-.211-.549V-6.111A.54.54,0,0,1-.058-6.5.517.517,0,0,1,.329-6.66.517.517,0,0,1,.715-6.5a.54.54,0,0,1,.153.391v2.232L.734-3.906a2.015,2.015,0,0,1,.225-.329,1.948,1.948,0,0,1,.351-.329,1.875,1.875,0,0,1,.459-.247A1.552,1.552,0,0,1,2.317-4.905Z" transform="translate(220 356.064)"/>
    <g id="Grupo_591" data-name="Grupo 591" transform="translate(-3.492 -0.489)">
      <g id="Grupo_537" data-name="Grupo 537">
        <path id="iconfinder_octagon_3325011" d="M20.341,2H46.255L64.6,20.341V46.255L46.255,64.6H20.341L2,46.255V20.341Z" transform="translate(110.492 374.554)" fill="#fff" stroke="#f0f0f0" stroke-linecap="round" stroke-linejoin="round" stroke-width="2"/>
        <path id="Trazado_662" data-name="Trazado 662" d="M-.044-31.372a9.2,9.2,0,0,1,4.29.99A9.815,9.815,0,0,1,7.5-27.676a12.988,12.988,0,0,1,2.068,3.85A13.77,13.77,0,0,1,10.3-19.36a23.928,23.928,0,0,1-.33,3.608A24.362,24.362,0,0,1,8.8-11.308,20.141,20.141,0,0,1,6.468-6.776a17.017,17.017,0,0,1-3.806,3.96A16.456,16.456,0,0,1-2.992-.132,4.172,4.172,0,0,1-4,0,3.188,3.188,0,0,1-5.83-.55a2.14,2.14,0,0,1-.814-1.914A2.463,2.463,0,0,1-6.006-4.18,3.576,3.576,0,0,1-4.312-5.192,14.229,14.229,0,0,0-.374-7.128a13.722,13.722,0,0,0,3.322-3.256A10.969,10.969,0,0,0,4.84-14.74l1.188.044a19.124,19.124,0,0,1-1.474,1.584,8.466,8.466,0,0,1-2.2,1.518,6.967,6.967,0,0,1-3.1.638,7.985,7.985,0,0,1-3.41-.792,10.816,10.816,0,0,1-3.08-2.178A10.775,10.775,0,0,1-9.46-17.182a9.646,9.646,0,0,1-.836-3.982,9.854,9.854,0,0,1,1.386-5.17,10.379,10.379,0,0,1,3.718-3.674A10.01,10.01,0,0,1-.044-31.372Zm0,4.84a4.694,4.694,0,0,0-2.508.7,5.034,5.034,0,0,0-1.8,1.914,5.649,5.649,0,0,0-.66,2.75,5.684,5.684,0,0,0,.66,2.728,4.992,4.992,0,0,0,1.8,1.936,4.694,4.694,0,0,0,2.508.7,4.661,4.661,0,0,0,2.53-.7,5.049,5.049,0,0,0,1.782-1.936,5.684,5.684,0,0,0,.66-2.728,5.649,5.649,0,0,0-.66-2.75,5.092,5.092,0,0,0-1.782-1.914A4.661,4.661,0,0,0-.044-26.532Z" transform="translate(143.788 422.926)" fill="#f0f0f0"/>
      </g>
      <g id="Grupo_538" data-name="Grupo 538">
        <path id="iconfinder_octagon_3325011-2" data-name="iconfinder_octagon_3325011" d="M20.341,2H46.255L64.6,20.341V46.255L46.255,64.6H20.341L2,46.255V20.341Z" transform="translate(182.492 374.554)" fill="#f3bed5"/>
        <path id="Trazado_663" data-name="Trazado 663" d="M5.06,0A2.474,2.474,0,0,1,3.212-.77a2.639,2.639,0,0,1-.748-1.914v-20.68l.924.22L-5.1-12.628l-.22-.572H9.592a2.388,2.388,0,0,1,1.76.7,2.388,2.388,0,0,1,.7,1.76,2.263,2.263,0,0,1-.7,1.694,2.429,2.429,0,0,1-1.76.682H-8.976a2.692,2.692,0,0,1-1.782-.748,2.356,2.356,0,0,1-.858-1.848,2.683,2.683,0,0,1,.66-1.76l13.9-17.028a2.505,2.505,0,0,1,.924-.77A2.813,2.813,0,0,1,5.148-30.8a2.455,2.455,0,0,1,1.87.77,2.682,2.682,0,0,1,.726,1.914V-2.684A2.6,2.6,0,0,1,6.974-.77,2.6,2.6,0,0,1,5.06,0Z" transform="translate(215.108 423.353)" fill="#c73d61"/>
      </g>
    </g>
  </g>
</svg>
