<svg xmlns="http://www.w3.org/2000/svg" width="175" height="206.295" viewBox="0 0 175 206.295">
  <g id="M_3_6_F" transform="translate(-89 -233.365)">
    <g id="Grupo_109" data-name="Grupo 109" transform="translate(88.648 233.365)">
      <g id="Rect치ngulo_4" data-name="Rect치ngulo 4" transform="translate(0.352)" fill="#fff" stroke="#e77ca4" stroke-width="1">
        <rect width="175" height="175" rx="19" stroke="none"/>
        <rect x="0.5" y="0.5" width="174" height="174" rx="18.5" fill="none"/>
      </g>
    </g>
    <g id="Grupo_539" data-name="Grupo 539" transform="translate(-3.492)">
      <g id="Grupo_537" data-name="Grupo 537">
        <path id="iconfinder_octagon_3325011" d="M20.341,2H46.255L64.6,20.341V46.255L46.255,64.6H20.341L2,46.255V20.341Z" transform="translate(110.492 374.064)" fill="#fff" stroke="#f0f0f0" stroke-linecap="round" stroke-linejoin="round" stroke-width="2"/>
        <path id="Trazado_664" data-name="Trazado 664" d="M4.928-15.62,4.84-16.632a10.055,10.055,0,0,1,2.9,1.936,8.786,8.786,0,0,1,1.892,2.6,6.77,6.77,0,0,1,.66,2.9A8.146,8.146,0,0,1,8.91-4.6,10.124,10.124,0,0,1,5.192-1.254,10.786,10.786,0,0,1,0,0,10.786,10.786,0,0,1-5.192-1.254,10.124,10.124,0,0,1-8.91-4.6,8.146,8.146,0,0,1-10.3-9.2a6.833,6.833,0,0,1,.858-3.5A8.6,8.6,0,0,1-7.282-15.18a16.649,16.649,0,0,1,2.574-1.672L-5.06-15.62a8.646,8.646,0,0,1-2.134-1.254,6.293,6.293,0,0,1-1.694-2.09,6.428,6.428,0,0,1-.66-2.992,8.136,8.136,0,0,1,1.276-4.466,9.285,9.285,0,0,1,3.454-3.19A9.9,9.9,0,0,1,0-30.8a9.735,9.735,0,0,1,4.818,1.188,9.381,9.381,0,0,1,3.41,3.19A8.136,8.136,0,0,1,9.5-21.956a6.176,6.176,0,0,1-.748,3.168,6.389,6.389,0,0,1-1.8,2.024A10.274,10.274,0,0,1,4.928-15.62Zm-9.2-6.248a4.049,4.049,0,0,0,.55,2.112A4.07,4.07,0,0,0-2.2-18.282a4.374,4.374,0,0,0,2.2.55,4.254,4.254,0,0,0,2.178-.55,4.119,4.119,0,0,0,1.5-1.474,4.049,4.049,0,0,0,.55-2.112,3.894,3.894,0,0,0-1.21-2.926A4.172,4.172,0,0,0,0-25.96a4.229,4.229,0,0,0-3.058,1.166A3.894,3.894,0,0,0-4.268-21.868ZM0-4.84a5.155,5.155,0,0,0,3.564-1.3A4.068,4.068,0,0,0,5.016-9.284a4.1,4.1,0,0,0-.66-2.288,4.678,4.678,0,0,0-1.8-1.606A5.454,5.454,0,0,0,0-13.772a5.454,5.454,0,0,0-2.552.594,4.678,4.678,0,0,0-1.8,1.606,4.1,4.1,0,0,0-.66,2.288A4.068,4.068,0,0,0-3.564-6.138,5.155,5.155,0,0,0,0-4.84Z" transform="translate(143.788 422.865)" fill="#f0f0f0"/>
      </g>
      <g id="Grupo_538" data-name="Grupo 538">
        <path id="iconfinder_octagon_3325011-2" data-name="iconfinder_octagon_3325011" d="M20.341,2H46.255L64.6,20.341V46.255L46.255,64.6H20.341L2,46.255V20.341Z" transform="translate(182.492 374.064)" fill="#f3bed5"/>
        <path id="Trazado_665" data-name="Trazado 665" d="M5.06,0A2.474,2.474,0,0,1,3.212-.77a2.639,2.639,0,0,1-.748-1.914v-20.68l.924.22L-5.1-12.628l-.22-.572H9.592a2.388,2.388,0,0,1,1.76.7,2.388,2.388,0,0,1,.7,1.76,2.263,2.263,0,0,1-.7,1.694,2.429,2.429,0,0,1-1.76.682H-8.976a2.692,2.692,0,0,1-1.782-.748,2.356,2.356,0,0,1-.858-1.848,2.683,2.683,0,0,1,.66-1.76l13.9-17.028a2.505,2.505,0,0,1,.924-.77A2.813,2.813,0,0,1,5.148-30.8a2.455,2.455,0,0,1,1.87.77,2.682,2.682,0,0,1,.726,1.914V-2.684A2.6,2.6,0,0,1,6.974-.77,2.6,2.6,0,0,1,5.06,0Z" transform="translate(215.108 422.865)" fill="#c73d61"/>
      </g>
    </g>
    <text id="_10" data-name="10" transform="translate(149 269.064)" fill="#e77ca4" font-size="33" font-family="Quicksand" font-weight="700"><tspan x="-16.137" y="0">10</tspan></text>
    <g id="Grupo_563" data-name="Grupo 563">
      <g id="Elipse_119" data-name="Elipse 119" transform="translate(174 241.064)" fill="#fff" stroke="#707070" stroke-width="1">
        <circle cx="16" cy="16" r="16" stroke="none"/>
        <circle cx="16" cy="16" r="15.5" fill="none"/>
      </g>
      <path id="Trazado_610" data-name="Trazado 610" d="M176.5,269.175s21.708-19.873,27.752-22.95" fill="none" stroke="#707070" stroke-width="2"/>
      <path id="Trazado_611" data-name="Trazado 611" d="M176.669,242.258s20.548,28.19,24.565,29.109" fill="none" stroke="#707070" stroke-width="2"/>
    </g>
    <g id="Rect치ngulo_192" data-name="Rect치ngulo 192" transform="translate(100 312.064)" fill="#fff" stroke="#707070" stroke-width="1">
      <rect width="153" height="28" stroke="none"/>
      <rect x="0.5" y="0.5" width="152" height="27" fill="none"/>
    </g>
    <g id="Grupo_597" data-name="Grupo 597" transform="translate(-66.902 77.098)">
      <g id="Elipse_119-2" data-name="Elipse 119" transform="translate(173.902 240.967)" fill="#fff" stroke="#707070" stroke-width="1">
        <circle cx="8.5" cy="8.5" r="8.5" stroke="none"/>
        <circle cx="8.5" cy="8.5" r="8" fill="none"/>
      </g>
      <path id="Trazado_610-2" data-name="Trazado 610" d="M176.5,258.347s11.466-10.5,14.659-12.122" transform="translate(-1.18 -2.435)" fill="none" stroke="#707070" stroke-width="2"/>
      <path id="Trazado_611-2" data-name="Trazado 611" d="M176.669,242.258s10.853,14.89,12.975,15.376" transform="translate(-1.259 -0.563)" fill="none" stroke="#707070" stroke-width="2"/>
    </g>
    <g id="Grupo_598" data-name="Grupo 598" transform="translate(-43.902 77.098)">
      <g id="Elipse_119-3" data-name="Elipse 119" transform="translate(173.902 240.967)" fill="#fff" stroke="#707070" stroke-width="1">
        <circle cx="8.5" cy="8.5" r="8.5" stroke="none"/>
        <circle cx="8.5" cy="8.5" r="8" fill="none"/>
      </g>
      <path id="Trazado_610-3" data-name="Trazado 610" d="M176.5,258.347s11.466-10.5,14.659-12.122" transform="translate(-1.18 -2.435)" fill="none" stroke="#707070" stroke-width="2"/>
      <path id="Trazado_611-3" data-name="Trazado 611" d="M176.669,242.258s10.853,14.89,12.975,15.376" transform="translate(-1.259 -0.563)" fill="none" stroke="#707070" stroke-width="2"/>
    </g>
    <g id="Grupo_599" data-name="Grupo 599" transform="translate(-20.902 77.098)">
      <g id="Elipse_119-4" data-name="Elipse 119" transform="translate(173.902 240.967)" fill="#fff" stroke="#707070" stroke-width="1">
        <circle cx="8.5" cy="8.5" r="8.5" stroke="none"/>
        <circle cx="8.5" cy="8.5" r="8" fill="none"/>
      </g>
      <path id="Trazado_610-4" data-name="Trazado 610" d="M176.5,258.347s11.466-10.5,14.659-12.122" transform="translate(-1.18 -2.435)" fill="none" stroke="#707070" stroke-width="2"/>
      <path id="Trazado_611-4" data-name="Trazado 611" d="M176.669,242.258s10.853,14.89,12.975,15.376" transform="translate(-1.259 -0.563)" fill="none" stroke="#707070" stroke-width="2"/>
    </g>
    <g id="Grupo_600" data-name="Grupo 600" transform="translate(2.098 77.098)">
      <g id="Elipse_119-5" data-name="Elipse 119" transform="translate(173.902 240.967)" fill="#fff" stroke="#707070" stroke-width="1">
        <circle cx="8.5" cy="8.5" r="8.5" stroke="none"/>
        <circle cx="8.5" cy="8.5" r="8" fill="none"/>
      </g>
      <path id="Trazado_610-5" data-name="Trazado 610" d="M176.5,258.347s11.466-10.5,14.659-12.122" transform="translate(-1.18 -2.435)" fill="none" stroke="#707070" stroke-width="2"/>
      <path id="Trazado_611-5" data-name="Trazado 611" d="M176.669,242.258s10.853,14.89,12.975,15.376" transform="translate(-1.259 -0.563)" fill="none" stroke="#707070" stroke-width="2"/>
    </g>
    <g id="Grupo_601" data-name="Grupo 601" transform="translate(25.098 77.098)">
      <g id="Elipse_119-6" data-name="Elipse 119" transform="translate(173.902 240.967)" fill="#fff" stroke="#707070" stroke-width="1">
        <circle cx="8.5" cy="8.5" r="8.5" stroke="none"/>
        <circle cx="8.5" cy="8.5" r="8" fill="none"/>
      </g>
      <path id="Trazado_610-6" data-name="Trazado 610" d="M176.5,258.347s11.466-10.5,14.659-12.122" transform="translate(-1.18 -2.435)" fill="none" stroke="#707070" stroke-width="2"/>
      <path id="Trazado_611-6" data-name="Trazado 611" d="M176.669,242.258s10.853,14.89,12.975,15.376" transform="translate(-1.259 -0.563)" fill="none" stroke="#707070" stroke-width="2"/>
    </g>
    <g id="Grupo_602" data-name="Grupo 602" transform="translate(48.098 77.098)">
      <g id="Elipse_119-7" data-name="Elipse 119" transform="translate(173.902 240.967)" fill="#fff" stroke="#707070" stroke-width="1">
        <circle cx="8.5" cy="8.5" r="8.5" stroke="none"/>
        <circle cx="8.5" cy="8.5" r="8" fill="none"/>
      </g>
      <path id="Trazado_610-7" data-name="Trazado 610" d="M176.5,258.347s11.466-10.5,14.659-12.122" transform="translate(-1.18 -2.435)" fill="none" stroke="#707070" stroke-width="2"/>
      <path id="Trazado_611-7" data-name="Trazado 611" d="M176.669,242.258s10.853,14.89,12.975,15.376" transform="translate(-1.259 -0.563)" fill="none" stroke="#707070" stroke-width="2"/>
    </g>
  </g>
</svg>
