<svg xmlns="http://www.w3.org/2000/svg" width="175" height="205.596" viewBox="0 0 175 205.596">
  <g id="M_3_0_T" transform="translate(-89 -233.365)">
    <g id="Grupo_109" data-name="Grupo 109" transform="translate(88.648 233.365)">
      <g id="Rectángulo_4" data-name="Rectángulo 4" transform="translate(0.352)" fill="#fff" stroke="#e77ca4" stroke-width="1">
        <rect width="175" height="175" rx="19" stroke="none"/>
        <rect x="0.5" y="0.5" width="174" height="174" rx="18.5" fill="none"/>
      </g>
    </g>
    <g id="Grupo_547" data-name="Grupo 547" transform="translate(10.081 -2)">
      <text id="_3" data-name="3" transform="translate(126.919 328.366)" fill="#e77ca4" font-size="44" font-family="Quicksand" font-weight="700"><tspan x="-11.484" y="0">3</tspan></text>
      <g id="Grupo_546" data-name="Grupo 546" transform="translate(1162.918 -7664.776)">
        <rect id="Rectángulo_125" data-name="Rectángulo 125" width="38.823" height="9.284" rx="1" transform="translate(-1005.78 7958.563)" fill="#ffc4dd"/>
        <path id="iconfinder_Untitled-1-18_2419684" d="M64.15,63.951V15.509l-2.715-2.715V6.3H25.13v6.494l-2.715,2.715V63.951H19.7v2.715H66.864V63.951ZM54.088,8.057a1.916,1.916,0,1,1-1.916,1.916A1.943,1.943,0,0,1,54.088,8.057Zm-5.377,0A1.916,1.916,0,1,1,46.8,9.973,1.908,1.908,0,0,1,48.712,8.057Zm-5.43,0A1.908,1.908,0,0,1,45.2,9.973a1.864,1.864,0,0,1-1.916,1.863,1.89,1.89,0,1,1,0-3.78Zm-5.43,0a1.916,1.916,0,1,1-1.916,1.916A1.943,1.943,0,0,1,37.852,8.057Zm-5.377,0A1.916,1.916,0,1,1,30.56,9.973,1.908,1.908,0,0,1,32.476,8.057ZM51.427,31.213v5.43H46v-5.43ZM46,26.954v-5.43h5.43v5.43ZM46.1,40.848h5.43v5.43H46.1Zm15.331-14.32v5.43H56.058v-5.43ZM56.058,23.6V18.224h5.43v5.43h-5.43ZM61.435,34.62v5.43H56.058V34.62Zm0,7.878v5.43H56.058V42.5Zm0,8.145v5.43H56.058v-5.43ZM35.191,36.59V31.213h5.43v5.43l-5.43-.053Zm5.164,4.259v5.43H34.978v-5.43ZM35.191,26.954v-5.43h5.43v5.43ZM25.13,18.224h5.377v5.43H25.13Zm0,8.3h5.377v5.43H25.13Zm0,8.091h5.377v5.43H25.13Zm0,7.719h5.377v5.43H25.13Zm0,8.145h5.377v5.43H25.13Zm12.776,2.289H48.712V63.951H37.906Z" transform="translate(-1029.7 7961.513)" fill="#356dd0"/>
        <path id="Trazado_579" data-name="Trazado 579" d="M-69.4-25.627a.437.437,0,0,0,.443-.45v-1.59h2.366v1.59a.477.477,0,0,0,.494.45.443.443,0,0,0,.45-.45V-30.2a.439.439,0,0,0-.45-.45.472.472,0,0,0-.494.45v1.582H-68.96V-30.2a.433.433,0,0,0-.443-.45.455.455,0,0,0-.515.45v4.123A.458.458,0,0,0-69.4-25.627Zm9.915-2.54a2.617,2.617,0,0,0-2.6-2.664,2.6,2.6,0,0,0-2.736,2.664,2.534,2.534,0,0,0,2.736,2.613A2.531,2.531,0,0,0-59.488-28.167Zm-.951,0a1.676,1.676,0,0,1-1.727,1.72,1.666,1.666,0,0,1-1.7-1.72,1.661,1.661,0,0,1,1.7-1.72A1.672,1.672,0,0,1-60.439-28.167Zm3.2,2.09a.479.479,0,0,0,.958,0v-3.665h1.2a.465.465,0,1,0,0-.929h-3.433a.465.465,0,1,0,0,.929h1.27Zm6.511.45a.477.477,0,1,0,0-.951h-2.214v-1.089h1.829a.476.476,0,1,0,0-.951h-1.829v-1.089h2.09a.472.472,0,1,0,0-.944h-2.606a.439.439,0,0,0-.45.45v4.123a.443.443,0,0,0,.45.45Zm1.292-.443a.439.439,0,0,0,.457.443h2.4a.479.479,0,1,0,0-.951H-48.55v-3.636a.442.442,0,0,0-.428-.443.452.452,0,0,0-.457.443Z" transform="translate(-928.252 7991.617)"/>
        <path id="Sustracción_3" data-name="Sustracción 3" d="M36.291,28.864H0V0H36.291V28.864Zm-8.44-8.1V26.67h5.908V20.762Zm-8.44,0V26.67H25.32V20.762Zm-8.44,0V26.67H16.88V20.762Zm-8.44,0V26.67H8.44V20.762Zm25.32-8.777v5.908h5.908V11.985Zm-8.44,0v5.908H25.32V11.985Zm-8.44,0v5.908H16.88V11.985Zm-8.44,0v5.908H8.44V11.985Zm25.32-8.777V9.115h5.908V3.207Zm-8.44,0V9.115H25.32V3.207Zm-8.44,0V9.115H16.88V3.207Zm-8.44,0V9.115H8.44V3.207Z" transform="translate(-1004.598 7929.699)" fill="#356dd0"/>
        <rect id="Rectángulo_126" data-name="Rectángulo 126" width="38.823" height="4.895" rx="1" transform="translate(-1005.78 7925.141)" fill="#ffc4dd"/>
      </g>
    </g>
    <g id="Grupo_596" data-name="Grupo 596" transform="translate(-3.492 0.634)">
      <g id="Grupo_537" data-name="Grupo 537" transform="translate(0 -1)">
        <path id="iconfinder_octagon_3325011" d="M20.341,2H46.255L64.6,20.341V46.255L46.255,64.6H20.341L2,46.255V20.341Z" transform="translate(110.492 374.731)" fill="#c45b7c"/>
        <path id="Trazado_652" data-name="Trazado 652" d="M4.928-15.62,4.84-16.632a10.055,10.055,0,0,1,2.9,1.936,8.786,8.786,0,0,1,1.892,2.6,6.77,6.77,0,0,1,.66,2.9A8.146,8.146,0,0,1,8.91-4.6,10.124,10.124,0,0,1,5.192-1.254,10.786,10.786,0,0,1,0,0,10.786,10.786,0,0,1-5.192-1.254,10.124,10.124,0,0,1-8.91-4.6,8.146,8.146,0,0,1-10.3-9.2a6.833,6.833,0,0,1,.858-3.5A8.6,8.6,0,0,1-7.282-15.18a16.649,16.649,0,0,1,2.574-1.672L-5.06-15.62a8.646,8.646,0,0,1-2.134-1.254,6.293,6.293,0,0,1-1.694-2.09,6.428,6.428,0,0,1-.66-2.992,8.136,8.136,0,0,1,1.276-4.466,9.285,9.285,0,0,1,3.454-3.19A9.9,9.9,0,0,1,0-30.8a9.735,9.735,0,0,1,4.818,1.188,9.381,9.381,0,0,1,3.41,3.19A8.136,8.136,0,0,1,9.5-21.956a6.176,6.176,0,0,1-.748,3.168,6.389,6.389,0,0,1-1.8,2.024A10.274,10.274,0,0,1,4.928-15.62Zm-9.2-6.248a4.049,4.049,0,0,0,.55,2.112A4.07,4.07,0,0,0-2.2-18.282a4.374,4.374,0,0,0,2.2.55,4.254,4.254,0,0,0,2.178-.55,4.119,4.119,0,0,0,1.5-1.474,4.049,4.049,0,0,0,.55-2.112,3.894,3.894,0,0,0-1.21-2.926A4.172,4.172,0,0,0,0-25.96a4.229,4.229,0,0,0-3.058,1.166A3.894,3.894,0,0,0-4.268-21.868ZM0-4.84a5.155,5.155,0,0,0,3.564-1.3A4.068,4.068,0,0,0,5.016-9.284a4.1,4.1,0,0,0-.66-2.288,4.678,4.678,0,0,0-1.8-1.606A5.454,5.454,0,0,0,0-13.772a5.454,5.454,0,0,0-2.552.594,4.678,4.678,0,0,0-1.8,1.606,4.1,4.1,0,0,0-.66,2.288A4.068,4.068,0,0,0-3.564-6.138,5.155,5.155,0,0,0,0-4.84Z" transform="translate(143.788 423.531)" fill="#f3d8e7"/>
      </g>
      <g id="Grupo_538" data-name="Grupo 538">
        <path id="iconfinder_octagon_3325011-2" data-name="iconfinder_octagon_3325011" d="M20.341,2H46.255L64.6,20.341V46.255L46.255,64.6H20.341L2,46.255V20.341Z" transform="translate(182.492 373.731)" fill="#f3bed5"/>
        <path id="Trazado_653" data-name="Trazado 653" d="M5.06,0A2.474,2.474,0,0,1,3.212-.77a2.639,2.639,0,0,1-.748-1.914v-20.68l.924.22L-5.1-12.628l-.22-.572H9.592a2.388,2.388,0,0,1,1.76.7,2.388,2.388,0,0,1,.7,1.76,2.263,2.263,0,0,1-.7,1.694,2.429,2.429,0,0,1-1.76.682H-8.976a2.692,2.692,0,0,1-1.782-.748,2.356,2.356,0,0,1-.858-1.848,2.683,2.683,0,0,1,.66-1.76l13.9-17.028a2.505,2.505,0,0,1,.924-.77A2.813,2.813,0,0,1,5.148-30.8a2.455,2.455,0,0,1,1.87.77,2.682,2.682,0,0,1,.726,1.914V-2.684A2.6,2.6,0,0,1,6.974-.77,2.6,2.6,0,0,1,5.06,0Z" transform="translate(215.108 422.531)" fill="#c73d61"/>
      </g>
    </g>
  </g>
</svg>
