<svg xmlns="http://www.w3.org/2000/svg" width="175" height="207.295" viewBox="0 0 175 207.295">
  <g id="M_3_4_F" transform="translate(-89 -233.365)">
    <g id="Grupo_109" data-name="Grupo 109" transform="translate(88.648 233.365)">
      <g id="Rectángulo_4" data-name="Rectángulo 4" transform="translate(0.352)" fill="#fff" stroke="#e77ca4" stroke-width="1">
        <rect width="175" height="175" rx="19" stroke="none"/>
        <rect x="0.5" y="0.5" width="174" height="174" rx="18.5" fill="none"/>
      </g>
    </g>
    <g id="Grupo_549" data-name="Grupo 549" transform="translate(836.55 -7667.108)">
      <path id="Trazado_695" data-name="Trazado 695" d="M1.955,0a.956.956,0,0,1-.714-.3,1.019,1.019,0,0,1-.289-.74v-7.99l.357.085L-1.972-4.879-2.057-5.1H3.706a.923.923,0,0,1,.68.272.923.923,0,0,1,.272.68.874.874,0,0,1-.272.655.938.938,0,0,1-.68.264H-3.468a1.04,1.04,0,0,1-.688-.289.91.91,0,0,1-.332-.714,1.037,1.037,0,0,1,.255-.68l5.372-6.579a.968.968,0,0,1,.357-.3,1.087,1.087,0,0,1,.493-.111.949.949,0,0,1,.722.3,1.036,1.036,0,0,1,.28.74v9.826a1,1,0,0,1-.3.74A1,1,0,0,1,1.955,0Z" transform="translate(-659.55 7922.172)" fill="#e77ca4"/>
      <g id="Grupo_551" data-name="Grupo 551" transform="translate(-651.55 7915.663)">
        <g id="Grupo_531" data-name="Grupo 531">
          <rect id="Rectángulo_125" data-name="Rectángulo 125" width="15.465" height="3.698" rx="1" transform="translate(1.681 13.314)" fill="#ffc4dd"/>
          <path id="iconfinder_Untitled-1-18_2419684" d="M37.406,29.265V9.969L36.325,8.887V6.3H21.863V8.887L20.781,9.969v19.3H19.7v1.081H38.488V29.265ZM33.4,7a.763.763,0,1,1-.763.763A.774.774,0,0,1,33.4,7ZM31.257,7a.763.763,0,1,1-.763.763A.76.76,0,0,1,31.257,7ZM29.094,7a.76.76,0,0,1,.763.763.743.743,0,0,1-.763.742.753.753,0,1,1,0-1.506ZM26.931,7a.763.763,0,1,1-.763.763A.774.774,0,0,1,26.931,7ZM24.789,7a.763.763,0,1,1-.763.763A.76.76,0,0,1,24.789,7Zm7.549,9.224v2.163H30.175V16.224Zm-2.163-1.7V12.365h2.163v2.163Zm.042,5.535h2.163v2.163H30.218Zm6.107-5.7v2.163H34.183V14.358Zm-2.142-1.166V11.05h2.163v2.163H34.183Zm2.142,4.389v2.163H34.183V17.581Zm0,3.138v2.163H34.183V20.72Zm0,3.244v2.163H34.183V23.964Zm-10.454-5.6V16.224h2.163v2.163l-2.163-.021Zm2.057,1.7v2.163H25.786V20.062Zm-2.057-5.535V12.365h2.163v2.163ZM21.863,11.05H24v2.163H21.863Zm0,3.308H24v2.163H21.863Zm0,3.223H24v2.163H21.863Zm0,3.075H24v2.163H21.863Zm0,3.244H24v2.163H21.863Zm5.089.912h4.3v4.453h-4.3Z" transform="translate(-19.7 10.698)" fill="#356dd0"/>
          <path id="Trazado_580" data-name="Trazado 580" d="M-69.713-28.758a.174.174,0,0,0,.176-.179v-.633h.943v.633a.19.19,0,0,0,.2.179.177.177,0,0,0,.179-.179v-1.642a.175.175,0,0,0-.179-.179.188.188,0,0,0-.2.179v.63h-.943v-.63a.172.172,0,0,0-.176-.179.181.181,0,0,0-.205.179v1.642A.183.183,0,0,0-69.713-28.758Zm3.95-1.012A1.042,1.042,0,0,0-66.8-30.831a1.037,1.037,0,0,0-1.09,1.061,1.009,1.009,0,0,0,1.09,1.041A1.008,1.008,0,0,0-65.763-29.77Zm-.379,0a.668.668,0,0,1-.688.685.664.664,0,0,1-.677-.685.662.662,0,0,1,.677-.685A.666.666,0,0,1-66.142-29.77Zm1.275.833a.191.191,0,0,0,.382,0V-30.4h.48a.185.185,0,1,0,0-.37h-1.368a.185.185,0,1,0,0,.37h.506Zm2.594.179a.19.19,0,1,0,0-.379h-.882v-.434h.729a.189.189,0,1,0,0-.379h-.729v-.434h.833a.188.188,0,1,0,0-.376h-1.038a.175.175,0,0,0-.179.179v1.642a.177.177,0,0,0,.179.179Zm.515-.176a.175.175,0,0,0,.182.176h.957a.191.191,0,1,0,0-.379h-.786v-1.449a.176.176,0,0,0-.171-.176.18.18,0,0,0-.182.176Z" transform="translate(74.63 45.03)"/>
          <path id="Sustracción_3" data-name="Sustracción 3" d="M14.457,11.5H0V0H14.457V11.5ZM11.095,8.271v2.353h2.353V8.271Zm-3.362,0v2.353h2.353V8.271Zm-3.362,0v2.353H6.724V8.271Zm-3.362,0v2.353H3.362V8.271Zm10.086-3.5V7.127h2.353V4.774Zm-3.362,0V7.127h2.353V4.774Zm-3.362,0V7.127H6.724V4.774Zm-3.362,0V7.127H3.362V4.774Zm10.086-3.5V3.631h2.353V1.278Zm-3.362,0V3.631h2.353V1.278Zm-3.362,0V3.631H6.724V1.278Zm-3.362,0V3.631H3.362V1.278Z" transform="translate(2.152 1.815)" fill="#356dd0"/>
          <rect id="Rectángulo_126" data-name="Rectángulo 126" width="15.465" height="1.95" rx="0.975" transform="translate(1.681 0)" fill="#ffc4dd"/>
        </g>
      </g>
      <g id="Grupo_552" data-name="Grupo 552" transform="translate(-615.55 7915.663)">
        <g id="Grupo_531-2" data-name="Grupo 531" transform="translate(0)">
          <rect id="Rectángulo_125-2" data-name="Rectángulo 125" width="15.465" height="3.698" rx="1" transform="translate(1.681 13.314)" fill="#ffc4dd"/>
          <path id="iconfinder_Untitled-1-18_2419684-2" data-name="iconfinder_Untitled-1-18_2419684" d="M37.406,29.265V9.969L36.325,8.887V6.3H21.863V8.887L20.781,9.969v19.3H19.7v1.081H38.488V29.265ZM33.4,7a.763.763,0,1,1-.763.763A.774.774,0,0,1,33.4,7ZM31.257,7a.763.763,0,1,1-.763.763A.76.76,0,0,1,31.257,7ZM29.094,7a.76.76,0,0,1,.763.763.743.743,0,0,1-.763.742.753.753,0,1,1,0-1.506ZM26.931,7a.763.763,0,1,1-.763.763A.774.774,0,0,1,26.931,7ZM24.789,7a.763.763,0,1,1-.763.763A.76.76,0,0,1,24.789,7Zm7.549,9.224v2.163H30.175V16.224Zm-2.163-1.7V12.365h2.163v2.163Zm.042,5.535h2.163v2.163H30.218Zm6.107-5.7v2.163H34.183V14.358Zm-2.142-1.166V11.05h2.163v2.163H34.183Zm2.142,4.389v2.163H34.183V17.581Zm0,3.138v2.163H34.183V20.72Zm0,3.244v2.163H34.183V23.964Zm-10.454-5.6V16.224h2.163v2.163l-2.163-.021Zm2.057,1.7v2.163H25.786V20.062Zm-2.057-5.535V12.365h2.163v2.163ZM21.863,11.05H24v2.163H21.863Zm0,3.308H24v2.163H21.863Zm0,3.223H24v2.163H21.863Zm0,3.075H24v2.163H21.863Zm0,3.244H24v2.163H21.863Zm5.089.912h4.3v4.453h-4.3Z" transform="translate(-19.7 10.698)" fill="#356dd0"/>
          <path id="Trazado_580-2" data-name="Trazado 580" d="M-69.713-28.758a.174.174,0,0,0,.176-.179v-.633h.943v.633a.19.19,0,0,0,.2.179.177.177,0,0,0,.179-.179v-1.642a.175.175,0,0,0-.179-.179.188.188,0,0,0-.2.179v.63h-.943v-.63a.172.172,0,0,0-.176-.179.181.181,0,0,0-.205.179v1.642A.183.183,0,0,0-69.713-28.758Zm3.95-1.012A1.042,1.042,0,0,0-66.8-30.831a1.037,1.037,0,0,0-1.09,1.061,1.009,1.009,0,0,0,1.09,1.041A1.008,1.008,0,0,0-65.763-29.77Zm-.379,0a.668.668,0,0,1-.688.685.664.664,0,0,1-.677-.685.662.662,0,0,1,.677-.685A.666.666,0,0,1-66.142-29.77Zm1.275.833a.191.191,0,0,0,.382,0V-30.4h.48a.185.185,0,1,0,0-.37h-1.368a.185.185,0,1,0,0,.37h.506Zm2.594.179a.19.19,0,1,0,0-.379h-.882v-.434h.729a.189.189,0,1,0,0-.379h-.729v-.434h.833a.188.188,0,1,0,0-.376h-1.038a.175.175,0,0,0-.179.179v1.642a.177.177,0,0,0,.179.179Zm.515-.176a.175.175,0,0,0,.182.176h.957a.191.191,0,1,0,0-.379h-.786v-1.449a.176.176,0,0,0-.171-.176.18.18,0,0,0-.182.176Z" transform="translate(74.63 45.03)"/>
          <path id="Sustracción_3-2" data-name="Sustracción 3" d="M14.457,11.5H0V0H14.457V11.5ZM11.095,8.271v2.353h2.353V8.271Zm-3.362,0v2.353h2.353V8.271Zm-3.362,0v2.353H6.724V8.271Zm-3.362,0v2.353H3.362V8.271Zm10.086-3.5V7.127h2.353V4.774Zm-3.362,0V7.127h2.353V4.774Zm-3.362,0V7.127H6.724V4.774Zm-3.362,0V7.127H3.362V4.774Zm10.086-3.5V3.631h2.353V1.278Zm-3.362,0V3.631h2.353V1.278Zm-3.362,0V3.631H6.724V1.278Zm-3.362,0V3.631H3.362V1.278Z" transform="translate(2.152 1.815)" fill="#356dd0"/>
          <rect id="Rectángulo_126-2" data-name="Rectángulo 126" width="15.465" height="1.95" rx="0.975" transform="translate(1.681 0)" fill="#ffc4dd"/>
        </g>
      </g>
      <g id="Grupo_553" data-name="Grupo 553" transform="translate(-687.55 7915.663)">
        <g id="Grupo_531-3" data-name="Grupo 531">
          <rect id="Rectángulo_125-3" data-name="Rectángulo 125" width="15.465" height="3.698" rx="1" transform="translate(1.681 13.314)" fill="#ffc4dd"/>
          <path id="iconfinder_Untitled-1-18_2419684-3" data-name="iconfinder_Untitled-1-18_2419684" d="M37.406,29.265V9.969L36.325,8.887V6.3H21.863V8.887L20.781,9.969v19.3H19.7v1.081H38.488V29.265ZM33.4,7a.763.763,0,1,1-.763.763A.774.774,0,0,1,33.4,7ZM31.257,7a.763.763,0,1,1-.763.763A.76.76,0,0,1,31.257,7ZM29.094,7a.76.76,0,0,1,.763.763.743.743,0,0,1-.763.742.753.753,0,1,1,0-1.506ZM26.931,7a.763.763,0,1,1-.763.763A.774.774,0,0,1,26.931,7ZM24.789,7a.763.763,0,1,1-.763.763A.76.76,0,0,1,24.789,7Zm7.549,9.224v2.163H30.175V16.224Zm-2.163-1.7V12.365h2.163v2.163Zm.042,5.535h2.163v2.163H30.218Zm6.107-5.7v2.163H34.183V14.358Zm-2.142-1.166V11.05h2.163v2.163H34.183Zm2.142,4.389v2.163H34.183V17.581Zm0,3.138v2.163H34.183V20.72Zm0,3.244v2.163H34.183V23.964Zm-10.454-5.6V16.224h2.163v2.163l-2.163-.021Zm2.057,1.7v2.163H25.786V20.062Zm-2.057-5.535V12.365h2.163v2.163ZM21.863,11.05H24v2.163H21.863Zm0,3.308H24v2.163H21.863Zm0,3.223H24v2.163H21.863Zm0,3.075H24v2.163H21.863Zm0,3.244H24v2.163H21.863Zm5.089.912h4.3v4.453h-4.3Z" transform="translate(-19.7 10.698)" fill="#356dd0"/>
          <path id="Trazado_580-3" data-name="Trazado 580" d="M-69.713-28.758a.174.174,0,0,0,.176-.179v-.633h.943v.633a.19.19,0,0,0,.2.179.177.177,0,0,0,.179-.179v-1.642a.175.175,0,0,0-.179-.179.188.188,0,0,0-.2.179v.63h-.943v-.63a.172.172,0,0,0-.176-.179.181.181,0,0,0-.205.179v1.642A.183.183,0,0,0-69.713-28.758Zm3.95-1.012A1.042,1.042,0,0,0-66.8-30.831a1.037,1.037,0,0,0-1.09,1.061,1.009,1.009,0,0,0,1.09,1.041A1.008,1.008,0,0,0-65.763-29.77Zm-.379,0a.668.668,0,0,1-.688.685.664.664,0,0,1-.677-.685.662.662,0,0,1,.677-.685A.666.666,0,0,1-66.142-29.77Zm1.275.833a.191.191,0,0,0,.382,0V-30.4h.48a.185.185,0,1,0,0-.37h-1.368a.185.185,0,1,0,0,.37h.506Zm2.594.179a.19.19,0,1,0,0-.379h-.882v-.434h.729a.189.189,0,1,0,0-.379h-.729v-.434h.833a.188.188,0,1,0,0-.376h-1.038a.175.175,0,0,0-.179.179v1.642a.177.177,0,0,0,.179.179Zm.515-.176a.175.175,0,0,0,.182.176h.957a.191.191,0,1,0,0-.379h-.786v-1.449a.176.176,0,0,0-.171-.176.18.18,0,0,0-.182.176Z" transform="translate(74.63 45.03)"/>
          <path id="Sustracción_3-3" data-name="Sustracción 3" d="M14.457,11.5H0V0H14.457V11.5ZM11.095,8.271v2.353h2.353V8.271Zm-3.362,0v2.353h2.353V8.271Zm-3.362,0v2.353H6.724V8.271Zm-3.362,0v2.353H3.362V8.271Zm10.086-3.5V7.127h2.353V4.774Zm-3.362,0V7.127h2.353V4.774Zm-3.362,0V7.127H6.724V4.774Zm-3.362,0V7.127H3.362V4.774Zm10.086-3.5V3.631h2.353V1.278Zm-3.362,0V3.631h2.353V1.278Zm-3.362,0V3.631H6.724V1.278Zm-3.362,0V3.631H3.362V1.278Z" transform="translate(2.152 1.815)" fill="#356dd0"/>
          <rect id="Rectángulo_126-3" data-name="Rectángulo 126" width="15.465" height="1.95" rx="0.975" transform="translate(1.681 0)" fill="#ffc4dd"/>
        </g>
      </g>
      <g id="Grupo_554" data-name="Grupo 554" transform="translate(-723.55 7915.663)">
        <g id="Grupo_531-4" data-name="Grupo 531" transform="translate(0)">
          <rect id="Rectángulo_125-4" data-name="Rectángulo 125" width="15.465" height="3.698" rx="1" transform="translate(1.681 13.314)" fill="#ffc4dd"/>
          <path id="iconfinder_Untitled-1-18_2419684-4" data-name="iconfinder_Untitled-1-18_2419684" d="M37.406,29.265V9.969L36.325,8.887V6.3H21.863V8.887L20.781,9.969v19.3H19.7v1.081H38.488V29.265ZM33.4,7a.763.763,0,1,1-.763.763A.774.774,0,0,1,33.4,7ZM31.257,7a.763.763,0,1,1-.763.763A.76.76,0,0,1,31.257,7ZM29.094,7a.76.76,0,0,1,.763.763.743.743,0,0,1-.763.742.753.753,0,1,1,0-1.506ZM26.931,7a.763.763,0,1,1-.763.763A.774.774,0,0,1,26.931,7ZM24.789,7a.763.763,0,1,1-.763.763A.76.76,0,0,1,24.789,7Zm7.549,9.224v2.163H30.175V16.224Zm-2.163-1.7V12.365h2.163v2.163Zm.042,5.535h2.163v2.163H30.218Zm6.107-5.7v2.163H34.183V14.358Zm-2.142-1.166V11.05h2.163v2.163H34.183Zm2.142,4.389v2.163H34.183V17.581Zm0,3.138v2.163H34.183V20.72Zm0,3.244v2.163H34.183V23.964Zm-10.454-5.6V16.224h2.163v2.163l-2.163-.021Zm2.057,1.7v2.163H25.786V20.062Zm-2.057-5.535V12.365h2.163v2.163ZM21.863,11.05H24v2.163H21.863Zm0,3.308H24v2.163H21.863Zm0,3.223H24v2.163H21.863Zm0,3.075H24v2.163H21.863Zm0,3.244H24v2.163H21.863Zm5.089.912h4.3v4.453h-4.3Z" transform="translate(-19.7 10.698)" fill="#356dd0"/>
          <path id="Trazado_580-4" data-name="Trazado 580" d="M-69.713-28.758a.174.174,0,0,0,.176-.179v-.633h.943v.633a.19.19,0,0,0,.2.179.177.177,0,0,0,.179-.179v-1.642a.175.175,0,0,0-.179-.179.188.188,0,0,0-.2.179v.63h-.943v-.63a.172.172,0,0,0-.176-.179.181.181,0,0,0-.205.179v1.642A.183.183,0,0,0-69.713-28.758Zm3.95-1.012A1.042,1.042,0,0,0-66.8-30.831a1.037,1.037,0,0,0-1.09,1.061,1.009,1.009,0,0,0,1.09,1.041A1.008,1.008,0,0,0-65.763-29.77Zm-.379,0a.668.668,0,0,1-.688.685.664.664,0,0,1-.677-.685.662.662,0,0,1,.677-.685A.666.666,0,0,1-66.142-29.77Zm1.275.833a.191.191,0,0,0,.382,0V-30.4h.48a.185.185,0,1,0,0-.37h-1.368a.185.185,0,1,0,0,.37h.506Zm2.594.179a.19.19,0,1,0,0-.379h-.882v-.434h.729a.189.189,0,1,0,0-.379h-.729v-.434h.833a.188.188,0,1,0,0-.376h-1.038a.175.175,0,0,0-.179.179v1.642a.177.177,0,0,0,.179.179Zm.515-.176a.175.175,0,0,0,.182.176h.957a.191.191,0,1,0,0-.379h-.786v-1.449a.176.176,0,0,0-.171-.176.18.18,0,0,0-.182.176Z" transform="translate(74.63 45.03)"/>
          <path id="Sustracción_3-4" data-name="Sustracción 3" d="M14.457,11.5H0V0H14.457V11.5ZM11.095,8.271v2.353h2.353V8.271Zm-3.362,0v2.353h2.353V8.271Zm-3.362,0v2.353H6.724V8.271Zm-3.362,0v2.353H3.362V8.271Zm10.086-3.5V7.127h2.353V4.774Zm-3.362,0V7.127h2.353V4.774Zm-3.362,0V7.127H6.724V4.774Zm-3.362,0V7.127H3.362V4.774Zm10.086-3.5V3.631h2.353V1.278Zm-3.362,0V3.631h2.353V1.278Zm-3.362,0V3.631H6.724V1.278Zm-3.362,0V3.631H3.362V1.278Z" transform="translate(2.152 1.815)" fill="#356dd0"/>
          <rect id="Rectángulo_126-4" data-name="Rectángulo 126" width="15.465" height="1.95" rx="0.975" transform="translate(1.681 0)" fill="#ffc4dd"/>
        </g>
      </g>
      <g id="Grupo_556" data-name="Grupo 556" transform="translate(-723.55 7965.663)">
        <g id="Grupo_531-5" data-name="Grupo 531" transform="translate(0)">
          <rect id="Rectángulo_125-5" data-name="Rectángulo 125" width="15.465" height="3.698" rx="1" transform="translate(1.681 13.314)" fill="#ffc4dd"/>
          <path id="iconfinder_Untitled-1-18_2419684-5" data-name="iconfinder_Untitled-1-18_2419684" d="M37.406,29.265V9.969L36.325,8.887V6.3H21.863V8.887L20.781,9.969v19.3H19.7v1.081H38.488V29.265ZM33.4,7a.763.763,0,1,1-.763.763A.774.774,0,0,1,33.4,7ZM31.257,7a.763.763,0,1,1-.763.763A.76.76,0,0,1,31.257,7ZM29.094,7a.76.76,0,0,1,.763.763.743.743,0,0,1-.763.742.753.753,0,1,1,0-1.506ZM26.931,7a.763.763,0,1,1-.763.763A.774.774,0,0,1,26.931,7ZM24.789,7a.763.763,0,1,1-.763.763A.76.76,0,0,1,24.789,7Zm7.549,9.224v2.163H30.175V16.224Zm-2.163-1.7V12.365h2.163v2.163Zm.042,5.535h2.163v2.163H30.218Zm6.107-5.7v2.163H34.183V14.358Zm-2.142-1.166V11.05h2.163v2.163H34.183Zm2.142,4.389v2.163H34.183V17.581Zm0,3.138v2.163H34.183V20.72Zm0,3.244v2.163H34.183V23.964Zm-10.454-5.6V16.224h2.163v2.163l-2.163-.021Zm2.057,1.7v2.163H25.786V20.062Zm-2.057-5.535V12.365h2.163v2.163ZM21.863,11.05H24v2.163H21.863Zm0,3.308H24v2.163H21.863Zm0,3.223H24v2.163H21.863Zm0,3.075H24v2.163H21.863Zm0,3.244H24v2.163H21.863Zm5.089.912h4.3v4.453h-4.3Z" transform="translate(-19.7 10.698)" fill="#356dd0"/>
          <path id="Trazado_580-5" data-name="Trazado 580" d="M-69.713-28.758a.174.174,0,0,0,.176-.179v-.633h.943v.633a.19.19,0,0,0,.2.179.177.177,0,0,0,.179-.179v-1.642a.175.175,0,0,0-.179-.179.188.188,0,0,0-.2.179v.63h-.943v-.63a.172.172,0,0,0-.176-.179.181.181,0,0,0-.205.179v1.642A.183.183,0,0,0-69.713-28.758Zm3.95-1.012A1.042,1.042,0,0,0-66.8-30.831a1.037,1.037,0,0,0-1.09,1.061,1.009,1.009,0,0,0,1.09,1.041A1.008,1.008,0,0,0-65.763-29.77Zm-.379,0a.668.668,0,0,1-.688.685.664.664,0,0,1-.677-.685.662.662,0,0,1,.677-.685A.666.666,0,0,1-66.142-29.77Zm1.275.833a.191.191,0,0,0,.382,0V-30.4h.48a.185.185,0,1,0,0-.37h-1.368a.185.185,0,1,0,0,.37h.506Zm2.594.179a.19.19,0,1,0,0-.379h-.882v-.434h.729a.189.189,0,1,0,0-.379h-.729v-.434h.833a.188.188,0,1,0,0-.376h-1.038a.175.175,0,0,0-.179.179v1.642a.177.177,0,0,0,.179.179Zm.515-.176a.175.175,0,0,0,.182.176h.957a.191.191,0,1,0,0-.379h-.786v-1.449a.176.176,0,0,0-.171-.176.18.18,0,0,0-.182.176Z" transform="translate(74.63 45.03)"/>
          <path id="Sustracción_3-5" data-name="Sustracción 3" d="M14.457,11.5H0V0H14.457V11.5ZM11.095,8.271v2.353h2.353V8.271Zm-3.362,0v2.353h2.353V8.271Zm-3.362,0v2.353H6.724V8.271Zm-3.362,0v2.353H3.362V8.271Zm10.086-3.5V7.127h2.353V4.774Zm-3.362,0V7.127h2.353V4.774Zm-3.362,0V7.127H6.724V4.774Zm-3.362,0V7.127H3.362V4.774Zm10.086-3.5V3.631h2.353V1.278Zm-3.362,0V3.631h2.353V1.278Zm-3.362,0V3.631H6.724V1.278Zm-3.362,0V3.631H3.362V1.278Z" transform="translate(2.152 1.815)" fill="#356dd0" opacity="0.3"/>
          <rect id="Rectángulo_126-5" data-name="Rectángulo 126" width="15.465" height="1.95" rx="0.975" transform="translate(1.681 0)" fill="#ffc4dd" opacity="0.3"/>
        </g>
      </g>
    </g>
    <g id="Grupo_558" data-name="Grupo 558">
      <g id="Grupo_557" data-name="Grupo 557" transform="translate(113 298.555)">
        <g id="Grupo_531-6" data-name="Grupo 531" transform="translate(0)">
          <rect id="Rectángulo_125-6" data-name="Rectángulo 125" width="15.465" height="3.698" rx="1" transform="translate(1.681 13.314)" fill="#ffc4dd"/>
          <path id="iconfinder_Untitled-1-18_2419684-6" data-name="iconfinder_Untitled-1-18_2419684" d="M37.406,29.265V9.969L36.325,8.887V6.3H21.863V8.887L20.781,9.969v19.3H19.7v1.081H38.488V29.265ZM33.4,7a.763.763,0,1,1-.763.763A.774.774,0,0,1,33.4,7ZM31.257,7a.763.763,0,1,1-.763.763A.76.76,0,0,1,31.257,7ZM29.094,7a.76.76,0,0,1,.763.763.743.743,0,0,1-.763.742.753.753,0,1,1,0-1.506ZM26.931,7a.763.763,0,1,1-.763.763A.774.774,0,0,1,26.931,7ZM24.789,7a.763.763,0,1,1-.763.763A.76.76,0,0,1,24.789,7Zm7.549,9.224v2.163H30.175V16.224Zm-2.163-1.7V12.365h2.163v2.163Zm.042,5.535h2.163v2.163H30.218Zm6.107-5.7v2.163H34.183V14.358Zm-2.142-1.166V11.05h2.163v2.163H34.183Zm2.142,4.389v2.163H34.183V17.581Zm0,3.138v2.163H34.183V20.72Zm0,3.244v2.163H34.183V23.964Zm-10.454-5.6V16.224h2.163v2.163l-2.163-.021Zm2.057,1.7v2.163H25.786V20.062Zm-2.057-5.535V12.365h2.163v2.163ZM21.863,11.05H24v2.163H21.863Zm0,3.308H24v2.163H21.863Zm0,3.223H24v2.163H21.863Zm0,3.075H24v2.163H21.863Zm0,3.244H24v2.163H21.863Zm5.089.912h4.3v4.453h-4.3Z" transform="translate(-19.7 10.698)" fill="#356dd0"/>
          <path id="Trazado_580-6" data-name="Trazado 580" d="M-69.713-28.758a.174.174,0,0,0,.176-.179v-.633h.943v.633a.19.19,0,0,0,.2.179.177.177,0,0,0,.179-.179v-1.642a.175.175,0,0,0-.179-.179.188.188,0,0,0-.2.179v.63h-.943v-.63a.172.172,0,0,0-.176-.179.181.181,0,0,0-.205.179v1.642A.183.183,0,0,0-69.713-28.758Zm3.95-1.012A1.042,1.042,0,0,0-66.8-30.831a1.037,1.037,0,0,0-1.09,1.061,1.009,1.009,0,0,0,1.09,1.041A1.008,1.008,0,0,0-65.763-29.77Zm-.379,0a.668.668,0,0,1-.688.685.664.664,0,0,1-.677-.685.662.662,0,0,1,.677-.685A.666.666,0,0,1-66.142-29.77Zm1.275.833a.191.191,0,0,0,.382,0V-30.4h.48a.185.185,0,1,0,0-.37h-1.368a.185.185,0,1,0,0,.37h.506Zm2.594.179a.19.19,0,1,0,0-.379h-.882v-.434h.729a.189.189,0,1,0,0-.379h-.729v-.434h.833a.188.188,0,1,0,0-.376h-1.038a.175.175,0,0,0-.179.179v1.642a.177.177,0,0,0,.179.179Zm.515-.176a.175.175,0,0,0,.182.176h.957a.191.191,0,1,0,0-.379h-.786v-1.449a.176.176,0,0,0-.171-.176.18.18,0,0,0-.182.176Z" transform="translate(74.63 45.03)"/>
          <path id="Sustracción_3-6" data-name="Sustracción 3" d="M14.457,11.5H0V0H14.457V11.5ZM11.095,8.271v2.353h2.353V8.271Zm-3.362,0v2.353h2.353V8.271Zm-3.362,0v2.353H6.724V8.271Zm-3.362,0v2.353H3.362V8.271Zm10.086-3.5V7.127h2.353V4.774Zm-3.362,0V7.127h2.353V4.774Zm-3.362,0V7.127H6.724V4.774Zm-3.362,0V7.127H3.362V4.774Zm10.086-3.5V3.631h2.353V1.278Zm-3.362,0V3.631h2.353V1.278Zm-3.362,0V3.631H6.724V1.278Zm-3.362,0V3.631H3.362V1.278Z" transform="translate(2.152 1.815)" fill="#356dd0" opacity="0.3"/>
          <rect id="Rectángulo_126-6" data-name="Rectángulo 126" width="15.465" height="1.95" rx="0.975" transform="translate(1.681 0)" fill="#ffc4dd" opacity="0.3"/>
        </g>
      </g>
      <path id="Trazado_603" data-name="Trazado 603" d="M-644.48,7915.72l3.658-3.435-3.658,5.885,5.966-5.885-5.966,8.348,8.3-8.348-8.3,9.768,10.009-9.768-9.391,11.164,10.686-11.164-9.592,11.938,10.967-11.937-8.327,11.938,9.3-11.493-7.684,11.493,8.649-11.493-7.4,11.493,8.026-10.514-6.413,10.514,6.413-8.5-5.468,8.5,5.468-7.369-4.427,7.369,4.184-5.819-3.228,5.819,3.472-4.622-2.557,4.622,2.557-3.258-1.8,3.258,1.8-2.17-.837,2.17.837-.773" transform="translate(759.287 -7613.001)" fill="none" stroke="#000" stroke-width="0.5"/>
    </g>
    <g id="Grupo_559" data-name="Grupo 559" transform="translate(37)">
      <g id="Grupo_557-2" data-name="Grupo 557" transform="translate(113 298.555)">
        <g id="Grupo_531-7" data-name="Grupo 531" transform="translate(0)">
          <rect id="Rectángulo_125-7" data-name="Rectángulo 125" width="15.465" height="3.698" rx="1" transform="translate(1.681 13.314)" fill="#ffc4dd"/>
          <path id="iconfinder_Untitled-1-18_2419684-7" data-name="iconfinder_Untitled-1-18_2419684" d="M37.406,29.265V9.969L36.325,8.887V6.3H21.863V8.887L20.781,9.969v19.3H19.7v1.081H38.488V29.265ZM33.4,7a.763.763,0,1,1-.763.763A.774.774,0,0,1,33.4,7ZM31.257,7a.763.763,0,1,1-.763.763A.76.76,0,0,1,31.257,7ZM29.094,7a.76.76,0,0,1,.763.763.743.743,0,0,1-.763.742.753.753,0,1,1,0-1.506ZM26.931,7a.763.763,0,1,1-.763.763A.774.774,0,0,1,26.931,7ZM24.789,7a.763.763,0,1,1-.763.763A.76.76,0,0,1,24.789,7Zm7.549,9.224v2.163H30.175V16.224Zm-2.163-1.7V12.365h2.163v2.163Zm.042,5.535h2.163v2.163H30.218Zm6.107-5.7v2.163H34.183V14.358Zm-2.142-1.166V11.05h2.163v2.163H34.183Zm2.142,4.389v2.163H34.183V17.581Zm0,3.138v2.163H34.183V20.72Zm0,3.244v2.163H34.183V23.964Zm-10.454-5.6V16.224h2.163v2.163l-2.163-.021Zm2.057,1.7v2.163H25.786V20.062Zm-2.057-5.535V12.365h2.163v2.163ZM21.863,11.05H24v2.163H21.863Zm0,3.308H24v2.163H21.863Zm0,3.223H24v2.163H21.863Zm0,3.075H24v2.163H21.863Zm0,3.244H24v2.163H21.863Zm5.089.912h4.3v4.453h-4.3Z" transform="translate(-19.7 10.698)" fill="#356dd0"/>
          <path id="Trazado_580-7" data-name="Trazado 580" d="M-69.713-28.758a.174.174,0,0,0,.176-.179v-.633h.943v.633a.19.19,0,0,0,.2.179.177.177,0,0,0,.179-.179v-1.642a.175.175,0,0,0-.179-.179.188.188,0,0,0-.2.179v.63h-.943v-.63a.172.172,0,0,0-.176-.179.181.181,0,0,0-.205.179v1.642A.183.183,0,0,0-69.713-28.758Zm3.95-1.012A1.042,1.042,0,0,0-66.8-30.831a1.037,1.037,0,0,0-1.09,1.061,1.009,1.009,0,0,0,1.09,1.041A1.008,1.008,0,0,0-65.763-29.77Zm-.379,0a.668.668,0,0,1-.688.685.664.664,0,0,1-.677-.685.662.662,0,0,1,.677-.685A.666.666,0,0,1-66.142-29.77Zm1.275.833a.191.191,0,0,0,.382,0V-30.4h.48a.185.185,0,1,0,0-.37h-1.368a.185.185,0,1,0,0,.37h.506Zm2.594.179a.19.19,0,1,0,0-.379h-.882v-.434h.729a.189.189,0,1,0,0-.379h-.729v-.434h.833a.188.188,0,1,0,0-.376h-1.038a.175.175,0,0,0-.179.179v1.642a.177.177,0,0,0,.179.179Zm.515-.176a.175.175,0,0,0,.182.176h.957a.191.191,0,1,0,0-.379h-.786v-1.449a.176.176,0,0,0-.171-.176.18.18,0,0,0-.182.176Z" transform="translate(74.63 45.03)"/>
          <path id="Sustracción_3-7" data-name="Sustracción 3" d="M14.457,11.5H0V0H14.457V11.5ZM11.095,8.271v2.353h2.353V8.271Zm-3.362,0v2.353h2.353V8.271Zm-3.362,0v2.353H6.724V8.271Zm-3.362,0v2.353H3.362V8.271Zm10.086-3.5V7.127h2.353V4.774Zm-3.362,0V7.127h2.353V4.774Zm-3.362,0V7.127H6.724V4.774Zm-3.362,0V7.127H3.362V4.774Zm10.086-3.5V3.631h2.353V1.278Zm-3.362,0V3.631h2.353V1.278Zm-3.362,0V3.631H6.724V1.278Zm-3.362,0V3.631H3.362V1.278Z" transform="translate(2.152 1.815)" fill="#356dd0" opacity="0.3"/>
          <rect id="Rectángulo_126-7" data-name="Rectángulo 126" width="15.465" height="1.95" rx="0.975" transform="translate(1.681 0)" fill="#ffc4dd" opacity="0.3"/>
        </g>
      </g>
      <path id="Trazado_603-2" data-name="Trazado 603" d="M-644.48,7915.72l3.658-3.435-3.658,5.885,5.966-5.885-5.966,8.348,8.3-8.348-8.3,9.768,10.009-9.768-9.391,11.164,10.686-11.164-9.592,11.938,10.967-11.937-8.327,11.938,9.3-11.493-7.684,11.493,8.649-11.493-7.4,11.493,8.026-10.514-6.413,10.514,6.413-8.5-5.468,8.5,5.468-7.369-4.427,7.369,4.184-5.819-3.228,5.819,3.472-4.622-2.557,4.622,2.557-3.258-1.8,3.258,1.8-2.17-.837,2.17.837-.773" transform="translate(759.287 -7613.001)" fill="none" stroke="#000" stroke-width="0.5"/>
    </g>
    <g id="Grupo_560" data-name="Grupo 560" transform="translate(72)">
      <g id="Grupo_557-3" data-name="Grupo 557" transform="translate(113 298.555)">
        <g id="Grupo_531-8" data-name="Grupo 531" transform="translate(0)">
          <rect id="Rectángulo_125-8" data-name="Rectángulo 125" width="15.465" height="3.698" rx="1" transform="translate(1.681 13.314)" fill="#ffc4dd"/>
          <path id="iconfinder_Untitled-1-18_2419684-8" data-name="iconfinder_Untitled-1-18_2419684" d="M37.406,29.265V9.969L36.325,8.887V6.3H21.863V8.887L20.781,9.969v19.3H19.7v1.081H38.488V29.265ZM33.4,7a.763.763,0,1,1-.763.763A.774.774,0,0,1,33.4,7ZM31.257,7a.763.763,0,1,1-.763.763A.76.76,0,0,1,31.257,7ZM29.094,7a.76.76,0,0,1,.763.763.743.743,0,0,1-.763.742.753.753,0,1,1,0-1.506ZM26.931,7a.763.763,0,1,1-.763.763A.774.774,0,0,1,26.931,7ZM24.789,7a.763.763,0,1,1-.763.763A.76.76,0,0,1,24.789,7Zm7.549,9.224v2.163H30.175V16.224Zm-2.163-1.7V12.365h2.163v2.163Zm.042,5.535h2.163v2.163H30.218Zm6.107-5.7v2.163H34.183V14.358Zm-2.142-1.166V11.05h2.163v2.163H34.183Zm2.142,4.389v2.163H34.183V17.581Zm0,3.138v2.163H34.183V20.72Zm0,3.244v2.163H34.183V23.964Zm-10.454-5.6V16.224h2.163v2.163l-2.163-.021Zm2.057,1.7v2.163H25.786V20.062Zm-2.057-5.535V12.365h2.163v2.163ZM21.863,11.05H24v2.163H21.863Zm0,3.308H24v2.163H21.863Zm0,3.223H24v2.163H21.863Zm0,3.075H24v2.163H21.863Zm0,3.244H24v2.163H21.863Zm5.089.912h4.3v4.453h-4.3Z" transform="translate(-19.7 10.698)" fill="#356dd0"/>
          <path id="Trazado_580-8" data-name="Trazado 580" d="M-69.713-28.758a.174.174,0,0,0,.176-.179v-.633h.943v.633a.19.19,0,0,0,.2.179.177.177,0,0,0,.179-.179v-1.642a.175.175,0,0,0-.179-.179.188.188,0,0,0-.2.179v.63h-.943v-.63a.172.172,0,0,0-.176-.179.181.181,0,0,0-.205.179v1.642A.183.183,0,0,0-69.713-28.758Zm3.95-1.012A1.042,1.042,0,0,0-66.8-30.831a1.037,1.037,0,0,0-1.09,1.061,1.009,1.009,0,0,0,1.09,1.041A1.008,1.008,0,0,0-65.763-29.77Zm-.379,0a.668.668,0,0,1-.688.685.664.664,0,0,1-.677-.685.662.662,0,0,1,.677-.685A.666.666,0,0,1-66.142-29.77Zm1.275.833a.191.191,0,0,0,.382,0V-30.4h.48a.185.185,0,1,0,0-.37h-1.368a.185.185,0,1,0,0,.37h.506Zm2.594.179a.19.19,0,1,0,0-.379h-.882v-.434h.729a.189.189,0,1,0,0-.379h-.729v-.434h.833a.188.188,0,1,0,0-.376h-1.038a.175.175,0,0,0-.179.179v1.642a.177.177,0,0,0,.179.179Zm.515-.176a.175.175,0,0,0,.182.176h.957a.191.191,0,1,0,0-.379h-.786v-1.449a.176.176,0,0,0-.171-.176.18.18,0,0,0-.182.176Z" transform="translate(74.63 45.03)"/>
          <path id="Sustracción_3-8" data-name="Sustracción 3" d="M14.457,11.5H0V0H14.457V11.5ZM11.095,8.271v2.353h2.353V8.271Zm-3.362,0v2.353h2.353V8.271Zm-3.362,0v2.353H6.724V8.271Zm-3.362,0v2.353H3.362V8.271Zm10.086-3.5V7.127h2.353V4.774Zm-3.362,0V7.127h2.353V4.774Zm-3.362,0V7.127H6.724V4.774Zm-3.362,0V7.127H3.362V4.774Zm10.086-3.5V3.631h2.353V1.278Zm-3.362,0V3.631h2.353V1.278Zm-3.362,0V3.631H6.724V1.278Zm-3.362,0V3.631H3.362V1.278Z" transform="translate(2.152 1.815)" fill="#356dd0" opacity="0.3"/>
          <rect id="Rectángulo_126-8" data-name="Rectángulo 126" width="15.465" height="1.95" rx="0.975" transform="translate(1.681 0)" fill="#ffc4dd" opacity="0.3"/>
        </g>
      </g>
      <path id="Trazado_603-3" data-name="Trazado 603" d="M-644.48,7915.72l3.658-3.435-3.658,5.885,5.966-5.885-5.966,8.348,8.3-8.348-8.3,9.768,10.009-9.768-9.391,11.164,10.686-11.164-9.592,11.938,10.967-11.937-8.327,11.938,9.3-11.493-7.684,11.493,8.649-11.493-7.4,11.493,8.026-10.514-6.413,10.514,6.413-8.5-5.468,8.5,5.468-7.369-4.427,7.369,4.184-5.819-3.228,5.819,3.472-4.622-2.557,4.622,2.557-3.258-1.8,3.258,1.8-2.17-.837,2.17.837-.773" transform="translate(759.287 -7613.001)" fill="none" stroke="#000" stroke-width="0.5"/>
    </g>
    <g id="Grupo_561" data-name="Grupo 561" transform="translate(108)">
      <g id="Grupo_557-4" data-name="Grupo 557" transform="translate(113 298.555)">
        <g id="Grupo_531-9" data-name="Grupo 531" transform="translate(0)">
          <rect id="Rectángulo_125-9" data-name="Rectángulo 125" width="15.465" height="3.698" rx="1" transform="translate(1.681 13.314)" fill="#ffc4dd"/>
          <path id="iconfinder_Untitled-1-18_2419684-9" data-name="iconfinder_Untitled-1-18_2419684" d="M37.406,29.265V9.969L36.325,8.887V6.3H21.863V8.887L20.781,9.969v19.3H19.7v1.081H38.488V29.265ZM33.4,7a.763.763,0,1,1-.763.763A.774.774,0,0,1,33.4,7ZM31.257,7a.763.763,0,1,1-.763.763A.76.76,0,0,1,31.257,7ZM29.094,7a.76.76,0,0,1,.763.763.743.743,0,0,1-.763.742.753.753,0,1,1,0-1.506ZM26.931,7a.763.763,0,1,1-.763.763A.774.774,0,0,1,26.931,7ZM24.789,7a.763.763,0,1,1-.763.763A.76.76,0,0,1,24.789,7Zm7.549,9.224v2.163H30.175V16.224Zm-2.163-1.7V12.365h2.163v2.163Zm.042,5.535h2.163v2.163H30.218Zm6.107-5.7v2.163H34.183V14.358Zm-2.142-1.166V11.05h2.163v2.163H34.183Zm2.142,4.389v2.163H34.183V17.581Zm0,3.138v2.163H34.183V20.72Zm0,3.244v2.163H34.183V23.964Zm-10.454-5.6V16.224h2.163v2.163l-2.163-.021Zm2.057,1.7v2.163H25.786V20.062Zm-2.057-5.535V12.365h2.163v2.163ZM21.863,11.05H24v2.163H21.863Zm0,3.308H24v2.163H21.863Zm0,3.223H24v2.163H21.863Zm0,3.075H24v2.163H21.863Zm0,3.244H24v2.163H21.863Zm5.089.912h4.3v4.453h-4.3Z" transform="translate(-19.7 10.698)" fill="#356dd0"/>
          <path id="Trazado_580-9" data-name="Trazado 580" d="M-69.713-28.758a.174.174,0,0,0,.176-.179v-.633h.943v.633a.19.19,0,0,0,.2.179.177.177,0,0,0,.179-.179v-1.642a.175.175,0,0,0-.179-.179.188.188,0,0,0-.2.179v.63h-.943v-.63a.172.172,0,0,0-.176-.179.181.181,0,0,0-.205.179v1.642A.183.183,0,0,0-69.713-28.758Zm3.95-1.012A1.042,1.042,0,0,0-66.8-30.831a1.037,1.037,0,0,0-1.09,1.061,1.009,1.009,0,0,0,1.09,1.041A1.008,1.008,0,0,0-65.763-29.77Zm-.379,0a.668.668,0,0,1-.688.685.664.664,0,0,1-.677-.685.662.662,0,0,1,.677-.685A.666.666,0,0,1-66.142-29.77Zm1.275.833a.191.191,0,0,0,.382,0V-30.4h.48a.185.185,0,1,0,0-.37h-1.368a.185.185,0,1,0,0,.37h.506Zm2.594.179a.19.19,0,1,0,0-.379h-.882v-.434h.729a.189.189,0,1,0,0-.379h-.729v-.434h.833a.188.188,0,1,0,0-.376h-1.038a.175.175,0,0,0-.179.179v1.642a.177.177,0,0,0,.179.179Zm.515-.176a.175.175,0,0,0,.182.176h.957a.191.191,0,1,0,0-.379h-.786v-1.449a.176.176,0,0,0-.171-.176.18.18,0,0,0-.182.176Z" transform="translate(74.63 45.03)"/>
          <path id="Sustracción_3-9" data-name="Sustracción 3" d="M14.457,11.5H0V0H14.457V11.5ZM11.095,8.271v2.353h2.353V8.271Zm-3.362,0v2.353h2.353V8.271Zm-3.362,0v2.353H6.724V8.271Zm-3.362,0v2.353H3.362V8.271Zm10.086-3.5V7.127h2.353V4.774Zm-3.362,0V7.127h2.353V4.774Zm-3.362,0V7.127H6.724V4.774Zm-3.362,0V7.127H3.362V4.774Zm10.086-3.5V3.631h2.353V1.278Zm-3.362,0V3.631h2.353V1.278Zm-3.362,0V3.631H6.724V1.278Zm-3.362,0V3.631H3.362V1.278Z" transform="translate(2.152 1.815)" fill="#356dd0" opacity="0.3"/>
          <rect id="Rectángulo_126-9" data-name="Rectángulo 126" width="15.465" height="1.95" rx="0.975" transform="translate(1.681 0)" fill="#ffc4dd" opacity="0.3"/>
        </g>
      </g>
      <path id="Trazado_603-4" data-name="Trazado 603" d="M-644.48,7915.72l3.658-3.435-3.658,5.885,5.966-5.885-5.966,8.348,8.3-8.348-8.3,9.768,10.009-9.768-9.391,11.164,10.686-11.164-9.592,11.938,10.967-11.937-8.327,11.938,9.3-11.493-7.684,11.493,8.649-11.493-7.4,11.493,8.026-10.514-6.413,10.514,6.413-8.5-5.468,8.5,5.468-7.369-4.427,7.369,4.184-5.819-3.228,5.819,3.472-4.622-2.557,4.622,2.557-3.258-1.8,3.258,1.8-2.17-.837,2.17.837-.773" transform="translate(759.287 -7613.001)" fill="none" stroke="#000" stroke-width="0.5"/>
    </g>
    <line id="Línea_30" data-name="Línea 30" y1="4" x2="17" transform="translate(113.5 292.564)" fill="none" stroke="#707070" stroke-width="1"/>
    <g id="Grupo_562" data-name="Grupo 562" transform="translate(72)">
      <g id="Grupo_557-5" data-name="Grupo 557" transform="translate(113 298.555)">
        <g id="Grupo_531-10" data-name="Grupo 531" transform="translate(0)">
          <rect id="Rectángulo_125-10" data-name="Rectángulo 125" width="15.465" height="3.698" rx="1" transform="translate(1.681 13.314)" fill="#ffc4dd"/>
          <path id="iconfinder_Untitled-1-18_2419684-10" data-name="iconfinder_Untitled-1-18_2419684" d="M37.406,29.265V9.969L36.325,8.887V6.3H21.863V8.887L20.781,9.969v19.3H19.7v1.081H38.488V29.265ZM33.4,7a.763.763,0,1,1-.763.763A.774.774,0,0,1,33.4,7ZM31.257,7a.763.763,0,1,1-.763.763A.76.76,0,0,1,31.257,7ZM29.094,7a.76.76,0,0,1,.763.763.743.743,0,0,1-.763.742.753.753,0,1,1,0-1.506ZM26.931,7a.763.763,0,1,1-.763.763A.774.774,0,0,1,26.931,7ZM24.789,7a.763.763,0,1,1-.763.763A.76.76,0,0,1,24.789,7Zm7.549,9.224v2.163H30.175V16.224Zm-2.163-1.7V12.365h2.163v2.163Zm.042,5.535h2.163v2.163H30.218Zm6.107-5.7v2.163H34.183V14.358Zm-2.142-1.166V11.05h2.163v2.163H34.183Zm2.142,4.389v2.163H34.183V17.581Zm0,3.138v2.163H34.183V20.72Zm0,3.244v2.163H34.183V23.964Zm-10.454-5.6V16.224h2.163v2.163l-2.163-.021Zm2.057,1.7v2.163H25.786V20.062Zm-2.057-5.535V12.365h2.163v2.163ZM21.863,11.05H24v2.163H21.863Zm0,3.308H24v2.163H21.863Zm0,3.223H24v2.163H21.863Zm0,3.075H24v2.163H21.863Zm0,3.244H24v2.163H21.863Zm5.089.912h4.3v4.453h-4.3Z" transform="translate(-19.7 10.698)" fill="#356dd0"/>
          <path id="Trazado_580-10" data-name="Trazado 580" d="M-69.713-28.758a.174.174,0,0,0,.176-.179v-.633h.943v.633a.19.19,0,0,0,.2.179.177.177,0,0,0,.179-.179v-1.642a.175.175,0,0,0-.179-.179.188.188,0,0,0-.2.179v.63h-.943v-.63a.172.172,0,0,0-.176-.179.181.181,0,0,0-.205.179v1.642A.183.183,0,0,0-69.713-28.758Zm3.95-1.012A1.042,1.042,0,0,0-66.8-30.831a1.037,1.037,0,0,0-1.09,1.061,1.009,1.009,0,0,0,1.09,1.041A1.008,1.008,0,0,0-65.763-29.77Zm-.379,0a.668.668,0,0,1-.688.685.664.664,0,0,1-.677-.685.662.662,0,0,1,.677-.685A.666.666,0,0,1-66.142-29.77Zm1.275.833a.191.191,0,0,0,.382,0V-30.4h.48a.185.185,0,1,0,0-.37h-1.368a.185.185,0,1,0,0,.37h.506Zm2.594.179a.19.19,0,1,0,0-.379h-.882v-.434h.729a.189.189,0,1,0,0-.379h-.729v-.434h.833a.188.188,0,1,0,0-.376h-1.038a.175.175,0,0,0-.179.179v1.642a.177.177,0,0,0,.179.179Zm.515-.176a.175.175,0,0,0,.182.176h.957a.191.191,0,1,0,0-.379h-.786v-1.449a.176.176,0,0,0-.171-.176.18.18,0,0,0-.182.176Z" transform="translate(74.63 45.03)"/>
          <path id="Sustracción_3-10" data-name="Sustracción 3" d="M14.457,11.5H0V0H14.457V11.5ZM11.095,8.271v2.353h2.353V8.271Zm-3.362,0v2.353h2.353V8.271Zm-3.362,0v2.353H6.724V8.271Zm-3.362,0v2.353H3.362V8.271Zm10.086-3.5V7.127h2.353V4.774Zm-3.362,0V7.127h2.353V4.774Zm-3.362,0V7.127H6.724V4.774Zm-3.362,0V7.127H3.362V4.774Zm10.086-3.5V3.631h2.353V1.278Zm-3.362,0V3.631h2.353V1.278Zm-3.362,0V3.631H6.724V1.278Zm-3.362,0V3.631H3.362V1.278Z" transform="translate(2.152 1.815)" fill="#356dd0" opacity="0.3"/>
          <rect id="Rectángulo_126-10" data-name="Rectángulo 126" width="15.465" height="1.95" rx="0.975" transform="translate(1.681 0)" fill="#ffc4dd" opacity="0.3"/>
        </g>
      </g>
      <path id="Trazado_603-5" data-name="Trazado 603" d="M-644.48,7915.72l3.658-3.435-3.658,5.885,5.966-5.885-5.966,8.348,8.3-8.348-8.3,9.768,10.009-9.768-9.391,11.164,10.686-11.164-9.592,11.938,10.967-11.937-8.327,11.938,9.3-11.493-7.684,11.493,8.649-11.493-7.4,11.493,8.026-10.514-6.413,10.514,6.413-8.5-5.468,8.5,5.468-7.369-4.427,7.369,4.184-5.819-3.228,5.819,3.472-4.622-2.557,4.622,2.557-3.258-1.8,3.258,1.8-2.17-.837,2.17.837-.773" transform="translate(759.287 -7613.001)" fill="none" stroke="#000" stroke-width="0.5"/>
    </g>
    <line id="Línea_31" data-name="Línea 31" y1="4" x2="17" transform="translate(150 292.564)" fill="none" stroke="#707070" stroke-width="1"/>
    <line id="Línea_32" data-name="Línea 32" y1="4" x2="17" transform="translate(186.5 292.564)" fill="none" stroke="#707070" stroke-width="1"/>
    <line id="Línea_33" data-name="Línea 33" y1="4" x2="17" transform="translate(221.894 292.564)" fill="none" stroke="#707070" stroke-width="1"/>
    <g id="Grupo_592" data-name="Grupo 592" transform="translate(-3.492 0.156)">
      <g id="Grupo_537" data-name="Grupo 537">
        <path id="iconfinder_octagon_3325011" d="M20.341,2H46.255L64.6,20.341V46.255L46.255,64.6H20.341L2,46.255V20.341Z" transform="translate(110.492 374.908)" fill="#fff" stroke="#f0f0f0" stroke-linecap="round" stroke-linejoin="round" stroke-width="2"/>
        <path id="Trazado_660" data-name="Trazado 660" d="M-11.7,0a2.783,2.783,0,0,1-2.024-.77,2.561,2.561,0,0,1-.792-1.914V-24.86l.616.968-3.344,2.024a2.691,2.691,0,0,1-1.408.4,2.4,2.4,0,0,1-1.892-.858,2.739,2.739,0,0,1-.748-1.826,2.506,2.506,0,0,1,1.364-2.288l6.644-3.96a4.02,4.02,0,0,1,1.892-.4,2.455,2.455,0,0,1,1.87.77A2.682,2.682,0,0,1-8.8-28.116V-2.684A2.527,2.527,0,0,1-9.614-.77,2.918,2.918,0,0,1-11.7,0ZM8.008.44a10.228,10.228,0,0,1-6.4-2A12.355,12.355,0,0,1-2.376-7.15,23.11,23.11,0,0,1-3.74-15.4a23.066,23.066,0,0,1,1.364-8.272,12.365,12.365,0,0,1,3.982-5.566,10.228,10.228,0,0,1,6.4-2,10.228,10.228,0,0,1,6.4,2,12.365,12.365,0,0,1,3.982,5.566A23.066,23.066,0,0,1,19.756-15.4a23.11,23.11,0,0,1-1.364,8.25A12.355,12.355,0,0,1,14.41-1.562,10.228,10.228,0,0,1,8.008.44Zm0-5.28A4.7,4.7,0,0,0,11.2-6.006a7.584,7.584,0,0,0,2.09-3.52,19.668,19.668,0,0,0,.748-5.874,19.624,19.624,0,0,0-.748-5.9,7.579,7.579,0,0,0-2.09-3.5,4.7,4.7,0,0,0-3.19-1.166A4.728,4.728,0,0,0,4.84-24.794a7.48,7.48,0,0,0-2.112,3.5,19.624,19.624,0,0,0-.748,5.9,19.668,19.668,0,0,0,.748,5.874A7.485,7.485,0,0,0,4.84-6.006,4.728,4.728,0,0,0,8.008-4.84Z" transform="translate(144.788 423.149)" fill="#f0f0f0"/>
      </g>
      <g id="Grupo_538" data-name="Grupo 538">
        <path id="iconfinder_octagon_3325011-2" data-name="iconfinder_octagon_3325011" d="M20.341,2H46.255L64.6,20.341V46.255L46.255,64.6H20.341L2,46.255V20.341Z" transform="translate(182.492 374.908)" fill="#f3bed5"/>
        <path id="Trazado_661" data-name="Trazado 661" d="M.044.44a9.2,9.2,0,0,1-4.29-.99A9.815,9.815,0,0,1-7.5-3.256,12.927,12.927,0,0,1-9.57-7.128a13.833,13.833,0,0,1-.726-4.444,23.928,23.928,0,0,1,.33-3.608A24.362,24.362,0,0,1-8.8-19.624a20.141,20.141,0,0,1,2.332-4.532,17.017,17.017,0,0,1,3.806-3.96A16.456,16.456,0,0,1,2.992-30.8,4.172,4.172,0,0,1,4-30.932,3.283,3.283,0,0,1,5.83-30.4a2.132,2.132,0,0,1,.814,1.936,2.486,2.486,0,0,1-.638,1.694A3.5,3.5,0,0,1,4.312-25.74a13.448,13.448,0,0,0-2.97,1.3,13.764,13.764,0,0,0-2.728,2.09,13.026,13.026,0,0,0-2.156,2.794,11.707,11.707,0,0,0-1.3,3.366l-1.188-.044A18.4,18.4,0,0,1-4.51-17.842a8.785,8.785,0,0,1,2.2-1.5,6.859,6.859,0,0,1,3.058-.638,7.985,7.985,0,0,1,3.41.792,10.816,10.816,0,0,1,3.08,2.178A10.775,10.775,0,0,1,9.46-13.75,9.646,9.646,0,0,1,10.3-9.768,9.888,9.888,0,0,1,8.91-4.62a10.378,10.378,0,0,1-3.7,3.7A9.976,9.976,0,0,1,.044.44Zm0-4.84a4.661,4.661,0,0,0,2.53-.7A5.049,5.049,0,0,0,4.356-7.04a5.684,5.684,0,0,0,.66-2.728,5.649,5.649,0,0,0-.66-2.75,5.092,5.092,0,0,0-1.782-1.914,4.661,4.661,0,0,0-2.53-.7,4.661,4.661,0,0,0-2.53.7,5.092,5.092,0,0,0-1.782,1.914,5.649,5.649,0,0,0-.66,2.75,5.684,5.684,0,0,0,.66,2.728A5.049,5.049,0,0,0-2.486-5.1,4.661,4.661,0,0,0,.044-4.4Z" transform="translate(215.788 422.84)" fill="#c73d61"/>
      </g>
    </g>
    <g id="Unión_27" data-name="Unión 27" transform="translate(95 313.064)" fill="#fff">
      <path d="M 163.4998016357422 41.50030136108398 L 160.0001983642578 41.50030136108398 L 147.9996032714844 41.50030136108398 L 124.0002136230469 41.50030136108398 L 111.9996109008789 41.50030136108398 L 88.00019073486328 41.50030136108398 L 75.99961090087891 41.50030136108398 L 52.00021362304688 41.50030136108398 L 39.99961090087891 41.50030136108398 L 16.00019264221191 41.50030136108398 L 3.999609231948853 41.50030136108398 L 0.5000050067901611 41.50030136108398 L 0.5000050067901611 30.49969482421875 L 3.999609231948853 30.49969482421875 L 4.499608993530273 30.49969482421875 L 4.499608993530273 29.99969482421875 L 4.499608993530273 -42.50020217895508 L 15.50019264221191 -42.50020217895508 L 15.50019264221191 29.99969482421875 L 15.50019264221191 30.49969482421875 L 16.00019264221191 30.49969482421875 L 39.99961090087891 30.49969482421875 L 40.49961090087891 30.49969482421875 L 40.49961090087891 29.99969482421875 L 40.49961090087891 -42.50020217895508 L 51.50021362304688 -42.50020217895508 L 51.50021362304688 29.99969482421875 L 51.50021362304688 30.49969482421875 L 52.00021362304688 30.49969482421875 L 75.99961090087891 30.49969482421875 L 76.49961090087891 30.49969482421875 L 76.49961090087891 29.99969482421875 L 76.49961090087891 -42.50020217895508 L 87.50019073486328 -42.50020217895508 L 87.50019073486328 29.99969482421875 L 87.50019073486328 30.49969482421875 L 88.00019073486328 30.49969482421875 L 111.9996109008789 30.49969482421875 L 112.4996109008789 30.49969482421875 L 112.4996109008789 29.99969482421875 L 112.4996109008789 -42.50020217895508 L 123.5002136230469 -42.50020217895508 L 123.5002136230469 29.99969482421875 L 123.5002136230469 30.49969482421875 L 124.0002136230469 30.49969482421875 L 147.9996032714844 30.49969482421875 L 148.4996032714844 30.49969482421875 L 148.4996032714844 29.99969482421875 L 148.4996032714844 -42.50020217895508 L 159.5001983642578 -42.50020217895508 L 159.5001983642578 29.99969482421875 L 159.5001983642578 30.49969482421875 L 160.0001983642578 30.49969482421875 L 163.4998016357422 30.49969482421875 L 163.4998016357422 41.50030136108398 Z" stroke="none"/>
      <path d="M 162.9998016357422 41.00030136108398 L 162.9998016357422 30.99969482421875 L 160.0001983642578 30.99969482421875 L 159.0001983642578 30.99969482421875 L 159.0001983642578 29.99969482421875 L 159.0001983642578 -42.00020217895508 L 148.9996032714844 -42.00020217895508 L 148.9996032714844 29.99969482421875 L 148.9996032714844 30.99969482421875 L 147.9996032714844 30.99969482421875 L 124.0002136230469 30.99969482421875 L 123.0002136230469 30.99969482421875 L 123.0002136230469 29.99969482421875 L 123.0002136230469 -42.00020217895508 L 112.9996109008789 -42.00020217895508 L 112.9996109008789 29.99969482421875 L 112.9996109008789 30.99969482421875 L 111.9996109008789 30.99969482421875 L 88.00019073486328 30.99969482421875 L 87.00019073486328 30.99969482421875 L 87.00019073486328 29.99969482421875 L 87.00019073486328 -42.00020217895508 L 76.99961090087891 -42.00020217895508 L 76.99961090087891 29.99969482421875 L 76.99961090087891 30.99969482421875 L 75.99961090087891 30.99969482421875 L 52.00021362304688 30.99969482421875 L 51.00021362304688 30.99969482421875 L 51.00021362304688 29.99969482421875 L 51.00021362304688 -42.00020217895508 L 40.99961090087891 -42.00020217895508 L 40.99961090087891 29.99969482421875 L 40.99961090087891 30.99969482421875 L 39.99961090087891 30.99969482421875 L 16.00019264221191 30.99969482421875 L 15.00019264221191 30.99969482421875 L 15.00019264221191 29.99969482421875 L 15.00019264221191 -42.00020217895508 L 4.999608993530273 -42.00020217895508 L 4.999608993530273 29.99969482421875 L 4.999608993530273 30.99969482421875 L 3.999609231948853 30.99969482421875 L 1.000005006790161 30.99969482421875 L 1.000005006790161 41.00030136108398 L 3.999609231948853 41.00030136108398 L 16.00019264221191 41.00030136108398 L 39.99961090087891 41.00030136108398 L 52.00021362304688 41.00030136108398 L 75.99961090087891 41.00030136108398 L 88.00019073486328 41.00030136108398 L 111.9996109008789 41.00030136108398 L 124.0002136230469 41.00030136108398 L 147.9996032714844 41.00030136108398 L 160.0001983642578 41.00030136108398 L 162.9998016357422 41.00030136108398 M 163.9998016357422 42.00030136108398 L 160.0001983642578 42.00030136108398 L 147.9996032714844 42.00030136108398 L 124.0002136230469 42.00030136108398 L 111.9996109008789 42.00030136108398 L 88.00019073486328 42.00030136108398 L 75.99961090087891 42.00030136108398 L 52.00021362304688 42.00030136108398 L 39.99961090087891 42.00030136108398 L 16.00019264221191 42.00030136108398 L 3.999609231948853 42.00030136108398 L 4.984537554264534e-06 42.00030136108398 L 4.984537554264534e-06 29.99969482421875 L 3.999609231948853 29.99969482421875 L 3.999609231948853 -43.00020217895508 L 16.00019264221191 -43.00020217895508 L 16.00019264221191 29.99969482421875 L 39.99961090087891 29.99969482421875 L 39.99961090087891 -43.00020217895508 L 52.00021362304688 -43.00020217895508 L 52.00021362304688 29.99969482421875 L 75.99961090087891 29.99969482421875 L 75.99961090087891 -43.00020217895508 L 88.00019073486328 -43.00020217895508 L 88.00019073486328 29.99969482421875 L 111.9996109008789 29.99969482421875 L 111.9996109008789 -43.00020217895508 L 124.0002136230469 -43.00020217895508 L 124.0002136230469 29.99969482421875 L 147.9996032714844 29.99969482421875 L 147.9996032714844 -43.00020217895508 L 160.0001983642578 -43.00020217895508 L 160.0001983642578 29.99969482421875 L 163.9998016357422 29.99969482421875 L 163.9998016357422 42.00030136108398 Z" stroke="none" fill="#000"/>
    </g>
    <line id="Línea_56" data-name="Línea 56" x2="157" transform="translate(98.5 349.564)" fill="none" stroke="#000" stroke-width="1" stroke-dasharray="3"/>
    <line id="Línea_57" data-name="Línea 57" y1="71.938" transform="translate(104.5 273.627)" fill="none" stroke="#000" stroke-width="1" stroke-dasharray="3"/>
    <line id="Línea_58" data-name="Línea 58" y1="71.938" transform="translate(140.5 273.627)" fill="none" stroke="#000" stroke-width="1" stroke-dasharray="3"/>
    <line id="Línea_59" data-name="Línea 59" y1="71.938" transform="translate(177.5 273.627)" fill="none" stroke="#000" stroke-width="1" stroke-dasharray="3"/>
    <line id="Línea_60" data-name="Línea 60" y1="71.938" transform="translate(212.5 273.627)" fill="none" stroke="#000" stroke-width="1" stroke-dasharray="3"/>
    <line id="Línea_61" data-name="Línea 61" y1="71.938" transform="translate(249.5 273.627)" fill="none" stroke="#000" stroke-width="1" stroke-dasharray="3"/>
  </g>
</svg>
