<svg xmlns="http://www.w3.org/2000/svg" width="113" height="56" viewBox="0 0 113 56">
  <g id="bis_left_2" transform="translate(-2058 -3593)">
    <g id="Rectángulo_82" data-name="Rectángulo 82" transform="translate(2058 3593)" fill="none" stroke="#da5468" stroke-width="1">
      <rect width="113" height="56" rx="5" stroke="none"/>
      <rect x="0.5" y="0.5" width="112" height="55" rx="4.5" fill="none"/>
    </g>
    <g id="Grupo_443" data-name="Grupo 443" transform="translate(1017.543 2775)">
      <path id="Trazado_724" data-name="Trazado 724" d="M-3.01-3.85a1.9,1.9,0,0,1,1.4.56,1.9,1.9,0,0,1,.56,1.4A1.8,1.8,0,0,1-1.61-.543,1.932,1.932,0,0,1-3.01,0h-11.9a1.872,1.872,0,0,1-1.435-.56A2.014,2.014,0,0,1-16.87-2a2.172,2.172,0,0,1,.63-1.54l7.63-8.155a13.934,13.934,0,0,0,2.03-2.783,5.584,5.584,0,0,0,.77-2.642,3.736,3.736,0,0,0-.525-1.96,4.127,4.127,0,0,0-1.365-1.4A3.37,3.37,0,0,0-9.52-21a3.781,3.781,0,0,0-2.065.682,6.96,6.96,0,0,0-1.855,1.8,1.866,1.866,0,0,1-.84.7,2.453,2.453,0,0,1-.77.14,2.087,2.087,0,0,1-1.418-.578,1.757,1.757,0,0,1-.647-1.347,1.956,1.956,0,0,1,.4-1.155,9.474,9.474,0,0,1,1-1.155,10.553,10.553,0,0,1,3.08-2.135,8.033,8.033,0,0,1,3.36-.8,8.121,8.121,0,0,1,4.1.98,6.869,6.869,0,0,1,2.66,2.695,7.915,7.915,0,0,1,.945,3.885A8.879,8.879,0,0,1-2.118-14.3,13.784,13.784,0,0,1-3.605-11.34a21.7,21.7,0,0,1-2.17,2.765L-10.5-3.535l-.385-.315Z" transform="translate(1146 859)" fill="#da5468"/>
    </g>
    <g id="Grupo_445" data-name="Grupo 445" transform="translate(1679.518 3473)">
      <g id="Unión_13" data-name="Unión 13" transform="translate(386.232 131)" fill="#da5468" stroke-linecap="square">
        <path d="M 7.415100574493408 35.17070007324219 C 5.376770496368408 35.17070007324219 3.45305061340332 34.87401962280273 1.998290777206421 34.33531951904297 C 0.3872407078742981 33.73873901367188 -0.4999992847442627 32.88267135620117 -0.4999992847442627 31.92480087280273 C -0.4999992847442627 31.89704513549805 -0.4985480010509491 31.87004470825195 -0.4957836270332336 31.8437328338623 L -1.052939295768738 31.76413917541504 L 0.03474071994423866 31.0382194519043 L 7.148200511932373 26.29063415527344 L 7.148200511932373 14.03909969329834 C 7.148200511932373 12.16923046112061 7.970550537109375 10.4005298614502 9.463770866394043 9.058830261230469 C 10.82011222839355 7.840121269226074 12.6032075881958 7.088847160339355 14.52730083465576 6.916964530944824 L 14.52730083465576 6.87909984588623 L 15.02730083465576 6.87909984588623 L 20.14996910095215 6.87909984588623 L 20.15139770507812 0.8188862800598145 C 20.15037727355957 0.7975229620933533 20.14960098266602 0.7754124402999878 20.14960098266602 0.7533000111579895 C 20.14960098266602 0.06223003566265106 20.6892204284668 -0.4999999701976776 21.35250091552734 -0.4999999701976776 C 21.67110824584961 -0.4999999701976776 21.96792602539062 -0.3722513020038605 22.18916702270508 -0.148099958896637 L 29.78550148010254 -0.148099958896637 L 30.28550148010254 -0.148099958896637 L 30.28550148010254 0.351900041103363 L 30.28550148010254 4.216499805450439 L 30.28550148010254 4.716499805450439 L 29.78550148010254 4.716499805450439 L 22.55540084838867 4.716499805450439 L 22.55540084838867 6.87909984588623 L 33.98040008544922 6.87909984588623 L 34.24679946899414 6.87909984588623 L 34.74679946899414 6.87909984588623 L 34.74679946899414 6.909260272979736 C 36.69419860839844 7.064505577087402 38.5020866394043 7.808807373046875 39.8804817199707 9.031390190124512 C 41.39694976806641 10.37644004821777 42.23210144042969 12.15487957000732 42.23210144042969 14.03909969329834 L 42.23210144042969 27.05579948425293 L 42.23210144042969 27.55579948425293 L 41.73210144042969 27.55579948425293 L 34.24679946899414 27.55579948425293 L 23.10930061340332 27.55579948425293 L 22.2178897857666 27.55579948425293 L 14.88137340545654 33.05839157104492 C 13.82101726531982 34.32428741455078 10.83878421783447 35.17070007324219 7.415100574493408 35.17070007324219 Z" stroke="none"/>
        <path d="M 7.415100574493408 34.67070007324219 C 10.78650093078613 34.67070007324219 13.63320064544678 33.83729934692383 14.53230094909668 32.6952018737793 L 22.05121994018555 27.05579948425293 L 22.05540084838867 27.05579948425293 L 23.10930061340332 27.05579948425293 L 34.24679946899414 27.05579948425293 L 41.73210144042969 27.05579948425293 L 41.73210144042969 14.03909969329834 C 41.73210144042969 10.43729972839355 38.40480041503906 7.503300189971924 34.24679946899414 7.382699966430664 L 34.24679946899414 7.37909984588623 L 33.98040008544922 7.37909984588623 L 22.05540084838867 7.37909984588623 L 22.05540084838867 4.216499805450439 L 29.78550148010254 4.216499805450439 L 29.78550148010254 0.351900041103363 L 21.94721984863281 0.351900041103363 C 21.82266044616699 0.1405300348997116 21.60282135009766 3.662109193669494e-08 21.35250091552734 3.662109193669494e-08 C 20.96460151672363 3.662109193669494e-08 20.64960098266602 0.3375000357627869 20.64960098266602 0.7533000111579895 C 20.64960098266602 0.7713000178337097 20.6505012512207 0.7893000245094299 20.65140151977539 0.8064000606536865 L 20.64985084533691 7.37909984588623 L 15.02730083465576 7.37909984588623 L 15.02730083465576 7.385879993438721 C 10.92118072509766 7.54449987411499 7.648200511932373 10.46249961853027 7.648200511932373 14.03909969329834 L 7.648200511932373 26.59770011901855 L 7.58880090713501 26.59770011901855 L 0.3123007118701935 31.45409965515137 L 0.3186007142066956 31.45499992370605 C 0.2529007196426392 31.50539970397949 0.2007007151842117 31.55579948425293 0.1620007157325745 31.60709953308105 C 0.03150071948766708 31.76460075378418 7.202148708529421e-07 31.84379959106445 7.202148708529421e-07 31.92480087280273 C 7.202148708529421e-07 33.44129943847656 3.320100784301758 34.67070007324219 7.415100574493408 34.67070007324219 M 7.415100574493408 35.67070007324219 C 5.318990707397461 35.67070007324219 3.333600759506226 35.36296844482422 1.824660778045654 34.8042106628418 C -0.1943266540765762 34.05656814575195 -0.833794891834259 33.07403945922852 -0.9697936177253723 32.28109359741211 L -2.418179273605347 32.07418060302734 L -0.2428292781114578 30.62232971191406 L 6.648200511932373 26.02319526672363 L 6.648200511932373 14.03909969329834 C 6.648200511932373 10.21491527557373 9.819355964660645 7.039100646972656 14.02730083465576 6.469822883605957 L 14.02730083465576 6.37909984588623 L 15.02730083465576 6.37909984588623 L 19.65008735656738 6.37909984588623 L 19.65139579772949 0.8300458788871765 C 19.65032196044922 0.8049098253250122 19.64960098266602 0.7790996432304382 19.64960098266602 0.7533000111579895 C 19.64960098266602 -0.2134699672460556 20.41352081298828 -0.9999999403953552 21.35250091552734 -0.9999999403953552 C 21.72414016723633 -0.9999999403953552 22.08258438110352 -0.872261643409729 22.37381362915039 -0.648099958896637 L 29.78550148010254 -0.648099958896637 L 30.78550148010254 -0.648099958896637 L 30.78550148010254 0.351900041103363 L 30.78550148010254 4.216499805450439 L 30.78550148010254 5.216499805450439 L 29.78550148010254 5.216499805450439 L 23.05540084838867 5.216499805450439 L 23.05540084838867 6.37909984588623 L 33.98040008544922 6.37909984588623 L 34.24679946899414 6.37909984588623 L 35.24679946899414 6.37909984588623 L 35.24679946899414 6.458245277404785 C 37.12624740600586 6.695842742919922 38.86213684082031 7.459810256958008 40.21226119995117 8.657330513000488 C 41.83720016479492 10.09860038757324 42.73210144042969 12.00988006591797 42.73210144042969 14.03909969329834 L 42.73210144042969 27.05579948425293 L 42.73210144042969 28.05579948425293 L 41.73210144042969 28.05579948425293 L 34.24679946899414 28.05579948425293 L 23.10930061340332 28.05579948425293 L 22.38456153869629 28.05579948425293 L 15.22510147094727 33.42559432983398 C 14.02737522125244 34.79348373413086 10.99215984344482 35.67070007324219 7.415100574493408 35.67070007324219 Z" stroke="none" fill="#b4d6c8"/>
      </g>
      <g id="Grupo_26" data-name="Grupo 26" transform="translate(386.232 131)">
        <path id="Unión_10" data-name="Unión 10" d="M0,8V.765Q0,.74,0,.714C0,.32.224,0,.5,0s.485.3.5.676H1V.7s0,.007,0,.01S1,.723,1,.728L.986,8Z" transform="translate(20.25 0)" fill="#da5468"/>
        <rect id="Rectángulo_34" data-name="Rectángulo 34" width="9" height="4" transform="translate(21.25 0)" fill="#da5468"/>
        <path id="Unión_8" data-name="Unión 8" d="M19.432,20H0V0H19.432V0C23.636.126,27,3.109,27,6.769V20Z" transform="translate(15.25 7)" fill="#da5468"/>
        <path id="Unión_9" data-name="Unión 9" d="M0,20V6.769C0,3.031,3.358,0,7.5,0S15,3.031,15,6.769V20Z" transform="translate(7.25 7)" fill="#da5468"/>
        <path id="Unión_11" data-name="Unión 11" d="M0,8.074l8.129-6.1C9.029.834,11.875,0,15.247,0c4.095,0,7.415,1.23,7.415,2.747,0,.08-.031.16-.162.317a.83.83,0,0,1-.156.152h.006L15.074,8.074Z" transform="translate(22.662 34.671) rotate(180)" fill="#da5468"/>
        <path id="Unión_12" data-name="Unión 12" d="M0,19V6.431A6.733,6.733,0,0,1,7,0a6.734,6.734,0,0,1,7,6.431V19Z" transform="translate(8.25 8)" fill="#b6374d"/>
        <rect id="Rectángulo_36" data-name="Rectángulo 36" width="1" height="7" transform="translate(21.25 0)" fill="#be4256"/>
        <path id="Trazado_463" data-name="Trazado 463" d="M1.73-4.07V-6.34h1.9a4.639,4.639,0,0,1,.585.035A1.3,1.3,0,0,1,4.7-6.15a.853.853,0,0,1,.33.34,1.26,1.26,0,0,1,.12.6,1.031,1.031,0,0,1-.355.855A1.873,1.873,0,0,1,3.63-4.07ZM.78-7.14V0H4.23a2.339,2.339,0,0,0,.935-.175,2.074,2.074,0,0,0,.68-.46A1.9,1.9,0,0,0,6.26-1.29a2.131,2.131,0,0,0,.14-.76,1.8,1.8,0,0,0-.35-1.12,1.643,1.643,0,0,0-1.01-.6v-.02A1.621,1.621,0,0,0,5.825-4.4,1.742,1.742,0,0,0,6.1-5.39a1.612,1.612,0,0,0-.245-.91,1.86,1.86,0,0,0-.595-.58,1.222,1.222,0,0,0-.385-.15,4.007,4.007,0,0,0-.485-.075q-.26-.025-.525-.03t-.495,0ZM1.73-.8V-3.27H3.9a3,3,0,0,1,.58.055,1.446,1.446,0,0,1,.495.19,1.009,1.009,0,0,1,.345.365,1.167,1.167,0,0,1,.13.58,1.24,1.24,0,0,1-.355.94A1.366,1.366,0,0,1,4.11-.8ZM7.67-7.14V0h.95V-7.14Zm6.68,2.09h.9a2.517,2.517,0,0,0-.225-1.015,1.978,1.978,0,0,0-.56-.7,2.31,2.31,0,0,0-.825-.41,3.815,3.815,0,0,0-1.02-.13,3.663,3.663,0,0,0-.955.125,2.626,2.626,0,0,0-.83.38,1.923,1.923,0,0,0-.585.65,1.892,1.892,0,0,0-.22.935,1.561,1.561,0,0,0,.195.815,1.581,1.581,0,0,0,.52.53,3.022,3.022,0,0,0,.735.33q.41.125.835.22l.835.185a3.807,3.807,0,0,1,.735.235,1.433,1.433,0,0,1,.52.375.9.9,0,0,1,.2.6,1.168,1.168,0,0,1-.16.64,1.164,1.164,0,0,1-.42.395,1.9,1.9,0,0,1-.585.205,3.547,3.547,0,0,1-.645.06,3.052,3.052,0,0,1-.78-.1,1.941,1.941,0,0,1-.665-.31,1.591,1.591,0,0,1-.46-.535,1.613,1.613,0,0,1-.175-.775h-.9a2.511,2.511,0,0,0,.235,1.125,2.157,2.157,0,0,0,.64.78,2.8,2.8,0,0,0,.94.455A4.186,4.186,0,0,0,12.76.16a4.341,4.341,0,0,0,.985-.115,2.85,2.85,0,0,0,.9-.37,2.1,2.1,0,0,0,.655-.66,1.793,1.793,0,0,0,.255-.975,1.791,1.791,0,0,0-.195-.88,1.737,1.737,0,0,0-.52-.58,2.754,2.754,0,0,0-.735-.365q-.41-.135-.835-.235T12.43-4.2a4.373,4.373,0,0,1-.735-.215,1.446,1.446,0,0,1-.52-.335.744.744,0,0,1-.195-.535,1.16,1.16,0,0,1,.135-.585,1.05,1.05,0,0,1,.36-.375,1.567,1.567,0,0,1,.515-.2,2.9,2.9,0,0,1,.59-.06,2.016,2.016,0,0,1,1.215.345A1.488,1.488,0,0,1,14.35-5.05Z" transform="translate(23.249 22)" fill="#ea94a8"/>
      </g>
    </g>
  </g>
</svg>
