<svg xmlns="http://www.w3.org/2000/svg" width="113" height="56" viewBox="0 0 113 56">
  <g id="door_15_left_1" transform="translate(-2058 -3593)">
    <g id="Rectángulo_82" data-name="Rectángulo 82" transform="translate(2058 3593)" fill="none" stroke="#000" stroke-width="1">
      <rect width="113" height="56" rx="5" stroke="none"/>
      <rect x="0.5" y="0.5" width="112" height="55" rx="4.5" fill="none"/>
    </g>
    <g id="Grupo_443" data-name="Grupo 443" transform="translate(1017.543 2775)">
      <text id="_1" data-name="1" transform="translate(1146 859)" font-size="35" font-family="Quicksand" font-weight="700"><tspan x="-12.74" y="0">1</tspan></text>
    </g>
    <g id="door-15" transform="translate(-228.563 952.143)">
      <path id="Trazado_232" data-name="Trazado 232" d="M-24.058-29.6a.911.911,0,0,1-.673-.261.858.858,0,0,1-.261-.63V-42.85l.261.3-2.52,1.52a.879.879,0,0,1-.434.109.813.813,0,0,1-.63-.293.9.9,0,0,1-.261-.6.86.86,0,0,1,.456-.76l3.54-2.107a1.146,1.146,0,0,1,.652-.13.737.737,0,0,1,.586.25.91.91,0,0,1,.217.619v13.445a.858.858,0,0,1-.261.63A.911.911,0,0,1-24.058-29.6Zm7.819.109a5.9,5.9,0,0,1-1.77-.282,4.733,4.733,0,0,1-1.575-.825,1.133,1.133,0,0,1-.282-.391,1.1,1.1,0,0,1-.109-.456.758.758,0,0,1,.228-.51.771.771,0,0,1,.6-.25,1.132,1.132,0,0,1,.652.282,4,4,0,0,0,1.064.586,3.357,3.357,0,0,0,1.173.217,4.251,4.251,0,0,0,2.042-.478,3.6,3.6,0,0,0,1.4-1.314,3.534,3.534,0,0,0,.51-1.879,3.358,3.358,0,0,0-.445-1.748A3.043,3.043,0,0,0-13.991-37.7a3.871,3.871,0,0,0-1.814-.413,3.875,3.875,0,0,0-1.368.228,8.036,8.036,0,0,0-1.043.467,1.588,1.588,0,0,1-.717.239,1.04,1.04,0,0,1-.652-.185.86.86,0,0,1-.315-.467,1.183,1.183,0,0,1-.033-.521l.847-5.756a.906.906,0,0,1,.3-.489.866.866,0,0,1,.586-.206h6.451a.8.8,0,0,1,.586.239.8.8,0,0,1,.239.586.8.8,0,0,1-.239.586.8.8,0,0,1-.586.239h-6.016l.217-.2-.8,5.017-.348-.456a2.776,2.776,0,0,1,.728-.434,6.463,6.463,0,0,1,1.129-.369,5.672,5.672,0,0,1,1.314-.152,5,5,0,0,1,2.53.641,4.77,4.77,0,0,1,1.77,1.748,4.918,4.918,0,0,1,.652,2.541,5.219,5.219,0,0,1-.424,2.118,5.031,5.031,0,0,1-1.195,1.683,5.606,5.606,0,0,1-1.8,1.119A6.142,6.142,0,0,1-16.239-29.493Z" transform="translate(2340.796 2706.711)"/>
      <g id="iconfinder_architecture-interior-30_809098" transform="translate(2303.542 2646.857)">
        <path id="Trazado_87" data-name="Trazado 87" d="M46.054,38.721H44.5V1.844A1.742,1.742,0,0,0,42.659,0H16.844A1.742,1.742,0,0,0,15,1.844V38.721H13.386a1.742,1.742,0,0,0-1.844,1.844v3.688H47.9V40.565A1.742,1.742,0,0,0,46.054,38.721ZM16.844,1.844H42.659V38.721H16.844ZM13.386,42.409V40.565H46.054v1.844Z" transform="translate(-11.542)"/>
      </g>
    </g>
  </g>
</svg>
