<svg xmlns="http://www.w3.org/2000/svg" width="113" height="56" viewBox="0 0 113 56">
  <g id="door_7_left_0" transform="translate(-2058 -3593)">
    <g id="Rectángulo_82" data-name="Rectángulo 82" transform="translate(2058 3593)" fill="none" stroke="#000" stroke-width="1">
      <rect width="113" height="56" rx="5" stroke="none"/>
      <rect x="0.5" y="0.5" width="112" height="55" rx="4.5" fill="none"/>
    </g>
    <g id="Grupo_443" data-name="Grupo 443" transform="translate(1017.543 2775)">
      <path id="Trazado_931" data-name="Trazado 931" d="M-10.745.35a8.136,8.136,0,0,1-5.093-1.593A9.827,9.827,0,0,1-19-5.687,18.383,18.383,0,0,1-20.09-12.25,18.348,18.348,0,0,1-19-18.83a9.836,9.836,0,0,1,3.167-4.427,8.136,8.136,0,0,1,5.093-1.592,8.136,8.136,0,0,1,5.092,1.592A9.836,9.836,0,0,1-2.485-18.83,18.348,18.348,0,0,1-1.4-12.25,18.383,18.383,0,0,1-2.485-5.687,9.827,9.827,0,0,1-5.653-1.243,8.136,8.136,0,0,1-10.745.35Zm0-4.2a3.742,3.742,0,0,0,2.537-.928,6.033,6.033,0,0,0,1.662-2.8,15.645,15.645,0,0,0,.6-4.673,15.61,15.61,0,0,0-.6-4.69,6.029,6.029,0,0,0-1.662-2.782,3.742,3.742,0,0,0-2.537-.927,3.761,3.761,0,0,0-2.52.927,5.95,5.95,0,0,0-1.68,2.782,15.61,15.61,0,0,0-.595,4.69,15.645,15.645,0,0,0,.595,4.673,5.954,5.954,0,0,0,1.68,2.8A3.761,3.761,0,0,0-10.745-3.85Z" transform="translate(1146 859)"/>
    </g>
    <g id="door-15" transform="translate(-228.563 952.143)">
      <g id="iconfinder_architecture-interior-30_809098" transform="translate(2303.542 2646.857)">
        <path id="Trazado_87" data-name="Trazado 87" d="M46.054,38.721H44.5V1.844A1.742,1.742,0,0,0,42.659,0H16.844A1.742,1.742,0,0,0,15,1.844V38.721H13.386a1.742,1.742,0,0,0-1.844,1.844v3.688H47.9V40.565A1.742,1.742,0,0,0,46.054,38.721ZM16.844,1.844H42.659V38.721H16.844ZM13.386,42.409V40.565H46.054v1.844Z" transform="translate(-11.542)"/>
      </g>
    </g>
    <path id="Trazado_930" data-name="Trazado 930" d="M-1.749.088a.963.963,0,0,1-.638-.242A.772.772,0,0,1-2.673-.77a.968.968,0,0,1,.088-.4l5.7-12.98.242.4H-3.729a.808.808,0,0,1-.594-.242.808.808,0,0,1-.242-.594.772.772,0,0,1,.242-.583.828.828,0,0,1,.594-.231H4.213a.916.916,0,0,1,.66.231.8.8,0,0,1,.242.6,1.018,1.018,0,0,1-.088.418L-.935-.484a.789.789,0,0,1-.319.418A.876.876,0,0,1-1.749.088Z" transform="translate(2094 3627)"/>
  </g>
</svg>
