<svg xmlns="http://www.w3.org/2000/svg" width="113" height="56" viewBox="0 0 113 56">
  <g id="door_13_left_0" transform="translate(-2058 -3593)">
    <g id="Rectángulo_82" data-name="Rectángulo 82" transform="translate(2058 3593)" fill="none" stroke="#000" stroke-width="1">
      <rect width="113" height="56" rx="5" stroke="none"/>
      <rect x="0.5" y="0.5" width="112" height="55" rx="4.5" fill="none"/>
    </g>
    <g id="Grupo_443" data-name="Grupo 443" transform="translate(1017.543 2775)">
      <path id="Trazado_802" data-name="Trazado 802" d="M-10.745.35a8.136,8.136,0,0,1-5.093-1.593A9.827,9.827,0,0,1-19-5.687,18.383,18.383,0,0,1-20.09-12.25,18.348,18.348,0,0,1-19-18.83a9.836,9.836,0,0,1,3.167-4.427,8.136,8.136,0,0,1,5.093-1.592,8.136,8.136,0,0,1,5.092,1.592A9.836,9.836,0,0,1-2.485-18.83,18.348,18.348,0,0,1-1.4-12.25,18.383,18.383,0,0,1-2.485-5.687,9.827,9.827,0,0,1-5.653-1.243,8.136,8.136,0,0,1-10.745.35Zm0-4.2a3.742,3.742,0,0,0,2.537-.928,6.033,6.033,0,0,0,1.662-2.8,15.645,15.645,0,0,0,.6-4.673,15.61,15.61,0,0,0-.6-4.69,6.029,6.029,0,0,0-1.662-2.782,3.742,3.742,0,0,0-2.537-.927,3.761,3.761,0,0,0-2.52.927,5.95,5.95,0,0,0-1.68,2.782,15.61,15.61,0,0,0-.595,4.69,15.645,15.645,0,0,0,.595,4.673,5.954,5.954,0,0,0,1.68,2.8A3.761,3.761,0,0,0-10.745-3.85Z" transform="translate(1146 859)"/>
    </g>
    <g id="door-15" transform="translate(-228.563 952.143)">
      <g id="iconfinder_architecture-interior-30_809098" transform="translate(2303.542 2646.857)">
        <path id="Trazado_87" data-name="Trazado 87" d="M46.054,38.721H44.5V1.844A1.742,1.742,0,0,0,42.659,0H16.844A1.742,1.742,0,0,0,15,1.844V38.721H13.386a1.742,1.742,0,0,0-1.844,1.844v3.688H47.9V40.565A1.742,1.742,0,0,0,46.054,38.721ZM16.844,1.844H42.659V38.721H16.844ZM13.386,42.409V40.565H46.054v1.844Z" transform="translate(-11.542)"/>
      </g>
    </g>
    <path id="Trazado_858" data-name="Trazado 858" d="M-4.829,0a.923.923,0,0,1-.682-.264A.869.869,0,0,1-5.775-.9V-13.42l.264.308-2.552,1.54a.891.891,0,0,1-.44.11.824.824,0,0,1-.638-.3.911.911,0,0,1-.264-.6.871.871,0,0,1,.462-.77l3.586-2.134A1.161,1.161,0,0,1-4.7-15.4a.747.747,0,0,1,.594.253.922.922,0,0,1,.22.627V-.9a.869.869,0,0,1-.264.638A.923.923,0,0,1-4.829,0ZM.077-2.552a.95.95,0,0,1,.3.055,1.1,1.1,0,0,1,.363.231,3.508,3.508,0,0,0,1.034.638,3.593,3.593,0,0,0,1.364.242,3.59,3.59,0,0,0,1.738-.429A3.422,3.422,0,0,0,6.16-3.036a3.373,3.373,0,0,0,.495-1.826A3.159,3.159,0,0,0,6.16-6.7,3,3,0,0,0,4.906-7.755a3.849,3.849,0,0,0-1.6-.341,3.485,3.485,0,0,0-.572.044,4.49,4.49,0,0,0-.495.11,1.568,1.568,0,0,1-.429.066.671.671,0,0,1-.55-.242.907.907,0,0,1-.2-.594.969.969,0,0,1,.066-.363,1.214,1.214,0,0,1,.22-.341l4.312-4.752.352.418H-.231a.808.808,0,0,1-.594-.242.808.808,0,0,1-.242-.594.772.772,0,0,1,.242-.583A.828.828,0,0,1-.231-15.4H6.941a.848.848,0,0,1,.7.275.947.947,0,0,1,.22.6.759.759,0,0,1-.088.363,1.359,1.359,0,0,1-.242.319L3.245-9.064,2.739-9.5a1.352,1.352,0,0,1,.506-.165,3.576,3.576,0,0,1,.66-.077,4.469,4.469,0,0,1,2.266.594A4.407,4.407,0,0,1,7.821-7.48a4.967,4.967,0,0,1,.616,2.508,5.1,5.1,0,0,1-.726,2.75A4.886,4.886,0,0,1,5.72-.418,6.238,6.238,0,0,1,2.871.22,5.559,5.559,0,0,1,1.144-.055a4.222,4.222,0,0,1-1.463-.8A.869.869,0,0,1-.7-1.21a.879.879,0,0,1-.1-.4A1,1,0,0,1-.55-2.244.781.781,0,0,1,.077-2.552Z" transform="translate(2094 3627)"/>
  </g>
</svg>
