<svg xmlns="http://www.w3.org/2000/svg" width="113" height="56" viewBox="0 0 113 56">
  <g id="door_6_left_7" transform="translate(-2058 -3593)">
    <g id="Rectángulo_82" data-name="Rectángulo 82" transform="translate(2058 3593)" fill="none" stroke="#000" stroke-width="1">
      <rect width="113" height="56" rx="5" stroke="none"/>
      <rect x="0.5" y="0.5" width="112" height="55" rx="4.5" fill="none"/>
    </g>
    <g id="Grupo_443" data-name="Grupo 443" transform="translate(1017.543 2775)">
      <path id="Trazado_904" data-name="Trazado 904" d="M-12.74.175A2.214,2.214,0,0,1-14.263-.4a1.864,1.864,0,0,1-.648-1.453A2.231,2.231,0,0,1-14.7-2.8l8.575-18.795.385.945H-15.855a1.9,1.9,0,0,1-1.4-.56,1.9,1.9,0,0,1-.56-1.4,1.8,1.8,0,0,1,.56-1.347,1.932,1.932,0,0,1,1.4-.543h12.18a2.39,2.39,0,0,1,1.593.577A1.859,1.859,0,0,1-1.4-22.435a2.394,2.394,0,0,1-.21.945L-10.815-1.155a1.991,1.991,0,0,1-.787.98A2.066,2.066,0,0,1-12.74.175Z" transform="translate(1146 859)" opacity="0.998"/>
    </g>
    <g id="door-15" transform="translate(-228.563 952.143)">
      <g id="iconfinder_architecture-interior-30_809098" transform="translate(2303.542 2646.857)">
        <path id="Trazado_87" data-name="Trazado 87" d="M46.054,38.721H44.5V1.844A1.742,1.742,0,0,0,42.659,0H16.844A1.742,1.742,0,0,0,15,1.844V38.721H13.386a1.742,1.742,0,0,0-1.844,1.844v3.688H47.9V40.565A1.742,1.742,0,0,0,46.054,38.721ZM16.844,1.844H42.659V38.721H16.844ZM13.386,42.409V40.565H46.054v1.844Z" transform="translate(-11.542)"/>
      </g>
    </g>
    <path id="Trazado_889" data-name="Trazado 889" d="M.253.22A4.929,4.929,0,0,1-1.958-.253a4.568,4.568,0,0,1-1.6-1.287,5.9,5.9,0,0,1-.968-1.826,6.7,6.7,0,0,1-.33-2.09,10.483,10.483,0,0,1,.242-2.112,13.856,13.856,0,0,1,.737-2.387A11.639,11.639,0,0,1-2.585-12.3,10.02,10.02,0,0,1-.693-14.311a8.109,8.109,0,0,1,2.53-1.375,1.644,1.644,0,0,1,.352-.044,1.089,1.089,0,0,1,.627.187.753.753,0,0,1,.275.671.8.8,0,0,1-.2.539,1.16,1.16,0,0,1-.528.341,7.1,7.1,0,0,0-1.727.957A9.233,9.233,0,0,0-.924-11.561,10.225,10.225,0,0,0-2.156-9.735,7.165,7.165,0,0,0-2.871-7.7l-.528.176a5.574,5.574,0,0,1,.946-1.122A4.716,4.716,0,0,1-1.122-9.5a4.121,4.121,0,0,1,1.661-.33,3.978,3.978,0,0,1,1.8.418A4.981,4.981,0,0,1,3.817-8.294a5.3,5.3,0,0,1,1,1.617,5.1,5.1,0,0,1,.363,1.9A4.893,4.893,0,0,1,4.532-2.3,5.12,5.12,0,0,1,2.772-.473,4.661,4.661,0,0,1,.253.22ZM.231-1.43a3.081,3.081,0,0,0,1.617-.429A3.1,3.1,0,0,0,2.981-3.047,3.52,3.52,0,0,0,3.4-4.774a3.776,3.776,0,0,0-.374-1.672A3.135,3.135,0,0,0,1.958-7.689,2.875,2.875,0,0,0,.3-8.162,3.324,3.324,0,0,0-1.485-7.7,3.141,3.141,0,0,0-2.64-6.457,3.68,3.68,0,0,0-3.047-4.73a3.426,3.426,0,0,0,.4,1.628,3.147,3.147,0,0,0,1.133,1.21A3.225,3.225,0,0,0,.231-1.43Z" transform="translate(2094 3627)"/>
  </g>
</svg>
