<svg xmlns="http://www.w3.org/2000/svg" width="113" height="56" viewBox="0 0 113 56">
  <g id="door_8_left_6" transform="translate(-2058 -3593)">
    <g id="Rectángulo_82" data-name="Rectángulo 82" transform="translate(2058 3593)" fill="none" stroke="#000" stroke-width="1">
      <rect width="113" height="56" rx="5" stroke="none"/>
      <rect x="0.5" y="0.5" width="112" height="55" rx="4.5" fill="none"/>
    </g>
    <g id="Grupo_443" data-name="Grupo 443" transform="translate(1017.543 2775)">
      <path id="Trazado_965" data-name="Trazado 965" d="M-9.555.35a7.317,7.317,0,0,1-3.413-.787,7.807,7.807,0,0,1-2.59-2.153A10.283,10.283,0,0,1-17.2-5.67,11,11,0,0,1-17.78-9.2a19.034,19.034,0,0,1,.263-2.87,19.379,19.379,0,0,1,.927-3.535,16.022,16.022,0,0,1,1.855-3.6,13.536,13.536,0,0,1,3.028-3.15A13.09,13.09,0,0,1-7.21-24.5a3.318,3.318,0,0,1,.805-.1,2.612,2.612,0,0,1,1.452.42,1.7,1.7,0,0,1,.648,1.54A1.978,1.978,0,0,1-4.813-21.3a2.78,2.78,0,0,1-1.347.823,10.7,10.7,0,0,0-2.363,1.032,10.949,10.949,0,0,0-2.17,1.662,10.361,10.361,0,0,0-1.715,2.223A9.312,9.312,0,0,0-13.44-12.88l-.945-.035a14.639,14.639,0,0,1,1.208-1.278,6.988,6.988,0,0,1,1.75-1.19,5.456,5.456,0,0,1,2.433-.507,6.352,6.352,0,0,1,2.712.63,8.6,8.6,0,0,1,2.45,1.732,8.571,8.571,0,0,1,1.767,2.59A7.673,7.673,0,0,1-1.4-7.77a7.866,7.866,0,0,1-1.1,4.1,8.255,8.255,0,0,1-2.94,2.94A7.935,7.935,0,0,1-9.555.35Zm0-3.85a3.708,3.708,0,0,0,2.013-.56A4.017,4.017,0,0,0-6.125-5.6,4.522,4.522,0,0,0-5.6-7.77a4.493,4.493,0,0,0-.525-2.188A4.05,4.05,0,0,0-7.542-11.48a3.708,3.708,0,0,0-2.013-.56,3.708,3.708,0,0,0-2.012.56,4.05,4.05,0,0,0-1.418,1.523A4.493,4.493,0,0,0-13.51-7.77a4.522,4.522,0,0,0,.525,2.17,4.017,4.017,0,0,0,1.418,1.54A3.708,3.708,0,0,0-9.555-3.5Z" transform="translate(1146 859)"/>
    </g>
    <g id="door-15" transform="translate(-228.563 952.143)">
      <g id="iconfinder_architecture-interior-30_809098" transform="translate(2303.542 2646.857)">
        <path id="Trazado_87" data-name="Trazado 87" d="M46.054,38.721H44.5V1.844A1.742,1.742,0,0,0,42.659,0H16.844A1.742,1.742,0,0,0,15,1.844V38.721H13.386a1.742,1.742,0,0,0-1.844,1.844v3.688H47.9V40.565A1.742,1.742,0,0,0,46.054,38.721ZM16.844,1.844H42.659V38.721H16.844ZM13.386,42.409V40.565H46.054v1.844Z" transform="translate(-11.542)"/>
      </g>
    </g>
    <path id="Trazado_952" data-name="Trazado 952" d="M2.189-7.766l-.044-.308a4.8,4.8,0,0,1,1.386.9A4.47,4.47,0,0,1,4.51-5.863a3.561,3.561,0,0,1,.363,1.595,3.944,3.944,0,0,1-.649,2.189A4.686,4.686,0,0,1,2.464-.484,5.165,5.165,0,0,1-.011.11,5.1,5.1,0,0,1-2.475-.484,4.708,4.708,0,0,1-4.224-2.079a3.944,3.944,0,0,1-.649-2.189,3.58,3.58,0,0,1,.407-1.738A4.4,4.4,0,0,1-3.432-7.282a5.634,5.634,0,0,1,1.309-.836l-.11.352a3.825,3.825,0,0,1-1.089-.715,3.811,3.811,0,0,1-.847-1.144,3.42,3.42,0,0,1-.33-1.529A4.041,4.041,0,0,1-3.9-13.31a4.246,4.246,0,0,1,1.628-1.529A4.675,4.675,0,0,1-.011-15.4a4.594,4.594,0,0,1,2.266.561A4.376,4.376,0,0,1,3.872-13.31a3.985,3.985,0,0,1,.605,2.156,3.34,3.34,0,0,1-.352,1.573,3.828,3.828,0,0,1-.869,1.122A4.208,4.208,0,0,1,2.189-7.766Zm-4.906-3.366a2.6,2.6,0,0,0,.363,1.386,2.584,2.584,0,0,0,.99.935A2.788,2.788,0,0,0-.011-8.47a2.707,2.707,0,0,0,1.353-.341,2.718,2.718,0,0,0,.979-.935A2.546,2.546,0,0,0,2.7-11.132a2.509,2.509,0,0,0-.759-1.881A2.679,2.679,0,0,0-.011-13.75a2.679,2.679,0,0,0-1.947.737A2.509,2.509,0,0,0-2.717-11.132ZM-.011-1.54a3.187,3.187,0,0,0,2.233-.792A2.544,2.544,0,0,0,3.091-4.29a2.537,2.537,0,0,0-.418-1.441,2.939,2.939,0,0,0-1.122-.99A3.357,3.357,0,0,0-.011-7.084a3.31,3.31,0,0,0-1.54.363,2.939,2.939,0,0,0-1.122.99A2.537,2.537,0,0,0-3.091-4.29a2.544,2.544,0,0,0,.869,1.958A3.156,3.156,0,0,0-.011-1.54Z" transform="translate(2094 3627)"/>
  </g>
</svg>
