<svg xmlns="http://www.w3.org/2000/svg" width="113" height="56" viewBox="0 0 113 56">
  <g id="door_9_left_4" transform="translate(-2058 -3593)">
    <g id="Rectángulo_82" data-name="Rectángulo 82" transform="translate(2058 3593)" fill="none" stroke="#000" stroke-width="1">
      <rect width="113" height="56" rx="5" stroke="none"/>
      <rect x="0.5" y="0.5" width="112" height="55" rx="4.5" fill="none"/>
    </g>
    <g id="Grupo_443" data-name="Grupo 443" transform="translate(1017.543 2775)">
      <path id="Trazado_944" data-name="Trazado 944" d="M-8.365,0a1.968,1.968,0,0,1-1.47-.613,2.1,2.1,0,0,1-.6-1.522v-16.45l.735.175-6.755,8.365-.175-.455H-4.76a1.9,1.9,0,0,1,1.4.56,1.9,1.9,0,0,1,.56,1.4,1.8,1.8,0,0,1-.56,1.347,1.932,1.932,0,0,1-1.4.543H-19.53a2.141,2.141,0,0,1-1.417-.595,1.874,1.874,0,0,1-.683-1.47,2.134,2.134,0,0,1,.525-1.4l11.06-13.545a1.993,1.993,0,0,1,.735-.612A2.238,2.238,0,0,1-8.3-24.5a1.953,1.953,0,0,1,1.488.612,2.134,2.134,0,0,1,.577,1.523v20.23A2.067,2.067,0,0,1-6.843-.613,2.067,2.067,0,0,1-8.365,0Z" transform="translate(1146 859)"/>
    </g>
    <g id="door-15" transform="translate(-228.563 952.143)">
      <g id="iconfinder_architecture-interior-30_809098" transform="translate(2303.542 2646.857)">
        <path id="Trazado_87" data-name="Trazado 87" d="M46.054,38.721H44.5V1.844A1.742,1.742,0,0,0,42.659,0H16.844A1.742,1.742,0,0,0,15,1.844V38.721H13.386a1.742,1.742,0,0,0-1.844,1.844v3.688H47.9V40.565A1.742,1.742,0,0,0,46.054,38.721ZM16.844,1.844H42.659V38.721H16.844ZM13.386,42.409V40.565H46.054v1.844Z" transform="translate(-11.542)"/>
      </g>
    </g>
    <path id="Trazado_917" data-name="Trazado 917" d="M-.044-15.664a4.929,4.929,0,0,1,2.211.473A4.568,4.568,0,0,1,3.762-13.9a5.9,5.9,0,0,1,.968,1.826,6.7,6.7,0,0,1,.33,2.09,10.325,10.325,0,0,1-.242,2.1,13.056,13.056,0,0,1-.737,2.343A11.445,11.445,0,0,1,2.794-3.256,9.8,9.8,0,0,1,.9-1.287,8.756,8.756,0,0,1-1.628.088,1.644,1.644,0,0,1-1.98.132a.976.976,0,0,1-.627-.22.794.794,0,0,1-.275-.66.8.8,0,0,1,.2-.539,1.16,1.16,0,0,1,.528-.341A7.723,7.723,0,0,0,.121-2.981,9.665,9.665,0,0,0,2.013-5.126,7.24,7.24,0,0,0,3.08-7.744l.528-.176a4.8,4.8,0,0,1-.924,1.111,4.851,4.851,0,0,1-1.331.847,4.177,4.177,0,0,1-1.683.33,4.066,4.066,0,0,1-1.8-.407A4.825,4.825,0,0,1-3.608-7.15a5.3,5.3,0,0,1-1-1.617,5.1,5.1,0,0,1-.363-1.9,4.875,4.875,0,0,1,.649-2.486,5.118,5.118,0,0,1,1.771-1.815A4.677,4.677,0,0,1-.044-15.664Zm.022,1.65a3.081,3.081,0,0,0-1.617.429,3.121,3.121,0,0,0-1.133,1.177A3.5,3.5,0,0,0-3.19-10.67a3.8,3.8,0,0,0,.374,1.661A3.011,3.011,0,0,0-1.738-7.766,2.939,2.939,0,0,0-.088-7.3a3.324,3.324,0,0,0,1.782-.462A3.141,3.141,0,0,0,2.849-9.009a3.634,3.634,0,0,0,.407-1.7,3.407,3.407,0,0,0-.4-1.639,3.17,3.17,0,0,0-1.133-1.2A3.225,3.225,0,0,0-.022-14.014Z" transform="translate(2094 3627)"/>
  </g>
</svg>
