<svg xmlns="http://www.w3.org/2000/svg" width="113" height="56" viewBox="0 0 113 56">
  <g id="door_5_left_0" transform="translate(-2058 -3593)">
    <g id="Rectángulo_82" data-name="Rectángulo 82" transform="translate(2058 3593)" fill="none" stroke="#000" stroke-width="1">
      <rect width="113" height="56" rx="5" stroke="none"/>
      <rect x="0.5" y="0.5" width="112" height="55" rx="4.5" fill="none"/>
    </g>
    <g id="Grupo_443" data-name="Grupo 443" transform="translate(1017.543 2775)">
      <path id="Trazado_880" data-name="Trazado 880" d="M-10.745.35a8.136,8.136,0,0,1-5.093-1.593A9.827,9.827,0,0,1-19-5.687,18.383,18.383,0,0,1-20.09-12.25,18.348,18.348,0,0,1-19-18.83a9.836,9.836,0,0,1,3.167-4.427,8.136,8.136,0,0,1,5.093-1.592,8.136,8.136,0,0,1,5.092,1.592A9.836,9.836,0,0,1-2.485-18.83,18.348,18.348,0,0,1-1.4-12.25,18.383,18.383,0,0,1-2.485-5.687,9.827,9.827,0,0,1-5.653-1.243,8.136,8.136,0,0,1-10.745.35Zm0-4.2a3.742,3.742,0,0,0,2.537-.928,6.033,6.033,0,0,0,1.662-2.8,15.645,15.645,0,0,0,.6-4.673,15.61,15.61,0,0,0-.6-4.69,6.029,6.029,0,0,0-1.662-2.782,3.742,3.742,0,0,0-2.537-.927,3.761,3.761,0,0,0-2.52.927,5.95,5.95,0,0,0-1.68,2.782,15.61,15.61,0,0,0-.595,4.69,15.645,15.645,0,0,0,.595,4.673,5.954,5.954,0,0,0,1.68,2.8A3.761,3.761,0,0,0-10.745-3.85Z" transform="translate(1146 859)"/>
    </g>
    <g id="door-15" transform="translate(-228.563 952.143)">
      <g id="iconfinder_architecture-interior-30_809098" transform="translate(2303.542 2646.857)">
        <path id="Trazado_87" data-name="Trazado 87" d="M46.054,38.721H44.5V1.844A1.742,1.742,0,0,0,42.659,0H16.844A1.742,1.742,0,0,0,15,1.844V38.721H13.386a1.742,1.742,0,0,0-1.844,1.844v3.688H47.9V40.565A1.742,1.742,0,0,0,46.054,38.721ZM16.844,1.844H42.659V38.721H16.844ZM13.386,42.409V40.565H46.054v1.844Z" transform="translate(-11.542)"/>
      </g>
    </g>
    <path id="Trazado_875" data-name="Trazado 875" d="M-1.111.11A5.978,5.978,0,0,1-2.9-.176,4.794,4.794,0,0,1-4.5-1.012a1.148,1.148,0,0,1-.286-.4A1.117,1.117,0,0,1-4.9-1.87a.767.767,0,0,1,.231-.517.781.781,0,0,1,.605-.253,1.146,1.146,0,0,1,.66.286,4.053,4.053,0,0,0,1.078.594,3.4,3.4,0,0,0,1.188.22A4.306,4.306,0,0,0,.935-2.024,3.649,3.649,0,0,0,2.354-3.355a3.58,3.58,0,0,0,.517-1.9A3.4,3.4,0,0,0,2.42-7.029,3.082,3.082,0,0,0,1.166-8.206,3.92,3.92,0,0,0-.671-8.624a3.925,3.925,0,0,0-1.386.231,8.139,8.139,0,0,0-1.056.473,1.608,1.608,0,0,1-.726.242,1.054,1.054,0,0,1-.66-.187.871.871,0,0,1-.319-.473,1.2,1.2,0,0,1-.033-.528l.858-5.83a.917.917,0,0,1,.308-.5.877.877,0,0,1,.594-.209H3.443a.808.808,0,0,1,.594.242.808.808,0,0,1,.242.594.808.808,0,0,1-.242.594.808.808,0,0,1-.594.242H-2.651l.22-.2-.814,5.082L-3.6-9.306a2.812,2.812,0,0,1,.737-.44,6.546,6.546,0,0,1,1.144-.374,5.745,5.745,0,0,1,1.331-.154,5.063,5.063,0,0,1,2.563.649A4.831,4.831,0,0,1,3.971-7.854a4.981,4.981,0,0,1,.66,2.574A5.286,5.286,0,0,1,4.2-3.135,5.1,5.1,0,0,1,2.992-1.43,5.679,5.679,0,0,1,1.166-.3,6.221,6.221,0,0,1-1.111.11Z" transform="translate(2094 3627)"/>
  </g>
</svg>
