<svg xmlns="http://www.w3.org/2000/svg" width="113" height="56" viewBox="0 0 113 56">
  <g id="door_3_left_2" transform="translate(-2058 -3593)">
    <g id="Rectángulo_82" data-name="Rectángulo 82" transform="translate(2058 3593)" fill="none" stroke="#000" stroke-width="1">
      <rect width="113" height="56" rx="5" stroke="none"/>
      <rect x="0.5" y="0.5" width="112" height="55" rx="4.5" fill="none"/>
    </g>
    <g id="Grupo_443" data-name="Grupo 443" transform="translate(1017.543 2775)">
      <path id="Trazado_799" data-name="Trazado 799" d="M-3.01-3.85a1.9,1.9,0,0,1,1.4.56,1.9,1.9,0,0,1,.56,1.4A1.8,1.8,0,0,1-1.61-.543,1.932,1.932,0,0,1-3.01,0h-11.9a1.872,1.872,0,0,1-1.435-.56A2.014,2.014,0,0,1-16.87-2a2.172,2.172,0,0,1,.63-1.54l7.63-8.155a13.934,13.934,0,0,0,2.03-2.783,5.584,5.584,0,0,0,.77-2.642,3.736,3.736,0,0,0-.525-1.96,4.127,4.127,0,0,0-1.365-1.4A3.37,3.37,0,0,0-9.52-21a3.781,3.781,0,0,0-2.065.682,6.96,6.96,0,0,0-1.855,1.8,1.866,1.866,0,0,1-.84.7,2.453,2.453,0,0,1-.77.14,2.087,2.087,0,0,1-1.418-.578,1.757,1.757,0,0,1-.647-1.347,1.956,1.956,0,0,1,.4-1.155,9.474,9.474,0,0,1,1-1.155,10.553,10.553,0,0,1,3.08-2.135,8.033,8.033,0,0,1,3.36-.8,8.121,8.121,0,0,1,4.1.98,6.869,6.869,0,0,1,2.66,2.695,7.915,7.915,0,0,1,.945,3.885A8.879,8.879,0,0,1-2.118-14.3,13.784,13.784,0,0,1-3.605-11.34a21.7,21.7,0,0,1-2.17,2.765L-10.5-3.535l-.385-.315Z" transform="translate(1146 859)"/>
    </g>
    <g id="door-15" transform="translate(-228.563 952.143)">
      <g id="iconfinder_architecture-interior-30_809098" transform="translate(2303.542 2646.857)">
        <path id="Trazado_87" data-name="Trazado 87" d="M46.054,38.721H44.5V1.844A1.742,1.742,0,0,0,42.659,0H16.844A1.742,1.742,0,0,0,15,1.844V38.721H13.386a1.742,1.742,0,0,0-1.844,1.844v3.688H47.9V40.565A1.742,1.742,0,0,0,46.054,38.721ZM16.844,1.844H42.659V38.721H16.844ZM13.386,42.409V40.565H46.054v1.844Z" transform="translate(-11.542)"/>
      </g>
    </g>
    <path id="Trazado_855" data-name="Trazado 855" d="M-3.707-2.552a.95.95,0,0,1,.3.055,1.1,1.1,0,0,1,.363.231,3.508,3.508,0,0,0,1.034.638,3.593,3.593,0,0,0,1.364.242,3.59,3.59,0,0,0,1.738-.429A3.422,3.422,0,0,0,2.376-3.036a3.373,3.373,0,0,0,.495-1.826A3.159,3.159,0,0,0,2.376-6.7,3,3,0,0,0,1.122-7.755,3.849,3.849,0,0,0-.473-8.1a3.485,3.485,0,0,0-.572.044,4.49,4.49,0,0,0-.495.11,1.568,1.568,0,0,1-.429.066.671.671,0,0,1-.55-.242.907.907,0,0,1-.2-.594.969.969,0,0,1,.066-.363,1.214,1.214,0,0,1,.22-.341l4.312-4.752.352.418H-4.015a.808.808,0,0,1-.594-.242.808.808,0,0,1-.242-.594.772.772,0,0,1,.242-.583.828.828,0,0,1,.594-.231H3.157a.848.848,0,0,1,.7.275.947.947,0,0,1,.22.6.759.759,0,0,1-.088.363,1.359,1.359,0,0,1-.242.319L-.539-9.064l-.506-.44a1.352,1.352,0,0,1,.506-.165,3.576,3.576,0,0,1,.66-.077,4.469,4.469,0,0,1,2.266.594A4.407,4.407,0,0,1,4.037-7.48a4.967,4.967,0,0,1,.616,2.508,5.1,5.1,0,0,1-.726,2.75,4.886,4.886,0,0,1-1.991,1.8A6.238,6.238,0,0,1-.913.22,5.559,5.559,0,0,1-2.64-.055,4.222,4.222,0,0,1-4.1-.858a.869.869,0,0,1-.385-.352.879.879,0,0,1-.1-.4,1,1,0,0,1,.253-.638A.781.781,0,0,1-3.707-2.552Z" transform="translate(2094 3627)"/>
  </g>
</svg>
