<svg xmlns="http://www.w3.org/2000/svg" width="113" height="56" viewBox="0 0 113 56">
  <g id="door_8_left_8" transform="translate(-2058 -3593)">
    <g id="Rectángulo_82" data-name="Rectángulo 82" transform="translate(2058 3593)" fill="none" stroke="#000" stroke-width="1">
      <rect width="113" height="56" rx="5" stroke="none"/>
      <rect x="0.5" y="0.5" width="112" height="55" rx="4.5" fill="none"/>
    </g>
    <g id="Grupo_443" data-name="Grupo 443" transform="translate(1017.543 2775)">
      <path id="Trazado_967" data-name="Trazado 967" d="M-6.37-12.425l-.07-.805a8,8,0,0,1,2.31,1.54,6.989,6.989,0,0,1,1.5,2.065A5.385,5.385,0,0,1-2.1-7.315,6.48,6.48,0,0,1-3.2-3.658,8.053,8.053,0,0,1-6.16-1a8.58,8.58,0,0,1-4.13,1,8.58,8.58,0,0,1-4.13-1,8.053,8.053,0,0,1-2.958-2.66,6.48,6.48,0,0,1-1.1-3.658A5.435,5.435,0,0,1-17.8-10.1a6.844,6.844,0,0,1,1.715-1.977,13.243,13.243,0,0,1,2.048-1.33l-.28.98a6.877,6.877,0,0,1-1.7-1,5.006,5.006,0,0,1-1.347-1.662,5.113,5.113,0,0,1-.525-2.38,6.472,6.472,0,0,1,1.015-3.552,7.386,7.386,0,0,1,2.747-2.537A7.872,7.872,0,0,1-10.29-24.5a7.744,7.744,0,0,1,3.832.945,7.463,7.463,0,0,1,2.713,2.537A6.472,6.472,0,0,1-2.73-17.465a4.913,4.913,0,0,1-.6,2.52,5.082,5.082,0,0,1-1.435,1.61A8.173,8.173,0,0,1-6.37-12.425Zm-7.315-4.97a3.221,3.221,0,0,0,.438,1.68,3.238,3.238,0,0,0,1.207,1.173,3.479,3.479,0,0,0,1.75.438,3.384,3.384,0,0,0,1.733-.437,3.277,3.277,0,0,0,1.19-1.173A3.221,3.221,0,0,0-6.93-17.4a3.1,3.1,0,0,0-.962-2.327,3.319,3.319,0,0,0-2.4-.927,3.364,3.364,0,0,0-2.432.927A3.1,3.1,0,0,0-13.685-17.4ZM-10.29-3.85A4.1,4.1,0,0,0-7.455-4.883,3.236,3.236,0,0,0-6.3-7.385,3.258,3.258,0,0,0-6.825-9.2,3.721,3.721,0,0,0-8.26-10.483a4.339,4.339,0,0,0-2.03-.472,4.339,4.339,0,0,0-2.03.472A3.721,3.721,0,0,0-13.755-9.2a3.258,3.258,0,0,0-.525,1.82,3.236,3.236,0,0,0,1.155,2.5A4.1,4.1,0,0,0-10.29-3.85Z" transform="translate(1146 859)" opacity="0.998"/>
    </g>
    <g id="door-15" transform="translate(-228.563 952.143)">
      <g id="iconfinder_architecture-interior-30_809098" transform="translate(2303.542 2646.857)">
        <path id="Trazado_87" data-name="Trazado 87" d="M46.054,38.721H44.5V1.844A1.742,1.742,0,0,0,42.659,0H16.844A1.742,1.742,0,0,0,15,1.844V38.721H13.386a1.742,1.742,0,0,0-1.844,1.844v3.688H47.9V40.565A1.742,1.742,0,0,0,46.054,38.721ZM16.844,1.844H42.659V38.721H16.844ZM13.386,42.409V40.565H46.054v1.844Z" transform="translate(-11.542)"/>
      </g>
    </g>
    <path id="Trazado_950" data-name="Trazado 950" d="M2.189-7.766l-.044-.308a4.8,4.8,0,0,1,1.386.9A4.47,4.47,0,0,1,4.51-5.863a3.561,3.561,0,0,1,.363,1.595,3.944,3.944,0,0,1-.649,2.189A4.686,4.686,0,0,1,2.464-.484,5.165,5.165,0,0,1-.011.11,5.1,5.1,0,0,1-2.475-.484,4.708,4.708,0,0,1-4.224-2.079a3.944,3.944,0,0,1-.649-2.189,3.58,3.58,0,0,1,.407-1.738A4.4,4.4,0,0,1-3.432-7.282a5.634,5.634,0,0,1,1.309-.836l-.11.352a3.825,3.825,0,0,1-1.089-.715,3.811,3.811,0,0,1-.847-1.144,3.42,3.42,0,0,1-.33-1.529A4.041,4.041,0,0,1-3.9-13.31a4.246,4.246,0,0,1,1.628-1.529A4.675,4.675,0,0,1-.011-15.4a4.594,4.594,0,0,1,2.266.561A4.376,4.376,0,0,1,3.872-13.31a3.985,3.985,0,0,1,.605,2.156,3.34,3.34,0,0,1-.352,1.573,3.828,3.828,0,0,1-.869,1.122A4.208,4.208,0,0,1,2.189-7.766Zm-4.906-3.366a2.6,2.6,0,0,0,.363,1.386,2.584,2.584,0,0,0,.99.935A2.788,2.788,0,0,0-.011-8.47a2.707,2.707,0,0,0,1.353-.341,2.718,2.718,0,0,0,.979-.935A2.546,2.546,0,0,0,2.7-11.132a2.509,2.509,0,0,0-.759-1.881A2.679,2.679,0,0,0-.011-13.75a2.679,2.679,0,0,0-1.947.737A2.509,2.509,0,0,0-2.717-11.132ZM-.011-1.54a3.187,3.187,0,0,0,2.233-.792A2.544,2.544,0,0,0,3.091-4.29a2.537,2.537,0,0,0-.418-1.441,2.939,2.939,0,0,0-1.122-.99A3.357,3.357,0,0,0-.011-7.084a3.31,3.31,0,0,0-1.54.363,2.939,2.939,0,0,0-1.122.99A2.537,2.537,0,0,0-3.091-4.29a2.544,2.544,0,0,0,.869,1.958A3.156,3.156,0,0,0-.011-1.54Z" transform="translate(2094 3627)"/>
  </g>
</svg>
