<svg xmlns="http://www.w3.org/2000/svg" width="113" height="56" viewBox="0 0 113 56">
  <g id="door_15_left_3" transform="translate(-2058 -3593)">
    <g id="Rectángulo_82" data-name="Rectángulo 82" transform="translate(2058 3593)" fill="none" stroke="#000" stroke-width="1">
      <rect width="113" height="56" rx="5" stroke="none"/>
      <rect x="0.5" y="0.5" width="112" height="55" rx="4.5" fill="none"/>
    </g>
    <g id="Grupo_443" data-name="Grupo 443" transform="translate(1017.543 2775)">
      <path id="Trazado_781" data-name="Trazado 781" d="M-14.7-4.935a2.5,2.5,0,0,1,.683.105,2.89,2.89,0,0,1,.822.42,6.537,6.537,0,0,0,1.418.8,4.839,4.839,0,0,0,1.907.35A4.106,4.106,0,0,0-7.823-3.8,4.464,4.464,0,0,0-6.23-5.338a4.4,4.4,0,0,0,.63-2.4A4.118,4.118,0,0,0-6.142-9.94a3.574,3.574,0,0,0-1.435-1.33,4.141,4.141,0,0,0-1.908-.455,4.9,4.9,0,0,0-1.278.14q-.507.14-.98.3a3.49,3.49,0,0,1-1.1.158,1.485,1.485,0,0,1-1.243-.56,2.1,2.1,0,0,1-.437-1.33,1.93,1.93,0,0,1,.193-.875,4.353,4.353,0,0,1,.577-.84l6.16-6.72.945.805h-8.61a1.9,1.9,0,0,1-1.4-.56,1.9,1.9,0,0,1-.56-1.4,1.8,1.8,0,0,1,.56-1.347,1.932,1.932,0,0,1,1.4-.543H-4.55a2.094,2.094,0,0,1,1.628.595A2.148,2.148,0,0,1-2.38-22.4a1.813,1.813,0,0,1-.227.875,3.506,3.506,0,0,1-.612.8l-6.2,6.825-.945-1.19A5.194,5.194,0,0,1-9.293-15.4a5.856,5.856,0,0,1,1.137-.14,6.09,6.09,0,0,1,3.587,1.067,7.1,7.1,0,0,1,2.345,2.765A8.277,8.277,0,0,1-1.4-8.05,8.423,8.423,0,0,1-2.555-3.57,7.582,7.582,0,0,1-5.81-.665,11.14,11.14,0,0,1-10.71.35,10.5,10.5,0,0,1-13.265.035a8.419,8.419,0,0,1-2.17-.84,2.4,2.4,0,0,1-1.033-.927,2.1,2.1,0,0,1-.262-.962,2.39,2.39,0,0,1,.577-1.522A1.79,1.79,0,0,1-14.7-4.935Z" transform="translate(1146 859)"/>
    </g>
    <g id="door-15" transform="translate(-228.563 952.143)">
      <path id="Trazado_232" data-name="Trazado 232" d="M-24.058-29.6a.911.911,0,0,1-.673-.261.858.858,0,0,1-.261-.63V-42.85l.261.3-2.52,1.52a.879.879,0,0,1-.434.109.813.813,0,0,1-.63-.293.9.9,0,0,1-.261-.6.86.86,0,0,1,.456-.76l3.54-2.107a1.146,1.146,0,0,1,.652-.13.737.737,0,0,1,.586.25.91.91,0,0,1,.217.619v13.445a.858.858,0,0,1-.261.63A.911.911,0,0,1-24.058-29.6Zm7.819.109a5.9,5.9,0,0,1-1.77-.282,4.733,4.733,0,0,1-1.575-.825,1.133,1.133,0,0,1-.282-.391,1.1,1.1,0,0,1-.109-.456.758.758,0,0,1,.228-.51.771.771,0,0,1,.6-.25,1.132,1.132,0,0,1,.652.282,4,4,0,0,0,1.064.586,3.357,3.357,0,0,0,1.173.217,4.251,4.251,0,0,0,2.042-.478,3.6,3.6,0,0,0,1.4-1.314,3.534,3.534,0,0,0,.51-1.879,3.358,3.358,0,0,0-.445-1.748A3.043,3.043,0,0,0-13.991-37.7a3.871,3.871,0,0,0-1.814-.413,3.875,3.875,0,0,0-1.368.228,8.036,8.036,0,0,0-1.043.467,1.588,1.588,0,0,1-.717.239,1.04,1.04,0,0,1-.652-.185.86.86,0,0,1-.315-.467,1.183,1.183,0,0,1-.033-.521l.847-5.756a.906.906,0,0,1,.3-.489.866.866,0,0,1,.586-.206h6.451a.8.8,0,0,1,.586.239.8.8,0,0,1,.239.586.8.8,0,0,1-.239.586.8.8,0,0,1-.586.239h-6.016l.217-.2-.8,5.017-.348-.456a2.776,2.776,0,0,1,.728-.434,6.463,6.463,0,0,1,1.129-.369,5.672,5.672,0,0,1,1.314-.152,5,5,0,0,1,2.53.641,4.77,4.77,0,0,1,1.77,1.748,4.918,4.918,0,0,1,.652,2.541,5.219,5.219,0,0,1-.424,2.118,5.031,5.031,0,0,1-1.195,1.683,5.606,5.606,0,0,1-1.8,1.119A6.142,6.142,0,0,1-16.239-29.493Z" transform="translate(2340.796 2706.711)"/>
      <g id="iconfinder_architecture-interior-30_809098" transform="translate(2303.542 2646.857)">
        <path id="Trazado_87" data-name="Trazado 87" d="M46.054,38.721H44.5V1.844A1.742,1.742,0,0,0,42.659,0H16.844A1.742,1.742,0,0,0,15,1.844V38.721H13.386a1.742,1.742,0,0,0-1.844,1.844v3.688H47.9V40.565A1.742,1.742,0,0,0,46.054,38.721ZM16.844,1.844H42.659V38.721H16.844ZM13.386,42.409V40.565H46.054v1.844Z" transform="translate(-11.542)"/>
      </g>
    </g>
  </g>
</svg>
