<svg xmlns="http://www.w3.org/2000/svg" width="113" height="56" viewBox="0 0 113 56">
  <g id="door_14_left_2" transform="translate(-2058 -3593)">
    <g id="Rectángulo_82" data-name="Rectángulo 82" transform="translate(2058 3593)" fill="none" stroke="#000" stroke-width="1">
      <rect width="113" height="56" rx="5" stroke="none"/>
      <rect x="0.5" y="0.5" width="112" height="55" rx="4.5" fill="none"/>
    </g>
    <g id="Grupo_443" data-name="Grupo 443" transform="translate(1017.543 2775)">
      <path id="Trazado_786" data-name="Trazado 786" d="M-3.01-3.85a1.9,1.9,0,0,1,1.4.56,1.9,1.9,0,0,1,.56,1.4A1.8,1.8,0,0,1-1.61-.543,1.932,1.932,0,0,1-3.01,0h-11.9a1.872,1.872,0,0,1-1.435-.56A2.014,2.014,0,0,1-16.87-2a2.172,2.172,0,0,1,.63-1.54l7.63-8.155a13.934,13.934,0,0,0,2.03-2.783,5.584,5.584,0,0,0,.77-2.642,3.736,3.736,0,0,0-.525-1.96,4.127,4.127,0,0,0-1.365-1.4A3.37,3.37,0,0,0-9.52-21a3.781,3.781,0,0,0-2.065.682,6.96,6.96,0,0,0-1.855,1.8,1.866,1.866,0,0,1-.84.7,2.453,2.453,0,0,1-.77.14,2.087,2.087,0,0,1-1.418-.578,1.757,1.757,0,0,1-.647-1.347,1.956,1.956,0,0,1,.4-1.155,9.474,9.474,0,0,1,1-1.155,10.553,10.553,0,0,1,3.08-2.135,8.033,8.033,0,0,1,3.36-.8,8.121,8.121,0,0,1,4.1.98,6.869,6.869,0,0,1,2.66,2.695,7.915,7.915,0,0,1,.945,3.885A8.879,8.879,0,0,1-2.118-14.3,13.784,13.784,0,0,1-3.605-11.34a21.7,21.7,0,0,1-2.17,2.765L-10.5-3.535l-.385-.315Z" transform="translate(1146 859)"/>
    </g>
    <g id="door-15" transform="translate(-228.563 952.143)">
      <g id="iconfinder_architecture-interior-30_809098" transform="translate(2303.542 2646.857)">
        <path id="Trazado_87" data-name="Trazado 87" d="M46.054,38.721H44.5V1.844A1.742,1.742,0,0,0,42.659,0H16.844A1.742,1.742,0,0,0,15,1.844V38.721H13.386a1.742,1.742,0,0,0-1.844,1.844v3.688H47.9V40.565A1.742,1.742,0,0,0,46.054,38.721ZM16.844,1.844H42.659V38.721H16.844ZM13.386,42.409V40.565H46.054v1.844Z" transform="translate(-11.542)"/>
      </g>
    </g>
    <path id="Trazado_863" data-name="Trazado 863" d="M-5.775,0a.923.923,0,0,1-.682-.264A.869.869,0,0,1-6.721-.9V-13.42l.264.308-2.552,1.54a.891.891,0,0,1-.44.11.824.824,0,0,1-.638-.3.911.911,0,0,1-.264-.6.871.871,0,0,1,.462-.77L-6.3-15.268a1.161,1.161,0,0,1,.66-.132.747.747,0,0,1,.594.253.922.922,0,0,1,.22.627V-.9a.869.869,0,0,1-.264.638A.923.923,0,0,1-5.775,0ZM6.237,0A.833.833,0,0,1,5.61-.264.889.889,0,0,1,5.357-.9V-12.936l.352.132L.451-5.94.363-6.2H8.415a.808.808,0,0,1,.594.242.808.808,0,0,1,.242.594.747.747,0,0,1-.242.561.828.828,0,0,1-.594.231H-.847a.857.857,0,0,1-.605-.264.828.828,0,0,1-.275-.616.822.822,0,0,1,.22-.572l7.018-9.02a.829.829,0,0,1,.352-.275,1.086,1.086,0,0,1,.4-.077.816.816,0,0,1,.616.253.872.872,0,0,1,.242.627V-.9a.889.889,0,0,1-.253.638A.833.833,0,0,1,6.237,0Z" transform="translate(2094 3627)"/>
  </g>
</svg>
