<svg xmlns="http://www.w3.org/2000/svg" width="113" height="56" viewBox="0 0 113 56">
  <g id="door_4_left_1" transform="translate(-2058 -3593)">
    <g id="Rectángulo_82" data-name="Rectángulo 82" transform="translate(2058 3593)" fill="none" stroke="#000" stroke-width="1">
      <rect width="113" height="56" rx="5" stroke="none"/>
      <rect x="0.5" y="0.5" width="112" height="55" rx="4.5" fill="none"/>
    </g>
    <g id="Grupo_443" data-name="Grupo 443" transform="translate(1017.543 2775)">
      <path id="Trazado_808" data-name="Trazado 808" d="M-4.935,0a2.214,2.214,0,0,1-1.61-.613,2.037,2.037,0,0,1-.63-1.522v-17.64l.49.77-2.66,1.61a2.141,2.141,0,0,1-1.12.315,1.91,1.91,0,0,1-1.5-.682,2.179,2.179,0,0,1-.6-1.453,1.994,1.994,0,0,1,1.085-1.82l5.285-3.15A3.2,3.2,0,0,1-4.69-24.5a1.953,1.953,0,0,1,1.488.612,2.134,2.134,0,0,1,.577,1.523v20.23A2.01,2.01,0,0,1-3.273-.613,2.321,2.321,0,0,1-4.935,0Z" transform="translate(1146 859)"/>
    </g>
    <g id="door-15" transform="translate(-228.563 952.143)">
      <g id="iconfinder_architecture-interior-30_809098" transform="translate(2303.542 2646.857)">
        <path id="Trazado_87" data-name="Trazado 87" d="M46.054,38.721H44.5V1.844A1.742,1.742,0,0,0,42.659,0H16.844A1.742,1.742,0,0,0,15,1.844V38.721H13.386a1.742,1.742,0,0,0-1.844,1.844v3.688H47.9V40.565A1.742,1.742,0,0,0,46.054,38.721ZM16.844,1.844H42.659V38.721H16.844ZM13.386,42.409V40.565H46.054v1.844Z" transform="translate(-11.542)"/>
      </g>
    </g>
    <path id="Trazado_851" data-name="Trazado 851" d="M2.453,0a.833.833,0,0,1-.627-.264A.889.889,0,0,1,1.573-.9V-12.936l.352.132L-3.333-5.94-3.421-6.2H4.631a.808.808,0,0,1,.594.242.808.808,0,0,1,.242.594.747.747,0,0,1-.242.561.828.828,0,0,1-.594.231H-4.631a.857.857,0,0,1-.605-.264.828.828,0,0,1-.275-.616.822.822,0,0,1,.22-.572l7.018-9.02a.829.829,0,0,1,.352-.275,1.086,1.086,0,0,1,.4-.077.816.816,0,0,1,.616.253.872.872,0,0,1,.242.627V-.9a.889.889,0,0,1-.253.638A.833.833,0,0,1,2.453,0Z" transform="translate(2094 3627)"/>
  </g>
</svg>
