<svg xmlns="http://www.w3.org/2000/svg" width="113" height="56" viewBox="0 0 113 56">
  <g id="door_8_left_2" transform="translate(-2058 -3593)">
    <g id="Rectángulo_82" data-name="Rectángulo 82" transform="translate(2058 3593)" fill="none" stroke="#000" stroke-width="1">
      <rect width="113" height="56" rx="5" stroke="none"/>
      <rect x="0.5" y="0.5" width="112" height="55" rx="4.5" fill="none"/>
    </g>
    <g id="Grupo_443" data-name="Grupo 443" transform="translate(1017.543 2775)">
      <path id="Trazado_961" data-name="Trazado 961" d="M-3.01-3.85a1.9,1.9,0,0,1,1.4.56,1.9,1.9,0,0,1,.56,1.4A1.8,1.8,0,0,1-1.61-.543,1.932,1.932,0,0,1-3.01,0h-11.9a1.872,1.872,0,0,1-1.435-.56A2.014,2.014,0,0,1-16.87-2a2.172,2.172,0,0,1,.63-1.54l7.63-8.155a13.934,13.934,0,0,0,2.03-2.783,5.584,5.584,0,0,0,.77-2.642,3.736,3.736,0,0,0-.525-1.96,4.127,4.127,0,0,0-1.365-1.4A3.37,3.37,0,0,0-9.52-21a3.781,3.781,0,0,0-2.065.682,6.96,6.96,0,0,0-1.855,1.8,1.866,1.866,0,0,1-.84.7,2.453,2.453,0,0,1-.77.14,2.087,2.087,0,0,1-1.418-.578,1.757,1.757,0,0,1-.647-1.347,1.956,1.956,0,0,1,.4-1.155,9.474,9.474,0,0,1,1-1.155,10.553,10.553,0,0,1,3.08-2.135,8.033,8.033,0,0,1,3.36-.8,8.121,8.121,0,0,1,4.1.98,6.869,6.869,0,0,1,2.66,2.695,7.915,7.915,0,0,1,.945,3.885A8.879,8.879,0,0,1-2.118-14.3,13.784,13.784,0,0,1-3.605-11.34a21.7,21.7,0,0,1-2.17,2.765L-10.5-3.535l-.385-.315Z" transform="translate(1146 859)"/>
    </g>
    <g id="door-15" transform="translate(-228.563 952.143)">
      <g id="iconfinder_architecture-interior-30_809098" transform="translate(2303.542 2646.857)">
        <path id="Trazado_87" data-name="Trazado 87" d="M46.054,38.721H44.5V1.844A1.742,1.742,0,0,0,42.659,0H16.844A1.742,1.742,0,0,0,15,1.844V38.721H13.386a1.742,1.742,0,0,0-1.844,1.844v3.688H47.9V40.565A1.742,1.742,0,0,0,46.054,38.721ZM16.844,1.844H42.659V38.721H16.844ZM13.386,42.409V40.565H46.054v1.844Z" transform="translate(-11.542)"/>
      </g>
    </g>
    <path id="Trazado_956" data-name="Trazado 956" d="M2.189-7.766l-.044-.308a4.8,4.8,0,0,1,1.386.9A4.47,4.47,0,0,1,4.51-5.863a3.561,3.561,0,0,1,.363,1.595,3.944,3.944,0,0,1-.649,2.189A4.686,4.686,0,0,1,2.464-.484,5.165,5.165,0,0,1-.011.11,5.1,5.1,0,0,1-2.475-.484,4.708,4.708,0,0,1-4.224-2.079a3.944,3.944,0,0,1-.649-2.189,3.58,3.58,0,0,1,.407-1.738A4.4,4.4,0,0,1-3.432-7.282a5.634,5.634,0,0,1,1.309-.836l-.11.352a3.825,3.825,0,0,1-1.089-.715,3.811,3.811,0,0,1-.847-1.144,3.42,3.42,0,0,1-.33-1.529A4.041,4.041,0,0,1-3.9-13.31a4.246,4.246,0,0,1,1.628-1.529A4.675,4.675,0,0,1-.011-15.4a4.594,4.594,0,0,1,2.266.561A4.376,4.376,0,0,1,3.872-13.31a3.985,3.985,0,0,1,.605,2.156,3.34,3.34,0,0,1-.352,1.573,3.828,3.828,0,0,1-.869,1.122A4.208,4.208,0,0,1,2.189-7.766Zm-4.906-3.366a2.6,2.6,0,0,0,.363,1.386,2.584,2.584,0,0,0,.99.935A2.788,2.788,0,0,0-.011-8.47a2.707,2.707,0,0,0,1.353-.341,2.718,2.718,0,0,0,.979-.935A2.546,2.546,0,0,0,2.7-11.132a2.509,2.509,0,0,0-.759-1.881A2.679,2.679,0,0,0-.011-13.75a2.679,2.679,0,0,0-1.947.737A2.509,2.509,0,0,0-2.717-11.132ZM-.011-1.54a3.187,3.187,0,0,0,2.233-.792A2.544,2.544,0,0,0,3.091-4.29a2.537,2.537,0,0,0-.418-1.441,2.939,2.939,0,0,0-1.122-.99A3.357,3.357,0,0,0-.011-7.084a3.31,3.31,0,0,0-1.54.363,2.939,2.939,0,0,0-1.122.99A2.537,2.537,0,0,0-3.091-4.29a2.544,2.544,0,0,0,.869,1.958A3.156,3.156,0,0,0-.011-1.54Z" transform="translate(2094 3627)"/>
  </g>
</svg>
