<svg xmlns="http://www.w3.org/2000/svg" width="113" height="56" viewBox="0 0 113 56">
  <g id="door_9_left_5" transform="translate(-2058 -3593)">
    <g id="Rectángulo_82" data-name="Rectángulo 82" transform="translate(2058 3593)" fill="none" stroke="#000" stroke-width="1">
      <rect width="113" height="56" rx="5" stroke="none"/>
      <rect x="0.5" y="0.5" width="112" height="55" rx="4.5" fill="none"/>
    </g>
    <g id="Grupo_443" data-name="Grupo 443" transform="translate(1017.543 2775)">
      <path id="Trazado_945" data-name="Trazado 945" d="M-12.04.35a10.492,10.492,0,0,1-2.765-.4A6.485,6.485,0,0,1-17.22-1.225a2.645,2.645,0,0,1-.718-1A2.975,2.975,0,0,1-18.2-3.395a1.6,1.6,0,0,1,.507-1.12A1.927,1.927,0,0,1-16.24-5.04a2.969,2.969,0,0,1,1.575.665,8.613,8.613,0,0,0,1.225.63,3.486,3.486,0,0,0,1.365.28A5.658,5.658,0,0,0-9.362-4.13,5.464,5.464,0,0,0-7.367-5.915,4.248,4.248,0,0,0-6.615-8.33a4.092,4.092,0,0,0-.612-2.275,4.242,4.242,0,0,0-1.61-1.47A4.552,4.552,0,0,0-10.99-12.6a4.711,4.711,0,0,0-1.89.35q-.805.35-1.47.718a2.728,2.728,0,0,1-1.33.367,2.49,2.49,0,0,1-1.715-.507,2.175,2.175,0,0,1-.7-1.208,3.955,3.955,0,0,1-.07-1.26l1.085-8.68a2,2,0,0,1,.718-1.208A2.114,2.114,0,0,1-14.98-24.5H-4.865a1.9,1.9,0,0,1,1.4.56,1.9,1.9,0,0,1,.56,1.4,1.8,1.8,0,0,1-.56,1.347,1.932,1.932,0,0,1-1.4.542h-9.03l.385-.315-.945,7.28-.455-1.33A1.988,1.988,0,0,1-14-15.68a9.617,9.617,0,0,1,1.61-.542A7.343,7.343,0,0,1-10.6-16.45a8.267,8.267,0,0,1,4.2,1.068,7.847,7.847,0,0,1,2.922,2.9A8.1,8.1,0,0,1-2.415-8.33a7.626,7.626,0,0,1-.77,3.395A8.843,8.843,0,0,1-5.3-2.17,10.05,10.05,0,0,1-8.382-.315,10.118,10.118,0,0,1-12.04.35Z" transform="translate(1146 859)"/>
    </g>
    <g id="door-15" transform="translate(-228.563 952.143)">
      <g id="iconfinder_architecture-interior-30_809098" transform="translate(2303.542 2646.857)">
        <path id="Trazado_87" data-name="Trazado 87" d="M46.054,38.721H44.5V1.844A1.742,1.742,0,0,0,42.659,0H16.844A1.742,1.742,0,0,0,15,1.844V38.721H13.386a1.742,1.742,0,0,0-1.844,1.844v3.688H47.9V40.565A1.742,1.742,0,0,0,46.054,38.721ZM16.844,1.844H42.659V38.721H16.844ZM13.386,42.409V40.565H46.054v1.844Z" transform="translate(-11.542)"/>
      </g>
    </g>
    <path id="Trazado_916" data-name="Trazado 916" d="M-.044-15.664a4.929,4.929,0,0,1,2.211.473A4.568,4.568,0,0,1,3.762-13.9a5.9,5.9,0,0,1,.968,1.826,6.7,6.7,0,0,1,.33,2.09,10.325,10.325,0,0,1-.242,2.1,13.056,13.056,0,0,1-.737,2.343A11.445,11.445,0,0,1,2.794-3.256,9.8,9.8,0,0,1,.9-1.287,8.756,8.756,0,0,1-1.628.088,1.644,1.644,0,0,1-1.98.132a.976.976,0,0,1-.627-.22.794.794,0,0,1-.275-.66.8.8,0,0,1,.2-.539,1.16,1.16,0,0,1,.528-.341A7.723,7.723,0,0,0,.121-2.981,9.665,9.665,0,0,0,2.013-5.126,7.24,7.24,0,0,0,3.08-7.744l.528-.176a4.8,4.8,0,0,1-.924,1.111,4.851,4.851,0,0,1-1.331.847,4.177,4.177,0,0,1-1.683.33,4.066,4.066,0,0,1-1.8-.407A4.825,4.825,0,0,1-3.608-7.15a5.3,5.3,0,0,1-1-1.617,5.1,5.1,0,0,1-.363-1.9,4.875,4.875,0,0,1,.649-2.486,5.118,5.118,0,0,1,1.771-1.815A4.677,4.677,0,0,1-.044-15.664Zm.022,1.65a3.081,3.081,0,0,0-1.617.429,3.121,3.121,0,0,0-1.133,1.177A3.5,3.5,0,0,0-3.19-10.67a3.8,3.8,0,0,0,.374,1.661A3.011,3.011,0,0,0-1.738-7.766,2.939,2.939,0,0,0-.088-7.3a3.324,3.324,0,0,0,1.782-.462A3.141,3.141,0,0,0,2.849-9.009a3.634,3.634,0,0,0,.407-1.7,3.407,3.407,0,0,0-.4-1.639,3.17,3.17,0,0,0-1.133-1.2A3.225,3.225,0,0,0-.022-14.014Z" transform="translate(2094 3627)"/>
  </g>
</svg>
