<svg xmlns="http://www.w3.org/2000/svg" width="113" height="56" viewBox="0 0 113 56">
  <g id="door_5_left_5" transform="translate(-2058 -3593)">
    <g id="Rectángulo_82" data-name="Rectángulo 82" transform="translate(2058 3593)" fill="none" stroke="#000" stroke-width="1">
      <rect width="113" height="56" rx="5" stroke="none"/>
      <rect x="0.5" y="0.5" width="112" height="55" rx="4.5" fill="none"/>
    </g>
    <g id="Grupo_443" data-name="Grupo 443" transform="translate(1017.543 2775)">
      <path id="Trazado_827" data-name="Trazado 827" d="M-12.04.35a10.492,10.492,0,0,1-2.765-.4A6.485,6.485,0,0,1-17.22-1.225a2.645,2.645,0,0,1-.718-1A2.975,2.975,0,0,1-18.2-3.395a1.6,1.6,0,0,1,.507-1.12A1.927,1.927,0,0,1-16.24-5.04a2.969,2.969,0,0,1,1.575.665,8.613,8.613,0,0,0,1.225.63,3.486,3.486,0,0,0,1.365.28A5.658,5.658,0,0,0-9.362-4.13,5.464,5.464,0,0,0-7.367-5.915,4.248,4.248,0,0,0-6.615-8.33a4.092,4.092,0,0,0-.612-2.275,4.242,4.242,0,0,0-1.61-1.47A4.552,4.552,0,0,0-10.99-12.6a4.711,4.711,0,0,0-1.89.35q-.805.35-1.47.718a2.728,2.728,0,0,1-1.33.367,2.49,2.49,0,0,1-1.715-.507,2.175,2.175,0,0,1-.7-1.208,3.955,3.955,0,0,1-.07-1.26l1.085-8.68a2,2,0,0,1,.718-1.208A2.114,2.114,0,0,1-14.98-24.5H-4.865a1.9,1.9,0,0,1,1.4.56,1.9,1.9,0,0,1,.56,1.4,1.8,1.8,0,0,1-.56,1.347,1.932,1.932,0,0,1-1.4.542h-9.03l.385-.315-.945,7.28-.455-1.33A1.988,1.988,0,0,1-14-15.68a9.617,9.617,0,0,1,1.61-.542A7.343,7.343,0,0,1-10.6-16.45a8.267,8.267,0,0,1,4.2,1.068,7.847,7.847,0,0,1,2.922,2.9A8.1,8.1,0,0,1-2.415-8.33a7.626,7.626,0,0,1-.77,3.395A8.843,8.843,0,0,1-5.3-2.17,10.05,10.05,0,0,1-8.382-.315,10.118,10.118,0,0,1-12.04.35Z" transform="translate(1146 859)"/>
    </g>
    <g id="door-15" transform="translate(-228.563 952.143)">
      <g id="iconfinder_architecture-interior-30_809098" transform="translate(2303.542 2646.857)">
        <path id="Trazado_87" data-name="Trazado 87" d="M46.054,38.721H44.5V1.844A1.742,1.742,0,0,0,42.659,0H16.844A1.742,1.742,0,0,0,15,1.844V38.721H13.386a1.742,1.742,0,0,0-1.844,1.844v3.688H47.9V40.565A1.742,1.742,0,0,0,46.054,38.721ZM16.844,1.844H42.659V38.721H16.844ZM13.386,42.409V40.565H46.054v1.844Z" transform="translate(-11.542)"/>
      </g>
    </g>
    <path id="Trazado_832" data-name="Trazado 832" d="M-1.111.11A5.978,5.978,0,0,1-2.9-.176,4.794,4.794,0,0,1-4.5-1.012a1.148,1.148,0,0,1-.286-.4A1.117,1.117,0,0,1-4.9-1.87a.767.767,0,0,1,.231-.517.781.781,0,0,1,.605-.253,1.146,1.146,0,0,1,.66.286,4.053,4.053,0,0,0,1.078.594,3.4,3.4,0,0,0,1.188.22A4.306,4.306,0,0,0,.935-2.024,3.649,3.649,0,0,0,2.354-3.355a3.58,3.58,0,0,0,.517-1.9A3.4,3.4,0,0,0,2.42-7.029,3.082,3.082,0,0,0,1.166-8.206,3.92,3.92,0,0,0-.671-8.624a3.925,3.925,0,0,0-1.386.231,8.139,8.139,0,0,0-1.056.473,1.608,1.608,0,0,1-.726.242,1.054,1.054,0,0,1-.66-.187.871.871,0,0,1-.319-.473,1.2,1.2,0,0,1-.033-.528l.858-5.83a.917.917,0,0,1,.308-.5.877.877,0,0,1,.594-.209H3.443a.808.808,0,0,1,.594.242.808.808,0,0,1,.242.594.808.808,0,0,1-.242.594.808.808,0,0,1-.594.242H-2.651l.22-.2-.814,5.082L-3.6-9.306a2.812,2.812,0,0,1,.737-.44,6.546,6.546,0,0,1,1.144-.374,5.745,5.745,0,0,1,1.331-.154,5.063,5.063,0,0,1,2.563.649A4.831,4.831,0,0,1,3.971-7.854a4.981,4.981,0,0,1,.66,2.574A5.286,5.286,0,0,1,4.2-3.135,5.1,5.1,0,0,1,2.992-1.43,5.679,5.679,0,0,1,1.166-.3,6.221,6.221,0,0,1-1.111.11Z" transform="translate(2094 3627)"/>
  </g>
</svg>
