<svg xmlns="http://www.w3.org/2000/svg" width="113" height="56" viewBox="0 0 113 56">
  <g id="door_7_left_8" transform="translate(-2058 -3593)">
    <g id="Rectángulo_82" data-name="Rectángulo 82" transform="translate(2058 3593)" fill="none" stroke="#000" stroke-width="1">
      <rect width="113" height="56" rx="5" stroke="none"/>
      <rect x="0.5" y="0.5" width="112" height="55" rx="4.5" fill="none"/>
    </g>
    <g id="Grupo_443" data-name="Grupo 443" transform="translate(1017.543 2775)">
      <path id="Trazado_939" data-name="Trazado 939" d="M-6.37-12.425l-.07-.805a8,8,0,0,1,2.31,1.54,6.989,6.989,0,0,1,1.5,2.065A5.385,5.385,0,0,1-2.1-7.315,6.48,6.48,0,0,1-3.2-3.658,8.053,8.053,0,0,1-6.16-1a8.58,8.58,0,0,1-4.13,1,8.58,8.58,0,0,1-4.13-1,8.053,8.053,0,0,1-2.958-2.66,6.48,6.48,0,0,1-1.1-3.658A5.435,5.435,0,0,1-17.8-10.1a6.844,6.844,0,0,1,1.715-1.977,13.243,13.243,0,0,1,2.048-1.33l-.28.98a6.877,6.877,0,0,1-1.7-1,5.006,5.006,0,0,1-1.347-1.662,5.113,5.113,0,0,1-.525-2.38,6.472,6.472,0,0,1,1.015-3.552,7.386,7.386,0,0,1,2.747-2.537A7.872,7.872,0,0,1-10.29-24.5a7.744,7.744,0,0,1,3.832.945,7.463,7.463,0,0,1,2.713,2.537A6.472,6.472,0,0,1-2.73-17.465a4.913,4.913,0,0,1-.6,2.52,5.082,5.082,0,0,1-1.435,1.61A8.173,8.173,0,0,1-6.37-12.425Zm-7.315-4.97a3.221,3.221,0,0,0,.438,1.68,3.238,3.238,0,0,0,1.207,1.173,3.479,3.479,0,0,0,1.75.438,3.384,3.384,0,0,0,1.733-.437,3.277,3.277,0,0,0,1.19-1.173A3.221,3.221,0,0,0-6.93-17.4a3.1,3.1,0,0,0-.962-2.327,3.319,3.319,0,0,0-2.4-.927,3.364,3.364,0,0,0-2.432.927A3.1,3.1,0,0,0-13.685-17.4ZM-10.29-3.85A4.1,4.1,0,0,0-7.455-4.883,3.236,3.236,0,0,0-6.3-7.385,3.258,3.258,0,0,0-6.825-9.2,3.721,3.721,0,0,0-8.26-10.483a4.339,4.339,0,0,0-2.03-.472,4.339,4.339,0,0,0-2.03.472A3.721,3.721,0,0,0-13.755-9.2a3.258,3.258,0,0,0-.525,1.82,3.236,3.236,0,0,0,1.155,2.5A4.1,4.1,0,0,0-10.29-3.85Z" transform="translate(1146 859)" opacity="0.998"/>
    </g>
    <g id="door-15" transform="translate(-228.563 952.143)">
      <g id="iconfinder_architecture-interior-30_809098" transform="translate(2303.542 2646.857)">
        <path id="Trazado_87" data-name="Trazado 87" d="M46.054,38.721H44.5V1.844A1.742,1.742,0,0,0,42.659,0H16.844A1.742,1.742,0,0,0,15,1.844V38.721H13.386a1.742,1.742,0,0,0-1.844,1.844v3.688H47.9V40.565A1.742,1.742,0,0,0,46.054,38.721ZM16.844,1.844H42.659V38.721H16.844ZM13.386,42.409V40.565H46.054v1.844Z" transform="translate(-11.542)"/>
      </g>
    </g>
    <path id="Trazado_922" data-name="Trazado 922" d="M-1.749.088a.963.963,0,0,1-.638-.242A.772.772,0,0,1-2.673-.77a.968.968,0,0,1,.088-.4l5.7-12.98.242.4H-3.729a.808.808,0,0,1-.594-.242.808.808,0,0,1-.242-.594.772.772,0,0,1,.242-.583.828.828,0,0,1,.594-.231H4.213a.916.916,0,0,1,.66.231.8.8,0,0,1,.242.6,1.018,1.018,0,0,1-.088.418L-.935-.484a.789.789,0,0,1-.319.418A.876.876,0,0,1-1.749.088Z" transform="translate(2094 3627)"/>
  </g>
</svg>
