<svg xmlns="http://www.w3.org/2000/svg" width="113" height="56" viewBox="0 0 113 56">
  <g id="door_2_left_1" transform="translate(-2058 -3593)">
    <g id="Rectángulo_82" data-name="Rectángulo 82" transform="translate(2058 3593)" fill="none" stroke="#000" stroke-width="1">
      <rect width="113" height="56" rx="5" stroke="none"/>
      <rect x="0.5" y="0.5" width="112" height="55" rx="4.5" fill="none"/>
    </g>
    <g id="Grupo_443" data-name="Grupo 443" transform="translate(1017.543 2775)">
      <path id="Trazado_795" data-name="Trazado 795" d="M-4.935,0a2.214,2.214,0,0,1-1.61-.613,2.037,2.037,0,0,1-.63-1.522v-17.64l.49.77-2.66,1.61a2.141,2.141,0,0,1-1.12.315,1.91,1.91,0,0,1-1.5-.682,2.179,2.179,0,0,1-.6-1.453,1.994,1.994,0,0,1,1.085-1.82l5.285-3.15A3.2,3.2,0,0,1-4.69-24.5a1.953,1.953,0,0,1,1.488.612,2.134,2.134,0,0,1,.577,1.523v20.23A2.01,2.01,0,0,1-3.273-.613,2.321,2.321,0,0,1-4.935,0Z" transform="translate(1146 859)"/>
    </g>
    <g id="door-15" transform="translate(-228.563 952.143)">
      <g id="iconfinder_architecture-interior-30_809098" transform="translate(2303.542 2646.857)">
        <path id="Trazado_87" data-name="Trazado 87" d="M46.054,38.721H44.5V1.844A1.742,1.742,0,0,0,42.659,0H16.844A1.742,1.742,0,0,0,15,1.844V38.721H13.386a1.742,1.742,0,0,0-1.844,1.844v3.688H47.9V40.565A1.742,1.742,0,0,0,46.054,38.721ZM16.844,1.844H42.659V38.721H16.844ZM13.386,42.409V40.565H46.054v1.844Z" transform="translate(-11.542)"/>
      </g>
    </g>
    <path id="Trazado_873" data-name="Trazado 873" d="M4.411-1.65a.808.808,0,0,1,.594.242.808.808,0,0,1,.242.594.772.772,0,0,1-.242.583A.828.828,0,0,1,4.411,0H-3.575a.925.925,0,0,1-.649-.231.807.807,0,0,1-.253-.627A.919.919,0,0,1-4.213-1.5L.759-6.93a11.635,11.635,0,0,0,1.65-2.145,3.917,3.917,0,0,0,.572-1.947A3.046,3.046,0,0,0,2.6-12.584a2.654,2.654,0,0,0-1.067-1.023A3.371,3.371,0,0,0-.077-13.97a3.326,3.326,0,0,0-1.683.462,3.155,3.155,0,0,0-1.265,1.43.944.944,0,0,1-.341.341.813.813,0,0,1-.385.1.935.935,0,0,1-.594-.231.679.679,0,0,1-.286-.539.835.835,0,0,1,.143-.462,5.28,5.28,0,0,1,.341-.462,4.613,4.613,0,0,1,1.826-1.694A5.05,5.05,0,0,1,.033-15.62a5.356,5.356,0,0,1,2.563.572,3.925,3.925,0,0,1,1.628,1.595,4.747,4.747,0,0,1,.561,2.321,5.252,5.252,0,0,1-.3,1.7,7.821,7.821,0,0,1-.913,1.793A15.327,15.327,0,0,1,2.013-5.7L-1.837-1.43l-.22-.22Z" transform="translate(2094 3627)"/>
  </g>
</svg>
