<svg xmlns="http://www.w3.org/2000/svg" width="113" height="56" viewBox="0 0 113 56">
  <g id="door_5_left_3" transform="translate(-2058 -3593)">
    <g id="Rectángulo_82" data-name="Rectángulo 82" transform="translate(2058 3593)" fill="none" stroke="#000" stroke-width="1">
      <rect width="113" height="56" rx="5" stroke="none"/>
      <rect x="0.5" y="0.5" width="112" height="55" rx="4.5" fill="none"/>
    </g>
    <g id="Grupo_443" data-name="Grupo 443" transform="translate(1017.543 2775)">
      <path id="Trazado_829" data-name="Trazado 829" d="M-14.7-4.935a2.5,2.5,0,0,1,.683.105,2.89,2.89,0,0,1,.822.42,6.537,6.537,0,0,0,1.418.8,4.839,4.839,0,0,0,1.907.35A4.106,4.106,0,0,0-7.823-3.8,4.464,4.464,0,0,0-6.23-5.338a4.4,4.4,0,0,0,.63-2.4A4.118,4.118,0,0,0-6.142-9.94a3.574,3.574,0,0,0-1.435-1.33,4.141,4.141,0,0,0-1.908-.455,4.9,4.9,0,0,0-1.278.14q-.507.14-.98.3a3.49,3.49,0,0,1-1.1.158,1.485,1.485,0,0,1-1.243-.56,2.1,2.1,0,0,1-.437-1.33,1.93,1.93,0,0,1,.193-.875,4.353,4.353,0,0,1,.577-.84l6.16-6.72.945.805h-8.61a1.9,1.9,0,0,1-1.4-.56,1.9,1.9,0,0,1-.56-1.4,1.8,1.8,0,0,1,.56-1.347,1.932,1.932,0,0,1,1.4-.543H-4.55a2.094,2.094,0,0,1,1.628.595A2.148,2.148,0,0,1-2.38-22.4a1.813,1.813,0,0,1-.227.875,3.506,3.506,0,0,1-.612.8l-6.2,6.825-.945-1.19A5.194,5.194,0,0,1-9.293-15.4a5.856,5.856,0,0,1,1.137-.14,6.09,6.09,0,0,1,3.587,1.067,7.1,7.1,0,0,1,2.345,2.765A8.277,8.277,0,0,1-1.4-8.05,8.423,8.423,0,0,1-2.555-3.57,7.582,7.582,0,0,1-5.81-.665,11.14,11.14,0,0,1-10.71.35,10.5,10.5,0,0,1-13.265.035a8.419,8.419,0,0,1-2.17-.84,2.4,2.4,0,0,1-1.033-.927,2.1,2.1,0,0,1-.262-.962,2.39,2.39,0,0,1,.577-1.522A1.79,1.79,0,0,1-14.7-4.935Z" transform="translate(1146 859)"/>
    </g>
    <g id="door-15" transform="translate(-228.563 952.143)">
      <g id="iconfinder_architecture-interior-30_809098" transform="translate(2303.542 2646.857)">
        <path id="Trazado_87" data-name="Trazado 87" d="M46.054,38.721H44.5V1.844A1.742,1.742,0,0,0,42.659,0H16.844A1.742,1.742,0,0,0,15,1.844V38.721H13.386a1.742,1.742,0,0,0-1.844,1.844v3.688H47.9V40.565A1.742,1.742,0,0,0,46.054,38.721ZM16.844,1.844H42.659V38.721H16.844ZM13.386,42.409V40.565H46.054v1.844Z" transform="translate(-11.542)"/>
      </g>
    </g>
    <path id="Trazado_830" data-name="Trazado 830" d="M-1.111.11A5.978,5.978,0,0,1-2.9-.176,4.794,4.794,0,0,1-4.5-1.012a1.148,1.148,0,0,1-.286-.4A1.117,1.117,0,0,1-4.9-1.87a.767.767,0,0,1,.231-.517.781.781,0,0,1,.605-.253,1.146,1.146,0,0,1,.66.286,4.053,4.053,0,0,0,1.078.594,3.4,3.4,0,0,0,1.188.22A4.306,4.306,0,0,0,.935-2.024,3.649,3.649,0,0,0,2.354-3.355a3.58,3.58,0,0,0,.517-1.9A3.4,3.4,0,0,0,2.42-7.029,3.082,3.082,0,0,0,1.166-8.206,3.92,3.92,0,0,0-.671-8.624a3.925,3.925,0,0,0-1.386.231,8.139,8.139,0,0,0-1.056.473,1.608,1.608,0,0,1-.726.242,1.054,1.054,0,0,1-.66-.187.871.871,0,0,1-.319-.473,1.2,1.2,0,0,1-.033-.528l.858-5.83a.917.917,0,0,1,.308-.5.877.877,0,0,1,.594-.209H3.443a.808.808,0,0,1,.594.242.808.808,0,0,1,.242.594.808.808,0,0,1-.242.594.808.808,0,0,1-.594.242H-2.651l.22-.2-.814,5.082L-3.6-9.306a2.812,2.812,0,0,1,.737-.44,6.546,6.546,0,0,1,1.144-.374,5.745,5.745,0,0,1,1.331-.154,5.063,5.063,0,0,1,2.563.649A4.831,4.831,0,0,1,3.971-7.854a4.981,4.981,0,0,1,.66,2.574A5.286,5.286,0,0,1,4.2-3.135,5.1,5.1,0,0,1,2.992-1.43,5.679,5.679,0,0,1,1.166-.3,6.221,6.221,0,0,1-1.111.11Z" transform="translate(2094 3627)"/>
  </g>
</svg>
