<svg xmlns="http://www.w3.org/2000/svg" width="113" height="56" viewBox="0 0 113 56">
  <g id="door_7_left_7" transform="translate(-2058 -3593)">
    <g id="Rectángulo_82" data-name="Rectángulo 82" transform="translate(2058 3593)" fill="none" stroke="#000" stroke-width="1">
      <rect width="113" height="56" rx="5" stroke="none"/>
      <rect x="0.5" y="0.5" width="112" height="55" rx="4.5" fill="none"/>
    </g>
    <g id="Grupo_443" data-name="Grupo 443" transform="translate(1017.543 2775)">
      <path id="Trazado_938" data-name="Trazado 938" d="M-12.74.175A2.214,2.214,0,0,1-14.263-.4a1.864,1.864,0,0,1-.648-1.453A2.231,2.231,0,0,1-14.7-2.8l8.575-18.795.385.945H-15.855a1.9,1.9,0,0,1-1.4-.56,1.9,1.9,0,0,1-.56-1.4,1.8,1.8,0,0,1,.56-1.347,1.932,1.932,0,0,1,1.4-.543h12.18a2.39,2.39,0,0,1,1.593.577A1.859,1.859,0,0,1-1.4-22.435a2.394,2.394,0,0,1-.21.945L-10.815-1.155a1.991,1.991,0,0,1-.787.98A2.066,2.066,0,0,1-12.74.175Z" transform="translate(1146 859)" opacity="0.998"/>
    </g>
    <g id="door-15" transform="translate(-228.563 952.143)">
      <g id="iconfinder_architecture-interior-30_809098" transform="translate(2303.542 2646.857)">
        <path id="Trazado_87" data-name="Trazado 87" d="M46.054,38.721H44.5V1.844A1.742,1.742,0,0,0,42.659,0H16.844A1.742,1.742,0,0,0,15,1.844V38.721H13.386a1.742,1.742,0,0,0-1.844,1.844v3.688H47.9V40.565A1.742,1.742,0,0,0,46.054,38.721ZM16.844,1.844H42.659V38.721H16.844ZM13.386,42.409V40.565H46.054v1.844Z" transform="translate(-11.542)"/>
      </g>
    </g>
    <path id="Trazado_923" data-name="Trazado 923" d="M-1.749.088a.963.963,0,0,1-.638-.242A.772.772,0,0,1-2.673-.77a.968.968,0,0,1,.088-.4l5.7-12.98.242.4H-3.729a.808.808,0,0,1-.594-.242.808.808,0,0,1-.242-.594.772.772,0,0,1,.242-.583.828.828,0,0,1,.594-.231H4.213a.916.916,0,0,1,.66.231.8.8,0,0,1,.242.6,1.018,1.018,0,0,1-.088.418L-.935-.484a.789.789,0,0,1-.319.418A.876.876,0,0,1-1.749.088Z" transform="translate(2094 3627)"/>
  </g>
</svg>
