<svg xmlns="http://www.w3.org/2000/svg" width="113" height="56" viewBox="0 0 113 56">
  <g id="door_2_left_0" transform="translate(-2058 -3593)">
    <g id="Rectángulo_82" data-name="Rectángulo 82" transform="translate(2058 3593)" fill="none" stroke="#000" stroke-width="1">
      <rect width="113" height="56" rx="5" stroke="none"/>
      <rect x="0.5" y="0.5" width="112" height="55" rx="4.5" fill="none"/>
    </g>
    <g id="Grupo_443" data-name="Grupo 443" transform="translate(1017.543 2775)">
      <path id="Trazado_796" data-name="Trazado 796" d="M-10.745.35a8.136,8.136,0,0,1-5.093-1.593A9.827,9.827,0,0,1-19-5.687,18.383,18.383,0,0,1-20.09-12.25,18.348,18.348,0,0,1-19-18.83a9.836,9.836,0,0,1,3.167-4.427,8.136,8.136,0,0,1,5.093-1.592,8.136,8.136,0,0,1,5.092,1.592A9.836,9.836,0,0,1-2.485-18.83,18.348,18.348,0,0,1-1.4-12.25,18.383,18.383,0,0,1-2.485-5.687,9.827,9.827,0,0,1-5.653-1.243,8.136,8.136,0,0,1-10.745.35Zm0-4.2a3.742,3.742,0,0,0,2.537-.928,6.033,6.033,0,0,0,1.662-2.8,15.645,15.645,0,0,0,.6-4.673,15.61,15.61,0,0,0-.6-4.69,6.029,6.029,0,0,0-1.662-2.782,3.742,3.742,0,0,0-2.537-.927,3.761,3.761,0,0,0-2.52.927,5.95,5.95,0,0,0-1.68,2.782,15.61,15.61,0,0,0-.595,4.69,15.645,15.645,0,0,0,.595,4.673,5.954,5.954,0,0,0,1.68,2.8A3.761,3.761,0,0,0-10.745-3.85Z" transform="translate(1146 859)"/>
    </g>
    <g id="door-15" transform="translate(-228.563 952.143)">
      <g id="iconfinder_architecture-interior-30_809098" transform="translate(2303.542 2646.857)">
        <path id="Trazado_87" data-name="Trazado 87" d="M46.054,38.721H44.5V1.844A1.742,1.742,0,0,0,42.659,0H16.844A1.742,1.742,0,0,0,15,1.844V38.721H13.386a1.742,1.742,0,0,0-1.844,1.844v3.688H47.9V40.565A1.742,1.742,0,0,0,46.054,38.721ZM16.844,1.844H42.659V38.721H16.844ZM13.386,42.409V40.565H46.054v1.844Z" transform="translate(-11.542)"/>
      </g>
    </g>
    <path id="Trazado_874" data-name="Trazado 874" d="M4.411-1.65a.808.808,0,0,1,.594.242.808.808,0,0,1,.242.594.772.772,0,0,1-.242.583A.828.828,0,0,1,4.411,0H-3.575a.925.925,0,0,1-.649-.231.807.807,0,0,1-.253-.627A.919.919,0,0,1-4.213-1.5L.759-6.93a11.635,11.635,0,0,0,1.65-2.145,3.917,3.917,0,0,0,.572-1.947A3.046,3.046,0,0,0,2.6-12.584a2.654,2.654,0,0,0-1.067-1.023A3.371,3.371,0,0,0-.077-13.97a3.326,3.326,0,0,0-1.683.462,3.155,3.155,0,0,0-1.265,1.43.944.944,0,0,1-.341.341.813.813,0,0,1-.385.1.935.935,0,0,1-.594-.231.679.679,0,0,1-.286-.539.835.835,0,0,1,.143-.462,5.28,5.28,0,0,1,.341-.462,4.613,4.613,0,0,1,1.826-1.694A5.05,5.05,0,0,1,.033-15.62a5.356,5.356,0,0,1,2.563.572,3.925,3.925,0,0,1,1.628,1.595,4.747,4.747,0,0,1,.561,2.321,5.252,5.252,0,0,1-.3,1.7,7.821,7.821,0,0,1-.913,1.793A15.327,15.327,0,0,1,2.013-5.7L-1.837-1.43l-.22-.22Z" transform="translate(2094 3627)"/>
  </g>
</svg>
