<svg xmlns="http://www.w3.org/2000/svg" width="113" height="56" viewBox="0 0 113 56">
  <g id="door_8_left_5" transform="translate(-2058 -3593)">
    <g id="Rectángulo_82" data-name="Rectángulo 82" transform="translate(2058 3593)" fill="none" stroke="#000" stroke-width="1">
      <rect width="113" height="56" rx="5" stroke="none"/>
      <rect x="0.5" y="0.5" width="112" height="55" rx="4.5" fill="none"/>
    </g>
    <g id="Grupo_443" data-name="Grupo 443" transform="translate(1017.543 2775)">
      <path id="Trazado_964" data-name="Trazado 964" d="M-12.04.35a10.492,10.492,0,0,1-2.765-.4A6.485,6.485,0,0,1-17.22-1.225a2.645,2.645,0,0,1-.718-1A2.975,2.975,0,0,1-18.2-3.395a1.6,1.6,0,0,1,.507-1.12A1.927,1.927,0,0,1-16.24-5.04a2.969,2.969,0,0,1,1.575.665,8.613,8.613,0,0,0,1.225.63,3.486,3.486,0,0,0,1.365.28A5.658,5.658,0,0,0-9.362-4.13,5.464,5.464,0,0,0-7.367-5.915,4.248,4.248,0,0,0-6.615-8.33a4.092,4.092,0,0,0-.612-2.275,4.242,4.242,0,0,0-1.61-1.47A4.552,4.552,0,0,0-10.99-12.6a4.711,4.711,0,0,0-1.89.35q-.805.35-1.47.718a2.728,2.728,0,0,1-1.33.367,2.49,2.49,0,0,1-1.715-.507,2.175,2.175,0,0,1-.7-1.208,3.955,3.955,0,0,1-.07-1.26l1.085-8.68a2,2,0,0,1,.718-1.208A2.114,2.114,0,0,1-14.98-24.5H-4.865a1.9,1.9,0,0,1,1.4.56,1.9,1.9,0,0,1,.56,1.4,1.8,1.8,0,0,1-.56,1.347,1.932,1.932,0,0,1-1.4.542h-9.03l.385-.315-.945,7.28-.455-1.33A1.988,1.988,0,0,1-14-15.68a9.617,9.617,0,0,1,1.61-.542A7.343,7.343,0,0,1-10.6-16.45a8.267,8.267,0,0,1,4.2,1.068,7.847,7.847,0,0,1,2.922,2.9A8.1,8.1,0,0,1-2.415-8.33a7.626,7.626,0,0,1-.77,3.395A8.843,8.843,0,0,1-5.3-2.17,10.05,10.05,0,0,1-8.382-.315,10.118,10.118,0,0,1-12.04.35Z" transform="translate(1146 859)"/>
    </g>
    <g id="door-15" transform="translate(-228.563 952.143)">
      <g id="iconfinder_architecture-interior-30_809098" transform="translate(2303.542 2646.857)">
        <path id="Trazado_87" data-name="Trazado 87" d="M46.054,38.721H44.5V1.844A1.742,1.742,0,0,0,42.659,0H16.844A1.742,1.742,0,0,0,15,1.844V38.721H13.386a1.742,1.742,0,0,0-1.844,1.844v3.688H47.9V40.565A1.742,1.742,0,0,0,46.054,38.721ZM16.844,1.844H42.659V38.721H16.844ZM13.386,42.409V40.565H46.054v1.844Z" transform="translate(-11.542)"/>
      </g>
    </g>
    <path id="Trazado_953" data-name="Trazado 953" d="M2.189-7.766l-.044-.308a4.8,4.8,0,0,1,1.386.9A4.47,4.47,0,0,1,4.51-5.863a3.561,3.561,0,0,1,.363,1.595,3.944,3.944,0,0,1-.649,2.189A4.686,4.686,0,0,1,2.464-.484,5.165,5.165,0,0,1-.011.11,5.1,5.1,0,0,1-2.475-.484,4.708,4.708,0,0,1-4.224-2.079a3.944,3.944,0,0,1-.649-2.189,3.58,3.58,0,0,1,.407-1.738A4.4,4.4,0,0,1-3.432-7.282a5.634,5.634,0,0,1,1.309-.836l-.11.352a3.825,3.825,0,0,1-1.089-.715,3.811,3.811,0,0,1-.847-1.144,3.42,3.42,0,0,1-.33-1.529A4.041,4.041,0,0,1-3.9-13.31a4.246,4.246,0,0,1,1.628-1.529A4.675,4.675,0,0,1-.011-15.4a4.594,4.594,0,0,1,2.266.561A4.376,4.376,0,0,1,3.872-13.31a3.985,3.985,0,0,1,.605,2.156,3.34,3.34,0,0,1-.352,1.573,3.828,3.828,0,0,1-.869,1.122A4.208,4.208,0,0,1,2.189-7.766Zm-4.906-3.366a2.6,2.6,0,0,0,.363,1.386,2.584,2.584,0,0,0,.99.935A2.788,2.788,0,0,0-.011-8.47a2.707,2.707,0,0,0,1.353-.341,2.718,2.718,0,0,0,.979-.935A2.546,2.546,0,0,0,2.7-11.132a2.509,2.509,0,0,0-.759-1.881A2.679,2.679,0,0,0-.011-13.75a2.679,2.679,0,0,0-1.947.737A2.509,2.509,0,0,0-2.717-11.132ZM-.011-1.54a3.187,3.187,0,0,0,2.233-.792A2.544,2.544,0,0,0,3.091-4.29a2.537,2.537,0,0,0-.418-1.441,2.939,2.939,0,0,0-1.122-.99A3.357,3.357,0,0,0-.011-7.084a3.31,3.31,0,0,0-1.54.363,2.939,2.939,0,0,0-1.122.99A2.537,2.537,0,0,0-3.091-4.29a2.544,2.544,0,0,0,.869,1.958A3.156,3.156,0,0,0-.011-1.54Z" transform="translate(2094 3627)"/>
  </g>
</svg>
