<svg xmlns="http://www.w3.org/2000/svg" width="113" height="56" viewBox="0 0 113 56">
  <g id="door_9_left_2" transform="translate(-2058 -3593)">
    <g id="Rectángulo_82" data-name="Rectángulo 82" transform="translate(2058 3593)" fill="none" stroke="#000" stroke-width="1">
      <rect width="113" height="56" rx="5" stroke="none"/>
      <rect x="0.5" y="0.5" width="112" height="55" rx="4.5" fill="none"/>
    </g>
    <g id="Grupo_443" data-name="Grupo 443" transform="translate(1017.543 2775)">
      <path id="Trazado_942" data-name="Trazado 942" d="M-3.01-3.85a1.9,1.9,0,0,1,1.4.56,1.9,1.9,0,0,1,.56,1.4A1.8,1.8,0,0,1-1.61-.543,1.932,1.932,0,0,1-3.01,0h-11.9a1.872,1.872,0,0,1-1.435-.56A2.014,2.014,0,0,1-16.87-2a2.172,2.172,0,0,1,.63-1.54l7.63-8.155a13.934,13.934,0,0,0,2.03-2.783,5.584,5.584,0,0,0,.77-2.642,3.736,3.736,0,0,0-.525-1.96,4.127,4.127,0,0,0-1.365-1.4A3.37,3.37,0,0,0-9.52-21a3.781,3.781,0,0,0-2.065.682,6.96,6.96,0,0,0-1.855,1.8,1.866,1.866,0,0,1-.84.7,2.453,2.453,0,0,1-.77.14,2.087,2.087,0,0,1-1.418-.578,1.757,1.757,0,0,1-.647-1.347,1.956,1.956,0,0,1,.4-1.155,9.474,9.474,0,0,1,1-1.155,10.553,10.553,0,0,1,3.08-2.135,8.033,8.033,0,0,1,3.36-.8,8.121,8.121,0,0,1,4.1.98,6.869,6.869,0,0,1,2.66,2.695,7.915,7.915,0,0,1,.945,3.885A8.879,8.879,0,0,1-2.118-14.3,13.784,13.784,0,0,1-3.605-11.34a21.7,21.7,0,0,1-2.17,2.765L-10.5-3.535l-.385-.315Z" transform="translate(1146 859)"/>
    </g>
    <g id="door-15" transform="translate(-228.563 952.143)">
      <g id="iconfinder_architecture-interior-30_809098" transform="translate(2303.542 2646.857)">
        <path id="Trazado_87" data-name="Trazado 87" d="M46.054,38.721H44.5V1.844A1.742,1.742,0,0,0,42.659,0H16.844A1.742,1.742,0,0,0,15,1.844V38.721H13.386a1.742,1.742,0,0,0-1.844,1.844v3.688H47.9V40.565A1.742,1.742,0,0,0,46.054,38.721ZM16.844,1.844H42.659V38.721H16.844ZM13.386,42.409V40.565H46.054v1.844Z" transform="translate(-11.542)"/>
      </g>
    </g>
    <path id="Trazado_919" data-name="Trazado 919" d="M-.044-15.664a4.929,4.929,0,0,1,2.211.473A4.568,4.568,0,0,1,3.762-13.9a5.9,5.9,0,0,1,.968,1.826,6.7,6.7,0,0,1,.33,2.09,10.325,10.325,0,0,1-.242,2.1,13.056,13.056,0,0,1-.737,2.343A11.445,11.445,0,0,1,2.794-3.256,9.8,9.8,0,0,1,.9-1.287,8.756,8.756,0,0,1-1.628.088,1.644,1.644,0,0,1-1.98.132a.976.976,0,0,1-.627-.22.794.794,0,0,1-.275-.66.8.8,0,0,1,.2-.539,1.16,1.16,0,0,1,.528-.341A7.723,7.723,0,0,0,.121-2.981,9.665,9.665,0,0,0,2.013-5.126,7.24,7.24,0,0,0,3.08-7.744l.528-.176a4.8,4.8,0,0,1-.924,1.111,4.851,4.851,0,0,1-1.331.847,4.177,4.177,0,0,1-1.683.33,4.066,4.066,0,0,1-1.8-.407A4.825,4.825,0,0,1-3.608-7.15a5.3,5.3,0,0,1-1-1.617,5.1,5.1,0,0,1-.363-1.9,4.875,4.875,0,0,1,.649-2.486,5.118,5.118,0,0,1,1.771-1.815A4.677,4.677,0,0,1-.044-15.664Zm.022,1.65a3.081,3.081,0,0,0-1.617.429,3.121,3.121,0,0,0-1.133,1.177A3.5,3.5,0,0,0-3.19-10.67a3.8,3.8,0,0,0,.374,1.661A3.011,3.011,0,0,0-1.738-7.766,2.939,2.939,0,0,0-.088-7.3a3.324,3.324,0,0,0,1.782-.462A3.141,3.141,0,0,0,2.849-9.009a3.634,3.634,0,0,0,.407-1.7,3.407,3.407,0,0,0-.4-1.639,3.17,3.17,0,0,0-1.133-1.2A3.225,3.225,0,0,0-.022-14.014Z" transform="translate(2094 3627)"/>
  </g>
</svg>
