<svg xmlns="http://www.w3.org/2000/svg" width="113" height="56" viewBox="0 0 113 56">
  <g id="landscaper_left_5" transform="translate(-2058 -3593)">
    <g id="Rectángulo_82" data-name="Rectángulo 82" transform="translate(2058 3593)" fill="none" stroke="#37c837" stroke-width="1">
      <rect width="113" height="56" rx="5" stroke="none"/>
      <rect x="0.5" y="0.5" width="112" height="55" rx="4.5" fill="none"/>
    </g>
    <g id="Grupo_443" data-name="Grupo 443" transform="translate(1017.543 2775)">
      <path id="Trazado_757" data-name="Trazado 757" d="M-12.04.35a10.492,10.492,0,0,1-2.765-.4A6.485,6.485,0,0,1-17.22-1.225a2.645,2.645,0,0,1-.718-1A2.975,2.975,0,0,1-18.2-3.395a1.6,1.6,0,0,1,.507-1.12A1.927,1.927,0,0,1-16.24-5.04a2.969,2.969,0,0,1,1.575.665,8.613,8.613,0,0,0,1.225.63,3.486,3.486,0,0,0,1.365.28A5.658,5.658,0,0,0-9.362-4.13,5.464,5.464,0,0,0-7.367-5.915,4.248,4.248,0,0,0-6.615-8.33a4.092,4.092,0,0,0-.612-2.275,4.242,4.242,0,0,0-1.61-1.47A4.552,4.552,0,0,0-10.99-12.6a4.711,4.711,0,0,0-1.89.35q-.805.35-1.47.718a2.728,2.728,0,0,1-1.33.367,2.49,2.49,0,0,1-1.715-.507,2.175,2.175,0,0,1-.7-1.208,3.955,3.955,0,0,1-.07-1.26l1.085-8.68a2,2,0,0,1,.718-1.208A2.114,2.114,0,0,1-14.98-24.5H-4.865a1.9,1.9,0,0,1,1.4.56,1.9,1.9,0,0,1,.56,1.4,1.8,1.8,0,0,1-.56,1.347,1.932,1.932,0,0,1-1.4.542h-9.03l.385-.315-.945,7.28-.455-1.33A1.988,1.988,0,0,1-14-15.68a9.617,9.617,0,0,1,1.61-.542A7.343,7.343,0,0,1-10.6-16.45a8.267,8.267,0,0,1,4.2,1.068,7.847,7.847,0,0,1,2.922,2.9A8.1,8.1,0,0,1-2.415-8.33a7.626,7.626,0,0,1-.77,3.395A8.843,8.843,0,0,1-5.3-2.17,10.05,10.05,0,0,1-8.382-.315,10.118,10.118,0,0,1-12.04.35Z" transform="translate(1146 859)" fill="#37c837"/>
    </g>
    <g id="Grupo_446" data-name="Grupo 446" transform="translate(297.123 3984.694)">
      <path id="Trazado_88" data-name="Trazado 88" d="M1587.866-587.987c-.018.362,4.58-4.635,20.087,0,.511.153,1.016.3,1.561.44,14.534,3.856,23.033-1.064,24.337-3.017,1.349-2.019-5.168,4.949-18.873-1.1S1587.884-588.349,1587.866-587.987Z" transform="translate(180.579 241.418)" fill="#37c837"/>
      <g id="Grupo_60" data-name="Grupo 60" transform="translate(1792.902 -367.98)">
        <path id="path977-5-8" d="M-51.621,326.65H-45" transform="translate(54.886 -306.779)" fill="none" stroke="#241f1c" stroke-linecap="round" stroke-linejoin="round" stroke-width="1"/>
        <path id="path979-8-6-6-8-5-7-2-3-7" d="M-49.017,327.177l-.045-12.638h1.474l.086,12.627Z" transform="translate(54.998 -307.306)" fill="#784421" stroke="#241f1c" stroke-linecap="round" stroke-linejoin="round" stroke-width="1"/>
        <ellipse id="path837-1-2-8-9-4" cx="4.747" cy="4.563" rx="4.747" ry="4.563" transform="translate(0 6.866)" fill="#5fd35f" stroke="rgba(36,31,28,0.99)" stroke-linecap="round" stroke-linejoin="round" stroke-width="1"/>
        <ellipse id="ellipse9017" cx="7.258" cy="6.976" rx="7.258" ry="6.976" transform="translate(1.955)" fill="#37c837" stroke="rgba(36,31,28,0.99)" stroke-linecap="round" stroke-linejoin="round" stroke-width="1"/>
      </g>
      <path id="path972-85-1-7-4-9" d="M-11.637,398.39s6.357.686,5.366-4.417" transform="translate(1801.042 -756.311)" fill="none" stroke="#241f1c" stroke-linecap="round" stroke-linejoin="round" stroke-width="1"/>
      <g id="Grupo_61" data-name="Grupo 61" transform="translate(1773.9 -383.585)">
        <ellipse id="path4729" cx="5.606" cy="5.202" rx="5.606" ry="5.202" transform="translate(3.911 12.751)" fill="#2ca02c" stroke="#241f1c" stroke-linecap="round" stroke-linejoin="round" stroke-width="1"/>
        <path id="path979-8-6-6-8-5-7" d="M-13.245,411.142l-.08-22.449h2.618l.153,22.43Z" transform="translate(25.701 -377.232)" fill="#784421" stroke="#241f1c" stroke-linecap="round" stroke-linejoin="round" stroke-width="1"/>
        <ellipse id="path4729-7" cx="7.514" cy="6.972" rx="7.514" ry="6.972" transform="translate(0 3.249)" fill="#37c837" stroke="#241f1c" stroke-linecap="round" stroke-linejoin="round" stroke-width="1"/>
        <ellipse id="path4729-7-7" cx="7.514" cy="6.972" rx="7.514" ry="6.972" transform="translate(8.664)" fill="#5fd35f" stroke="#241f1c" stroke-linecap="round" stroke-linejoin="round" stroke-width="1"/>
        <path id="path977-8-5-8-2-0" d="M-14.931,400.952h8.712" transform="translate(24.33 -366.769)" fill="none" stroke="#241f1c" stroke-linecap="round" stroke-linejoin="round" stroke-width="1"/>
        <ellipse id="path4729-7-7-7" cx="5.421" cy="5.03" rx="5.421" ry="5.03" transform="translate(15.236 11.398)" fill="#37c837" stroke="#241f1c" stroke-linecap="round" stroke-linejoin="round" stroke-width="1"/>
      </g>
      <path id="path8203" d="M-11.637,398.39s6.357.686,5.366-4.417" transform="translate(1801.042 -756.311)" fill="none" stroke="#241f1c" stroke-linecap="round" stroke-linejoin="round" stroke-width="1"/>
      <path id="path8755" d="M-11.637,398.39s6.357.686,5.366-4.417" transform="translate(1801.042 -756.311)" fill="none" stroke="#241f1c" stroke-linecap="round" stroke-linejoin="round" stroke-width="1"/>
    </g>
  </g>
</svg>
