<svg xmlns="http://www.w3.org/2000/svg" width="113" height="56" viewBox="0 0 113 56">
  <g id="landscaper_left_9" transform="translate(-2058 -3593)">
    <g id="Rectángulo_82" data-name="Rectángulo 82" transform="translate(2058 3593)" fill="none" stroke="#37c837" stroke-width="1">
      <rect width="113" height="56" rx="5" stroke="none"/>
      <rect x="0.5" y="0.5" width="112" height="55" rx="4.5" fill="none"/>
    </g>
    <g id="Grupo_443" data-name="Grupo 443" transform="translate(1017.543 2775)">
      <path id="Trazado_753" data-name="Trazado 753" d="M-9.625-24.955a7.317,7.317,0,0,1,3.412.787,7.807,7.807,0,0,1,2.59,2.153,10.332,10.332,0,0,1,1.645,3.063A10.954,10.954,0,0,1-1.4-15.4a19.034,19.034,0,0,1-.263,2.87A19.379,19.379,0,0,1-2.59-8.995,16.022,16.022,0,0,1-4.445-5.39,13.536,13.536,0,0,1-7.472-2.24a13.09,13.09,0,0,1-4.5,2.135A3.318,3.318,0,0,1-12.775,0a2.536,2.536,0,0,1-1.453-.437,1.7,1.7,0,0,1-.647-1.523,1.96,1.96,0,0,1,.507-1.365A2.845,2.845,0,0,1-13.02-4.13,11.319,11.319,0,0,0-9.887-5.67,10.915,10.915,0,0,0-7.245-8.26,8.726,8.726,0,0,0-5.74-11.725l.945.035a15.212,15.212,0,0,1-1.173,1.26,6.734,6.734,0,0,1-1.75,1.208,5.542,5.542,0,0,1-2.467.507,6.352,6.352,0,0,1-2.713-.63,8.6,8.6,0,0,1-2.45-1.733,8.571,8.571,0,0,1-1.767-2.59,7.673,7.673,0,0,1-.665-3.168,7.839,7.839,0,0,1,1.1-4.112A8.256,8.256,0,0,1-13.72-23.87,7.963,7.963,0,0,1-9.625-24.955Zm0,3.85a3.734,3.734,0,0,0-1.995.56,4,4,0,0,0-1.435,1.522,4.493,4.493,0,0,0-.525,2.188,4.522,4.522,0,0,0,.525,2.17,3.971,3.971,0,0,0,1.435,1.54,3.734,3.734,0,0,0,1.995.56,3.708,3.708,0,0,0,2.012-.56A4.017,4.017,0,0,0-6.2-14.665a4.522,4.522,0,0,0,.525-2.17A4.493,4.493,0,0,0-6.2-19.023a4.05,4.05,0,0,0-1.417-1.522A3.708,3.708,0,0,0-9.625-21.1Z" transform="translate(1146 859)" fill="#37c837"/>
    </g>
    <g id="Grupo_446" data-name="Grupo 446" transform="translate(297.123 3984.694)">
      <path id="Trazado_88" data-name="Trazado 88" d="M1587.866-587.987c-.018.362,4.58-4.635,20.087,0,.511.153,1.016.3,1.561.44,14.534,3.856,23.033-1.064,24.337-3.017,1.349-2.019-5.168,4.949-18.873-1.1S1587.884-588.349,1587.866-587.987Z" transform="translate(180.579 241.418)" fill="#37c837"/>
      <g id="Grupo_60" data-name="Grupo 60" transform="translate(1792.902 -367.98)">
        <path id="path977-5-8" d="M-51.621,326.65H-45" transform="translate(54.886 -306.779)" fill="none" stroke="#241f1c" stroke-linecap="round" stroke-linejoin="round" stroke-width="1"/>
        <path id="path979-8-6-6-8-5-7-2-3-7" d="M-49.017,327.177l-.045-12.638h1.474l.086,12.627Z" transform="translate(54.998 -307.306)" fill="#784421" stroke="#241f1c" stroke-linecap="round" stroke-linejoin="round" stroke-width="1"/>
        <ellipse id="path837-1-2-8-9-4" cx="4.747" cy="4.563" rx="4.747" ry="4.563" transform="translate(0 6.866)" fill="#5fd35f" stroke="rgba(36,31,28,0.99)" stroke-linecap="round" stroke-linejoin="round" stroke-width="1"/>
        <ellipse id="ellipse9017" cx="7.258" cy="6.976" rx="7.258" ry="6.976" transform="translate(1.955)" fill="#37c837" stroke="rgba(36,31,28,0.99)" stroke-linecap="round" stroke-linejoin="round" stroke-width="1"/>
      </g>
      <path id="path972-85-1-7-4-9" d="M-11.637,398.39s6.357.686,5.366-4.417" transform="translate(1801.042 -756.311)" fill="none" stroke="#241f1c" stroke-linecap="round" stroke-linejoin="round" stroke-width="1"/>
      <g id="Grupo_61" data-name="Grupo 61" transform="translate(1773.9 -383.585)">
        <ellipse id="path4729" cx="5.606" cy="5.202" rx="5.606" ry="5.202" transform="translate(3.911 12.751)" fill="#2ca02c" stroke="#241f1c" stroke-linecap="round" stroke-linejoin="round" stroke-width="1"/>
        <path id="path979-8-6-6-8-5-7" d="M-13.245,411.142l-.08-22.449h2.618l.153,22.43Z" transform="translate(25.701 -377.232)" fill="#784421" stroke="#241f1c" stroke-linecap="round" stroke-linejoin="round" stroke-width="1"/>
        <ellipse id="path4729-7" cx="7.514" cy="6.972" rx="7.514" ry="6.972" transform="translate(0 3.249)" fill="#37c837" stroke="#241f1c" stroke-linecap="round" stroke-linejoin="round" stroke-width="1"/>
        <ellipse id="path4729-7-7" cx="7.514" cy="6.972" rx="7.514" ry="6.972" transform="translate(8.664)" fill="#5fd35f" stroke="#241f1c" stroke-linecap="round" stroke-linejoin="round" stroke-width="1"/>
        <path id="path977-8-5-8-2-0" d="M-14.931,400.952h8.712" transform="translate(24.33 -366.769)" fill="none" stroke="#241f1c" stroke-linecap="round" stroke-linejoin="round" stroke-width="1"/>
        <ellipse id="path4729-7-7-7" cx="5.421" cy="5.03" rx="5.421" ry="5.03" transform="translate(15.236 11.398)" fill="#37c837" stroke="#241f1c" stroke-linecap="round" stroke-linejoin="round" stroke-width="1"/>
      </g>
      <path id="path8203" d="M-11.637,398.39s6.357.686,5.366-4.417" transform="translate(1801.042 -756.311)" fill="none" stroke="#241f1c" stroke-linecap="round" stroke-linejoin="round" stroke-width="1"/>
      <path id="path8755" d="M-11.637,398.39s6.357.686,5.366-4.417" transform="translate(1801.042 -756.311)" fill="none" stroke="#241f1c" stroke-linecap="round" stroke-linejoin="round" stroke-width="1"/>
    </g>
  </g>
</svg>
