<svg xmlns="http://www.w3.org/2000/svg" width="113" height="56" viewBox="0 0 113 56">
  <g id="landscaper_left_16" transform="translate(-2058 -3593)">
    <g id="Rectángulo_82" data-name="Rectángulo 82" transform="translate(2058 3593)" fill="none" stroke="#37c837" stroke-width="1">
      <rect width="113" height="56" rx="5" stroke="none"/>
      <rect x="0.5" y="0.5" width="112" height="55" rx="4.5" fill="none"/>
    </g>
    <g id="Grupo_443" data-name="Grupo 443" transform="translate(1017.543 2775)">
      <path id="Trazado_751" data-name="Trazado 751" d="M-24.115,0a2.214,2.214,0,0,1-1.61-.613,2.037,2.037,0,0,1-.63-1.522v-17.64l.49.77-2.66,1.61a2.141,2.141,0,0,1-1.12.315,1.91,1.91,0,0,1-1.5-.682,2.179,2.179,0,0,1-.6-1.453,1.994,1.994,0,0,1,1.085-1.82l5.285-3.15A3.2,3.2,0,0,1-23.87-24.5a1.953,1.953,0,0,1,1.487.612,2.134,2.134,0,0,1,.577,1.523v20.23a2.01,2.01,0,0,1-.647,1.522A2.321,2.321,0,0,1-24.115,0Zm14.56.35a7.317,7.317,0,0,1-3.413-.787,7.807,7.807,0,0,1-2.59-2.153A10.283,10.283,0,0,1-17.2-5.67,11,11,0,0,1-17.78-9.2a19.034,19.034,0,0,1,.263-2.87,19.379,19.379,0,0,1,.927-3.535,16.022,16.022,0,0,1,1.855-3.6,13.536,13.536,0,0,1,3.028-3.15A13.09,13.09,0,0,1-7.21-24.5a3.318,3.318,0,0,1,.805-.1,2.612,2.612,0,0,1,1.452.42,1.7,1.7,0,0,1,.648,1.54A1.978,1.978,0,0,1-4.813-21.3a2.78,2.78,0,0,1-1.347.823,10.7,10.7,0,0,0-2.363,1.032,10.949,10.949,0,0,0-2.17,1.662,10.361,10.361,0,0,0-1.715,2.223A9.312,9.312,0,0,0-13.44-12.88l-.945-.035a14.639,14.639,0,0,1,1.208-1.278,6.988,6.988,0,0,1,1.75-1.19,5.456,5.456,0,0,1,2.433-.507,6.352,6.352,0,0,1,2.712.63,8.6,8.6,0,0,1,2.45,1.732,8.571,8.571,0,0,1,1.767,2.59A7.673,7.673,0,0,1-1.4-7.77a7.866,7.866,0,0,1-1.1,4.1,8.255,8.255,0,0,1-2.94,2.94A7.935,7.935,0,0,1-9.555.35Zm0-3.85a3.708,3.708,0,0,0,2.013-.56A4.017,4.017,0,0,0-6.125-5.6,4.522,4.522,0,0,0-5.6-7.77a4.493,4.493,0,0,0-.525-2.188A4.05,4.05,0,0,0-7.542-11.48a3.708,3.708,0,0,0-2.013-.56,3.708,3.708,0,0,0-2.012.56,4.05,4.05,0,0,0-1.418,1.523A4.493,4.493,0,0,0-13.51-7.77a4.522,4.522,0,0,0,.525,2.17,4.017,4.017,0,0,0,1.418,1.54A3.708,3.708,0,0,0-9.555-3.5Z" transform="translate(1146 859)" fill="#37c837"/>
    </g>
    <g id="Grupo_446" data-name="Grupo 446" transform="translate(297.123 3984.694)">
      <path id="Trazado_88" data-name="Trazado 88" d="M1587.866-587.987c-.018.362,4.58-4.635,20.087,0,.511.153,1.016.3,1.561.44,14.534,3.856,23.033-1.064,24.337-3.017,1.349-2.019-5.168,4.949-18.873-1.1S1587.884-588.349,1587.866-587.987Z" transform="translate(180.579 241.418)" fill="#37c837"/>
      <g id="Grupo_60" data-name="Grupo 60" transform="translate(1792.902 -367.98)">
        <path id="path977-5-8" d="M-51.621,326.65H-45" transform="translate(54.886 -306.779)" fill="none" stroke="#241f1c" stroke-linecap="round" stroke-linejoin="round" stroke-width="1"/>
        <path id="path979-8-6-6-8-5-7-2-3-7" d="M-49.017,327.177l-.045-12.638h1.474l.086,12.627Z" transform="translate(54.998 -307.306)" fill="#784421" stroke="#241f1c" stroke-linecap="round" stroke-linejoin="round" stroke-width="1"/>
        <ellipse id="path837-1-2-8-9-4" cx="4.747" cy="4.563" rx="4.747" ry="4.563" transform="translate(0 6.866)" fill="#5fd35f" stroke="rgba(36,31,28,0.99)" stroke-linecap="round" stroke-linejoin="round" stroke-width="1"/>
        <ellipse id="ellipse9017" cx="7.258" cy="6.976" rx="7.258" ry="6.976" transform="translate(1.955)" fill="#37c837" stroke="rgba(36,31,28,0.99)" stroke-linecap="round" stroke-linejoin="round" stroke-width="1"/>
      </g>
      <path id="path972-85-1-7-4-9" d="M-11.637,398.39s6.357.686,5.366-4.417" transform="translate(1801.042 -756.311)" fill="none" stroke="#241f1c" stroke-linecap="round" stroke-linejoin="round" stroke-width="1"/>
      <g id="Grupo_61" data-name="Grupo 61" transform="translate(1773.9 -383.585)">
        <ellipse id="path4729" cx="5.606" cy="5.202" rx="5.606" ry="5.202" transform="translate(3.911 12.751)" fill="#2ca02c" stroke="#241f1c" stroke-linecap="round" stroke-linejoin="round" stroke-width="1"/>
        <path id="path979-8-6-6-8-5-7" d="M-13.245,411.142l-.08-22.449h2.618l.153,22.43Z" transform="translate(25.701 -377.232)" fill="#784421" stroke="#241f1c" stroke-linecap="round" stroke-linejoin="round" stroke-width="1"/>
        <ellipse id="path4729-7" cx="7.514" cy="6.972" rx="7.514" ry="6.972" transform="translate(0 3.249)" fill="#37c837" stroke="#241f1c" stroke-linecap="round" stroke-linejoin="round" stroke-width="1"/>
        <ellipse id="path4729-7-7" cx="7.514" cy="6.972" rx="7.514" ry="6.972" transform="translate(8.664)" fill="#5fd35f" stroke="#241f1c" stroke-linecap="round" stroke-linejoin="round" stroke-width="1"/>
        <path id="path977-8-5-8-2-0" d="M-14.931,400.952h8.712" transform="translate(24.33 -366.769)" fill="none" stroke="#241f1c" stroke-linecap="round" stroke-linejoin="round" stroke-width="1"/>
        <ellipse id="path4729-7-7-7" cx="5.421" cy="5.03" rx="5.421" ry="5.03" transform="translate(15.236 11.398)" fill="#37c837" stroke="#241f1c" stroke-linecap="round" stroke-linejoin="round" stroke-width="1"/>
      </g>
      <path id="path8203" d="M-11.637,398.39s6.357.686,5.366-4.417" transform="translate(1801.042 -756.311)" fill="none" stroke="#241f1c" stroke-linecap="round" stroke-linejoin="round" stroke-width="1"/>
      <path id="path8755" d="M-11.637,398.39s6.357.686,5.366-4.417" transform="translate(1801.042 -756.311)" fill="none" stroke="#241f1c" stroke-linecap="round" stroke-linejoin="round" stroke-width="1"/>
    </g>
  </g>
</svg>
