<svg xmlns="http://www.w3.org/2000/svg" width="113" height="56" viewBox="0 0 113 56">
  <g id="surveyor_10" transform="translate(-2058 -3593)">
    <g id="Rectángulo_82" data-name="Rectángulo 82" transform="translate(2058 3593)" fill="none" stroke="#beb2a6" stroke-width="1">
      <rect width="113" height="56" rx="5" stroke="none"/>
      <rect x="0.5" y="0.5" width="112" height="55" rx="4.5" fill="none"/>
    </g>
    <g id="Grupo_443" data-name="Grupo 443" transform="translate(1017.543 2775)">
      <text id="_10" data-name="10" transform="translate(1146 859)" fill="#beb2a6" font-size="35" font-family="Quicksand" font-weight="700"><tspan x="-34.23" y="0">10</tspan></text>
    </g>
    <g id="Grupo_467" data-name="Grupo 467" transform="translate(2068.344 3604.838)">
      <path id="Trazado_43" data-name="Trazado 43" d="M2509.419-660.32h-10.845v-13.872h-4.193l12.965-14.863,3.777,4.516h10.2v-2.772h3.959v2.772h2.331l4.321,6.978v17.241Z" transform="translate(-2494.38 689.055)" fill="#beb2a6"/>
      <g id="Grupo_20" data-name="Grupo 20" transform="translate(14.478 7.487)">
        <path id="Unión_3" data-name="Unión 3" d="M21.5,23.491H19.268v1.185H17.419v-.439H16.98v-.746H15.213v1.185h-1.6v-.439h-.439v-.746H11.7v1.173H10.014v-.439H9.575v-.734H8.267v1.185H6.4v-.439H5.961v-.746H4.408v1.332H1.851v-.034l-.264.047,0-1.345H0V20.709H1.581L1.566,9.727H0V6.945H1.562l0-2.3H.878V4.2H.585V3.235h.973V2.819H.878l.446-.439H.585L3,0,5.032,2.9H5.017l.308.439H4.408v.2h.623v.439h.293V4.64H4.408v2.3H5.961v-1.7L7.07,4.073l.348.536.092-.1L8.267,5.68V6.945H9.575V5.352L10.6,4.11l.316.59.124-.15L11.7,5.791V6.945h1.471V5.175l.968-1.189.315.592.124-.152.634,1.189v1.33H16.98V5.269L18.229,4.02l.358.521.081-.081.6.873V6.945h2.208l0-2.3h-.68V4.2H20.5V3.235h.973V2.819h-.68l.446-.439H20.5L22.918,0l2.029,2.9h-.015l.308.439h-.916v.2h.623v.439h.293V4.64h-.916v2.3h.717V9.727h-.717V20.709h.717v2.782h-.717v1.332H21.766v-.034l-.264.047Zm0-2.782L21.481,9.727H19.268V20.709Zm-4.516,0V9.727H15.213V20.709Zm-3.808,0V9.727H11.7V20.709Zm-3.6,0V9.727H8.267V20.709Zm-3.614,0V9.727H4.408V20.709Z" transform="translate(0.476 0)" fill="none" stroke="#d4cfb9" stroke-width="3"/>
        <g id="Grupo_19" data-name="Grupo 19" transform="translate(0 0)">
          <path id="Trazado_48" data-name="Trazado 48" d="M2740.5-611.088l2.529-.452v-20.183h.916v-.668h-.916v-.638h.916l-2.029-2.9-2.417,2.38h.973v.855h-.973v.966h.973Z" transform="translate(-2718.521 635.924)" fill="#686367"/>
          <path id="Trazado_49" data-name="Trazado 49" d="M2740.47-611.54h2.558v-20.183h.916v-.668h-.916v-.638h.916l-2.029-2.9-2.417,2.38h.973v.855h-.973v.966h.973Z" transform="translate(-2718.229 636.364)" fill="#fefeff"/>
          <path id="Trazado_50" data-name="Trazado 50" d="M2740.5-611.088l2.529-.452v-20.183h.916v-.668h-.916v-.638h.916l-2.029-2.9-2.417,2.38h.973v.855h-.973v.966h.973Z" transform="translate(-2738.436 635.924)" fill="#686367"/>
          <path id="Trazado_51" data-name="Trazado 51" d="M2740.47-611.54h2.558v-20.183h.916v-.668h-.916v-.638h.916l-2.029-2.9-2.417,2.38h.973v.855h-.973v.966h.973Z" transform="translate(-2738.143 636.364)" fill="#fefeff"/>
          <path id="Trazado_52" data-name="Trazado 52" d="M2643.21-586.947h1.866v-19l-.758-1.168-1.108,1.168Z" transform="translate(-2636.773 611.184)" fill="#6a6569"/>
          <path id="Trazado_53" data-name="Trazado 53" d="M2667.89-605.618l1.022-1.242.665,1.242v18.873h-1.687Z" transform="translate(-2657.838 610.969)" fill="#6a6569"/>
          <path id="Trazado_54" data-name="Trazado 54" d="M2692.45-587.453h1.6v-19.063l-.634-1.189-.968,1.189Z" transform="translate(-2678.802 611.69)" fill="#6a6569"/>
          <path id="Trazado_55" data-name="Trazado 55" d="M2718.459-587.252h1.849V-606.6l-.6-.873-1.248,1.249Z" transform="translate(-2701.003 611.49)" fill="#6a6569"/>
          <path id="Trazado_44" data-name="Trazado 44" d="M2643.21-586.947h1.866v-19l-.758-1.168-1.108,1.168Z" transform="translate(-2636.333 611.624)" fill="#fff"/>
          <path id="Trazado_45" data-name="Trazado 45" d="M2667.89-605.618l1.022-1.242.665,1.242v18.873h-1.687Z" transform="translate(-2657.399 611.409)" fill="#fff"/>
          <path id="Trazado_46" data-name="Trazado 46" d="M2692.45-587.453h1.6v-19.063l-.634-1.189-.968,1.189Z" transform="translate(-2678.363 612.129)" fill="#fff"/>
          <path id="Trazado_47" data-name="Trazado 47" d="M2718.459-587.252h1.849V-606.6l-.6-.873-1.248,1.249Z" transform="translate(-2700.563 611.929)" fill="#fff"/>
          <rect id="Rectángulo_23" data-name="Rectángulo 23" width="25.482" height="3.08" transform="translate(0 20.668)" fill="#686868"/>
          <rect id="Rectángulo_22" data-name="Rectángulo 22" width="24.642" height="2.24" transform="translate(0.84 20.668)" fill="#fff"/>
          <rect id="Rectángulo_24" data-name="Rectángulo 24" width="25.482" height="2.52" transform="translate(0 6.947)" fill="#686868"/>
          <rect id="Rectángulo_25" data-name="Rectángulo 25" width="24.642" height="2.52" transform="translate(0.84 6.947)" fill="#fff"/>
        </g>
      </g>
    </g>
  </g>
</svg>
