<svg xmlns="http://www.w3.org/2000/svg" width="113" height="56" viewBox="0 0 113 56">
  <g id="temp_left_6" transform="translate(-2058 -3593)">
    <g id="Grupo_442" data-name="Grupo 442" transform="translate(1016 2773)">
      <g id="Rectángulo_82" data-name="Rectángulo 82" transform="translate(1042 820)" fill="none" stroke="#f2986e" stroke-width="1">
        <rect width="113" height="56" rx="5" stroke="none"/>
        <rect x="0.5" y="0.5" width="112" height="55" rx="4.5" fill="none"/>
      </g>
      <g id="Grupo_443" data-name="Grupo 443" transform="translate(1.543 2)">
        <g id="Grupo_74" data-name="Grupo 74" transform="translate(1048.457 826)">
          <path id="Trazado_8" data-name="Trazado 8" d="M318.744-386.97l-20.4-20.719,20.4-19.97,21.246,20.767Z" transform="translate(-298.339 427.659)" fill="#f2986e"/>
          <path id="Trazado_9" data-name="Trazado 9" d="M-1.078,0H2.166L-2.461,25.32H-5.7Z" transform="translate(12.968 10.267)" fill="#ec7130"/>
          <path id="Trazado_10" data-name="Trazado 10" d="M-2.463,0H-5.7l4.624,25.32H2.162Z" transform="translate(32.193 10.267)" fill="#ec7130"/>
          <rect id="Rectángulo_16" data-name="Rectángulo 16" width="30.825" height="4.186" transform="translate(5.199 20.801)" fill="#fac66a"/>
          <path id="Trazado_11" data-name="Trazado 11" d="M305.5-397.485h3.091l2.615-4.177H305.5Z" transform="translate(-300.304 422.472)" fill="#ec7130"/>
          <path id="Trazado_12" data-name="Trazado 12" d="M336.242-397.293h5.284v-4.177h-3.084Z" transform="translate(-305.503 422.28)" fill="#eb7132"/>
          <path id="Trazado_14" data-name="Trazado 14" d="M314.36-397.311h3.913l2.456-4.177h-3.982Z" transform="translate(-292.446 422.298)" fill="#ec7130"/>
          <path id="Trazado_19" data-name="Trazado 19" d="M314.36-397.311h3.913l2.456-4.177h-3.982Z" transform="translate(-301.367 422.298)" fill="#ec7130"/>
          <g id="Grupo_10" data-name="Grupo 10" transform="translate(5.199 13.19)">
            <rect id="Rectángulo_17" data-name="Rectángulo 17" width="30.825" height="4.186" transform="translate(0 0)" fill="#fac66a"/>
            <path id="Trazado_20" data-name="Trazado 20" d="M305.5-397.485h3.091l2.615-4.177H305.5Z" transform="translate(-305.503 401.671)" fill="#ec7130"/>
            <path id="Trazado_21" data-name="Trazado 21" d="M336.242-397.293h5.284v-4.177h-3.084Z" transform="translate(-310.701 401.479)" fill="#eb7132"/>
            <path id="Trazado_22" data-name="Trazado 22" d="M314.36-397.311h3.913l2.456-4.177h-3.982Z" transform="translate(-297.645 401.497)" fill="#ec7130"/>
            <path id="Trazado_23" data-name="Trazado 23" d="M314.36-397.311h3.913l2.456-4.177h-3.982Z" transform="translate(-306.566 401.497)" fill="#ec7130"/>
          </g>
        </g>
        <path id="Trazado_697" data-name="Trazado 697" d="M-9.555.35a7.317,7.317,0,0,1-3.413-.787,7.807,7.807,0,0,1-2.59-2.153A10.283,10.283,0,0,1-17.2-5.67,11,11,0,0,1-17.78-9.2a19.034,19.034,0,0,1,.263-2.87,19.379,19.379,0,0,1,.927-3.535,16.022,16.022,0,0,1,1.855-3.6,13.536,13.536,0,0,1,3.028-3.15A13.09,13.09,0,0,1-7.21-24.5a3.318,3.318,0,0,1,.805-.1,2.612,2.612,0,0,1,1.452.42,1.7,1.7,0,0,1,.648,1.54A1.978,1.978,0,0,1-4.813-21.3a2.78,2.78,0,0,1-1.347.823,10.7,10.7,0,0,0-2.363,1.032,10.949,10.949,0,0,0-2.17,1.662,10.361,10.361,0,0,0-1.715,2.223A9.312,9.312,0,0,0-13.44-12.88l-.945-.035a14.639,14.639,0,0,1,1.208-1.278,6.988,6.988,0,0,1,1.75-1.19,5.456,5.456,0,0,1,2.433-.507,6.352,6.352,0,0,1,2.712.63,8.6,8.6,0,0,1,2.45,1.732,8.571,8.571,0,0,1,1.767,2.59A7.673,7.673,0,0,1-1.4-7.77a7.866,7.866,0,0,1-1.1,4.1,8.255,8.255,0,0,1-2.94,2.94A7.935,7.935,0,0,1-9.555.35Zm0-3.85a3.708,3.708,0,0,0,2.013-.56A4.017,4.017,0,0,0-6.125-5.6,4.522,4.522,0,0,0-5.6-7.77a4.493,4.493,0,0,0-.525-2.188A4.05,4.05,0,0,0-7.542-11.48a3.708,3.708,0,0,0-2.013-.56,3.708,3.708,0,0,0-2.012.56,4.05,4.05,0,0,0-1.418,1.523A4.493,4.493,0,0,0-13.51-7.77a4.522,4.522,0,0,0,.525,2.17,4.017,4.017,0,0,0,1.418,1.54A3.708,3.708,0,0,0-9.555-3.5Z" transform="translate(1146 859)" fill="#f2986e"/>
      </g>
    </g>
  </g>
</svg>
