<svg xmlns="http://www.w3.org/2000/svg" width="113" height="56" viewBox="0 0 113 56">
  <g id="temp_left_8" transform="translate(-2058 -3593)">
    <g id="Grupo_442" data-name="Grupo 442" transform="translate(1016 2773)">
      <g id="Rectángulo_82" data-name="Rectángulo 82" transform="translate(1042 820)" fill="none" stroke="#f2986e" stroke-width="1">
        <rect width="113" height="56" rx="5" stroke="none"/>
        <rect x="0.5" y="0.5" width="112" height="55" rx="4.5" fill="none"/>
      </g>
      <g id="Grupo_443" data-name="Grupo 443" transform="translate(1.543 2)">
        <g id="Grupo_74" data-name="Grupo 74" transform="translate(1048.457 826)">
          <path id="Trazado_8" data-name="Trazado 8" d="M318.744-386.97l-20.4-20.719,20.4-19.97,21.246,20.767Z" transform="translate(-298.339 427.659)" fill="#f2986e"/>
          <path id="Trazado_9" data-name="Trazado 9" d="M-1.078,0H2.166L-2.461,25.32H-5.7Z" transform="translate(12.968 10.267)" fill="#ec7130"/>
          <path id="Trazado_10" data-name="Trazado 10" d="M-2.463,0H-5.7l4.624,25.32H2.162Z" transform="translate(32.193 10.267)" fill="#ec7130"/>
          <rect id="Rectángulo_16" data-name="Rectángulo 16" width="30.825" height="4.186" transform="translate(5.199 20.801)" fill="#fac66a"/>
          <path id="Trazado_11" data-name="Trazado 11" d="M305.5-397.485h3.091l2.615-4.177H305.5Z" transform="translate(-300.304 422.472)" fill="#ec7130"/>
          <path id="Trazado_12" data-name="Trazado 12" d="M336.242-397.293h5.284v-4.177h-3.084Z" transform="translate(-305.503 422.28)" fill="#eb7132"/>
          <path id="Trazado_14" data-name="Trazado 14" d="M314.36-397.311h3.913l2.456-4.177h-3.982Z" transform="translate(-292.446 422.298)" fill="#ec7130"/>
          <path id="Trazado_19" data-name="Trazado 19" d="M314.36-397.311h3.913l2.456-4.177h-3.982Z" transform="translate(-301.367 422.298)" fill="#ec7130"/>
          <g id="Grupo_10" data-name="Grupo 10" transform="translate(5.199 13.19)">
            <rect id="Rectángulo_17" data-name="Rectángulo 17" width="30.825" height="4.186" transform="translate(0 0)" fill="#fac66a"/>
            <path id="Trazado_20" data-name="Trazado 20" d="M305.5-397.485h3.091l2.615-4.177H305.5Z" transform="translate(-305.503 401.671)" fill="#ec7130"/>
            <path id="Trazado_21" data-name="Trazado 21" d="M336.242-397.293h5.284v-4.177h-3.084Z" transform="translate(-310.701 401.479)" fill="#eb7132"/>
            <path id="Trazado_22" data-name="Trazado 22" d="M314.36-397.311h3.913l2.456-4.177h-3.982Z" transform="translate(-297.645 401.497)" fill="#ec7130"/>
            <path id="Trazado_23" data-name="Trazado 23" d="M314.36-397.311h3.913l2.456-4.177h-3.982Z" transform="translate(-306.566 401.497)" fill="#ec7130"/>
          </g>
        </g>
        <path id="Trazado_699" data-name="Trazado 699" d="M-6.37-12.425l-.07-.805a8,8,0,0,1,2.31,1.54,6.989,6.989,0,0,1,1.5,2.065A5.385,5.385,0,0,1-2.1-7.315,6.48,6.48,0,0,1-3.2-3.658,8.053,8.053,0,0,1-6.16-1a8.58,8.58,0,0,1-4.13,1,8.58,8.58,0,0,1-4.13-1,8.053,8.053,0,0,1-2.958-2.66,6.48,6.48,0,0,1-1.1-3.658A5.435,5.435,0,0,1-17.8-10.1a6.844,6.844,0,0,1,1.715-1.977,13.243,13.243,0,0,1,2.048-1.33l-.28.98a6.877,6.877,0,0,1-1.7-1,5.006,5.006,0,0,1-1.347-1.662,5.113,5.113,0,0,1-.525-2.38,6.472,6.472,0,0,1,1.015-3.552,7.386,7.386,0,0,1,2.747-2.537A7.872,7.872,0,0,1-10.29-24.5a7.744,7.744,0,0,1,3.832.945,7.463,7.463,0,0,1,2.713,2.537A6.472,6.472,0,0,1-2.73-17.465a4.913,4.913,0,0,1-.6,2.52,5.082,5.082,0,0,1-1.435,1.61A8.173,8.173,0,0,1-6.37-12.425Zm-7.315-4.97a3.221,3.221,0,0,0,.438,1.68,3.238,3.238,0,0,0,1.207,1.173,3.479,3.479,0,0,0,1.75.438,3.384,3.384,0,0,0,1.733-.437,3.277,3.277,0,0,0,1.19-1.173A3.221,3.221,0,0,0-6.93-17.4a3.1,3.1,0,0,0-.962-2.327,3.319,3.319,0,0,0-2.4-.927,3.364,3.364,0,0,0-2.432.927A3.1,3.1,0,0,0-13.685-17.4ZM-10.29-3.85A4.1,4.1,0,0,0-7.455-4.883,3.236,3.236,0,0,0-6.3-7.385,3.258,3.258,0,0,0-6.825-9.2,3.721,3.721,0,0,0-8.26-10.483a4.339,4.339,0,0,0-2.03-.472,4.339,4.339,0,0,0-2.03.472A3.721,3.721,0,0,0-13.755-9.2a3.258,3.258,0,0,0-.525,1.82,3.236,3.236,0,0,0,1.155,2.5A4.1,4.1,0,0,0-10.29-3.85Z" transform="translate(1146 859)" fill="#f2986e"/>
      </g>
    </g>
  </g>
</svg>
