<svg xmlns="http://www.w3.org/2000/svg" width="113" height="56" viewBox="0 0 113 56">
  <g id="temp_left_3" transform="translate(-2058 -3593)">
    <g id="Grupo_442" data-name="Grupo 442" transform="translate(1016 2773)">
      <g id="Rectángulo_82" data-name="Rectángulo 82" transform="translate(1042 820)" fill="none" stroke="#f2986e" stroke-width="1">
        <rect width="113" height="56" rx="5" stroke="none"/>
        <rect x="0.5" y="0.5" width="112" height="55" rx="4.5" fill="none"/>
      </g>
      <g id="Grupo_443" data-name="Grupo 443" transform="translate(1.543 2)">
        <g id="Grupo_74" data-name="Grupo 74" transform="translate(1048.457 826)">
          <path id="Trazado_8" data-name="Trazado 8" d="M318.744-386.97l-20.4-20.719,20.4-19.97,21.246,20.767Z" transform="translate(-298.339 427.659)" fill="#f2986e"/>
          <path id="Trazado_9" data-name="Trazado 9" d="M-1.078,0H2.166L-2.461,25.32H-5.7Z" transform="translate(12.968 10.267)" fill="#ec7130"/>
          <path id="Trazado_10" data-name="Trazado 10" d="M-2.463,0H-5.7l4.624,25.32H2.162Z" transform="translate(32.193 10.267)" fill="#ec7130"/>
          <rect id="Rectángulo_16" data-name="Rectángulo 16" width="30.825" height="4.186" transform="translate(5.199 20.801)" fill="#fac66a"/>
          <path id="Trazado_11" data-name="Trazado 11" d="M305.5-397.485h3.091l2.615-4.177H305.5Z" transform="translate(-300.304 422.472)" fill="#ec7130"/>
          <path id="Trazado_12" data-name="Trazado 12" d="M336.242-397.293h5.284v-4.177h-3.084Z" transform="translate(-305.503 422.28)" fill="#eb7132"/>
          <path id="Trazado_14" data-name="Trazado 14" d="M314.36-397.311h3.913l2.456-4.177h-3.982Z" transform="translate(-292.446 422.298)" fill="#ec7130"/>
          <path id="Trazado_19" data-name="Trazado 19" d="M314.36-397.311h3.913l2.456-4.177h-3.982Z" transform="translate(-301.367 422.298)" fill="#ec7130"/>
          <g id="Grupo_10" data-name="Grupo 10" transform="translate(5.199 13.19)">
            <rect id="Rectángulo_17" data-name="Rectángulo 17" width="30.825" height="4.186" transform="translate(0 0)" fill="#fac66a"/>
            <path id="Trazado_20" data-name="Trazado 20" d="M305.5-397.485h3.091l2.615-4.177H305.5Z" transform="translate(-305.503 401.671)" fill="#ec7130"/>
            <path id="Trazado_21" data-name="Trazado 21" d="M336.242-397.293h5.284v-4.177h-3.084Z" transform="translate(-310.701 401.479)" fill="#eb7132"/>
            <path id="Trazado_22" data-name="Trazado 22" d="M314.36-397.311h3.913l2.456-4.177h-3.982Z" transform="translate(-297.645 401.497)" fill="#ec7130"/>
            <path id="Trazado_23" data-name="Trazado 23" d="M314.36-397.311h3.913l2.456-4.177h-3.982Z" transform="translate(-306.566 401.497)" fill="#ec7130"/>
          </g>
        </g>
        <path id="Trazado_703" data-name="Trazado 703" d="M-14.7-4.935a2.5,2.5,0,0,1,.683.105,2.89,2.89,0,0,1,.822.42,6.537,6.537,0,0,0,1.418.8,4.839,4.839,0,0,0,1.907.35A4.106,4.106,0,0,0-7.823-3.8,4.464,4.464,0,0,0-6.23-5.338a4.4,4.4,0,0,0,.63-2.4A4.118,4.118,0,0,0-6.142-9.94a3.574,3.574,0,0,0-1.435-1.33,4.141,4.141,0,0,0-1.908-.455,4.9,4.9,0,0,0-1.278.14q-.507.14-.98.3a3.49,3.49,0,0,1-1.1.158,1.485,1.485,0,0,1-1.243-.56,2.1,2.1,0,0,1-.437-1.33,1.93,1.93,0,0,1,.193-.875,4.353,4.353,0,0,1,.577-.84l6.16-6.72.945.805h-8.61a1.9,1.9,0,0,1-1.4-.56,1.9,1.9,0,0,1-.56-1.4,1.8,1.8,0,0,1,.56-1.347,1.932,1.932,0,0,1,1.4-.543H-4.55a2.094,2.094,0,0,1,1.628.595A2.148,2.148,0,0,1-2.38-22.4a1.813,1.813,0,0,1-.227.875,3.506,3.506,0,0,1-.612.8l-6.2,6.825-.945-1.19A5.194,5.194,0,0,1-9.293-15.4a5.856,5.856,0,0,1,1.137-.14,6.09,6.09,0,0,1,3.587,1.067,7.1,7.1,0,0,1,2.345,2.765A8.277,8.277,0,0,1-1.4-8.05,8.423,8.423,0,0,1-2.555-3.57,7.582,7.582,0,0,1-5.81-.665,11.14,11.14,0,0,1-10.71.35,10.5,10.5,0,0,1-13.265.035a8.419,8.419,0,0,1-2.17-.84,2.4,2.4,0,0,1-1.033-.927,2.1,2.1,0,0,1-.262-.962,2.39,2.39,0,0,1,.577-1.522A1.79,1.79,0,0,1-14.7-4.935Z" transform="translate(1146 859)" fill="#f2986e"/>
      </g>
    </g>
  </g>
</svg>
