<svg xmlns="http://www.w3.org/2000/svg" width="113" height="56" viewBox="0 0 113 56">
  <g id="temp_left_9" transform="translate(-2058 -3593)">
    <g id="Grupo_442" data-name="Grupo 442" transform="translate(1016 2773)">
      <g id="Rectángulo_82" data-name="Rectángulo 82" transform="translate(1042 820)" fill="none" stroke="#f2986e" stroke-width="1">
        <rect width="113" height="56" rx="5" stroke="none"/>
        <rect x="0.5" y="0.5" width="112" height="55" rx="4.5" fill="none"/>
      </g>
      <g id="Grupo_443" data-name="Grupo 443" transform="translate(1.543 2)">
        <g id="Grupo_74" data-name="Grupo 74" transform="translate(1048.457 826)">
          <path id="Trazado_8" data-name="Trazado 8" d="M318.744-386.97l-20.4-20.719,20.4-19.97,21.246,20.767Z" transform="translate(-298.339 427.659)" fill="#f2986e"/>
          <path id="Trazado_9" data-name="Trazado 9" d="M-1.078,0H2.166L-2.461,25.32H-5.7Z" transform="translate(12.968 10.267)" fill="#ec7130"/>
          <path id="Trazado_10" data-name="Trazado 10" d="M-2.463,0H-5.7l4.624,25.32H2.162Z" transform="translate(32.193 10.267)" fill="#ec7130"/>
          <rect id="Rectángulo_16" data-name="Rectángulo 16" width="30.825" height="4.186" transform="translate(5.199 20.801)" fill="#fac66a"/>
          <path id="Trazado_11" data-name="Trazado 11" d="M305.5-397.485h3.091l2.615-4.177H305.5Z" transform="translate(-300.304 422.472)" fill="#ec7130"/>
          <path id="Trazado_12" data-name="Trazado 12" d="M336.242-397.293h5.284v-4.177h-3.084Z" transform="translate(-305.503 422.28)" fill="#eb7132"/>
          <path id="Trazado_14" data-name="Trazado 14" d="M314.36-397.311h3.913l2.456-4.177h-3.982Z" transform="translate(-292.446 422.298)" fill="#ec7130"/>
          <path id="Trazado_19" data-name="Trazado 19" d="M314.36-397.311h3.913l2.456-4.177h-3.982Z" transform="translate(-301.367 422.298)" fill="#ec7130"/>
          <g id="Grupo_10" data-name="Grupo 10" transform="translate(5.199 13.19)">
            <rect id="Rectángulo_17" data-name="Rectángulo 17" width="30.825" height="4.186" transform="translate(0 0)" fill="#fac66a"/>
            <path id="Trazado_20" data-name="Trazado 20" d="M305.5-397.485h3.091l2.615-4.177H305.5Z" transform="translate(-305.503 401.671)" fill="#ec7130"/>
            <path id="Trazado_21" data-name="Trazado 21" d="M336.242-397.293h5.284v-4.177h-3.084Z" transform="translate(-310.701 401.479)" fill="#eb7132"/>
            <path id="Trazado_22" data-name="Trazado 22" d="M314.36-397.311h3.913l2.456-4.177h-3.982Z" transform="translate(-297.645 401.497)" fill="#ec7130"/>
            <path id="Trazado_23" data-name="Trazado 23" d="M314.36-397.311h3.913l2.456-4.177h-3.982Z" transform="translate(-306.566 401.497)" fill="#ec7130"/>
          </g>
        </g>
        <path id="Trazado_700" data-name="Trazado 700" d="M-9.625-24.955a7.317,7.317,0,0,1,3.412.787,7.807,7.807,0,0,1,2.59,2.153,10.332,10.332,0,0,1,1.645,3.063A10.954,10.954,0,0,1-1.4-15.4a19.034,19.034,0,0,1-.263,2.87A19.379,19.379,0,0,1-2.59-8.995,16.022,16.022,0,0,1-4.445-5.39,13.536,13.536,0,0,1-7.472-2.24a13.09,13.09,0,0,1-4.5,2.135A3.318,3.318,0,0,1-12.775,0a2.536,2.536,0,0,1-1.453-.437,1.7,1.7,0,0,1-.647-1.523,1.96,1.96,0,0,1,.507-1.365A2.845,2.845,0,0,1-13.02-4.13,11.319,11.319,0,0,0-9.887-5.67,10.915,10.915,0,0,0-7.245-8.26,8.726,8.726,0,0,0-5.74-11.725l.945.035a15.212,15.212,0,0,1-1.173,1.26,6.734,6.734,0,0,1-1.75,1.208,5.542,5.542,0,0,1-2.467.507,6.352,6.352,0,0,1-2.713-.63,8.6,8.6,0,0,1-2.45-1.733,8.571,8.571,0,0,1-1.767-2.59,7.673,7.673,0,0,1-.665-3.168,7.839,7.839,0,0,1,1.1-4.112A8.256,8.256,0,0,1-13.72-23.87,7.963,7.963,0,0,1-9.625-24.955Zm0,3.85a3.734,3.734,0,0,0-1.995.56,4,4,0,0,0-1.435,1.522,4.493,4.493,0,0,0-.525,2.188,4.522,4.522,0,0,0,.525,2.17,3.971,3.971,0,0,0,1.435,1.54,3.734,3.734,0,0,0,1.995.56,3.708,3.708,0,0,0,2.012-.56A4.017,4.017,0,0,0-6.2-14.665a4.522,4.522,0,0,0,.525-2.17A4.493,4.493,0,0,0-6.2-19.023a4.05,4.05,0,0,0-1.417-1.522A3.708,3.708,0,0,0-9.625-21.1Z" transform="translate(1146 859)" fill="#f2986e"/>
      </g>
    </g>
  </g>
</svg>
