<svg xmlns="http://www.w3.org/2000/svg" width="113" height="56" viewBox="0 0 113 56">
  <g id="temp_left_5" transform="translate(-2058 -3593)">
    <g id="Grupo_442" data-name="Grupo 442" transform="translate(1016 2773)">
      <g id="Rectángulo_82" data-name="Rectángulo 82" transform="translate(1042 820)" fill="none" stroke="#f2986e" stroke-width="1">
        <rect width="113" height="56" rx="5" stroke="none"/>
        <rect x="0.5" y="0.5" width="112" height="55" rx="4.5" fill="none"/>
      </g>
      <g id="Grupo_443" data-name="Grupo 443" transform="translate(1.543 2)">
        <g id="Grupo_74" data-name="Grupo 74" transform="translate(1048.457 826)">
          <path id="Trazado_8" data-name="Trazado 8" d="M318.744-386.97l-20.4-20.719,20.4-19.97,21.246,20.767Z" transform="translate(-298.339 427.659)" fill="#f2986e"/>
          <path id="Trazado_9" data-name="Trazado 9" d="M-1.078,0H2.166L-2.461,25.32H-5.7Z" transform="translate(12.968 10.267)" fill="#ec7130"/>
          <path id="Trazado_10" data-name="Trazado 10" d="M-2.463,0H-5.7l4.624,25.32H2.162Z" transform="translate(32.193 10.267)" fill="#ec7130"/>
          <rect id="Rectángulo_16" data-name="Rectángulo 16" width="30.825" height="4.186" transform="translate(5.199 20.801)" fill="#fac66a"/>
          <path id="Trazado_11" data-name="Trazado 11" d="M305.5-397.485h3.091l2.615-4.177H305.5Z" transform="translate(-300.304 422.472)" fill="#ec7130"/>
          <path id="Trazado_12" data-name="Trazado 12" d="M336.242-397.293h5.284v-4.177h-3.084Z" transform="translate(-305.503 422.28)" fill="#eb7132"/>
          <path id="Trazado_14" data-name="Trazado 14" d="M314.36-397.311h3.913l2.456-4.177h-3.982Z" transform="translate(-292.446 422.298)" fill="#ec7130"/>
          <path id="Trazado_19" data-name="Trazado 19" d="M314.36-397.311h3.913l2.456-4.177h-3.982Z" transform="translate(-301.367 422.298)" fill="#ec7130"/>
          <g id="Grupo_10" data-name="Grupo 10" transform="translate(5.199 13.19)">
            <rect id="Rectángulo_17" data-name="Rectángulo 17" width="30.825" height="4.186" transform="translate(0 0)" fill="#fac66a"/>
            <path id="Trazado_20" data-name="Trazado 20" d="M305.5-397.485h3.091l2.615-4.177H305.5Z" transform="translate(-305.503 401.671)" fill="#ec7130"/>
            <path id="Trazado_21" data-name="Trazado 21" d="M336.242-397.293h5.284v-4.177h-3.084Z" transform="translate(-310.701 401.479)" fill="#eb7132"/>
            <path id="Trazado_22" data-name="Trazado 22" d="M314.36-397.311h3.913l2.456-4.177h-3.982Z" transform="translate(-297.645 401.497)" fill="#ec7130"/>
            <path id="Trazado_23" data-name="Trazado 23" d="M314.36-397.311h3.913l2.456-4.177h-3.982Z" transform="translate(-306.566 401.497)" fill="#ec7130"/>
          </g>
        </g>
        <path id="Trazado_701" data-name="Trazado 701" d="M-12.04.35a10.492,10.492,0,0,1-2.765-.4A6.485,6.485,0,0,1-17.22-1.225a2.645,2.645,0,0,1-.718-1A2.975,2.975,0,0,1-18.2-3.395a1.6,1.6,0,0,1,.507-1.12A1.927,1.927,0,0,1-16.24-5.04a2.969,2.969,0,0,1,1.575.665,8.613,8.613,0,0,0,1.225.63,3.486,3.486,0,0,0,1.365.28A5.658,5.658,0,0,0-9.362-4.13,5.464,5.464,0,0,0-7.367-5.915,4.248,4.248,0,0,0-6.615-8.33a4.092,4.092,0,0,0-.612-2.275,4.242,4.242,0,0,0-1.61-1.47A4.552,4.552,0,0,0-10.99-12.6a4.711,4.711,0,0,0-1.89.35q-.805.35-1.47.718a2.728,2.728,0,0,1-1.33.367,2.49,2.49,0,0,1-1.715-.507,2.175,2.175,0,0,1-.7-1.208,3.955,3.955,0,0,1-.07-1.26l1.085-8.68a2,2,0,0,1,.718-1.208A2.114,2.114,0,0,1-14.98-24.5H-4.865a1.9,1.9,0,0,1,1.4.56,1.9,1.9,0,0,1,.56,1.4,1.8,1.8,0,0,1-.56,1.347,1.932,1.932,0,0,1-1.4.542h-9.03l.385-.315-.945,7.28-.455-1.33A1.988,1.988,0,0,1-14-15.68a9.617,9.617,0,0,1,1.61-.542A7.343,7.343,0,0,1-10.6-16.45a8.267,8.267,0,0,1,4.2,1.068,7.847,7.847,0,0,1,2.922,2.9A8.1,8.1,0,0,1-2.415-8.33a7.626,7.626,0,0,1-.77,3.395A8.843,8.843,0,0,1-5.3-2.17,10.05,10.05,0,0,1-8.382-.315,10.118,10.118,0,0,1-12.04.35Z" transform="translate(1146 859)" fill="#f2986e"/>
      </g>
    </g>
  </g>
</svg>
