<svg xmlns="http://www.w3.org/2000/svg" width="113" height="56" viewBox="0 0 113 56">
  <g id="temp_left_2" transform="translate(-2058 -3593)">
    <g id="Grupo_442" data-name="Grupo 442" transform="translate(1016 2773)">
      <g id="Rectángulo_82" data-name="Rectángulo 82" transform="translate(1042 820)" fill="none" stroke="#f2986e" stroke-width="1">
        <rect width="113" height="56" rx="5" stroke="none"/>
        <rect x="0.5" y="0.5" width="112" height="55" rx="4.5" fill="none"/>
      </g>
      <g id="Grupo_443" data-name="Grupo 443" transform="translate(1.543 2)">
        <g id="Grupo_74" data-name="Grupo 74" transform="translate(1048.457 826)">
          <path id="Trazado_8" data-name="Trazado 8" d="M318.744-386.97l-20.4-20.719,20.4-19.97,21.246,20.767Z" transform="translate(-298.339 427.659)" fill="#f2986e"/>
          <path id="Trazado_9" data-name="Trazado 9" d="M-1.078,0H2.166L-2.461,25.32H-5.7Z" transform="translate(12.968 10.267)" fill="#ec7130"/>
          <path id="Trazado_10" data-name="Trazado 10" d="M-2.463,0H-5.7l4.624,25.32H2.162Z" transform="translate(32.193 10.267)" fill="#ec7130"/>
          <rect id="Rectángulo_16" data-name="Rectángulo 16" width="30.825" height="4.186" transform="translate(5.199 20.801)" fill="#fac66a"/>
          <path id="Trazado_11" data-name="Trazado 11" d="M305.5-397.485h3.091l2.615-4.177H305.5Z" transform="translate(-300.304 422.472)" fill="#ec7130"/>
          <path id="Trazado_12" data-name="Trazado 12" d="M336.242-397.293h5.284v-4.177h-3.084Z" transform="translate(-305.503 422.28)" fill="#eb7132"/>
          <path id="Trazado_14" data-name="Trazado 14" d="M314.36-397.311h3.913l2.456-4.177h-3.982Z" transform="translate(-292.446 422.298)" fill="#ec7130"/>
          <path id="Trazado_19" data-name="Trazado 19" d="M314.36-397.311h3.913l2.456-4.177h-3.982Z" transform="translate(-301.367 422.298)" fill="#ec7130"/>
          <g id="Grupo_10" data-name="Grupo 10" transform="translate(5.199 13.19)">
            <rect id="Rectángulo_17" data-name="Rectángulo 17" width="30.825" height="4.186" transform="translate(0 0)" fill="#fac66a"/>
            <path id="Trazado_20" data-name="Trazado 20" d="M305.5-397.485h3.091l2.615-4.177H305.5Z" transform="translate(-305.503 401.671)" fill="#ec7130"/>
            <path id="Trazado_21" data-name="Trazado 21" d="M336.242-397.293h5.284v-4.177h-3.084Z" transform="translate(-310.701 401.479)" fill="#eb7132"/>
            <path id="Trazado_22" data-name="Trazado 22" d="M314.36-397.311h3.913l2.456-4.177h-3.982Z" transform="translate(-297.645 401.497)" fill="#ec7130"/>
            <path id="Trazado_23" data-name="Trazado 23" d="M314.36-397.311h3.913l2.456-4.177h-3.982Z" transform="translate(-306.566 401.497)" fill="#ec7130"/>
          </g>
        </g>
        <path id="Trazado_704" data-name="Trazado 704" d="M-3.01-3.85a1.9,1.9,0,0,1,1.4.56,1.9,1.9,0,0,1,.56,1.4A1.8,1.8,0,0,1-1.61-.543,1.932,1.932,0,0,1-3.01,0h-11.9a1.872,1.872,0,0,1-1.435-.56A2.014,2.014,0,0,1-16.87-2a2.172,2.172,0,0,1,.63-1.54l7.63-8.155a13.934,13.934,0,0,0,2.03-2.783,5.584,5.584,0,0,0,.77-2.642,3.736,3.736,0,0,0-.525-1.96,4.127,4.127,0,0,0-1.365-1.4A3.37,3.37,0,0,0-9.52-21a3.781,3.781,0,0,0-2.065.682,6.96,6.96,0,0,0-1.855,1.8,1.866,1.866,0,0,1-.84.7,2.453,2.453,0,0,1-.77.14,2.087,2.087,0,0,1-1.418-.578,1.757,1.757,0,0,1-.647-1.347,1.956,1.956,0,0,1,.4-1.155,9.474,9.474,0,0,1,1-1.155,10.553,10.553,0,0,1,3.08-2.135,8.033,8.033,0,0,1,3.36-.8,8.121,8.121,0,0,1,4.1.98,6.869,6.869,0,0,1,2.66,2.695,7.915,7.915,0,0,1,.945,3.885A8.879,8.879,0,0,1-2.118-14.3,13.784,13.784,0,0,1-3.605-11.34a21.7,21.7,0,0,1-2.17,2.765L-10.5-3.535l-.385-.315Z" transform="translate(1146 859)" fill="#f2986e"/>
      </g>
    </g>
  </g>
</svg>
