<svg xmlns="http://www.w3.org/2000/svg" width="52" height="53" viewBox="0 0 52 53">
  <g id="button-close" transform="translate(-2874 -1195)">
    <g id="Rectángulo_212" data-name="Rectángulo 212" transform="translate(2874 1195)" fill="#fff" stroke="#000" stroke-width="1">
      <rect width="52" height="53" rx="10" stroke="none"/>
      <rect x="0.5" y="0.5" width="51" height="52" rx="9.5" fill="none"/>
    </g>
    <path id="iconfinder_00-ELASTOFONT-STORE-READY_close_2703079" d="M17.243,15.924,30.574,2.592a.933.933,0,0,0-1.319-1.319L15.924,14.6,2.592,1.273A.933.933,0,0,0,1.273,2.592L14.6,15.924,1.273,29.255a.933.933,0,1,0,1.319,1.319L15.924,17.243,29.255,30.574a.933.933,0,0,0,1.319-1.319Z" transform="translate(2884.076 1205.576)" fill="#1d1d1b"/>
  </g>
</svg>
