<svg xmlns="http://www.w3.org/2000/svg" width="170" height="352" viewBox="0 0 170 352">
  <g id="Grupo_456" data-name="Grupo 456" transform="translate(-416 -820)">
    <text id="CLICK_HERE_TO_FLIP" data-name="CLICK
HERE
TO
FLIP" transform="translate(501 921)" font-size="54" font-family="Quicksand-Regular, Quicksand"><tspan x="-84.51" y="0">CLICK</tspan><tspan x="-68.58" y="63">HERE</tspan><tspan x="-38.961" y="126">TO</tspan><tspan x="-55.647" y="189">FLIP</tspan></text>
    <g id="icons" transform="translate(470.876 816)">
      <path id="share" d="M57.423,21.433,38.866,4.563c-1.406-1.406-3.093,0-3.093,2.249v8.435c-13.215,0-24.462,8.154-29.8,19.119A43.033,43.033,0,0,0,2.033,45.894c-.562,2.812,3.655,4.218,5.342,1.687,6.186-9.841,16.589-16.308,28.4-16.308v9.279c0,2.249,1.687,3.655,3.093,2.249l18.557-16.87A3.421,3.421,0,0,0,57.423,21.433Z" transform="translate(0 0)"/>
    </g>
    <g id="icons-2" data-name="icons" transform="translate(472.358 1127.098)">
      <path id="share-2" data-name="share" d="M57.423,31.469,38.866,48.339c-1.406,1.406-3.093,0-3.093-2.249V37.655c-13.215,0-24.462-8.154-29.8-19.119A43.033,43.033,0,0,1,2.033,7.008C1.471,4.2,5.688,2.79,7.375,5.321c6.186,9.841,16.589,16.308,28.4,16.308V12.35c0-2.249,1.687-3.655,3.093-2.249L57.423,26.97A3.421,3.421,0,0,1,57.423,31.469Z" transform="translate(-1.982 -4)"/>
    </g>
  </g>
</svg>
