<svg xmlns="http://www.w3.org/2000/svg" width="53" height="53" viewBox="0 0 53 53">
  <g id="Grupo_454" data-name="Grupo 454" transform="translate(-678 -1264)">
    <g id="Rectángulo_137" data-name="Rectángulo 137" transform="translate(678 1264)" fill="#fff" stroke="#000" stroke-width="1">
      <rect width="53" height="53" rx="10" stroke="none"/>
      <rect x="0.5" y="0.5" width="52" height="52" rx="9.5" fill="none"/>
    </g>
    <g id="iconfinder_information_faq_help_info_about_3994375" transform="translate(696.271 1273.472)">
      <path id="Trazado_464" data-name="Trazado 464" d="M38.593,52.678H34.424V38.085A2.084,2.084,0,0,0,32.339,36H28.169a2.085,2.085,0,1,0,0,4.169h2.085V52.678H26.085a2.085,2.085,0,1,0,0,4.169H38.593a2.085,2.085,0,0,0,0-4.169Z" transform="translate(-24 -23.492)"/>
      <path id="Trazado_465" data-name="Trazado 465" d="M40.169,8.339A4.169,4.169,0,1,0,36,4.169,4.169,4.169,0,0,0,40.169,8.339Z" transform="translate(-31.831 0)"/>
    </g>
  </g>
</svg>
