<svg xmlns="http://www.w3.org/2000/svg" width="413" height="432" viewBox="0 0 413 432">
  <g id="Grupo_480" data-name="Grupo 480" transform="translate(-995 -4134)">
    <path id="iconfinder_octagon_3325011" d="M98.292,2H234.35l96.292,96.292V234.35L234.35,330.642H98.292L2,234.35V98.292Z" transform="translate(1035 4184)" fill="#52bef0"/>
    <g id="Grupo_479" data-name="Grupo 479" transform="translate(-120 58)">
      <rect id="Rectángulo_86" data-name="Rectángulo 86" width="21" height="259" transform="translate(1226 4210)" fill="#fbd734"/>
      <rect id="Rectángulo_87" data-name="Rectángulo 87" width="21" height="259" transform="translate(1290 4210)" fill="#fbd734"/>
      <rect id="Rectángulo_85" data-name="Rectángulo 85" width="193" height="43" transform="translate(1172 4465)" fill="#445a64"/>
      <rect id="Rectángulo_88" data-name="Rectángulo 88" width="51" height="14" transform="translate(1243 4441)" fill="#fbd734"/>
      <rect id="Rectángulo_89" data-name="Rectángulo 89" width="51" height="14" transform="translate(1243 4441)" fill="#fbd734"/>
      <rect id="Rectángulo_90" data-name="Rectángulo 90" width="51" height="14" transform="translate(1243 4381)" fill="#fbd734"/>
      <rect id="Rectángulo_91" data-name="Rectángulo 91" width="51" height="14" transform="translate(1243 4321)" fill="#fbd734"/>
      <rect id="Rectángulo_92" data-name="Rectángulo 92" width="51" height="14" transform="translate(1243 4261)" fill="#fbd734"/>
      <path id="Trazado_471" data-name="Trazado 471" d="M1244.5,4308.469l51.652-42.523v18.467l-51.652,42.353Z" fill="#fbd734"/>
      <path id="Trazado_472" data-name="Trazado 472" d="M1244.5,4308.469l51.652-42.523v18.467l-51.652,42.353Z" transform="translate(0 60.82)" fill="#fbd734"/>
      <path id="Trazado_473" data-name="Trazado 473" d="M1244.5,4308.469l51.652-42.523v18.467l-51.652,42.353Z" transform="translate(0 120.82)" fill="#fbd734"/>
      <path id="Trazado_474" data-name="Trazado 474" d="M1244.5,4308.469l51.652-42.523v18.467l-51.652,42.353Z" transform="translate(0 -60.82)" fill="#fbd734"/>
      <rect id="Rectángulo_93" data-name="Rectángulo 93" width="413" height="26" transform="translate(1115 4187)" fill="#fbd734"/>
      <path id="Trazado_475" data-name="Trazado 475" d="M1228.763,4191.188l31.024-107.565h17.143l32.2,109.254H1289.49l-20.966-75.682-21.789,78.458Z" fill="#fbd734"/>
      <ellipse id="Elipse_54" data-name="Elipse 54" cx="9.5" cy="8" rx="9.5" ry="8" transform="translate(1259 4076)" fill="#fbd734"/>
      <path id="Trazado_476" data-name="Trazado 476" d="M1134.329,4187l127.035-103.032-4.045,13.493-122.989,99.467Z" fill="#fbd734"/>
      <path id="Trazado_477" data-name="Trazado 477" d="M1275.863,4084l234.854,104.487h-19.985l-214.869-97.263Z" fill="#fbd734"/>
      <rect id="Rectángulo_94" data-name="Rectángulo 94" width="80" height="22" transform="translate(1115 4218)" fill="#445a64"/>
      <rect id="Rectángulo_95" data-name="Rectángulo 95" width="8" height="56" transform="translate(1494 4211)" fill="#fbd734"/>
      <rect id="Rectángulo_96" data-name="Rectángulo 96" width="8" height="59" transform="translate(1511 4208)" fill="#fbd734"/>
      <g id="iconfinder_Construction_crane_hook_6588852" transform="translate(1477.624 4259)">
        <path id="Trazado_478" data-name="Trazado 478" d="M8.958,12.566h38.46a7.922,7.922,0,0,0,2.958-6.339V4.113A2,2,0,0,0,48.263,2H8.113A2,2,0,0,0,6,4.113V6.226A7.922,7.922,0,0,0,8.958,12.566Z" transform="translate(0 0)" fill="#445a64"/>
        <path id="Trazado_479" data-name="Trazado 479" d="M9,9V23.792a2,2,0,0,0,2.113,2.113H21.679v6.339a1.27,1.27,0,0,0,.211.845l4.86,11.2a3.825,3.825,0,0,1-.211,3.381,3.658,3.658,0,0,1-5.917,0A3.448,3.448,0,0,1,20.2,44.5a18.3,18.3,0,0,0,1.268-6.762,2,2,0,0,0-2.113-2.113,2,2,0,0,0-2.113,2.113,15.676,15.676,0,0,1-1.057,5.283,7.336,7.336,0,0,0,.845,7.185A7.8,7.8,0,0,0,30.554,42.6L25.905,31.822V25.905H38.584A2,2,0,0,0,40.7,23.792V9Z" transform="translate(3.339 7.792)" fill="#445a64"/>
      </g>
    </g>
  </g>
</svg>
