<svg xmlns="http://www.w3.org/2000/svg" width="340.825" height="424.067" viewBox="0 0 340.825 424.067">
  <g id="Grupo_490" data-name="Grupo 490" transform="translate(-2005.358 -4564.893)">
    <rect id="Rectángulo_108" data-name="Rectángulo 108" width="241" height="241" transform="translate(2175.771 4606.893) rotate(45)" fill="#ffdc00"/>
    <g id="iconfinder_newspaper_3890941" transform="translate(2073.113 4562.313)">
      <g id="fill" transform="translate(4.702 2.58)">
        <path id="Trazado_500" data-name="Trazado 500" d="M175.5,41.992a189.667,189.667,0,0,0-24.361-28.276C140.269,3.493,129.611-.857,115.256,5.668,103.075,11.106,92.2,20.676,81.324,28.724L44.348,55.477c-10.223,7.4-20.663,14.138-24.8,26.971A33.659,33.659,0,0,0,18.03,91.8c-.653.218-1.088.435-1.74.653l-.653.218H15.2c-4.568,1.523-9.353,5.22-10.223,10.223v.435a23.64,23.64,0,0,0-.218,3.915A14.45,14.45,0,0,0,8.025,122.9c.435.218.653.653,1.088.87a29.164,29.164,0,0,0,3.7,12.615c4.133,7.178,10.875,11.963,16.966,17.4,6.743,5.873,13.05,11.963,19.358,18.271C60.009,182.936,72.407,203.6,89.807,203.6c9.135,0,16.531-5.873,23.708-10.875l23.056-16.1c14.79-10.223,29.8-20.228,44.154-31.1a52.053,52.053,0,0,0,16.748-19.576,13.268,13.268,0,0,0,6.743-12.18C204,87.886,190.3,62.437,175.5,41.992Z" transform="translate(-3.722 -2.58)" fill="#efe7d2"/>
      </g>
      <g id="line_copy" transform="translate(2.887 7.324)">
        <path id="Trazado_501" data-name="Trazado 501" d="M18.015,55.685h0c-1.305-1.74-2.61-3.263-3.915-4.785l3.48,5C17.8,55.9,18.015,55.9,18.015,55.685Z" transform="translate(10.288 49.455)" fill="none"/>
        <path id="Trazado_502" data-name="Trazado 502" d="M22.4,59.768,18.488,55.2a2.172,2.172,0,0,1-1.088.87l3.263,4.568A12.915,12.915,0,0,1,22.4,59.768Z" transform="translate(14.166 54.508)" fill="none"/>
        <path id="Trazado_503" data-name="Trazado 503" d="M29.055,67.885c-1.088-1.523-2.393-3.263-3.48-4.785a2.171,2.171,0,0,1-.87,1.088L23.4,65.275l3.045,4.35A18.143,18.143,0,0,1,29.055,67.885Z" transform="translate(21.216 63.791)" fill="none"/>
        <path id="Trazado_504" data-name="Trazado 504" d="M36.668,80.068c0-.217.218-.217,0,0a48.874,48.874,0,0,0-2.61-4.568A14.072,14.072,0,0,1,32.1,77.24l3.045,4.133C35.58,80.938,36.015,80.285,36.668,80.068Z" transform="translate(31.44 78.362)" fill="none"/>
        <path id="Trazado_505" data-name="Trazado 505" d="M33.1,75.415c.218-.217.653-.435.87-.653-.653-1.088-1.523-2.175-2.175-3.263-.218.218-.218.218-.435.218-.653.435-1.305,1.088-1.958,1.523L31.793,76.5A8.28,8.28,0,0,1,33.1,75.415Z" transform="translate(28.267 73.662)" fill="none"/>
        <path id="Trazado_506" data-name="Trazado 506" d="M23.763,63.633a1.975,1.975,0,0,1,1.523-.653,39.712,39.712,0,0,0-2.828-3.48l-.653.653-1.305.653,2.393,3.48Z" transform="translate(17.809 59.561)" fill="none"/>
        <path id="Trazado_507" data-name="Trazado 507" d="M31.068,71.3c.218,0,.218-.217.435-.217-.87-1.088-1.523-2.175-2.393-3.48-.87.653-1.74,1.088-2.61,1.74l2.393,3.48A13.2,13.2,0,0,1,31.068,71.3Z" transform="translate(24.859 69.079)" fill="none"/>
        <path id="Trazado_508" data-name="Trazado 508" d="M41.625,88.483c-1.74-2.828-3.263-5.873-5-8.483-.435.435-1.088.87-1.523,1.305L45.975,96.531C44.453,93.92,43.148,91.31,41.625,88.483Z" transform="translate(34.965 83.65)" fill="none"/>
        <path id="Trazado_509" data-name="Trazado 509" d="M205.414,102.941c-3.263-7.178-17.4-36.976-46.981-72.647-4.568-5.655-10.875-12.833-18.488-20.881a14.914,14.914,0,0,0-18.706-2.393l1.523,2.828-1.74-2.61C100.14,20.071,78.607,34.427,56.639,50.522c-12.18,8.7-23.708,17.4-34.8,26.1a14.773,14.773,0,0,0-2.61,20.446h0L7.483,106.856a13,13,0,0,0-1.74,18.053A594.687,594.687,0,0,0,78.39,198.427a51.09,51.09,0,0,0,6.96,5,20.259,20.259,0,0,0,8.7,2.61h.218c.217.217.435.217.653.435a3.638,3.638,0,0,0,2.61-.218,474.348,474.348,0,0,0,87.22-62.207c5.438-4.785,10.44-9.57,15.225-14.355a23,23,0,0,0,6.96-16.748,16.048,16.048,0,0,0-1.523-10.005ZM124.5,12.458h0a8.873,8.873,0,0,1,10.875,1.305c7.613,8.048,13.7,15.008,18.271,20.446,28.928,35.019,42.849,64.382,46.111,71.125v.217a15.467,15.467,0,0,1,1.523,6.96,17.322,17.322,0,0,1-5.22,12.18c-4.785,4.785-9.788,9.57-15.008,14.138a442.777,442.777,0,0,1-83.305,60.032c-3.915-8.265-8.048-16.531-12.833-25.013a384.579,384.579,0,0,0-60.032-80.26A8.012,8.012,0,0,1,25.1,82.061l.653-.653c11.093-8.7,22.621-17.183,34.584-25.883C82.3,39.647,103.621,25.291,124.5,12.458ZM9.44,116.644a6.5,6.5,0,0,1,2.393-5L23.8,101.636c1.088,1.305,2.393,2.393,3.48,3.7,1.305,1.523,2.828,3.045,4.133,4.568h-.218c-.218,0-.218.218-.435.218a35.881,35.881,0,0,0-9.353,7.83,3.091,3.091,0,0,0,4.785,3.915h0a30.207,30.207,0,0,1,8.048-6.743h0c.435-.218.653-.653,1.088-.87l3.915,4.568a7.63,7.63,0,0,0-1.74,1.088,59.356,59.356,0,0,0-9.353,7.178,3.08,3.08,0,0,0,4.133,4.568l.218-.218h0a40.157,40.157,0,0,1,8.483-6.525l1.305-.653.653-.653a39.715,39.715,0,0,0,2.828,3.48,3.248,3.248,0,0,0-1.523.653l-.653.653c-2.175,1.958-4.568,3.915-6.743,6.09a3.08,3.08,0,1,0,4.133,4.568h0l6.308-5.655,1.305-1.088a2.171,2.171,0,0,0,.87-1.088c1.088,1.523,2.393,3.045,3.48,4.785a22.783,22.783,0,0,0-2.393,1.74,37.565,37.565,0,0,0-6.09,5.655,3.08,3.08,0,0,0,4.568,4.133h0a32.772,32.772,0,0,1,5-4.568,18.144,18.144,0,0,1,2.61-1.74c.87,1.088,1.523,2.175,2.393,3.48-.218,0-.218.218-.435.218-.653.435-1.523,1.088-2.175,1.523a29.645,29.645,0,0,0-5.22,5.22,3.091,3.091,0,0,0,4.785,3.915h0a23.29,23.29,0,0,1,4.133-3.915c.653-.435,1.305-1.088,1.958-1.523.218,0,.218-.218.435-.218.653,1.088,1.523,2.175,2.175,3.263-.218.217-.653.217-.87.653a9.46,9.46,0,0,1-1.523,1.305c-1.305,1.088-2.828,2.393-4.133,3.263a3.137,3.137,0,0,0,3.48,5.22h0c1.523-1.088,2.828-2.175,4.35-3.263.653-.653,1.305-1.088,1.958-1.74.87,1.523,1.958,3.045,2.828,4.568H70.56a13.921,13.921,0,0,0-5,5.655,3.211,3.211,0,0,0,5.655,3.045h0a11.953,11.953,0,0,1,1.523-1.958,9.461,9.461,0,0,1,1.523-1.305c1.74,2.828,3.263,5.655,5,8.483,1.523,2.61,2.828,5.22,4.35,7.83,2.393,4.785,4.785,9.353,6.96,13.92-.653-.217-1.305-.653-1.958-.87a29.371,29.371,0,0,1-5.873-4.35,566.269,566.269,0,0,1-71.777-72.647A8.1,8.1,0,0,1,9.44,116.644Z" transform="translate(-2.887 -4.761)"/>
        <path id="Trazado_510" data-name="Trazado 510" d="M19.927,61.879a3.094,3.094,0,0,0,4.35.218h0A192.087,192.087,0,0,1,59.3,36.648a3.064,3.064,0,0,0-2.828-5.438.213.213,0,0,0-.218.218A204.589,204.589,0,0,0,20.144,57.746C18.839,58.616,18.839,60.574,19.927,61.879Z" transform="translate(16.207 25.861)"/>
        <path id="Trazado_511" data-name="Trazado 511" d="M22.886,67.306a3.1,3.1,0,0,0,4.35.435h0C38.329,58.17,49.857,49.253,61.6,40.77a3.11,3.11,0,0,0-3.7-5h0C45.942,44.467,34.2,53.6,23.1,63.173a3.006,3.006,0,0,0-.218,4.133Z" transform="translate(19.773 30.874)"/>
        <path id="Trazado_512" data-name="Trazado 512" d="M68.629,44.536a3.11,3.11,0,0,0-3.7-5L27.086,67.156a3.11,3.11,0,0,0,3.7,5h0C43.4,63.024,56.014,53.671,68.629,44.536Z" transform="translate(24.056 35.374)"/>
        <path id="Trazado_513" data-name="Trazado 513" d="M71.973,49.377A3.171,3.171,0,0,0,68.71,43.94,272.377,272.377,0,0,0,30.211,72a3.091,3.091,0,0,0,3.915,4.785h0A262.11,262.11,0,0,1,71.973,49.377Z" transform="translate(27.891 40.755)"/>
        <path id="Trazado_514" data-name="Trazado 514" d="M74.7,53.477a3.171,3.171,0,1,0-3.263-5.438A242.411,242.411,0,0,0,34.244,75.663a3.08,3.08,0,1,0,4.133,4.568h0A260.593,260.593,0,0,1,74.7,53.477Z" transform="translate(32.775 45.573)"/>
        <path id="Trazado_515" data-name="Trazado 515" d="M39.726,103.81a3.19,3.19,0,0,0,4.35.87h0c27.623-19.141,55.029-38.934,82-58.944a3.11,3.11,0,1,0-3.7-5C95.408,60.526,68,80.1,40.6,99.242A3.22,3.22,0,0,0,39.726,103.81Z" transform="translate(39.691 36.784)"/>
        <path id="Trazado_516" data-name="Trazado 516" d="M48.691,88.373c7.83-5.655,15.66-10.875,23.708-16.1a3.171,3.171,0,0,0-3.263-5.438h0c-8.048,5.22-16.1,10.658-23.926,16.313a3.1,3.1,0,0,0-.435,4.35A2.79,2.79,0,0,0,48.691,88.373Z" transform="translate(45.517 67.664)"/>
        <path id="Trazado_517" data-name="Trazado 517" d="M51.026,93.421A166.576,166.576,0,0,1,76.692,76.89,3.181,3.181,0,0,0,78,72.54a3.016,3.016,0,0,0-4.35-1.305A162.756,162.756,0,0,0,47.111,88.418a3.1,3.1,0,0,0-.435,4.35,2.957,2.957,0,0,0,4.35.653Z" transform="translate(47.749 72.839)"/>
        <path id="Trazado_518" data-name="Trazado 518" d="M75.212,76.311a162.863,162.863,0,0,0-26.1,17.836,3.091,3.091,0,1,0,3.915,4.785h0A150.637,150.637,0,0,1,78.257,81.966a3.211,3.211,0,1,0-3.045-5.655Z" transform="translate(50.1 78.856)"/>
        <path id="Trazado_519" data-name="Trazado 519" d="M84.519,57.616a3.181,3.181,0,0,0-4.35-1.305h0A103.088,103.088,0,0,0,60.811,69.143a3.091,3.091,0,1,0,3.915,4.785l.217-.218h0a102.767,102.767,0,0,1,18.271-12.18A2.659,2.659,0,0,0,84.519,57.616Z" transform="translate(63.848 55.355)"/>
        <path id="Trazado_520" data-name="Trazado 520" d="M86.167,66.491a3.276,3.276,0,0,0,1.523-4.133,3.2,3.2,0,0,0-4.133-1.523A72.186,72.186,0,0,0,63.329,74.974,3.23,3.23,0,0,0,67.9,79.542h0A63.794,63.794,0,0,1,86.167,66.491Z" transform="translate(66.985 60.835)"/>
        <path id="Trazado_521" data-name="Trazado 521" d="M84.95,65.567a124.366,124.366,0,0,0-18.706,14.79,3.08,3.08,0,1,0,4.133,4.568l.217-.218h0A124.239,124.239,0,0,1,88.43,70.57a3.063,3.063,0,1,0-3.48-5Z" transform="translate(70.377 65.891)"/>
        <path id="Trazado_522" data-name="Trazado 522" d="M74.567,62.993a3.138,3.138,0,0,0,4.35.653h0l15.008-11.31a3.11,3.11,0,1,0-3.7-5h0c-5,3.7-10.005,7.613-15.008,11.31A2.957,2.957,0,0,0,74.567,62.993Z" transform="translate(80.543 44.539)"/>
        <path id="Trazado_523" data-name="Trazado 523" d="M76.841,68.958a3.094,3.094,0,0,0,4.35.217h0A100.773,100.773,0,0,1,97.5,56.777a3.171,3.171,0,1,0-3.263-5.438,145.208,145.208,0,0,0-17.4,13.05,3.605,3.605,0,0,0,0,4.568Z" transform="translate(83.054 49.451)"/>
        <path id="Trazado_524" data-name="Trazado 524" d="M79.374,73.109a3.1,3.1,0,0,0,4.35.435h0a131.072,131.072,0,0,1,16.531-12.4,3.137,3.137,0,0,0-3.48-5.22A168.042,168.042,0,0,0,79.591,68.759,2.894,2.894,0,0,0,79.374,73.109Z" transform="translate(85.959 54.652)"/>
        <path id="Trazado_525" data-name="Trazado 525" d="M61.1,15.6Z" transform="translate(65.517 7.975)"/>
        <path id="Trazado_526" data-name="Trazado 526" d="M57.3,24.4Z" transform="translate(61.051 18.316)"/>
        <path id="Trazado_527" data-name="Trazado 527" d="M42.786,45.833A153.41,153.41,0,0,1,69.1,84.767a3.2,3.2,0,0,0,4.133,1.523.213.213,0,0,0,.218-.217c13.92-8.7,27.406-17.618,40.456-27.406a3.137,3.137,0,0,0-3.48-5.22h-.218c-11.093,8.265-22.621,16.1-34.584,23.708-.435-9.353-.87-18.488-1.305-27.841a119.592,119.592,0,0,0,15.008,2.393,3.168,3.168,0,0,0,3.48-2.828v-.653a198.319,198.319,0,0,0-4.568-22.621l3.7,2.61a3.076,3.076,0,0,0,4.35-.653,3.138,3.138,0,0,0-.653-4.35l-8.483-6.09h0c-.435-.218-.87-.653-1.305-.87a4.2,4.2,0,0,0-2.175-.653h-.218a5.791,5.791,0,0,0-2.61.653,10.311,10.311,0,0,0-2.175,2.175A6.513,6.513,0,0,0,77.8,20.6l-3.48,10.005h0a2.759,2.759,0,0,0-.217,1.305,2.759,2.759,0,0,0,.217,1.305,3.9,3.9,0,0,0,1.088,1.523,2.951,2.951,0,0,0,3.48.218A5.767,5.767,0,0,0,80.2,33.871a3.56,3.56,0,0,0,.435-2.61l1.305-3.915c1.523,5.873,2.61,11.745,3.7,17.836a98.636,98.636,0,0,1-13.92-2.828A3.112,3.112,0,0,0,67.8,44.528a9.421,9.421,0,0,0-.217,1.088c.435,8.483.653,16.748,1.088,25.231A157.782,157.782,0,0,0,47.136,41.7a3,3,0,1,0-4.35,4.133Z" transform="translate(42.94 7.975)"/>
      </g>
    </g>
    <g id="iconfinder_29_5027823" transform="translate(2039.87 4716.87)">
      <g id="Grupo_489" data-name="Grupo 489" transform="translate(1.13 2.492)">
        <g id="Grupo_487" data-name="Grupo 487" transform="translate(4.256 4.256)">
          <circle id="Elipse_57" data-name="Elipse 57" cx="68.322" cy="68.322" r="68.322" transform="translate(124.33 124.386)" fill="#e9f4bc"/>
          <path id="Trazado_488" data-name="Trazado 488" d="M136.537,158.795a68.223,68.223,0,0,0,0,72.18,55.75,55.75,0,0,0,4.767,6.753,68.272,68.272,0,0,0,43.013,24.741,12.5,12.5,0,0,1-4.426.738H14.931A13.03,13.03,0,0,1,1.88,250.1V15.228A13.03,13.03,0,0,1,14.931,2.12H179.948a13.078,13.078,0,0,1,13.108,13.108V126.563a67.871,67.871,0,0,0-42.275,15.889A64.4,64.4,0,0,0,136.537,158.795Z" transform="translate(-1.88 -2.12)" fill="#fff"/>
          <rect id="Rectángulo_100" data-name="Rectángulo 100" width="157.469" height="46.304" transform="translate(16.797 16.853)" fill="#9beaf9"/>
          <rect id="Rectángulo_101" data-name="Rectángulo 101" width="39.608" height="39.608" transform="translate(16.797 84.721)" fill="#ff9d9c"/>
          <rect id="Rectángulo_102" data-name="Rectángulo 102" width="39.608" height="39.608" transform="translate(75.755 84.721)" fill="#ff9d9c"/>
          <rect id="Rectángulo_103" data-name="Rectángulo 103" width="39.608" height="39.608" transform="translate(134.657 84.721)" fill="#ff9d9c"/>
          <rect id="Rectángulo_104" data-name="Rectángulo 104" width="39.608" height="39.608" transform="translate(16.797 140.332)" fill="#febecc"/>
          <rect id="Rectángulo_105" data-name="Rectángulo 105" width="39.608" height="39.608" transform="translate(75.755 140.332)" fill="#febecc"/>
          <rect id="Rectángulo_106" data-name="Rectángulo 106" width="39.608" height="39.608" transform="translate(16.797 195.943)" fill="#febecc"/>
          <rect id="Rectángulo_107" data-name="Rectángulo 107" width="39.608" height="39.608" transform="translate(75.755 195.943)" fill="#febecc"/>
        </g>
        <g id="Grupo_488" data-name="Grupo 488">
          <path id="Trazado_489" data-name="Trazado 489" d="M200.761,125.927V18.734A17.4,17.4,0,0,0,183.4,1.37H18.437A17.389,17.389,0,0,0,1.13,18.734V212.123a4.256,4.256,0,0,0,8.512,0,.056.056,0,0,0-.057-.057V18.734a8.827,8.827,0,0,1,8.852-8.852H173.012a.927.927,0,0,0,.4,0H183.4a8.864,8.864,0,0,1,8.852,8.852V126.04a67.05,67.05,0,0,0-8.342,1.135V90.347a4.287,4.287,0,0,0-4.256-4.256H140.043a4.287,4.287,0,0,0-4.256,4.256v39.608a4.287,4.287,0,0,0,4.256,4.256h24.174a72.522,72.522,0,0,0-.227,128.245H18.437a8.779,8.779,0,0,1-8.852-8.8V234.878a4.228,4.228,0,1,0-8.455,0v18.783a17.34,17.34,0,0,0,17.307,17.307H183.4a4.052,4.052,0,0,0,2.781-1.078,74.432,74.432,0,0,0,11.917,1.078,72.545,72.545,0,0,0,2.667-145.042ZM144.3,94.6h31.1v31.1H144.3Zm53.738,167.8A64.066,64.066,0,1,1,262.1,198.334,64.1,64.1,0,0,1,198.037,262.4Z" transform="translate(-1.13 -1.37)" fill="#505050"/>
          <path id="Trazado_490" data-name="Trazado 490" d="M81.594,26.29a55.554,55.554,0,1,0,55.554,55.554A55.6,55.6,0,0,0,81.594,26.29Zm0,102.6a47.042,47.042,0,1,1,47.042-47.042A47.1,47.1,0,0,1,81.594,128.886Z" transform="translate(115.313 115.12)" fill="#505050"/>
          <path id="Trazado_491" data-name="Trazado 491" d="M49.994,44.788a8.731,8.731,0,0,1,8.739,8.682,4.256,4.256,0,0,0,8.512,0A17.267,17.267,0,0,0,54.25,36.843V33.836a4.256,4.256,0,1,0-8.512,0v3.008a17.208,17.208,0,0,0,4.256,33.877A8.71,8.71,0,1,1,41.312,79.4a4.256,4.256,0,0,0-8.512,0A17.216,17.216,0,0,0,45.738,96.029v3.008a4.256,4.256,0,0,0,8.512,0V96.086a17.168,17.168,0,0,0-4.256-33.82,8.739,8.739,0,0,1,0-17.478Z" transform="translate(146.913 130.499)" fill="#505050"/>
          <path id="Trazado_492" data-name="Trazado 492" d="M5.386,48.272A4.256,4.256,0,1,0,1.13,44.016,4.238,4.238,0,0,0,5.386,48.272Z" transform="translate(-1.13 178.086)" fill="#505050"/>
          <path id="Trazado_493" data-name="Trazado 493" d="M170.071,54.9V8.6a4.287,4.287,0,0,0-4.256-4.256H8.346A4.287,4.287,0,0,0,4.09,8.6V54.9a4.287,4.287,0,0,0,4.256,4.256H165.815A4.287,4.287,0,0,0,170.071,54.9Zm-8.512-4.256H12.6V12.852H161.559Z" transform="translate(12.707 12.513)" fill="#505050"/>
          <path id="Trazado_494" data-name="Trazado 494" d="M4.09,60.164A4.287,4.287,0,0,0,8.346,64.42H47.954a4.287,4.287,0,0,0,4.256-4.256V20.556A4.287,4.287,0,0,0,47.954,16.3H8.346A4.287,4.287,0,0,0,4.09,20.556ZM12.6,24.812H43.7v31.1H12.6Z" transform="translate(12.707 68.421)" fill="#505050"/>
          <path id="Trazado_495" data-name="Trazado 495" d="M62.59,20.556A4.287,4.287,0,0,0,58.334,16.3H18.726a4.287,4.287,0,0,0-4.256,4.256V60.164a4.287,4.287,0,0,0,4.256,4.256H58.334a4.287,4.287,0,0,0,4.256-4.256ZM54.078,55.908h-31.1v-31.1h31.1Z" transform="translate(61.229 68.421)" fill="#505050"/>
          <path id="Trazado_496" data-name="Trazado 496" d="M4.09,69.964A4.287,4.287,0,0,0,8.346,74.22H47.954a4.287,4.287,0,0,0,4.256-4.256V30.356A4.287,4.287,0,0,0,47.954,26.1H8.346A4.287,4.287,0,0,0,4.09,30.356ZM12.6,34.612H43.7v31.1H12.6Z" transform="translate(12.707 114.232)" fill="#505050"/>
          <path id="Trazado_497" data-name="Trazado 497" d="M62.59,30.356A4.287,4.287,0,0,0,58.334,26.1H18.726a4.287,4.287,0,0,0-4.256,4.256V69.964a4.287,4.287,0,0,0,4.256,4.256H58.334a4.287,4.287,0,0,0,4.256-4.256ZM54.078,65.708h-31.1v-31.1h31.1Z" transform="translate(61.229 114.232)" fill="#505050"/>
          <path id="Trazado_498" data-name="Trazado 498" d="M4.09,79.764A4.287,4.287,0,0,0,8.346,84.02H47.954a4.287,4.287,0,0,0,4.256-4.256V40.156A4.287,4.287,0,0,0,47.954,35.9H8.346A4.287,4.287,0,0,0,4.09,40.156ZM12.6,44.412H43.7v31.1H12.6Z" transform="translate(12.707 160.043)" fill="#505050"/>
          <path id="Trazado_499" data-name="Trazado 499" d="M58.334,35.9H18.726a4.287,4.287,0,0,0-4.256,4.256V79.764a4.287,4.287,0,0,0,4.256,4.256H58.334a4.287,4.287,0,0,0,4.256-4.256V40.156A4.215,4.215,0,0,0,58.334,35.9ZM54.078,75.508h-31.1v-31.1h31.1Z" transform="translate(61.229 160.043)" fill="#505050"/>
        </g>
      </g>
    </g>
  </g>
</svg>
