<svg xmlns="http://www.w3.org/2000/svg" width="743.122" height="733.818" viewBox="0 0 743.122 733.818">
  <g id="Grupo_491" data-name="Grupo 491" transform="translate(-1846.75 -5683)">
    <g id="iconfinder_General_Office_53_3592844" transform="translate(1845.63 5691.382)">
      <path id="Trazado_480" data-name="Trazado 480" d="M743.252,289.1a20.78,20.78,0,0,0-19.789-14.454H477.344L392.436,16.113a20.791,20.791,0,0,0-39.512,0l-84.9,258.531H21.906A20.789,20.789,0,0,0,9.85,312.373l199.172,141.77L128.852,698.17a20.785,20.785,0,0,0,31.8,23.415L372.68,570.639,584.688,721.577a20.787,20.787,0,0,0,31.8-23.415L536.339,454.134,735.51,312.365A20.781,20.781,0,0,0,743.252,289.1Z" transform="translate(0 0)" fill="#ff77d2"/>
    </g>
    <rect id="Rectángulo_97" data-name="Rectángulo 97" width="155" height="618" transform="translate(1921 5746)" fill="#fee000"/>
    <rect id="Rectángulo_98" data-name="Rectángulo 98" width="314" height="115" transform="translate(1921 6249)" fill="#fee000"/>
    <path id="Polígono_19" data-name="Polígono 19" d="M112,0,224,194H0Z" transform="translate(2399 6187) rotate(90)" fill="#fee000"/>
    <g id="Grupo_482" data-name="Grupo 482">
      <rect id="Rectángulo_99" data-name="Rectángulo 99" width="153" height="153" transform="translate(2000 5683)" fill="#ff7a00"/>
      <path id="Trazado_481" data-name="Trazado 481" d="M18.265-25.87c-1.95,18.46-29.38,13-40.04,5.72-4.42-3.64-8.19-2.47-11.57.91A9.623,9.623,0,0,0-31.525-6.5c17.94,14.82,65.78,14.04,66.69-18.98.91-34.58-55.64-22.36-52.13-43.68,2.73-13.52,24.57-10.66,34.19-4.55,7.8,5.72,17.16-5.59,8.32-12.74-17.94-13.78-56.03-9.23-59.02,15.99C-37.505-33.54,16.575-45.11,18.265-25.87Z" transform="translate(2077 5811)" fill="#fff"/>
    </g>
    <g id="Grupo_483" data-name="Grupo 483" transform="translate(0 166)">
      <rect id="Rectángulo_99-2" data-name="Rectángulo 99" width="153" height="153" transform="translate(2000 5683)" fill="#ff7a00"/>
      <path id="Trazado_482" data-name="Trazado 482" d="M-28.86,0a7.83,7.83,0,0,0,7.93-8.06V-36.53H21.45V-8.06C21.45-3.51,25.61,0,30.29,0a7.937,7.937,0,0,0,8.06-8.06V-81.9a7.859,7.859,0,0,0-8.06-8.06c-4.68,0-8.84,3.38-8.84,8.06v28.34H-20.93V-81.9a7.754,7.754,0,0,0-7.93-8.06c-5.85,0-9.23,3.38-9.23,8.06V-8.06C-38.09-3.51-34.71,0-28.86,0Z" transform="translate(2077 5811)" fill="#fff"/>
    </g>
    <g id="Grupo_484" data-name="Grupo 484" transform="translate(0 332)">
      <rect id="Rectángulo_99-3" data-name="Rectángulo 99" width="153" height="153" transform="translate(2000 5683)" fill="#ff7a00"/>
      <path id="Trazado_483" data-name="Trazado 483" d="M47.32-45.5c0-30.81-23.79-46.54-46.54-47.71-24.05,0-49.01,15.73-49.01,47.71C-48.23-13.65-23.27,2.34.78,1.3,23.53,1.3,47.32-14.69,47.32-45.5Zm-17.03,0c0,20.41-15.99,30.81-30.94,30.81-14.56,0-30.42-10.4-30.42-30.81,0-20.54,15.86-30.81,30.42-30.81C14.3-76.31,30.29-66.04,30.29-45.5Z" transform="translate(2077 5811)" fill="#fff"/>
    </g>
    <g id="Grupo_485" data-name="Grupo 485" transform="translate(0 504)">
      <rect id="Rectángulo_99-4" data-name="Rectángulo 99" width="153" height="153" transform="translate(2000 5683)" fill="#ff7a00"/>
      <path id="Trazado_484" data-name="Trazado 484" d="M7.8-85.02c-3.38-7.93-11.57-7.54-14.69.39L-29.9-31.07-49.14-84.63c-3.38-10.27-19.89-5.98-15.99,5.72L-39.91-8.06C-37.83-2.34-35.49.78-30.94.78c4.68,0,6.89-3.12,9.23-8.58L-.13-58.37,22.49-7.02C25.09-2.34,26.52.52,31.2.52c4.42,0,6.63-2.21,8.97-9.62L65.91-78.91c3.9-11.31-11.83-16.25-15.73-5.72L30.81-31.07Z" transform="translate(2077 5811)" fill="#fff"/>
    </g>
  </g>
</svg>
