<svg xmlns="http://www.w3.org/2000/svg" width="364.62" height="339.071" viewBox="0 0 364.62 339.071">
  <g id="Grupo_517" data-name="Grupo 517" transform="translate(-393.027 -7700.855)">
    <path id="Trazado_538" data-name="Trazado 538" d="M390.425,7585.811,712.964,7604.3l-35.375,42.177H430.217Z" transform="translate(15.901 115.045)" fill="#f200ad"/>
    <path id="Trazado_539" data-name="Trazado 539" d="M419.818,7609.92l-24.473,1.4,21.079,35.623h27.8Z" transform="translate(2.303 115.045)" fill="#00d7ff"/>
    <path id="Trazado_534" data-name="Trazado 534" d="M871.062,6757.53H507.614l44.537,277.9H827.392Z" transform="translate(-114 1004)" fill="gold" stroke="#000" stroke-width="1"/>
    <path id="Trazado_535" data-name="Trazado 535" d="M812.027,6802.51H563.563l30.608,188.472H784.054Z" transform="translate(-114.063 1003.99)" fill="#fff" stroke="#b79d9d" stroke-width="0.5"/>
    <line id="Línea_15" data-name="Línea 15" x2="241" transform="translate(453.5 7830.5)" fill="none" stroke="#b79d9d" stroke-width="0.5"/>
    <line id="Línea_16" data-name="Línea 16" x2="249" transform="translate(449.5 7806.5)" fill="none" stroke="#707070" stroke-width="1"/>
    <path id="Trazado_537" data-name="Trazado 537" d="M8.537.589h224.6" transform="translate(453.5 7878.5)" fill="none" stroke="#b79d9d" stroke-width="0.5"/>
    <path id="Trazado_536" data-name="Trazado 536" d="M8.807.666,241.868,0" transform="translate(449.5 7854.51)" fill="none" stroke="#b79d9d" stroke-width="0.5"/>
    <line id="Línea_19" data-name="Línea 19" x2="210" transform="translate(469.5 7926.5)" fill="none" stroke="#b79d9d" stroke-width="0.5"/>
    <line id="Línea_20" data-name="Línea 20" x2="218" transform="translate(465.5 7902.5)" fill="none" stroke="#b79d9d" stroke-width="0.5"/>
    <line id="Línea_21" data-name="Línea 21" x2="195" transform="translate(477.5 7974.5)" fill="none" stroke="#b79d9d" stroke-width="0.5"/>
    <line id="Línea_22" data-name="Línea 22" x2="204" transform="translate(472.5 7950.5)" fill="none" stroke="#b79d9d" stroke-width="0.5"/>
    <g id="Grupo_492" data-name="Grupo 492">
      <circle id="Elipse_58" data-name="Elipse 58" cx="9" cy="9" r="9" transform="translate(470 7775)" fill="#fff6c9"/>
      <circle id="Elipse_59" data-name="Elipse 59" cx="9" cy="9" r="9" transform="translate(498 7775)" fill="#fff6c9"/>
      <circle id="Elipse_60" data-name="Elipse 60" cx="9" cy="9" r="9" transform="translate(526 7775)" fill="#fff6c9"/>
      <circle id="Elipse_61" data-name="Elipse 61" cx="9" cy="9" r="9" transform="translate(554 7775)" fill="#fff6c9"/>
      <circle id="Elipse_62" data-name="Elipse 62" cx="9" cy="9" r="9" transform="translate(582 7775)" fill="#fff6c9"/>
      <circle id="Elipse_63" data-name="Elipse 63" cx="9" cy="9" r="9" transform="translate(610 7775)" fill="#fff6c9"/>
      <circle id="Elipse_64" data-name="Elipse 64" cx="9" cy="9" r="9" transform="translate(638 7775)" fill="#fff6c9"/>
      <circle id="Elipse_65" data-name="Elipse 65" cx="9" cy="9" r="9" transform="translate(666 7775)" fill="#fff6c9"/>
      <circle id="Elipse_67" data-name="Elipse 67" cx="9" cy="9" r="9" transform="translate(410 7775)" fill="#fff6c9"/>
      <circle id="Elipse_68" data-name="Elipse 68" cx="9" cy="9" r="9" transform="translate(442 7775)" fill="#fff6c9"/>
      <circle id="Elipse_69" data-name="Elipse 69" cx="9" cy="9" r="9" transform="translate(694 7775)" fill="#fff6c9"/>
      <circle id="Elipse_70" data-name="Elipse 70" cx="9" cy="9" r="9" transform="translate(722 7775)" fill="#fff6c9"/>
      <circle id="Elipse_73" data-name="Elipse 73" cx="9" cy="9" r="9" transform="translate(486 8011)" fill="#fff6c9"/>
      <circle id="Elipse_74" data-name="Elipse 74" cx="9" cy="9" r="9" transform="translate(514 8011)" fill="#fff6c9"/>
      <circle id="Elipse_75" data-name="Elipse 75" cx="9" cy="9" r="9" transform="translate(542 8011)" fill="#fff6c9"/>
      <circle id="Elipse_76" data-name="Elipse 76" cx="9" cy="9" r="9" transform="translate(570 8011)" fill="#fff6c9"/>
      <circle id="Elipse_77" data-name="Elipse 77" cx="9" cy="9" r="9" transform="translate(598 8011)" fill="#fff6c9"/>
      <circle id="Elipse_78" data-name="Elipse 78" cx="9" cy="9" r="9" transform="translate(626 8011)" fill="#fff6c9"/>
      <circle id="Elipse_81" data-name="Elipse 81" cx="9" cy="9" r="9" transform="translate(654 8011)" fill="#fff6c9"/>
      <circle id="Elipse_82" data-name="Elipse 82" cx="9" cy="9" r="9" transform="translate(682 8011)" fill="#fff6c9"/>
      <circle id="Elipse_84" data-name="Elipse 84" cx="9" cy="9" r="9" transform="matrix(0.156, 0.988, -0.988, 0.156, 434.387, 7824.214)" fill="#fff6c9"/>
      <circle id="Elipse_85" data-name="Elipse 85" cx="9" cy="9" r="9" transform="matrix(0.156, 0.988, -0.988, 0.156, 439.778, 7854.452)" fill="#fff6c9"/>
      <circle id="Elipse_86" data-name="Elipse 86" cx="9" cy="9" r="9" transform="matrix(0.156, 0.988, -0.988, 0.156, 445.684, 7884.689)" fill="#fff6c9"/>
      <circle id="Elipse_87" data-name="Elipse 87" cx="9" cy="9" r="9" transform="matrix(0.156, 0.988, -0.988, 0.156, 450.684, 7916.202)" fill="#fff6c9"/>
      <circle id="Elipse_88" data-name="Elipse 88" cx="9" cy="9" r="9" transform="matrix(0.156, 0.988, -0.988, 0.156, 455.981, 7946.44)" fill="#fff6c9"/>
      <circle id="Elipse_89" data-name="Elipse 89" cx="9" cy="9" r="9" transform="matrix(0.156, 0.988, -0.988, 0.156, 461.373, 7977.953)" fill="#fff6c9"/>
      <circle id="Elipse_90" data-name="Elipse 90" cx="9" cy="9" r="9" transform="matrix(0.156, 0.988, -0.988, 0.156, 468.378, 8009.465)" fill="#fff6c9"/>
      <circle id="Elipse_91" data-name="Elipse 91" cx="9" cy="9" r="9" transform="matrix(0.156, 0.988, -0.988, 0.156, 429.778, 7799.214)" fill="#fff6c9"/>
      <ellipse id="Elipse_92" data-name="Elipse 92" cx="9" cy="9" rx="9" ry="9" transform="translate(733.486 7827.03) rotate(99)" fill="#fff6c9"/>
      <ellipse id="Elipse_93" data-name="Elipse 93" cx="9" cy="9" rx="9" ry="9" transform="translate(728.094 7857.268) rotate(99)" fill="#fff6c9"/>
      <ellipse id="Elipse_94" data-name="Elipse 94" cx="9" cy="9" rx="9" ry="9" transform="translate(722.188 7887.505) rotate(99)" fill="#fff6c9"/>
      <ellipse id="Elipse_95" data-name="Elipse 95" cx="9" cy="9" rx="9" ry="9" transform="translate(717.188 7919.018) rotate(99)" fill="#fff6c9"/>
      <ellipse id="Elipse_96" data-name="Elipse 96" cx="9" cy="9" rx="9" ry="9" transform="translate(711.891 7949.256) rotate(99)" fill="#fff6c9"/>
      <ellipse id="Elipse_97" data-name="Elipse 97" cx="9" cy="9" rx="9" ry="9" transform="translate(706.5 7980.769) rotate(99)" fill="#fff6c9"/>
      <ellipse id="Elipse_98" data-name="Elipse 98" cx="9" cy="9" rx="9" ry="9" transform="translate(738.094 7802.03) rotate(99)" fill="#fff6c9"/>
    </g>
    <text id="CASINO" transform="translate(560 7751)" fill="#fff2bf" font-size="42" font-family="Multicolore, Multicolore "><tspan x="-82.488" y="0">CASINO</tspan></text>
    <path id="Trazado_547" data-name="Trazado 547" d="M-59.892-8.9c0,12.768,22.176,12.432,22.176,0v-94.08c0-11.928-7.056-15.12-14.784-11.76l-23.688,8.736c-15.288,5.04-7.224,24.864,6.216,20.5l10.08-4.032Zm93.408-110.88c-68.04,0-69.048,121.632.168,121.632C98.532,1.848,97.692-119.784,33.516-119.784Zm.168,22.68c34.776,0,35.28,76.944-.168,76.944C-5.628-20.16-5.124-97.1,33.684-97.1Z" transform="translate(575.487 7959.784)"/>
  </g>
</svg>
